<svg width="56" height="88" viewBox="0 0 56 88" fill="none" xmlns="http://www.w3.org/2000/svg">
<path d="M38.4745 59.5359L38.11 58.9187C38.0825 58.872 38.0492 58.8291 38.0108 58.7908C36.021 55.591 33.8527 52.5057 31.5163 49.5495C31.5035 49.5201 31.4874 49.4922 31.4683 49.4663L30.509 48.0689C30.4403 47.9671 30.3437 47.8871 30.2308 47.8387C30.2308 45.9553 32.2614 42.134 33.5244 40.2442C35.2096 40.0939 36.7221 38.9651 37.5855 37.1584C38.6216 35.0191 38.839 31.5848 36.4216 28.256C38.0204 26.9481 41.669 23.8624 44.7676 20.7574C49.3754 16.1399 49.5961 14.6562 49.1996 13.8184C48.931 13.2428 48.1187 11.5065 32.4756 6.35498C31.963 5.23824 31.305 4.1942 30.5186 3.25001C29.3818 1.78874 27.7237 0.82392 25.8915 0.557557C25.6043 0.519076 25.3148 0.499849 25.025 0.500001C23.6204 0.528069 22.2465 0.915587 21.0342 1.62559C19.0805 2.69681 18.2746 4.72735 17.8365 6.16312C17.7982 6.28143 17.763 6.39975 17.7278 6.52126C1.96959 11.7175 1.14778 13.4571 0.872774 14.0358C0.479457 14.8768 0.696906 16.3574 5.29519 20.9653C8.38417 24.0606 12.0391 27.1464 13.6284 28.4575C11.3516 31.7351 11.5882 35.0799 12.6179 37.1808C13.5005 38.9811 15.0002 40.1067 16.6886 40.2474C17.6703 41.9454 19.0932 45.7058 18.8982 47.5733C18.7639 47.746 18.3578 48.1489 17.9996 48.5102C17.8206 48.6893 17.6223 48.8843 17.4145 49.0954L17.0947 49.4152C17.0443 49.4621 17.0021 49.5173 16.97 49.5783C15.4863 51.1067 11.5723 55.2733 11.4891 59.7821C11.4572 61.5376 12.0775 63.824 13.331 66.5836C13.3393 66.6219 13.351 66.6594 13.3662 66.6955C13.6207 67.2839 13.9068 67.8582 14.2232 68.4159C15.7948 71.3954 17.575 74.2603 19.5505 76.9889C19.6097 77.0689 19.6869 77.134 19.7757 77.179C19.8645 77.2239 19.9626 77.2475 20.0622 77.2479L27.5576 77.2191C27.6484 77.2198 27.7384 77.2011 27.8214 77.1643C27.9045 77.1274 27.9787 77.0733 28.0392 77.0055C28.0997 76.9378 28.1451 76.8579 28.1723 76.7712C28.1996 76.6845 28.208 76.593 28.1971 76.5028C28.1971 76.4453 27.5064 70.747 27.0331 66.5196L26.982 66.04C26.9838 66.0155 26.9838 65.9909 26.982 65.9664C26.9468 65.6467 26.9148 65.3493 26.886 65.0807C27.0683 65.3621 27.2666 65.6531 27.4776 65.9536C27.4882 65.9735 27.4999 65.9927 27.5128 66.0112C27.5607 66.0783 28.6831 67.6676 29.4826 68.5917C32.8273 72.7008 37.4768 77.2927 38.1707 77.5261C38.3402 77.5837 38.66 77.6892 42.5579 77.6892C44.6812 77.6892 46.8397 77.6572 46.8588 77.6572C46.9631 77.6557 47.0653 77.6287 47.1567 77.5786C47.2481 77.5285 47.3258 77.4568 47.3832 77.3698C47.4406 77.2828 47.4758 77.1831 47.4859 77.0794C47.4959 76.9756 47.4804 76.871 47.4408 76.7747C44.8729 70.8191 41.8763 65.0577 38.4745 59.5359ZM33.7707 12.4466C38.0652 14.685 39.6832 15.5963 40.2908 15.9641C39.8751 16.4117 38.5864 17.5117 34.6053 20.0251C34.4226 18.7353 34.1152 17.4663 33.6875 16.2359C33.662 16.1549 33.6205 16.0798 33.5656 16.015C33.5107 15.9503 33.4434 15.8971 33.3678 15.8585C33.5472 15.1128 33.6638 14.3534 33.7163 13.5882C33.7163 13.5594 33.7163 13.5306 33.7163 13.5018C33.7847 13.1545 33.803 12.7991 33.7707 12.4466ZM22.8761 20.9525C23.4509 21.2332 24.0816 21.3807 24.7212 21.3842C25.8852 21.3842 27.0459 20.8597 28.0884 19.8876C27.7002 20.6196 27.1645 21.263 26.5151 21.7775L26.4735 21.8031L26.3936 21.8574C26.1889 21.8574 25.9779 21.8574 25.754 21.8574C24.7116 21.8574 23.634 21.9086 22.6203 22.0109C22.7457 21.669 22.8315 21.3139 22.8761 20.9525ZM16.3656 18.9155C16.3563 18.937 16.3498 18.9596 16.3464 18.9827C16.2198 19.5372 15.9886 20.0624 15.6653 20.5304C11.5083 18.0522 10.1973 16.9681 9.78155 16.5332C10.3411 16.1463 11.8441 15.1998 15.8188 12.8847C15.5029 13.8755 15.3885 14.9196 15.4824 15.9554C15.5764 16.9912 15.8767 17.9976 16.3656 18.9155Z" fill="white"/>
<path d="M29.575 23.824C29.575 23.824 41.4065 16.9874 41.0868 15.785C40.9652 15.2958 25.6035 7.55095 25.6035 7.55095L27.0105 5.28699C27.0105 5.28699 47.3862 11.4489 48.6237 14.087C49.8612 16.7251 32.8655 30.5904 32.2899 30.5904C31.7143 30.5904 29.575 23.824 29.575 23.824Z" fill="#070036"/>
<path d="M20.5162 24.0446C20.5162 24.0446 8.68477 17.5725 8.98215 16.3701C9.10686 15.8809 23.666 7.65002 23.666 7.65002L23.0712 5.50757C23.0712 5.50757 2.69548 11.6695 1.45797 14.3076C0.220464 16.9457 17.2162 30.8077 17.795 30.8077C18.3738 30.8077 20.5162 24.0446 20.5162 24.0446Z" fill="#070036"/>
<path d="M32.1363 10.9948C31.9315 10.9392 31.7167 10.9304 31.508 10.9692C31.2993 11.0079 31.102 11.0932 30.9308 11.2186C30.7389 7.59565 28.0337 4.72412 24.7241 4.72412C21.4145 4.72412 18.7796 7.50931 18.5269 11.0651C18.227 10.9235 17.885 10.8984 17.5676 10.9948C16.6883 11.2826 16.3077 12.5393 16.7202 13.8024C17.1327 15.0655 18.1784 15.8553 19.0577 15.5707C19.1292 15.545 19.1987 15.514 19.2656 15.478C20.324 18.2632 22.3642 20.7446 24.7017 20.7446C27.0392 20.7446 29.1593 18.1864 30.2017 15.3085C30.3262 15.4173 30.4707 15.5009 30.627 15.5547C31.5064 15.8393 32.5456 15.0495 32.9645 13.7864C33.3834 12.5233 33.0157 11.2826 32.1363 10.9948Z" fill="#070036"/>
<path d="M29.6526 48.2639C29.2497 45.8592 32.6105 40.308 33.5346 39.1696C35.1782 38.8211 36.7834 37.7498 37.439 34.9583C38.8172 29.0777 30.6662 23.1012 30.6662 23.1012C28.0281 22.1035 21.5208 22.4201 19.0586 23.3634C19.0586 23.3634 11.5664 29.212 12.9446 35.0894C13.5842 37.8809 15.2054 38.9522 16.849 39.3039C17.7572 40.4199 19.8772 45.4115 19.5383 47.7714C19.3816 48.4621 12.2475 53.8151 12.1388 59.782C12.0301 65.7489 20.0595 76.5955 20.0595 76.5955L27.5581 76.5667C27.5581 76.5667 25.7322 61.3744 25.9592 61.9692C27.7372 66.9096 37.7172 76.6786 38.3663 76.9056C39.0154 77.1327 46.8434 77.0048 46.8434 77.0048C46.8434 77.0048 40.1634 60.7381 29.6526 48.2639Z" fill="#070036"/>
<path d="M14.6584 28.1664C14.6584 28.1664 18.5596 26.2478 21.5559 29.6374C24.5521 33.0269 25.1181 36.1958 25.1181 36.1958C25.1181 36.1958 21.0762 39.5502 17.1239 39.6365C13.1715 39.7229 10.3607 33.4426 14.6584 28.1664Z" fill="#FF0079"/>
<path d="M35.5547 28.1664C35.5547 28.1664 31.6503 26.2478 28.654 29.6374C25.6578 33.0269 25.0918 36.1958 25.0918 36.1958C25.0918 36.1958 29.1337 39.5502 33.086 39.6365C37.0384 39.7229 39.8492 33.4426 35.5547 28.1664Z" fill="#FF0079"/>
<path d="M16.9062 27.7826L19.6787 23.1556L20.0816 23.05L18.2301 27.9042L16.9062 27.7826Z" fill="#FF0079"/>
<path d="M33.032 27.7635L29.9079 22.8518L29.3643 22.7687L31.625 28.0033L33.032 27.7635Z" fill="#FF0079"/>
<path d="M17.5264 49.8724C17.5264 49.8724 21.4659 50.448 21.888 50.7166C22.8313 51.3177 25.2648 58.4997 25.5909 58.9218C25.9171 59.3439 27.1386 55.7817 27.5607 53.9047C27.9828 52.0276 28.2195 50.6686 28.2195 50.6686L30.9375 49.8244L29.9942 48.427C29.9942 48.427 28.1747 49.2072 23.9505 49.2616C20.5354 49.3064 18.7926 48.6988 18.7926 48.6988L17.5264 49.8724Z" fill="#FF0079"/>
<path d="M13.9541 66.4396C13.9541 66.4396 20.1672 64.3547 26.3388 66.0911L26.6586 69.0042C26.6586 69.0042 19.5853 67.5908 15.6297 69.5478C15.0132 68.544 14.4538 67.5063 13.9541 66.4396Z" fill="#FF0079"/>
<path d="M18.6556 49.3768C18.6556 49.3768 16.2702 53.6522 15.4579 57.2943C14.6457 60.9365 16.5803 66.3822 16.5803 66.3822C16.5803 66.3822 17.076 65.9761 17.076 66.1136C17.076 66.2511 15.3684 60.8502 16.0879 57.5214C16.8074 54.1926 19.2344 49.7829 19.2344 49.7829L18.6556 49.3768Z" fill="#FF0079"/>
<path d="M30.0364 68.2624C30.0364 68.2624 32.166 64.326 39.4952 62.5257L37.5765 59.2417C37.5765 59.2417 30.3465 60.994 28.0314 65.6371C28.0154 65.6275 29.2497 67.3734 30.0364 68.2624Z" fill="#FF0079"/>
<path d="M26.2021 57.7579C26.2021 57.7579 30.0746 63.907 30.0746 64.0126C30.0746 64.1181 30.4647 63.728 30.4647 63.728L26.2725 57.0448L26.2021 57.7579Z" fill="#FF0079"/>
<path d="M31.8622 18.4487C32.3866 17.8923 32.6233 17.1696 33.0805 16.4405C33.8992 18.9987 34.5259 21.4353 33.5058 23.9839C33.4643 24.0926 33.3875 24.1693 33.5058 24.3484C34.4268 25.6275 34.398 27.5973 33.4867 28.9851C33.1121 28.1761 32.9075 27.2989 32.8855 26.4077C31.4977 30.4784 27.8523 31.3322 25.1791 30.6159C27.0337 30.1011 28.6421 29.372 29.448 27.5525C29.907 26.6069 30.0665 25.5438 29.9052 24.5051C28.751 25.4035 27.3666 25.9577 25.9113 26.1039C26.4423 25.7296 26.9016 25.2628 27.2671 24.7257C27.3977 24.5391 27.5051 24.3372 27.5869 24.1246C27.8491 23.2932 27.9387 22.3498 29.0738 22.1132C28.236 22.4074 27.475 22.7879 26.57 22.6536C26.6212 22.433 26.7971 22.3818 26.9154 22.2859C27.6613 21.7119 28.2697 20.9786 28.6962 20.1396C29.1227 19.3005 29.3566 18.3769 29.3808 17.436C29.405 16.4951 29.2189 15.5607 28.8361 14.7008C28.4533 13.841 27.8834 13.0774 27.168 12.4658C26.311 11.761 25.4036 11.1197 24.4532 10.5471C23.3276 9.81487 22.2404 9.03784 21.4825 7.89306C21.1447 7.37843 20.8981 6.80945 20.7534 6.21107C20.589 6.94638 20.498 7.69618 20.4816 8.44946C20.3729 10.221 20.3089 11.9925 20.6703 13.7448C20.9485 15.0719 21.5369 16.2295 22.7328 16.9841C22.7993 17.0275 22.8633 17.0745 22.9247 17.1248C22.4226 17.8795 23.5642 17.63 23.4619 18.1513C22.768 18.1065 22.0901 17.7803 21.3002 17.5949C21.4633 17.8667 21.5976 18.0649 21.7064 18.2728C22.1151 18.9952 22.3099 19.8189 22.268 20.6479C22.2261 21.4768 21.9492 22.2767 21.4697 22.9542C21.0019 23.6329 20.4823 24.2743 19.9156 24.8728C18.4607 26.5324 17.7668 28.3231 18.9563 30.472C15.7586 29.3592 14.2749 26.0208 16.5868 22.6632C15.9217 22.8807 15.3078 23.0981 14.5371 22.9606C15.0583 22.3211 15.5444 21.7615 15.9985 21.1763C16.4641 20.5761 16.7916 19.8806 16.9578 19.1394L17.5749 19.9452C17.7284 19.8205 17.6293 19.7469 17.5749 19.6734C16.8502 18.7275 16.3699 17.6176 16.1763 16.4419C15.9828 15.2662 16.082 14.0609 16.4653 12.9326C17.1368 10.7518 17.7732 8.56138 18.4383 6.37735C18.9499 4.69216 19.7366 3.08692 21.3162 2.22034C22.6721 1.47848 24.1942 0.998825 25.793 1.21307C27.5357 1.4465 28.9108 2.36104 30.0108 3.68169C32.3962 6.55962 33.2852 9.89802 33.0486 13.5946C32.9867 14.4359 32.8476 15.2697 32.6329 16.0856C32.4185 16.8865 32.1612 17.6753 31.8622 18.4487Z" fill="white"/>
<path d="M51.7514 73.3914H51.2653C50.8039 73.3842 50.3458 73.4713 49.9191 73.6472C49.4924 73.8232 49.1062 74.0843 48.7839 74.4147C48.6174 74.5774 48.4674 74.7563 48.3362 74.9487V74.3091C48.3329 74.1253 48.2577 73.9502 48.1268 73.8211C47.9959 73.692 47.8197 73.6193 47.6359 73.6185H41.928C41.8355 73.6185 41.7439 73.6368 41.6586 73.6724C41.5732 73.708 41.4957 73.7601 41.4306 73.8258C41.3655 73.8915 41.314 73.9695 41.2792 74.0552C41.2444 74.1409 41.2269 74.2326 41.2277 74.3251L41.2469 75.7673C41.0672 75.3258 40.7995 74.9254 40.4603 74.5905C40.1393 74.2598 39.7543 73.9979 39.3288 73.8209C38.9032 73.6439 38.4461 73.5554 37.9853 73.5609L34.6725 73.5737C34.4875 73.5754 34.3107 73.6498 34.1803 73.7808C34.0498 73.9119 33.9762 74.0891 33.9754 74.274V75.2717C33.8084 74.9533 33.5926 74.663 33.3358 74.4115C33.0159 74.0833 32.6328 73.8235 32.2095 73.6476C31.7863 73.4717 31.3319 73.3835 30.8736 73.3882H30.3875C29.9267 73.3824 29.4696 73.4701 29.0436 73.646C28.6177 73.8218 28.2318 74.0823 27.9093 74.4115C27.5579 74.7581 27.2842 75.1756 27.1067 75.6362C26.9276 75.1773 26.6542 74.7612 26.3041 74.4147C25.9822 74.0844 25.5966 73.8231 25.1705 73.6467C24.7445 73.4702 24.287 73.3823 23.8259 73.3882H23.3398C22.8795 73.3823 22.4227 73.4699 21.9973 73.6458C21.5718 73.8217 21.1866 74.0822 20.8648 74.4115C20.5481 74.7226 20.294 75.0917 20.1165 75.4987C19.9367 75.0932 19.6817 74.7254 19.3651 74.4147C19.0426 74.0843 18.6564 73.823 18.2298 73.6465C17.8032 73.4701 17.3453 73.3822 16.8837 73.3882H16.3944C15.933 73.3816 15.4751 73.4689 15.0486 73.6448C14.622 73.8207 14.2356 74.0816 13.913 74.4115C13.746 74.5782 13.5951 74.7602 13.4621 74.9551V74.3156C13.4613 74.1301 13.3872 73.9524 13.2561 73.8213C13.1249 73.6901 12.9473 73.6161 12.7618 73.6153L7.09553 73.6344C6.91036 73.6353 6.73305 73.7094 6.60241 73.8407C6.47177 73.9719 6.39844 74.1496 6.39844 74.3347V86.4636C6.39844 86.5556 6.41655 86.6466 6.45174 86.7316C6.48693 86.8165 6.53852 86.8938 6.60354 86.9588C6.66857 87.0238 6.74576 87.0754 6.83072 87.1106C6.91569 87.1458 7.00675 87.1639 7.09871 87.1639H12.7618C12.9473 87.163 13.1249 87.089 13.2561 86.9578C13.3872 86.8267 13.4613 86.6491 13.4621 86.4636V85.9296C13.5943 86.1251 13.7453 86.3072 13.913 86.4732C14.2355 86.8035 14.6217 87.0649 15.0483 87.2413C15.4749 87.4178 15.9328 87.5057 16.3944 87.4996H16.8613C17.3227 87.5063 17.7806 87.419 18.2072 87.2431C18.6338 87.0671 19.0201 86.8063 19.3427 86.4764C19.6831 86.1437 19.951 85.7441 20.1293 85.3028C20.3061 85.6769 20.5475 86.0168 20.8424 86.3069C21.1634 86.6374 21.5485 86.8988 21.9741 87.0753C22.3997 87.2518 22.8568 87.3396 23.3174 87.3334H23.8035C24.2645 87.3398 24.7219 87.2517 25.1475 87.0747C25.5732 86.8976 25.9581 86.6352 26.2785 86.3037C26.6341 85.9604 26.9122 85.545 27.0939 85.0854C27.2724 85.5446 27.5459 85.9609 27.8965 86.3069C28.2182 86.6375 28.6038 86.899 29.0299 87.0755C29.456 87.2519 29.9136 87.3397 30.3748 87.3334H30.8608C31.319 87.3374 31.7732 87.2488 32.1963 87.073C32.6194 86.8971 33.0027 86.6377 33.323 86.3101C33.5792 86.0568 33.7949 85.7656 33.9626 85.4467V86.4636C33.9626 86.6493 34.0364 86.8275 34.1677 86.9588C34.299 87.0901 34.4771 87.1639 34.6629 87.1639H36.6071C36.7928 87.1639 36.9709 87.0901 37.1023 86.9588C37.2336 86.8275 37.3074 86.6493 37.3074 86.4636V82.6264C37.5641 82.6142 37.8205 82.6578 38.0588 82.7543C38.1356 82.799 38.337 82.911 38.337 83.4929V86.4636C38.337 86.6493 38.4108 86.8275 38.5421 86.9588C38.6735 87.0901 38.8516 87.1639 39.0373 87.1639H40.9048C41.0905 87.1639 41.2686 87.0901 41.4 86.9588C41.5313 86.8275 41.6051 86.6493 41.6051 86.4636V83.058C41.5966 82.5161 41.4113 81.9917 41.0774 81.5647C40.9747 81.4251 40.8614 81.2936 40.7385 81.1714C41.1812 80.5919 41.4376 79.8916 41.4739 79.1632V77.0656C41.4753 76.8108 41.4485 76.5566 41.394 76.3077C41.4595 76.388 41.5418 76.4529 41.6353 76.4977C41.7287 76.5424 41.8308 76.566 41.9344 76.5667H43.1016V86.4636C43.1024 86.6491 43.1765 86.8267 43.3076 86.9578C43.4388 87.089 43.6164 87.163 43.8019 87.1639H45.7461C45.9318 87.1639 46.1099 87.0901 46.2413 86.9588C46.3726 86.8275 46.4464 86.6493 46.4464 86.4636V76.5667H47.6359C47.6753 76.5699 47.7149 76.5699 47.7542 76.5667C47.7542 76.6754 47.7542 76.7874 47.7542 76.8865V78.6037C47.7513 79.079 47.8536 79.5492 48.0537 79.9804C48.2538 80.4116 48.5469 80.7932 48.9118 81.0979C49.6124 81.7328 50.5244 82.084 51.47 82.0827C51.7897 82.0827 51.9624 82.54 51.9624 83.4354C51.9857 83.7201 51.9542 84.0067 51.8697 84.2796C51.8409 84.3339 51.7993 84.4139 51.5243 84.4139C51.4745 84.4206 51.4237 84.4164 51.3757 84.4015C51.3276 84.3866 51.2834 84.3613 51.2461 84.3275C51.1886 84.27 50.9999 84.0078 51.0095 83.1956C51.0099 83.1032 50.9921 83.0116 50.9572 82.9261C50.9222 82.8406 50.8707 82.7628 50.8057 82.6972C50.7407 82.6315 50.6634 82.5794 50.5782 82.5436C50.493 82.5079 50.4016 82.4893 50.3092 82.4889H48.4385C48.2531 82.4897 48.0754 82.5638 47.9443 82.6949C47.8131 82.8261 47.7391 83.0037 47.7382 83.1892V83.995C47.7425 84.9251 48.1149 85.8157 48.7741 86.4719C49.4333 87.1281 50.3256 87.4965 51.2557 87.4964H51.7418C52.6713 87.4965 53.5631 87.1285 54.2222 86.473C54.8813 85.8175 55.2542 84.9277 55.2592 83.9982V82.4697C55.2632 81.9944 55.1617 81.5242 54.9621 81.093C54.7625 80.6617 54.4697 80.28 54.1048 79.9755C53.4071 79.3356 52.4934 78.9827 51.5467 78.9874C51.3676 78.9874 51.2269 78.965 51.1438 78.6676C51.0433 78.2491 51.0035 77.8184 51.0255 77.3885C51.0028 77.1184 51.0399 76.8465 51.1342 76.5923C51.1342 76.5603 51.1918 76.4836 51.454 76.4836C51.7162 76.4836 51.8057 76.5763 51.8569 76.6882C51.9495 77.0199 51.9873 77.3645 51.9688 77.7083C51.9696 77.8938 52.0437 78.0714 52.1748 78.2026C52.306 78.3337 52.4836 78.4078 52.6691 78.4086H54.5397C54.7249 78.4078 54.9022 78.3336 55.0329 78.2024C55.1635 78.0711 55.2368 77.8935 55.2368 77.7083V76.9025C55.2368 75.9696 54.8662 75.0749 54.2066 74.4153C53.5469 73.7556 52.6523 73.385 51.7194 73.385L51.7514 73.3914ZM38.2187 77.5005V78.6644C38.2411 78.9223 38.2028 79.1819 38.1068 79.4223V79.451C38.1068 79.4734 38.0588 79.5406 37.787 79.5406H37.3201V76.6115H37.5376C37.7343 76.5913 37.9328 76.6233 38.1132 76.7042L38.1324 76.7266C38.2072 76.9773 38.2364 77.2394 38.2187 77.5005ZM31.0974 77.3374V83.3299C31.0974 84.1932 30.8416 84.1932 30.6562 84.1932C30.4707 84.1932 30.1413 84.1932 30.1413 83.3299V77.3374C30.1413 76.474 30.4611 76.474 30.7809 76.474C30.9823 76.474 31.0015 76.5188 31.0207 76.5603C31.0982 76.8116 31.1243 77.0758 31.0974 77.3374ZM24.75 79.5182H26.6207C26.7072 79.5184 26.7929 79.5021 26.8733 79.4702V81.0467C26.7929 81.0148 26.7072 80.9985 26.6207 80.9987H24.75C24.5645 80.9996 24.3869 81.0736 24.2557 81.2048C24.1246 81.3359 24.0505 81.5135 24.0497 81.699V83.3235C24.0497 84.1932 23.7971 84.1932 23.6116 84.1932C23.4262 84.1932 23.0968 84.1932 23.0968 83.3299V77.3374C23.0968 76.474 23.3494 76.474 23.5189 76.474C23.6884 76.474 24.0497 76.474 24.0497 77.7051V78.8179C24.0505 79.0034 24.1246 79.181 24.2557 79.3122C24.3869 79.4433 24.5645 79.5174 24.75 79.5182ZM16.2793 78.658C16.1789 78.2395 16.139 77.8088 16.161 77.3789C16.1404 77.1091 16.1763 76.8379 16.2665 76.5827C16.2857 76.5507 16.3273 76.474 16.6023 76.474C16.8773 76.474 16.954 76.5667 17.0052 76.6787C17.0978 77.0103 17.1356 77.3549 17.1171 77.6987C17.1179 77.8842 17.192 78.0618 17.3231 78.193C17.4543 78.3241 17.6319 78.3982 17.8174 78.399H19.6849C19.7322 78.3986 19.7793 78.3932 19.8256 78.383V80.647C19.6569 80.3957 19.4559 80.1677 19.2276 79.9691C18.53 79.3289 17.6162 78.976 16.6694 78.981C16.5032 78.9906 16.3784 78.9682 16.2793 78.658ZM12.8738 84.0365C12.8333 84.0334 12.7927 84.0334 12.7523 84.0365H9.73043V81.7726H12.7523C12.9377 81.7717 13.1154 81.6977 13.2465 81.5665C13.3777 81.4354 13.4517 81.2578 13.4526 81.0723V80.4679C13.6185 80.704 13.8129 80.9188 14.0313 81.1075C14.736 81.7461 15.6544 82.0976 16.6055 82.0924C16.9252 82.0924 17.0979 82.5496 17.0979 83.445C17.1216 83.7297 17.0902 84.0164 17.0052 84.2892C16.9764 84.3435 16.9348 84.4235 16.6566 84.4235C16.6073 84.4302 16.557 84.4259 16.5095 84.411C16.462 84.3961 16.4183 84.3708 16.3816 84.3371C16.3241 84.2796 16.1354 84.0174 16.1418 83.2051C16.1431 83.1128 16.126 83.0211 16.0914 82.9354C16.0568 82.8498 16.0054 82.7719 15.9404 82.7063C15.8078 82.5743 15.6286 82.4996 15.4415 82.4984H13.574C13.3886 82.4993 13.2109 82.5733 13.0798 82.7045C12.9486 82.8356 12.8746 83.0133 12.8738 83.1987V84.0429V84.0365ZM12.8738 78.6356C12.8334 78.6309 12.7926 78.6309 12.7523 78.6356H9.73043V76.765H12.7523H12.877C12.877 76.8129 12.877 76.8641 12.877 76.9121V78.658L12.8738 78.6356Z" fill="#070036"/>
<path d="M12.752 84.7273V86.4636H7.08887V74.3347L12.752 74.3156V76.0519H9.03307V79.3295H12.752V81.0691H9.03307V84.7337L12.752 84.7273Z" fill="white"/>
<path d="M19.6845 77.6988H17.8202C17.8402 77.2595 17.7828 76.8201 17.6507 76.4006C17.5667 76.1969 17.4202 76.0252 17.2322 75.9102C17.0443 75.7953 16.8247 75.743 16.6051 75.761C16.4156 75.74 16.2241 75.7745 16.0538 75.8602C15.8835 75.9459 15.7418 76.0792 15.6458 76.2439C15.4983 76.5988 15.4338 76.9827 15.4571 77.3663C15.4369 77.8676 15.4875 78.3692 15.6074 78.8564C15.6612 79.0973 15.798 79.3116 15.9938 79.4618C16.1896 79.612 16.432 79.6886 16.6786 79.6782C17.451 79.677 18.1955 79.967 18.7635 80.4904C19.0529 80.7302 19.2854 81.0313 19.4441 81.372C19.6028 81.7127 19.6838 82.0844 19.6813 82.4602V83.9887C19.6804 84.357 19.6071 84.7215 19.4653 85.0614C19.3236 85.4013 19.1164 85.71 18.8554 85.9698C18.5944 86.2296 18.2847 86.4355 17.9442 86.5757C17.6036 86.7158 17.2388 86.7875 16.8705 86.7867H16.3812C15.6374 86.7867 14.9239 86.4919 14.3971 85.9668C13.8703 85.4418 13.573 84.7293 13.5705 83.9855V83.1797H15.4379C15.4379 84.4588 15.8312 85.0983 16.653 85.0983C16.8465 85.1157 17.0408 85.0755 17.2115 84.9828C17.3822 84.89 17.5217 84.7489 17.6123 84.5771C17.7492 84.2073 17.807 83.813 17.7818 83.4195C17.7818 82.0509 17.3843 81.3666 16.5891 81.3666C15.8081 81.373 15.0538 81.0827 14.4786 80.5544C14.1885 80.3157 13.9554 80.0153 13.7961 79.6751C13.6367 79.3349 13.5553 78.9634 13.5577 78.5878V76.8706C13.5585 76.5023 13.6319 76.1378 13.7736 75.7979C13.9153 75.458 14.1226 75.1493 14.3836 74.8895C14.6446 74.6297 14.9542 74.4238 15.2948 74.2837C15.6353 74.1435 16.0002 74.0718 16.3685 74.0726H16.8609C17.6047 74.0726 18.3182 74.3674 18.845 74.8925C19.3719 75.4175 19.6691 76.13 19.6717 76.8738L19.6845 77.6988Z" fill="white"/>
<path d="M26.6202 83.8288C26.6202 84.5726 26.3247 85.2859 25.7988 85.8118C25.2729 86.3377 24.5596 86.6332 23.8158 86.6332H23.3298C22.5865 86.6332 21.8737 86.3381 21.3479 85.8129C20.8221 85.2877 20.5262 84.5752 20.5254 83.832V76.8898C20.5258 76.5219 20.5987 76.1577 20.7398 75.8181C20.881 75.4784 21.0877 75.1698 21.3481 74.91C21.6085 74.6502 21.9175 74.4442 22.2576 74.3038C22.5976 74.1634 22.9619 74.0914 23.3298 74.0918H23.8158C24.559 74.0918 25.2719 74.3868 25.7977 74.912C26.3235 75.4373 26.6194 76.1498 26.6202 76.893V78.8116H24.7495V77.6988C24.7495 76.4197 24.3392 75.7802 23.5184 75.7802C22.7702 75.7802 22.396 76.3014 22.396 77.3439V83.3364C22.396 84.3788 22.7989 84.9 23.6112 84.9C24.369 84.9 24.7495 84.3788 24.7495 83.3299V81.7055H26.6202V83.8288Z" fill="white"/>
<path d="M33.6649 83.8319C33.6708 84.2014 33.6 84.5681 33.4569 84.9088C33.3137 85.2495 33.1015 85.5568 32.8335 85.8113C32.5778 86.0744 32.2714 86.2829 31.9328 86.4241C31.5942 86.5654 31.2305 86.6365 30.8637 86.6331H30.3776C29.6344 86.6331 28.9216 86.3381 28.3958 85.8128C27.8699 85.2876 27.5741 84.5751 27.5732 83.8319V76.8897C27.5737 76.5218 27.6465 76.1577 27.7877 75.818C27.9289 75.4783 28.1355 75.1697 28.396 74.9099C28.6564 74.6501 28.9654 74.4441 29.3054 74.3037C29.6454 74.1633 30.0098 74.0913 30.3776 74.0917H30.8637C31.2303 74.0877 31.594 74.1582 31.9325 74.2989C32.2711 74.4396 32.5776 74.6476 32.8335 74.9103C33.101 75.1651 33.313 75.4725 33.456 75.8131C33.5991 76.1537 33.6702 76.5203 33.6649 76.8897V83.8319ZM31.7974 83.3299V77.3374C31.8189 76.977 31.7678 76.616 31.6471 76.2757C31.5717 76.1104 31.4462 75.973 31.2884 75.8829C31.1306 75.7928 30.9484 75.7546 30.7677 75.7737C29.8852 75.7737 29.4407 76.2949 29.4407 77.3374V83.3299C29.4407 84.3723 29.8457 84.8935 30.6558 84.8935C31.4169 84.8935 31.7974 84.3723 31.7974 83.3299Z" fill="white"/>
<path d="M40.9178 86.4637H39.0503V83.4866C39.0503 82.8257 38.8372 82.377 38.4108 82.1404C37.942 81.9454 37.4325 81.8686 36.9271 81.9165H36.6073V86.4573H34.6631V74.2772L37.9727 74.2581C38.716 74.2614 39.4278 74.5584 39.9531 75.0843C40.4784 75.6102 40.7746 76.3223 40.7771 77.0656V79.1633C40.7679 79.5793 40.6512 79.9858 40.4381 80.3433C40.2707 80.722 39.972 81.0275 39.5971 81.2034C39.9636 81.381 40.2793 81.6483 40.5149 81.9805C40.7586 82.2877 40.8956 82.666 40.905 83.0581L40.9178 86.4637ZM38.9256 78.6645V77.5005C38.9256 76.8866 38.8457 76.4805 38.6858 76.279C38.5003 76.0168 38.091 75.8921 37.4611 75.9049H36.6265V80.2217L37.7936 80.2409C37.977 80.26 38.162 80.2258 38.3265 80.1424C38.491 80.0591 38.6279 79.9301 38.721 79.7709C38.8803 79.4249 38.9506 79.0446 38.9256 78.6645Z" fill="white"/>
<path d="M47.6484 75.8664H45.7586V86.4636H43.8144V75.8664H41.9469L41.9277 74.3156H47.6292L47.6484 75.8664Z" fill="white"/>
<path d="M54.5649 77.6987H52.6942C52.7142 77.2594 52.6569 76.8199 52.5248 76.4005C52.4408 76.1968 52.2942 76.0251 52.1063 75.9101C51.9183 75.7952 51.6987 75.7429 51.4791 75.7609C51.2896 75.7399 51.0981 75.7744 50.9278 75.8601C50.7576 75.9458 50.6158 76.0791 50.5198 76.2438C50.3723 76.5987 50.3078 76.9825 50.3311 77.3661C50.3109 77.8675 50.3615 78.3691 50.4814 78.8563C50.5352 79.0972 50.672 79.3115 50.8678 79.4617C51.0636 79.6119 51.3061 79.6885 51.5526 79.6781C52.325 79.6769 53.0695 79.9669 53.6376 80.4903C53.9279 80.7295 54.1612 81.0304 54.3205 81.3712C54.4798 81.7119 54.5611 82.0839 54.5585 82.4601V83.9886C54.5551 84.7324 54.257 85.4445 53.7296 85.969C53.2021 86.4934 52.4883 86.7874 51.7445 86.7866H51.2585C50.5141 86.7874 49.7998 86.493 49.2723 85.9678C48.7447 85.4427 48.447 84.7297 48.4445 83.9854V83.1796H50.3151C50.3151 84.4586 50.7053 85.0982 51.5303 85.0982C51.7237 85.1152 51.9178 85.0748 52.0885 84.9821C52.2591 84.8894 52.3986 84.7485 52.4896 84.577C52.625 84.2069 52.6816 83.8126 52.6559 83.4194C52.6559 82.0508 52.2583 81.3665 51.4631 81.3665C50.6823 81.3722 49.9282 81.082 49.3526 80.5543C49.0626 80.3156 48.8294 80.0152 48.6701 79.675C48.5108 79.3348 48.4293 78.9633 48.4317 78.5877V76.8705C48.4325 76.502 48.506 76.1372 48.6479 75.7971C48.7898 75.4569 48.9974 75.1481 49.2587 74.8882C49.5201 74.6284 49.8301 74.4226 50.171 74.2826C50.5119 74.1427 50.8771 74.0713 51.2457 74.0725H51.7317C52.4756 74.0734 53.1889 74.3683 53.7161 74.8931C54.2432 75.4179 54.5415 76.1299 54.5457 76.8737L54.5649 77.6987Z" fill="white"/>
</svg>
