<svg width="53" height="47" viewBox="0 0 53 47" fill="none" xmlns="http://www.w3.org/2000/svg">
<g opacity="0.4">
<path d="M7.0032 41.296H3.5112L2.9112 43H1.4832L4.4712 34.648H6.0552L9.0432 43H7.6032L7.0032 41.296ZM6.6192 40.18L5.2632 36.304L3.8952 40.18H6.6192ZM11.7104 37.36C11.9424 37.056 12.2584 36.8 12.6584 36.592C13.0584 36.384 13.5104 36.28 14.0144 36.28C14.5904 36.28 15.1144 36.424 15.5864 36.712C16.0664 36.992 16.4424 37.388 16.7144 37.9C16.9864 38.412 17.1224 39 17.1224 39.664C17.1224 40.328 16.9864 40.924 16.7144 41.452C16.4424 41.972 16.0664 42.38 15.5864 42.676C15.1144 42.964 14.5904 43.108 14.0144 43.108C13.5104 43.108 13.0624 43.008 12.6704 42.808C12.2784 42.6 11.9584 42.344 11.7104 42.04V46.144H10.3424V36.388H11.7104V37.36ZM15.7304 39.664C15.7304 39.208 15.6344 38.816 15.4424 38.488C15.2584 38.152 15.0104 37.9 14.6984 37.732C14.3944 37.556 14.0664 37.468 13.7144 37.468C13.3704 37.468 13.0424 37.556 12.7304 37.732C12.4264 37.908 12.1784 38.164 11.9864 38.5C11.8024 38.836 11.7104 39.232 11.7104 39.688C11.7104 40.144 11.8024 40.544 11.9864 40.888C12.1784 41.224 12.4264 41.48 12.7304 41.656C13.0424 41.832 13.3704 41.92 13.7144 41.92C14.0664 41.92 14.3944 41.832 14.6984 41.656C15.0104 41.472 15.2584 41.208 15.4424 40.864C15.6344 40.52 15.7304 40.12 15.7304 39.664ZM19.8432 37.36C20.0752 37.056 20.3912 36.8 20.7912 36.592C21.1912 36.384 21.6432 36.28 22.1472 36.28C22.7232 36.28 23.2472 36.424 23.7192 36.712C24.1992 36.992 24.5752 37.388 24.8472 37.9C25.1192 38.412 25.2552 39 25.2552 39.664C25.2552 40.328 25.1192 40.924 24.8472 41.452C24.5752 41.972 24.1992 42.38 23.7192 42.676C23.2472 42.964 22.7232 43.108 22.1472 43.108C21.6432 43.108 21.1952 43.008 20.8032 42.808C20.4112 42.6 20.0912 42.344 19.8432 42.04V46.144H18.4752V36.388H19.8432V37.36ZM23.8632 39.664C23.8632 39.208 23.7672 38.816 23.5752 38.488C23.3912 38.152 23.1432 37.9 22.8312 37.732C22.5272 37.556 22.1992 37.468 21.8472 37.468C21.5032 37.468 21.1752 37.556 20.8632 37.732C20.5592 37.908 20.3112 38.164 20.1192 38.5C19.9352 38.836 19.8432 39.232 19.8432 39.688C19.8432 40.144 19.9352 40.544 20.1192 40.888C20.3112 41.224 20.5592 41.48 20.8632 41.656C21.1752 41.832 21.5032 41.92 21.8472 41.92C22.1992 41.92 22.5272 41.832 22.8312 41.656C23.1432 41.472 23.3912 41.208 23.5752 40.864C23.7672 40.52 23.8632 40.12 23.8632 39.664ZM27.976 37.348C28.176 37.012 28.44 36.752 28.768 36.568C29.104 36.376 29.5 36.28 29.956 36.28V37.696H29.608C29.072 37.696 28.664 37.832 28.384 38.104C28.112 38.376 27.976 38.848 27.976 39.52V43H26.608V36.388H27.976V37.348ZM34.0815 43.108C33.4575 43.108 32.8935 42.968 32.3895 42.688C31.8855 42.4 31.4895 42 31.2015 41.488C30.9135 40.968 30.7695 40.368 30.7695 39.688C30.7695 39.016 30.9175 38.42 31.2135 37.9C31.5095 37.38 31.9135 36.98 32.4255 36.7C32.9375 36.42 33.5095 36.28 34.1415 36.28C34.7735 36.28 35.3455 36.42 35.8575 36.7C36.3695 36.98 36.7735 37.38 37.0695 37.9C37.3655 38.42 37.5135 39.016 37.5135 39.688C37.5135 40.36 37.3615 40.956 37.0575 41.476C36.7535 41.996 36.3375 42.4 35.8095 42.688C35.2895 42.968 34.7135 43.108 34.0815 43.108ZM34.0815 41.92C34.4335 41.92 34.7615 41.836 35.0655 41.668C35.3775 41.5 35.6295 41.248 35.8215 40.912C36.0135 40.576 36.1095 40.168 36.1095 39.688C36.1095 39.208 36.0175 38.804 35.8335 38.476C35.6495 38.14 35.4055 37.888 35.1015 37.72C34.7975 37.552 34.4695 37.468 34.1175 37.468C33.7655 37.468 33.4375 37.552 33.1335 37.72C32.8375 37.888 32.6015 38.14 32.4255 38.476C32.2495 38.804 32.1615 39.208 32.1615 39.688C32.1615 40.4 32.3415 40.952 32.7015 41.344C33.0695 41.728 33.5295 41.92 34.0815 41.92ZM41.4218 41.776L43.2938 36.388H44.7458L42.2258 43H40.5938L38.0858 36.388H39.5498L41.4218 41.776ZM51.8399 39.532C51.8399 39.78 51.8239 40.004 51.7919 40.204H46.7399C46.7799 40.732 46.9759 41.156 47.3279 41.476C47.6799 41.796 48.1119 41.956 48.6239 41.956C49.3599 41.956 49.8799 41.648 50.1839 41.032H51.6599C51.4599 41.64 51.0959 42.14 50.5679 42.532C50.0479 42.916 49.3999 43.108 48.6239 43.108C47.9919 43.108 47.4239 42.968 46.9199 42.688C46.4239 42.4 46.0319 42 45.7439 41.488C45.4639 40.968 45.3239 40.368 45.3239 39.688C45.3239 39.008 45.4599 38.412 45.7319 37.9C46.0119 37.38 46.3999 36.98 46.8959 36.7C47.3999 36.42 47.9759 36.28 48.6239 36.28C49.2479 36.28 49.8039 36.416 50.2919 36.688C50.7799 36.96 51.1599 37.344 51.4319 37.84C51.7039 38.328 51.8399 38.892 51.8399 39.532ZM50.4119 39.1C50.4039 38.596 50.2239 38.192 49.8719 37.888C49.5199 37.584 49.0839 37.432 48.5639 37.432C48.0919 37.432 47.6879 37.584 47.3519 37.888C47.0159 38.184 46.8159 38.588 46.7519 39.1H50.4119Z" fill="white"/>
<rect x="14.6807" width="24" height="24" fill="#1E1E53"/>
<rect x="14.6807" width="24" height="24" fill="#1E1E53"/>
<circle cx="26.6807" cy="12" r="10.75" stroke="white" stroke-width="2.5"/>
<path opacity="0.973" d="M21.5156 12.1693V12.2206L21.5358 12.2677C21.5829 12.3776 21.6387 12.4847 21.7031 12.5891L21.7151 12.6085L21.7304 12.6254C22.6822 13.6784 23.6439 14.7227 24.6155 15.7581L24.6372 15.7813L24.664 15.7983C24.8331 15.9054 25.0155 15.9669 25.2075 15.9669C25.3996 15.9669 25.5819 15.9054 25.7511 15.7983L25.7771 15.7818L25.7984 15.7594C27.7153 13.7451 29.6406 11.7411 31.5742 9.74767L31.5842 9.73742L31.5929 9.7261C31.7411 9.53351 31.8315 9.32172 31.8439 9.09341C31.8562 8.86531 31.7894 8.64433 31.6636 8.43526L31.6492 8.41125L31.6298 8.39103C31.4402 8.19356 31.2195 8.06133 30.9676 8.03714C30.7153 8.01293 30.4742 8.10112 30.2523 8.25986L30.2333 8.27346L30.2171 8.29033L25.2242 13.5063L23.0418 11.1487L23.0086 11.1129L22.9645 11.0922C22.6797 10.9586 22.3903 10.9119 22.1224 11.0145C21.8559 11.1165 21.6681 11.3443 21.5377 11.6341L21.5156 11.683V11.7367V11.7376V11.7384V11.7393V11.7401V11.7409V11.7418V11.7426V11.7435V11.7443V11.7452V11.746V11.7469V11.7477V11.7486V11.7494V11.7502V11.7511V11.7519V11.7528V11.7536V11.7545V11.7553V11.7562V11.757V11.7578V11.7587V11.7595V11.7604V11.7612V11.7621V11.7629V11.7638V11.7646V11.7655V11.7663V11.7671V11.768V11.7688V11.7697V11.7705V11.7714V11.7722V11.7731V11.7739V11.7747V11.7756V11.7764V11.7773V11.7781V11.779V11.7798V11.7807V11.7815V11.7823V11.7832V11.784V11.7849V11.7857V11.7866V11.7874V11.7883V11.7891V11.79V11.7908V11.7916V11.7925V11.7933V11.7942V11.795V11.7959V11.7967V11.7976V11.7984V11.7992V11.8001V11.8009V11.8018V11.8026V11.8035V11.8043V11.8052V11.806V11.8069V11.8077V11.8085V11.8094V11.8102V11.8111V11.8119V11.8128V11.8136V11.8145V11.8153V11.8161V11.817V11.8178V11.8187V11.8195V11.8204V11.8212V11.8221V11.8229V11.8238V11.8246V11.8254V11.8263V11.8271V11.828V11.8288V11.8297V11.8305V11.8314V11.8322V11.833V11.8339V11.8347V11.8356V11.8364V11.8373V11.8381V11.839V11.8398V11.8407V11.8415V11.8423V11.8432V11.844V11.8449V11.8457V11.8466V11.8474V11.8483V11.8491V11.8499V11.8508V11.8516V11.8525V11.8533V11.8542V11.855V11.8559V11.8567V11.8576V11.8584V11.8592V11.8601V11.8609V11.8618V11.8626V11.8635V11.8643V11.8652V11.866V11.8668V11.8677V11.8685V11.8694V11.8702V11.8711V11.8719V11.8728V11.8736V11.8745V11.8753V11.8761V11.877V11.8778V11.8787V11.8795V11.8804V11.8812V11.8821V11.8829V11.8837V11.8846V11.8854V11.8863V11.8871V11.888V11.8888V11.8897V11.8905V11.8914V11.8922V11.893V11.8939V11.8947V11.8956V11.8964V11.8973V11.8981V11.899V11.8998V11.9006V11.9015V11.9023V11.9032V11.904V11.9049V11.9057V11.9066V11.9074V11.9082V11.9091V11.9099V11.9108V11.9116V11.9125V11.9133V11.9142V11.915V11.9159V11.9167V11.9175V11.9184V11.9192V11.9201V11.9209V11.9218V11.9226V11.9235V11.9243V11.9251V11.926V11.9268V11.9277V11.9285V11.9294V11.9302V11.9311V11.9319V11.9328V11.9336V11.9344V11.9353V11.9361V11.937V11.9378V11.9387V11.9395V11.9404V11.9412V11.942V11.9429V11.9437V11.9446V11.9454V11.9463V11.9471V11.948V11.9488V11.9497V11.9505V11.9513V11.9522V11.953V11.9539V11.9547V11.9556V11.9564V11.9573V11.9581V11.9589V11.9598V11.9606V11.9615V11.9623V11.9632V11.964V11.9649V11.9657V11.9666V11.9674V11.9682V11.9691V11.9699V11.9708V11.9716V11.9725V11.9733V11.9742V11.975V11.9758V11.9767V11.9775V11.9784V11.9792V11.9801V11.9809V11.9818V11.9826V11.9835V11.9843V11.9851V11.986V11.9868V11.9877V11.9885V11.9894V11.9902V11.9911V11.9919V11.9927V11.9936V11.9944V11.9953V11.9961V11.997V11.9978V11.9987V11.9995V12.0004V12.0012V12.002V12.0029V12.0037V12.0046V12.0054V12.0063V12.0071V12.008V12.0088V12.0096V12.0105V12.0113V12.0122V12.013V12.0139V12.0147V12.0156V12.0164V12.0173V12.0181V12.0189V12.0198V12.0206V12.0215V12.0223V12.0232V12.024V12.0249V12.0257V12.0265V12.0274V12.0282V12.0291V12.0299V12.0308V12.0316V12.0325V12.0333V12.0341V12.035V12.0358V12.0367V12.0375V12.0384V12.0392V12.0401V12.0409V12.0418V12.0426V12.0434V12.0443V12.0451V12.046V12.0468V12.0477V12.0485V12.0494V12.0502V12.051V12.0519V12.0527V12.0536V12.0544V12.0553V12.0561V12.057V12.0578V12.0587V12.0595V12.0603V12.0612V12.062V12.0629V12.0637V12.0646V12.0654V12.0663V12.0671V12.0679V12.0688V12.0696V12.0705V12.0713V12.0722V12.073V12.0739V12.0747V12.0756V12.0764V12.0772V12.0781V12.0789V12.0798V12.0806V12.0815V12.0823V12.0832V12.084V12.0848V12.0857V12.0865V12.0874V12.0882V12.0891V12.0899V12.0908V12.0916V12.0925V12.0933V12.0941V12.095V12.0958V12.0967V12.0975V12.0984V12.0992V12.1001V12.1009V12.1017V12.1026V12.1034V12.1043V12.1051V12.106V12.1068V12.1077V12.1085V12.1094V12.1102V12.111V12.1119V12.1127V12.1136V12.1144V12.1153V12.1161V12.117V12.1178V12.1186V12.1195V12.1203V12.1212V12.122V12.1229V12.1237V12.1246V12.1254V12.1263V12.1271V12.1279V12.1288V12.1296V12.1305V12.1313V12.1322V12.133V12.1339V12.1347V12.1355V12.1364V12.1372V12.1381V12.1389V12.1398V12.1406V12.1415V12.1423V12.1432V12.144V12.1448V12.1457V12.1465V12.1474V12.1482V12.1491V12.1499V12.1508V12.1516V12.1524V12.1533V12.1541V12.155V12.1558V12.1567V12.1575V12.1584V12.1592V12.16V12.1609V12.1617V12.1626V12.1634V12.1643V12.1651V12.166V12.1668V12.1677V12.1685V12.1693Z" fill="white" stroke="white" stroke-width="0.5"/>
</g>
</svg>
