<svg width="20" height="12" viewBox="0 0 20 12" fill="none" xmlns="http://www.w3.org/2000/svg">
<path d="M13.106 9.90223L12.9308 9.72389L13.106 9.90223C12.6757 10.3249 12.6757 11.0085 13.106 11.4312C13.5387 11.8563 14.2421 11.8563 14.6749 11.4312L19.4249 6.76449L19.4249 6.76448C19.8551 6.34179 19.8551 5.65824 19.4249 5.23555L19.4249 5.23555L14.6749 0.568855C14.2421 0.143716 13.5387 0.143714 13.106 0.568853C12.6757 0.991585 12.6757 1.67509 13.106 2.09782L15.5392 4.48835L15.9752 4.91668H15.364H2.3547C1.73903 4.91668 1.24756 5.40584 1.24756 6.00002C1.24756 6.59419 1.73903 7.08335 2.3547 7.08335H15.364H15.9752L15.5392 7.51169L13.106 9.90223Z" fill="#FF0079" stroke="#1E1E53" stroke-width="0.5"/>
</svg>
