<svg width="19" height="13" viewBox="0 0 19 13" fill="none" xmlns="http://www.w3.org/2000/svg">
<path d="M6.89159 10.4022L7.06679 10.2239L6.89159 10.4022C7.32185 10.8249 7.32185 11.5085 6.89159 11.9312C6.45885 12.3563 5.75544 12.3563 5.32269 11.9312L0.572699 7.26449L0.572695 7.26448C0.142435 6.84179 0.142435 6.15824 0.572695 5.73555L0.572699 5.73555L5.3227 1.06885C5.75544 0.643716 6.45884 0.643714 6.89158 1.06885C7.32185 1.49158 7.32185 2.17509 6.89158 2.59782L4.45837 4.98835L4.02238 5.41668H4.63357H17.6429C18.2585 5.41668 18.75 5.90584 18.75 6.50002C18.75 7.09419 18.2585 7.58335 17.6429 7.58335H4.63357H4.02238L4.45836 8.01169L6.89159 10.4022Z" fill="white" stroke="#01003C" stroke-width="0.5"/>
</svg>
