<svg width="26" height="20" viewBox="0 0 26 20" fill="none" xmlns="http://www.w3.org/2000/svg">
<path opacity="0.973" d="M17.4267 10.8256C14.121 10.8337 10.8154 10.8256 7.50985 10.8014C7.25174 10.765 7.06573 10.6363 6.94336 10.4096C6.88306 9.82265 6.85145 9.23231 6.84858 8.63867L6.84742 8.39889L6.67787 8.56844L2.66437 12.5819L2.59366 12.6526L2.66437 12.7234L6.67787 16.7369L6.84153 16.9005L6.84853 16.6692L6.89672 15.0791C6.99479 14.8034 7.18227 14.6301 7.4677 14.5525C9.97051 14.5203 12.4733 14.5203 14.9761 14.5524C15.2626 14.6592 15.4375 14.8069 15.5222 14.9865C15.6077 15.1676 15.611 15.4015 15.5114 15.6992C15.4017 15.877 15.2545 16.0116 15.0682 16.1042C12.9033 16.1284 10.7383 16.1364 8.57327 16.1283L8.47062 16.1279L8.47292 16.2306C8.49529 17.228 8.47161 18.2221 8.40189 19.2131C8.23514 19.482 8.04946 19.6306 7.84943 19.6815C7.64695 19.733 7.40816 19.6898 7.12609 19.5293L0.800442 13.2036C0.757765 13.1062 0.706307 13.0165 0.645898 12.9351V12.9347V12.9335V12.9324V12.9312V12.9301V12.929V12.9278V12.9267V12.9255V12.9244V12.9233V12.9221V12.921V12.9198V12.9187V12.9176V12.9164V12.9153V12.9141V12.913V12.9119V12.9107V12.9096V12.9084V12.9073V12.9062V12.905V12.9039V12.9027V12.9016V12.9005V12.8993V12.8982V12.897V12.8959V12.8948V12.8936V12.8925V12.8913V12.8902V12.8891V12.8879V12.8868V12.8856V12.8845V12.8833V12.8822V12.8811V12.8799V12.8788V12.8776V12.8765V12.8754V12.8742V12.8731V12.8719V12.8708V12.8697V12.8685V12.8674V12.8662V12.8651V12.864V12.8628V12.8617V12.8605V12.8594V12.8583V12.8571V12.856V12.8548V12.8537V12.8526V12.8514V12.8503V12.8491V12.848V12.8469V12.8457V12.8446V12.8434V12.8423V12.8412V12.84V12.8389V12.8377V12.8366V12.8355V12.8343V12.8332V12.832V12.8309V12.8298V12.8286V12.8275V12.8263V12.8252V12.8241V12.8229V12.8218V12.8206V12.8195V12.8184V12.8172V12.8161V12.8149V12.8138V12.8127V12.8115V12.8104V12.8092V12.8081V12.807V12.8058V12.8047V12.8035V12.8024V12.8013V12.8001V12.799V12.7978V12.7967V12.7956V12.7944V12.7933V12.7921V12.791V12.7899V12.7887V12.7876V12.7864V12.7853V12.7842V12.783V12.7819V12.7807V12.7796V12.7785V12.7773V12.7762V12.775V12.7739V12.7727V12.7716V12.7705V12.7693V12.7682V12.767V12.7659V12.7648V12.7636V12.7625V12.7613V12.7602V12.7591V12.7579V12.7568V12.7556V12.7545V12.7534V12.7522V12.7511V12.7499V12.7488V12.7477V12.7465V12.7454V12.7442V12.7431V12.742V12.7408V12.7397V12.7385V12.7374V12.7363V12.7351V12.734V12.7328V12.7317V12.7306V12.7294V12.7283V12.7271V12.726V12.7249V12.7237V12.7226V12.7214V12.7203V12.7192V12.718V12.7169V12.7157V12.7146V12.7135V12.7123V12.7112V12.71V12.7089V12.7078V12.7066V12.7055V12.7043V12.7032V12.7021V12.7009V12.6998V12.6986V12.6975V12.6964V12.6952V12.6941V12.6929V12.6918V12.6907V12.6895V12.6884V12.6872V12.6861V12.685V12.6838V12.6827V12.6815V12.6804V12.6793V12.6781V12.677V12.6758V12.6747V12.6736V12.6724V12.6713V12.6701V12.669V12.6679V12.6667V12.6656V12.6644V12.6633V12.6622V12.661V12.6599V12.6587V12.6576V12.6564V12.6553V12.6542V12.653V12.6519V12.6507V12.6496V12.6485V12.6473V12.6462V12.645V12.6439V12.6428V12.6416V12.6405V12.6393V12.6382V12.6371V12.6359V12.6348V12.6336V12.6325V12.6314V12.6302V12.6291V12.6279V12.6268V12.6257V12.6245V12.6234V12.6222V12.6211V12.62V12.6188V12.6177V12.6165V12.6154V12.6143V12.6131V12.612V12.6108V12.6097V12.6086V12.6074V12.6063V12.6051V12.604V12.6029V12.6017V12.6006V12.5994V12.5983V12.5972V12.596V12.5949V12.5937V12.5926V12.5915V12.5903V12.5892V12.588V12.5869V12.5858V12.5846V12.5835V12.5823V12.5812V12.5801V12.5789V12.5778V12.5766V12.5755V12.5744V12.5732V12.5721V12.5709V12.5698V12.5687V12.5675V12.5664V12.5652V12.5641V12.563V12.5618V12.5607V12.5595V12.5584V12.5573V12.5561V12.555V12.5538V12.5527V12.5516V12.5504V12.5493V12.5481V12.547V12.5459V12.5447V12.5436V12.5424V12.5413V12.5401V12.539V12.5379V12.5367V12.5356V12.5344V12.5333V12.5322V12.531V12.5299V12.5287V12.5276V12.5265V12.5253V12.5242V12.523V12.5219V12.5208V12.5196V12.5185V12.5173V12.5162V12.5151V12.5139V12.5128V12.5116V12.5105V12.5094V12.5082V12.5071V12.5059V12.5048V12.5037V12.5025V12.5014V12.5002V12.4991V12.498V12.4968V12.4957V12.4945V12.4934V12.4923V12.4911V12.49V12.4888V12.4877V12.4866V12.4854V12.4843V12.4831V12.482V12.4809V12.4797V12.4786V12.4774V12.4763V12.4752V12.474V12.4729V12.4717V12.4706V12.4695V12.4683V12.4672V12.466V12.4649V12.4638V12.4626V12.4615V12.4603V12.4592V12.4581V12.4569V12.4558V12.4546V12.4535V12.4524V12.4512V12.4501V12.4489V12.4478V12.4467V12.4455V12.4444V12.4432V12.4421V12.441V12.4398V12.4387V12.4375V12.4364V12.4353V12.4341V12.433V12.4318V12.4307V12.4296V12.4284V12.4273V12.4261V12.425V12.4238V12.4227V12.4216V12.4204V12.4193V12.4181V12.417V12.4159V12.4147V12.4136V12.4124V12.4123C0.684232 12.3459 0.719588 12.2747 0.752047 12.1987L7.17362 5.77716C7.44584 5.6334 7.67635 5.59725 7.87179 5.64869C8.06483 5.69948 8.24287 5.84079 8.40192 6.09256C8.47162 7.08342 8.49529 8.07745 8.47292 9.07474L8.47062 9.17724L8.57314 9.17699C11.8788 9.16887 15.1844 9.17698 18.49 9.20126C18.7481 9.23761 18.9341 9.36635 19.0565 9.593C19.1168 10.18 19.1484 10.7703 19.1512 11.3639L19.1524 11.6037L19.3219 11.4342L23.3354 7.42068L23.4062 7.34997L23.3354 7.27925L19.3219 3.26575L19.1583 3.10209L19.1513 3.33344L19.1031 4.9235C19.005 5.19925 18.8175 5.37248 18.5321 5.45014C16.0293 5.48234 13.5265 5.48236 11.0237 5.4502C10.7372 5.34342 10.5623 5.19574 10.4776 5.01609C10.3921 4.83498 10.3888 4.60114 10.4884 4.30338C10.5981 4.12557 10.7453 3.99105 10.9316 3.89837C13.0965 3.87424 15.2615 3.86621 17.4265 3.8743L17.5291 3.87468L17.5269 3.77215C17.5051 2.75962 17.5287 1.74971 17.5979 0.74234C17.7436 0.523067 17.9085 0.39092 18.0897 0.332798C18.2722 0.274263 18.485 0.286401 18.7337 0.381692C20.9037 2.50333 23.0589 4.64236 25.1993 6.79883C25.242 6.89636 25.2935 6.98602 25.3539 7.06753V7.06796V7.0691V7.07024V7.07138V7.07252V7.07366V7.0748V7.07594V7.07708V7.07822V7.07936V7.0805V7.08164V7.08278V7.08392V7.08506V7.0862V7.08734V7.08848V7.08962V7.09076V7.0919V7.09304V7.09418V7.09532V7.09646V7.0976V7.09874V7.09988V7.10102V7.10216V7.1033V7.10444V7.10558V7.10672V7.10786V7.109V7.11014V7.11128V7.11242V7.11356V7.1147V7.11584V7.11698V7.11812V7.11927V7.12041V7.12155V7.12269V7.12383V7.12497V7.12611V7.12725V7.12839V7.12953V7.13067V7.13181V7.13295V7.13409V7.13523V7.13637V7.13751V7.13865V7.13979V7.14093V7.14207V7.14321V7.14435V7.14549V7.14663V7.14777V7.14891V7.15005V7.15119V7.15233V7.15347V7.15461V7.15575V7.15689V7.15803V7.15917V7.16031V7.16145V7.16259V7.16373V7.16487V7.16601V7.16715V7.16829V7.16943V7.17057V7.17171V7.17285V7.17399V7.17513V7.17627V7.17741V7.17856V7.1797V7.18084V7.18198V7.18312V7.18426V7.1854V7.18654V7.18768V7.18882V7.18996V7.1911V7.19224V7.19338V7.19452V7.19566V7.1968V7.19794V7.19908V7.20022V7.20136V7.2025V7.20364V7.20478V7.20592V7.20706V7.2082V7.20934V7.21048V7.21162V7.21276V7.2139V7.21504V7.21618V7.21732V7.21846V7.2196V7.22074V7.22188V7.22302V7.22416V7.2253V7.22644V7.22758V7.22872V7.22986V7.231V7.23214V7.23328V7.23443V7.23557V7.23671V7.23785V7.23899V7.24013V7.24127V7.24241V7.24355V7.24469V7.24583V7.24697V7.24811V7.24925V7.25039V7.25153V7.25267V7.25381V7.25495V7.25609V7.25723V7.25837V7.25951V7.26065V7.26179V7.26293V7.26407V7.26521V7.26635V7.26749V7.26863V7.26977V7.27091V7.27205V7.27319V7.27433V7.27547V7.27661V7.27775V7.27889V7.28003V7.28117V7.28231V7.28345V7.28459V7.28573V7.28687V7.28801V7.28915V7.29029V7.29143V7.29258V7.29372V7.29486V7.296V7.29714V7.29828V7.29942V7.30056V7.3017V7.30284V7.30398V7.30512V7.30626V7.3074V7.30854V7.30968V7.31082V7.31196V7.3131V7.31424V7.31538V7.31652V7.31766V7.3188V7.31994V7.32108V7.32222V7.32336V7.3245V7.32564V7.32678V7.32792V7.32906V7.3302V7.33134V7.33248V7.33362V7.33476V7.3359V7.33704V7.33818V7.33932V7.34046V7.3416V7.34274V7.34388V7.34502V7.34616V7.3473V7.34844V7.34959V7.35073V7.35187V7.35301V7.35415V7.35529V7.35643V7.35757V7.35871V7.35985V7.36099V7.36213V7.36327V7.36441V7.36555V7.36669V7.36783V7.36897V7.37011V7.37125V7.37239V7.37353V7.37467V7.37581V7.37695V7.37809V7.37923V7.38037V7.38151V7.38265V7.38379V7.38493V7.38607V7.38721V7.38835V7.38949V7.39063V7.39177V7.39291V7.39405V7.39519V7.39633V7.39747V7.39861V7.39975V7.40089V7.40203V7.40317V7.40431V7.40545V7.4066V7.40774V7.40888V7.41002V7.41116V7.4123V7.41344V7.41458V7.41572V7.41686V7.418V7.41914V7.42028V7.42142V7.42256V7.4237V7.42484V7.42598V7.42712V7.42826V7.4294V7.43054V7.43168V7.43282V7.43396V7.4351V7.43624V7.43738V7.43852V7.43966V7.4408V7.44194V7.44308V7.44422V7.44536V7.4465V7.44764V7.44878V7.44992V7.45106V7.4522V7.45334V7.45448V7.45562V7.45676V7.4579V7.45904V7.46018V7.46132V7.46246V7.4636V7.46475V7.46589V7.46703V7.46817V7.46931V7.47045V7.47159V7.47273V7.47387V7.47501V7.47615V7.47729V7.47843V7.47957V7.48071V7.48185V7.48299V7.48413V7.48527V7.48641V7.48755V7.48869V7.48983V7.49097V7.49211V7.49325V7.49439V7.49553V7.49667V7.49781V7.49895V7.50009V7.50123V7.50237V7.50351V7.50465V7.50579V7.50693V7.50807V7.50921V7.51035V7.51149V7.51263V7.51377V7.51491V7.51605V7.51719V7.51833V7.51947V7.52062V7.52176V7.5229V7.52404V7.52518V7.52632V7.52746V7.5286V7.52974V7.53088V7.53202V7.53316V7.5343V7.53544V7.53658V7.53772V7.53886V7.54V7.54114V7.54228V7.54342V7.54456V7.5457V7.54684V7.54798V7.54912V7.55026V7.5514V7.55254V7.55368V7.55482V7.55596V7.5571V7.55824V7.55938V7.56052V7.56166V7.5628V7.56394V7.56508V7.56622V7.56736V7.5685V7.56964V7.57078V7.57192V7.57306V7.5742V7.57534V7.57648V7.57762V7.57876V7.57991V7.58105V7.58219V7.58333V7.58447V7.58561V7.58675V7.58789V7.58903V7.59017V7.59031C25.3156 7.65672 25.2802 7.72793 25.2478 7.80388L18.8262 14.2255C18.554 14.3692 18.3235 14.4054 18.128 14.3539C17.935 14.3031 17.7569 14.1618 17.5979 13.9101C17.5282 12.9192 17.5045 11.9252 17.5269 10.9279L17.5292 10.8254L17.4267 10.8256Z" fill="white" stroke="#1E1E53" stroke-width="0.2"/>
</svg>
