<svg width="24" height="16" viewBox="0 0 24 16" fill="none" xmlns="http://www.w3.org/2000/svg">
<path opacity="0.968" fill-rule="evenodd" clip-rule="evenodd" d="M23.9988 0.681815C23.9988 0.893936 23.9988 1.10605 23.9988 1.31817C23.8424 1.65895 23.5768 1.87867 23.2019 1.97726C15.7336 2.00758 8.26518 2.00758 0.796834 1.97726C0.421936 1.87867 0.156324 1.65895 0 1.31817C0 1.10605 0 0.893936 0 0.681815C0.156324 0.341035 0.421936 0.121337 0.796834 0.0227283C8.26518 -0.00757609 15.7336 -0.00757609 23.2019 0.0227283C23.5768 0.121337 23.8424 0.341035 23.9988 0.681815Z" fill="white"/>
<path opacity="0.989" fill-rule="evenodd" clip-rule="evenodd" d="M23.9988 7.69768C23.9988 7.89921 23.9988 8.10079 23.9988 8.30232C23.8823 8.6426 23.648 8.86739 23.2957 8.97673C15.7648 9.00776 8.23396 9.00776 0.703088 8.97673C0.350798 8.86739 0.116436 8.6426 0 8.30232C0 8.10079 0 7.89921 0 7.69768C0.116436 7.3574 0.350798 7.13261 0.703088 7.02327C8.23396 6.99224 15.7648 6.99224 23.2957 7.02327C23.648 7.13261 23.8823 7.3574 23.9988 7.69768Z" fill="white"/>
<path opacity="0.968" fill-rule="evenodd" clip-rule="evenodd" d="M23.9988 14.6818C23.9988 14.894 23.9988 15.106 23.9988 15.3182C23.8421 15.6594 23.5764 15.8791 23.2019 15.9773C15.7336 16.0076 8.26518 16.0076 0.796834 15.9773C0.422312 15.8791 0.156701 15.6594 0 15.3182C0 15.106 0 14.894 0 14.6818C0.161635 14.3207 0.44287 14.1011 0.843706 14.0227C8.28083 13.9924 15.7179 13.9924 23.155 14.0227C23.5559 14.1011 23.8371 14.3207 23.9988 14.6818Z" fill="white"/>
</svg>
