<svg width="51" height="51" viewBox="0 0 51 51" fill="none" xmlns="http://www.w3.org/2000/svg">
<g opacity="0.4" clip-path="url(#clip0_217_2122)">
<path opacity="0.99" fill-rule="evenodd" clip-rule="evenodd" d="M3.74902 0.451172C7.39485 0.451172 11.0407 0.451172 14.6865 0.451172C16.5731 1.02026 17.6312 2.28979 17.8604 4.25977C17.877 7.53272 18.3978 10.7229 19.4229 13.8301C19.5903 14.8632 19.4276 15.8397 18.9346 16.7598C17.3439 18.8181 15.7651 20.8851 14.1982 22.9609C16.4383 27.35 19.5308 31.0284 23.4756 33.9961C24.97 35.0337 26.5162 35.994 28.1143 36.877C30.0837 35.3633 32.053 33.8496 34.0225 32.3359C34.7644 31.8654 35.5781 31.6213 36.4639 31.6035C38.2846 32.0098 40.1075 32.4167 41.9326 32.8242C43.7794 33.0828 45.6349 33.2456 47.499 33.3125C49.1118 33.7698 50.1535 34.7952 50.624 36.3887C50.624 40.0345 50.624 43.6804 50.624 47.3262C50.1357 48.9212 49.094 49.9629 47.499 50.4512C46.262 50.4512 45.0251 50.4512 43.7881 50.4512C27.7864 49.0021 15.5306 41.5152 7.02051 27.9902C3.25509 21.5857 1.12293 14.6847 0.624023 7.28711C0.624023 6.05013 0.624023 4.81315 0.624023 3.57617C1.1123 1.98112 2.15397 0.939453 3.74902 0.451172Z" fill="white"/>
</g>
<defs>
<clipPath id="clip0_217_2122">
<rect width="50" height="50" fill="white" transform="translate(0.672852 0.5)"/>
</clipPath>
</defs>
</svg>
