<svg width="22" height="14" viewBox="0 0 22 14" fill="none" xmlns="http://www.w3.org/2000/svg">
<g opacity="0.4">
<path opacity="0.995" d="M1.27326 12.2607C1.06279 12.0653 0.891401 11.7904 0.780273 11.4007V11.3938V11.3763V11.3587V11.3411V11.3235V11.306V11.2884V11.2708V11.2532V11.2357V11.2181V11.2005V11.1829V11.1654V11.1478V11.1302V11.1126V11.0951V11.0775V11.0599V11.0423V11.0247V11.0072V10.9896V10.972V10.9544V10.9369V10.9193V10.9017V10.8841V10.8666V10.849V10.8314V10.8138V10.7963V10.7787V10.7611V10.7435V10.726V10.7084V10.6908V10.6732V10.6557V10.6381V10.6205V10.6029V10.5854V10.5678V10.5502V10.5326V10.5151V10.4975V10.4799V10.4623V10.4447V10.4272V10.4096V10.392V10.3744V10.3569V10.3393V10.3217V10.3041V10.2866V10.269V10.2514V10.2338V10.2163V10.1987V10.1811V10.1635V10.146V10.1284V10.1108V10.0932V10.0757V10.0581V10.0405V10.0229V10.0054V9.98778V9.9702V9.95262V9.93505V9.91747V9.8999V9.88232V9.86475V9.84717V9.82959V9.81202V9.79444V9.77687V9.75929V9.74171V9.72414V9.70656V9.68899V9.67141V9.65384V9.63626V9.61868V9.60111V9.58353V9.56596V9.54838V9.5308V9.51323V9.49565V9.47808V9.4605V9.44293V9.42535V9.40777V9.3902V9.37262V9.35505V9.33747V9.31989V9.30232V9.28474V9.26717V9.24959V9.23202V9.21444V9.19686V9.17929V9.16171V9.14414V9.12656V9.10898V9.09141V9.07383V9.05626V9.03868V9.02111V9.00353V8.98595V8.96838V8.9508V8.93323V8.91565V8.89808V8.8805V8.86292V8.84535V8.82777V8.8102V8.79262V8.77504V8.75747V8.73989V8.72232V8.70474V8.68717V8.66959V8.65201V8.63444V8.61686V8.59929V8.58171V8.56413V8.54656V8.52898V8.51141V8.49383V8.47626V8.45868V8.4411V8.42353V8.40595V8.38838V8.3708V8.35322V8.33565V8.31807V8.3005V8.28292V8.26535V8.24777V8.23019V8.21262V8.19504V8.17747V8.15989V8.14231V8.12474V8.10716V8.08959V8.07201V8.05444V8.03686V8.01928V8.00171V7.98413V7.96656V7.94898V7.93141V7.91383V7.89625V7.87868V7.8611V7.84353V7.82595V7.80837V7.7908V7.77322V7.75565V7.73807V7.7205V7.70292V7.68534V7.66777V7.65019V7.63262V7.61504V7.59746V7.57989V7.56231V7.54474V7.52716V7.50959V7.49201V7.47443V7.45686V7.43928V7.42171V7.40413V7.38655V7.36898V7.3514V7.33383V7.31625V7.29868V7.2811V7.26352V7.24595V7.22837V7.2108V7.19322V7.17565V7.15807V7.14049V7.12292V7.10534V7.08777V7.07019V7.05261V7.03504V7.01746V6.99989V6.98231V6.96474V6.94716V6.92958V6.91201V6.89443V6.87686V6.85928V6.8417V6.82413V6.80655V6.78898V6.7714V6.75383V6.73625V6.71867V6.7011V6.68352V6.66595V6.64837V6.6308V6.61322V6.59564V6.57807V6.56049V6.54292V6.52534V6.50776V6.49019V6.47261V6.45504V6.43746V6.41989V6.40231V6.38473V6.36716V6.34958V6.33201V6.31443V6.29685V6.27928V6.2617V6.24413V6.22655V6.20898V6.1914V6.17382V6.15625V6.13867V6.1211V6.10352V6.08594V6.06837V6.05079V6.03322V6.01564V5.99807V5.98049V5.96291V5.94534V5.92776V5.91019V5.89261V5.87503V5.85746V5.83988V5.82231V5.80473V5.78716V5.76958V5.752V5.73443V5.71685V5.69928V5.6817V5.66412V5.64655V5.62897V5.6114V5.59382V5.57625V5.55867V5.54109V5.52352V5.50594V5.48837V5.47079V5.45322V5.43564V5.41806V5.40049V5.38291V5.36534V5.34776V5.33018V5.31261V5.29503V5.27746V5.25988V5.24231V5.22473V5.20715V5.18958V5.172V5.15443V5.13685V5.11927V5.1017V5.08412V5.06655V5.04897V5.0314V5.01382V4.99624V4.97867V4.96109V4.94352V4.92594V4.90836V4.89079V4.87321V4.85564V4.83806V4.82049V4.80291V4.78533V4.76776V4.75018V4.73261V4.71503V4.69745V4.67988V4.6623V4.64473V4.62715V4.60958V4.592V4.57442V4.55685V4.53927V4.5217V4.50412V4.48655V4.46897V4.45139V4.43382V4.41624V4.39867V4.38109V4.36351V4.34594V4.32836V4.31079V4.29321V4.27564V4.25806V4.24048V4.22291V4.20533V4.18776V4.17018V4.1526V4.13503V4.11745V4.09988V4.0823V4.06473V4.04715V4.02957V4.012V3.99442V3.97685V3.95927V3.94169V3.92412V3.90654V3.88897V3.87139V3.85382V3.83624V3.81866V3.80109V3.78351V3.76594V3.74836V3.73078V3.71321V3.69563V3.67806V3.66048V3.64291V3.62533V3.60775V3.59018V3.5726V3.55503V3.53745V3.51988V3.5023V3.48472V3.46715V3.44957V3.432V3.41442V3.39684V3.37927V3.36169V3.34412V3.32654V3.30897V3.29139V3.27381V3.25624V3.23866V3.22109V3.20351V3.18593V3.16836V3.15078V3.13321V3.11563V3.09806V3.08048V3.0629V3.04533V3.02775V3.01018V2.9926V2.97502V2.95745V2.93987V2.9223V2.90472V2.88715V2.86957V2.85199V2.83442V2.81684V2.79927V2.78169V2.76411V2.74654V2.72896V2.71139V2.69381V2.67624V2.65866V2.64108V2.62351V2.60593V2.59905C0.891401 2.20935 1.06279 1.93452 1.27326 1.73908C1.48893 1.53882 1.78672 1.38378 2.20342 1.30017C5.68583 1.27231 9.16828 1.27234 12.6507 1.30024C13.0961 1.3769 13.4006 1.53461 13.6124 1.73786C13.8219 1.93898 13.9907 2.23257 14.0862 2.66683C14.1138 5.55328 14.1138 8.43968 14.0863 11.3261C13.9844 11.7505 13.8129 12.0438 13.5996 12.2485C13.384 12.4554 13.0797 12.6159 12.6438 12.6996C9.16372 12.7274 5.68355 12.7274 2.20342 12.6996C1.78672 12.616 1.48893 12.461 1.27326 12.2607Z" stroke="white" stroke-width="1.5"/>
<path opacity="0.99" d="M20.8858 2.66696C20.9889 2.72435 21.1102 2.838 21.2199 3.07747V3.08676V3.10258V3.1184V3.13421V3.15003V3.16585V3.18167V3.19749V3.21331V3.22912V3.24494V3.26076V3.27658V3.2924V3.30822V3.32403V3.33985V3.35567V3.37149V3.38731V3.40313V3.41894V3.43476V3.45058V3.4664V3.48222V3.49803V3.51385V3.52967V3.54549V3.56131V3.57713V3.59294V3.60876V3.62458V3.6404V3.65622V3.67204V3.68785V3.70367V3.71949V3.73531V3.75113V3.76695V3.78276V3.79858V3.8144V3.83022V3.84604V3.86185V3.87767V3.89349V3.90931V3.92513V3.94095V3.95676V3.97258V3.9884V4.00422V4.02004V4.03586V4.05167V4.06749V4.08331V4.09913V4.11495V4.13077V4.14658V4.1624V4.17822V4.19404V4.20986V4.22567V4.24149V4.25731V4.27313V4.28895V4.30477V4.32058V4.3364V4.35222V4.36804V4.38386V4.39968V4.41549V4.43131V4.44713V4.46295V4.47877V4.49459V4.5104V4.52622V4.54204V4.55786V4.57368V4.58949V4.60531V4.62113V4.63695V4.65277V4.66859V4.6844V4.70022V4.71604V4.73186V4.74768V4.7635V4.77931V4.79513V4.81095V4.82677V4.84259V4.8584V4.87422V4.89004V4.90586V4.92168V4.9375V4.95331V4.96913V4.98495V5.00077V5.01659V5.03241V5.04822V5.06404V5.07986V5.09568V5.1115V5.12732V5.14313V5.15895V5.17477V5.19059V5.20641V5.22222V5.23804V5.25386V5.26968V5.2855V5.30132V5.31713V5.33295V5.34877V5.36459V5.38041V5.39623V5.41204V5.42786V5.44368V5.4595V5.47532V5.49114V5.50695V5.52277V5.53859V5.55441V5.57023V5.58604V5.60186V5.61768V5.6335V5.64932V5.66514V5.68095V5.69677V5.71259V5.72841V5.74423V5.76005V5.77586V5.79168V5.8075V5.82332V5.83914V5.85495V5.87077V5.88659V5.90241V5.91823V5.93405V5.94986V5.96568V5.9815V5.99732V6.01314V6.02896V6.04477V6.06059V6.07641V6.09223V6.10805V6.12387V6.13968V6.1555V6.17132V6.18714V6.20296V6.21877V6.23459V6.25041V6.26623V6.28205V6.29787V6.31368V6.3295V6.34532V6.36114V6.37696V6.39278V6.40859V6.42441V6.44023V6.45605V6.47187V6.48769V6.5035V6.51932V6.53514V6.55096V6.56678V6.58259V6.59841V6.61423V6.63005V6.64587V6.66169V6.6775V6.69332V6.70914V6.72496V6.74078V6.7566V6.77241V6.78823V6.80405V6.81987V6.83569V6.8515V6.86732V6.88314V6.89896V6.91478V6.9306V6.94641V6.96223V6.97805V6.99387V7.00969V7.02551V7.04132V7.05714V7.07296V7.08878V7.1046V7.12042V7.13623V7.15205V7.16787V7.18369V7.19951V7.21532V7.23114V7.24696V7.26278V7.2786V7.29442V7.31023V7.32605V7.34187V7.35769V7.37351V7.38933V7.40514V7.42096V7.43678V7.4526V7.46842V7.48423V7.50005V7.51587V7.53169V7.54751V7.56333V7.57914V7.59496V7.61078V7.6266V7.64242V7.65824V7.67405V7.68987V7.70569V7.72151V7.73733V7.75315V7.76896V7.78478V7.8006V7.81642V7.83224V7.84805V7.86387V7.87969V7.89551V7.91133V7.92715V7.94296V7.95878V7.9746V7.99042V8.00624V8.02206V8.03787V8.05369V8.06951V8.08533V8.10115V8.11697V8.13278V8.1486V8.16442V8.18024V8.19606V8.21187V8.22769V8.24351V8.25933V8.27515V8.29097V8.30678V8.3226V8.33842V8.35424V8.37006V8.38588V8.40169V8.41751V8.43333V8.44915V8.46497V8.48078V8.4966V8.51242V8.52824V8.54406V8.55988V8.57569V8.59151V8.60733V8.62315V8.63897V8.65479V8.6706V8.68642V8.70224V8.71806V8.73388V8.7497V8.76551V8.78133V8.79715V8.81297V8.82879V8.8446V8.86042V8.87624V8.89206V8.90788V8.9237V8.93951V8.95533V8.97115V8.98697V9.00279V9.01861V9.03442V9.05024V9.06606V9.08188V9.0977V9.11352V9.12933V9.14515V9.16097V9.17679V9.19261V9.20842V9.22424V9.24006V9.25588V9.2717V9.28752V9.30333V9.31915V9.33497V9.35079V9.36661V9.38243V9.39824V9.41406V9.42988V9.4457V9.46152V9.47733V9.49315V9.50897V9.52479V9.54061V9.55643V9.57224V9.58806V9.60388V9.6197V9.63552V9.65134V9.66715V9.68297V9.69879V9.71461V9.73043V9.74625V9.76206V9.77788V9.7937V9.80952V9.82534V9.84116V9.85697V9.87279V9.88861V9.90443V9.92025V9.93606V9.95188V9.9677V9.98352V9.99934V10.0152V10.031V10.0468V10.0626V10.0784V10.0942V10.1101V10.1259V10.1417V10.1575V10.1733V10.1892V10.205V10.2208V10.2366V10.2524V10.2682V10.2841V10.2999V10.3157V10.3315V10.3473V10.3632V10.379V10.3948V10.4106V10.4264V10.4422V10.4581V10.4739V10.4897V10.5055V10.5213V10.5372V10.553V10.5688V10.5846V10.6004V10.6162V10.6321V10.6479V10.6637V10.6795V10.6953V10.7112V10.727V10.7428V10.7586V10.7744V10.7902V10.8061V10.8219V10.8377V10.8535V10.8674C21.0603 11.1959 20.9026 11.3096 20.7969 11.3504C20.6793 11.3959 20.4527 11.4183 20.04 11.237L16.7943 9.36595C16.7534 7.78116 16.7535 6.19424 16.7945 4.60523C17.9609 3.91544 19.1394 3.24665 20.3301 2.59883C20.6098 2.56255 20.7793 2.60765 20.8858 2.66696Z" stroke="white" stroke-width="1.5"/>
</g>
</svg>
