<svg width="21" height="18" viewBox="0 0 21 18" fill="none" xmlns="http://www.w3.org/2000/svg">
<g opacity="0.4">
<path opacity="0.948" d="M18.835 0.906318L18.8524 0.906859L18.8686 0.91323C19.0205 0.97309 19.1423 1.06186 19.2276 1.18217C19.313 1.30239 19.3572 1.44742 19.3652 1.61216L19.3652 1.61215L19.3653 1.61435C19.369 1.75415 19.3414 1.88126 19.2783 1.99174C19.2151 2.10229 19.1199 2.19 18.998 2.25644L18.9807 2.26586L18.9611 2.26803C18.3801 2.33235 17.7964 2.34562 17.21 2.30783L17.1931 2.30674L17.1775 2.30015C17.0844 2.26082 16.9981 2.2105 16.9188 2.14925L16.9085 2.14124L16.9005 2.13083C16.7425 1.92388 16.6651 1.71543 16.6971 1.51085C16.7292 1.30625 16.8668 1.13163 17.0806 0.98322L17.1018 0.968495L17.1275 0.965885C17.6938 0.908358 18.263 0.888505 18.835 0.906318Z" fill="white" stroke="white" stroke-width="0.2"/>
<path opacity="0.972" d="M0.251926 4.98549V4.97241L0.255287 4.95978C0.36274 4.55588 0.547495 4.22441 0.812275 3.97008C1.07702 3.71579 1.41681 3.54337 1.82697 3.44981L1.83716 3.44749L1.8476 3.44732L4.28357 3.40803C4.37716 3.39294 4.46398 3.36067 4.54468 3.31096L6.50677 1.34887L6.50625 1.34835L6.51582 1.34085C6.80813 1.11193 7.1403 0.973573 7.51049 0.926365L7.5104 0.925724L7.52178 0.925571C9.46652 0.899289 11.4113 0.899289 13.356 0.925571L13.356 0.924925L13.3673 0.926365C13.7375 0.973573 14.0697 1.11193 14.362 1.34085L14.3624 1.34027L14.371 1.34887L16.3331 3.31096C16.4138 3.36067 16.5006 3.39294 16.5942 3.40803L17.8087 3.42762L19.0302 3.44732L19.0416 3.4475L19.0527 3.45026C19.4647 3.55265 19.8052 3.73287 20.0695 3.99373C20.3339 4.25462 20.5174 4.59151 20.6227 4.99992L20.6259 5.01221V5.02489V5.04613V5.06737V5.08861V5.10985V5.13109V5.15233V5.17357V5.19481V5.21605V5.23729V5.25853V5.27977V5.30101V5.32225V5.34349V5.36473V5.38597V5.40721V5.42845V5.4497V5.47094V5.49218V5.51342V5.53466V5.5559V5.57714V5.59838V5.61962V5.64086V5.6621V5.68334V5.70458V5.72582V5.74706V5.7683V5.78954V5.81078V5.83202V5.85326V5.8745V5.89574V5.91698V5.93822V5.95946V5.9807V6.00194V6.02318V6.04442V6.06566V6.0869V6.10814V6.12938V6.15062V6.17186V6.1931V6.21434V6.23559V6.25683V6.27807V6.29931V6.32055V6.34179V6.36303V6.38427V6.40551V6.42675V6.44799V6.46923V6.49047V6.51171V6.53295V6.55419V6.57543V6.59667V6.61791V6.63915V6.66039V6.68163V6.70287V6.72411V6.74535V6.76659V6.78783V6.80907V6.83031V6.85155V6.87279V6.89403V6.91527V6.93651V6.95775V6.97899V7.00024V7.02148V7.04272V7.06396V7.0852V7.10644V7.12768V7.14892V7.17016V7.1914V7.21264V7.23388V7.25512V7.27636V7.2976V7.31884V7.34008V7.36132V7.38256V7.4038V7.42504V7.44628V7.46752V7.48876V7.51V7.53124V7.55248V7.57372V7.59496V7.6162V7.63744V7.65868V7.67992V7.70116V7.7224V7.74364V7.76488V7.78613V7.80737V7.82861V7.84985V7.87109V7.89233V7.91357V7.93481V7.95605V7.97729V7.99853V8.01977V8.04101V8.06225V8.08349V8.10473V8.12597V8.14721V8.16845V8.18969V8.21093V8.23217V8.25341V8.27465V8.29589V8.31713V8.33837V8.35961V8.38085V8.40209V8.42333V8.44457V8.46581V8.48705V8.50829V8.52953V8.55078V8.57202V8.59326V8.6145V8.63574V8.65698V8.67822V8.69946V8.7207V8.74194V8.76318V8.78442V8.80566V8.8269V8.84814V8.86938V8.89062V8.91186V8.9331V8.95434V8.97558V8.99682V9.01806V9.0393V9.06054V9.08178V9.10302V9.12426V9.1455V9.16674V9.18798V9.20922V9.23046V9.2517V9.27294V9.29418V9.31542V9.33667V9.35791V9.37915V9.40039V9.42163V9.44287V9.46411V9.48535V9.50659V9.52783V9.54907V9.57031V9.59155V9.61279V9.63403V9.65527V9.67651V9.69775V9.71899V9.74023V9.76147V9.78271V9.80395V9.82519V9.84643V9.86767V9.88891V9.91015V9.93139V9.95263V9.97387V9.99511V10.0164V10.0376V10.0588V10.0801V10.1013V10.1226V10.1438V10.165V10.1863V10.2075V10.2288V10.25V10.2712V10.2925V10.3137V10.335V10.3562V10.3774V10.3987V10.4199V10.4412V10.4624V10.4836V10.5049V10.5261V10.5474V10.5686V10.5898V10.6111V10.6323V10.6536V10.6748V10.696V10.7173V10.7385V10.7598V10.781V10.8022V10.8235V10.8447V10.866V10.8872V10.9084V10.9297V10.9509V10.9722V10.9934V11.0146V11.0359V11.0571V11.0784V11.0996V11.1208V11.1421V11.1633V11.1846V11.2058V11.227V11.2483V11.2695V11.2908V11.312V11.3333V11.3545V11.3757V11.397V11.4182V11.4395V11.4607V11.4819V11.5032V11.5244V11.5457V11.5669V11.5881V11.6094V11.6306V11.6519V11.6731V11.6943V11.7156V11.7368V11.7581V11.7793V11.8005V11.8218V11.843V11.8643V11.8855V11.9067V11.928V11.9492V11.9705V11.9917V12.0129V12.0342V12.0554V12.0767V12.0979V12.1191V12.1404V12.1616V12.1829V12.2041V12.2253V12.2466V12.2678V12.2891V12.3103V12.3315V12.3528V12.374V12.3953V12.4165V12.4377V12.459V12.4802V12.5015V12.5227V12.5439V12.5652V12.5864V12.6077V12.6289V12.6501V12.6714V12.6926V12.7139V12.7351V12.7563V12.7776V12.7988V12.8201V12.8413V12.8626V12.8838V12.905V12.9263V12.9475V12.9688V12.99V13.0112V13.0325V13.0537V13.075V13.0962V13.1174V13.1387V13.1599V13.1812V13.2024V13.2236V13.2449V13.2661V13.2874V13.3086V13.3298V13.3511V13.3723V13.3936V13.4148V13.436V13.4573V13.4785V13.4998V13.521V13.5422V13.5635V13.5847V13.606V13.6272V13.6484V13.6697V13.6909V13.7122V13.7334V13.7546V13.7759V13.7971V13.8184V13.8396V13.8608V13.8821V13.9033V13.9246V13.9458V13.967V13.9883V14.0095V14.0308V14.052V14.0732V14.0945V14.1157V14.137V14.1582V14.1794V14.2007V14.2219V14.2432V14.2644V14.2856V14.3069V14.3281V14.3494V14.3706V14.3919V14.4131V14.4343V14.4556V14.4768V14.4981V14.5193V14.5405V14.5618V14.583V14.6043V14.6255V14.6467V14.668V14.6892V14.7105V14.7317V14.7529V14.7742V14.7954V14.8167V14.8379V14.8591V14.8804V14.9016V14.9229V14.9441V14.9653V14.9866V15.0078V15.0291V15.0503V15.0715V15.0928V15.114V15.1353V15.1565V15.1777V15.199V15.2202V15.2415V15.2627V15.2839V15.3052V15.3264V15.3477V15.3689V15.3901V15.4114V15.4326V15.4539V15.4751V15.4963V15.5176V15.5388V15.5601V15.5813V15.6025V15.6238V15.645V15.6663V15.6875V15.7087V15.73V15.7512V15.7725V15.7937V15.8149V15.8362V15.8574V15.8787V15.8999V15.9135L20.6223 15.9266C20.504 16.3543 20.3036 16.7014 20.0183 16.9624C19.7329 17.2234 19.3681 17.3933 18.9288 17.4758L18.9199 17.4775L18.9109 17.4775C13.2629 17.5038 7.61491 17.5038 1.96695 17.4775L1.95788 17.4775L1.94897 17.4758C1.50971 17.3933 1.14488 17.2234 0.859537 16.9624C0.574156 16.7014 0.373816 16.3543 0.255543 15.9266L0.251926 15.9135V15.8999V15.8786V15.8573V15.836V15.8146V15.7933V15.772V15.7507V15.7294V15.7081V15.6867V15.6654V15.6441V15.6228V15.6015V15.5802V15.5588V15.5375V15.5162V15.4949V15.4736V15.4522V15.4309V15.4096V15.3883V15.367V15.3457V15.3243V15.303V15.2817V15.2604V15.2391V15.2178V15.1964V15.1751V15.1538V15.1325V15.1112V15.0899V15.0685V15.0472V15.0259V15.0046V14.9833V14.962V14.9406V14.9193V14.898V14.8767V14.8554V14.8341V14.8127V14.7914V14.7701V14.7488V14.7275V14.7061V14.6848V14.6635V14.6422V14.6209V14.5996V14.5782V14.5569V14.5356V14.5143V14.493V14.4717V14.4503V14.429V14.4077V14.3864V14.3651V14.3438V14.3224V14.3011V14.2798V14.2585V14.2372V14.2159V14.1945V14.1732V14.1519V14.1306V14.1093V14.0879V14.0666V14.0453V14.024V14.0027V13.9814V13.96V13.9387V13.9174V13.8961V13.8748V13.8535V13.8321V13.8108V13.7895V13.7682V13.7469V13.7256V13.7042V13.6829V13.6616V13.6403V13.619V13.5977V13.5763V13.555V13.5337V13.5124V13.4911V13.4697V13.4484V13.4271V13.4058V13.3845V13.3632V13.3418V13.3205V13.2992V13.2779V13.2566V13.2353V13.2139V13.1926V13.1713V13.15V13.1287V13.1074V13.086V13.0647V13.0434V13.0221V13.0008V12.9795V12.9581V12.9368V12.9155V12.8942V12.8729V12.8515V12.8302V12.8089V12.7876V12.7663V12.745V12.7236V12.7023V12.681V12.6597V12.6384V12.6171V12.5957V12.5744V12.5531V12.5318V12.5105V12.4892V12.4678V12.4465V12.4252V12.4039V12.3826V12.3613V12.3399V12.3186V12.2973V12.276V12.2547V12.2333V12.212V12.1907V12.1694V12.1481V12.1268V12.1054V12.0841V12.0628V12.0415V12.0202V11.9989V11.9775V11.9562V11.9349V11.9136V11.8923V11.871V11.8496V11.8283V11.807V11.7857V11.7644V11.7431V11.7217V11.7004V11.6791V11.6578V11.6365V11.6151V11.5938V11.5725V11.5512V11.5299V11.5086V11.4872V11.4659V11.4446V11.4233V11.402V11.3807V11.3593V11.338V11.3167V11.2954V11.2741V11.2528V11.2314V11.2101V11.1888V11.1675V11.1462V11.1249V11.1035V11.0822V11.0609V11.0396V11.0183V10.9969V10.9756V10.9543V10.933V10.9117V10.8904V10.869V10.8477V10.8264V10.8051V10.7838V10.7625V10.7411V10.7198V10.6985V10.6772V10.6559V10.6346V10.6132V10.5919V10.5706V10.5493V10.528V10.5066V10.4853V10.464V10.4427V10.4214V10.4001V10.3787V10.3574V10.3361V10.3148V10.2935V10.2722V10.2508V10.2295V10.2082V10.1869V10.1656V10.1443V10.1229V10.1016V10.0803V10.059V10.0377V10.0164V9.99504V9.97372V9.9524V9.93108V9.90977V9.88845V9.86713V9.84581V9.8245V9.80318V9.78186V9.76055V9.73923V9.71791V9.69659V9.67528V9.65396V9.63264V9.61133V9.59001V9.56869V9.54737V9.52606V9.50474V9.48342V9.4621V9.44079V9.41947V9.39815V9.37683V9.35552V9.3342V9.31288V9.29157V9.27025V9.24893V9.22761V9.2063V9.18498V9.16366V9.14235V9.12103V9.09971V9.07839V9.05708V9.03576V9.01444V8.99312V8.97181V8.95049V8.92917V8.90786V8.88654V8.86522V8.8439V8.82259V8.80127V8.77995V8.75863V8.73732V8.716V8.69468V8.67337V8.65205V8.63073V8.60941V8.5881V8.56678V8.54546V8.52414V8.50283V8.48151V8.46019V8.43888V8.41756V8.39624V8.37492V8.35361V8.33229V8.31097V8.28965V8.26834V8.24702V8.2257V8.20439V8.18307V8.16175V8.14043V8.11912V8.0978V8.07648V8.05516V8.03385V8.01253V7.99121V7.9699V7.94858V7.92726V7.90594V7.88463V7.86331V7.84199V7.82068V7.79936V7.77804V7.75672V7.73541V7.71409V7.69277V7.67145V7.65014V7.62882V7.6075V7.58619V7.56487V7.54355V7.52223V7.50092V7.4796V7.45828V7.43696V7.41565V7.39433V7.37301V7.3517V7.33038V7.30906V7.28774V7.26643V7.24511V7.22379V7.20248V7.18116V7.15984V7.13852V7.11721V7.09589V7.07457V7.05325V7.03194V7.01062V6.9893V6.96799V6.94667V6.92535V6.90403V6.88272V6.8614V6.84008V6.81877V6.79745V6.77613V6.75481V6.7335V6.71218V6.69086V6.66954V6.64823V6.62691V6.60559V6.58428V6.56296V6.54164V6.52032V6.49901V6.47769V6.45637V6.43506V6.41374V6.39242V6.3711V6.34979V6.32847V6.30715V6.28584V6.26452V6.2432V6.22188V6.20057V6.17925V6.15793V6.13661V6.1153V6.09398V6.07266V6.05135V6.03003V6.00871V5.98739V5.96608V5.94476V5.92344V5.90213V5.88081V5.85949V5.83817V5.81686V5.79554V5.77422V5.75291V5.73159V5.71027V5.68895V5.66764V5.64632V5.625V5.60368V5.58237V5.56105V5.53973V5.51842V5.4971V5.47578V5.45446V5.43315V5.41183V5.39051V5.3692V5.34788V5.32656V5.30524V5.28393V5.26261V5.24129V5.21998V5.19866V5.17734V5.15602V5.13471V5.11339V5.09207V5.07076V5.04944V5.02812V5.0068V4.98549ZM5.46613 4.40606L5.46077 4.41142L5.45466 4.41591C5.12366 4.65933 4.75116 4.79727 4.33925 4.82908L4.33927 4.82926L4.33325 4.82936L2.02831 4.86842C1.91487 4.91892 1.83012 4.9856 1.76993 5.06672C1.70747 5.1509 1.66766 5.25577 1.65365 5.38517C1.62742 8.75773 1.62743 12.1303 1.65368 15.5028C1.6622 15.6589 1.7058 15.7771 1.7777 15.865C1.84807 15.951 1.95238 16.0163 2.09887 16.0561C7.65765 16.0823 13.2165 16.0823 18.7753 16.0561C18.9567 15.9925 19.0793 15.8994 19.154 15.7821C19.2308 15.6613 19.2644 15.5032 19.2443 15.299L19.2439 15.299L19.2438 15.2901C19.2116 11.9286 19.1919 8.56677 19.1848 5.20462C19.1119 5.05235 19.0006 4.94118 18.8482 4.8684L16.5446 4.82936L16.5446 4.82954L16.5386 4.82908C16.1271 4.79739 15.7546 4.65948 15.4232 4.41593L15.4171 4.41143L15.4117 4.40606L13.4875 2.48185C13.3983 2.42089 13.3075 2.36941 13.2149 2.32726C11.3621 2.32083 9.50934 2.32737 7.65663 2.34688C7.57653 2.37157 7.4999 2.40443 7.42668 2.4455L5.46613 4.40606Z" fill="white" stroke="white" stroke-width="0.2"/>
<path opacity="0.962" d="M10.9169 5.31948L10.9169 5.31879L10.9285 5.32079C12.0034 5.50604 12.8759 5.91322 13.5398 6.5468C14.2037 7.18036 14.6525 8.03406 14.8903 9.1014L14.891 9.10125L14.8922 9.11315C15.0012 10.1978 14.8447 11.1454 14.4166 11.951C13.9885 12.7566 13.2931 13.4122 12.3375 13.92L12.3378 13.9206L12.3274 13.9247C11.365 14.3049 10.4497 14.4154 9.584 14.2504C8.71827 14.0853 7.90984 13.6461 7.15888 12.9392L7.15841 12.9397L7.15085 12.9307C6.47987 12.1318 6.08382 11.2909 5.9693 10.4084C5.85478 9.52591 6.02278 8.60978 6.46704 7.66222L6.46652 7.66197L6.47209 7.65279C6.97342 6.82656 7.59555 6.21558 8.33974 5.82496C9.08388 5.43437 9.94412 5.26724 10.9169 5.31948ZM13.4665 10.3975C13.5895 9.75087 13.4799 9.05399 13.1282 8.30348C12.5985 7.42622 11.832 6.90674 10.822 6.74038C10.0704 6.70141 9.43015 6.8394 8.89645 7.14889C8.36293 7.45827 7.92851 7.9433 7.59543 8.61072C7.3443 9.31798 7.29628 9.96819 7.44458 10.5645C7.59289 11.1609 7.93969 11.712 8.49245 12.2174C9.14775 12.6917 9.79598 12.924 10.4387 12.924C11.0812 12.924 11.7293 12.6918 12.3843 12.2178C12.9861 11.6506 13.3436 11.0438 13.4665 10.3975Z" fill="white" stroke="white" stroke-width="0.2"/>
</g>
</svg>
