<svg width="20" height="20" viewBox="0 0 20 20" fill="none" xmlns="http://www.w3.org/2000/svg">
<path d="M9.95651 2.2887L9.95651 2.2886L9.95342 2.28869C8.20138 2.34109 6.63264 2.90422 5.2487 3.97757L5.20405 4.0122L5.24385 4.0523C8.80057 7.63568 12.3706 11.2057 15.954 14.7624L15.993 14.8011L16.0278 14.7587C16.6804 13.9634 17.1432 13.0646 17.4161 12.0626L17.4163 12.0621C17.9735 9.91998 17.6918 7.89487 16.5718 5.98985L16.5718 5.98982L16.5705 5.98784C15.0193 3.61386 12.8129 2.38003 9.95651 2.2887ZM3.99565 5.26022L3.95493 5.22018L3.92062 5.26583C2.69686 6.89422 2.16724 8.73126 2.33225 10.7747L2.33218 10.7747L2.33253 10.7773C2.72348 13.6993 4.24585 15.7985 6.89616 17.0698L6.89611 17.07L6.89943 17.0713C9.67632 18.1677 12.2785 17.8458 14.6996 16.1063L14.6996 16.1063L14.7006 16.1056C14.7254 16.0868 14.7464 16.0617 14.753 16.029C14.7596 15.9957 14.7494 15.9647 14.7323 15.9385L14.7333 15.9379L14.7259 15.9305C11.1658 12.3504 7.58906 8.79368 3.99565 5.26022ZM6.41756 1.36577C7.34331 0.995269 8.29699 0.763446 9.27873 0.670222C13.0812 0.546779 16.0009 2.06969 18.0443 5.24169C19.5433 7.93018 19.7419 10.7112 18.6404 13.5889C17.4035 16.3839 15.3178 18.2048 12.3802 19.0543C8.70265 19.869 5.57106 18.9223 2.97892 16.2122C0.847855 13.6399 0.185736 10.7265 0.991674 7.46708C1.86088 4.59718 3.66861 2.56442 6.41756 1.36577Z" fill="#FF5252" stroke="#1E1E53" stroke-width="0.1"/>
</svg>
