<svg width="20" height="20" viewBox="0 0 20 20" fill="none" xmlns="http://www.w3.org/2000/svg">
<g opacity="0.4">
<path opacity="0.964" d="M8.59351 0.924112L8.59345 0.923433L8.58061 0.92581C8.03389 1.02697 7.50798 1.20451 7.00312 1.45817L7.0029 1.45774L6.99357 1.4635C6.16513 1.97502 5.55957 2.60716 5.18402 3.36159C4.80849 4.11596 4.66698 4.98444 4.75367 5.96232L4.75308 5.96237L4.75532 5.97434C4.95521 7.03928 5.37329 7.89706 6.01543 8.5392C6.65757 9.18134 7.51535 9.59942 8.58029 9.79931L8.58018 9.79989L8.5923 9.80096C9.56997 9.88775 10.4384 9.74629 11.1927 9.37077C11.9471 8.99522 12.5794 8.38962 13.0911 7.56108L13.0914 7.56123L13.0953 7.55369C13.8609 6.10176 13.8609 4.64272 13.0953 3.19078L13.0956 3.19064L13.091 3.18318C12.5789 2.35773 11.9466 1.75225 11.1925 1.37356C10.4385 0.994912 9.57066 0.84694 8.59351 0.924112ZM6.46132 4.26045C6.91113 3.26258 7.6659 2.66087 8.73589 2.44674C9.48061 2.394 10.111 2.52117 10.6334 2.8206C11.1557 3.11989 11.5801 3.59702 11.9036 4.26128C12.152 5.01536 12.1745 5.68674 11.9824 6.28115C11.7904 6.87554 11.3795 7.4064 10.7373 7.87172C10.1008 8.21216 9.49079 8.35043 8.90445 8.29546C8.31789 8.24047 7.74413 7.99107 7.18224 7.53799C6.72142 7.06287 6.43507 6.55488 6.31588 6.01393C6.19656 5.4724 6.2428 4.88896 6.46132 4.26045Z" fill="white" stroke="white" stroke-width="0.25"/>
<path opacity="0.982" d="M5.43764 10.8061L5.42789 10.8062L5.41826 10.8077C5.01067 10.8736 4.60561 10.9716 4.20308 11.1017L4.20301 11.1015L4.19595 11.1043C2.04021 11.9482 0.781694 13.5231 0.431382 15.8148L0.430292 15.8219L0.430029 15.8291C0.404183 16.5399 0.404183 17.2507 0.430029 17.9614L0.430834 17.9835L0.439185 18.004C0.522652 18.2089 0.669627 18.3559 0.874519 18.4393L0.896665 18.4484L0.920577 18.4486C3.85512 18.4743 6.78967 18.4743 9.72421 18.4486L9.74813 18.4484L9.77027 18.4393C9.97516 18.3559 10.1222 18.2089 10.2056 18.004L10.2085 17.9968L10.2106 17.9893C10.2668 17.7798 10.2649 17.5848 10.1892 17.4134C10.1133 17.2416 9.97083 17.1106 9.77884 17.015L9.75295 17.0021L9.72403 17.0019C7.12369 16.9829 4.52334 16.9763 1.92296 16.9823C1.8442 16.0636 2.02877 15.201 2.47716 14.3914C3.19125 13.2381 4.21791 12.5589 5.56578 12.349C6.95102 12.3016 8.33691 12.2759 9.72346 12.2721L9.74776 12.2721L9.77027 12.2629C9.97516 12.1794 10.1222 12.0324 10.2056 11.8275L10.2085 11.8203L10.2106 11.8128C10.2668 11.6034 10.2649 11.4084 10.1892 11.2369C10.1133 11.0652 9.97083 10.9341 9.77884 10.8385L9.75332 10.8258L9.72481 10.8254C8.29583 10.8061 6.86677 10.7997 5.43764 10.8061Z" fill="white" stroke="white" stroke-width="0.25"/>
<path opacity="0.966" d="M14.8832 10.8065L14.876 10.807L14.869 10.8083C13.9805 10.977 13.242 11.3224 12.6594 11.8485C12.0768 12.3745 11.6564 13.0753 11.3948 13.9447L11.3927 13.9519L11.3914 13.9592C11.2045 15.0304 11.3011 15.9715 11.6914 16.7755C12.0818 17.5796 12.7599 18.2342 13.714 18.7427L13.7213 18.7466L13.729 18.7494C14.6783 19.105 15.5699 19.1889 16.3997 18.9923C17.2295 18.7957 17.9864 18.3211 18.6708 17.5783L18.6713 17.5788L18.6795 17.5677C19.663 16.2304 19.849 14.7824 19.2354 13.2397L19.236 13.2395L19.2304 13.2285C18.7796 12.3556 18.1906 11.7115 17.4608 11.3049C16.731 10.8984 15.8698 10.7346 14.8832 10.8065ZM12.9821 13.9878C13.3829 13.0779 14.0617 12.5278 15.0284 12.3285C15.6141 12.2563 16.1562 12.3587 16.6585 12.6361L13.1267 16.1679C12.7677 15.4723 12.7196 14.7483 12.9821 13.9878ZM16.6464 17.2873C15.814 17.6862 15.006 17.675 14.2098 17.2532C15.3921 16.0762 16.5675 14.8947 17.736 13.7087C17.836 13.8561 17.9091 14.0203 17.9553 14.2023C18.102 14.8795 18.0626 15.4691 17.8466 15.9771C17.6311 16.4841 17.2347 16.9217 16.6464 17.2873Z" fill="white" stroke="white" stroke-width="0.25"/>
</g>
</svg>
