<svg width="59" height="44" viewBox="0 0 59 44" fill="none" xmlns="http://www.w3.org/2000/svg">
<path opacity="0.973" fill-rule="evenodd" clip-rule="evenodd" d="M0.432861 23.0009C0.432861 22.148 0.432861 21.2952 0.432861 20.4423C1.79693 17.4124 3.95101 16.588 6.89511 17.969C11.5445 22.9919 16.2027 28.0238 20.8697 33.0648C31.0747 22.4039 41.2796 11.743 51.4846 1.08215C53.7167 -0.51425 55.7901 -0.315191 57.7045 1.67916C58.9542 3.75607 58.8464 5.74616 57.3814 7.64925C45.9424 19.4424 34.5527 31.2973 23.2123 43.2139C21.5967 44.2374 19.9812 44.2374 18.3656 43.2139C12.6256 37.0968 6.94416 30.9277 1.32142 24.7067C0.977354 24.1494 0.681168 23.5809 0.432861 23.0009Z" fill="#00B432"/>
</svg>
