<svg width="110" height="88" viewBox="0 0 110 88" fill="none" xmlns="http://www.w3.org/2000/svg">
<path d="M91.8105 12.0095C91.5429 11.5686 91.2471 11.1135 90.9056 10.6233L91.5852 7.55453C91.625 7.37213 91.591 7.18135 91.4907 7.024C91.3904 6.86664 91.2319 6.75555 91.05 6.71506L86.3425 5.65688C82.4859 2.46386 77.6493 0.698831 72.6462 0.658731C67.6712 0.658731 62.8229 2.44353 58.6225 5.82265C56.3086 7.71822 54.2619 9.91928 52.5384 12.3657C50.9335 10.024 49.0182 7.9118 46.8451 6.0872C42.3489 2.38004 37.5781 0.5 32.6629 0.5C30.9287 0.504737 29.2018 0.726336 27.5224 1.15962C19.1039 3.27598 13.4001 8.88431 10.5728 17.7836C8.53418 24.1962 8.91796 30.8133 11.7382 38.0195C13.6289 42.8448 15.583 46.1746 18.0758 48.8165C19.2494 50.0581 20.4231 51.2973 21.5967 52.5342L22.5861 53.5924V55.0033C22.5861 55.5571 22.8057 56.0882 23.1966 56.4798C23.5875 56.8714 24.1177 57.0914 24.6705 57.0914H25.8852L27.8498 59.1549L28.6878 60.0332C29.0537 61.4393 29.7724 62.7284 30.7756 63.7779C31.7789 64.8275 33.0333 65.6025 34.4198 66.0295L41.8736 73.7895C44.6551 76.6889 47.4354 79.5919 50.2146 82.4983C50.9188 83.2496 51.6018 83.5988 52.306 83.5988C53.0102 83.5988 53.6686 83.2461 54.3868 82.516C63.0976 73.5402 71.8059 64.5598 80.5119 55.5747C81.1633 54.901 81.8428 54.2273 82.5012 53.5748C84.1334 52.0029 85.6846 50.3488 87.1488 48.6189C90.6028 44.424 93.1161 39.534 94.5181 34.2806C96.6729 26.0586 95.7645 18.5737 91.8105 12.0095Z" fill="white"/>
<path d="M52.5464 13.5755C54.3612 10.8748 56.5563 8.45121 59.0636 6.37993C70.179 -2.55816 84.414 1.08903 91.2058 12.3763C95.3147 19.191 95.8288 26.5135 93.8289 34.0866C92.4587 39.2423 89.997 44.0422 86.6111 48.1604C84.6042 50.6295 82.2311 52.7811 80.0129 55.0703C71.2975 64.0507 62.5821 73.0299 53.8667 82.008C52.733 83.1755 51.8351 83.172 50.6979 82.008C39.9732 70.7983 29.1958 59.631 18.5626 48.3297C15.7459 45.3315 13.8869 41.6067 12.38 37.7479C9.84842 31.2895 9.102 24.6723 11.2251 17.9952C13.8482 9.75199 19.1436 4.00608 27.6783 1.84034C34.6884 0.0767072 40.8957 2.1084 46.3778 6.63035C48.5311 8.43888 50.4266 10.5348 52.0112 12.8595C52.1591 13.0606 52.321 13.2687 52.5464 13.5755Z" fill="#FF0079"/>
<path d="M62.9118 14.8701H42.737C40.7138 14.8698 38.7701 15.6593 37.3184 17.0711C38.5119 17.3674 39.7267 17.9424 40.4097 18.7642L40.7618 19.1769C43.9802 20.1486 46.6871 22.351 48.2965 25.3073C51.6132 31.3036 51.7118 38.8167 49.5253 45.194C48.8 47.3104 47.9444 49.3879 47.036 51.4302C46.4197 52.9296 45.7252 54.3954 44.9552 55.8217C43.5733 58.233 41.6891 60.3179 39.4309 61.9344C40.4703 62.4254 41.6054 62.6796 42.7546 62.6787H62.9294C65.0005 62.6787 66.9869 61.8544 68.4514 60.3872C69.916 58.92 70.7387 56.9301 70.7387 54.8552V22.6936C70.7387 21.6647 70.5362 20.6459 70.1426 19.6956C69.749 18.7453 69.1722 17.882 68.4452 17.1553C67.7182 16.4286 66.8552 15.8527 65.9057 15.4606C64.9562 15.0685 63.9388 14.8678 62.9118 14.8701Z" fill="#070036"/>
<path d="M60.6578 16.2139H40.4865C38.6527 16.2136 36.8772 16.8598 35.4712 18.0394C34.0653 19.2189 33.1185 20.8565 32.7969 22.6652C33.9121 22.0109 35.1708 21.6415 36.4621 21.5894C38.1627 21.4942 40.1344 22.3513 41.3456 23.5082C42.5568 24.6652 43.6237 26.7533 43.5075 28.4746C42.8033 38.7037 41.8315 48.9116 40.3387 59.049C40.0781 60.8338 38.6521 62.3434 37.2156 63.3099C38.243 63.7805 39.3604 64.0212 40.4901 64.0153H60.6648C62.736 64.0153 64.7223 63.1911 66.1869 61.7239C67.6514 60.2567 68.4742 58.2668 68.4742 56.1919V24.0373C68.4742 23.0094 68.2719 21.9914 67.879 21.0418C67.4861 20.0921 66.9103 19.2294 66.1844 18.5028C65.4585 17.7762 64.5967 17.2001 63.6484 16.8074C62.7001 16.4146 61.6839 16.2129 60.6578 16.2139Z" fill="white"/>
<path d="M57.088 17.8612H36.9132C34.8427 17.8621 32.8573 18.6868 31.3935 20.1539C29.9297 21.621 29.1074 23.6104 29.1074 25.6847V25.9245H35.2056C35.9935 25.9255 36.7488 26.2394 37.3059 26.7975C37.863 27.3556 38.1763 28.1123 38.1773 28.9015V31.3212C38.1777 31.7126 38.1012 32.1003 37.9521 32.4621C37.803 32.8239 37.5843 33.1527 37.3083 33.4298C37.0324 33.7069 36.7047 33.9269 36.3439 34.0771C35.9831 34.2273 35.5963 34.3048 35.2056 34.3053H29.1074V37.7515H34.8148C35.6026 37.7524 36.3579 38.0663 36.915 38.6244C37.4721 39.1825 37.7855 39.9392 37.7864 40.7285V43.1482C37.7855 43.9374 37.4721 44.6941 36.915 45.2522C36.3579 45.8103 35.6026 46.1242 34.8148 46.1252H29.1074V49.5713H34.4275C35.2147 49.5722 35.9695 49.8857 36.5265 50.443C37.0835 51.0004 37.3973 51.7561 37.3991 52.5448V54.968C37.3982 55.7573 37.0848 56.514 36.5277 57.072C35.9707 57.6301 35.2153 57.9441 34.4275 57.945H29.1074C29.1306 60.0037 29.9632 61.9702 31.4246 63.4177C32.886 64.8652 34.8582 65.6769 36.9132 65.6768H57.088C59.1592 65.6768 61.1455 64.8525 62.6101 63.3853C64.0746 61.9182 64.8974 59.9282 64.8974 57.8533V25.6847C64.8974 23.6098 64.0746 21.6198 62.6101 20.1526C61.1455 18.6855 59.1592 17.8612 57.088 17.8612Z" fill="#070036"/>
<path d="M35.2054 27.5154H25.4349C25.0685 27.5163 24.7175 27.6628 24.4587 27.9226C24.2 28.1825 24.0547 28.5346 24.0547 28.9016V31.3213C24.0556 31.6877 24.2013 32.0389 24.46 32.298C24.7186 32.5571 25.0691 32.7031 25.4349 32.704H35.2054C35.5711 32.7031 35.9216 32.5571 36.1803 32.298C36.4389 32.0389 36.5846 31.6877 36.5856 31.3213V28.9016C36.5856 28.5346 36.4403 28.1825 36.1815 27.9226C35.9228 27.6628 35.5717 27.5163 35.2054 27.5154Z" fill="#070036"/>
<path d="M34.8151 39.3352H25.0482C24.6818 39.3361 24.3307 39.4826 24.072 39.7425C23.8133 40.0023 23.668 40.3544 23.668 40.7214V43.1411C23.6689 43.5075 23.8146 43.8587 24.0732 44.1178C24.3319 44.3769 24.6824 44.5229 25.0482 44.5238H34.8151C35.1809 44.5229 35.5314 44.3769 35.7901 44.1178C36.0487 43.8587 36.1944 43.5075 36.1953 43.1411V40.7214C36.1953 40.3544 36.05 40.0023 35.7913 39.7425C35.5326 39.4826 35.1815 39.3361 34.8151 39.3352Z" fill="#070036"/>
<path d="M34.4274 51.155H24.6605C24.2947 51.156 23.9442 51.3019 23.6856 51.561C23.4269 51.8201 23.2812 52.1713 23.2803 52.5377V54.9609C23.2812 55.3274 23.4269 55.6785 23.6856 55.9376C23.9442 56.1967 24.2947 56.3427 24.6605 56.3436H34.4274C34.7932 56.3427 35.1437 56.1967 35.4024 55.9376C35.661 55.6785 35.8067 55.3274 35.8076 54.9609V52.5377C35.8067 52.1713 35.661 51.8201 35.4024 51.561C35.1437 51.3019 34.7932 51.156 34.4274 51.155Z" fill="#070036"/>
<path d="M80.8291 13.1467L74.541 41.4916L82.9102 43.3549L89.1983 15.0101L80.8291 13.1467Z" fill="#FFFF00"/>
<path d="M82.5203 5.52564L81.0605 12.1057L89.4298 13.9691L90.8895 7.38901L82.5203 5.52564Z" fill="white"/>
<path d="M78.8925 50.4001L82.8323 44.3333L80.5402 45.5925L79.9205 43.9029L78.1601 44.9611L77.301 43.1375L75.9771 44.4179L74.2871 42.5167L75.2025 47.3561C76.4454 48.3438 77.6637 49.3808 78.8925 50.4001Z" fill="white"/>
<path d="M75.5088 48.9576L76.4806 54.1216L78.315 51.2998C77.3784 50.5308 76.4453 49.7301 75.5088 48.9576Z" fill="black"/>
<path d="M43.8741 31.8821C44.0009 31.6351 44.0924 31.3706 44.2262 31.1272C44.53 30.5081 44.9664 29.9637 45.5043 29.5329C45.8254 29.3218 46.184 29.1745 46.5606 29.099C47.3036 28.9083 48.068 28.8135 48.8351 28.8169C48.981 28.8174 49.1268 28.8268 49.2717 28.8451C49.3935 28.8614 49.509 28.9094 49.6066 28.9842C49.7042 29.0591 49.7805 29.1583 49.828 29.2719C49.9588 29.572 50.0522 29.8871 50.1061 30.2101C50.2927 31.1378 50.5181 32.0584 50.7258 32.979C50.8634 33.5077 50.9332 34.0517 50.9335 34.598C50.9397 34.7833 50.8972 34.967 50.8103 35.1307C50.726 35.2468 50.6132 35.3392 50.4829 35.3987C50.1343 35.5701 49.7714 35.7106 49.3984 35.8185C48.9461 35.9454 48.5046 36.1082 48.0781 36.3052C47.9045 36.3893 47.7552 36.5164 47.6443 36.6744C47.5334 36.8324 47.4646 37.0161 47.4443 37.2082C47.351 37.8385 47.351 38.4791 47.4443 39.1094C47.5729 40.0745 47.8447 41.0149 48.2506 41.8995C48.8616 43.2456 49.6541 44.5012 50.6061 45.6313C50.791 45.8542 50.9948 46.0608 51.2152 46.2486C51.4139 46.412 51.6535 46.5177 51.908 46.5544C52.1625 46.5911 52.4221 46.5573 52.6588 46.4567C53.1424 46.2657 53.603 46.0208 54.0319 45.7266C54.2455 45.5972 54.4638 45.4702 54.6868 45.3456C54.8285 45.2662 54.9902 45.2299 55.1522 45.2411C55.3142 45.2524 55.4694 45.3108 55.5987 45.4091C56.049 45.7188 56.4492 46.0959 56.7852 46.5273C57.5721 47.4707 58.2501 48.5001 58.8063 49.596C58.8591 49.6947 58.9048 49.8005 58.9471 49.9028C59.0414 50.1053 59.0709 50.332 59.0316 50.5519L58.9436 50.7846C58.8026 51.0243 58.6216 51.2379 58.4084 51.416C57.6885 51.9554 56.8774 52.3605 56.0142 52.6118C55.4132 52.7874 54.7817 52.8319 54.1622 52.7423C53.0563 52.6058 51.9944 52.2251 51.0532 51.6277C50.2523 51.1304 49.5196 50.5304 48.8738 49.8429C47.8831 48.8046 47.0235 47.6484 46.3141 46.4003C45.2871 44.6532 44.4603 42.7955 43.8495 40.8625C43.3619 39.3403 43.0974 37.7553 43.0643 36.1571C43.0543 35.3068 43.1345 34.4578 43.3037 33.6245C43.3636 33.3212 43.4551 33.0284 43.5326 32.7286L43.8741 31.8821Z" fill="white"/>
<path d="M35.4555 72.0894H34.9239C34.4211 72.0828 33.9221 72.1784 33.4573 72.3706C32.9925 72.5628 32.5715 72.8476 32.2198 73.2076C31.8161 73.6037 31.5068 74.086 31.315 74.6185C31.1205 74.0856 30.8088 73.6034 30.403 73.2076C30.054 72.8498 29.6365 72.5664 29.1755 72.3742C28.7145 72.1821 28.2194 72.0852 27.7201 72.0894H27.1884C26.6864 72.0829 26.1883 72.1791 25.7246 72.3719C25.2609 72.5648 24.8413 72.8503 24.4914 73.2111C23.9073 73.7768 23.5281 74.5216 23.4141 75.3275C23.2337 74.4644 22.7634 73.6893 22.0817 73.1316C21.4 72.5738 20.548 72.267 19.6678 72.2623L16.0589 72.2834C15.8838 72.2852 15.7146 72.3475 15.5801 72.4598C15.4528 72.3714 15.3019 72.3235 15.147 72.3223H8.92555C8.82456 72.3229 8.72468 72.3434 8.63163 72.3828C8.53859 72.4221 8.45422 72.4794 8.38334 72.5515C8.31283 72.623 8.25721 72.7079 8.21974 72.8012C8.18226 72.8944 8.16368 72.9942 8.16504 73.0947V74.0259C7.99019 73.7216 7.77459 73.4427 7.52424 73.197C7.17459 72.8391 6.75644 72.5556 6.29483 72.3635C5.83321 72.1714 5.33764 72.0746 4.83779 72.0789H4.30966C3.80722 72.0807 3.31008 72.1817 2.84665 72.3762C2.38321 72.5706 1.96257 72.8546 1.60877 73.212C1.25497 73.5694 0.974936 73.9932 0.784695 74.459C0.594454 74.9249 0.497724 75.4238 0.500041 75.9271V83.5107C0.501904 84.5248 0.905091 85.4968 1.62121 86.2136C2.33733 86.9303 3.30795 87.3334 4.32023 87.3343H4.84836C5.85922 87.3287 6.82714 86.9242 7.54227 86.2085C8.25739 85.4927 8.66206 84.5234 8.66853 83.5107V75.9271C8.66744 75.7869 8.65921 75.6468 8.64388 75.5074C8.73912 75.55 8.84237 75.5716 8.94667 75.5709H10.2248V86.3855C10.2243 86.4858 10.2436 86.5852 10.2816 86.6781C10.3197 86.7709 10.3756 86.8553 10.4463 86.9265C10.5169 86.9976 10.6009 87.054 10.6934 87.0925C10.7859 87.131 10.8851 87.1509 10.9853 87.1509H13.0978C13.2999 87.1499 13.4933 87.0689 13.6358 86.9254C13.7783 86.782 13.8583 86.5878 13.8583 86.3855V75.5532H15.154C15.1996 75.5586 15.2457 75.5586 15.2913 75.5532V86.3819C15.2913 86.5843 15.3713 86.7785 15.5139 86.9219C15.6564 87.0653 15.8498 87.1464 16.0518 87.1473H18.1644C18.2646 87.1473 18.3637 87.1275 18.4562 87.089C18.5487 87.0505 18.6327 86.9941 18.7034 86.9229C18.7741 86.8518 18.83 86.7674 18.868 86.6746C18.906 86.5817 18.9254 86.4823 18.9249 86.3819V82.1739C19.2077 82.16 19.4901 82.2081 19.7523 82.315C19.8298 82.3573 20.0551 82.4878 20.0551 83.1227V86.3678C20.0546 86.4682 20.074 86.5676 20.112 86.6605C20.15 86.7533 20.206 86.8377 20.2766 86.9088C20.3473 86.9799 20.4313 87.0364 20.5238 87.0749C20.6163 87.1134 20.7155 87.1332 20.8156 87.1332H22.8824C23.0844 87.1323 23.2778 87.0512 23.4204 86.9078C23.5629 86.7644 23.6429 86.5702 23.6429 86.3678V84.8934C23.8361 85.3831 24.13 85.8265 24.5055 86.195C24.8551 86.5561 25.2747 86.8419 25.7384 87.0348C26.2022 87.2276 26.7004 87.3236 27.2025 87.3166H27.7342C28.2335 87.3209 28.7285 87.224 29.1896 87.0319C29.6506 86.8397 30.0681 86.5563 30.4171 86.1985C30.7996 85.824 31.0994 85.3734 31.2974 84.8758C31.5574 85.6375 32.0476 86.2994 32.6999 86.7696C33.3522 87.2398 34.1343 87.4951 34.938 87.5001H35.4696C36.4788 87.4973 37.4461 87.0949 38.1604 86.3806C38.8747 85.6663 39.2781 84.6981 39.2827 83.6871V82.0152C39.2855 81.4963 39.1739 80.9833 38.9561 80.5126C38.7382 80.0419 38.4193 79.6252 38.0223 79.2921C37.2612 78.6033 36.2699 78.2257 35.2443 78.2339C35.0506 78.2339 34.9133 78.2057 34.8042 77.8812C34.6927 77.4197 34.6488 76.9444 34.6739 76.4703C34.6518 76.1761 34.6914 75.8806 34.7901 75.6026C34.8112 75.5673 34.857 75.4791 35.1422 75.4791C35.4274 75.4791 35.5259 75.5779 35.5823 75.7014C35.6868 76.0643 35.7297 76.4423 35.709 76.8195C35.7086 76.9197 35.7279 77.019 35.766 77.1116C35.804 77.2043 35.86 77.2884 35.9307 77.3593C36.0015 77.4301 36.0855 77.4862 36.178 77.5243C36.2704 77.5625 36.3696 77.5819 36.4696 77.5814H38.5081C38.7098 77.5814 38.9033 77.5011 39.0459 77.3583C39.1885 77.2154 39.2687 77.0216 39.2687 76.8195V75.9271C39.2659 74.9121 38.8614 73.9396 38.144 73.2228C37.4265 72.506 36.4547 72.1035 35.4414 72.1035L35.4555 72.0894ZM5.10891 76.3962V82.9464C5.10891 83.8917 4.81667 83.8917 4.62655 83.8917C4.37304 83.8917 4.05966 83.8917 4.05966 82.9464V76.3962C4.05966 75.4509 4.41175 75.4509 4.76384 75.4509C4.98566 75.4509 5.00679 75.5038 5.02791 75.5497C5.10958 75.8239 5.1371 76.1115 5.10891 76.3962ZM27.9947 76.3962V82.9464C27.9947 83.8917 27.7025 83.8917 27.5124 83.8917C27.2589 83.8917 26.949 83.8917 26.949 82.9464V76.3962C26.949 75.4509 27.3011 75.4509 27.6532 75.4509C27.8715 75.4509 27.8961 75.5038 27.9138 75.5497C27.9895 75.8251 28.011 76.1126 27.9771 76.3962H27.9947ZM31.5544 79.5038C31.7691 79.8819 32.0465 80.2207 32.3747 80.5055C33.1437 81.209 34.1501 81.5947 35.1915 81.5848C35.6351 81.5848 35.7302 82.3891 35.7302 83.0663C35.7559 83.3769 35.7212 83.6895 35.6281 83.9869C35.5964 84.0469 35.5506 84.1386 35.2478 84.1386C35.1934 84.146 35.1381 84.1413 35.0858 84.1248C35.0334 84.1083 34.9854 84.0805 34.945 84.0433C34.864 83.9587 34.6739 83.6906 34.6845 82.8017C34.6849 82.7012 34.6656 82.6016 34.6276 82.5086C34.5897 82.4155 34.5338 82.3309 34.4632 82.2595C34.3925 82.1881 34.3086 82.1313 34.216 82.0924C34.1235 82.0535 34.0243 82.0333 33.9239 82.0328H31.8853C31.7744 82.0334 31.6649 82.0588 31.5649 82.1069L31.5544 79.5038ZM19.9354 76.5761V77.8459C19.9604 78.129 19.9194 78.4139 19.8157 78.6784C19.8145 78.6889 19.8145 78.6996 19.8157 78.7101C19.8157 78.7348 19.7664 78.8089 19.4636 78.8089H18.9496V75.6061H19.1925C19.4068 75.5831 19.6233 75.6184 19.8192 75.7084C19.9114 75.9878 19.9473 76.2827 19.9248 76.5761H19.9354ZM22.6923 80.5866C22.827 80.4175 22.9449 80.2355 23.0444 80.0434C23.1935 79.7842 23.3116 79.5084 23.3965 79.2216V81.5496C23.3061 81.3637 23.1989 81.1866 23.076 81.0205C22.9561 80.8657 22.8243 80.7207 22.6817 80.5866H22.6923Z" fill="#070036"/>
<path d="M105.377 75.4508C105.68 75.4508 105.758 75.5496 105.814 75.673C105.918 76.036 105.961 76.414 105.941 76.7912C105.94 76.8914 105.959 76.9906 105.998 77.0833C106.036 77.1759 106.092 77.2601 106.162 77.3309C106.233 77.4018 106.317 77.4579 106.409 77.496C106.502 77.5341 106.601 77.5535 106.701 77.5531H108.74C108.84 77.5531 108.938 77.5333 109.031 77.4951C109.123 77.4568 109.207 77.4007 109.277 77.3299C109.348 77.2592 109.404 77.1752 109.442 77.0827C109.481 76.9903 109.5 76.8912 109.5 76.7912V75.927C109.497 74.9119 109.093 73.9394 108.376 73.2227C107.658 72.5059 106.686 72.1034 105.673 72.1034H105.141C104.639 72.0967 104.14 72.1924 103.675 72.3846C103.21 72.5768 102.789 72.8616 102.437 73.2216C102.034 73.6177 101.724 74.1 101.532 74.6325C101.338 74.0996 101.026 73.6174 100.62 73.2216C100.271 72.8638 99.854 72.5803 99.3929 72.3882C98.9319 72.1961 98.4369 72.0992 97.9376 72.1034H97.4059C96.9049 72.0951 96.4074 72.189 95.9437 72.3794C95.4801 72.5698 95.0599 72.8527 94.7089 73.211C94.483 73.4351 94.2855 73.6863 94.1209 73.9588V73.0875C94.1182 72.887 94.0369 72.6955 93.8947 72.5544C93.7525 72.4132 93.5606 72.3336 93.3604 72.3327H87.1319C86.9293 72.3355 86.7359 72.4181 86.5935 72.5627C86.4512 72.7072 86.3714 72.9021 86.3714 73.1052V73.8106C86.2351 73.5969 86.0796 73.3962 85.9067 73.211C85.5562 72.8501 85.136 72.5645 84.6717 72.3717C84.2074 72.1788 83.7087 72.0828 83.2061 72.0893H82.678C81.6645 72.0921 80.6936 72.4979 79.9786 73.2175C79.2636 73.9371 78.863 74.9117 78.8649 75.927V83.1226L77.1361 72.9888C77.1057 72.8127 77.0148 72.6529 76.8791 72.5369C76.7434 72.4209 76.5715 72.3562 76.3932 72.3539L74.2103 72.3327C74.0316 72.3334 73.8589 72.397 73.7225 72.5124C73.586 72.6279 73.4944 72.7878 73.4638 72.9641L73.3864 73.3944V73.1052C73.3836 72.9046 73.3024 72.7132 73.1601 72.572C73.0179 72.4309 72.8261 72.3512 72.6258 72.3503H66.3833C66.2823 72.3509 66.1824 72.3715 66.0894 72.4109C65.9963 72.4502 65.9119 72.5075 65.8411 72.5796C65.8204 72.6015 65.8015 72.6251 65.7847 72.6502C65.7139 72.5633 65.6248 72.4933 65.5237 72.4451C65.4227 72.3969 65.3122 72.3718 65.2003 72.3715H63.2462C63.0441 72.3715 62.8503 72.4517 62.7072 72.5945C62.564 72.7372 62.483 72.931 62.4821 73.1334V75.2921L61.7779 72.9182C61.7316 72.7605 61.6356 72.6221 61.5042 72.5235C61.3729 72.425 61.2132 72.3717 61.0491 72.3715H58.8802C58.6782 72.3724 58.4848 72.4535 58.3423 72.5969C58.1997 72.7404 58.1197 72.9345 58.1197 73.1369V74.3997C57.9242 73.959 57.6456 73.5602 57.2994 73.2251C56.9504 72.8673 56.5328 72.5839 56.0718 72.3917C55.6108 72.1996 55.1158 72.1027 54.6164 72.107H54.0848C53.5864 72.1001 53.0917 72.1944 52.6306 72.3841C52.1695 72.5738 51.7515 72.8551 51.4019 73.211C51.0156 73.5919 50.7155 74.0514 50.5216 74.5584C50.3281 74.0512 50.0279 73.5917 49.6414 73.211C49.291 72.8499 48.8708 72.5643 48.4065 72.3714C47.9422 72.1785 47.4435 72.0825 46.9409 72.0893H46.4128C45.3995 72.0931 44.4292 72.4992 43.7144 73.2185C42.9996 73.9379 42.5987 74.9119 42.5996 75.927V83.5106C42.6024 84.5244 43.0059 85.4959 43.7218 86.2124C44.4377 86.929 45.4078 87.3323 46.4198 87.3342H46.9479C47.4505 87.3409 47.9492 87.245 48.4136 87.0521C48.8779 86.8592 49.2981 86.5735 49.6485 86.2125C50.0345 85.8308 50.3336 85.3699 50.5252 84.8616C50.718 85.3701 51.0183 85.8309 51.4054 86.2125C51.7552 86.5733 52.1748 86.8588 52.6385 87.0517C53.1023 87.2445 53.6003 87.3407 54.1024 87.3342H54.634C55.1334 87.3388 55.6285 87.2421 56.0896 87.0499C56.5507 86.8578 56.9682 86.5741 57.317 86.216C57.6923 85.8501 57.9884 85.4107 58.1866 84.925V86.3888C58.1876 86.5906 58.268 86.7839 58.4104 86.9266C58.5528 87.0692 58.7457 87.1498 58.9471 87.1507H60.9083C61.1103 87.1498 61.3037 87.0688 61.4463 86.9253C61.5888 86.7819 61.6688 86.5877 61.6688 86.3853V84.3924L62.3202 86.5899C62.366 86.7479 62.4619 86.8867 62.5933 86.9853C62.7248 87.0839 62.8848 87.1371 63.049 87.1366H65.2073C65.3075 87.1366 65.4067 87.1168 65.4992 87.0783C65.5917 87.0398 65.6757 86.9834 65.7463 86.9122C65.817 86.8411 65.8729 86.7567 65.9109 86.6639C65.9489 86.571 65.9683 86.4716 65.9678 86.3712V75.4085C66.0966 75.5027 66.252 75.5534 66.4115 75.5531H67.6895V86.3677C67.6891 86.468 67.7084 86.5675 67.7464 86.6603C67.7844 86.7532 67.8404 86.8376 67.911 86.9087C67.9817 86.9798 68.0657 87.0363 68.1582 87.0748C68.2507 87.1133 68.3499 87.1331 68.45 87.1331H70.5626C70.6909 87.1333 70.8172 87.101 70.9298 87.0394C71.0424 86.9777 71.1377 86.8887 71.2069 86.7804C71.2236 86.8099 71.2425 86.8382 71.2632 86.865C71.3347 86.9509 71.4241 87.02 71.5251 87.0675C71.626 87.115 71.7362 87.1398 71.8477 87.1402H73.9603C74.1402 87.1409 74.3145 87.0774 74.4519 86.961C74.5894 86.8447 74.6809 86.6831 74.7102 86.5053L75.1151 84.1173H75.3862L75.777 86.4982C75.8055 86.677 75.8966 86.8399 76.034 86.9575C76.1715 87.0751 76.3462 87.1399 76.527 87.1402H78.6395C78.75 87.1374 78.8587 87.1112 78.9582 87.0632C79.0578 87.0151 79.146 86.9464 79.217 86.8615C79.288 86.7764 79.3396 86.6767 79.3682 86.5694C79.3968 86.4622 79.4016 86.35 79.3824 86.2407L79.1818 85.0661C79.3748 85.4868 79.642 85.8692 79.9704 86.1948C80.3208 86.5559 80.741 86.8416 81.2053 87.0345C81.6697 87.2273 82.1684 87.3233 82.671 87.3165H83.1991C84.212 87.3156 85.1831 86.9121 85.8993 86.1946C86.6156 85.4771 87.0183 84.5042 87.0193 83.4894V81.1615C87.0183 80.9591 86.9374 80.7653 86.7942 80.6225C86.6511 80.4797 86.4573 80.3996 86.2552 80.3996H84.2202C84.0181 80.3996 83.8243 80.4797 83.6811 80.6225C83.538 80.7653 83.457 80.9591 83.4561 81.1615V82.9251C83.4561 83.8775 83.1674 83.8774 82.9738 83.8774C82.7238 83.8774 82.4104 83.8774 82.4104 82.9321V76.3961C82.4104 75.4508 82.6886 75.4508 82.8752 75.4508C83.0618 75.4508 83.4561 75.4508 83.4561 76.7982V78.0187C83.457 78.221 83.538 78.4148 83.6811 78.5576C83.8243 78.7004 84.0181 78.7806 84.2202 78.7806H86.2588C86.4608 78.7806 86.6546 78.7004 86.7978 78.5576C86.9409 78.4148 87.0219 78.221 87.0228 78.0187V75.9023C87.0228 75.7753 87.0228 75.6519 87.0228 75.5284C87.0731 75.5339 87.1239 75.5339 87.1742 75.5284H88.4523V86.343C88.4523 86.5454 88.5323 86.7396 88.6748 86.883C88.8173 87.0264 89.0108 87.1075 89.2128 87.1084H91.3253C91.5274 87.1075 91.7208 87.0264 91.8633 86.883C92.0058 86.7396 92.0858 86.5454 92.0858 86.343V75.5531H93.3851C93.4654 75.5513 93.545 75.5371 93.6209 75.5108C93.6209 75.6413 93.6209 75.7753 93.6209 75.9094V83.493C93.6228 84.5065 94.0255 85.4779 94.7409 86.1946C95.4562 86.9112 96.4259 87.3147 97.4376 87.3165H97.9693C98.4686 87.3207 98.9636 87.2239 99.4246 87.0318C99.8857 86.8396 100.303 86.5561 100.652 86.1984C101.036 85.8249 101.336 85.374 101.532 84.8757C101.792 85.6374 102.283 86.2993 102.935 86.7695C103.587 87.2397 104.369 87.495 105.173 87.4999H105.705C106.71 87.4916 107.672 87.0868 108.382 86.3731C109.092 85.6594 109.492 84.6944 109.497 83.687V82.015C109.499 81.4962 109.388 80.9832 109.17 80.5125C108.952 80.0418 108.633 79.6251 108.236 79.292C107.475 78.6032 106.484 78.2256 105.458 78.2338C105.265 78.2338 105.127 78.2056 105.018 77.8811C104.907 77.4196 104.863 76.9443 104.888 76.4702C104.866 76.176 104.905 75.8804 105.004 75.6025C105.029 75.539 105.074 75.4508 105.377 75.4508ZM54.8805 76.3961V82.9463C54.8805 83.8916 54.5918 83.8916 54.3981 83.8916C54.1482 83.8916 53.8348 83.8916 53.8348 82.9463V76.3961C53.8348 75.4508 54.1869 75.4508 54.539 75.4508C54.7573 75.4508 54.7819 75.5037 54.803 75.5496C54.8793 75.8248 54.9056 76.1116 54.8805 76.3961ZM49.9935 80.3996H47.9549C47.7532 80.3996 47.5598 80.4798 47.4171 80.6227C47.2745 80.7656 47.1944 80.9594 47.1944 81.1615V82.9251C47.1944 83.8775 46.9021 83.8774 46.712 83.8774C46.4585 83.8774 46.1487 83.8774 46.1487 82.9321V76.3961C46.1487 75.4508 46.4268 75.4508 46.6099 75.4508C46.793 75.4508 47.1944 75.4508 47.1944 76.7982V78.0187C47.1944 78.2207 47.2745 78.4145 47.4171 78.5574C47.5598 78.7003 47.7532 78.7806 47.9549 78.7806H49.9935C50.089 78.7799 50.1834 78.7607 50.2716 78.7241V80.456C50.1834 80.4194 50.089 80.4002 49.9935 80.3996ZM71.3196 84.9603V75.5531H72.6188C72.7526 75.5518 72.8837 75.5153 72.9991 75.4473L71.3196 84.9603ZM98.1911 76.3961V82.9463C98.1911 83.8916 97.8989 83.8916 97.7087 83.8916C97.4552 83.8916 97.1454 83.8916 97.1454 82.9463V76.3961C97.1454 75.4508 97.4975 75.4508 97.8495 75.4508C98.0678 75.4508 98.0925 75.5037 98.1101 75.5496C98.1929 75.8236 98.2217 76.1111 98.1946 76.3961H98.1911ZM101.751 79.5036C101.965 79.8818 102.243 80.2205 102.571 80.5054C103.34 81.2083 104.347 81.5938 105.388 81.5847C105.831 81.5847 105.926 82.3889 105.926 83.0662C105.952 83.3768 105.918 83.6894 105.824 83.9868C105.793 84.0467 105.747 84.1385 105.444 84.1385C105.39 84.1459 105.334 84.1412 105.282 84.1247C105.23 84.1082 105.182 84.0804 105.141 84.0432C105.06 83.9586 104.87 83.6905 104.881 82.8016C104.881 82.5983 104.802 82.403 104.659 82.2584C104.589 82.1869 104.505 82.1302 104.412 82.0914C104.32 82.0527 104.221 82.0327 104.12 82.0327H102.082C101.971 82.0333 101.861 82.0586 101.761 82.1068L101.751 79.5036Z" fill="#070036"/>
<path d="M7.90818 83.493C7.91397 83.8967 7.83625 84.2973 7.67991 84.6694C7.52357 85.0415 7.29202 85.3772 6.9998 85.6553C6.72087 85.9435 6.38631 86.1719 6.01647 86.3265C5.64663 86.4812 5.24927 86.5588 4.84854 86.5547H4.3204C3.51011 86.5528 2.73347 86.2298 2.16018 85.6561C1.58688 85.0824 1.26353 84.3048 1.26074 83.493V75.927C1.26261 75.1153 1.58577 74.3375 2.15936 73.7642C2.73296 73.1909 3.51015 72.8689 4.3204 72.8689H4.84854C5.24893 72.865 5.64596 72.9423 6.0157 73.0963C6.38543 73.2503 6.7202 73.4777 6.9998 73.7648C7.29185 74.043 7.52331 74.3787 7.67963 74.7508C7.83596 75.1229 7.91376 75.5234 7.90818 75.927V83.493ZM5.86959 82.9463V76.3962C5.8929 76.0033 5.83662 75.6097 5.70411 75.2392C5.62238 75.0584 5.48586 74.9079 5.31397 74.8092C5.14207 74.7104 4.94351 74.6683 4.74642 74.689C3.78169 74.689 3.29933 75.2604 3.29933 76.3962V82.9463C3.29933 84.0868 3.7418 84.6558 4.62672 84.6535C5.45531 84.6535 5.86959 84.0844 5.86959 82.9463Z" fill="white"/>
<path d="M15.1611 74.7912H13.1049V86.3677H10.9923V74.7912H8.95374L8.93262 73.0981H15.1364L15.1611 74.7912Z" fill="white"/>
<path d="M22.8827 86.3677H20.8441V83.1227C20.8441 82.4031 20.6152 81.9128 20.1575 81.6518C19.6452 81.4405 19.0894 81.357 18.5379 81.4084H18.1858V86.3677H16.0732V73.0558L19.6822 73.0347C20.4931 73.0375 21.2698 73.3619 21.8426 73.937C22.4153 74.5121 22.7374 75.291 22.7383 76.1034V78.3961C22.7333 78.8496 22.6121 79.2941 22.3862 79.6871C22.2053 80.1023 21.8782 80.4362 21.4673 80.6253C21.8665 80.8201 22.2104 81.1124 22.4672 81.4754C22.7339 81.8098 22.8846 82.2221 22.8967 82.65L22.8827 86.3677ZM20.6997 77.8459V76.5761C20.6997 75.9059 20.6117 75.4614 20.4392 75.2427C20.235 74.957 19.7913 74.8195 19.1048 74.8336H18.1928V79.5495L19.4674 79.5707C19.6677 79.5936 19.8702 79.5569 20.0499 79.4654C20.2296 79.3738 20.3784 79.2313 20.4779 79.0557C20.6454 78.6757 20.7168 78.2601 20.6856 77.8459H20.6997Z" fill="white"/>
<path d="M30.7758 83.493C30.7684 84.3028 30.4441 85.0772 29.8725 85.6498C29.301 86.2224 28.5279 86.5473 27.7196 86.5547H27.188C26.3777 86.5538 25.6009 86.2309 25.028 85.6569C24.455 85.083 24.1328 84.3047 24.1318 83.493V75.927C24.1318 75.5251 24.2109 75.1272 24.3645 74.7559C24.5182 74.3847 24.7433 74.0474 25.0272 73.7634C25.311 73.4793 25.6479 73.2542 26.0187 73.1007C26.3895 72.9472 26.7868 72.8684 27.188 72.8689H27.7196C28.1195 72.865 28.516 72.9424 28.8851 73.0964C29.2543 73.2504 29.5885 73.4778 29.8674 73.7648C30.1594 74.043 30.3909 74.3787 30.5472 74.7508C30.7035 75.1229 30.7814 75.5234 30.7758 75.927V83.493ZM28.7372 82.9463V76.3962C28.7594 76.0036 28.7044 75.6105 28.5752 75.2392C28.493 75.0587 28.3565 74.9086 28.1847 74.8099C28.0129 74.7112 27.8145 74.6689 27.6175 74.689C26.6493 74.689 26.1705 75.2604 26.1705 76.3962V82.9463C26.1705 84.0868 26.6117 84.6558 27.4943 84.6535C28.3229 84.6535 28.7372 84.0844 28.7372 82.9463Z" fill="white"/>
<path d="M38.5222 76.7912H36.4836C36.504 76.3139 36.442 75.8366 36.3005 75.3803C36.2093 75.1562 36.0492 74.967 35.8434 74.8402C35.6377 74.7134 35.397 74.6554 35.1562 74.6749C34.9478 74.6505 34.7369 74.6875 34.5492 74.7815C34.3616 74.8755 34.2054 75.0223 34.0999 75.204C33.9412 75.5915 33.8715 76.0097 33.8957 76.4279C33.8735 76.9762 33.9292 77.5249 34.0612 78.0575C34.1189 78.3208 34.2674 78.5552 34.4805 78.7197C34.6936 78.8842 34.9578 78.9682 35.2266 78.957C36.0689 78.9553 36.8809 79.2714 37.5011 79.8423C37.8172 80.1039 38.0712 80.4327 38.2448 80.8049C38.4183 81.177 38.5071 81.5832 38.5046 81.9939V83.687C38.4999 84.4991 38.1749 85.2764 37.6004 85.8493C37.0258 86.4222 36.2485 86.7442 35.4379 86.7451H34.9238C34.1117 86.7452 33.3327 86.4224 32.7578 85.8478C32.1829 85.2732 31.859 84.4935 31.8571 83.68V82.8017H33.8957C33.8816 84.2126 34.3229 84.918 35.2196 84.918C35.4323 84.9385 35.6464 84.8951 35.8345 84.7934C36.0226 84.6916 36.1762 84.5361 36.2758 84.3466C36.4249 83.9433 36.4873 83.513 36.4589 83.0838C36.4589 81.5883 36.0258 80.8405 35.1597 80.8405C34.3077 80.8459 33.4852 80.5284 32.857 79.9516C32.5408 79.6909 32.2867 79.3628 32.1131 78.9912C31.9395 78.6195 31.8508 78.2138 31.8536 77.8035V75.927C31.8545 75.5245 31.9346 75.1261 32.0892 74.7546C32.2438 74.3831 32.4699 74.0457 32.7547 73.7617C33.0395 73.4777 33.3773 73.2527 33.7489 73.0995C34.1204 72.9463 34.5185 72.868 34.9203 72.8689H35.4519C36.2632 72.8698 37.0411 73.1924 37.6157 73.766C38.1903 74.3397 38.5149 75.1179 38.5186 75.9306L38.5222 76.7912Z" fill="white"/>
<path d="M49.9935 83.4895C49.9917 84.3019 49.6687 85.0804 49.0953 85.6548C48.5219 86.2293 47.7448 86.5528 46.9339 86.5547H46.4057C45.5955 86.5537 44.8187 86.2309 44.2458 85.6569C43.6728 85.0829 43.3505 84.3047 43.3496 83.493V75.927C43.3496 75.5251 43.4287 75.1272 43.5823 74.7559C43.7359 74.3847 43.9611 74.0474 44.2449 73.7634C44.5288 73.4793 44.8657 73.2542 45.2365 73.1007C45.6073 72.9472 46.0046 72.8684 46.4057 72.8689H46.9339C47.7436 72.8708 48.5197 73.1933 49.0929 73.7662C49.6661 74.3391 49.9898 75.1159 49.9935 75.927V78.0434H47.955V76.8229C47.955 75.412 47.5078 74.7066 46.61 74.7066C45.7931 74.7066 45.3847 75.278 45.3847 76.4138V82.9463C45.3847 84.0868 45.8271 84.6558 46.7121 84.6535C47.5383 84.6535 47.9526 84.0821 47.955 82.9392V81.1756H49.9935V83.4895Z" fill="white"/>
<path d="M57.6791 83.493C57.6847 83.8964 57.6072 84.2966 57.4516 84.6686C57.2959 85.0406 57.0653 85.3765 56.7742 85.6552C56.495 85.9432 56.1604 86.1714 55.7906 86.326C55.4209 86.4806 55.0236 86.5584 54.623 86.5547H54.0913C53.2816 86.5519 52.5059 86.2284 51.9333 85.6549C51.3608 85.0813 51.0379 84.3042 51.0352 83.493V75.927C51.037 75.1159 51.3597 74.3386 51.9326 73.7654C52.5054 73.1922 53.2816 72.8698 54.0913 72.8689H54.623C55.0233 72.8652 55.4203 72.9426 55.79 73.0966C56.1597 73.2505 56.4945 73.4778 56.7742 73.7648C57.0651 74.0437 57.2956 74.3796 57.4513 74.7516C57.6069 75.1236 57.6845 75.5237 57.6791 75.927V83.493ZM55.6264 82.9463V76.3962C55.6505 76.0035 55.5954 75.6101 55.4644 75.2392C55.3827 75.0584 55.2462 74.9079 55.0743 74.8091C54.9024 74.7104 54.7038 74.6683 54.5068 74.689C53.542 74.689 53.0597 75.2604 53.0597 76.3962V82.9463C53.0597 84.0868 53.5009 84.6558 54.3835 84.6535C55.2285 84.6535 55.6264 84.0856 55.6264 82.9463Z" fill="white"/>
<path d="M65.2003 86.3677H63.042L60.9083 79.1404V86.3677H58.9507L58.8838 73.1052H61.0527L63.2462 80.5125V73.1052H65.2003V86.3677Z" fill="white"/>
<path d="M72.6216 74.7912H70.5619V86.3677H68.4494V74.7912H66.4108L66.3896 73.0981H72.6075L72.6216 74.7912Z" fill="white"/>
<path d="M78.632 86.3677H76.5195L76.0477 83.3343H74.4879L73.9739 86.3536H71.8613L74.1886 73.1052H76.3716L78.632 86.3677ZM75.6956 81.2179L75.2661 77.9905L74.8435 81.2179H75.6956Z" fill="white"/>
<path d="M86.2582 83.4895C86.2582 84.3018 85.9363 85.0809 85.3633 85.6557C84.7903 86.2304 84.0129 86.5537 83.2021 86.5547H82.6739C81.8636 86.5528 81.087 86.2298 80.5137 85.6561C79.9404 85.0824 79.617 84.3048 79.6143 83.493V75.927C79.6161 75.1153 79.9393 74.3375 80.5129 73.7642C81.0865 73.1909 81.8637 72.8689 82.6739 72.8689H83.2021C84.0117 72.8698 84.788 73.1922 85.3608 73.7654C85.9336 74.3386 86.2563 75.1159 86.2582 75.927V78.0434H84.2231V76.8229C84.2231 75.412 83.7724 74.7066 82.8781 74.7066C82.0613 74.7066 81.6529 75.278 81.6529 76.4138V82.9463C81.6529 84.0856 82.0965 84.6535 82.9767 84.6535C83.8569 84.6535 84.2231 84.0821 84.2231 82.9392V81.1756H86.2582V83.4895Z" fill="white"/>
<path d="M93.3707 74.7912H91.3109V86.3677H89.1984V74.7912H87.1598L87.1387 73.0981H93.3566L93.3707 74.7912Z" fill="white"/>
<path d="M100.994 83.493C100.986 84.3028 100.662 85.0772 100.09 85.6498C99.5188 86.2224 98.7457 86.5473 97.9374 86.5547H97.4057C96.5955 86.5538 95.8187 86.2309 95.2458 85.6569C94.6728 85.083 94.3505 84.3047 94.3496 83.493V75.927C94.3496 75.5251 94.4287 75.1272 94.5823 74.7559C94.736 74.3847 94.9611 74.0474 95.245 73.7634C95.5288 73.4793 95.8657 73.2542 96.2365 73.1007C96.6073 72.9472 97.0046 72.8684 97.4057 72.8689H97.9374C98.3373 72.865 98.7338 72.9424 99.1029 73.0964C99.4721 73.2504 99.8062 73.4778 100.085 73.7648C100.377 74.043 100.609 74.3787 100.765 74.7508C100.921 75.1229 100.999 75.5234 100.994 75.927V83.493ZM98.955 82.9463V76.3962C98.979 76.0035 98.9239 75.6101 98.793 75.2392C98.7108 75.0587 98.5742 74.9086 98.4024 74.8099C98.2307 74.7112 98.0323 74.6689 97.8353 74.689C96.8706 74.689 96.3882 75.2604 96.3882 76.3962V82.9463C96.3882 84.0868 96.8295 84.6558 97.7121 84.6535C98.5407 84.6535 98.955 84.0844 98.955 82.9463Z" fill="white"/>
<path d="M108.739 76.7912H106.701C106.721 76.3139 106.659 75.8366 106.518 75.3803C106.427 75.1568 106.267 74.9681 106.062 74.8413C105.857 74.7145 105.617 74.6562 105.377 74.6749C105.169 74.6505 104.958 74.6875 104.77 74.7815C104.582 74.8755 104.426 75.0223 104.321 75.204C104.162 75.5915 104.092 76.0097 104.116 76.4279C104.094 76.9762 104.15 77.5249 104.282 78.0575C104.34 78.3208 104.488 78.5552 104.701 78.7197C104.914 78.8842 105.179 78.9682 105.447 78.957C106.29 78.9553 107.102 79.2714 107.722 79.8423C108.038 80.1039 108.292 80.4327 108.465 80.8049C108.639 81.177 108.728 81.5832 108.725 81.9939V83.687C108.732 84.0896 108.655 84.4892 108.5 84.8606C108.344 85.2321 108.114 85.5674 107.824 85.8457C107.543 86.1359 107.207 86.3654 106.834 86.5201C106.462 86.6748 106.062 86.7514 105.659 86.7451H105.127C104.315 86.7452 103.536 86.4224 102.961 85.8478C102.386 85.2732 102.062 84.4935 102.06 83.68V82.8017H104.099C104.085 84.2126 104.526 84.918 105.423 84.918C105.635 84.9385 105.85 84.8951 106.038 84.7934C106.226 84.6916 106.379 84.5361 106.479 84.3466C106.628 83.9433 106.69 83.513 106.662 83.0838C106.662 81.5883 106.229 80.8405 105.363 80.8405C104.511 80.8459 103.688 80.5284 103.06 79.9516C102.744 79.6909 102.49 79.3628 102.316 78.9912C102.143 78.6195 102.054 78.2138 102.057 77.8035V75.927C102.058 75.5245 102.138 75.1261 102.292 74.7546C102.447 74.3831 102.673 74.0457 102.958 73.7617C103.243 73.4777 103.58 73.2527 103.952 73.0995C104.324 72.9463 104.722 72.868 105.123 72.8689H105.655C106.466 72.8698 107.244 73.1924 107.819 73.766C108.393 74.3397 108.718 75.1179 108.722 75.9306L108.739 76.7912Z" fill="white"/>
</svg>
