<svg width="22" height="20" viewBox="0 0 22 20" fill="none" xmlns="http://www.w3.org/2000/svg">
<path opacity="0.973" d="M3.10318 6.65045C4.32212 3.73221 6.43918 1.79569 9.46059 0.835586C10.0058 0.698602 10.5497 0.591453 11.0922 0.514113C13.1066 0.408522 14.8792 0.752499 16.4134 1.54224C17.9478 2.33205 19.2494 3.5706 20.3171 5.26268C21.9985 8.42985 21.9985 11.5912 20.3171 14.7584C19.25 16.4543 17.9488 17.6925 16.4146 18.4782C14.8802 19.2639 13.107 19.5997 11.0917 19.4819C7.8418 19.0759 5.39958 17.475 3.75656 14.6745C3.67112 14.111 3.75423 13.7498 3.9614 13.5496C4.16918 13.3489 4.53601 13.277 5.10154 13.3797C5.22219 13.4452 5.3318 13.5257 5.43058 13.6214C6.91114 16.1124 9.11376 17.4263 12.0277 17.5573L12.0276 17.5578L12.0375 17.5573C13.7455 17.4665 15.196 17.0046 16.3843 16.1672C17.5727 15.3299 18.4927 14.1215 19.1466 12.5478L19.1469 12.548L19.1496 12.5397C20.033 9.75407 19.5431 7.23622 17.6817 4.9986L17.682 4.99838L17.6761 4.99239C16.4507 3.74793 15.1169 2.96359 13.6744 2.64632C12.2319 2.32906 10.6889 2.48064 9.04833 3.09468L9.04823 3.0944L9.04127 3.09763C6.96336 4.06253 5.56146 5.63328 4.8402 7.80488L4.83059 7.83384L4.83877 7.86323C4.84975 7.90267 4.873 7.95771 4.92848 7.98547C4.98983 8.01615 5.04936 7.99447 5.08659 7.97209L5.08661 7.97207C5.65788 7.62844 6.23722 7.29735 6.82459 6.97873C7.13915 6.87225 7.40045 6.86843 7.61594 6.95244C7.83117 7.03635 8.01617 7.21392 8.16643 7.50085C8.2487 7.7473 8.25847 7.96647 8.20314 8.16196C8.14791 8.35709 8.02526 8.53778 7.82705 8.70322C6.57275 9.40518 5.32655 10.1197 4.08845 10.8467C3.78923 10.9896 3.52542 11.0266 3.29218 10.9711C3.06016 10.9158 2.84422 10.7657 2.64604 10.5068L0.457919 6.22998C0.37385 5.74048 0.439502 5.40465 0.621179 5.19448C0.803222 4.98388 1.12591 4.87155 1.62217 4.88725C1.84043 4.94441 2.02556 5.05537 2.17947 5.22135C2.43912 5.69167 2.68625 6.16965 2.92086 6.6554L3.01752 6.85554L3.10318 6.65045Z" fill="white" stroke="#1E1E53" stroke-width="0.2"/>
</svg>
