<svg width="82" height="88" viewBox="0 0 82 88" fill="none" xmlns="http://www.w3.org/2000/svg">
<path d="M74.3156 29.5388C70.5931 23.4756 65.3348 18.5035 59.073 15.1258C59.2715 13.3534 59.073 11.978 58.4917 11.0209C57.8755 10.0291 57.0129 9.21381 55.9878 8.65469C54.9627 8.09556 53.8103 7.81164 52.6428 7.83061H52.579C52.1879 6.63956 51.6268 5.51129 50.9129 4.48078C49.0803 1.87537 46.4926 0.5 43.4264 0.5C41.9255 0.52513 40.4391 0.798204 39.0273 1.3082C28.7474 4.85298 24.7879 8.06456 22.9411 14.3885C16.1063 17.727 10.349 22.9217 6.32769 29.3784C2.30635 35.8351 0.183288 43.2931 0.201285 50.8997C0.19579 58.0186 2.05335 65.015 5.58936 71.1936C5.65152 71.3013 5.7409 71.3907 5.84854 71.4529C5.95617 71.5151 6.07828 71.5479 6.2026 71.5481H6.70242C6.76898 71.6259 6.85161 71.6884 6.94462 71.7312C7.03763 71.774 7.13882 71.7962 7.24122 71.7962L15.2772 71.6721C15.4169 71.6722 15.5532 71.6289 15.6672 71.5481H16.0216C16.1402 71.6308 16.2812 71.6753 16.4258 71.6757H64.9893C65.1338 71.6753 65.2748 71.6308 65.3934 71.5481H65.8471C65.9472 71.6024 66.0594 71.6304 66.1732 71.6296L73.9717 71.665C74.1119 71.6647 74.2488 71.6227 74.3652 71.5445C74.476 71.5317 74.5823 71.4929 74.6753 71.4313C74.7683 71.3697 74.8454 71.2871 74.9005 71.19C78.5373 64.8294 80.3978 57.6082 80.2874 50.2821C80.177 42.956 78.0998 35.7942 74.273 29.5459L74.3156 29.5388Z" fill="white"/>
<path d="M74.33 70.8392C77.8124 64.7717 79.6387 57.8955 79.6259 50.8998C79.6259 28.9221 62.0048 11.1202 40.2789 11.1202C18.5529 11.1202 0.93178 28.9292 0.93178 50.8998C0.913306 57.893 2.73091 64.7686 6.20287 70.8392H74.33Z" fill="#FF0079"/>
<path d="M27.8369 26.2599C27.8369 26.2599 21.8568 20.8966 23.5442 14.8315C25.2315 8.76636 28.8294 5.56897 39.2546 1.96393C49.6798 -1.64111 52.0548 8.55722 52.0548 8.55722C52.0548 8.55722 55.8123 8.01841 57.8789 11.393C59.9455 14.7677 55.5819 23.7998 55.5819 23.7998L27.8369 26.2599Z" fill="white"/>
<path d="M40.5516 80.5483C40.9574 79.9263 41.1933 79.2089 41.2358 78.4675V76.2697C41.2358 75.2146 40.8169 74.2026 40.0711 73.4561C39.3253 72.7097 38.3137 72.2899 37.2585 72.2889H33.7846C33.511 72.2917 33.2496 72.4024 33.0571 72.5969C32.8646 72.7914 32.7566 73.0539 32.7567 73.3276V79.6266L31.6578 73.2106C31.6171 72.9714 31.4936 72.754 31.3089 72.5966C31.1243 72.4391 30.8902 72.3516 30.6475 72.3492H28.549C28.3039 72.347 28.0659 72.4315 27.8771 72.5879C27.6884 72.7442 27.561 72.9623 27.5175 73.2035L26.2945 80.1229C26.1992 79.9854 26.072 79.873 25.9239 79.7953C25.7758 79.7175 25.6111 79.6767 25.4438 79.6763H22.0514V76.5498C22.0514 76.0358 22.1436 75.9436 22.1471 75.9436H22.2003C22.3811 75.9436 22.4484 76.4576 22.4484 76.9362V78.1024C22.4484 78.3772 22.5574 78.6409 22.7514 78.8355C22.9454 79.0302 23.2087 79.1401 23.4835 79.141H25.4438C25.7186 79.1401 25.9819 79.0302 26.1759 78.8355C26.3699 78.6409 26.4789 78.3772 26.4789 78.1024V76.0854C26.4779 75.0315 26.0591 74.0209 25.3142 73.2754C24.5693 72.5298 23.5591 72.11 22.5052 72.1082H21.9947C21.4715 72.1017 20.9526 72.2018 20.4693 72.4023C19.986 72.6028 19.5486 72.8995 19.1837 73.2744C19.0884 73.3673 18.9985 73.4656 18.9143 73.5686V73.2638C18.9143 72.9889 18.8053 72.7253 18.6113 72.5306C18.4173 72.3359 18.1541 72.2261 17.8792 72.2251H15.9189C15.6441 72.2261 15.3808 72.3359 15.1868 72.5306C14.9928 72.7253 14.8839 72.9889 14.8839 73.2638V82.8347C14.8839 83.3522 14.7917 83.4408 14.7882 83.4444H14.7244C14.5861 83.4444 14.4869 83.4444 14.4869 82.8347V73.2638C14.4869 72.9883 14.3774 72.7241 14.1827 72.5293C13.9879 72.3346 13.7237 72.2251 13.4482 72.2251H11.4915C11.2161 72.2251 10.9519 72.3346 10.7571 72.5293C10.5623 72.7241 10.4529 72.9883 10.4529 73.2638V73.3949C10.4174 73.3524 10.3785 73.3134 10.3395 73.2744C9.97138 72.8968 9.52989 72.5985 9.04219 72.3979C8.55448 72.1974 8.03088 72.0987 7.50363 72.1082H6.99319C5.93864 72.1072 4.92681 72.5247 4.1798 73.2691C3.4328 74.0134 3.01167 75.0238 3.00885 76.0783V77.8791C3.00569 78.4194 3.12194 78.9538 3.34928 79.444C3.57662 79.9343 3.90944 80.3682 4.32397 80.7149C4.79994 81.1406 5.36217 81.4586 5.97229 81.6472H4.04393C3.76941 81.6472 3.50613 81.7562 3.31202 81.9503C3.1179 82.1445 3.00885 82.4077 3.00885 82.6822V83.5259C3.00978 84.0499 3.11413 84.5685 3.31593 85.052C3.51773 85.5356 3.813 85.9745 4.18482 86.3437C4.55663 86.7129 4.99767 87.005 5.48263 87.2034C5.9676 87.4017 6.48695 87.5024 7.01091 87.4996H7.52136C8.04491 87.5074 8.56455 87.4083 9.04849 87.2084C9.53244 87.0085 9.97051 86.7119 10.3359 86.3369C10.6167 86.0679 10.8556 85.7585 11.0449 85.4188C11.216 85.6896 11.4183 85.9394 11.6475 86.1632C12.0115 86.5349 12.4469 86.8292 12.9275 87.0284C13.4081 87.2276 13.9241 87.3276 14.4443 87.3224H14.9548C15.4772 87.3296 15.9956 87.2302 16.4783 87.0303C16.961 86.8304 17.3979 86.5341 17.7622 86.1597C18.0449 85.8764 18.2839 85.5527 18.4712 85.199C18.6583 85.5528 18.8972 85.8766 19.1801 86.1597C19.545 86.5344 19.9825 86.8308 20.4658 87.0307C20.9491 87.2306 21.4682 87.3299 21.9912 87.3224H22.5016C23.0108 87.3308 23.5165 87.2365 23.9884 87.0453C24.4604 86.8541 24.8891 86.5697 25.2488 86.2093C25.2704 86.4176 25.353 86.6149 25.4863 86.7765C25.5854 86.8901 25.7081 86.9806 25.8459 87.0419C25.9837 87.1031 26.1332 87.1335 26.2839 87.1309H28.3115C28.5567 87.1316 28.7941 87.045 28.9812 86.8865C29.1683 86.728 29.2928 86.508 29.3324 86.266L29.538 85.0182L29.7471 86.2802C29.7853 86.5231 29.9093 86.7443 30.0966 86.9037C30.2839 87.063 30.5221 87.1499 30.768 87.1487H32.7957C32.9679 87.1475 33.1372 87.1037 33.2884 87.0211C33.4383 87.1037 33.6064 87.1475 33.7776 87.1487H35.8158C36.0907 87.1477 36.3539 87.0379 36.5479 86.8432C36.7419 86.6485 36.8509 86.3849 36.8509 86.11V82.4235C36.9723 82.4286 37.0921 82.4537 37.2054 82.4979C37.3259 82.5653 37.3401 82.8772 37.3401 83.0048V86.1207C37.3401 86.3961 37.4495 86.6603 37.6443 86.8551C37.8391 87.0499 38.1032 87.1593 38.3787 87.1593H40.3354C40.6109 87.1593 40.875 87.0499 41.0698 86.8551C41.2646 86.6603 41.374 86.3961 41.374 86.1207V82.5369C41.3643 81.9044 41.1491 81.2922 40.7608 80.7929C40.6934 80.7184 40.6261 80.6298 40.5516 80.5483ZM37.2018 76.7235V77.9287C37.212 78.1352 37.1905 78.342 37.138 78.5419H36.8651V76.0606C36.9637 76.0621 37.0621 76.0716 37.1593 76.0889C37.1946 76.2985 37.2088 76.5111 37.2018 76.7235ZM7.20587 77.8436C7.10918 77.4352 7.07217 77.0149 7.09599 76.5958C7.08918 76.3803 7.10943 76.1648 7.15625 75.9542H7.2555C7.3023 75.9509 7.34929 75.957 7.39375 75.972C7.47842 76.2871 7.51193 76.6139 7.493 76.9397C7.493 77.2142 7.60205 77.4775 7.79617 77.6716C7.99028 77.8657 8.25356 77.9748 8.52808 77.9748H10.4706V79.3466C10.3891 79.2615 10.3005 79.18 10.2118 79.0985C9.42682 78.3832 8.40261 77.9874 7.34057 77.9889C7.31358 77.9934 7.28604 77.9934 7.25905 77.9889C7.23761 77.9419 7.21983 77.8934 7.20587 77.8436ZM7.47173 82.9516C7.47867 83.1893 7.45965 83.427 7.41501 83.6606H7.31576C7.28988 83.6641 7.26365 83.6641 7.23777 83.6606C7.09418 83.3608 7.03885 83.0264 7.07826 82.6964C7.07805 82.4197 6.96997 82.1539 6.77695 81.9556C6.70137 81.881 6.61541 81.8177 6.52173 81.7677C6.76547 81.8077 7.01205 81.8278 7.25905 81.8279C7.27677 81.8279 7.45401 82.0406 7.45401 82.9516H7.47173Z" fill="#070036"/>
<path d="M79.4519 82.7212L81.7666 73.806C81.8046 73.6522 81.8078 73.4919 81.7759 73.3367C81.744 73.1816 81.6779 73.0355 81.5823 72.9092C81.4852 72.7846 81.3611 72.6837 81.2192 72.6143C81.0773 72.5449 80.9214 72.5087 80.7634 72.5086H78.7252C78.4903 72.5129 78.2634 72.5949 78.08 72.7418C77.8966 72.8886 77.767 73.0921 77.7114 73.3204L77.4952 74.3094L77.2896 73.331C77.2401 73.0987 77.1125 72.8903 76.928 72.7406C76.7435 72.591 76.5133 72.5091 76.2758 72.5086H74.2375C74.0886 72.5079 73.9412 72.5395 73.8057 72.6012C73.6702 72.663 73.5497 72.7535 73.4526 72.8665C73.3555 72.9794 73.2841 73.1121 73.2434 73.2554C73.2026 73.3986 73.1935 73.549 73.2166 73.6961C73.1882 73.6642 73.1599 73.6288 73.128 73.5969C72.7633 73.2217 72.3259 72.9247 71.8426 72.7242C71.3593 72.5237 70.8402 72.4238 70.317 72.4306H69.2394H66.8466C66.5727 72.4334 66.3109 72.544 66.1178 72.7384C65.9248 72.9327 65.816 73.1953 65.8151 73.4693V73.806C65.7477 73.728 65.6804 73.6536 65.606 73.5792C65.2413 73.2039 64.8039 72.907 64.3206 72.7065C63.8373 72.506 63.3182 72.4061 62.7949 72.4129H61.7315H59.3352C59.0613 72.4157 58.7995 72.5263 58.6064 72.7207C58.4134 72.915 58.3046 73.1776 58.3037 73.4515V79.9775L57.1694 73.3346C57.1286 73.0947 57.0046 72.877 56.8192 72.7194C56.6338 72.5619 56.3988 72.4747 56.1556 72.4732L54.0606 72.4519C53.8152 72.4506 53.5771 72.5359 53.3884 72.6928C53.1997 72.8497 53.0725 73.0682 53.0291 73.3097L52.4513 76.5107V76.4114C52.4513 75.3563 52.0324 74.3443 51.2866 73.5978C50.5408 72.8514 49.5292 72.4316 48.474 72.4306H47.4106H45.0143C44.7407 72.4334 44.4793 72.5441 44.2868 72.7386C44.0943 72.9331 43.9863 73.1956 43.9863 73.4693V86.2305C43.9863 86.505 44.0954 86.7683 44.2895 86.9624C44.4836 87.1565 44.7469 87.2656 45.0214 87.2656H48.864C49.5745 87.2841 50.2748 87.093 50.8774 86.7161C50.9122 86.7798 50.9525 86.8403 50.9979 86.8969C51.0969 87.0097 51.2191 87.0997 51.3562 87.1609C51.4932 87.2221 51.6419 87.253 51.7919 87.2514H53.8231C54.0678 87.2522 54.3048 87.166 54.4918 87.0082C54.6788 86.8504 54.8036 86.6313 54.844 86.39L55.0602 85.121L55.2694 86.3829C55.3075 86.6258 55.4315 86.8471 55.6188 87.0064C55.8061 87.1657 56.0444 87.2527 56.2903 87.2514H58.3179C58.4969 87.2517 58.6728 87.2052 58.8283 87.1167C58.9837 87.2057 59.1597 87.2522 59.3388 87.2514H63.1778C63.6721 87.2735 64.1652 87.1873 64.6226 86.9987C65.0801 86.8101 65.4907 86.5237 65.8257 86.1596V86.2163C65.8267 86.4912 65.9365 86.7544 66.1312 86.9484C66.3259 87.1425 66.5895 87.2514 66.8643 87.2514H70.7034C71.2028 87.2738 71.701 87.1856 72.1624 86.9932C72.6238 86.8008 73.037 86.5089 73.3726 86.1383C74.0076 85.3971 74.3415 84.4446 74.3084 83.4691V78.1519L75.3718 82.5794L75.3896 83.2883V86.2021C75.3896 86.4767 75.4986 86.7399 75.6927 86.934C75.8868 87.1281 76.1501 87.2372 76.4246 87.2372H78.4558C78.7306 87.2372 78.9943 87.1283 79.189 86.9342C79.3836 86.7402 79.4935 86.477 79.4944 86.2021C79.4944 86.0462 79.4944 85.6279 79.4625 84.9296C79.4306 84.2312 79.4342 83.7421 79.4342 83.4018C79.4295 83.1545 79.4378 82.9072 79.459 82.6609L79.4519 82.7212ZM69.8455 83.6003V76.2271C69.973 76.2269 70.1001 76.24 70.2248 76.2661C70.2519 76.4622 70.2637 76.6601 70.2603 76.8581V82.987C70.2659 83.1904 70.248 83.3938 70.2071 83.5932H70.0937L69.8455 83.6003ZM62.7347 76.8652V82.9941C62.7403 83.1975 62.7224 83.4009 62.6815 83.6003H62.5681H62.3199V76.2271C62.4474 76.2269 62.5745 76.24 62.6992 76.2661C62.7267 76.4646 62.7385 76.6649 62.7347 76.8652ZM48.4209 76.8652V82.9941C48.426 83.1977 48.407 83.4012 48.3641 83.6003H48.2542H48.0026V76.2271C48.13 76.2269 48.2571 76.24 48.3819 76.2661C48.4111 76.4644 48.4241 76.6648 48.4209 76.8652Z" fill="#070036"/>
<path d="M10.4705 76.9326H8.51028C8.53197 76.4722 8.47319 76.0115 8.33658 75.5713C8.24584 75.36 8.09087 75.1826 7.89363 75.0642C7.69639 74.9459 7.4669 74.8926 7.2377 74.912C7.03963 74.892 6.83999 74.9294 6.66269 75.02C6.48539 75.1105 6.33796 75.2503 6.23807 75.4225C6.08447 75.7936 6.01778 76.1949 6.04311 76.5958C6.02233 77.1216 6.07482 77.6477 6.19908 78.1591C6.2548 78.4121 6.39811 78.6372 6.60371 78.7948C6.80931 78.9524 7.06399 79.0323 7.32278 79.0204C8.13181 79.0189 8.91164 79.3227 9.50636 79.8712C9.81062 80.1215 10.0551 80.4367 10.2219 80.7936C10.3887 81.1505 10.4737 81.5402 10.4705 81.9342V83.54C10.4677 84.3201 10.1556 85.0671 9.60276 85.6173C9.04986 86.1676 8.30131 86.476 7.52128 86.4751H7.01083C6.23019 86.476 5.4811 86.1671 4.92811 85.6161C4.37512 85.0651 4.06345 84.3171 4.06157 83.5365V82.6928H6.02184C6.02184 84.0398 6.43304 84.7098 7.29796 84.7098C7.50264 84.7306 7.70888 84.6898 7.89016 84.5925C8.07145 84.4952 8.21951 84.346 8.31531 84.1639C8.4586 83.7767 8.51899 83.3636 8.49255 82.9516C8.49255 81.5171 8.07545 80.7999 7.24124 80.7999C6.42228 80.8059 5.63161 80.5006 5.0293 79.9456C4.72459 79.6955 4.47958 79.3804 4.31216 79.0235C4.14474 78.6666 4.05913 78.2768 4.06157 77.8826V76.0818C4.06439 75.3021 4.37659 74.5554 4.92958 74.0058C5.48257 73.4561 6.23113 73.1484 7.01083 73.1503H7.52128C8.30192 73.1493 9.05101 73.4583 9.604 74.0093C10.157 74.5603 10.4687 75.3083 10.4705 76.0889V76.9326Z" fill="white"/>
<path d="M17.8792 83.3628C17.8773 84.1412 17.567 84.8872 17.0162 85.4374C16.4654 85.9875 15.719 86.2969 14.9405 86.2978H14.4301C14.0452 86.302 13.6635 86.2278 13.3082 86.0797C12.9529 85.9316 12.6315 85.7128 12.3635 85.4365C12.0832 85.1695 11.8611 84.8475 11.711 84.4907C11.5609 84.1338 11.4862 83.7498 11.4915 83.3628V73.2672H13.4482V82.8381C13.4482 83.9323 13.8736 84.4805 14.7243 84.4829C15.5231 84.4829 15.9213 83.9346 15.9189 82.8381V73.2672H17.8792V83.3628Z" fill="white"/>
<path d="M25.4434 80.7148V83.3699C25.4418 83.7554 25.364 84.1368 25.2143 84.4921C25.0647 84.8474 24.8461 85.1696 24.5713 85.44C24.3038 85.7167 23.9824 85.9356 23.627 86.0831C23.2715 86.2307 22.8896 86.3038 22.5047 86.2979H21.9943C21.2158 86.2969 20.4694 85.9875 19.9187 85.4374C19.3679 84.8873 19.0575 84.1413 19.0557 83.3628V76.0853C19.0557 75.6996 19.1317 75.3177 19.2794 74.9613C19.4271 74.605 19.6437 74.2813 19.9166 74.0087C20.1895 73.7361 20.5135 73.52 20.87 73.3727C21.2265 73.2254 21.6086 73.1498 21.9943 73.1503H22.5047C23.2838 73.1512 24.0307 73.4611 24.5816 74.012C25.1325 74.5629 25.4424 75.3098 25.4434 76.0889V78.1059H23.4831V76.9396C23.4831 75.5879 23.0554 74.912 22.1999 74.912C21.4082 74.912 21.0124 75.4591 21.0124 76.5533V82.8346C21.0124 83.9288 21.4378 84.4758 22.2885 84.4758C22.4908 84.4977 22.6951 84.4596 22.876 84.3663C23.0568 84.2731 23.2063 84.1287 23.3059 83.9512C23.4467 83.567 23.507 83.158 23.4831 82.7495V82.5758H22.1325V80.7148H25.4434Z" fill="white"/>
<path d="M32.8095 86.1206H30.7819L30.3069 83.2209H28.8074L28.3147 86.1206H26.2871L28.538 73.3842L30.6366 73.4019L32.8095 86.1206ZM29.9737 81.1827L29.5625 78.0881L29.1832 81.1827H29.9737Z" fill="white"/>
<path d="M40.3357 86.1206H38.3789V83.0048C38.3789 82.2958 38.1556 81.8421 37.7161 81.5868C37.2243 81.3826 36.69 81.3022 36.1599 81.3529H35.8302V86.1135H33.792V73.3523L37.2588 73.3311C38.0388 73.3339 38.7861 73.6452 39.3374 74.1971C39.8886 74.7491 40.1991 75.4967 40.201 76.2768V78.4745C40.1937 78.9109 40.0714 79.3376 39.8465 79.7117C39.6726 80.1098 39.3585 80.4302 38.9638 80.612C39.348 80.798 39.6786 81.0785 39.9245 81.4273C40.1809 81.7495 40.3252 82.1465 40.3357 82.5581V86.1206ZM38.2407 77.9286V76.7234C38.2407 76.0782 38.1556 75.66 37.989 75.4437C37.794 75.1672 37.3651 75.0361 36.7058 75.0503H35.8302V79.577L37.0532 79.5947C37.2457 79.6172 37.4406 79.5829 37.6138 79.496C37.787 79.409 37.931 79.2733 38.028 79.1055C38.195 78.7368 38.2681 78.3325 38.2407 77.9286Z" fill="white"/>
<path d="M58.3043 86.2624H56.2766L55.8016 83.3628H54.3022L53.8095 86.2624H51.7783L54.0328 73.526H56.1313L58.3043 86.2624ZM55.4684 81.3245L55.0608 78.2264L54.6496 81.3245H55.4684Z" fill="white"/>
<path d="M65.734 83.5153C65.7645 84.2372 65.5229 84.9444 65.057 85.4968C64.8175 85.7561 64.5236 85.9593 64.1963 86.0917C63.8691 86.224 63.5165 86.2824 63.1641 86.2625H59.3145V73.5012L62.7812 73.48C63.5613 73.4828 64.3086 73.7942 64.8598 74.3461C65.4111 74.898 65.7215 75.6456 65.7234 76.4257L65.734 83.5153ZM63.7738 82.9871V76.8652C63.8162 76.426 63.7339 75.9837 63.5363 75.5891C63.3236 75.3304 62.8982 75.1992 62.2531 75.1992H61.2854V84.6248H62.5686C62.7653 84.6449 62.9637 84.6098 63.1415 84.5233C63.3193 84.4369 63.4695 84.3027 63.5753 84.1356C63.7279 83.7728 63.7958 83.38 63.7738 82.9871Z" fill="white"/>
<path d="M51.4158 83.5153C51.4462 84.2372 51.2046 84.9444 50.7387 85.4968C50.4998 85.7559 50.2065 85.9589 49.8798 86.0913C49.5532 86.2236 49.2013 86.2821 48.8494 86.2625H45.0068V73.5012L48.4736 73.48C49.2543 73.4809 50.0026 73.7917 50.5543 74.344C51.1059 74.8963 51.4158 75.6451 51.4158 76.4257V83.5153ZM49.4555 82.9871V76.8652C49.4999 76.4259 49.4175 75.9831 49.218 75.5891C49.0089 75.3304 48.58 75.1992 47.9348 75.1992H46.9671V84.6248H48.2503C48.447 84.6449 48.6454 84.6098 48.8232 84.5233C49.0011 84.4369 49.1513 84.3027 49.257 84.1356C49.4097 83.7728 49.4776 83.38 49.4555 82.9871Z" fill="white"/>
<path d="M73.256 83.5153C73.2877 84.2368 73.0474 84.944 72.5825 85.4968C72.343 85.7561 72.0491 85.9593 71.7218 86.0917C71.3945 86.224 71.042 86.2824 70.6896 86.2625H66.8506V73.5012L70.3174 73.48C71.0974 73.4819 71.8448 73.793 72.3957 74.3453C72.9466 74.8975 73.256 75.6457 73.256 76.4257V83.5153ZM71.2993 82.9871V76.8652C71.3417 76.426 71.2594 75.9837 71.0618 75.5891C70.8491 75.3304 70.4202 75.1992 69.7786 75.1992H68.8073V84.6248H70.0941C70.2907 84.6449 70.4891 84.6098 70.667 84.5233C70.8448 84.4369 70.995 84.3027 71.1008 84.1356C71.2534 83.7728 71.3213 83.38 71.2993 82.9871Z" fill="white"/>
<path d="M80.764 73.5437L78.4563 82.4624C78.4032 82.7927 78.3842 83.1277 78.3996 83.462C78.3996 83.8165 78.3996 84.334 78.428 85.0182C78.4563 85.7023 78.4563 86.1206 78.4563 86.2624H76.4181V83.3237L76.4004 82.5014L74.2451 73.5437H76.2834L77.478 79.2154L78.7328 73.5437H80.764Z" fill="white"/>
<path d="M40.7998 7.03308C33.0509 7.03308 26.7695 13.8639 26.7695 22.2756C26.7695 30.6874 33.0509 42.0732 40.7998 42.0732C48.5487 42.0732 54.8265 30.7016 54.8265 22.2756C54.8265 13.8497 48.5451 7.03308 40.7998 7.03308Z" fill="#070036"/>
<path d="M65.0211 70.956V57.9999C65.0211 57.9573 65.0211 57.9112 65.0211 57.8652C65.0211 50.0277 54.1457 43.686 40.7322 43.686C27.3188 43.686 16.4434 50.0418 16.4434 57.8652V70.956H65.0211Z" fill="#070036"/>
<path d="M44.7343 46.9437C43.8375 45.6959 42.4586 43.6896 42.4586 43.6896H39.2683C39.2683 43.6896 37.4037 46.1709 36.9287 46.9047L39.0733 50.7295H42.6535L44.7343 46.9437Z" fill="#FF0079"/>
<path d="M46.7979 70.9419L42.3456 51.7753H40.9915H40.8249H39.4708L35.0186 70.9419L40.91 70.9242L46.7979 70.9419Z" fill="#FF0079"/>
<path d="M61.6467 62.4131H52.4268V64.1855H61.6467V62.4131Z" fill="#FF0079"/>
<path d="M55.3613 58.3721H53.5889V63.395H55.3613V58.3721Z" fill="#FF0079"/>
<path d="M55.1565 57.7482H53.7314V58.0707H55.1565V57.7482Z" fill="#FF0079"/>
<path d="M54.8583 56.4402H54.043V57.8652H54.8583V56.4402Z" fill="#FF0079"/>
<path d="M55.8332 58.6982H55.1172V59.035H55.8332V58.6982Z" fill="#FF0079"/>
<path d="M55.9859 58.6982H55.752V61.924H55.9859V58.6982Z" fill="#FF0079"/>
<path d="M55.8613 62.0693C55.9885 62.0693 56.0917 61.9709 56.0917 61.8495C56.0917 61.7282 55.9885 61.6298 55.8613 61.6298C55.734 61.6298 55.6309 61.7282 55.6309 61.8495C55.6309 61.9709 55.734 62.0693 55.8613 62.0693Z" fill="#FF0079"/>
<path d="M29.5827 33.3914C31.4926 32.7694 32.317 30.0423 31.4239 27.3003C30.5309 24.5584 28.2587 22.8398 26.3488 23.4618C24.4389 24.0839 23.6146 26.8109 24.5076 29.5529C25.4006 32.2949 27.6729 34.0134 29.5827 33.3914Z" fill="#070036"/>
<path d="M56.6134 29.573C57.5064 26.831 56.6821 24.1039 54.7722 23.4819C52.8623 22.8599 50.5901 24.5784 49.6971 27.3204C48.804 30.0623 49.6284 32.7894 51.5382 33.4115C53.4481 34.0335 55.7203 32.3149 56.6134 29.573Z" fill="#070036"/>
<path d="M26.3474 19.9147C26.4254 20.053 50.8064 15.0088 52.8163 13.3994C54.8262 11.7901 49.5161 7.37329 45.0178 6.39848C40.5195 5.42366 34.8797 6.0759 31.8241 8.65295C28.7685 11.23 25.4683 18.3763 26.3474 19.9147Z" fill="white"/>
<path d="M52.1822 12.6373C52.1822 12.6373 49.8816 16.3345 50.828 18.0183C51.7745 19.7021 54.7734 23.4702 54.7734 23.4702C55.4346 22.5122 55.8794 21.4219 56.0771 20.2748C56.2748 19.1277 56.2207 17.9513 55.9184 16.8273C54.8939 12.967 52.1822 12.6373 52.1822 12.6373Z" fill="white"/>
<path d="M15.2743 70.9525L15.1892 57.4681L7.23828 71.073L15.2743 70.9525Z" fill="#070036"/>
<path d="M66.2083 70.91L66.1729 57.4681L74.0104 70.9419L66.2083 70.91Z" fill="#070036"/>
</svg>
