<svg width="69" height="47" viewBox="0 0 69 47" fill="none" xmlns="http://www.w3.org/2000/svg">
<g opacity="0.4">
<path d="M4.59763 35.66C5.48563 35.66 6.26163 35.832 6.92563 36.176C7.59763 36.512 8.11363 37 8.47363 37.64C8.84163 38.272 9.02563 39.012 9.02563 39.86C9.02563 40.708 8.84163 41.444 8.47363 42.068C8.11363 42.692 7.59763 43.172 6.92563 43.508C6.26163 43.836 5.48563 44 4.59763 44H1.87363V35.66H4.59763ZM4.59763 42.884C5.57363 42.884 6.32163 42.62 6.84163 42.092C7.36163 41.564 7.62163 40.82 7.62163 39.86C7.62163 38.892 7.36163 38.136 6.84163 37.592C6.32163 37.048 5.57363 36.776 4.59763 36.776H3.24163V42.884H4.59763ZM9.92545 40.664C9.92545 40 10.0614 39.412 10.3334 38.9C10.6134 38.388 10.9894 37.992 11.4614 37.712C11.9414 37.424 12.4694 37.28 13.0454 37.28C13.5654 37.28 14.0174 37.384 14.4014 37.592C14.7934 37.792 15.1054 38.044 15.3374 38.348V37.388H16.7174V44H15.3374V43.016C15.1054 43.328 14.7894 43.588 14.3894 43.796C13.9894 44.004 13.5334 44.108 13.0214 44.108C12.4534 44.108 11.9334 43.964 11.4614 43.676C10.9894 43.38 10.6134 42.972 10.3334 42.452C10.0614 41.924 9.92545 41.328 9.92545 40.664ZM15.3374 40.688C15.3374 40.232 15.2414 39.836 15.0494 39.5C14.8654 39.164 14.6214 38.908 14.3174 38.732C14.0134 38.556 13.6854 38.468 13.3334 38.468C12.9814 38.468 12.6534 38.556 12.3494 38.732C12.0454 38.9 11.7974 39.152 11.6054 39.488C11.4214 39.816 11.3294 40.208 11.3294 40.664C11.3294 41.12 11.4214 41.52 11.6054 41.864C11.7974 42.208 12.0454 42.472 12.3494 42.656C12.6614 42.832 12.9894 42.92 13.3334 42.92C13.6854 42.92 14.0134 42.832 14.3174 42.656C14.6214 42.48 14.8654 42.224 15.0494 41.888C15.2414 41.544 15.3374 41.144 15.3374 40.688ZM20.9143 44.108C20.3943 44.108 19.9263 44.016 19.5103 43.832C19.1023 43.64 18.7783 43.384 18.5383 43.064C18.2983 42.736 18.1703 42.372 18.1543 41.972H19.5703C19.5943 42.252 19.7263 42.488 19.9663 42.68C20.2143 42.864 20.5223 42.956 20.8903 42.956C21.2743 42.956 21.5703 42.884 21.7783 42.74C21.9943 42.588 22.1023 42.396 22.1023 42.164C22.1023 41.916 21.9823 41.732 21.7423 41.612C21.5103 41.492 21.1383 41.36 20.6263 41.216C20.1303 41.08 19.7263 40.948 19.4143 40.82C19.1023 40.692 18.8303 40.496 18.5983 40.232C18.3743 39.968 18.2623 39.62 18.2623 39.188C18.2623 38.836 18.3663 38.516 18.5743 38.228C18.7823 37.932 19.0783 37.7 19.4623 37.532C19.8543 37.364 20.3023 37.28 20.8063 37.28C21.5583 37.28 22.1623 37.472 22.6183 37.856C23.0823 38.232 23.3303 38.748 23.3623 39.404H21.9943C21.9703 39.108 21.8503 38.872 21.6343 38.696C21.4183 38.52 21.1263 38.432 20.7583 38.432C20.3983 38.432 20.1223 38.5 19.9303 38.636C19.7383 38.772 19.6423 38.952 19.6423 39.176C19.6423 39.352 19.7063 39.5 19.8343 39.62C19.9623 39.74 20.1183 39.836 20.3023 39.908C20.4863 39.972 20.7583 40.056 21.1183 40.16C21.5983 40.288 21.9903 40.42 22.2943 40.556C22.6063 40.684 22.8743 40.876 23.0983 41.132C23.3223 41.388 23.4383 41.728 23.4463 42.152C23.4463 42.528 23.3423 42.864 23.1343 43.16C22.9263 43.456 22.6303 43.688 22.2463 43.856C21.8703 44.024 21.4263 44.108 20.9143 44.108ZM28.3444 37.28C28.8484 37.28 29.2964 37.388 29.6884 37.604C30.0884 37.82 30.4004 38.14 30.6244 38.564C30.8564 38.988 30.9724 39.5 30.9724 40.1V44H29.6164V40.304C29.6164 39.712 29.4684 39.26 29.1724 38.948C28.8764 38.628 28.4724 38.468 27.9604 38.468C27.4484 38.468 27.0404 38.628 26.7364 38.948C26.4404 39.26 26.2924 39.712 26.2924 40.304V44H24.9244V35.12H26.2924V38.156C26.5244 37.876 26.8164 37.66 27.1684 37.508C27.5284 37.356 27.9204 37.28 28.3444 37.28ZM34.0854 38.372C34.3174 38.052 34.6334 37.792 35.0334 37.592C35.4414 37.384 35.8934 37.28 36.3894 37.28C36.9734 37.28 37.5014 37.42 37.9734 37.7C38.4454 37.98 38.8174 38.38 39.0894 38.9C39.3614 39.412 39.4974 40 39.4974 40.664C39.4974 41.328 39.3614 41.924 39.0894 42.452C38.8174 42.972 38.4414 43.38 37.9614 43.676C37.4894 43.964 36.9654 44.108 36.3894 44.108C35.8774 44.108 35.4214 44.008 35.0214 43.808C34.6294 43.608 34.3174 43.352 34.0854 43.04V44H32.7174V35.12H34.0854V38.372ZM38.1054 40.664C38.1054 40.208 38.0094 39.816 37.8174 39.488C37.6334 39.152 37.3854 38.9 37.0734 38.732C36.7694 38.556 36.4414 38.468 36.0894 38.468C35.7454 38.468 35.4174 38.556 35.1054 38.732C34.8014 38.908 34.5534 39.164 34.3614 39.5C34.1774 39.836 34.0854 40.232 34.0854 40.688C34.0854 41.144 34.1774 41.544 34.3614 41.888C34.5534 42.224 34.8014 42.48 35.1054 42.656C35.4174 42.832 35.7454 42.92 36.0894 42.92C36.4414 42.92 36.7694 42.832 37.0734 42.656C37.3854 42.472 37.6334 42.208 37.8174 41.864C38.0094 41.52 38.1054 41.12 38.1054 40.664ZM43.7182 44.108C43.0942 44.108 42.5302 43.968 42.0262 43.688C41.5222 43.4 41.1262 43 40.8382 42.488C40.5502 41.968 40.4062 41.368 40.4062 40.688C40.4062 40.016 40.5542 39.42 40.8502 38.9C41.1462 38.38 41.5502 37.98 42.0622 37.7C42.5742 37.42 43.1462 37.28 43.7782 37.28C44.4102 37.28 44.9822 37.42 45.4942 37.7C46.0062 37.98 46.4102 38.38 46.7062 38.9C47.0022 39.42 47.1502 40.016 47.1502 40.688C47.1502 41.36 46.9982 41.956 46.6942 42.476C46.3902 42.996 45.9742 43.4 45.4462 43.688C44.9262 43.968 44.3502 44.108 43.7182 44.108ZM43.7182 42.92C44.0702 42.92 44.3982 42.836 44.7022 42.668C45.0142 42.5 45.2662 42.248 45.4582 41.912C45.6502 41.576 45.7462 41.168 45.7462 40.688C45.7462 40.208 45.6542 39.804 45.4702 39.476C45.2862 39.14 45.0422 38.888 44.7382 38.72C44.4342 38.552 44.1062 38.468 43.7542 38.468C43.4022 38.468 43.0742 38.552 42.7702 38.72C42.4742 38.888 42.2382 39.14 42.0622 39.476C41.8862 39.804 41.7982 40.208 41.7982 40.688C41.7982 41.4 41.9782 41.952 42.3382 42.344C42.7062 42.728 43.1662 42.92 43.7182 42.92ZM48.0465 40.664C48.0465 40 48.1825 39.412 48.4545 38.9C48.7345 38.388 49.1105 37.992 49.5825 37.712C50.0625 37.424 50.5905 37.28 51.1665 37.28C51.6865 37.28 52.1385 37.384 52.5225 37.592C52.9145 37.792 53.2265 38.044 53.4585 38.348V37.388H54.8385V44H53.4585V43.016C53.2265 43.328 52.9105 43.588 52.5105 43.796C52.1105 44.004 51.6545 44.108 51.1425 44.108C50.5745 44.108 50.0545 43.964 49.5825 43.676C49.1105 43.38 48.7345 42.972 48.4545 42.452C48.1825 41.924 48.0465 41.328 48.0465 40.664ZM53.4585 40.688C53.4585 40.232 53.3625 39.836 53.1705 39.5C52.9865 39.164 52.7425 38.908 52.4385 38.732C52.1345 38.556 51.8065 38.468 51.4545 38.468C51.1025 38.468 50.7745 38.556 50.4705 38.732C50.1665 38.9 49.9185 39.152 49.7265 39.488C49.5425 39.816 49.4505 40.208 49.4505 40.664C49.4505 41.12 49.5425 41.52 49.7265 41.864C49.9185 42.208 50.1665 42.472 50.4705 42.656C50.7825 42.832 51.1105 42.92 51.4545 42.92C51.8065 42.92 52.1345 42.832 52.4385 42.656C52.7425 42.48 52.9865 42.224 53.1705 41.888C53.3625 41.544 53.4585 41.144 53.4585 40.688ZM58.0034 38.348C58.2034 38.012 58.4674 37.752 58.7954 37.568C59.1314 37.376 59.5274 37.28 59.9834 37.28V38.696H59.6354C59.0994 38.696 58.6914 38.832 58.4114 39.104C58.1394 39.376 58.0034 39.848 58.0034 40.52V44H56.6354V37.388H58.0034V38.348ZM60.7848 40.664C60.7848 40 60.9208 39.412 61.1928 38.9C61.4728 38.388 61.8488 37.992 62.3208 37.712C62.8008 37.424 63.3328 37.28 63.9168 37.28C64.3488 37.28 64.7728 37.376 65.1888 37.568C65.6128 37.752 65.9488 38 66.1968 38.312V35.12H67.5768V44H66.1968V43.004C65.9728 43.324 65.6608 43.588 65.2608 43.796C64.8688 44.004 64.4168 44.108 63.9048 44.108C63.3288 44.108 62.8008 43.964 62.3208 43.676C61.8488 43.38 61.4728 42.972 61.1928 42.452C60.9208 41.924 60.7848 41.328 60.7848 40.664ZM66.1968 40.688C66.1968 40.232 66.1008 39.836 65.9088 39.5C65.7248 39.164 65.4808 38.908 65.1768 38.732C64.8728 38.556 64.5448 38.468 64.1928 38.468C63.8408 38.468 63.5128 38.556 63.2088 38.732C62.9048 38.9 62.6568 39.152 62.4648 39.488C62.2808 39.816 62.1888 40.208 62.1888 40.664C62.1888 41.12 62.2808 41.52 62.4648 41.864C62.6568 42.208 62.9048 42.472 63.2088 42.656C63.5208 42.832 63.8488 42.92 64.1928 42.92C64.5448 42.92 64.8728 42.832 65.1768 42.656C65.4808 42.48 65.7248 42.224 65.9088 41.888C66.1008 41.544 66.1968 41.144 66.1968 40.688Z" fill="white"/>
<path opacity="0.98" d="M24.0674 0.8H24.0389L24.0116 0.807933C23.2655 1.02458 22.7624 1.51059 22.5181 2.24975L22.508 2.28031V2.3125V2.32294V2.33337V2.34381V2.35425V2.36469V2.37512V2.38556V2.396V2.40643V2.41687V2.42731V2.43774V2.44818V2.45862V2.46906V2.47949V2.48993V2.50037V2.5108V2.52124V2.53168V2.54211V2.55255V2.56299V2.57343V2.58386V2.5943V2.60474V2.61517V2.62561V2.63605V2.64648V2.65692V2.66736V2.6778V2.68823V2.69867V2.70911V2.71954V2.72998V2.74042V2.75085V2.76129V2.77173V2.78217V2.7926V2.80304V2.81348V2.82391V2.83435V2.84479V2.85522V2.86566V2.8761V2.88654V2.89697V2.90741V2.91785V2.92828V2.93872V2.94916V2.95959V2.97003V2.98047V2.99091V3.00134V3.01178V3.02222V3.03265V3.04309V3.05353V3.06396V3.0744V3.08484V3.09528V3.10571V3.11615V3.12659V3.13702V3.14746V3.1579V3.16833V3.17877V3.18921V3.19965V3.21008V3.22052V3.23096V3.24139V3.25183V3.26227V3.27271V3.28314V3.29358V3.30402V3.31445V3.32489V3.33533V3.34576V3.3562V3.36664V3.37708V3.38751V3.39795V3.40839V3.41882V3.42926V3.4397V3.45013V3.46057V3.47101V3.48145V3.49188V3.50232V3.51276V3.52319V3.53363V3.54407V3.5545V3.56494V3.57538V3.58582V3.59625V3.60669V3.61713V3.62756V3.638V3.64844V3.65887V3.66931V3.67975V3.69019V3.70062V3.71106V3.7215V3.73193V3.74237V3.75281V3.76324V3.77368V3.78412V3.79456V3.80499V3.81543V3.82587V3.8363V3.84674V3.85718V3.86761V3.87805V3.88849V3.89893V3.90936V3.9198V3.93024V3.94067V3.95111V3.96155V3.97198V3.98242V3.99286V4.0033V4.01373V4.02417V4.03461V4.04504V4.05548V4.06592V4.07635V4.08679V4.09723V4.10767V4.1181V4.12854V4.13898V4.14941V4.15985V4.17029V4.18073V4.19116V4.2016V4.21204V4.22247V4.23291V4.24335V4.25378V4.26422V4.27466V4.2851V4.29553V4.30597V4.31641V4.32684V4.33728V4.34772V4.35815V4.36859V4.37903V4.38947V4.3999V4.41034V4.42078V4.43121V4.44165V4.45209V4.46252V4.47296V4.4834V4.49384V4.50427V4.51471V4.52515V4.53558V4.54602V4.55646V4.56689V4.57733V4.58777V4.59821V4.60864V4.61908V4.62952V4.63995V4.65039V4.66083V4.67126V4.6817V4.69214V4.70258V4.71301V4.72345V4.73389V4.74432V4.75476V4.7652V4.77563V4.78607V4.79651V4.80695V4.81738V4.82782V4.83826V4.84869V4.85913V4.86957V4.88V4.89044V4.90088V4.91132V4.92175V4.93219V4.94263V4.95306V4.9635V4.97394V4.98438V4.99481V5.00525V5.01569V5.02612V5.03656V5.047V5.05743V5.06787V5.07831V5.08875V5.09918V5.10962V5.12006V5.13049V5.14093V5.15137V5.1618V5.17224V5.18268V5.19312V5.20355V5.21399V5.22443V5.23486V5.2453V5.25574V5.26617V5.27661V5.28705V5.29749V5.30792V5.31836V5.3288V5.33923V5.34967V5.36011V5.37054V5.38098V5.39142V5.40186V5.41229V5.42273V5.43317V5.4436V5.45404V5.46448V5.47491V5.48535V5.49579V5.50623V5.51666V5.5271V5.53754V5.54797V5.55841V5.56885V5.57928V5.58972V5.60016V5.6106V5.62103V5.63147V5.64191V5.65234V5.66278V5.67322V5.68365V5.69409V5.70453V5.71497V5.7254V5.73584V5.74628V5.75671V5.76715V5.77759V5.78802V5.79846V5.8089V5.81934V5.82977V5.84021V5.85065V5.86108V5.87152V5.88196V5.8924V5.90283V5.91327V5.92371V5.93414V5.94458V5.95502V5.96545V5.97589V5.98633V5.99677V6.0072V6.01764V6.02808V6.03851V6.04895V6.05939V6.06982V6.08026V6.0907V6.10114V6.11157V6.12201V6.13245V6.14288V6.15332V6.16376V6.17419V6.18463V6.19507V6.20551V6.21594V6.22638V6.23682V6.24725V6.25769V6.26813V6.27856V6.289V6.29944V6.30988V6.32031V6.33075V6.34119V6.35162V6.36206V6.3725V6.38293V6.39337V6.40381V6.41425V6.42468V6.43512V6.44556V6.45599V6.46643V6.47687V6.4873V6.49774V6.50818V6.51862V6.52905V6.53949V6.54993V6.56036V6.5708V6.58124V6.59167V6.60211V6.61255V6.62299V6.63342V6.64386V6.6543V6.66473V6.67517V6.68561V6.69604V6.70648V6.71692V6.72736V6.73779V6.74823V6.75867V6.7691V6.77954V6.78998V6.80042V6.81085V6.82129V6.83173V6.84216V6.8526V6.86304V6.87347V6.88391V6.89435V6.90479V6.91522V6.92566V6.9361V6.94653V6.95697V6.96741V6.97784V6.98828V6.99872V7.00916V7.01959V7.03003V7.04047V7.0509V7.06134V7.07178V7.08221V7.09265V7.10309V7.11353V7.12396V7.1344V7.14484V7.15527V7.16571V7.17615V7.18658V7.19702V7.20746V7.2179V7.22833V7.23877V7.24921V7.25964V7.27008V7.28052V7.29095V7.30139V7.31183V7.32227V7.3327V7.34314V7.35358V7.36401V7.37445V7.38489V7.39532V7.40576V7.4162V7.42664V7.43707V7.44751V7.45795V7.46838V7.47882V7.48926V7.49969V7.51013V7.52057V7.53101V7.54144V7.55188V7.56232V7.57275V7.58319V7.59363V7.60406V7.6145V7.62494V7.63538V7.64581V7.65625V7.68598L22.5167 7.71442C22.7522 8.4891 23.2753 8.98532 24.065 9.18602L24.0881 9.1919L24.112 9.19217C26.8322 9.22346 29.5525 9.22346 32.2728 9.19217L32.2921 9.19195L32.311 9.18806C32.7252 9.10252 33.0728 8.93264 33.3429 8.67132C33.6131 8.41 33.7947 8.06808 33.8946 7.65652L33.8998 7.63506L33.9002 7.61298C33.9315 5.8762 33.9315 4.13942 33.9002 2.40265L33.8997 2.37946L33.894 2.35698C33.6933 1.56731 33.1971 1.04415 32.4224 0.808647L32.394 0.8H32.3643H32.3481H32.3318H32.3156H32.2994H32.2832H32.267H32.2508H32.2346H32.2184H32.2022H32.186H32.1698H32.1536H32.1374H32.1212H32.105H32.0888H32.0726H32.0564H32.0402H32.024H32.0078H31.9915H31.9753H31.9591H31.9429H31.9267H31.9105H31.8943H31.8781H31.8619H31.8457H31.8295H31.8133H31.7971H31.7809H31.7647H31.7485H31.7323H31.7161H31.6999H31.6837H31.6674H31.6512H31.635H31.6188H31.6026H31.5864H31.5702H31.554H31.5378H31.5216H31.5054H31.4892H31.473H31.4568H31.4406H31.4244H31.4082H31.392H31.3758H31.3596H31.3434H31.3271H31.3109H31.2947H31.2785H31.2623H31.2461H31.2299H31.2137H31.1975H31.1813H31.1651H31.1489H31.1327H31.1165H31.1003H31.0841H31.0679H31.0517H31.0355H31.0193H31.0031H30.9868H30.9706H30.9544H30.9382H30.922H30.9058H30.8896H30.8734H30.8572H30.841H30.8248H30.8086H30.7924H30.7762H30.76H30.7438H30.7276H30.7114H30.6952H30.679H30.6628H30.6465H30.6303H30.6141H30.5979H30.5817H30.5655H30.5493H30.5331H30.5169H30.5007H30.4845H30.4683H30.4521H30.4359H30.4197H30.4035H30.3873H30.3711H30.3549H30.3387H30.3224H30.3062H30.29H30.2738H30.2576H30.2414H30.2252H30.209H30.1928H30.1766H30.1604H30.1442H30.128H30.1118H30.0956H30.0794H30.0632H30.047H30.0308H30.0146H29.9984H29.9821H29.9659H29.9497H29.9335H29.9173H29.9011H29.8849H29.8687H29.8525H29.8363H29.8201H29.8039H29.7877H29.7715H29.7553H29.7391H29.7229H29.7067H29.6905H29.6743H29.6581H29.6418H29.6256H29.6094H29.5932H29.577H29.5608H29.5446H29.5284H29.5122H29.496H29.4798H29.4636H29.4474H29.4312H29.415H29.3988H29.3826H29.3664H29.3502H29.334H29.3177H29.3015H29.2853H29.2691H29.2529H29.2367H29.2205H29.2043H29.1881H29.1719H29.1557H29.1395H29.1233H29.1071H29.0909H29.0747H29.0585H29.0423H29.0261H29.0099H28.9937H28.9774H28.9612H28.945H28.9288H28.9126H28.8964H28.8802H28.864H28.8478H28.8316H28.8154H28.7992H28.783H28.7668H28.7506H28.7344H28.7182H28.702H28.6858H28.6696H28.6534H28.6371H28.6209H28.6047H28.5885H28.5723H28.5561H28.5399H28.5237H28.5075H28.4913H28.4751H28.4589H28.4427H28.4265H28.4103H28.3941H28.3779H28.3617H28.3455H28.3293H28.313H28.2968H28.2806H28.2644H28.2482H28.232H28.2158H28.1996H28.1834H28.1672H28.151H28.1348H28.1186H28.1024H28.0862H28.07H28.0538H28.0376H28.0214H28.0052H27.989H27.9727H27.9565H27.9403H27.9241H27.9079H27.8917H27.8755H27.8593H27.8431H27.8269H27.8107H27.7945H27.7783H27.7621H27.7459H27.7297H27.7135H27.6973H27.6811H27.6649H27.6487H27.6324H27.6162H27.6H27.5838H27.5676H27.5514H27.5352H27.519H27.5028H27.4866H27.4704H27.4542H27.438H27.4218H27.4056H27.3894H27.3732H27.357H27.3408H27.3246H27.3083H27.2921H27.2759H27.2597H27.2435H27.2273H27.2111H27.1949H27.1787H27.1625H27.1463H27.1301H27.1139H27.0977H27.0815H27.0653H27.0491H27.0329H27.0167H27.0005H26.9843H26.968H26.9518H26.9356H26.9194H26.9032H26.887H26.8708H26.8546H26.8384H26.8222H26.806H26.7898H26.7736H26.7574H26.7412H26.725H26.7088H26.6926H26.6764H26.6602H26.644H26.6277H26.6115H26.5953H26.5791H26.5629H26.5467H26.5305H26.5143H26.4981H26.4819H26.4657H26.4495H26.4333H26.4171H26.4009H26.3847H26.3685H26.3523H26.3361H26.3199H26.3036H26.2874H26.2712H26.255H26.2388H26.2226H26.2064H26.1902H26.174H26.1578H26.1416H26.1254H26.1092H26.093H26.0768H26.0606H26.0444H26.0282H26.012H25.9958H25.9796H25.9633H25.9471H25.9309H25.9147H25.8985H25.8823H25.8661H25.8499H25.8337H25.8175H25.8013H25.7851H25.7689H25.7527H25.7365H25.7203H25.7041H25.6879H25.6717H25.6555H25.6393H25.623H25.6068H25.5906H25.5744H25.5582H25.542H25.5258H25.5096H25.4934H25.4772H25.461H25.4448H25.4286H25.4124H25.3962H25.38H25.3638H25.3476H25.3314H25.3152H25.299H25.2827H25.2665H25.2503H25.2341H25.2179H25.2017H25.1855H25.1693H25.1531H25.1369H25.1207H25.1045H25.0883H25.0721H25.0559H25.0397H25.0235H25.0073H24.9911H24.9749H24.9586H24.9424H24.9262H24.91H24.8938H24.8776H24.8614H24.8452H24.829H24.8128H24.7966H24.7804H24.7642H24.748H24.7318H24.7156H24.6994H24.6832H24.667H24.6508H24.6346H24.6183H24.6021H24.5859H24.5697H24.5535H24.5373H24.5211H24.5049H24.4887H24.4725H24.4563H24.4401H24.4239H24.4077H24.3915H24.3753H24.3591H24.3429H24.3267H24.3105H24.2943H24.278H24.2618H24.2456H24.2294H24.2132H24.197H24.1808H24.1646H24.1484H24.1322H24.116H24.0998H24.0836H24.0674ZM24.4309 2.8071C24.4442 2.75879 24.4665 2.72497 24.4996 2.6995C26.9878 2.67787 29.4734 2.70035 31.9563 2.76695C31.9906 4.26191 31.9832 5.7551 31.9341 7.24653C29.4364 7.27621 26.9388 7.27617 24.4412 7.24641C24.4368 7.23696 24.4335 7.22664 24.4311 7.21517C24.4004 5.7458 24.4003 4.27646 24.4309 2.8071Z" fill="white" stroke="white" stroke-width="0.4"/>
<path opacity="0.982" d="M37.0518 0.8H37.022L36.9936 0.808647C36.2189 1.04415 35.7227 1.56731 35.522 2.35698L35.516 2.38041L35.5158 2.40458C35.4846 6.14008 35.4846 9.87554 35.5158 13.611L35.516 13.6341L35.5215 13.6565C35.6213 14.0681 35.8029 14.41 36.0731 14.6713C36.3433 14.9326 36.6908 15.1025 37.1051 15.1881L37.1239 15.192L37.1432 15.1922C39.8635 15.2235 42.5838 15.2235 45.3041 15.1922L45.3279 15.1919L45.351 15.186C46.1407 14.9853 46.6639 14.4891 46.8994 13.7144L46.908 13.686V13.6562V13.6342V13.6121V13.5901V13.568V13.5459V13.5239V13.5018V13.4797V13.4577V13.4356V13.4135V13.3915V13.3694V13.3474V13.3253V13.3032V13.2812V13.2591V13.237V13.215V13.1929V13.1708V13.1488V13.1267V13.1046V13.0826V13.0605V13.0385V13.0164V12.9943V12.9723V12.9502V12.9281V12.9061V12.884V12.8619V12.8399V12.8178V12.7957V12.7737V12.7516V12.7296V12.7075V12.6854V12.6634V12.6413V12.6192V12.5972V12.5751V12.553V12.531V12.5089V12.4869V12.4648V12.4427V12.4207V12.3986V12.3765V12.3545V12.3324V12.3103V12.2883V12.2662V12.2441V12.2221V12.2V12.178V12.1559V12.1338V12.1118V12.0897V12.0676V12.0456V12.0235V12.0014V11.9794V11.9573V11.9352V11.9132V11.8911V11.8691V11.847V11.8249V11.8029V11.7808V11.7587V11.7367V11.7146V11.6925V11.6705V11.6484V11.6263V11.6043V11.5822V11.5602V11.5381V11.516V11.494V11.4719V11.4498V11.4278V11.4057V11.3836V11.3616V11.3395V11.3174V11.2954V11.2733V11.2513V11.2292V11.2071V11.1851V11.163V11.1409V11.1189V11.0968V11.0747V11.0527V11.0306V11.0085V10.9865V10.9644V10.9424V10.9203V10.8982V10.8762V10.8541V10.832V10.81V10.7879V10.7658V10.7438V10.7217V10.6996V10.6776V10.6555V10.6335V10.6114V10.5893V10.5673V10.5452V10.5231V10.5011V10.479V10.4569V10.4349V10.4128V10.3908V10.3687V10.3466V10.3246V10.3025V10.2804V10.2584V10.2363V10.2142V10.1922V10.1701V10.148V10.126V10.1039V10.0819V10.0598V10.0377V10.0157V9.9936V9.97153V9.94947V9.9274V9.90534V9.88327V9.86121V9.83914V9.81708V9.79502V9.77295V9.75089V9.72882V9.70676V9.6847V9.66263V9.64057V9.6185V9.59644V9.57437V9.55231V9.53025V9.50818V9.48612V9.46405V9.44199V9.41992V9.39786V9.3758V9.35373V9.33167V9.3096V9.28754V9.26547V9.24341V9.22135V9.19928V9.17722V9.15515V9.13309V9.11102V9.08896V9.0669V9.04483V9.02277V9.0007V8.97864V8.95658V8.93451V8.91245V8.89038V8.86832V8.84625V8.82419V8.80213V8.78006V8.758V8.73593V8.71387V8.6918V8.66974V8.64768V8.62561V8.60355V8.58148V8.55942V8.53735V8.51529V8.49323V8.47116V8.4491V8.42703V8.40497V8.3829V8.36084V8.33878V8.31671V8.29465V8.27258V8.25052V8.22846V8.20639V8.18433V8.16226V8.1402V8.11813V8.09607V8.07401V8.05194V8.02988V8.00781V7.98575V7.96368V7.94162V7.91956V7.89749V7.87543V7.85336V7.8313V7.80923V7.78717V7.76511V7.74304V7.72098V7.69891V7.67685V7.65478V7.63272V7.61066V7.58859V7.56653V7.54446V7.5224V7.50033V7.47827V7.45621V7.43414V7.41208V7.39001V7.36795V7.34588V7.32382V7.30176V7.27969V7.25763V7.23556V7.2135V7.19143V7.16937V7.14731V7.12524V7.10318V7.08111V7.05905V7.03699V7.01492V6.99286V6.97079V6.94873V6.92666V6.9046V6.88254V6.86047V6.83841V6.81634V6.79428V6.77221V6.75015V6.72809V6.70602V6.68396V6.66189V6.63983V6.61776V6.5957V6.57364V6.55157V6.52951V6.50744V6.48538V6.46331V6.44125V6.41919V6.39712V6.37506V6.35299V6.33093V6.30887V6.2868V6.26474V6.24267V6.22061V6.19854V6.17648V6.15442V6.13235V6.11029V6.08822V6.06616V6.04409V6.02203V5.99997V5.9779V5.95584V5.93377V5.91171V5.88964V5.86758V5.84552V5.82345V5.80139V5.77932V5.75726V5.73519V5.71313V5.69107V5.669V5.64694V5.62487V5.60281V5.58075V5.55868V5.53662V5.51455V5.49249V5.47042V5.44836V5.4263V5.40423V5.38217V5.3601V5.33804V5.31597V5.29391V5.27185V5.24978V5.22772V5.20565V5.18359V5.16153V5.13946V5.1174V5.09533V5.07327V5.0512V5.02914V5.00708V4.98501V4.96295V4.94088V4.91882V4.89675V4.87469V4.85263V4.83056V4.8085V4.78643V4.76437V4.74231V4.72024V4.69818V4.67611V4.65405V4.63198V4.60992V4.58786V4.56579V4.54373V4.52166V4.4996V4.47753V4.45547V4.43341V4.41134V4.38928V4.36721V4.34515V4.32309V4.30102V4.27896V4.25689V4.23483V4.21276V4.1907V4.16864V4.14657V4.12451V4.10244V4.08038V4.05831V4.03625V4.01419V3.99212V3.97006V3.94799V3.92593V3.90387V3.8818V3.85974V3.83767V3.81561V3.79354V3.77148V3.74942V3.72735V3.70529V3.68322V3.66116V3.6391V3.61703V3.59497V3.5729V3.55084V3.52877V3.50671V3.48465V3.46258V3.44052V3.41845V3.39639V3.37433V3.35226V3.3302V3.30813V3.28607V3.264V3.24194V3.21988V3.19781V3.17575V3.15368V3.13162V3.10956V3.08749V3.06543V3.04336V3.0213V2.99923V2.97717V2.95511V2.93304V2.91098V2.88891V2.86685V2.84479V2.82272V2.80066V2.77859V2.75653V2.73447V2.7124V2.69034V2.66827V2.64621V2.62414V2.60208V2.58002V2.55795V2.53589V2.51382V2.49176V2.4697V2.44763V2.42557V2.4035V2.38144V2.35938V2.33107L46.9002 2.30387C46.678 1.53476 46.1733 1.03004 45.4042 0.807857L45.377 0.8H45.3486H45.3324H45.3162H45.3H45.2838H45.2676H45.2514H45.2352H45.219H45.2028H45.1866H45.1704H45.1542H45.138H45.1218H45.1056H45.0894H45.0732H45.057H45.0408H45.0245H45.0083H44.9921H44.9759H44.9597H44.9435H44.9273H44.9111H44.8949H44.8787H44.8625H44.8463H44.8301H44.8139H44.7977H44.7815H44.7653H44.7491H44.7329H44.7167H44.7005H44.6842H44.668H44.6518H44.6356H44.6194H44.6032H44.587H44.5708H44.5546H44.5384H44.5222H44.506H44.4898H44.4736H44.4574H44.4412H44.425H44.4088H44.3926H44.3764H44.3601H44.3439H44.3277H44.3115H44.2953H44.2791H44.2629H44.2467H44.2305H44.2143H44.1981H44.1819H44.1657H44.1495H44.1333H44.1171H44.1009H44.0847H44.0685H44.0523H44.0361H44.0198H44.0036H43.9874H43.9712H43.955H43.9388H43.9226H43.9064H43.8902H43.874H43.8578H43.8416H43.8254H43.8092H43.793H43.7768H43.7606H43.7444H43.7282H43.712H43.6958H43.6795H43.6633H43.6471H43.6309H43.6147H43.5985H43.5823H43.5661H43.5499H43.5337H43.5175H43.5013H43.4851H43.4689H43.4527H43.4365H43.4203H43.4041H43.3879H43.3717H43.3554H43.3392H43.323H43.3068H43.2906H43.2744H43.2582H43.242H43.2258H43.2096H43.1934H43.1772H43.161H43.1448H43.1286H43.1124H43.0962H43.08H43.0638H43.0476H43.0314H43.0151H42.9989H42.9827H42.9665H42.9503H42.9341H42.9179H42.9017H42.8855H42.8693H42.8531H42.8369H42.8207H42.8045H42.7883H42.7721H42.7559H42.7397H42.7235H42.7073H42.6911H42.6748H42.6586H42.6424H42.6262H42.61H42.5938H42.5776H42.5614H42.5452H42.529H42.5128H42.4966H42.4804H42.4642H42.448H42.4318H42.4156H42.3994H42.3832H42.367H42.3507H42.3345H42.3183H42.3021H42.2859H42.2697H42.2535H42.2373H42.2211H42.2049H42.1887H42.1725H42.1563H42.1401H42.1239H42.1077H42.0915H42.0753H42.0591H42.0429H42.0267H42.0104H41.9942H41.978H41.9618H41.9456H41.9294H41.9132H41.897H41.8808H41.8646H41.8484H41.8322H41.816H41.7998H41.7836H41.7674H41.7512H41.735H41.7188H41.7026H41.6864H41.6701H41.6539H41.6377H41.6215H41.6053H41.5891H41.5729H41.5567H41.5405H41.5243H41.5081H41.4919H41.4757H41.4595H41.4433H41.4271H41.4109H41.3947H41.3785H41.3623H41.3461H41.3298H41.3136H41.2974H41.2812H41.265H41.2488H41.2326H41.2164H41.2002H41.184H41.1678H41.1516H41.1354H41.1192H41.103H41.0868H41.0706H41.0544H41.0382H41.022H41.0057H40.9895H40.9733H40.9571H40.9409H40.9247H40.9085H40.8923H40.8761H40.8599H40.8437H40.8275H40.8113H40.7951H40.7789H40.7627H40.7465H40.7303H40.7141H40.6979H40.6817H40.6654H40.6492H40.633H40.6168H40.6006H40.5844H40.5682H40.552H40.5358H40.5196H40.5034H40.4872H40.471H40.4548H40.4386H40.4224H40.4062H40.39H40.3738H40.3576H40.3414H40.3251H40.3089H40.2927H40.2765H40.2603H40.2441H40.2279H40.2117H40.1955H40.1793H40.1631H40.1469H40.1307H40.1145H40.0983H40.0821H40.0659H40.0497H40.0335H40.0173H40.001H39.9848H39.9686H39.9524H39.9362H39.92H39.9038H39.8876H39.8714H39.8552H39.839H39.8228H39.8066H39.7904H39.7742H39.758H39.7418H39.7256H39.7094H39.6932H39.677H39.6607H39.6445H39.6283H39.6121H39.5959H39.5797H39.5635H39.5473H39.5311H39.5149H39.4987H39.4825H39.4663H39.4501H39.4339H39.4177H39.4015H39.3853H39.3691H39.3529H39.3367H39.3204H39.3042H39.288H39.2718H39.2556H39.2394H39.2232H39.207H39.1908H39.1746H39.1584H39.1422H39.126H39.1098H39.0936H39.0774H39.0612H39.045H39.0288H39.0126H38.9963H38.9801H38.9639H38.9477H38.9315H38.9153H38.8991H38.8829H38.8667H38.8505H38.8343H38.8181H38.8019H38.7857H38.7695H38.7533H38.7371H38.7209H38.7047H38.6885H38.6723H38.656H38.6398H38.6236H38.6074H38.5912H38.575H38.5588H38.5426H38.5264H38.5102H38.494H38.4778H38.4616H38.4454H38.4292H38.413H38.3968H38.3806H38.3644H38.3482H38.332H38.3157H38.2995H38.2833H38.2671H38.2509H38.2347H38.2185H38.2023H38.1861H38.1699H38.1537H38.1375H38.1213H38.1051H38.0889H38.0727H38.0565H38.0403H38.0241H38.0079H37.9916H37.9754H37.9592H37.943H37.9268H37.9106H37.8944H37.8782H37.862H37.8458H37.8296H37.8134H37.7972H37.781H37.7648H37.7486H37.7324H37.7162H37.7H37.6838H37.6676H37.6513H37.6351H37.6189H37.6027H37.5865H37.5703H37.5541H37.5379H37.5217H37.5055H37.4893H37.4731H37.4569H37.4407H37.4245H37.4083H37.3921H37.3759H37.3597H37.3435H37.3273H37.311H37.2948H37.2786H37.2624H37.2462H37.23H37.2138H37.1976H37.1814H37.1652H37.149H37.1328H37.1166H37.1004H37.0842H37.068H37.0518ZM37.4617 2.73662C37.4812 2.72281 37.5008 2.71059 37.5206 2.69986C39.9919 2.69232 42.4632 2.70007 44.9345 2.72308C44.9362 2.72398 44.9379 2.72492 44.9395 2.72589C45.0155 6.2199 45.0306 9.71657 44.9848 13.2158C44.9824 13.227 44.9792 13.2371 44.9749 13.2464C42.478 13.2762 39.9811 13.2762 37.4842 13.2466C37.4319 9.74506 37.4244 6.24176 37.4617 2.73662Z" fill="white" stroke="white" stroke-width="0.4"/>
<path opacity="0.982" d="M32.3643 25.2H32.394L32.4224 25.1914C33.1971 24.9559 33.6933 24.4327 33.894 23.643L33.9 23.6196L33.9002 23.5954C33.9315 19.8599 33.9315 16.1245 33.9002 12.389L33.9 12.3659L33.8946 12.3436C33.7976 11.943 33.6218 11.6075 33.3611 11.3469C33.1005 11.0862 32.765 10.9104 32.3644 10.8134L32.3424 10.8081L32.3197 10.8078C29.5838 10.7766 26.8479 10.7766 24.112 10.8078L24.0881 10.8081L24.065 10.814C23.2753 11.0147 22.7522 11.5109 22.5167 12.2856L22.508 12.314V12.3438V12.3658V12.3879V12.41V12.432V12.4541V12.4761V12.4982V12.5203V12.5423V12.5644V12.5865V12.6085V12.6306V12.6527V12.6747V12.6968V12.7189V12.7409V12.763V12.785V12.8071V12.8292V12.8512V12.8733V12.8954V12.9174V12.9395V12.9616V12.9836V13.0057V13.0277V13.0498V13.0719V13.0939V13.116V13.1381V13.1601V13.1822V13.2043V13.2263V13.2484V13.2705V13.2925V13.3146V13.3366V13.3587V13.3808V13.4028V13.4249V13.447V13.469V13.4911V13.5132V13.5352V13.5573V13.5794V13.6014V13.6235V13.6455V13.6676V13.6897V13.7117V13.7338V13.7559V13.7779V13.8V13.8221V13.8441V13.8662V13.8883V13.9103V13.9324V13.9544V13.9765V13.9986V14.0206V14.0427V14.0648V14.0868V14.1089V14.131V14.153V14.1751V14.1972V14.2192V14.2413V14.2633V14.2854V14.3075V14.3295V14.3516V14.3737V14.3957V14.4178V14.4399V14.4619V14.484V14.506V14.5281V14.5502V14.5722V14.5943V14.6164V14.6384V14.6605V14.6826V14.7046V14.7267V14.7488V14.7708V14.7929V14.8149V14.837V14.8591V14.8811V14.9032V14.9253V14.9473V14.9694V14.9915V15.0135V15.0356V15.0577V15.0797V15.1018V15.1238V15.1459V15.168V15.19V15.2121V15.2342V15.2562V15.2783V15.3004V15.3224V15.3445V15.3666V15.3886V15.4107V15.4327V15.4548V15.4769V15.4989V15.521V15.5431V15.5651V15.5872V15.6093V15.6313V15.6534V15.6755V15.6975V15.7196V15.7416V15.7637V15.7858V15.8078V15.8299V15.852V15.874V15.8961V15.9182V15.9402V15.9623V15.9844V16.0064V16.0285V16.0505V16.0726V16.0947V16.1167V16.1388V16.1609V16.1829V16.205V16.2271V16.2491V16.2712V16.2933V16.3153V16.3374V16.3594V16.3815V16.4036V16.4256V16.4477V16.4698V16.4918V16.5139V16.536V16.558V16.5801V16.6022V16.6242V16.6463V16.6683V16.6904V16.7125V16.7345V16.7566V16.7787V16.8007V16.8228V16.8449V16.8669V16.889V16.9111V16.9331V16.9552V16.9772V16.9993V17.0214V17.0434V17.0655V17.0876V17.1096V17.1317V17.1538V17.1758V17.1979V17.22V17.242V17.2641V17.2861V17.3082V17.3303V17.3523V17.3744V17.3965V17.4185V17.4406V17.4627V17.4847V17.5068V17.5288V17.5509V17.573V17.595V17.6171V17.6392V17.6612V17.6833V17.7054V17.7274V17.7495V17.7716V17.7936V17.8157V17.8377V17.8598V17.8819V17.9039V17.926V17.9481V17.9701V17.9922V18.0143V18.0363V18.0584V18.0805V18.1025V18.1246V18.1466V18.1687V18.1908V18.2128V18.2349V18.257V18.279V18.3011V18.3232V18.3452V18.3673V18.3894V18.4114V18.4335V18.4555V18.4776V18.4997V18.5217V18.5438V18.5659V18.5879V18.61V18.6321V18.6541V18.6762V18.6983V18.7203V18.7424V18.7644V18.7865V18.8086V18.8306V18.8527V18.8748V18.8968V18.9189V18.941V18.963V18.9851V19.0072V19.0292V19.0513V19.0733V19.0954V19.1175V19.1395V19.1616V19.1837V19.2057V19.2278V19.2499V19.2719V19.294V19.3161V19.3381V19.3602V19.3822V19.4043V19.4264V19.4484V19.4705V19.4926V19.5146V19.5367V19.5588V19.5808V19.6029V19.625V19.647V19.6691V19.6911V19.7132V19.7353V19.7573V19.7794V19.8015V19.8235V19.8456V19.8677V19.8897V19.9118V19.9339V19.9559V19.978V20V20.0221V20.0442V20.0662V20.0883V20.1104V20.1324V20.1545V20.1766V20.1986V20.2207V20.2428V20.2648V20.2869V20.3089V20.331V20.3531V20.3751V20.3972V20.4193V20.4413V20.4634V20.4855V20.5075V20.5296V20.5517V20.5737V20.5958V20.6178V20.6399V20.662V20.684V20.7061V20.7282V20.7502V20.7723V20.7944V20.8164V20.8385V20.8606V20.8826V20.9047V20.9267V20.9488V20.9709V20.9929V21.015V21.0371V21.0591V21.0812V21.1033V21.1253V21.1474V21.1694V21.1915V21.2136V21.2356V21.2577V21.2798V21.3018V21.3239V21.346V21.368V21.3901V21.4122V21.4342V21.4563V21.4783V21.5004V21.5225V21.5445V21.5666V21.5887V21.6107V21.6328V21.6549V21.6769V21.699V21.7211V21.7431V21.7652V21.7872V21.8093V21.8314V21.8534V21.8755V21.8976V21.9196V21.9417V21.9638V21.9858V22.0079V22.03V22.052V22.0741V22.0961V22.1182V22.1403V22.1623V22.1844V22.2065V22.2285V22.2506V22.2727V22.2947V22.3168V22.3389V22.3609V22.383V22.405V22.4271V22.4492V22.4712V22.4933V22.5154V22.5374V22.5595V22.5816V22.6036V22.6257V22.6477V22.6698V22.6919V22.7139V22.736V22.7581V22.7801V22.8022V22.8243V22.8463V22.8684V22.8905V22.9125V22.9346V22.9566V22.9787V23.0008V23.0228V23.0449V23.067V23.089V23.1111V23.1332V23.1552V23.1773V23.1994V23.2214V23.2435V23.2655V23.2876V23.3097V23.3317V23.3538V23.3759V23.3979V23.42V23.4421V23.4641V23.4862V23.5083V23.5303V23.5524V23.5744V23.5965V23.6186V23.6406V23.6689L22.5159 23.6961C22.7381 24.4653 23.2428 24.97 24.0119 25.1922L24.0391 25.2H24.0674H24.0836H24.0998H24.116H24.1322H24.1484H24.1646H24.1808H24.197H24.2132H24.2294H24.2456H24.2618H24.278H24.2943H24.3105H24.3267H24.3429H24.3591H24.3753H24.3915H24.4077H24.4239H24.4401H24.4563H24.4725H24.4887H24.5049H24.5211H24.5373H24.5535H24.5697H24.5859H24.6021H24.6183H24.6346H24.6508H24.667H24.6832H24.6994H24.7156H24.7318H24.748H24.7642H24.7804H24.7966H24.8128H24.829H24.8452H24.8614H24.8776H24.8938H24.91H24.9262H24.9424H24.9586H24.9749H24.9911H25.0073H25.0235H25.0397H25.0559H25.0721H25.0883H25.1045H25.1207H25.1369H25.1531H25.1693H25.1855H25.2017H25.2179H25.2341H25.2503H25.2665H25.2827H25.299H25.3152H25.3314H25.3476H25.3638H25.38H25.3962H25.4124H25.4286H25.4448H25.461H25.4772H25.4934H25.5096H25.5258H25.542H25.5582H25.5744H25.5906H25.6068H25.623H25.6393H25.6555H25.6717H25.6879H25.7041H25.7203H25.7365H25.7527H25.7689H25.7851H25.8013H25.8175H25.8337H25.8499H25.8661H25.8823H25.8985H25.9147H25.9309H25.9471H25.9633H25.9796H25.9958H26.012H26.0282H26.0444H26.0606H26.0768H26.093H26.1092H26.1254H26.1416H26.1578H26.174H26.1902H26.2064H26.2226H26.2388H26.255H26.2712H26.2874H26.3036H26.3199H26.3361H26.3523H26.3685H26.3847H26.4009H26.4171H26.4333H26.4495H26.4657H26.4819H26.4981H26.5143H26.5305H26.5467H26.5629H26.5791H26.5953H26.6115H26.6277H26.644H26.6602H26.6764H26.6926H26.7088H26.725H26.7412H26.7574H26.7736H26.7898H26.806H26.8222H26.8384H26.8546H26.8708H26.887H26.9032H26.9194H26.9356H26.9518H26.968H26.9843H27.0005H27.0167H27.0329H27.0491H27.0653H27.0815H27.0977H27.1139H27.1301H27.1463H27.1625H27.1787H27.1949H27.2111H27.2273H27.2435H27.2597H27.2759H27.2921H27.3083H27.3246H27.3408H27.357H27.3732H27.3894H27.4056H27.4218H27.438H27.4542H27.4704H27.4866H27.5028H27.519H27.5352H27.5514H27.5676H27.5838H27.6H27.6162H27.6324H27.6487H27.6649H27.6811H27.6973H27.7135H27.7297H27.7459H27.7621H27.7783H27.7945H27.8107H27.8269H27.8431H27.8593H27.8755H27.8917H27.9079H27.9241H27.9403H27.9565H27.9727H27.989H28.0052H28.0214H28.0376H28.0538H28.07H28.0862H28.1024H28.1186H28.1348H28.151H28.1672H28.1834H28.1996H28.2158H28.232H28.2482H28.2644H28.2806H28.2968H28.313H28.3293H28.3455H28.3617H28.3779H28.3941H28.4103H28.4265H28.4427H28.4589H28.4751H28.4913H28.5075H28.5237H28.5399H28.5561H28.5723H28.5885H28.6047H28.6209H28.6371H28.6534H28.6696H28.6858H28.702H28.7182H28.7344H28.7506H28.7668H28.783H28.7992H28.8154H28.8316H28.8478H28.864H28.8802H28.8964H28.9126H28.9288H28.945H28.9612H28.9774H28.9937H29.0099H29.0261H29.0423H29.0585H29.0747H29.0909H29.1071H29.1233H29.1395H29.1557H29.1719H29.1881H29.2043H29.2205H29.2367H29.2529H29.2691H29.2853H29.3015H29.3177H29.334H29.3502H29.3664H29.3826H29.3988H29.415H29.4312H29.4474H29.4636H29.4798H29.496H29.5122H29.5284H29.5446H29.5608H29.577H29.5932H29.6094H29.6256H29.6418H29.6581H29.6743H29.6905H29.7067H29.7229H29.7391H29.7553H29.7715H29.7877H29.8039H29.8201H29.8363H29.8525H29.8687H29.8849H29.9011H29.9173H29.9335H29.9497H29.9659H29.9821H29.9984H30.0146H30.0308H30.047H30.0632H30.0794H30.0956H30.1118H30.128H30.1442H30.1604H30.1766H30.1928H30.209H30.2252H30.2414H30.2576H30.2738H30.29H30.3062H30.3224H30.3387H30.3549H30.3711H30.3873H30.4035H30.4197H30.4359H30.4521H30.4683H30.4845H30.5007H30.5169H30.5331H30.5493H30.5655H30.5817H30.5979H30.6141H30.6303H30.6465H30.6628H30.679H30.6952H30.7114H30.7276H30.7438H30.76H30.7762H30.7924H30.8086H30.8248H30.841H30.8572H30.8734H30.8896H30.9058H30.922H30.9382H30.9544H30.9706H30.9868H31.0031H31.0193H31.0355H31.0517H31.0679H31.0841H31.1003H31.1165H31.1327H31.1489H31.1651H31.1813H31.1975H31.2137H31.2299H31.2461H31.2623H31.2785H31.2947H31.3109H31.3271H31.3434H31.3596H31.3758H31.392H31.4082H31.4244H31.4406H31.4568H31.473H31.4892H31.5054H31.5216H31.5378H31.554H31.5702H31.5864H31.6026H31.6188H31.635H31.6512H31.6674H31.6837H31.6999H31.7161H31.7323H31.7485H31.7647H31.7809H31.7971H31.8133H31.8295H31.8457H31.8619H31.8781H31.8943H31.9105H31.9267H31.9429H31.9591H31.9753H31.9915H32.0078H32.024H32.0402H32.0564H32.0726H32.0888H32.105H32.1212H32.1374H32.1536H32.1698H32.186H32.2022H32.2184H32.2346H32.2508H32.267H32.2832H32.2994H32.3156H32.3318H32.3481H32.3643ZM24.4312 12.7876C24.436 12.767 24.4427 12.7482 24.451 12.731C26.9446 12.7237 29.4382 12.7314 31.9318 12.7538C31.984 16.2452 31.9916 19.7384 31.9547 23.2335C29.4665 23.3073 26.9756 23.3219 24.4822 23.2773C24.4803 23.2763 24.4784 23.2752 24.4765 23.2741C24.4005 19.7812 24.3854 16.2857 24.4312 12.7876Z" fill="white" stroke="white" stroke-width="0.4"/>
<path opacity="0.98" d="M46.908 18.3438V18.314L46.8994 18.2856C46.6639 17.5109 46.1407 17.0147 45.351 16.814L45.3279 16.8081L45.3041 16.8078C42.5682 16.7766 39.8322 16.7766 37.0964 16.8078L37.0737 16.8081L37.0516 16.8134C36.651 16.9104 36.3155 17.0862 36.0549 17.3469C35.7942 17.6075 35.6184 17.943 35.5214 18.3436L35.5163 18.365L35.5159 18.387C35.4846 20.1238 35.4846 21.8606 35.5159 23.5974L35.5163 23.6206L35.522 23.643C35.7227 24.4327 36.2189 24.9559 36.9936 25.1914L37.022 25.2H37.0518H37.068H37.0842H37.1004H37.1166H37.1328H37.149H37.1652H37.1814H37.1976H37.2138H37.23H37.2462H37.2624H37.2786H37.2948H37.311H37.3273H37.3435H37.3597H37.3759H37.3921H37.4083H37.4245H37.4407H37.4569H37.4731H37.4893H37.5055H37.5217H37.5379H37.5541H37.5703H37.5865H37.6027H37.6189H37.6351H37.6513H37.6676H37.6838H37.7H37.7162H37.7324H37.7486H37.7648H37.781H37.7972H37.8134H37.8296H37.8458H37.862H37.8782H37.8944H37.9106H37.9268H37.943H37.9592H37.9754H37.9916H38.0079H38.0241H38.0403H38.0565H38.0727H38.0889H38.1051H38.1213H38.1375H38.1537H38.1699H38.1861H38.2023H38.2185H38.2347H38.2509H38.2671H38.2833H38.2995H38.3157H38.332H38.3482H38.3644H38.3806H38.3968H38.413H38.4292H38.4454H38.4616H38.4778H38.494H38.5102H38.5264H38.5426H38.5588H38.575H38.5912H38.6074H38.6236H38.6398H38.656H38.6723H38.6885H38.7047H38.7209H38.7371H38.7533H38.7695H38.7857H38.8019H38.8181H38.8343H38.8505H38.8667H38.8829H38.8991H38.9153H38.9315H38.9477H38.9639H38.9801H38.9963H39.0126H39.0288H39.045H39.0612H39.0774H39.0936H39.1098H39.126H39.1422H39.1584H39.1746H39.1908H39.207H39.2232H39.2394H39.2556H39.2718H39.288H39.3042H39.3204H39.3367H39.3529H39.3691H39.3853H39.4015H39.4177H39.4339H39.4501H39.4663H39.4825H39.4987H39.5149H39.5311H39.5473H39.5635H39.5797H39.5959H39.6121H39.6283H39.6445H39.6607H39.677H39.6932H39.7094H39.7256H39.7418H39.758H39.7742H39.7904H39.8066H39.8228H39.839H39.8552H39.8714H39.8876H39.9038H39.92H39.9362H39.9524H39.9686H39.9848H40.001H40.0173H40.0335H40.0497H40.0659H40.0821H40.0983H40.1145H40.1307H40.1469H40.1631H40.1793H40.1955H40.2117H40.2279H40.2441H40.2603H40.2765H40.2927H40.3089H40.3251H40.3414H40.3576H40.3738H40.39H40.4062H40.4224H40.4386H40.4548H40.471H40.4872H40.5034H40.5196H40.5358H40.552H40.5682H40.5844H40.6006H40.6168H40.633H40.6492H40.6654H40.6817H40.6979H40.7141H40.7303H40.7465H40.7627H40.7789H40.7951H40.8113H40.8275H40.8437H40.8599H40.8761H40.8923H40.9085H40.9247H40.9409H40.9571H40.9733H40.9895H41.0057H41.022H41.0382H41.0544H41.0706H41.0868H41.103H41.1192H41.1354H41.1516H41.1678H41.184H41.2002H41.2164H41.2326H41.2488H41.265H41.2812H41.2974H41.3136H41.3298H41.3461H41.3623H41.3785H41.3947H41.4109H41.4271H41.4433H41.4595H41.4757H41.4919H41.5081H41.5243H41.5405H41.5567H41.5729H41.5891H41.6053H41.6215H41.6377H41.6539H41.6701H41.6864H41.7026H41.7188H41.735H41.7512H41.7674H41.7836H41.7998H41.816H41.8322H41.8484H41.8646H41.8808H41.897H41.9132H41.9294H41.9456H41.9618H41.978H41.9942H42.0104H42.0267H42.0429H42.0591H42.0753H42.0915H42.1077H42.1239H42.1401H42.1563H42.1725H42.1887H42.2049H42.2211H42.2373H42.2535H42.2697H42.2859H42.3021H42.3183H42.3345H42.3507H42.367H42.3832H42.3994H42.4156H42.4318H42.448H42.4642H42.4804H42.4966H42.5128H42.529H42.5452H42.5614H42.5776H42.5938H42.61H42.6262H42.6424H42.6586H42.6748H42.6911H42.7073H42.7235H42.7397H42.7559H42.7721H42.7883H42.8045H42.8207H42.8369H42.8531H42.8693H42.8855H42.9017H42.9179H42.9341H42.9503H42.9665H42.9827H42.9989H43.0151H43.0314H43.0476H43.0638H43.08H43.0962H43.1124H43.1286H43.1448H43.161H43.1772H43.1934H43.2096H43.2258H43.242H43.2582H43.2744H43.2906H43.3068H43.323H43.3392H43.3554H43.3717H43.3879H43.4041H43.4203H43.4365H43.4527H43.4689H43.4851H43.5013H43.5175H43.5337H43.5499H43.5661H43.5823H43.5985H43.6147H43.6309H43.6471H43.6633H43.6795H43.6958H43.712H43.7282H43.7444H43.7606H43.7768H43.793H43.8092H43.8254H43.8416H43.8578H43.874H43.8902H43.9064H43.9226H43.9388H43.955H43.9712H43.9874H44.0036H44.0198H44.0361H44.0523H44.0685H44.0847H44.1009H44.1171H44.1333H44.1495H44.1657H44.1819H44.1981H44.2143H44.2305H44.2467H44.2629H44.2791H44.2953H44.3115H44.3277H44.3439H44.3601H44.3764H44.3926H44.4088H44.425H44.4412H44.4574H44.4736H44.4898H44.506H44.5222H44.5384H44.5546H44.5708H44.587H44.6032H44.6194H44.6356H44.6518H44.668H44.6842H44.7005H44.7167H44.7329H44.7491H44.7653H44.7815H44.7977H44.8139H44.8301H44.8463H44.8625H44.8787H44.8949H44.9111H44.9273H44.9435H44.9597H44.9759H44.9921H45.0083H45.0245H45.0408H45.057H45.0732H45.0894H45.1056H45.1218H45.138H45.1542H45.1704H45.1866H45.2028H45.219H45.2352H45.2514H45.2676H45.2838H45.3H45.3162H45.3324H45.3486H45.377L45.4041 25.1922C46.1733 24.97 46.678 24.4653 46.9002 23.6961L46.908 23.6689V23.6406V23.6303V23.6199V23.6096V23.5993V23.5889V23.5786V23.5682V23.5579V23.5475V23.5372V23.5268V23.5165V23.5061V23.4958V23.4855V23.4751V23.4648V23.4544V23.4441V23.4337V23.4234V23.413V23.4027V23.3923V23.382V23.3717V23.3613V23.351V23.3406V23.3303V23.3199V23.3096V23.2992V23.2889V23.2785V23.2682V23.2579V23.2475V23.2372V23.2268V23.2165V23.2061V23.1958V23.1854V23.1751V23.1647V23.1544V23.1441V23.1337V23.1234V23.113V23.1027V23.0923V23.082V23.0716V23.0613V23.0509V23.0406V23.0303V23.0199V23.0096V22.9992V22.9889V22.9785V22.9682V22.9578V22.9475V22.9371V22.9268V22.9165V22.9061V22.8958V22.8854V22.8751V22.8647V22.8544V22.844V22.8337V22.8233V22.813V22.8026V22.7923V22.782V22.7716V22.7613V22.7509V22.7406V22.7302V22.7199V22.7095V22.6992V22.6888V22.6785V22.6682V22.6578V22.6475V22.6371V22.6268V22.6164V22.6061V22.5957V22.5854V22.575V22.5647V22.5544V22.544V22.5337V22.5233V22.513V22.5026V22.4923V22.4819V22.4716V22.4612V22.4509V22.4406V22.4302V22.4199V22.4095V22.3992V22.3888V22.3785V22.3681V22.3578V22.3474V22.3371V22.3268V22.3164V22.3061V22.2957V22.2854V22.275V22.2647V22.2543V22.244V22.2336V22.2233V22.213V22.2026V22.1923V22.1819V22.1716V22.1612V22.1509V22.1405V22.1302V22.1198V22.1095V22.0992V22.0888V22.0785V22.0681V22.0578V22.0474V22.0371V22.0267V22.0164V22.0061V21.9957V21.9854V21.975V21.9647V21.9543V21.944V21.9336V21.9233V21.9129V21.9026V21.8923V21.8819V21.8716V21.8612V21.8509V21.8405V21.8302V21.8198V21.8095V21.7991V21.7888V21.7785V21.7681V21.7578V21.7474V21.7371V21.7267V21.7164V21.706V21.6957V21.6853V21.675V21.6647V21.6543V21.644V21.6336V21.6233V21.6129V21.6026V21.5922V21.5819V21.5715V21.5612V21.5509V21.5405V21.5302V21.5198V21.5095V21.4991V21.4888V21.4784V21.4681V21.4577V21.4474V21.4371V21.4267V21.4164V21.406V21.3957V21.3853V21.375V21.3646V21.3543V21.3439V21.3336V21.3233V21.3129V21.3026V21.2922V21.2819V21.2715V21.2612V21.2508V21.2405V21.2301V21.2198V21.2095V21.1991V21.1888V21.1784V21.1681V21.1577V21.1474V21.137V21.1267V21.1163V21.106V21.0957V21.0853V21.075V21.0646V21.0543V21.0439V21.0336V21.0232V21.0129V21.0025V20.9922V20.9819V20.9715V20.9612V20.9508V20.9405V20.9301V20.9198V20.9094V20.8991V20.8887V20.8784V20.8681V20.8577V20.8474V20.837V20.8267V20.8163V20.806V20.7956V20.7853V20.7749V20.7646V20.7543V20.7439V20.7336V20.7232V20.7129V20.7025V20.6922V20.6818V20.6715V20.6611V20.6508V20.6405V20.6301V20.6198V20.6094V20.5991V20.5887V20.5784V20.568V20.5577V20.5473V20.537V20.5267V20.5163V20.506V20.4956V20.4853V20.4749V20.4646V20.4542V20.4439V20.4335V20.4232V20.4129V20.4025V20.3922V20.3818V20.3715V20.3611V20.3508V20.3404V20.3301V20.3197V20.3094V20.2991V20.2887V20.2784V20.268V20.2577V20.2473V20.237V20.2266V20.2163V20.2059V20.1956V20.1853V20.1749V20.1646V20.1542V20.1439V20.1335V20.1232V20.1128V20.1025V20.0921V20.0818V20.0715V20.0611V20.0508V20.0404V20.0301V20.0197V20.0094V19.999V19.9887V19.9783V19.968V19.9577V19.9473V19.937V19.9266V19.9163V19.9059V19.8956V19.8852V19.8749V19.8645V19.8542V19.8439V19.8335V19.8232V19.8128V19.8025V19.7921V19.7818V19.7714V19.7611V19.7507V19.7404V19.7301V19.7197V19.7094V19.699V19.6887V19.6783V19.668V19.6576V19.6473V19.6369V19.6266V19.6163V19.6059V19.5956V19.5852V19.5749V19.5645V19.5542V19.5438V19.5335V19.5231V19.5128V19.5025V19.4921V19.4818V19.4714V19.4611V19.4507V19.4404V19.43V19.4197V19.4093V19.399V19.3887V19.3783V19.368V19.3576V19.3473V19.3369V19.3266V19.3162V19.3059V19.2955V19.2852V19.2749V19.2645V19.2542V19.2438V19.2335V19.2231V19.2128V19.2024V19.1921V19.1817V19.1714V19.1611V19.1507V19.1404V19.13V19.1197V19.1093V19.099V19.0886V19.0783V19.0679V19.0576V19.0473V19.0369V19.0266V19.0162V19.0059V18.9955V18.9852V18.9748V18.9645V18.9541V18.9438V18.9335V18.9231V18.9128V18.9024V18.8921V18.8817V18.8714V18.861V18.8507V18.8403V18.83V18.8197V18.8093V18.799V18.7886V18.7783V18.7679V18.7576V18.7472V18.7369V18.7265V18.7162V18.7059V18.6955V18.6852V18.6748V18.6645V18.6541V18.6438V18.6334V18.6231V18.6127V18.6024V18.5921V18.5817V18.5714V18.561V18.5507V18.5403V18.53V18.5196V18.5093V18.4989V18.4886V18.4783V18.4679V18.4576V18.4472V18.4369V18.4265V18.4162V18.4058V18.3955V18.3851V18.3748V18.3645V18.3541V18.3438ZM37.4615 18.7337C37.4622 18.7328 37.4629 18.7319 37.4636 18.731C39.9675 18.7237 42.4712 18.7313 44.975 18.7539C44.9794 18.7634 44.9827 18.7739 44.9851 18.7855C45.0295 20.284 45.0151 21.7798 44.9418 23.2728C44.9392 23.2744 44.9366 23.2758 44.9338 23.2773C42.4401 23.3219 39.9488 23.3073 37.4603 23.2334C37.4318 21.7336 37.4323 20.2336 37.4615 18.7337Z" fill="white" stroke="white" stroke-width="0.4"/>
</g>
</svg>
