<svg width="20" height="20" viewBox="0 0 20 20" fill="none" xmlns="http://www.w3.org/2000/svg">
<g opacity="0.4">
<path opacity="0.964" d="M9.22656 0.899493V0.9H9.22958H9.2326H9.23563H9.23865H9.24167H9.24469H9.24771H9.25073H9.25375H9.25678H9.2598H9.26282H9.26584H9.26886H9.27188H9.2749H9.27792H9.28095H9.28397H9.28699H9.29001H9.29303H9.29605H9.29907H9.3021H9.30512H9.30814H9.31116H9.31418H9.3172H9.32022H9.32324H9.32627H9.32929H9.33231H9.33533H9.33835H9.34137H9.34439H9.34741H9.35044H9.35346H9.35648H9.3595H9.36252H9.36554H9.36856H9.37158H9.37461H9.37763H9.38065H9.38367H9.38669H9.38971H9.39273H9.39575H9.39878H9.4018H9.40482H9.40784H9.41086H9.41388H9.4169H9.41992H9.42295H9.42597H9.42899H9.43201H9.43503H9.43805H9.44107H9.44409H9.44712H9.45014H9.45316H9.45618H9.4592H9.46222H9.46524H9.46826H9.47129H9.47431H9.47733H9.48035H9.48337H9.48639H9.48941H9.49243H9.49546H9.49848H9.5015H9.50452H9.50754H9.51056H9.51358H9.51661H9.51963H9.52265H9.52567H9.52869H9.53171H9.53473H9.53775H9.54078H9.5438H9.54682H9.54984H9.55286H9.55588H9.5589H9.56192H9.56495H9.56797H9.57099H9.57401H9.57703H9.58005H9.58307H9.58609H9.58912H9.59214H9.59516H9.59818H9.6012H9.60422H9.60724H9.61026H9.61328H9.61631H9.61933H9.62235H9.62537H9.62839H9.63141H9.63443H9.63745H9.64048H9.6435H9.64652H9.64954H9.65256H9.65558H9.6586H9.66162H9.66465H9.66767H9.67069H9.67371H9.67673H9.67975H9.68277H9.68579H9.68882H9.69184H9.69486H9.69788H9.7009H9.70392H9.70694H9.70996H9.71299H9.71601H9.71903H9.72205H9.72507H9.72809H9.73111H9.73413H9.73715H9.74018H9.7432H9.74622H9.74924H9.75226H9.75528H9.7583H9.76132H9.76435H9.76737H9.77039H9.77341H9.77643H9.77945H9.78247H9.78549H9.78852H9.79154H9.79456H9.79758H9.8006H9.80362H9.80664H9.80966H9.81269H9.81571H9.81873H9.82175H9.82477H9.82779H9.83081H9.83383H9.83685H9.83988H9.8429H9.84592H9.84894H9.85196H9.85498H9.858H9.86102H9.86405H9.86707H9.87009H9.87311H9.87613H9.87915H9.88217H9.88519H9.88822H9.89124H9.89426H9.89728H9.9003H9.90332H9.90634H9.90936H9.91238H9.91541H9.91843H9.92145H9.92447H9.92749H9.93051H9.93353H9.93655H9.93958H9.9426H9.94562H9.94864H9.95166H9.95468H9.9577H9.96072H9.96375H9.96677H9.96979H9.97281H9.97583H9.97885H9.98187H9.98489H9.98792H9.99094H9.99396H9.99698H10H10.003H10.006H10.0091H10.0121H10.0151H10.0181H10.0211H10.0242H10.0272H10.0302H10.0332H10.0363H10.0393H10.0423H10.0453H10.0483H10.0514H10.0544H10.0574H10.0604H10.0634H10.0665H10.0695H10.0725H10.0755H10.0786H10.0816H10.0846H10.0876H10.0906H10.0937H10.0967H10.0997H10.1027H10.1057H10.1088H10.1118H10.1148H10.1178H10.1208H10.1239H10.1269H10.1299H10.1329H10.136H10.139H10.142H10.145H10.148H10.1511H10.1541H10.1571H10.1601H10.1631H10.1662H10.1692H10.1722H10.1752H10.1783H10.1813H10.1843H10.1873H10.1903H10.1934H10.1964H10.1994H10.2024H10.2054H10.2085H10.2115H10.2145H10.2175H10.2205H10.2236H10.2266H10.2296H10.2326H10.2357H10.2387H10.2417H10.2447H10.2477H10.2508H10.2538H10.2568H10.2598H10.2628H10.2659H10.2689H10.2719H10.2749H10.278H10.281H10.284H10.287H10.29H10.2931H10.2961H10.2991H10.3021H10.3051H10.3082H10.3112H10.3142H10.3172H10.3202H10.3233H10.3263H10.3293H10.3323H10.3354H10.3384H10.3414H10.3444H10.3474H10.3505H10.3535H10.3565H10.3595H10.3625H10.3656H10.3686H10.3716H10.3746H10.3777H10.3807H10.3837H10.3867H10.3897H10.3928H10.3958H10.3988H10.4018H10.4048H10.4079H10.4109H10.4139H10.4169H10.4199H10.423H10.426H10.429H10.432H10.4351H10.4381H10.4411H10.4441H10.4471H10.4502H10.4532H10.4562H10.4592H10.4622H10.4653H10.4683H10.4713H10.4743H10.4774H10.4804H10.4834H10.4864H10.4894H10.4925H10.4955H10.4985H10.5015H10.5045H10.5076H10.5106H10.5136H10.5166H10.5197H10.5227H10.5257H10.5287H10.5317H10.5348H10.5378H10.5408H10.5438H10.5468H10.5499H10.5529H10.5559H10.5589H10.5619H10.565H10.568H10.571H10.574H10.5771H10.5801H10.5831H10.5861H10.5891H10.5922H10.5952H10.5982H10.6012H10.6042H10.6073H10.6103H10.6133H10.6163H10.6194H10.6224H10.6254H10.6284H10.6314H10.6345H10.6375H10.6405H10.6435H10.6465H10.6496H10.6526H10.6556H10.6586H10.6616H10.6647H10.6677H10.6707H10.6737H10.6768H10.6798H10.6828H10.6858H10.6888H10.6919H10.6949H10.6979H10.7009H10.7039H10.707H10.71H10.713H10.716H10.7191H10.7221H10.7251H10.7281H10.7311H10.7342H10.7372H10.7402H10.7432H10.7462H10.7493H10.7523H10.7553H10.7583H10.7614H10.7644H10.7674H10.7704H10.7734H10.7859L10.7858 0.900773C14.3449 1.34592 16.8881 3.1955 18.4051 6.44204L18.4071 6.44649L18.407 6.44653C18.7726 7.34071 19.0035 8.26413 19.0995 9.21653L19.1005 9.22656H19.1V9.22958V9.2326V9.23563V9.23865V9.24167V9.24469V9.24771V9.25073V9.25375V9.25678V9.2598V9.26282V9.26584V9.26886V9.27188V9.2749V9.27792V9.28095V9.28397V9.28699V9.29001V9.29303V9.29605V9.29907V9.3021V9.30512V9.30814V9.31116V9.31418V9.3172V9.32022V9.32324V9.32627V9.32929V9.33231V9.33533V9.33835V9.34137V9.34439V9.34741V9.35044V9.35346V9.35648V9.3595V9.36252V9.36554V9.36856V9.37158V9.37461V9.37763V9.38065V9.38367V9.38669V9.38971V9.39273V9.39575V9.39878V9.4018V9.40482V9.40784V9.41086V9.41388V9.4169V9.41992V9.42295V9.42597V9.42899V9.43201V9.43503V9.43805V9.44107V9.44409V9.44712V9.45014V9.45316V9.45618V9.4592V9.46222V9.46524V9.46826V9.47129V9.47431V9.47733V9.48035V9.48337V9.48639V9.48941V9.49243V9.49546V9.49848V9.5015V9.50452V9.50754V9.51056V9.51358V9.51661V9.51963V9.52265V9.52567V9.52869V9.53171V9.53473V9.53775V9.54078V9.5438V9.54682V9.54984V9.55286V9.55588V9.5589V9.56192V9.56495V9.56797V9.57099V9.57401V9.57703V9.58005V9.58307V9.58609V9.58912V9.59214V9.59516V9.59818V9.6012V9.60422V9.60724V9.61026V9.61328V9.61631V9.61933V9.62235V9.62537V9.62839V9.63141V9.63443V9.63745V9.64048V9.6435V9.64652V9.64954V9.65256V9.65558V9.6586V9.66162V9.66465V9.66767V9.67069V9.67371V9.67673V9.67975V9.68277V9.68579V9.68882V9.69184V9.69486V9.69788V9.7009V9.70392V9.70694V9.70996V9.71299V9.71601V9.71903V9.72205V9.72507V9.72809V9.73111V9.73413V9.73715V9.74018V9.7432V9.74622V9.74924V9.75226V9.75528V9.7583V9.76132V9.76435V9.76737V9.77039V9.77341V9.77643V9.77945V9.78247V9.78549V9.78852V9.79154V9.79456V9.79758V9.8006V9.80362V9.80664V9.80966V9.81269V9.81571V9.81873V9.82175V9.82477V9.82779V9.83081V9.83383V9.83685V9.83988V9.8429V9.84592V9.84894V9.85196V9.85498V9.858V9.86102V9.86405V9.86707V9.87009V9.87311V9.87613V9.87915V9.88217V9.88519V9.88822V9.89124V9.89426V9.89728V9.9003V9.90332V9.90634V9.90936V9.91238V9.91541V9.91843V9.92145V9.92447V9.92749V9.93051V9.93353V9.93655V9.93958V9.9426V9.94562V9.94864V9.95166V9.95468V9.9577V9.96072V9.96375V9.96677V9.96979V9.97281V9.97583V9.97885V9.98187V9.98489V9.98792V9.99094V9.99396V9.99698V10V10.003V10.006V10.0091V10.0121V10.0151V10.0181V10.0211V10.0242V10.0272V10.0302V10.0332V10.0363V10.0393V10.0423V10.0453V10.0483V10.0514V10.0544V10.0574V10.0604V10.0634V10.0665V10.0695V10.0725V10.0755V10.0786V10.0816V10.0846V10.0876V10.0906V10.0937V10.0967V10.0997V10.1027V10.1057V10.1088V10.1118V10.1148V10.1178V10.1208V10.1239V10.1269V10.1299V10.1329V10.136V10.139V10.142V10.145V10.148V10.1511V10.1541V10.1571V10.1601V10.1631V10.1662V10.1692V10.1722V10.1752V10.1783V10.1813V10.1843V10.1873V10.1903V10.1934V10.1964V10.1994V10.2024V10.2054V10.2085V10.2115V10.2145V10.2175V10.2205V10.2236V10.2266V10.2296V10.2326V10.2357V10.2387V10.2417V10.2447V10.2477V10.2508V10.2538V10.2568V10.2598V10.2628V10.2659V10.2689V10.2719V10.2749V10.278V10.281V10.284V10.287V10.29V10.2931V10.2961V10.2991V10.3021V10.3051V10.3082V10.3112V10.3142V10.3172V10.3202V10.3233V10.3263V10.3293V10.3323V10.3354V10.3384V10.3414V10.3444V10.3474V10.3505V10.3535V10.3565V10.3595V10.3625V10.3656V10.3686V10.3716V10.3746V10.3777V10.3807V10.3837V10.3867V10.3897V10.3928V10.3958V10.3988V10.4018V10.4048V10.4079V10.4109V10.4139V10.4169V10.4199V10.423V10.426V10.429V10.432V10.4351V10.4381V10.4411V10.4441V10.4471V10.4502V10.4532V10.4562V10.4592V10.4622V10.4653V10.4683V10.4713V10.4743V10.4774V10.4804V10.4834V10.4864V10.4894V10.4925V10.4955V10.4985V10.5015V10.5045V10.5076V10.5106V10.5136V10.5166V10.5197V10.5227V10.5257V10.5287V10.5317V10.5348V10.5378V10.5408V10.5438V10.5468V10.5499V10.5529V10.5559V10.5589V10.5619V10.565V10.568V10.571V10.574V10.5771V10.5801V10.5831V10.5861V10.5891V10.5922V10.5952V10.5982V10.6012V10.6042V10.6073V10.6103V10.6133V10.6163V10.6194V10.6224V10.6254V10.6284V10.6314V10.6345V10.6375V10.6405V10.6435V10.6465V10.6496V10.6526V10.6556V10.6586V10.6616V10.6647V10.6677V10.6707V10.6737V10.6768V10.6798V10.6828V10.6858V10.6888V10.6919V10.6949V10.6979V10.7009V10.7039V10.707V10.71V10.713V10.716V10.7191V10.7221V10.7251V10.7281V10.7311V10.7342V10.7372V10.7402V10.7432V10.7462V10.7493V10.7523V10.7553V10.7583V10.7614V10.7644V10.7674V10.7704V10.7734V10.7859L19.0992 10.7858C18.6541 14.3449 16.8045 16.8881 13.558 18.4051L13.5535 18.4071L13.5535 18.407C12.6593 18.7726 11.7359 19.0035 10.7835 19.0995L10.7734 19.1005V19.1H10.7704H10.7674H10.7644H10.7614H10.7583H10.7553H10.7523H10.7493H10.7462H10.7432H10.7402H10.7372H10.7342H10.7311H10.7281H10.7251H10.7221H10.7191H10.716H10.713H10.71H10.707H10.7039H10.7009H10.6979H10.6949H10.6919H10.6888H10.6858H10.6828H10.6798H10.6768H10.6737H10.6707H10.6677H10.6647H10.6616H10.6586H10.6556H10.6526H10.6496H10.6465H10.6435H10.6405H10.6375H10.6345H10.6314H10.6284H10.6254H10.6224H10.6194H10.6163H10.6133H10.6103H10.6073H10.6042H10.6012H10.5982H10.5952H10.5922H10.5891H10.5861H10.5831H10.5801H10.5771H10.574H10.571H10.568H10.565H10.5619H10.5589H10.5559H10.5529H10.5499H10.5468H10.5438H10.5408H10.5378H10.5348H10.5317H10.5287H10.5257H10.5227H10.5197H10.5166H10.5136H10.5106H10.5076H10.5045H10.5015H10.4985H10.4955H10.4925H10.4894H10.4864H10.4834H10.4804H10.4774H10.4743H10.4713H10.4683H10.4653H10.4622H10.4592H10.4562H10.4532H10.4502H10.4471H10.4441H10.4411H10.4381H10.4351H10.432H10.429H10.426H10.423H10.4199H10.4169H10.4139H10.4109H10.4079H10.4048H10.4018H10.3988H10.3958H10.3928H10.3897H10.3867H10.3837H10.3807H10.3777H10.3746H10.3716H10.3686H10.3656H10.3625H10.3595H10.3565H10.3535H10.3505H10.3474H10.3444H10.3414H10.3384H10.3354H10.3323H10.3293H10.3263H10.3233H10.3202H10.3172H10.3142H10.3112H10.3082H10.3051H10.3021H10.2991H10.2961H10.2931H10.29H10.287H10.284H10.281H10.278H10.2749H10.2719H10.2689H10.2659H10.2628H10.2598H10.2568H10.2538H10.2508H10.2477H10.2447H10.2417H10.2387H10.2357H10.2326H10.2296H10.2266H10.2236H10.2205H10.2175H10.2145H10.2115H10.2085H10.2054H10.2024H10.1994H10.1964H10.1934H10.1903H10.1873H10.1843H10.1813H10.1783H10.1752H10.1722H10.1692H10.1662H10.1631H10.1601H10.1571H10.1541H10.1511H10.148H10.145H10.142H10.139H10.136H10.1329H10.1299H10.1269H10.1239H10.1208H10.1178H10.1148H10.1118H10.1088H10.1057H10.1027H10.0997H10.0967H10.0937H10.0906H10.0876H10.0846H10.0816H10.0786H10.0755H10.0725H10.0695H10.0665H10.0634H10.0604H10.0574H10.0544H10.0514H10.0483H10.0453H10.0423H10.0393H10.0363H10.0332H10.0302H10.0272H10.0242H10.0211H10.0181H10.0151H10.0121H10.0091H10.006H10.003H10H9.99698H9.99396H9.99094H9.98792H9.98489H9.98187H9.97885H9.97583H9.97281H9.96979H9.96677H9.96375H9.96072H9.9577H9.95468H9.95166H9.94864H9.94562H9.9426H9.93958H9.93655H9.93353H9.93051H9.92749H9.92447H9.92145H9.91843H9.91541H9.91238H9.90936H9.90634H9.90332H9.9003H9.89728H9.89426H9.89124H9.88822H9.88519H9.88217H9.87915H9.87613H9.87311H9.87009H9.86707H9.86405H9.86102H9.858H9.85498H9.85196H9.84894H9.84592H9.8429H9.83988H9.83685H9.83383H9.83081H9.82779H9.82477H9.82175H9.81873H9.81571H9.81269H9.80966H9.80664H9.80362H9.8006H9.79758H9.79456H9.79154H9.78852H9.78549H9.78247H9.77945H9.77643H9.77341H9.77039H9.76737H9.76435H9.76132H9.7583H9.75528H9.75226H9.74924H9.74622H9.7432H9.74018H9.73715H9.73413H9.73111H9.72809H9.72507H9.72205H9.71903H9.71601H9.71299H9.70996H9.70694H9.70392H9.7009H9.69788H9.69486H9.69184H9.68882H9.68579H9.68277H9.67975H9.67673H9.67371H9.67069H9.66767H9.66465H9.66162H9.6586H9.65558H9.65256H9.64954H9.64652H9.6435H9.64048H9.63745H9.63443H9.63141H9.62839H9.62537H9.62235H9.61933H9.61631H9.61328H9.61026H9.60724H9.60422H9.6012H9.59818H9.59516H9.59214H9.58912H9.58609H9.58307H9.58005H9.57703H9.57401H9.57099H9.56797H9.56495H9.56192H9.5589H9.55588H9.55286H9.54984H9.54682H9.5438H9.54078H9.53775H9.53473H9.53171H9.52869H9.52567H9.52265H9.51963H9.51661H9.51358H9.51056H9.50754H9.50452H9.5015H9.49848H9.49546H9.49243H9.48941H9.48639H9.48337H9.48035H9.47733H9.47431H9.47129H9.46826H9.46524H9.46222H9.4592H9.45618H9.45316H9.45014H9.44712H9.44409H9.44107H9.43805H9.43503H9.43201H9.42899H9.42597H9.42295H9.41992H9.4169H9.41388H9.41086H9.40784H9.40482H9.4018H9.39878H9.39575H9.39273H9.38971H9.38669H9.38367H9.38065H9.37763H9.37461H9.37158H9.36856H9.36554H9.36252H9.3595H9.35648H9.35346H9.35044H9.34741H9.34439H9.34137H9.33835H9.33533H9.33231H9.32929H9.32627H9.32324H9.32022H9.3172H9.31418H9.31116H9.30814H9.30512H9.3021H9.29907H9.29605H9.29303H9.29001H9.28699H9.28397H9.28095H9.27792H9.2749H9.27188H9.26886H9.26584H9.26282H9.2598H9.25678H9.25375H9.25073H9.24771H9.24469H9.24167H9.23865H9.23563H9.2326H9.22958H9.22656H9.21406L9.21415 19.0992C5.65511 18.6541 3.11188 16.8045 1.59495 13.558L1.59287 13.5535L1.59298 13.5535C1.22741 12.6593 0.996537 11.7359 0.900505 10.7835L0.899493 10.7734L9.22656 0.899493ZM9.22656 0.899493L9.21653 0.900505M9.22656 0.899493L9.21653 0.900505M9.21653 0.900505L9.22656 1L9.21653 0.900505ZM0.9 9.22656V9.21406L1 9.22656H0.9ZM0.9 9.22656V9.22958M0.9 9.22656V9.22958M0.9 9.22958V9.2326M0.9 9.22958V9.2326M0.9 9.2326V9.23563M0.9 9.2326V9.23563M0.9 9.23563V9.23865M0.9 9.23563V9.23865M0.9 9.23865V9.24167M0.9 9.23865V9.24167M0.9 9.24167V9.24469M0.9 9.24167V9.24469M0.9 9.24469V9.24771M0.9 9.24469V9.24771M0.9 9.24771V9.25073M0.9 9.24771V9.25073M0.9 9.25073V9.25375M0.9 9.25073V9.25375M0.9 9.25375V9.25678M0.9 9.25375V9.25678M0.9 9.25678V9.2598M0.9 9.25678V9.2598M0.9 9.2598V9.26282M0.9 9.2598V9.26282M0.9 9.26282V9.26584M0.9 9.26282V9.26584M0.9 9.26584V9.26886M0.9 9.26584V9.26886M0.9 9.26886V9.27188M0.9 9.26886V9.27188M0.9 9.27188V9.2749M0.9 9.27188V9.2749M0.9 9.2749V9.27792M0.9 9.2749V9.27792M0.9 9.27792V9.28095M0.9 9.27792V9.28095M0.9 9.28095V9.28397M0.9 9.28095V9.28397M0.9 9.28397V9.28699M0.9 9.28397V9.28699M0.9 9.28699V9.29001M0.9 9.28699V9.29001M0.9 9.29001V9.29303M0.9 9.29001V9.29303M0.9 9.29303V9.29605M0.9 9.29303V9.29605M0.9 9.29605V9.29907M0.9 9.29605V9.29907M0.9 9.29907V9.3021M0.9 9.29907V9.3021M0.9 9.3021V9.30512M0.9 9.3021V9.30512M0.9 9.30512V9.30814M0.9 9.30512V9.30814M0.9 9.30814V9.31116M0.9 9.30814V9.31116M0.9 9.31116V9.31418M0.9 9.31116V9.31418M0.9 9.31418V9.3172M0.9 9.31418V9.3172M0.9 9.3172V9.32022M0.9 9.3172V9.32022M0.9 9.32022V9.32324M0.9 9.32022V9.32324M0.9 9.32324V9.32627M0.9 9.32324V9.32627M0.9 9.32627V9.32929M0.9 9.32627V9.32929M0.9 9.32929V9.33231M0.9 9.32929V9.33231M0.9 9.33231V9.33533M0.9 9.33231V9.33533M0.9 9.33533V9.33835M0.9 9.33533V9.33835M0.9 9.33835V9.34137M0.9 9.33835V9.34137M0.9 9.34137V9.34439M0.9 9.34137V9.34439M0.9 9.34439V9.34741M0.9 9.34439V9.34741M0.9 9.34741V9.35044M0.9 9.34741V9.35044M0.9 9.35044V9.35346M0.9 9.35044V9.35346M0.9 9.35346V9.35648M0.9 9.35346V9.35648M0.9 9.35648V9.3595M0.9 9.35648V9.3595M0.9 9.3595V9.36252M0.9 9.3595V9.36252M0.9 9.36252V9.36554M0.9 9.36252V9.36554M0.9 9.36554V9.36856M0.9 9.36554V9.36856M0.9 9.36856V9.37158M0.9 9.36856V9.37158M0.9 9.37158V9.37461M0.9 9.37158V9.37461M0.9 9.37461V9.37763M0.9 9.37461V9.37763M0.9 9.37763V9.38065M0.9 9.37763V9.38065M0.9 9.38065V9.38367M0.9 9.38065V9.38367M0.9 9.38367V9.38669M0.9 9.38367V9.38669M0.9 9.38669V9.38971M0.9 9.38669V9.38971M0.9 9.38971V9.39273M0.9 9.38971V9.39273M0.9 9.39273V9.39575M0.9 9.39273V9.39575M0.9 9.39575V9.39878M0.9 9.39575V9.39878M0.9 9.39878V9.4018M0.9 9.39878V9.4018M0.9 9.4018V9.40482M0.9 9.4018V9.40482M0.9 9.40482V9.40784M0.9 9.40482V9.40784M0.9 9.40784V9.41086M0.9 9.40784V9.41086M0.9 9.41086V9.41388M0.9 9.41086V9.41388M0.9 9.41388V9.4169M0.9 9.41388V9.4169M0.9 9.4169V9.41992M0.9 9.4169V9.41992M0.9 9.41992V9.42295M0.9 9.41992V9.42295M0.9 9.42295V9.42597M0.9 9.42295V9.42597M0.9 9.42597V9.42899M0.9 9.42597V9.42899M0.9 9.42899V9.43201M0.9 9.42899V9.43201M0.9 9.43201V9.43503M0.9 9.43201V9.43503M0.9 9.43503V9.43805M0.9 9.43503V9.43805M0.9 9.43805V9.44107M0.9 9.43805V9.44107M0.9 9.44107V9.44409M0.9 9.44107V9.44409M0.9 9.44409V9.44712M0.9 9.44409V9.44712M0.9 9.44712V9.45014M0.9 9.44712V9.45014M0.9 9.45014V9.45316M0.9 9.45014V9.45316M0.9 9.45316V9.45618M0.9 9.45316V9.45618M0.9 9.45618V9.4592M0.9 9.45618V9.4592M0.9 9.4592V9.46222M0.9 9.4592V9.46222M0.9 9.46222V9.46524M0.9 9.46222V9.46524M0.9 9.46524V9.46826M0.9 9.46524V9.46826M0.9 9.46826V9.47129M0.9 9.46826V9.47129M0.9 9.47129V9.47431M0.9 9.47129V9.47431M0.9 9.47431V9.47733M0.9 9.47431V9.47733M0.9 9.47733V9.48035M0.9 9.47733V9.48035M0.9 9.48035V9.48337M0.9 9.48035V9.48337M0.9 9.48337V9.48639M0.9 9.48337V9.48639M0.9 9.48639V9.48941M0.9 9.48639V9.48941M0.9 9.48941V9.49243M0.9 9.48941V9.49243M0.9 9.49243V9.49546M0.9 9.49243V9.49546M0.9 9.49546V9.49848M0.9 9.49546V9.49848M0.9 9.49848V9.5015M0.9 9.49848V9.5015M0.9 9.5015V9.50452M0.9 9.5015V9.50452M0.9 9.50452V9.50754M0.9 9.50452V9.50754M0.9 9.50754V9.51056M0.9 9.50754V9.51056M0.9 9.51056V9.51358M0.9 9.51056V9.51358M0.9 9.51358V9.51661M0.9 9.51358V9.51661M0.9 9.51661V9.51963M0.9 9.51661V9.51963M0.9 9.51963V9.52265M0.9 9.51963V9.52265M0.9 9.52265V9.52567M0.9 9.52265V9.52567M0.9 9.52567V9.52869M0.9 9.52567V9.52869M0.9 9.52869V9.53171M0.9 9.52869V9.53171M0.9 9.53171V9.53473M0.9 9.53171V9.53473M0.9 9.53473V9.53775M0.9 9.53473V9.53775M0.9 9.53775V9.54078M0.9 9.53775V9.54078M0.9 9.54078V9.5438M0.9 9.54078V9.5438M0.9 9.5438V9.54682M0.9 9.5438V9.54682M0.9 9.54682V9.54984M0.9 9.54682V9.54984M0.9 9.54984V9.55286M0.9 9.54984V9.55286M0.9 9.55286V9.55588M0.9 9.55286V9.55588M0.9 9.55588V9.5589M0.9 9.55588V9.5589M0.9 9.5589V9.56192M0.9 9.5589V9.56192M0.9 9.56192V9.56495M0.9 9.56192V9.56495M0.9 9.56495V9.56797M0.9 9.56495V9.56797M0.9 9.56797V9.57099M0.9 9.56797V9.57099M0.9 9.57099V9.57401M0.9 9.57099V9.57401M0.9 9.57401V9.57703M0.9 9.57401V9.57703M0.9 9.57703V9.58005M0.9 9.57703V9.58005M0.9 9.58005V9.58307M0.9 9.58005V9.58307M0.9 9.58307V9.58609M0.9 9.58307V9.58609M0.9 9.58609V9.58912M0.9 9.58609V9.58912M0.9 9.58912V9.59214M0.9 9.58912V9.59214M0.9 9.59214V9.59516M0.9 9.59214V9.59516M0.9 9.59516V9.59818M0.9 9.59516V9.59818M0.9 9.59818V9.6012M0.9 9.59818V9.6012M0.9 9.6012V9.60422M0.9 9.6012V9.60422M0.9 9.60422V9.60724M0.9 9.60422V9.60724M0.9 9.60724V9.61026M0.9 9.60724V9.61026M0.9 9.61026V9.61328M0.9 9.61026V9.61328M0.9 9.61328V9.61631M0.9 9.61328V9.61631M0.9 9.61631V9.61933M0.9 9.61631V9.61933M0.9 9.61933V9.62235M0.9 9.61933V9.62235M0.9 9.62235V9.62537M0.9 9.62235V9.62537M0.9 9.62537V9.62839M0.9 9.62537V9.62839M0.9 9.62839V9.63141M0.9 9.62839V9.63141M0.9 9.63141V9.63443M0.9 9.63141V9.63443M0.9 9.63443V9.63745M0.9 9.63443V9.63745M0.9 9.63745V9.64048M0.9 9.63745V9.64048M0.9 9.64048V9.6435M0.9 9.64048V9.6435M0.9 9.6435V9.64652M0.9 9.6435V9.64652M0.9 9.64652V9.64954M0.9 9.64652V9.64954M0.9 9.64954V9.65256M0.9 9.64954V9.65256M0.9 9.65256V9.65558M0.9 9.65256V9.65558M0.9 9.65558V9.6586M0.9 9.65558V9.6586M0.9 9.6586V9.66162M0.9 9.6586V9.66162M0.9 9.66162V9.66465M0.9 9.66162V9.66465M0.9 9.66465V9.66767M0.9 9.66465V9.66767M0.9 9.66767V9.67069M0.9 9.66767V9.67069M0.9 9.67069V9.67371M0.9 9.67069V9.67371M0.9 9.67371V9.67673M0.9 9.67371V9.67673M0.9 9.67673V9.67975M0.9 9.67673V9.67975M0.9 9.67975V9.68277M0.9 9.67975V9.68277M0.9 9.68277V9.68579M0.9 9.68277V9.68579M0.9 9.68579V9.68882M0.9 9.68579V9.68882M0.9 9.68882V9.69184M0.9 9.68882V9.69184M0.9 9.69184V9.69486M0.9 9.69184V9.69486M0.9 9.69486V9.69788M0.9 9.69486V9.69788M0.9 9.69788V9.7009M0.9 9.69788V9.7009M0.9 9.7009V9.70392M0.9 9.7009V9.70392M0.9 9.70392V9.70694M0.9 9.70392V9.70694M0.9 9.70694V9.70996M0.9 9.70694V9.70996M0.9 9.70996V9.71299M0.9 9.70996V9.71299M0.9 9.71299V9.71601M0.9 9.71299V9.71601M0.9 9.71601V9.71903M0.9 9.71601V9.71903M0.9 9.71903V9.72205M0.9 9.71903V9.72205M0.9 9.72205V9.72507M0.9 9.72205V9.72507M0.9 9.72507V9.72809M0.9 9.72507V9.72809M0.9 9.72809V9.73111M0.9 9.72809V9.73111M0.9 9.73111V9.73413M0.9 9.73111V9.73413M0.9 9.73413V9.73715M0.9 9.73413V9.73715M0.9 9.73715V9.74018M0.9 9.73715V9.74018M0.9 9.74018V9.7432M0.9 9.74018V9.7432M0.9 9.7432V9.74622M0.9 9.7432V9.74622M0.9 9.74622V9.74924M0.9 9.74622V9.74924M0.9 9.74924V9.75226M0.9 9.74924V9.75226M0.9 9.75226V9.75528M0.9 9.75226V9.75528M0.9 9.75528V9.7583M0.9 9.75528V9.7583M0.9 9.7583V9.76132M0.9 9.7583V9.76132M0.9 9.76132V9.76435M0.9 9.76132V9.76435M0.9 9.76435V9.76737M0.9 9.76435V9.76737M0.9 9.76737V9.77039M0.9 9.76737V9.77039M0.9 9.77039V9.77341M0.9 9.77039V9.77341M0.9 9.77341V9.77643M0.9 9.77341V9.77643M0.9 9.77643V9.77945M0.9 9.77643V9.77945M0.9 9.77945V9.78247M0.9 9.77945V9.78247M0.9 9.78247V9.78549M0.9 9.78247V9.78549M0.9 9.78549V9.78852M0.9 9.78549V9.78852M0.9 9.78852V9.79154M0.9 9.78852V9.79154M0.9 9.79154V9.79456M0.9 9.79154V9.79456M0.9 9.79456V9.79758M0.9 9.79456V9.79758M0.9 9.79758V9.8006M0.9 9.79758V9.8006M0.9 9.8006V9.80362M0.9 9.8006V9.80362M0.9 9.80362V9.80664M0.9 9.80362V9.80664M0.9 9.80664V9.80966M0.9 9.80664V9.80966M0.9 9.80966V9.81269M0.9 9.80966V9.81269M0.9 9.81269V9.81571M0.9 9.81269V9.81571M0.9 9.81571V9.81873M0.9 9.81571V9.81873M0.9 9.81873V9.82175M0.9 9.81873V9.82175M0.9 9.82175V9.82477M0.9 9.82175V9.82477M0.9 9.82477V9.82779M0.9 9.82477V9.82779M0.9 9.82779V9.83081M0.9 9.82779V9.83081M0.9 9.83081V9.83383M0.9 9.83081V9.83383M0.9 9.83383V9.83685M0.9 9.83383V9.83685M0.9 9.83685V9.83988M0.9 9.83685V9.83988M0.9 9.83988V9.8429M0.9 9.83988V9.8429M0.9 9.8429V9.84592M0.9 9.8429V9.84592M0.9 9.84592V9.84894M0.9 9.84592V9.84894M0.9 9.84894V9.85196M0.9 9.84894V9.85196M0.9 9.85196V9.85498M0.9 9.85196V9.85498M0.9 9.85498V9.858M0.9 9.85498V9.858M0.9 9.858V9.86102M0.9 9.858V9.86102M0.9 9.86102V9.86405M0.9 9.86102V9.86405M0.9 9.86405V9.86707M0.9 9.86405V9.86707M0.9 9.86707V9.87009M0.9 9.86707V9.87009M0.9 9.87009V9.87311M0.9 9.87009V9.87311M0.9 9.87311V9.87613M0.9 9.87311V9.87613M0.9 9.87613V9.87915M0.9 9.87613V9.87915M0.9 9.87915V9.88217M0.9 9.87915V9.88217M0.9 9.88217V9.88519M0.9 9.88217V9.88519M0.9 9.88519V9.88822M0.9 9.88519V9.88822M0.9 9.88822V9.89124M0.9 9.88822V9.89124M0.9 9.89124V9.89426M0.9 9.89124V9.89426M0.9 9.89426V9.89728M0.9 9.89426V9.89728M0.9 9.89728V9.9003M0.9 9.89728V9.9003M0.9 9.9003V9.90332M0.9 9.9003V9.90332M0.9 9.90332V9.90634M0.9 9.90332V9.90634M0.9 9.90634V9.90936M0.9 9.90634V9.90936M0.9 9.90936V9.91238M0.9 9.90936V9.91238M0.9 9.91238V9.91541M0.9 9.91238V9.91541M0.9 9.91541V9.91843M0.9 9.91541V9.91843M0.9 9.91843V9.92145M0.9 9.91843V9.92145M0.9 9.92145V9.92447M0.9 9.92145V9.92447M0.9 9.92447V9.92749M0.9 9.92447V9.92749M0.9 9.92749V9.93051M0.9 9.92749V9.93051M0.9 9.93051V9.93353M0.9 9.93051V9.93353M0.9 9.93353V9.93655M0.9 9.93353V9.93655M0.9 9.93655V9.93958M0.9 9.93655V9.93958M0.9 9.93958V9.9426M0.9 9.93958V9.9426M0.9 9.9426V9.94562M0.9 9.9426V9.94562M0.9 9.94562V9.94864M0.9 9.94562V9.94864M0.9 9.94864V9.95166M0.9 9.94864V9.95166M0.9 9.95166V9.95468M0.9 9.95166V9.95468M0.9 9.95468V9.9577M0.9 9.95468V9.9577M0.9 9.9577V9.96072M0.9 9.9577V9.96072M0.9 9.96072V9.96375M0.9 9.96072V9.96375M0.9 9.96375V9.96677M0.9 9.96375V9.96677M0.9 9.96677V9.96979M0.9 9.96677V9.96979M0.9 9.96979V9.97281M0.9 9.96979V9.97281M0.9 9.97281V9.97583M0.9 9.97281V9.97583M0.9 9.97583V9.97885M0.9 9.97583V9.97885M0.9 9.97885V9.98187M0.9 9.97885V9.98187M0.9 9.98187V9.98489M0.9 9.98187V9.98489M0.9 9.98489V9.98792M0.9 9.98489V9.98792M0.9 9.98792V9.99094M0.9 9.98792V9.99094M0.9 9.99094V9.99396M0.9 9.99094V9.99396M0.9 9.99396V9.99698M0.9 9.99396V9.99698M0.9 9.99698V10M0.9 9.99698V10M0.9 10V10.003M0.9 10V10.003M0.9 10.003V10.006M0.9 10.003V10.006M0.9 10.006V10.0091M0.9 10.006V10.0091M0.9 10.0091V10.0121M0.9 10.0091V10.0121M0.9 10.0121V10.0151M0.9 10.0121V10.0151M0.9 10.0151V10.0181M0.9 10.0151V10.0181M0.9 10.0181V10.0211M0.9 10.0181V10.0211M0.9 10.0211V10.0242M0.9 10.0211V10.0242M0.9 10.0242V10.0272M0.9 10.0242V10.0272M0.9 10.0272V10.0302M0.9 10.0272V10.0302M0.9 10.0302V10.0332M0.9 10.0302V10.0332M0.9 10.0332V10.0363M0.9 10.0332V10.0363M0.9 10.0363V10.0393M0.9 10.0363V10.0393M0.9 10.0393V10.0423M0.9 10.0393V10.0423M0.9 10.0423V10.0453M0.9 10.0423V10.0453M0.9 10.0453V10.0483M0.9 10.0453V10.0483M0.9 10.0483V10.0514M0.9 10.0483V10.0514M0.9 10.0514V10.0544M0.9 10.0514V10.0544M0.9 10.0544V10.0574M0.9 10.0544V10.0574M0.9 10.0574V10.0604M0.9 10.0574V10.0604M0.9 10.0604V10.0634M0.9 10.0604V10.0634M0.9 10.0634V10.0665M0.9 10.0634V10.0665M0.9 10.0665V10.0695M0.9 10.0665V10.0695M0.9 10.0695V10.0725M0.9 10.0695V10.0725M0.9 10.0725V10.0755M0.9 10.0725V10.0755M0.9 10.0755V10.0786M0.9 10.0755V10.0786M0.9 10.0786V10.0816M0.9 10.0786V10.0816M0.9 10.0816V10.0846M0.9 10.0816V10.0846M0.9 10.0846V10.0876M0.9 10.0846V10.0876M0.9 10.0876V10.0906M0.9 10.0876V10.0906M0.9 10.0906V10.0937M0.9 10.0906V10.0937M0.9 10.0937V10.0967M0.9 10.0937V10.0967M0.9 10.0967V10.0997M0.9 10.0967V10.0997M0.9 10.0997V10.1027M0.9 10.0997V10.1027M0.9 10.1027V10.1057M0.9 10.1027V10.1057M0.9 10.1057V10.1088M0.9 10.1057V10.1088M0.9 10.1088V10.1118M0.9 10.1088V10.1118M0.9 10.1118V10.1148M0.9 10.1118V10.1148M0.9 10.1148V10.1178M0.9 10.1148V10.1178M0.9 10.1178V10.1208M0.9 10.1178V10.1208M0.9 10.1208V10.1239M0.9 10.1208V10.1239M0.9 10.1239V10.1269M0.9 10.1239V10.1269M0.9 10.1269V10.1299M0.9 10.1269V10.1299M0.9 10.1299V10.1329M0.9 10.1299V10.1329M0.9 10.1329V10.136M0.9 10.1329V10.136M0.9 10.136V10.139M0.9 10.136V10.139M0.9 10.139V10.142M0.9 10.139V10.142M0.9 10.142V10.145M0.9 10.142V10.145M0.9 10.145V10.148M0.9 10.145V10.148M0.9 10.148V10.1511M0.9 10.148V10.1511M0.9 10.1511V10.1541M0.9 10.1511V10.1541M0.9 10.1541V10.1571M0.9 10.1541V10.1571M0.9 10.1571V10.1601M0.9 10.1571V10.1601M0.9 10.1601V10.1631M0.9 10.1601V10.1631M0.9 10.1631V10.1662M0.9 10.1631V10.1662M0.9 10.1662V10.1692M0.9 10.1662V10.1692M0.9 10.1692V10.1722M0.9 10.1692V10.1722M0.9 10.1722V10.1752M0.9 10.1722V10.1752M0.9 10.1752V10.1783M0.9 10.1752V10.1783M0.9 10.1783V10.1813M0.9 10.1783V10.1813M0.9 10.1813V10.1843M0.9 10.1813V10.1843M0.9 10.1843V10.1873M0.9 10.1843V10.1873M0.9 10.1873V10.1903M0.9 10.1873V10.1903M0.9 10.1903V10.1934M0.9 10.1903V10.1934M0.9 10.1934V10.1964M0.9 10.1934V10.1964M0.9 10.1964V10.1994M0.9 10.1964V10.1994M0.9 10.1994V10.2024M0.9 10.1994V10.2024M0.9 10.2024V10.2054M0.9 10.2024V10.2054M0.9 10.2054V10.2085M0.9 10.2054V10.2085M0.9 10.2085V10.2115M0.9 10.2085V10.2115M0.9 10.2115V10.2145M0.9 10.2115V10.2145M0.9 10.2145V10.2175M0.9 10.2145V10.2175M0.9 10.2175V10.2205M0.9 10.2175V10.2205M0.9 10.2205V10.2236M0.9 10.2205V10.2236M0.9 10.2236V10.2266M0.9 10.2236V10.2266M0.9 10.2266V10.2296M0.9 10.2266V10.2296M0.9 10.2296V10.2326M0.9 10.2296V10.2326M0.9 10.2326V10.2357M0.9 10.2326V10.2357M0.9 10.2357V10.2387M0.9 10.2357V10.2387M0.9 10.2387V10.2417M0.9 10.2387V10.2417M0.9 10.2417V10.2447M0.9 10.2417V10.2447M0.9 10.2447V10.2477M0.9 10.2447V10.2477M0.9 10.2477V10.2508M0.9 10.2477V10.2508M0.9 10.2508V10.2538M0.9 10.2508V10.2538M0.9 10.2538V10.2568M0.9 10.2538V10.2568M0.9 10.2568V10.2598M0.9 10.2568V10.2598M0.9 10.2598V10.2628M0.9 10.2598V10.2628M0.9 10.2628V10.2659M0.9 10.2628V10.2659M0.9 10.2659V10.2689M0.9 10.2659V10.2689M0.9 10.2689V10.2719M0.9 10.2689V10.2719M0.9 10.2719V10.2749M0.9 10.2719V10.2749M0.9 10.2749V10.278M0.9 10.2749V10.278M0.9 10.278V10.281M0.9 10.278V10.281M0.9 10.281V10.284M0.9 10.281V10.284M0.9 10.284V10.287M0.9 10.284V10.287M0.9 10.287V10.29M0.9 10.287V10.29M0.9 10.29V10.2931M0.9 10.29V10.2931M0.9 10.2931V10.2961M0.9 10.2931V10.2961M0.9 10.2961V10.2991M0.9 10.2961V10.2991M0.9 10.2991V10.3021M0.9 10.2991V10.3021M0.9 10.3021V10.3051M0.9 10.3021V10.3051M0.9 10.3051V10.3082M0.9 10.3051V10.3082M0.9 10.3082V10.3112M0.9 10.3082V10.3112M0.9 10.3112V10.3142M0.9 10.3112V10.3142M0.9 10.3142V10.3172M0.9 10.3142V10.3172M0.9 10.3172V10.3202M0.9 10.3172V10.3202M0.9 10.3202V10.3233M0.9 10.3202V10.3233M0.9 10.3233V10.3263M0.9 10.3233V10.3263M0.9 10.3263V10.3293M0.9 10.3263V10.3293M0.9 10.3293V10.3323M0.9 10.3293V10.3323M0.9 10.3323V10.3354M0.9 10.3323V10.3354M0.9 10.3354V10.3384M0.9 10.3354V10.3384M0.9 10.3384V10.3414M0.9 10.3384V10.3414M0.9 10.3414V10.3444M0.9 10.3414V10.3444M0.9 10.3444V10.3474M0.9 10.3444V10.3474M0.9 10.3474V10.3505M0.9 10.3474V10.3505M0.9 10.3505V10.3535M0.9 10.3505V10.3535M0.9 10.3535V10.3565M0.9 10.3535V10.3565M0.9 10.3565V10.3595M0.9 10.3565V10.3595M0.9 10.3595V10.3625M0.9 10.3595V10.3625M0.9 10.3625V10.3656M0.9 10.3625V10.3656M0.9 10.3656V10.3686M0.9 10.3656V10.3686M0.9 10.3686V10.3716M0.9 10.3686V10.3716M0.9 10.3716V10.3746M0.9 10.3716V10.3746M0.9 10.3746V10.3777M0.9 10.3746V10.3777M0.9 10.3777V10.3807M0.9 10.3777V10.3807M0.9 10.3807V10.3837M0.9 10.3807V10.3837M0.9 10.3837V10.3867M0.9 10.3837V10.3867M0.9 10.3867V10.3897M0.9 10.3867V10.3897M0.9 10.3897V10.3928M0.9 10.3897V10.3928M0.9 10.3928V10.3958M0.9 10.3928V10.3958M0.9 10.3958V10.3988M0.9 10.3958V10.3988M0.9 10.3988V10.4018M0.9 10.3988V10.4018M0.9 10.4018V10.4048M0.9 10.4018V10.4048M0.9 10.4048V10.4079M0.9 10.4048V10.4079M0.9 10.4079V10.4109M0.9 10.4079V10.4109M0.9 10.4109V10.4139M0.9 10.4109V10.4139M0.9 10.4139V10.4169M0.9 10.4139V10.4169M0.9 10.4169V10.4199M0.9 10.4169V10.4199M0.9 10.4199V10.423M0.9 10.4199V10.423M0.9 10.423V10.426M0.9 10.423V10.426M0.9 10.426V10.429M0.9 10.426V10.429M0.9 10.429V10.432M0.9 10.429V10.432M0.9 10.432V10.4351M0.9 10.432V10.4351M0.9 10.4351V10.4381M0.9 10.4351V10.4381M0.9 10.4381V10.4411M0.9 10.4381V10.4411M0.9 10.4411V10.4441M0.9 10.4411V10.4441M0.9 10.4441V10.4471M0.9 10.4441V10.4471M0.9 10.4471V10.4502M0.9 10.4471V10.4502M0.9 10.4502V10.4532M0.9 10.4502V10.4532M0.9 10.4532V10.4562M0.9 10.4532V10.4562M0.9 10.4562V10.4592M0.9 10.4562V10.4592M0.9 10.4592V10.4622M0.9 10.4592V10.4622M0.9 10.4622V10.4653M0.9 10.4622V10.4653M0.9 10.4653V10.4683M0.9 10.4653V10.4683M0.9 10.4683V10.4713M0.9 10.4683V10.4713M0.9 10.4713V10.4743M0.9 10.4713V10.4743M0.9 10.4743V10.4774M0.9 10.4743V10.4774M0.9 10.4774V10.4804M0.9 10.4774V10.4804M0.9 10.4804V10.4834M0.9 10.4804V10.4834M0.9 10.4834V10.4864M0.9 10.4834V10.4864M0.9 10.4864V10.4894M0.9 10.4864V10.4894M0.9 10.4894V10.4925M0.9 10.4894V10.4925M0.9 10.4925V10.4955M0.9 10.4925V10.4955M0.9 10.4955V10.4985M0.9 10.4955V10.4985M0.9 10.4985V10.5015M0.9 10.4985V10.5015M0.9 10.5015V10.5045M0.9 10.5015V10.5045M0.9 10.5045V10.5076M0.9 10.5045V10.5076M0.9 10.5076V10.5106M0.9 10.5076V10.5106M0.9 10.5106V10.5136M0.9 10.5106V10.5136M0.9 10.5136V10.5166M0.9 10.5136V10.5166M0.9 10.5166V10.5197V10.5166Z" fill="white" stroke="white" stroke-width="0.2"/>
<path opacity="0.965" d="M9.76832 4.83956L9.75617 4.84221L9.74504 4.84775C9.57213 4.93387 9.44461 5.06858 9.36435 5.248L9.35702 5.26439L9.35585 5.28232C9.33995 5.52582 9.33356 5.76954 9.33661 6.01346C8.59217 6.15116 7.97245 6.50966 7.48103 7.08732L7.47529 7.09406L7.47083 7.10171C7.14527 7.65967 7.01978 8.19168 7.11013 8.69329C7.20048 9.19489 7.50374 9.64986 8.00357 10.0595L8.00321 10.06L8.01222 10.0659C8.72945 10.535 9.52025 10.7517 10.3816 10.7153C10.7158 10.7686 11.012 10.9011 11.272 11.1133C11.5054 11.317 11.593 11.5636 11.5396 11.866C11.3306 12.2755 11.0007 12.5275 10.5422 12.6266C9.80016 12.782 9.13936 12.6251 8.55135 12.1541L8.53384 12.1401L8.51203 12.1349C8.24586 12.0715 8.00671 12.1327 7.80603 12.3167L7.79502 12.3268L7.78744 12.3396C7.68148 12.5196 7.63434 12.6998 7.65867 12.8771C7.68301 13.0544 7.77697 13.215 7.9275 13.3591L7.92714 13.3595L7.93518 13.3658C8.35079 13.6897 8.81841 13.8969 9.3366 13.9871C9.33357 14.2307 9.33997 14.4741 9.35585 14.7172L9.35689 14.7332L9.36284 14.748C9.41814 14.8856 9.49987 14.9947 9.61166 15.0668C9.72237 15.1383 9.85402 15.1679 10.0006 15.1623C10.1471 15.1679 10.2787 15.1383 10.3895 15.0668C10.5012 14.9947 10.583 14.8856 10.6383 14.748L10.6442 14.7332L10.6453 14.7172C10.6612 14.4737 10.6676 14.23 10.6645 13.9861C11.4089 13.8484 12.0287 13.4899 12.5201 12.9122L12.5258 12.9055L12.5303 12.8978C12.8559 12.3399 12.9813 11.8079 12.891 11.3062C12.8006 10.8046 12.4974 10.3497 11.9975 9.94L11.9979 9.93956L11.9889 9.93366C11.2717 9.46451 10.4809 9.24785 9.61949 9.28419C9.28536 9.2309 8.98915 9.09842 8.72911 8.88622C8.49573 8.68258 8.40807 8.43595 8.46155 8.13356C8.67052 7.72408 9.00041 7.47202 9.45888 7.37297C10.2009 7.21751 10.8617 7.37447 11.4498 7.8454L11.4673 7.85942L11.4891 7.86462C11.7553 7.92807 11.9944 7.86682 12.1951 7.68286L12.2061 7.67276L12.2137 7.65989C12.3196 7.47998 12.3668 7.29972 12.3424 7.12246C12.3181 6.94518 12.2242 6.78455 12.0736 6.64043L12.074 6.64005L12.0659 6.63378C11.6503 6.30986 11.1827 6.1026 10.6645 6.01244C10.6675 5.76886 10.6611 5.52548 10.6453 5.28232L10.6439 5.26187L10.6347 5.24359C10.5485 5.07373 10.4317 4.948 10.2807 4.87779C10.13 4.8077 9.95703 4.79842 9.76832 4.83956Z" fill="white" stroke="white" stroke-width="0.2"/>
</g>
</svg>
