<svg width="50" height="38" viewBox="0 0 50 38" fill="none" xmlns="http://www.w3.org/2000/svg">
<path opacity="0.986" fill-rule="evenodd" clip-rule="evenodd" d="M0 3.96094C0 13.987 0 24.013 0 34.0391C0.535645 35.9581 1.77266 37.1788 3.71094 37.7012C17.9036 37.7663 32.0964 37.7663 46.2891 37.7012C48.2274 37.1788 49.4643 35.9581 50 34.0391C50 24.013 50 13.987 50 3.96094C49.4643 2.04188 48.2274 0.821174 46.2891 0.298831C32.0964 0.233723 17.9036 0.233723 3.71094 0.298831C1.77266 0.821174 0.535645 2.04188 0 3.96094ZM45.3125 3.375C31.6047 3.32697 17.9002 3.37579 4.19922 3.52149C11.1184 9.54561 18.052 15.5515 25 21.5391C31.948 15.5515 38.8816 9.54561 45.8008 3.52149C45.617 3.50214 45.4543 3.45331 45.3125 3.375ZM46.875 6.89063C40.089 12.7425 33.3182 18.6182 26.5625 24.5176C26.264 24.7835 25.9385 25.0113 25.5859 25.2012C25.1953 25.2663 24.8047 25.2663 24.4141 25.2012C17.2764 19.1707 10.1963 13.0672 3.17383 6.89063C3.10869 15.6146 3.10869 24.3386 3.17383 33.0625C3.28779 33.9577 3.79229 34.4622 4.6875 34.5762C18.2292 34.6413 31.7708 34.6413 45.3125 34.5762C46.2077 34.4622 46.7122 33.9577 46.8262 33.0625C46.875 24.3386 46.8913 15.6147 46.875 6.89063Z" fill="#FF0079"/>
</svg>
