<svg width="118" height="88" viewBox="0 0 118 88" fill="none" xmlns="http://www.w3.org/2000/svg">
<path d="M77.8406 24.8892C78.4061 26.6343 79.7729 27.8517 81.166 27.8517H81.3645C83.2369 31.1684 85.8957 33.1283 88.5358 33.1283C91.1759 33.1283 93.8047 31.2136 95.7071 27.8517C97.0665 27.7951 98.3809 26.5928 98.9314 24.893C99.5306 23.0387 99.0625 21.222 97.8716 20.4493C97.8716 20.3551 97.8716 20.2609 97.8716 20.1704C97.8716 14.5735 93.6812 10.0167 88.532 10.0167C83.3829 10.0167 79.2075 14.5697 79.2075 20.1667C79.2075 20.2081 79.2075 20.2458 79.2075 20.2835C77.7919 20.9506 77.1928 22.8879 77.8406 24.8892Z" fill="white"/>
<path d="M117.446 68.7491L106.961 37.6397C106.926 37.5373 106.87 37.4436 106.797 37.3649C106.723 37.2862 106.633 37.2244 106.534 37.1837C100.624 34.7539 94.3019 33.5033 87.9183 33.5013C76.961 33.5013 69.4901 37.1724 69.4189 37.2063C69.2422 37.2954 69.1076 37.4512 69.0445 37.6397L58.9859 67.185L52.7433 48.6829L49.0659 37.3759C49.0287 37.2613 48.9648 37.1573 48.8794 37.0727C48.7941 36.9881 48.6898 36.9253 48.5753 36.8897C48.3319 36.8143 42.5836 35.0052 40.6588 34.6094C39.9398 34.4587 39.1833 34.3268 38.4119 34.2325C35.6269 33.7457 32.8053 33.501 29.9786 33.5013C27.2511 33.5019 24.5282 33.7275 21.8374 34.176C19.5531 34.421 14.007 35.2125 11.3519 37.2892C11.2357 37.3769 11.1483 37.4977 11.101 37.6359L5.06064 55.1204C5.02026 55.2417 5.01124 55.3714 5.03443 55.4973L0.540659 68.7378C0.501914 68.8513 0.490641 68.9724 0.50778 69.0912C0.524919 69.2099 0.569973 69.3228 0.639196 69.4205C0.70842 69.5182 0.799814 69.5978 0.905777 69.6528C1.01174 69.7078 1.12921 69.7365 1.24843 69.7366H1.28213L10.1124 69.3107C10.2386 69.3054 10.3614 69.2681 10.4695 69.2022C10.5775 69.1363 10.6672 69.044 10.7303 68.9338L13.9883 63.1634C14.0284 63.1234 14.0625 63.0777 14.0894 63.0278L15.2128 61.0038L16.6359 68.881C16.6678 69.0566 16.7605 69.2151 16.8977 69.3283C17.0348 69.4415 17.2075 69.502 17.3848 69.4991H42.7447C42.922 69.502 43.0946 69.4415 43.2318 69.3283C43.3689 69.2151 43.4617 69.0566 43.4936 68.881L44.8343 61.4523L45.8753 63.2162C45.9109 63.2786 45.9564 63.3346 46.0101 63.382L49.3505 68.9639C49.4125 69.0726 49.5005 69.1639 49.6064 69.2297C49.7123 69.2955 49.8329 69.3337 49.9572 69.3408L58.7874 69.7667H58.8211C58.8818 69.7671 58.9422 69.7595 59.0009 69.7441C59.0597 69.759 59.12 69.7665 59.1806 69.7667H59.2181L68.0483 69.3408C68.1739 69.3349 68.296 69.2973 68.4033 69.2314C68.5107 69.1656 68.5998 69.0736 68.6625 68.9639L73.1563 61.0038L74.583 68.8961C74.6149 69.0717 74.7077 69.2302 74.8449 69.3434C74.982 69.4566 75.1546 69.5171 75.332 69.5142H100.688C100.865 69.5171 101.038 69.4566 101.175 69.3434C101.312 69.2302 101.405 69.0717 101.437 68.8961L102.785 61.4448L107.279 68.9828C107.342 69.0903 107.431 69.1808 107.536 69.2464C107.642 69.3121 107.762 69.3509 107.886 69.3597L116.716 69.7856H116.753C116.869 69.785 116.983 69.7575 117.086 69.7052C117.19 69.6529 117.279 69.5772 117.349 69.4841C117.427 69.3804 117.476 69.2582 117.493 69.1295C117.51 69.0007 117.494 68.8697 117.446 68.7491Z" fill="white"/>
<path d="M20.5866 13.3599C20.1791 13.2662 19.7797 13.1401 19.392 12.983C19.3015 12.9462 19.205 12.927 19.1074 12.9264C18.9757 12.9259 18.8462 12.9604 18.7319 13.0263C18.6176 13.0922 18.5226 13.1874 18.4565 13.302C18.3905 13.4167 18.3556 13.5469 18.3555 13.6795C18.3553 13.8121 18.3899 13.9423 18.4558 14.0571C19.2045 15.3733 20.3456 16.4189 21.7175 17.046C21.4176 18.0561 21.2662 19.1049 21.2682 20.1592V20.276C19.8601 20.9243 19.2647 22.8804 19.9125 24.8817C20.478 26.6268 21.8449 27.8442 23.2379 27.8442H23.4327C25.3051 31.1609 27.9676 33.1208 30.6077 33.1208C33.2478 33.1208 35.8767 31.2061 37.779 27.8442C39.1346 27.7876 40.4528 26.5853 41.0033 24.8855C41.6025 23.0311 41.1344 21.2145 39.9398 20.4418C39.9398 20.3476 39.9398 20.2534 39.9398 20.1629C39.9501 18.1676 39.4053 16.2092 38.367 14.5094C36.7043 9.34588 32.716 8.74661 29.855 8.74661C28.7091 8.74661 27.5819 8.84837 26.4847 8.94636C25.5298 9.03305 24.631 9.11597 23.8371 9.11597H23.7135C20.0998 9.07451 19.9687 6.63973 19.95 6.36082C19.9505 6.17032 19.8794 5.98669 19.7508 5.84684C19.6223 5.70699 19.4459 5.62131 19.2572 5.60702H19.1973C19.0194 5.60426 18.8463 5.66533 18.7091 5.77927C18.5719 5.89322 18.4794 6.05261 18.4483 6.22891C18.0064 8.77299 18.3809 10.8271 19.553 12.3347C19.8521 12.72 20.1995 13.0646 20.5866 13.3599Z" fill="white"/>
<path d="M45.8375 27.9384C46.7274 29.4274 47.9225 30.7082 49.3432 31.6954C50.7638 32.6827 52.3774 33.3536 54.0761 33.6635C55.4986 33.9248 56.9564 33.9248 58.3789 33.6635C60.0774 33.3529 61.6906 32.6817 63.1112 31.6945C64.5318 30.7074 65.7271 29.4269 66.6175 27.9384C67.4355 26.5801 67.9789 25.0725 68.2165 23.5023L68.928 22.8653L73.1335 19.0963L72.9387 20.4418C72.9245 20.5402 72.9297 20.6405 72.9541 20.7369C72.9785 20.8333 73.0217 20.9239 73.081 21.0034C73.1996 21.1627 73.3759 21.2684 73.5716 21.2974L75.8821 21.6328C75.9182 21.6366 75.9546 21.6366 75.9907 21.6328C76.1719 21.6348 76.3477 21.5705 76.4854 21.452C76.6231 21.3335 76.7134 21.1688 76.7397 20.9883L77.2827 17.1816L77.8744 13.0809C77.8897 12.9766 77.883 12.8702 77.8549 12.7686C77.8268 12.667 77.7778 12.5724 77.7111 12.4911C77.6444 12.4097 77.5614 12.3434 77.4677 12.2963C77.3739 12.2493 77.2713 12.2225 77.1666 12.2178L69.3624 11.8711H69.3287C69.1358 11.8709 68.9502 11.9457 68.8107 12.0798C68.6712 12.2139 68.5884 12.397 68.5798 12.591L68.4787 14.9391C68.4741 15.038 68.489 15.1368 68.5224 15.2299C68.5558 15.3231 68.6071 15.4087 68.6734 15.4818C68.7398 15.5551 68.82 15.6145 68.9094 15.6565C68.9987 15.6986 69.0954 15.7225 69.1939 15.7268L71.0663 15.8097L70.2837 16.5107L67.9694 18.5837C67.8074 17.9637 67.5971 17.3575 67.3402 16.7708C66.3201 14.432 64.6049 12.4688 62.4308 11.1512C62.2698 11.0532 62.1087 10.9628 61.9477 10.8723L65.348 7.57443L65.2731 9.83584C65.2696 9.93484 65.2855 10.0336 65.32 10.1264C65.3544 10.2192 65.4067 10.3043 65.4738 10.3767C65.5409 10.4492 65.6216 10.5076 65.7111 10.5487C65.8007 10.5897 65.8975 10.6126 65.9958 10.616L68.3289 10.6952H68.3476C68.5368 10.6945 68.7187 10.6218 68.8569 10.4916C68.9293 10.4249 68.9876 10.3441 69.0282 10.254C69.0687 10.164 69.0907 10.0666 69.0928 9.96775L69.2089 6.57564L69.3587 2.15083C69.3654 1.96004 69.3 1.77378 69.1755 1.62967C69.0511 1.48556 68.877 1.39434 68.6884 1.37441L60.858 0.567842L60.2326 0.5H60.1539C59.982 0.50034 59.8154 0.56023 59.6821 0.669607C59.6055 0.732125 59.5419 0.809255 59.495 0.896572C59.4481 0.983889 59.4188 1.07967 59.4087 1.17842V1.2425L59.1728 3.5039C59.1624 3.60241 59.1714 3.702 59.1993 3.797C59.2272 3.892 59.2734 3.98053 59.3353 4.05754C59.3972 4.13455 59.4736 4.19852 59.5601 4.2458C59.6466 4.29308 59.7415 4.32274 59.8394 4.33308L62.8352 4.64591L61.4272 6.01783L57.7947 9.54185C57.2709 9.47131 56.7429 9.43605 56.2144 9.43632C54.0352 9.4361 51.8964 10.0286 50.0242 11.1512C47.8586 12.4662 46.1492 14.4223 45.1298 16.752C44.4533 18.2956 44.105 19.9646 44.1074 21.6517C44.1074 21.8703 44.1074 22.0964 44.1299 22.3489C44.24 24.3239 44.8261 26.2423 45.8375 27.9384Z" fill="white"/>
<path d="M30.6082 10.7743C25.8635 10.7743 22.0176 14.9843 22.0176 20.1742C22.0176 25.3641 25.8635 32.3745 30.6082 32.3745C35.3528 32.3745 39.195 25.3679 39.195 20.1742C39.195 14.9805 35.3528 10.7743 30.6082 10.7743Z" fill="#070036"/>
<path d="M23.7351 27.0186C24.9052 26.635 25.4103 24.9539 24.8634 23.2636C24.3164 21.5733 22.9245 20.514 21.7544 20.8976C20.5843 21.2811 20.0792 22.9623 20.6261 24.6525C21.1731 26.3428 22.565 27.4021 23.7351 27.0186Z" fill="#070036"/>
<path d="M40.294 24.658C40.841 22.9678 40.3359 21.2866 39.1658 20.9031C37.9957 20.5195 36.6038 21.5788 36.0568 23.2691C35.5098 24.9594 36.015 26.6405 37.185 27.0241C38.3551 27.4076 39.7471 26.3483 40.294 24.658Z" fill="#070036"/>
<path d="M48.3133 37.8849C28.3572 29.7174 11.8089 37.8849 11.8089 37.8849L1.2373 68.9905L10.0676 68.5646L15.5874 58.8029L17.3812 68.7342H42.741L44.4412 59.3117L49.976 68.5533L58.8063 68.9792L48.3133 37.8849Z" fill="#070036"/>
<path d="M36.9926 34.8394C36.9926 39.0946 33.8245 42.547 29.9149 42.547C26.0053 42.547 22.8372 39.0946 22.8372 34.8394C22.8372 34.8394 14.9731 35.3972 11.8088 37.8847L5.76465 55.3654L13.4378 62.6433L15.5873 58.8027L17.381 68.734H42.7409L44.441 59.3115L46.5044 62.8092L54.3685 56.0249L48.3768 37.6096C48.3768 37.6096 42.4226 35.7439 40.5127 35.3482C39.3508 35.1062 38.1752 34.9362 36.9926 34.8394Z" fill="#FF0079"/>
<path d="M88.5364 10.7743C83.7917 10.7743 79.957 14.9767 79.957 20.1667C79.957 25.3566 83.803 32.3669 88.5476 32.3669C93.2923 32.3669 97.1382 25.3604 97.1382 20.1667C97.1382 14.973 93.2811 10.7743 88.5364 10.7743Z" fill="#070036"/>
<path d="M81.6619 27.013C82.832 26.6294 83.3371 24.9482 82.7901 23.258C82.2432 21.5677 80.8512 20.5084 79.6811 20.8919C78.511 21.2755 78.0059 22.9567 78.5529 24.6469C79.0999 26.3372 80.4918 27.3965 81.6619 27.013Z" fill="#070036"/>
<path d="M98.2257 24.6561C98.7727 22.9658 98.2675 21.2847 97.0974 20.9011C95.9274 20.5176 94.5354 21.5769 93.9884 23.2671C93.4415 24.9574 93.9466 26.6386 95.1167 27.0221C96.2868 27.4057 97.6787 26.3464 98.2257 24.6561Z" fill="#070036"/>
<path d="M69.7373 37.8849C69.7373 37.8849 86.2856 29.7174 106.245 37.8849C106.245 37.8849 95.8461 44.4128 88.716 44.4919C81.5859 44.5711 69.7373 37.8849 69.7373 37.8849Z" fill="#070036"/>
<path d="M116.735 68.9905L106.242 37.8811H69.7376L59.166 68.9905L67.9963 68.5608L73.5161 58.8029L75.3099 68.7342H100.67L102.37 59.3192L107.905 68.5608L116.735 68.9905Z" fill="#070036"/>
<path d="M37.8354 15.3423C37.8354 15.3423 23.1482 20.8526 19.1113 13.6953C19.1113 13.6953 21.9274 14.8788 23.9234 13.8988C23.9234 13.8988 17.9879 13.488 19.2162 6.37964C19.2162 6.37964 19.2162 9.83205 23.71 9.88105C28.2037 9.93004 35.6859 7.30681 37.8354 15.3423Z" fill="white"/>
<path d="M66.1606 5.74644L66.1306 6.56055H68.4674L68.6172 2.13196L60.783 1.31409H60.1501L59.918 3.5868L64.5278 4.06923L61.9589 6.56055H65.3217L66.1606 5.74644Z" fill="#E40303"/>
<path d="M60.6527 11.0947L65.3225 6.5719H61.9522L58.0575 10.3409C55.4129 9.90404 52.7 10.4234 50.3994 11.8071H62.042C61.5964 11.5365 61.1321 11.2984 60.6527 11.0947Z" fill="#FF8C00"/>
<path d="M66.0186 9.86597L68.3516 9.94889L68.4677 6.56055H66.1309L66.0186 9.86597Z" fill="#FF8C00"/>
<path d="M77.1336 12.9527L69.3295 12.606L69.2246 14.9503L72.9395 15.1161L70.775 17.0534H76.542L77.1336 12.9527Z" fill="#FFED00"/>
<path d="M62.0487 11.8108H50.4061C48.3686 13.037 46.7602 14.8704 45.8037 17.0572H66.6511C65.6958 14.8696 64.0872 13.0359 62.0487 11.8108Z" fill="#FFED00"/>
<path d="M74.1676 17.1816L73.6807 20.5737L75.9913 20.9091L76.5418 17.076H70.7785L67.4906 20.0159C67.3455 19.002 67.0633 18.0129 66.6517 17.076H45.8044C45.1715 18.5226 44.845 20.0861 44.8457 21.6667C44.8457 21.8853 44.8532 22.1039 44.8682 22.3225H68.4305L74.1676 17.1816Z" fill="#008026"/>
<path d="M67.513 23.1216L68.4305 22.3037H44.8682C44.97 24.1589 45.5229 25.9604 46.4784 27.5502H65.9777C66.7886 26.1969 67.3114 24.6888 67.513 23.1216Z" fill="#004DFF"/>
<path d="M65.9777 27.5503H46.4785C47.3152 28.9471 48.4379 30.1486 49.772 31.0747C51.106 32.0008 52.6207 32.6302 54.2153 32.9211H58.2372C59.8327 32.6314 61.3484 32.0025 62.6833 31.0763C64.018 30.1501 65.1412 28.948 65.9777 27.5503Z" fill="#750787"/>
<path d="M69.7894 70.8522H69.2202C68.6796 70.8451 68.1433 70.9487 67.6437 71.1567C67.1441 71.3647 66.6918 71.6727 66.3142 72.0621C66.1203 72.2539 65.9459 72.4648 65.7937 72.6915V71.9377C65.7927 71.7201 65.7064 71.5117 65.5535 71.3578C65.4006 71.204 65.1935 71.1171 64.9773 71.1161H58.2853C58.1773 71.1164 58.0704 71.1382 57.9708 71.1803C57.8712 71.2223 57.7808 71.2838 57.7049 71.3611C57.5517 71.5195 57.4658 71.7317 57.4652 71.9528L57.4877 73.6526C57.2794 73.132 56.9671 72.6599 56.5702 72.2656C56.194 71.8751 55.7426 71.5661 55.2435 71.3574C54.7445 71.1487 54.2083 71.0448 53.668 71.052L49.7884 71.0746C49.5715 71.0756 49.3639 71.163 49.2109 71.3177C49.0579 71.4724 48.972 71.6818 48.972 71.9V73.0759C48.7746 72.7008 48.5221 72.3577 48.223 72.0583C47.8469 71.6725 47.3974 71.3668 46.9013 71.1596C46.4053 70.9524 45.8728 70.8479 45.3358 70.8522H44.7553C44.2159 70.8451 43.6806 70.9487 43.1823 71.1567C42.6839 71.3647 42.2329 71.6728 41.8568 72.0621C41.4455 72.4701 41.124 72.9607 40.9132 73.5018C40.7028 72.9613 40.3826 72.471 39.9732 72.0621C39.5966 71.6725 39.1449 71.3643 38.6459 71.1562C38.1469 70.9482 37.611 70.8448 37.071 70.8522H36.5168C35.9773 70.8451 35.442 70.9487 34.9437 71.1567C34.4453 71.3647 33.9944 71.6728 33.6183 72.0621C33.2485 72.4298 32.9511 72.8646 32.742 73.3436C32.5317 72.8643 32.2331 72.4294 31.862 72.0621C31.4843 71.6727 31.032 71.3647 30.5325 71.1567C30.0329 70.9487 29.4965 70.8451 28.956 70.8522H28.3868C27.8461 70.8445 27.3096 70.9478 26.8099 71.1558C26.3103 71.3638 25.858 71.6722 25.4808 72.0621C25.2832 72.2577 25.1051 72.4723 24.949 72.7028V71.949C24.949 71.7301 24.8626 71.5202 24.7088 71.3654C24.555 71.2106 24.3464 71.1236 24.1289 71.1236L17.4931 71.1462C17.2766 71.1482 17.0695 71.2359 16.9167 71.3904C16.7639 71.5449 16.6777 71.7537 16.6768 71.9716V86.2713C16.6777 86.4899 16.7645 86.6992 16.918 86.8538C17.0716 87.0084 17.2797 87.0957 17.4969 87.0967H24.1289C24.3461 87.0957 24.5542 87.0084 24.7077 86.8538C24.8613 86.6992 24.9481 86.4899 24.949 86.2713V85.6381C25.106 85.8691 25.284 86.0848 25.4808 86.2826C25.858 86.6725 26.3103 86.9808 26.8099 87.1889C27.3096 87.3969 27.8461 87.5002 28.3868 87.4924H28.956C29.4965 87.4995 30.0329 87.3959 30.5325 87.1879C31.032 86.98 31.4843 86.6719 31.862 86.2826C32.2608 85.8913 32.5756 85.4218 32.7869 84.9031C32.9928 85.3437 33.2743 85.7443 33.6183 86.0866C33.9957 86.4733 34.4472 86.779 34.9454 86.985C35.4436 87.191 35.9782 87.2931 36.5168 87.2851H37.086C37.626 87.2926 38.1619 87.1891 38.6609 86.9811C39.1599 86.7731 39.6115 86.4649 39.9882 86.0753C40.3982 85.6669 40.7184 85.1764 40.9281 84.6355C41.1375 85.1786 41.4591 85.6706 41.8718 86.079C42.2468 86.4655 42.6955 86.7715 43.1911 86.9788C43.6866 87.1861 44.2187 87.2903 44.7553 87.2851H45.3245C45.8618 87.2908 46.3946 87.1869 46.8908 86.9796C47.3871 86.7723 47.8364 86.4659 48.2118 86.079C48.5114 85.7816 48.764 85.4396 48.9608 85.0652V86.2637C48.9617 86.4823 49.0485 86.6917 49.202 86.8463C49.3556 87.0009 49.5637 87.0881 49.7809 87.0891H52.0577C52.2749 87.0881 52.4829 87.0009 52.6365 86.8463C52.7901 86.6917 52.8768 86.4823 52.8778 86.2637V81.7409C53.1799 81.7292 53.4811 81.7818 53.7616 81.8954C53.8515 81.9444 54.0837 82.0801 54.0837 82.7623V86.2675C54.0846 86.4861 54.1714 86.6955 54.3249 86.85C54.4785 87.0046 54.6866 87.0919 54.9038 87.0929H57.1132C57.3304 87.0919 57.5384 87.0046 57.692 86.85C57.8456 86.6955 57.9323 86.4861 57.9333 86.2675V82.246C57.9212 81.6081 57.703 80.9915 57.3117 80.4896C57.1976 80.3254 57.0725 80.1692 56.9372 80.0222C57.08 79.8385 57.2054 79.6416 57.3117 79.4343C57.6248 78.8951 57.7938 78.2835 57.8022 77.6591V75.1866C57.8017 74.8851 57.7704 74.5845 57.7086 74.2896C57.7842 74.3845 57.8799 74.4612 57.9888 74.5141C58.0976 74.5669 58.2169 74.5945 58.3378 74.5949H59.7084V86.2788C59.7093 86.4974 59.7961 86.7068 59.9496 86.8614C60.1032 87.0159 60.3113 87.1032 60.5285 87.1042H62.8053C63.0225 87.1032 63.2305 87.0159 63.3841 86.8614C63.5377 86.7068 63.6244 86.4974 63.6254 86.2788V74.5949H64.9773C65.0234 74.5987 65.0698 74.5987 65.1159 74.5949C65.1159 74.7268 65.0971 74.8587 65.0971 74.9718V76.9957C65.0932 77.5561 65.2127 78.1104 65.4471 78.6188C65.6815 79.1271 66.025 79.5768 66.4528 79.9355C67.2772 80.6929 68.3548 81.1101 69.4711 81.1039C69.8456 81.1039 70.0478 81.6391 70.0478 82.6982C70.076 83.0329 70.0378 83.3698 69.9354 83.6895C69.9055 83.7536 69.8568 83.8516 69.531 83.8516C69.4732 83.8595 69.4143 83.8544 69.3587 83.8368C69.303 83.8193 69.2519 83.7895 69.2089 83.7498C69.1415 83.6819 68.9168 83.3729 68.9281 82.4156C68.9279 82.1962 68.8434 81.9855 68.6922 81.8276C68.6158 81.7498 68.5248 81.6882 68.4245 81.6461C68.3242 81.604 68.2166 81.5825 68.108 81.5826H65.9173C65.7001 81.5836 65.492 81.6709 65.3384 81.8255C65.1848 81.98 65.0981 82.1894 65.0971 82.408V83.354C65.0971 84.4536 65.5311 85.5081 66.3037 86.2856C67.0762 87.0631 68.1239 87.5 69.2164 87.5H69.7856C70.8743 87.5 71.9186 87.0663 72.6905 86.2936C73.4624 85.521 73.899 84.4723 73.9049 83.3767V81.5562C73.9083 80.9959 73.7886 80.4418 73.5542 79.9335C73.3199 79.4253 72.9767 78.9755 72.5493 78.6164C71.7308 77.8648 70.6614 77.4505 69.5535 77.4555C69.3438 77.4555 69.1977 77.4254 69.0816 77.0598C68.9678 76.5659 68.9224 76.0586 68.9468 75.5522C68.9199 75.2353 68.9621 74.9163 69.0704 74.6175C69.0891 74.5798 69.1415 74.4856 69.4449 74.4856C69.7482 74.4856 69.8568 74.5949 69.9167 74.7268C70.0269 75.1173 70.0712 75.5238 70.0478 75.9291C70.0488 76.1477 70.1355 76.3571 70.2891 76.5117C70.4427 76.6662 70.6507 76.7535 70.8679 76.7545H73.0586C73.2761 76.7545 73.4847 76.6675 73.6385 76.5128C73.7923 76.358 73.8787 76.148 73.8787 75.9291V74.9831C73.8787 73.8835 73.4447 72.829 72.6722 72.0515C71.8997 71.274 70.8519 70.8372 69.7594 70.8372L69.7894 70.8522ZM53.9413 75.6954V77.0673C53.9695 77.3726 53.9246 77.6802 53.8103 77.9644V77.9945C53.8103 78.0209 53.7579 78.1 53.4545 78.1H52.904V74.6476H53.1587C53.3886 74.6265 53.6201 74.6628 53.8328 74.7532L53.8552 74.7795C53.9377 75.0773 53.9669 75.3874 53.9413 75.6954ZM45.6017 75.5032V82.5701C45.6017 83.5877 45.3058 83.5877 45.0886 83.5877C44.8714 83.5877 44.4857 83.5877 44.4857 82.5701V75.5032C44.4857 74.4856 44.8602 74.4856 45.2347 74.4856C45.4668 74.4856 45.4931 74.5383 45.5155 74.5911C45.6013 74.8869 45.6306 75.1964 45.6017 75.5032ZM38.172 78.0774H40.3589C40.4602 78.078 40.5607 78.0588 40.6548 78.0209V79.8752C40.5607 79.8373 40.4602 79.8181 40.3589 79.8187H38.172C37.9545 79.8187 37.7459 79.9057 37.5921 80.0605C37.4382 80.2153 37.3518 80.4252 37.3518 80.6441V82.5625C37.3518 83.5877 37.0523 83.5877 36.8351 83.5877C36.6179 83.5877 36.2322 83.5877 36.2322 82.5701V75.5032C36.2322 74.4856 36.5317 74.4856 36.7265 74.4856C36.9212 74.4856 37.3518 74.4856 37.3518 75.9366V77.252C37.3518 77.4709 37.4382 77.6809 37.5921 77.8357C37.7459 77.9905 37.9545 78.0774 38.172 78.0774ZM28.2482 77.0598C28.1322 76.5663 28.0868 76.0586 28.1134 75.5522C28.0865 75.2353 28.1287 74.9163 28.237 74.6175C28.2557 74.5798 28.3081 74.4856 28.6115 74.4856C28.9148 74.4856 29.0234 74.5949 29.0833 74.7268C29.1914 75.1178 29.2357 75.5238 29.2144 75.9291C29.2144 76.148 29.3008 76.358 29.4546 76.5128C29.6084 76.6675 29.817 76.7545 30.0345 76.7545H32.2252C32.28 76.7601 32.3352 76.7601 32.39 76.7545V79.4192C32.1876 79.1303 31.9526 78.8659 31.6897 78.6315C30.8712 77.8799 29.8018 77.4655 28.6938 77.4706C28.5104 77.4555 28.3643 77.4254 28.2482 77.0598ZM24.26 83.403C24.2127 83.3973 24.165 83.3973 24.1177 83.403H20.5826V80.7346H24.1177C24.3352 80.7346 24.5438 80.6476 24.6976 80.4928C24.8514 80.338 24.9378 80.1281 24.9378 79.9092V79.2006C25.134 79.4774 25.3615 79.7304 25.6156 79.9544C26.4395 80.7098 27.5157 81.1256 28.6302 81.119C29.0047 81.119 29.2069 81.6542 29.2069 82.7133C29.2346 83.0477 29.1977 83.3843 29.0983 83.7046C29.0646 83.7686 29.0196 83.8666 28.6938 83.8666C28.4692 83.8666 28.4018 83.795 28.3718 83.7649C28.3418 83.7347 28.0797 83.388 28.0909 82.4306C28.0914 82.3217 28.0706 82.2138 28.0297 82.113C27.9887 82.0122 27.9284 81.9206 27.8523 81.8432C27.7761 81.7659 27.6856 81.7044 27.5858 81.6622C27.486 81.6201 27.379 81.5982 27.2708 81.5977H25.0801C24.8626 81.5977 24.654 81.6846 24.5002 81.8394C24.3464 81.9942 24.26 82.2042 24.26 82.4231V83.4181V83.403ZM24.26 77.0334C24.2126 77.0295 24.165 77.0295 24.1177 77.0334H20.5826V74.8285H24.1177C24.1662 74.8341 24.2152 74.8341 24.2637 74.8285C24.2637 74.8889 24.2637 74.9454 24.2637 75.0019V77.0598L24.26 77.0334Z" fill="#070036"/>
<path d="M98.2428 82.197L100.823 72.1714C100.855 72.0496 100.858 71.9221 100.834 71.7987C100.809 71.6753 100.757 71.5591 100.681 71.4591C100.603 71.3598 100.504 71.2795 100.391 71.224C100.278 71.1685 100.155 71.1394 100.029 71.1387H97.7523C97.5661 71.1402 97.3859 71.205 97.241 71.3228C97.0962 71.4405 96.9952 71.6041 96.9546 71.787L96.3704 74.4253L95.8199 71.787C95.7813 71.6018 95.6806 71.4355 95.5347 71.3162C95.3888 71.1968 95.2066 71.1315 95.0186 71.1312H92.7417C92.6175 71.1311 92.4949 71.1596 92.3833 71.2145C92.2717 71.2694 92.174 71.3492 92.0976 71.4478C92.0509 71.5073 92.013 71.5733 91.9853 71.6438C91.9246 71.4934 91.8212 71.3646 91.6879 71.2733C91.5546 71.1821 91.3975 71.1327 91.2363 71.1312L88.892 71.1086C88.6992 71.109 88.5126 71.1775 88.3648 71.3022C88.217 71.4268 88.1174 71.5997 88.0832 71.7908L86.252 82.2083V80.173C86.251 79.9544 86.1643 79.745 86.0107 79.5905C85.8571 79.4359 85.649 79.3486 85.4318 79.3476H81.7357C81.584 79.3482 81.4353 79.3899 81.3051 79.4682V75.5032C81.3051 74.4856 81.5972 74.4856 81.8106 74.4856C82.0241 74.4856 82.4248 74.4856 82.4248 75.9367V77.252C82.4248 77.471 82.5112 77.6809 82.665 77.8357C82.8188 77.9905 83.0274 78.0775 83.2449 78.0775H85.4318C85.6494 78.0775 85.858 77.9905 86.0118 77.8357C86.1656 77.6809 86.252 77.471 86.252 77.252V74.9906C86.252 73.8943 85.8205 72.8426 85.0521 72.0657C84.2836 71.2887 83.2406 70.8497 82.1514 70.8447H81.5822C80.4897 70.8447 79.4419 71.2815 78.6694 72.059C77.8969 72.8365 77.4629 73.8911 77.4629 74.9906V83.1731C77.4629 83.7165 77.5696 84.2546 77.7769 84.7563C77.9842 85.2581 78.2879 85.7136 78.6708 86.0968C79.0536 86.48 79.5078 86.7832 80.0075 86.9891C80.5071 87.195 81.0423 87.2994 81.5822 87.2964H82.1514C82.6898 87.3041 83.2241 87.2008 83.7213 86.9927C84.2185 86.7846 84.6681 86.4762 85.0424 86.0866C85.314 85.8134 85.5471 85.5039 85.7352 85.167L85.5667 86.1318C85.5465 86.2505 85.5523 86.3722 85.5837 86.4884C85.615 86.6046 85.6711 86.7126 85.7481 86.8048C85.8251 86.897 85.9211 86.9712 86.0294 87.0222C86.1378 87.0733 86.2559 87.1 86.3755 87.1005H88.6411C88.8353 87.1004 89.0231 87.0311 89.1712 86.9048C89.3193 86.7785 89.4181 86.6034 89.45 86.4107L89.8844 83.8403H90.169L90.5885 86.407C90.6196 86.6004 90.718 86.7763 90.8662 86.9034C91.0144 87.0304 91.2027 87.1003 91.3973 87.1005H93.6442C93.764 87.1002 93.8822 87.0738 93.9909 87.023C94.0995 86.9722 94.1959 86.8984 94.2733 86.8065C94.326 86.7408 94.3677 86.667 94.3969 86.5879C94.458 86.7379 94.5615 86.8665 94.6947 86.9577C94.8279 87.0488 94.9848 87.0985 95.1459 87.1005H97.4227C97.6399 87.0995 97.848 87.0122 98.0015 86.8576C98.1551 86.703 98.2418 86.4937 98.2428 86.275C98.2428 86.1054 98.2428 85.6381 98.2091 84.8504C98.1754 84.0626 98.1754 83.5124 98.1754 83.1242C98.1617 82.8221 98.1742 82.5194 98.2129 82.2196L98.2428 82.197ZM82.3873 83.1015C82.3803 83.2308 82.3525 83.3581 82.3049 83.4784C82.3049 83.5048 82.2413 83.6028 81.9042 83.6028C81.6833 83.6028 81.4099 83.6028 81.3275 83.0111C81.4511 83.0807 81.5904 83.117 81.732 83.1166L82.3873 83.1015ZM92.4683 74.3461L94.3407 82.1404L94.3632 82.9696V85.4308L92.4683 74.3461Z" fill="#070036"/>
<path d="M24.1184 84.2133V86.2636H17.4863V71.964L24.1184 71.9414V73.9917H19.7632V77.8625H24.1184V79.9091H19.7632V84.2284L24.1184 84.2133Z" fill="white"/>
<path d="M32.2405 75.9291H30.0498C30.0738 75.4127 30.0079 74.8962 29.8551 74.4027C29.7555 74.1626 29.5831 73.9605 29.3625 73.8251C29.1419 73.6897 28.8843 73.628 28.6268 73.6489C28.4045 73.625 28.1802 73.6663 27.9808 73.768C27.7814 73.8697 27.6156 74.0273 27.5033 74.2217C27.3325 74.6392 27.2582 75.0903 27.2861 75.5409C27.2606 76.1331 27.3199 76.7258 27.4621 77.301C27.5237 77.585 27.6829 77.8379 27.9118 78.0152C28.1407 78.1924 28.4244 78.2825 28.7129 78.2696C29.6178 78.2664 30.4903 78.6085 31.1545 79.227C31.4942 79.5083 31.7673 79.8624 31.9538 80.2634C32.1404 80.6643 32.2358 81.1022 32.233 81.5449V83.3503C32.2393 83.7845 32.1567 84.2153 31.9905 84.616C31.8243 85.0167 31.578 85.3787 31.2668 85.6795C30.9646 85.9921 30.602 86.2392 30.2015 86.4057C29.801 86.5723 29.3709 86.6548 28.9376 86.6482H28.3684C27.496 86.6492 26.6589 86.3016 26.041 85.6818C25.4231 85.062 25.0749 84.2207 25.0729 83.3427V82.3967H27.2636C27.2487 83.9043 27.723 84.6581 28.6867 84.6581C28.9136 84.6778 29.1412 84.6296 29.3411 84.5197C29.5409 84.4097 29.7041 84.2429 29.8101 84.04C29.9692 83.6052 30.0355 83.1417 30.0048 82.6794C30.0048 81.0663 29.5392 80.2597 28.608 80.2597C27.6939 80.2646 26.8115 79.9228 26.1365 79.3024C25.7965 79.0204 25.5232 78.6657 25.3367 78.2641C25.1501 77.8625 25.0549 77.424 25.0579 76.9807V74.9567C25.0517 74.5225 25.1342 74.0917 25.3004 73.691C25.4666 73.2903 25.713 72.9283 26.0241 72.6274C26.3264 72.3149 26.6889 72.0678 27.0894 71.9012C27.49 71.7347 27.9201 71.6522 28.3534 71.6588H28.9226C29.795 71.6578 30.632 72.0054 31.2499 72.6252C31.8679 73.2449 32.216 74.0862 32.218 74.9642L32.2405 75.9291Z" fill="white"/>
<path d="M40.359 83.1581C40.358 84.0341 40.0115 84.8739 39.3957 85.493C38.7799 86.1121 37.9451 86.4598 37.0748 86.4598H36.5168C35.6474 86.4598 34.8136 86.1125 34.1985 85.4941C33.5834 84.8757 33.2373 84.0369 33.2363 83.1619V74.9794C33.2373 74.104 33.5833 73.2648 34.1982 72.6459C34.8132 72.0269 35.6471 71.6787 36.5168 71.6777H37.086C37.957 71.6777 38.7924 72.026 39.4083 72.6459C40.0242 73.2658 40.3702 74.1065 40.3702 74.9832V77.2446H38.1832V75.9292C38.1832 74.4216 37.7001 73.6678 36.7377 73.6678C35.8614 73.6678 35.4233 74.2821 35.4233 75.5108V82.5777C35.4233 83.8064 35.8976 84.4208 36.8463 84.4208C37.7376 84.4208 38.1832 83.8039 38.1832 82.5702V80.6517H40.3702L40.359 83.1581Z" fill="white"/>
<path d="M48.613 83.1618C48.6071 84.0359 48.259 84.8724 47.6441 85.4898C47.0293 86.1073 46.1974 86.4557 45.3288 86.4597H44.7559C44.3251 86.4602 43.8984 86.3753 43.5002 86.2098C43.102 86.0443 42.7401 85.8016 42.4351 85.4953C42.1302 85.1891 41.8881 84.8254 41.7228 84.425C41.5575 84.0246 41.4722 83.5954 41.4717 83.1618V74.9793C41.4727 74.1033 41.8191 73.2635 42.4349 72.6444C43.0507 72.0254 43.8855 71.6776 44.7559 71.6776H45.3251C45.7553 71.6736 46.1818 71.7573 46.5789 71.9238C46.9761 72.0903 47.3355 72.336 47.6356 72.6463C47.9488 72.9467 48.1969 73.309 48.3644 73.7105C48.532 74.1119 48.6153 74.5439 48.6093 74.9793L48.613 83.1618ZM46.4223 82.5701V75.5032C46.448 75.0787 46.3894 74.6533 46.2501 74.2519C46.1608 74.0577 46.0137 73.8964 45.8291 73.7904C45.6445 73.6843 45.4317 73.6388 45.2202 73.6601C44.1817 73.6601 43.6636 74.2745 43.6661 75.5032V82.5701C43.6661 83.7988 44.138 84.4131 45.0892 84.4131C45.9779 84.4131 46.4223 83.7988 46.4223 82.5701Z" fill="white"/>
<path d="M57.1138 86.2638H54.923V82.7623C54.923 81.9859 54.6734 81.457 54.1741 81.1756C53.6245 80.9478 53.0283 80.8572 52.4365 80.9118H52.062V86.2675H49.7852V71.9001L53.661 71.8774C54.0926 71.8774 54.52 71.9631 54.9187 72.1294C55.3174 72.2958 55.6796 72.5396 55.9846 72.8469C56.2897 73.1542 56.5315 73.5191 56.6963 73.9205C56.8611 74.322 56.9457 74.7522 56.9452 75.1866V77.6591C56.9421 78.1463 56.813 78.6243 56.5708 79.0461C56.3757 79.4941 56.0257 79.8557 55.5859 80.0637C56.0155 80.2707 56.3845 80.5863 56.6569 80.9796C56.9434 81.3399 57.1051 81.7846 57.1175 82.246L57.1138 86.2638ZM54.7695 77.0674V75.6954C54.7695 74.9718 54.6759 74.4931 54.4886 74.2595C54.2714 73.9466 53.7921 73.7996 53.0544 73.8147H52.077V78.9029L53.4476 78.9255C53.6624 78.948 53.879 78.9076 54.0716 78.8094C54.2642 78.7111 54.4246 78.5591 54.5336 78.3714C54.7147 77.9621 54.7931 77.5143 54.762 77.0674H54.7695Z" fill="white"/>
<path d="M64.9775 73.7694H62.768V86.2636H60.4837V73.7694H58.293L58.2705 71.9414H64.9775V73.7694Z" fill="white"/>
<path d="M73.0852 75.9291H70.8945C70.9185 75.4127 70.8526 74.8962 70.6998 74.4027C70.6002 74.1626 70.4278 73.9605 70.2072 73.8251C69.9866 73.6897 69.7291 73.628 69.4715 73.6489C69.2493 73.625 69.0249 73.6663 68.8255 73.768C68.6262 73.8697 68.4603 74.0273 68.348 74.2217C68.1772 74.6392 68.1029 75.0903 68.1308 75.5409C68.1054 76.1331 68.1646 76.7258 68.3068 77.301C68.3691 77.5846 68.5285 77.8371 68.7572 78.0143C68.9859 78.1914 69.2693 78.2818 69.5576 78.2696C70.4625 78.2664 71.335 78.6085 71.9992 79.227C72.3389 79.5083 72.612 79.8624 72.7986 80.2634C72.9851 80.6643 73.0805 81.1022 73.0777 81.5449V83.3503C73.084 83.7845 73.0015 84.2153 72.8353 84.616C72.669 85.0167 72.4227 85.3787 72.1116 85.6795C71.8093 85.9921 71.4468 86.2392 71.0462 86.4057C70.6457 86.5723 70.2156 86.6548 69.7823 86.6482H69.2131C68.3407 86.6492 67.5036 86.3016 66.8857 85.6818C66.2678 85.062 65.9196 84.2207 65.9177 83.3427V82.3967H68.1084C68.0934 83.9043 68.5677 84.6581 69.5314 84.6581C69.7583 84.6778 69.986 84.6296 70.1858 84.5197C70.3856 84.4097 70.5488 84.2429 70.6548 84.04C70.8139 83.6052 70.8802 83.1417 70.8496 82.6794C70.8496 81.0663 70.3852 80.2597 69.4565 80.2597C68.5411 80.2656 67.6571 79.9237 66.9812 79.3024C66.6412 79.0204 66.368 78.6657 66.1814 78.2641C65.9948 77.8625 65.8996 77.424 65.9027 76.9807V74.9567C65.8964 74.5225 65.9789 74.0917 66.1451 73.691C66.3114 73.2903 66.5577 72.9283 66.8688 72.6274C67.1711 72.3149 67.5336 72.0678 67.9342 71.9012C68.3347 71.7347 68.7648 71.6522 69.1981 71.6588H69.7673C70.6397 71.6578 71.4768 72.0054 72.0947 72.6252C72.7126 73.2449 73.0608 74.0862 73.0627 74.9642L73.0852 75.9291Z" fill="white"/>
<path d="M85.4278 80.1806V83.1694C85.428 83.6029 85.342 84.0319 85.1748 84.4313C85.0076 84.8307 84.7625 85.1924 84.4542 85.4949C84.1563 85.8069 83.7977 86.0536 83.4008 86.2196C83.0039 86.3856 82.5771 86.4674 82.1474 86.4598H81.5781C81.1473 86.4603 80.7207 86.3754 80.3225 86.2099C79.9243 86.0444 79.5624 85.8017 79.2574 85.4954C78.9524 85.1892 78.7104 84.8255 78.5451 84.4251C78.3798 84.0247 78.2944 83.5955 78.2939 83.1619V74.9794C78.2949 74.1034 78.6414 73.2636 79.2572 72.6445C79.873 72.0255 80.7078 71.6777 81.5781 71.6777H82.1474C83.0177 71.6787 83.8521 72.0274 84.4672 72.6472C85.0823 73.267 85.4278 74.1072 85.4278 74.9832V77.2446H83.2408V75.9292C83.2408 74.4216 82.7615 73.6678 81.8066 73.6678C80.9228 73.6678 80.4809 74.2821 80.4809 75.5108V82.5777C80.4809 83.8064 80.9553 84.4207 81.9039 84.4207C82.1276 84.4423 82.3527 84.3982 82.552 84.2939C82.7513 84.1895 82.9164 84.0294 83.0274 83.8328C83.1848 83.4002 83.2523 82.9397 83.2259 82.4797V82.2837H81.7279V80.1882L85.4278 80.1806Z" fill="white"/>
<path d="M93.6593 86.2636H91.4124L90.8807 83.0034H89.2067L88.6562 86.2636H86.3906L88.9071 71.9414L91.2476 71.964L93.6593 86.2636ZM90.5099 80.7119L90.068 77.2293L89.6074 80.7119H90.5099Z" fill="white"/>
<path d="M100.03 71.9641L97.4494 82.0085C97.3869 82.3819 97.3643 82.761 97.382 83.1392C97.382 83.5337 97.3932 84.1179 97.4157 84.8918C97.4382 85.6456 97.4494 86.128 97.4494 86.2901H95.1726V82.9847L95.1501 82.0575L92.7422 71.9905H95.019L96.3522 78.379L97.7527 71.9905L100.03 71.9641Z" fill="white"/>
</svg>
