<svg width="64" height="88" viewBox="0 0 64 88" fill="none" xmlns="http://www.w3.org/2000/svg">
<path d="M31.9998 0.5C14.8806 0.5 0.951172 14.2738 0.951172 31.2069C0.97169 37.9377 3.19973 44.4758 7.2935 49.8185C11.3873 55.1612 17.1207 59.0133 23.6144 60.7841C23.4249 62.4551 23.3133 63.7506 23.2761 64.6402C23.1746 67.5391 23.3133 80.8765 23.3201 81.4279C23.321 81.5245 23.3427 81.6197 23.3835 81.7072C23.4244 81.7948 23.4835 81.8725 23.5569 81.9353C23.6794 82.0401 23.8354 82.0977 23.9966 82.0976C24.0303 82.101 24.0644 82.101 24.0981 82.0976L29.9736 81.2182C30.1061 81.1988 30.2298 81.1406 30.3291 81.0509C30.4285 80.9612 30.499 80.844 30.5317 80.7142C30.6366 80.3015 33.0991 70.5462 33.5287 68.6317C33.8233 66.914 34.0142 65.1801 34.1003 63.4394C34.642 64.7475 35.3045 66.0022 36.0791 67.1873C38.014 70.0523 44.4036 79.2461 44.4679 79.3375C44.5301 79.4271 44.613 79.5004 44.7096 79.551C44.8062 79.6017 44.9136 79.6282 45.0226 79.6284C45.1317 79.6282 45.2391 79.6017 45.3357 79.551C45.4323 79.5004 45.5152 79.4271 45.5774 79.3375L49.1189 74.2095C49.1765 74.1261 49.2146 74.0308 49.2304 73.9307C49.2462 73.8306 49.2393 73.7282 49.2103 73.6311C49.102 73.2624 46.5042 64.5557 45.5097 61.8327C45.256 61.1562 44.8907 60.3105 44.4205 59.3499C49.7534 57.0521 54.3328 53.3013 57.6362 48.5257C61.1657 43.4418 63.0543 37.3993 63.0483 31.2103C63.0449 14.2738 49.1189 0.5 31.9998 0.5Z" fill="white"/>
<path d="M31.9961 61.2339C48.7701 61.2339 62.3682 47.7889 62.3682 31.2035C62.3682 14.6182 48.7701 1.1731 31.9961 1.1731C15.2221 1.1731 1.62402 14.6182 1.62402 31.2035C1.62402 47.7889 15.2221 61.2339 31.9961 61.2339Z" fill="#FF0079"/>
<path d="M44.881 62.0627C44.1097 59.9554 42.4219 56.9618 41.6845 55.6967L41.0282 53.9682C34.8314 52.3344 33.9756 59.7862 33.9249 60.3477L33.5088 59.8505C33.5088 59.8505 34.6893 63.9096 36.6444 66.8152C38.5996 69.7208 45.0264 78.9586 45.0264 78.9586L48.5748 73.8273C48.5748 73.8273 45.8822 64.7924 44.881 62.0627Z" fill="#070036"/>
<path d="M34.0365 59.5156C34.0365 59.5156 30.6539 51.844 25.0997 55.3618L25.0355 55.2232C25.0355 55.2232 24.0884 61.7481 23.97 64.6639C23.8516 67.5797 24.014 81.4211 24.014 81.4211L29.8928 80.5417C29.8928 80.5417 32.4534 70.394 32.8864 68.4761C33.201 67.0824 33.4141 63.7405 33.5088 61.9849L34.0365 59.5156Z" fill="#070036"/>
<path d="M38.4132 18.0386C38.1708 17.9631 37.9089 17.9812 37.6792 18.0893C37.3883 15.3833 35.3114 13.2827 32.7982 13.2827C30.2849 13.2827 28.1573 15.4306 27.907 18.1841C27.7792 18.1073 27.6369 18.0577 27.4891 18.0385C27.3412 18.0193 27.191 18.0309 27.0478 18.0724C26.351 18.2991 26.033 19.2935 26.3713 20.2914C26.7096 21.2892 27.5248 21.9184 28.2216 21.6918C28.2889 21.6682 28.3535 21.6376 28.4144 21.6004C29.2296 23.8837 30.8836 25.964 32.8117 25.964C34.7398 25.964 36.3634 23.9006 37.1786 21.6275L37.2496 21.6579C37.9261 21.8846 38.7718 21.2588 39.0965 20.2576C39.4212 19.2563 39.11 18.2652 38.4132 18.0386Z" fill="#070036"/>
<path d="M24.4805 52.3514C24.4805 52.3514 24.9033 55.0575 25.0352 55.2232C25.1671 55.389 29.2567 55.7306 29.7099 56.0215C30.0482 56.2312 31.4012 60.6015 33.5627 60.8857C33.5627 60.8857 34.8954 60.8857 36.3364 55.9336C36.4886 55.4194 41.2005 55.2571 41.3324 55.0947C41.4643 54.9323 41.7755 52.48 41.7755 52.48L24.4805 52.3514Z" fill="#FF0079"/>
<path d="M37.1647 12.8768C34.6108 9.93056 30.1492 11.6218 28.4241 13.0256C26.3405 14.7169 27.7984 18.2517 27.9269 18.1637C27.9269 18.1637 28.1873 15.867 29.2799 14.9638C29.4569 14.8242 29.6528 14.7103 29.8617 14.6256C28.5764 15.9211 28.9958 17.2234 28.9958 17.2234C29.2745 16.6021 29.7039 16.0602 30.2449 15.6468C30.7859 15.2333 31.4216 14.9614 32.0942 14.8556C31.4819 15.3527 30.9412 15.9321 30.4875 16.5773C31.4011 15.8044 32.5155 15.3071 33.7009 15.1431L31.9522 16.6348C33.8126 16.5266 35.0878 15.231 35.5884 14.6256C35.8083 14.7048 36.0139 14.819 36.1973 14.9638C37.2932 15.867 37.6585 18.1367 37.6585 18.1367C37.7938 18.2009 38.927 14.9131 37.1647 12.8768Z" fill="white"/>
<path d="M58.7692 19.4661C58.4512 19.3578 44.373 15.5592 40.7638 14.585L38.4467 11.3073L34.0494 9.85619L33.613 10.871C33.613 10.871 37.1749 12.9411 37.4624 13.3402C37.7499 13.7394 38.8797 17.3384 39.1706 17.4467C39.4615 17.5549 41.4944 17.9913 41.4944 17.9913L41.4775 17.8966L50.2722 21.3705C48.6046 21.7831 42.8982 23.4541 41.5621 27.1918C41.5347 27.2853 41.52 27.382 41.5181 27.4794L24.3922 27.3542L24.338 27.2595C23.1474 22.7505 15.7057 20.5755 15.7057 20.5755C15.7057 20.5755 26.4251 16.831 26.716 16.7228C27.0069 16.6146 28.1333 13.002 28.4242 12.6164C28.7151 12.2308 32.2736 10.1471 32.2736 10.1471L31.8372 9.13232L27.4399 10.5868L25.1736 13.7901C21.3445 14.8252 7.62816 18.5257 7.31358 18.6306C6.99901 18.7354 15.0935 28.6227 21.0333 33.1756L24.8826 46.9765L24.4666 52.3886L41.7616 52.5171L41.2644 46.053L41.2238 46.141L44.2681 34.576C50.2823 30.3207 59.0804 19.5574 58.7692 19.4661Z" fill="#070036"/>
<path d="M56.1585 75.3427C56.4697 75.3427 56.517 75.4509 56.561 75.5456C56.6599 75.9032 56.6999 76.2745 56.6794 76.645C56.6794 76.8621 56.7656 77.0703 56.9192 77.2238C57.0727 77.3773 57.2809 77.4635 57.498 77.4635H59.5613C59.7785 77.4635 59.9867 77.3773 60.1402 77.2238C60.2937 77.0703 60.3799 76.8621 60.3799 76.645V75.7587C60.3781 74.7201 59.9643 73.7247 59.2293 72.991C58.4943 72.2572 57.4981 71.8451 56.4595 71.8451H55.9217C55.4063 71.8383 54.8949 71.9364 54.4186 72.1335C53.9424 72.3307 53.5112 72.6227 53.1514 72.9918C52.7716 73.3639 52.4733 73.8108 52.2753 74.3042C52.0745 73.8088 51.7726 73.3607 51.3891 72.9884C51.0312 72.6226 50.6032 72.3327 50.1307 72.1363C49.6581 71.9398 49.1508 71.8408 48.639 71.8451H48.1046C47.0684 71.846 46.0748 72.2578 45.3418 72.9902C44.6088 73.7226 44.1961 74.7158 44.1944 75.752V83.3966C44.1944 83.4507 44.1944 83.5082 44.1944 83.5623H41.0722V72.9343C41.0722 72.8263 41.051 72.7194 41.0097 72.6197C40.9684 72.52 40.9078 72.4294 40.8315 72.3531C40.7552 72.2767 40.6645 72.2162 40.5648 72.1749C40.4651 72.1336 40.3582 72.1123 40.2503 72.1123H38.1091C38.0012 72.1123 37.8943 72.1336 37.7946 72.1749C37.6948 72.2162 37.6042 72.2767 37.5279 72.3531C37.4516 72.4294 37.391 72.52 37.3497 72.6197C37.3084 72.7194 37.2872 72.8263 37.2872 72.9343V73.4518C37.1639 73.2872 37.0282 73.1323 36.8812 72.9884C36.5236 72.6222 36.0957 72.3322 35.6231 72.1357C35.1505 71.9392 34.643 71.8404 34.1312 71.8451H33.5968C33.0818 71.8379 32.5708 71.9359 32.095 72.1331C31.6193 72.3303 31.1888 72.6225 30.8298 72.9918C30.4654 73.3509 30.1757 73.7785 29.9774 74.2501C29.7782 73.7798 29.49 73.3525 29.1284 72.9918C28.7695 72.6225 28.3389 72.3303 27.8632 72.1331C27.3874 71.9359 26.8764 71.8379 26.3614 71.8451H25.827C25.3126 71.8382 24.8022 71.9363 24.327 72.1335C23.8518 72.3307 23.4219 72.6227 23.0634 72.9918C22.7405 73.309 22.475 73.6798 22.2787 74.0877V72.9343C22.277 72.7186 22.1912 72.512 22.0396 72.3585C21.888 72.205 21.6826 72.1167 21.4669 72.1123L19.3223 72.092C19.2139 72.0916 19.1065 72.1125 19.0062 72.1535C18.9059 72.1946 18.8147 72.255 18.7377 72.3314C18.6608 72.4077 18.5996 72.4984 18.5577 72.5984C18.5158 72.6984 18.4941 72.8056 18.4936 72.914V73.8915C18.3121 73.561 18.0843 73.258 17.8171 72.9918C17.4587 72.6227 17.0287 72.3307 16.5536 72.1335C16.0784 71.9363 15.5679 71.8382 15.0535 71.8451H14.5157C13.4795 71.846 12.486 72.2578 11.7529 72.9902C11.0199 73.7226 10.6073 74.7158 10.6055 75.752V83.3966C10.6064 84.4333 11.0186 85.4274 11.7517 86.1605C12.4848 86.8936 13.4789 87.3059 14.5157 87.3068H15.0535C15.5671 87.3146 16.0767 87.2168 16.5509 87.0195C17.0251 86.8223 17.4538 86.5298 17.8103 86.1601C18.079 85.8863 18.3068 85.5753 18.4868 85.2367V86.2988C18.4868 86.5168 18.5734 86.7259 18.7276 86.88C18.8817 87.0342 19.0908 87.1208 19.3088 87.1208H21.45C21.668 87.1208 21.877 87.0342 22.0312 86.88C22.1853 86.7259 22.2719 86.5168 22.2719 86.2988V85.0878C22.4747 85.4922 22.7459 85.8585 23.0736 86.1703C23.432 86.5393 23.862 86.8314 24.3372 87.0285C24.8123 87.2257 25.3227 87.3238 25.8372 87.3169H26.3716C26.8851 87.3247 27.3948 87.2269 27.869 87.0297C28.3432 86.8324 28.7719 86.5399 29.1284 86.1703C29.4942 85.8064 29.7849 85.3743 29.9842 84.8984C30.1834 85.3743 30.4742 85.8064 30.84 86.1703C31.1989 86.5396 31.6294 86.8318 32.1052 87.0289C32.581 87.2261 33.092 87.3241 33.6069 87.3169H34.1414C34.6531 87.3217 35.1606 87.2228 35.6332 87.0263C36.1058 86.8298 36.5338 86.5398 36.8914 86.1736C37.0383 86.0298 37.174 85.8748 37.2973 85.7102V86.3089C37.2973 86.5269 37.3839 86.736 37.538 86.8902C37.6922 87.0443 37.9013 87.1309 38.1193 87.1309H44.3635C44.5809 87.13 44.7891 87.043 44.9425 86.889C45.0959 86.7349 45.1821 86.5264 45.1821 86.3089V85.9944C45.2362 86.0552 45.2903 86.1128 45.3478 86.1703C45.7062 86.5393 46.1362 86.8314 46.6114 87.0285C47.0865 87.2257 47.597 87.3238 48.1114 87.3169H48.6492C49.1609 87.3213 49.6683 87.2222 50.1408 87.0258C50.6133 86.8293 51.0414 86.5395 51.3992 86.1736C51.7577 85.8233 52.0459 85.4077 52.2482 84.9491C52.4461 85.4793 52.7579 85.9597 53.1615 86.3563C53.5218 86.7246 53.9531 87.0159 54.4293 87.2124C54.9055 87.409 55.4167 87.5067 55.9319 87.4996H56.4697C56.9836 87.5005 57.4927 87.4002 57.9679 87.2043C58.443 87.0084 58.875 86.7209 59.239 86.3581C59.6031 85.9953 59.8921 85.5644 60.0896 85.0899C60.2871 84.6154 60.3892 84.1067 60.3901 83.5927V81.9015C60.3944 81.3702 60.2808 80.8446 60.0573 80.3626C59.8339 79.8806 59.5062 79.4542 59.0979 79.1142C58.3226 78.4037 57.3082 78.0113 56.2566 78.0149C56.0705 78.0149 55.9623 77.998 55.8608 77.6766C55.7523 77.2194 55.7091 76.749 55.7323 76.2796C55.7087 75.9919 55.7467 75.7025 55.8439 75.4306C55.8473 75.4171 55.8845 75.3427 56.1585 75.3427ZM53.2935 80.4165C54.0781 81.1319 55.1034 81.5256 56.1653 81.5192C56.5948 81.5192 56.6557 82.4224 56.6557 82.9602C56.6814 83.2659 56.6481 83.5736 56.5576 83.8667C56.534 83.9209 56.4967 83.9919 56.2194 83.9919C56.1711 83.9987 56.1219 83.9949 56.0752 83.9809C56.0285 83.9669 55.9854 83.9429 55.9488 83.9107C55.8236 83.7822 55.6917 83.3999 55.6985 82.6964C55.6998 82.588 55.6796 82.4805 55.6391 82.38C55.5985 82.2795 55.5385 82.1881 55.4623 82.111C55.3862 82.0339 55.2955 81.9727 55.1955 81.9309C55.0955 81.8891 54.9882 81.8676 54.8799 81.8676H52.8165C52.7243 81.8683 52.6328 81.8843 52.5459 81.915V79.5472C52.7503 79.8767 53.0022 80.1742 53.2935 80.43V80.4165ZM48.8488 76.2458V82.8553C48.8488 83.7585 48.6052 83.7585 48.4124 83.7585C48.2196 83.7585 47.8915 83.7585 47.8915 82.8553V76.2458C47.8915 75.3427 48.2061 75.3427 48.5342 75.3427C48.7236 75.3427 48.7371 75.3765 48.754 75.4103C48.8392 75.6801 48.8713 75.9638 48.8488 76.2458ZM34.3409 76.2458V82.8553C34.3409 83.7585 34.0974 83.7585 33.9046 83.7585C33.7118 83.7585 33.387 83.7585 33.387 82.8553V76.2458C33.387 75.3427 33.6982 75.3427 34.0297 75.3427C34.2158 75.3427 34.2327 75.3765 34.2462 75.4103C34.3313 75.6801 34.3635 75.9638 34.3409 76.2458ZM26.534 83.3966C26.5243 83.4895 26.5016 83.5806 26.4663 83.6672C26.4257 83.7416 26.2431 83.7551 26.1281 83.7551C25.9319 83.7551 25.7323 83.7551 25.6477 83.3323C25.7486 83.374 25.8566 83.3958 25.9657 83.3966H26.534ZM27.3931 78.6982H29.4531C29.5311 78.6988 29.6087 78.6874 29.6831 78.6643V79.8313C29.6087 79.8083 29.5311 79.7969 29.4531 79.7975H25.9725C25.8494 79.7967 25.7278 79.8245 25.6173 79.8787V76.2458C25.6173 75.3427 25.8541 75.3427 26.0435 75.3427C26.2329 75.3427 26.5712 75.3427 26.5712 76.6517V77.8796C26.5712 78.0976 26.6578 78.3067 26.8119 78.4608C26.9661 78.6149 27.1751 78.7015 27.3931 78.7015V78.6982ZM16.0785 78.6982H18.1418C18.2593 78.697 18.3749 78.6692 18.4801 78.617V79.8787C18.3749 79.8264 18.2593 79.7987 18.1418 79.7975H14.6578C14.5405 79.7999 14.4251 79.8276 14.3195 79.8787V76.2458C14.3195 75.3427 14.5563 75.3427 14.7457 75.3427C14.9352 75.3427 15.2768 75.3427 15.2768 76.6517V77.8796C15.2767 78.0941 15.3605 78.3002 15.5103 78.4537C15.6601 78.6073 15.864 78.6963 16.0785 78.7015V78.6982ZM15.2227 83.3966C15.213 83.4895 15.1903 83.5806 15.155 83.6672C15.1144 83.7416 14.9284 83.7551 14.8168 83.7551C14.6206 83.7551 14.4176 83.7551 14.3364 83.3323C14.4361 83.374 14.543 83.3958 14.651 83.3966H15.2227Z" fill="#070036"/>
<path d="M18.1416 80.6228V83.4134C18.1406 83.8191 18.0591 84.2206 17.9017 84.5945C17.7443 84.9685 17.5143 85.3074 17.2249 85.5918C16.9438 85.8835 16.6055 86.1142 16.2314 86.2696C15.8572 86.4249 15.455 86.5016 15.0499 86.4949H14.5121C13.6936 86.4931 12.9091 86.1672 12.3303 85.5884C11.7516 85.0096 11.4256 84.2252 11.4238 83.4066V75.7519C11.4265 74.934 11.7528 74.1504 12.3315 73.5723C12.9102 72.9943 13.6942 72.6688 14.5121 72.667H15.0499C15.8696 72.6679 16.6555 72.9939 17.2351 73.5735C17.8147 74.1531 18.1407 74.939 18.1416 75.7587V77.8795H16.0782V76.6517C16.0782 75.231 15.6272 74.5206 14.7252 74.5206C13.8954 74.5206 13.4804 75.0957 13.4804 76.2457V82.8553C13.4804 84.0031 13.9314 84.577 14.8335 84.577C15.0465 84.5996 15.2614 84.5594 15.4519 84.4614C15.6424 84.3635 15.8001 84.212 15.9057 84.0256C16.0513 83.6218 16.1135 83.1925 16.0884 82.764V82.5779H14.6677V80.6228H18.1416Z" fill="white"/>
<path d="M21.4566 86.309H19.3154V72.9106L21.4566 72.9309V86.309Z" fill="white"/>
<path d="M29.4531 80.6228V83.4134C29.4533 83.8193 29.3722 84.2211 29.2148 84.5952C29.0574 84.9693 28.8268 85.3081 28.5365 85.5918C28.2553 85.8835 27.9171 86.1142 27.5429 86.2696C27.1687 86.4249 26.7666 86.5016 26.3615 86.4949H25.827C25.4206 86.4945 25.0182 86.414 24.6429 86.258C24.2675 86.1021 23.9266 85.8737 23.6395 85.586C23.3524 85.2983 23.1248 84.9569 22.9697 84.5812C22.8145 84.2055 22.7349 83.8029 22.7354 83.3965V75.7519C22.738 74.9334 23.0648 74.1493 23.6443 73.5711C24.2237 72.993 25.0085 72.6679 25.827 72.667H26.3615C27.1811 72.6679 27.967 72.9939 28.5466 73.5735C29.1262 74.1531 29.4522 74.939 29.4531 75.7587V77.8795H27.3932V76.6517C27.3932 75.231 26.9421 74.5206 26.0401 74.5206C25.208 74.5206 24.792 75.0957 24.792 76.2457V82.8553C24.792 84.0031 25.243 84.577 26.145 84.577C26.358 84.6 26.5732 84.56 26.7638 84.462C26.9543 84.364 27.112 84.2123 27.2173 84.0256C27.366 83.6225 27.4293 83.1929 27.4033 82.764V82.5779H25.9826V80.6228H29.4531Z" fill="white"/>
<path d="M37.2223 83.3965C37.2161 84.2142 36.8882 84.9967 36.3097 85.5746C35.7311 86.1525 34.9483 86.4795 34.1306 86.4848H33.5962C32.7788 86.4812 31.9961 86.1545 31.4188 85.5759C30.8414 84.9973 30.5164 84.2138 30.5146 83.3965V75.7519C30.5173 74.9334 30.8441 74.1493 31.4235 73.5711C32.003 72.993 32.7878 72.6679 33.6063 72.667H34.1407C34.9579 72.6723 35.7402 72.9988 36.3186 73.576C36.8971 74.1532 37.2253 74.9347 37.2324 75.7519L37.2223 83.3965ZM35.1623 82.8451V76.2457C35.1852 75.8485 35.1289 75.4506 34.9965 75.0754C34.9135 74.8934 34.7755 74.7421 34.602 74.6426C34.4285 74.5431 34.2281 74.5004 34.0291 74.5206C33.0527 74.5206 32.5645 75.0957 32.5645 76.2457V82.8553C32.5645 84.0031 33.0155 84.577 33.9175 84.577C34.7474 84.577 35.1623 84.0031 35.1623 82.8553V82.8451Z" fill="white"/>
<path d="M44.3526 84.3911V86.309H38.1084V72.9343H40.2496V84.3911H44.3526Z" fill="white"/>
<path d="M51.73 83.3965C51.7221 84.2137 51.3937 84.9951 50.8155 85.5727C50.2373 86.1502 49.4556 86.4778 48.6384 86.4848H48.1039C47.2854 86.483 46.5009 86.1571 45.9221 85.5783C45.3434 84.9995 45.0174 84.2151 45.0156 83.3965V75.7519C45.0183 74.934 45.3446 74.1504 45.9233 73.5724C46.502 72.9943 47.286 72.6688 48.1039 72.667H48.6417C49.0467 72.6648 49.4479 72.7453 49.8207 72.9035C50.1935 73.0617 50.5302 73.2943 50.81 73.5871C51.1055 73.867 51.3398 74.205 51.4981 74.5799C51.6565 74.9549 51.7354 75.3585 51.73 75.7655V83.3965ZM49.6667 82.8452V76.2458C49.6903 75.8488 49.6351 75.451 49.5043 75.0754C49.4206 74.8932 49.282 74.7417 49.1079 74.6423C48.9338 74.5428 48.733 74.5003 48.5335 74.5207C47.5593 74.5207 47.0722 75.0957 47.0722 76.2458V82.8553C47.0722 84.0031 47.5232 84.577 48.4253 84.577C49.2529 84.577 49.6667 84.0031 49.6667 82.8553V82.8452Z" fill="white"/>
<path d="M59.5608 76.6314H57.4975C57.5204 76.1472 57.4574 75.6628 57.3114 75.2006C57.2168 74.9782 57.0543 74.7914 56.8471 74.6669C56.64 74.5423 56.3988 74.4864 56.158 74.5072C55.9503 74.4856 55.7407 74.5246 55.5547 74.6194C55.3686 74.7142 55.214 74.8609 55.1094 75.0416C54.9471 75.432 54.8765 75.8543 54.903 76.2763C54.8797 76.8304 54.9355 77.3851 55.0688 77.9236C55.1274 78.1885 55.2776 78.4243 55.4929 78.5895C55.7082 78.7547 55.9748 78.8387 56.2459 78.8267C57.0982 78.8251 57.9197 79.1452 58.5461 79.7231C58.8661 79.9868 59.1233 80.3186 59.2988 80.6942C59.4744 81.0699 59.5639 81.48 59.5608 81.8947V83.586C59.5668 83.9926 59.4891 84.3961 59.3326 84.7714C59.176 85.1467 58.944 85.4859 58.6509 85.7677C58.366 86.0594 58.0248 86.2901 57.648 86.446C57.2712 86.6018 56.8667 86.6795 56.459 86.6743H55.9212C55.1003 86.6743 54.3129 86.3489 53.7315 85.7693C53.15 85.1898 52.8221 84.4035 52.8194 83.5826V82.72H54.8692C54.8557 84.134 55.3067 84.8409 56.2222 84.8409C56.4375 84.8629 56.6543 84.8198 56.8449 84.7173C57.0354 84.6148 57.1908 84.4576 57.2911 84.2659C57.4424 83.8587 57.5058 83.4241 57.4772 82.9906C57.4772 81.482 57.0397 80.7277 56.1647 80.7277C55.3032 80.7336 54.4711 80.4148 53.8341 79.8347C53.5147 79.5705 53.2579 79.2387 53.0824 78.8631C52.9069 78.4875 52.817 78.0776 52.8194 77.6631V75.7689C52.8238 74.9492 53.1526 74.1645 53.7338 73.5865C54.3151 73.0084 55.1015 72.6839 55.9212 72.684H56.459C57.2799 72.684 58.0673 73.0094 58.6488 73.5889C59.2302 74.1684 59.5581 74.9547 59.5608 75.7756V76.6314Z" fill="white"/>
<path d="M21.0978 46.7465C20.1547 46.5855 19.295 46.1069 18.6613 45.3901C18.0276 44.6734 17.658 43.7615 17.6137 42.8058C17.3025 46.256 14.309 46.716 14.1602 46.7363C15.104 46.899 15.9638 47.3795 16.5969 48.0982C17.23 48.8168 17.5984 49.7304 17.6408 50.6872C17.952 47.2336 20.9456 46.7769 21.0944 46.7566L21.0978 46.7465Z" fill="white"/>
<path d="M55.6911 39.2642C54.8174 39.1143 54.0214 38.6698 53.4355 38.0045C52.8496 37.3392 52.5092 36.4933 52.4709 35.6077C52.1834 38.8008 49.4266 39.227 49.2744 39.2473C50.1476 39.3971 50.9432 39.8412 51.5291 40.5057C52.1149 41.1703 52.4556 42.0154 52.4946 42.9005C52.7821 39.7073 55.5389 39.2845 55.6911 39.2642Z" fill="white"/>
<path d="M12.3301 30.7232C11.7273 30.6195 11.178 30.3127 10.7737 29.8536C10.3695 29.3945 10.1344 28.811 10.1078 28.1998C10.0833 28.8079 9.85099 29.3891 9.4496 29.8465C9.04822 30.3039 8.50207 30.6098 7.90234 30.7131C8.50493 30.8173 9.0538 31.1244 9.45799 31.5833C9.86217 32.0423 10.0974 32.6255 10.1247 33.2365C10.1485 32.6282 10.3806 32.0466 10.7821 31.5891C11.1836 31.1316 11.7301 30.8259 12.3301 30.7232Z" fill="white"/>
<path d="M26.3275 7.48846C25.6103 7.36427 24.957 6.99875 24.4759 6.45247C23.9948 5.90618 23.7149 5.21193 23.6823 4.48474C23.6533 5.21049 23.3751 5.90407 22.8945 6.44871C22.414 6.99334 21.7604 7.35575 21.0439 7.47493C21.7606 7.59899 22.4135 7.96402 22.8945 8.50961C23.3755 9.05521 23.6559 9.74867 23.6891 10.4753C23.7183 9.75206 23.9949 9.06081 24.4727 8.51713C24.9505 7.97345 25.6005 7.61031 26.314 7.48846H26.3275Z" fill="white"/>
<path d="M48.3134 10.8033C47.7776 10.713 47.2893 10.4411 46.9302 10.0334C46.5712 9.62572 46.3632 9.10693 46.3413 8.56409C46.3177 9.1032 46.1107 9.61809 45.7545 10.0235C45.3984 10.4289 44.9144 10.7004 44.3828 10.7932C44.9185 10.8836 45.4069 11.1554 45.7659 11.5631C46.125 11.9708 46.3329 12.4896 46.3549 13.0325C46.3784 12.4933 46.5854 11.9785 46.9416 11.5731C47.2978 11.1677 47.7818 10.8961 48.3134 10.8033Z" fill="white"/>
</svg>
