<svg width="11" height="13" viewBox="0 0 11 13" fill="none" xmlns="http://www.w3.org/2000/svg">
<path fill-rule="evenodd" clip-rule="evenodd" d="M9.63194 5.31934C9.63194 6.59617 9.06664 7.85759 8.23977 9.00533C7.41917 10.1444 6.41015 11.0747 5.69072 11.6639C5.57272 11.7606 5.42728 11.7606 5.30928 11.6639C4.58985 11.0747 3.58082 10.1444 2.7602 9.00533C1.93336 7.85759 1.36806 6.59617 1.36806 5.31934C1.36806 3.03733 3.21799 1.18739 5.5 1.18739C7.78201 1.18739 9.63194 3.03733 9.63194 5.31934ZM10.8125 5.31934C10.8125 8.56096 7.96417 11.3278 6.43878 12.5772C5.88569 13.0302 5.11431 13.0302 4.56122 12.5772C3.03581 11.3278 0.1875 8.56096 0.1875 5.31934C0.1875 2.38532 2.56599 0.00683594 5.5 0.00683594C8.43403 0.00683594 10.8125 2.38532 10.8125 5.31934ZM4.31944 5.31934C4.31944 4.66733 4.84798 4.13878 5.5 4.13878C6.15202 4.13878 6.68056 4.66733 6.68056 5.31934C6.68056 5.97136 6.15202 6.49989 5.5 6.49989C4.84798 6.49989 4.31944 5.97136 4.31944 5.31934ZM5.5 2.95822C4.19599 2.95822 3.13889 4.01533 3.13889 5.31934C3.13889 6.62332 4.19599 7.68045 5.5 7.68045C6.80398 7.68045 7.86111 6.62332 7.86111 5.31934C7.86111 4.01533 6.80398 2.95822 5.5 2.95822Z" fill="#FF0079"/>
</svg>
