<svg width="20" height="18" viewBox="0 0 20 18" fill="none" xmlns="http://www.w3.org/2000/svg">
<path opacity="0.7" fill-rule="evenodd" clip-rule="evenodd" d="M10.5767 4.30675C10.2543 4.6553 9.74509 4.6553 9.42267 4.30675L8.84567 3.68303C8.17032 2.95299 7.25796 2.50724 6.24967 2.50724C4.17861 2.50724 2.49967 4.39842 2.49967 6.7313C2.49967 8.9678 3.5745 10.8146 5.12614 12.332C6.67911 13.8506 8.53584 14.8578 9.64517 15.3719C9.87717 15.4794 10.1222 15.4794 10.3542 15.3719C11.4635 14.8578 13.3203 13.8506 14.8732 12.332C16.4248 10.8146 17.4997 8.9678 17.4997 6.7313C17.4997 4.39842 15.8208 2.50724 13.7497 2.50724C12.7414 2.50724 11.829 2.95299 11.1537 3.68303L10.5767 4.30675ZM9.99967 2.32849C9.02642 1.27645 7.70508 0.629883 6.24967 0.629883C3.25813 0.629883 0.833008 3.36158 0.833008 6.7313C0.833008 12.7091 6.64162 16.0101 9.01117 17.1081C9.64934 17.4038 10.35 17.4038 10.9882 17.1081C13.3578 16.0101 19.1663 12.709 19.1663 6.7313C19.1663 3.36158 16.7413 0.629883 13.7497 0.629883C12.2943 0.629883 10.9729 1.27645 9.99967 2.32849Z" fill="white"/>
</svg>
