<svg width="27" height="24" viewBox="0 0 27 24" fill="none" xmlns="http://www.w3.org/2000/svg">
<g opacity="0.4">
<path fill-rule="evenodd" clip-rule="evenodd" d="M13.519 2.43279L13.5089 2.43804L8.15717 5.6739L6.31842 6.7903V20.1296C6.31842 20.8467 6.3203 21.2393 6.34316 21.5212L6.34591 21.5531L6.37755 21.5559C6.65738 21.5789 7.04682 21.5808 7.75854 21.5808H9.91798V16.7432C9.91798 14.7392 11.5298 13.1147 13.5183 13.1147C15.5067 13.1147 17.1185 14.7392 17.1185 16.7432V21.5808H19.2794C19.9912 21.5808 20.3806 21.5789 20.6604 21.5559L20.6921 21.5531L20.6948 21.5212C20.7176 21.2393 20.7195 20.8467 20.7195 20.1296V6.79026L18.874 5.66976L13.5294 2.43827L13.519 2.43279ZM17.1185 23.9998H19.28H19.28C20.6242 23.9998 21.2964 23.9998 21.8098 23.7361C22.2614 23.5043 22.6286 23.1342 22.8587 22.6792C23.1203 22.1617 23.1203 21.4844 23.1203 20.1298V8.23709L24.903 9.31502C25.4714 9.6587 26.2086 9.47293 26.5496 8.90021C26.8906 8.32748 26.7063 7.58462 26.1379 7.24098L20.1112 3.597L15.5014 0.798188L15.4998 0.797226C15.1654 0.594209 14.9087 0.438363 14.6911 0.321132C14.6402 0.292458 14.5886 0.265792 14.5363 0.241121C14.3548 0.151918 14.1976 0.0925508 14.0361 0.0566691C13.6958 -0.0188917 13.3432 -0.0188917 13.003 0.0566812C12.841 0.0926475 12.6834 0.152233 12.5014 0.241822C12.45 0.266082 12.3994 0.292276 12.3493 0.320406C12.1316 0.437654 11.8747 0.593604 11.5399 0.79687L11.5377 0.798188L6.92105 3.60118L0.901187 7.24098C0.332847 7.58462 0.148558 8.32748 0.489567 8.90021C0.830562 9.47293 1.56773 9.6587 2.13607 9.31502L3.91879 8.23713V20.1298C3.91879 21.4844 3.91879 22.1617 4.1804 22.6792C4.4105 23.1342 4.77768 23.5043 5.22931 23.7361C5.74273 23.9998 6.41485 23.9998 7.75906 23.9998H7.75909H9.91798V24.0001H17.1185V23.9998ZM14.7186 16.7422V21.5801H12.3184V16.7422C12.3184 16.0742 12.8557 15.5327 13.5185 15.5327C14.1813 15.5327 14.7186 16.0742 14.7186 16.7422Z" fill="white"/>
</g>
</svg>
