<svg width="38" height="46" viewBox="0 0 38 46" fill="none" xmlns="http://www.w3.org/2000/svg">
<path opacity="0.4" d="M8.17932 34.624V43H6.49932V39.436H2.91132V43H1.23132V34.624H2.91132V38.068H6.49932V34.624H8.17932ZM12.7849 43.108C12.1449 43.108 11.5689 42.968 11.0569 42.688C10.5449 42.4 10.1409 41.996 9.84488 41.476C9.55688 40.956 9.41288 40.356 9.41288 39.676C9.41288 38.996 9.56088 38.396 9.85688 37.876C10.1609 37.356 10.5729 36.956 11.0929 36.676C11.6129 36.388 12.1929 36.244 12.8329 36.244C13.4729 36.244 14.0529 36.388 14.5729 36.676C15.0929 36.956 15.5009 37.356 15.7969 37.876C16.1009 38.396 16.2529 38.996 16.2529 39.676C16.2529 40.356 16.0969 40.956 15.7849 41.476C15.4809 41.996 15.0649 42.4 14.5369 42.688C14.0169 42.968 13.4329 43.108 12.7849 43.108ZM12.7849 41.644C13.0889 41.644 13.3729 41.572 13.6369 41.428C13.9089 41.276 14.1249 41.052 14.2849 40.756C14.4449 40.46 14.5249 40.1 14.5249 39.676C14.5249 39.044 14.3569 38.56 14.0209 38.224C13.6929 37.88 13.2889 37.708 12.8089 37.708C12.3289 37.708 11.9249 37.88 11.5969 38.224C11.2769 38.56 11.1169 39.044 11.1169 39.676C11.1169 40.308 11.2729 40.796 11.5849 41.14C11.9049 41.476 12.3049 41.644 12.7849 41.644ZM25.7412 36.256C26.5572 36.256 27.2132 36.508 27.7092 37.012C28.2132 37.508 28.4652 38.204 28.4652 39.1V43H26.7852V39.328C26.7852 38.808 26.6532 38.412 26.3892 38.14C26.1252 37.86 25.7652 37.72 25.3092 37.72C24.8532 37.72 24.4892 37.86 24.2172 38.14C23.9532 38.412 23.8212 38.808 23.8212 39.328V43H22.1412V39.328C22.1412 38.808 22.0092 38.412 21.7452 38.14C21.4812 37.86 21.1212 37.72 20.6652 37.72C20.2012 37.72 19.8332 37.86 19.5612 38.14C19.2972 38.412 19.1652 38.808 19.1652 39.328V43H17.4852V36.352H19.1652V37.156C19.3812 36.876 19.6572 36.656 19.9932 36.496C20.3372 36.336 20.7132 36.256 21.1212 36.256C21.6412 36.256 22.1052 36.368 22.5132 36.592C22.9212 36.808 23.2372 37.12 23.4612 37.528C23.6772 37.144 23.9892 36.836 24.3972 36.604C24.8132 36.372 25.2612 36.256 25.7412 36.256ZM36.2394 39.532C36.2394 39.772 36.2234 39.988 36.1914 40.18H31.3314C31.3714 40.66 31.5394 41.036 31.8354 41.308C32.1314 41.58 32.4954 41.716 32.9274 41.716C33.5514 41.716 33.9954 41.448 34.2594 40.912H36.0714C35.8794 41.552 35.5114 42.08 34.9674 42.496C34.4234 42.904 33.7554 43.108 32.9634 43.108C32.3234 43.108 31.7474 42.968 31.2354 42.688C30.7314 42.4 30.3354 41.996 30.0474 41.476C29.7674 40.956 29.6274 40.356 29.6274 39.676C29.6274 38.988 29.7674 38.384 30.0474 37.864C30.3274 37.344 30.7194 36.944 31.2234 36.664C31.7274 36.384 32.3074 36.244 32.9634 36.244C33.5954 36.244 34.1594 36.38 34.6554 36.652C35.1594 36.924 35.5474 37.312 35.8194 37.816C36.0994 38.312 36.2394 38.884 36.2394 39.532ZM34.4994 39.052C34.4914 38.62 34.3354 38.276 34.0314 38.02C33.7274 37.756 33.3554 37.624 32.9154 37.624C32.4994 37.624 32.1474 37.752 31.8594 38.008C31.5794 38.256 31.4074 38.604 31.3434 39.052H34.4994Z" fill="white"/>
<g opacity="0.4">
<path fill-rule="evenodd" clip-rule="evenodd" d="M18.52 2.43279L18.5099 2.43804L13.1581 5.6739L11.3194 6.7903V20.1296C11.3194 20.8467 11.3213 21.2393 11.3441 21.5212L11.3469 21.5531L11.3785 21.5559C11.6584 21.5789 12.0478 21.5808 12.7595 21.5808H14.919V16.7432C14.919 14.7392 16.5308 13.1147 18.5192 13.1147C20.5077 13.1147 22.1195 14.7392 22.1195 16.7432V21.5808H24.2804C24.9922 21.5808 25.3816 21.5789 25.6614 21.5559L25.693 21.5531L25.6958 21.5212C25.7186 21.2393 25.7205 20.8467 25.7205 20.1296V6.79026L23.875 5.66976L18.5304 2.43827L18.52 2.43279ZM22.1195 23.9998H24.281H24.281C25.6252 23.9998 26.2974 23.9998 26.8108 23.7361C27.2624 23.5043 27.6296 23.1342 27.8596 22.6792C28.1213 22.1617 28.1213 21.4844 28.1213 20.1298V8.23709L29.904 9.31502C30.4724 9.6587 31.2096 9.47293 31.5505 8.90021C31.8916 8.32748 31.7073 7.58462 31.1389 7.24098L25.1122 3.597L20.5023 0.798188L20.5008 0.797226C20.1664 0.594209 19.9096 0.438363 19.692 0.321132C19.6412 0.292458 19.5896 0.265792 19.5372 0.241121C19.3558 0.151918 19.1986 0.0925508 19.037 0.0566691C18.6968 -0.0188917 18.3442 -0.0188917 18.004 0.0566812C17.842 0.0926475 17.6844 0.152233 17.5024 0.241822C17.451 0.266082 17.4003 0.292277 17.3503 0.320406C17.1326 0.437654 16.8757 0.593604 16.5408 0.79687L16.5387 0.798188L11.922 3.60118L5.90216 7.24098C5.33382 7.58462 5.14953 8.32748 5.49054 8.90021C5.83154 9.47293 6.56871 9.6587 7.13705 9.31502L8.91976 8.23713V20.1298C8.91976 21.4844 8.91976 22.1617 9.18137 22.6792C9.41148 23.1342 9.77866 23.5043 10.2303 23.7361C10.7437 23.9998 11.4158 23.9998 12.76 23.9998H12.7601H14.919V24.0001H22.1195V23.9998ZM19.7195 16.7422V21.5801H17.3193V16.7422C17.3193 16.0742 17.8566 15.5327 18.5194 15.5327C19.1823 15.5327 19.7195 16.0742 19.7195 16.7422Z" fill="white"/>
</g>
</svg>
