<svg width="52" height="33" viewBox="0 0 52 33" fill="none" xmlns="http://www.w3.org/2000/svg">
<path fill-rule="evenodd" clip-rule="evenodd" d="M18.873 29.0606H32.791V3.9386H18.873V29.0606Z" fill="#FF5F00"/>
<path fill-rule="evenodd" clip-rule="evenodd" d="M19.7569 16.4996C19.7533 14.0827 20.2981 11.6965 21.3504 9.52074C22.4027 7.34496 23.935 5.43632 25.8319 3.93859C23.4834 2.08559 20.6595 0.933125 17.6851 0.613768C14.7107 0.294411 11.7065 0.82113 9.01816 2.13334C6.3298 3.44555 4.06644 5.48996 2.48841 8.03141C0.910375 10.5729 0.0817658 13.5081 0.0978871 16.4996C0.0817658 19.4911 0.910375 22.4263 2.48841 24.9678C4.06644 27.5092 6.3298 29.5536 9.01816 30.8658C11.7065 32.1781 14.7107 32.7048 17.6851 32.3854C20.6595 32.0661 23.4834 30.9136 25.8319 29.0606C23.9351 27.5628 22.4028 25.6542 21.3505 23.4784C20.2982 21.3026 19.7533 18.9165 19.7569 16.4996Z" fill="#EB001B"/>
<path fill-rule="evenodd" clip-rule="evenodd" d="M51.07 26.3996V25.7796H50.908L50.723 26.2066L50.537 25.7796H50.376V26.3996H50.49V25.9316L50.664 26.3316H50.782L50.956 25.9316V26.4006L51.07 26.3996ZM50.049 26.3996V25.8856H50.256V25.7856H49.73V25.8856H49.936V26.3996H50.049ZM51.567 16.4996C51.5833 19.4912 50.7547 22.4267 49.1767 24.9683C47.5986 27.51 45.3351 29.5545 42.6465 30.8667C39.958 32.179 36.9537 32.7057 33.9791 32.3861C31.0045 32.0666 28.1805 30.9139 25.832 29.0606C27.7262 27.5605 29.2567 25.6513 30.3087 23.4761C31.3608 21.3009 31.9073 18.9159 31.9073 16.4996C31.9073 14.0833 31.3608 11.6983 30.3087 9.52307C29.2567 7.34785 27.7262 5.43873 25.832 3.93859C28.1805 2.08559 31.0044 0.933125 33.9788 0.613768C36.9532 0.294411 39.9574 0.82113 42.6458 2.13334C45.3341 3.44555 47.5975 5.48996 49.1755 8.03141C50.7535 10.5729 51.5822 13.5081 51.566 16.4996H51.567Z" fill="#F79E1B"/>
</svg>
