<svg width="29" height="28" viewBox="0 0 29 28" fill="none" xmlns="http://www.w3.org/2000/svg">
<rect x="0.5" width="28" height="28" rx="14" fill="url(#paint0_radial_208_10833)"/>
<path d="M14.5 8.26506C16.3554 8.26506 16.6084 8.26506 17.3675 8.26506C18.0422 8.26506 18.3795 8.43374 18.6325 8.51807C18.9699 8.68675 19.2229 8.77109 19.4759 9.0241C19.7289 9.27711 19.8976 9.53012 19.9819 9.86747C20.0663 10.1205 20.1506 10.4578 20.2349 11.1325C20.2349 11.8916 20.2349 12.0602 20.2349 14C20.2349 15.9398 20.2349 16.1084 20.2349 16.8675C20.2349 17.5422 20.0663 17.8795 19.9819 18.1325C19.8133 18.4699 19.7289 18.7229 19.4759 18.9759C19.2229 19.2289 18.9699 19.3976 18.6325 19.4819C18.3795 19.5663 18.0422 19.6506 17.3675 19.7349C16.6084 19.7349 16.4398 19.7349 14.5 19.7349C12.5602 19.7349 12.3916 19.7349 11.6325 19.7349C10.9578 19.7349 10.6205 19.5663 10.3675 19.4819C10.0301 19.3133 9.77711 19.2289 9.5241 18.9759C9.27109 18.7229 9.10241 18.4699 9.01807 18.1325C8.93374 17.8795 8.8494 17.5422 8.76506 16.8675C8.76506 16.1084 8.76506 15.9398 8.76506 14C8.76506 12.0602 8.76506 11.8916 8.76506 11.1325C8.76506 10.4578 8.93374 10.1205 9.01807 9.86747C9.18675 9.53012 9.27109 9.27711 9.5241 9.0241C9.77711 8.77109 10.0301 8.60241 10.3675 8.51807C10.6205 8.43374 10.9578 8.3494 11.6325 8.26506C12.3916 8.26506 12.6446 8.26506 14.5 8.26506ZM14.5 7C12.5602 7 12.3916 7 11.6325 7C10.8735 7 10.3675 7.16868 9.94578 7.33735C9.5241 7.50602 9.10241 7.75904 8.68072 8.18072C8.25904 8.60241 8.09036 8.93976 7.83735 9.44578C7.66868 9.86747 7.58434 10.3735 7.5 11.1325C7.5 11.8916 7.5 12.1446 7.5 14C7.5 15.9398 7.5 16.1084 7.5 16.8675C7.5 17.6265 7.66868 18.1325 7.83735 18.5542C8.00602 18.9759 8.25904 19.3976 8.68072 19.8193C9.10241 20.241 9.43976 20.4096 9.94578 20.6627C10.3675 20.8313 10.8735 20.9157 11.6325 21C12.3916 21 12.6446 21 14.5 21C16.3554 21 16.6084 21 17.3675 21C18.1265 21 18.6325 20.8313 19.0542 20.6627C19.4759 20.494 19.8976 20.241 20.3193 19.8193C20.741 19.3976 20.9096 19.0602 21.1627 18.5542C21.3313 18.1325 21.4157 17.6265 21.5 16.8675C21.5 16.1084 21.5 15.8554 21.5 14C21.5 12.1446 21.5 11.8916 21.5 11.1325C21.5 10.3735 21.3313 9.86747 21.1627 9.44578C20.994 9.0241 20.741 8.60241 20.3193 8.18072C19.8976 7.75904 19.5602 7.59036 19.0542 7.33735C18.6325 7.16868 18.1265 7.08434 17.3675 7C16.6084 7 16.4398 7 14.5 7Z" fill="white"/>
<path d="M14.5 10.3735C12.4759 10.3735 10.8735 11.9759 10.8735 14C10.8735 16.0241 12.4759 17.6265 14.5 17.6265C16.5241 17.6265 18.1265 16.0241 18.1265 14C18.1265 11.9759 16.5241 10.3735 14.5 10.3735ZM14.5 16.3614C13.2349 16.3614 12.1386 15.3494 12.1386 14C12.1386 12.7349 13.1506 11.6386 14.5 11.6386C15.7651 11.6386 16.8614 12.6506 16.8614 14C16.8614 15.2651 15.7651 16.3614 14.5 16.3614Z" fill="white"/>
<path d="M18.2108 11.1325C18.6766 11.1325 19.0542 10.7549 19.0542 10.2892C19.0542 9.82338 18.6766 9.44578 18.2108 9.44578C17.7451 9.44578 17.3675 9.82338 17.3675 10.2892C17.3675 10.7549 17.7451 11.1325 18.2108 11.1325Z" fill="white"/>
<defs>
<radialGradient id="paint0_radial_208_10833" cx="0" cy="0" r="1" gradientUnits="userSpaceOnUse" gradientTransform="translate(29.0633 0.568751) scale(64.6603)">
<stop stop-color="#F9ED32"/>
<stop offset="0.36" stop-color="#EE2A7B"/>
<stop offset="0.44" stop-color="#D22A8A"/>
<stop offset="0.6" stop-color="#8B2AB2"/>
<stop offset="0.83" stop-color="#1B2AF0"/>
<stop offset="0.88" stop-color="#002AFF"/>
</radialGradient>
</defs>
</svg>
