<svg width="29" height="28" viewBox="0 0 29 28" fill="none" xmlns="http://www.w3.org/2000/svg">
<path d="M0.5 14C0.5 6.26801 6.76801 0 14.5 0C22.232 0 28.5 6.26801 28.5 14C28.5 21.732 22.232 28 14.5 28C6.76801 28 0.5 21.732 0.5 14Z" fill="#55ACEE"/>
<path d="M8.08301 11.3263H10.7566V20.4166H8.08301V11.3263ZM9.41179 10.2569H9.39682C8.59901 10.2569 8.08301 9.66225 8.08301 8.91952C8.08301 8.16075 8.61506 7.58325 9.4273 7.58325C10.2406 7.58325 10.7416 8.16075 10.7566 8.91952C10.7566 9.66172 10.2406 10.2569 9.41179 10.2569ZM20.9163 20.4166H18.2427V15.5511C18.2427 14.3758 17.5877 13.5737 16.5359 13.5737C15.7333 13.5737 15.2991 14.1149 15.0884 14.6378C15.0114 14.825 15.0344 15.3426 15.0344 15.6041V20.4166H12.3608V11.3263H15.0344V12.7251C15.4199 12.1284 16.0236 11.3263 17.5679 11.3263C19.4811 11.3263 20.9158 12.5294 20.9158 15.2159L20.9163 20.4166Z" fill="white"/>
</svg>
