<svg width="55" height="43" viewBox="0 0 55 43" fill="none" xmlns="http://www.w3.org/2000/svg">
<g opacity="0.4">
<path opacity="0.979" fill-rule="evenodd" clip-rule="evenodd" d="M0.672852 7.71683C0.672852 6.97854 0.672852 6.24026 0.672852 5.50197C1.4867 2.72117 3.34999 1.20945 6.26272 0.966797C8.97667 1.15391 10.7872 2.52501 11.6944 5.0801C12.2752 7.76925 11.4491 9.89614 9.21586 11.461C6.2279 12.9236 3.67906 12.3788 1.56934 9.82621C1.17845 9.15132 0.87962 8.44815 0.672852 7.71683Z" fill="white"/>
<path opacity="0.979" fill-rule="evenodd" clip-rule="evenodd" d="M54.673 5.71291C54.673 6.3106 54.673 6.90819 54.673 7.50589C54.1209 9.24391 52.9256 10.2107 51.0871 10.4063C41.0675 10.4766 31.0479 10.4766 21.0283 10.4063C18.7883 10.1525 17.5578 8.90451 17.3369 6.66213C17.4963 4.65707 18.551 3.40902 20.501 2.91797C30.837 2.84766 41.173 2.84766 51.5089 2.91797C53.1136 3.24016 54.1683 4.17181 54.673 5.71291Z" fill="white"/>
<path opacity="0.979" fill-rule="evenodd" clip-rule="evenodd" d="M0.672852 22.6939C0.672852 21.9205 0.672852 21.1469 0.672852 20.3735C1.69077 17.1266 3.90562 15.6676 7.31741 15.9966C10.2041 16.7207 11.7158 18.5664 11.8526 21.5337C11.7158 24.501 10.2041 26.3467 7.31741 27.0708C3.90562 27.3998 1.69077 25.9408 0.672852 22.6939Z" fill="white"/>
<path opacity="0.979" fill-rule="evenodd" clip-rule="evenodd" d="M54.673 20.6895C54.673 21.252 54.673 21.8145 54.673 22.377C54.1896 24.0722 53.0647 25.0391 51.298 25.2774C41.1378 25.3478 30.9776 25.3478 20.8174 25.2774C18.6934 24.9286 17.5332 23.6806 17.3369 21.5333C17.5332 19.3859 18.6934 18.1379 20.8174 17.7891C30.9776 17.7187 41.1378 17.7187 51.298 17.7891C53.0647 18.0274 54.1896 18.9943 54.673 20.6895Z" fill="white"/>
<path opacity="0.979" fill-rule="evenodd" clip-rule="evenodd" d="M0.672852 37.5642C0.672852 36.8259 0.672852 36.0877 0.672852 35.3494C1.62322 32.1005 3.80291 30.6063 7.21194 30.8669C9.67817 31.3995 11.2075 32.8937 11.7999 35.3494C12.1749 38.2384 11.0675 40.3302 8.47757 41.6248C5.61542 42.5808 3.27752 41.8601 1.46387 39.4627C1.12513 38.848 0.861458 38.2152 0.672852 37.5642Z" fill="white"/>
<path opacity="0.979" fill-rule="evenodd" clip-rule="evenodd" d="M54.673 35.5606C54.673 36.1583 54.673 36.7559 54.673 37.3536C54.1683 38.8947 53.1136 39.8263 51.5089 40.1485C41.173 40.2189 30.837 40.2189 20.501 40.1485C18.551 39.6574 17.4963 38.4094 17.3369 36.4043C17.5578 34.162 18.7883 32.9139 21.0283 32.6602C31.0479 32.5898 41.0675 32.5898 51.0871 32.6602C52.9256 32.8557 54.1209 33.8226 54.673 35.5606Z" fill="white"/>
</g>
</svg>
