<svg width="16" height="20" viewBox="0 0 16 20" fill="none" xmlns="http://www.w3.org/2000/svg">
<path opacity="0.4" fill-rule="evenodd" clip-rule="evenodd" d="M8.00019 0.833008C5.69901 0.833008 3.83352 2.69849 3.83352 4.99967V7.64236C2.07802 7.84366 0.721465 9.24142 0.592642 11.0237C0.538767 11.7692 0.5 12.5706 0.5 13.3331C0.5 14.0956 0.538767 14.8969 0.59265 15.6424C0.726142 17.4894 2.17813 18.9234 4.02626 19.0409C5.13148 19.1111 6.48292 19.1664 8 19.1664C9.51708 19.1664 10.8685 19.1111 11.9738 19.0409C13.8218 18.9234 15.2738 17.4894 15.4073 15.6424C15.4613 14.8969 15.5 14.0956 15.5 13.3331C15.5 12.5706 15.4613 11.7692 15.4073 11.0237C15.2785 9.24155 13.9221 7.84387 12.1669 7.64241V4.99967C12.1669 2.69849 10.3014 0.833008 8.00019 0.833008ZM10.5002 7.54932V4.99967C10.5002 3.61897 9.38094 2.49967 8.00019 2.49967C6.61944 2.49967 5.50019 3.61897 5.50019 4.99967V7.54931C6.2645 7.51902 7.10332 7.49972 8 7.49972C8.89683 7.49972 9.73577 7.51902 10.5002 7.54932ZM7.99984 9.16634C6.52267 9.16634 5.20687 9.22018 4.13182 9.28851C3.1121 9.35326 2.328 10.1313 2.25481 11.1438C2.20275 11.8641 2.1665 12.6231 2.1665 13.333C2.1665 14.0429 2.20275 14.8019 2.25481 15.5222C2.328 16.5347 3.1121 17.3128 4.13182 17.3775C5.20687 17.4458 6.52267 17.4997 7.99984 17.4997C9.477 17.4997 10.7928 17.4458 11.8678 17.3775C12.8876 17.3128 13.6717 16.5347 13.7448 15.5222C13.7969 14.8019 13.8332 14.0429 13.8332 13.333C13.8332 12.6231 13.7969 11.8641 13.7448 11.1438C13.6717 10.1313 12.8876 9.35326 11.8678 9.28851C10.7928 9.22018 9.477 9.16634 7.99984 9.16634ZM8.83352 13.9433C9.33169 13.6552 9.66685 13.1166 9.66685 12.4997C9.66685 11.5792 8.92069 10.833 8.00019 10.833C7.07969 10.833 6.33352 11.5792 6.33352 12.4997C6.33352 13.1166 6.66869 13.6552 7.16686 13.9433V14.9997C7.16686 15.4599 7.53994 15.833 8.00019 15.833C8.46044 15.833 8.83352 15.4599 8.83352 14.9997V13.9433Z" fill="white"/>
</svg>
