<svg width="18" height="18" viewBox="0 0 18 18" fill="none" xmlns="http://www.w3.org/2000/svg">
<path fill-rule="evenodd" clip-rule="evenodd" d="M8.9451 12.232C8.96206 11.7818 9.34083 11.4306 9.79105 11.4476C10.2413 11.4646 10.5925 11.8433 10.5755 12.2936C10.5362 13.3354 10.4804 14.1102 10.4236 14.6807C10.3041 15.8801 9.46792 16.8739 8.18993 17.0301C7.59507 17.1028 6.79586 17.1575 5.736 17.1575C4.67615 17.1575 3.87694 17.1028 3.28199 17.0301C2.004 16.8739 1.16792 15.8795 1.04849 14.6805C0.943335 13.6246 0.841362 11.8643 0.841362 8.99966C0.841362 6.135 0.943335 4.37471 1.04849 3.31887C1.16792 2.11977 2.004 1.12548 3.28199 0.969239C3.87694 0.896512 4.67615 0.841797 5.736 0.841797C6.79586 0.841797 7.59507 0.896512 8.18993 0.969231C9.46792 1.12545 10.3041 2.11928 10.4236 3.31861C10.4804 3.88911 10.5362 4.66395 10.5755 5.70574C10.5925 6.15597 10.2413 6.53472 9.79105 6.55172C9.34083 6.56871 8.96206 6.21751 8.9451 5.76729C8.90675 4.7523 8.85299 4.01149 8.80005 3.48035C8.74792 2.95728 8.43214 2.64256 7.99203 2.58875C7.47295 2.52529 6.74079 2.47337 5.736 2.47337C4.73122 2.47337 3.99906 2.5253 3.47998 2.58875C3.04004 2.64253 2.72409 2.9574 2.67204 3.4806C2.57382 4.46651 2.47291 6.16984 2.47291 8.99966C2.47291 11.8295 2.57382 13.5328 2.67204 14.5187C2.72409 15.0419 3.04004 15.3568 3.47998 15.4106C3.99906 15.474 4.73122 15.5259 5.736 15.5259C6.74079 15.5259 7.47295 15.474 7.99203 15.4106C8.43214 15.3568 8.74792 15.042 8.80005 14.5189C8.85299 13.9878 8.90675 13.2471 8.9451 12.232ZM12.9099 12.4321C12.5913 12.1135 12.5913 11.597 12.9099 11.2784L14.3725 9.8158H6.55266C6.10211 9.8158 5.73689 9.45057 5.73689 9.00002C5.73689 8.54946 6.10211 8.18423 6.55266 8.18423H14.3725L12.9099 6.72161C12.5913 6.40303 12.5913 5.8865 12.9099 5.56791C13.2285 5.24933 13.745 5.24933 14.0636 5.56791L16.9188 8.42317C17.2374 8.74174 17.2374 9.25829 16.9188 9.57686L14.0636 12.4321C13.745 12.7507 13.2285 12.7507 12.9099 12.4321Z" fill="#FF5252"/>
</svg>
