<svg width="59" height="59" viewBox="0 0 59 59" fill="none" xmlns="http://www.w3.org/2000/svg">
<g opacity="0.4">
<path opacity="0.971" fill-rule="evenodd" clip-rule="evenodd" d="M36.1866 2.25621C37.3035 2.01261 38.1154 2.39022 38.6221 3.38903C38.6977 5.05049 38.6977 6.71194 38.6221 8.3734C38.1154 9.39092 37.3035 9.74964 36.1866 9.44957C35.6768 9.24189 35.318 8.88317 35.1104 8.3734C35.0348 6.71194 35.0348 5.05049 35.1104 3.38903C35.3394 2.877 35.6982 2.4994 36.1866 2.25621Z" fill="white"/>
<path opacity="0.989" fill-rule="evenodd" clip-rule="evenodd" d="M26.2178 5.42731C26.9173 5.33025 27.5592 5.46241 28.1436 5.82379C35.9033 13.5836 43.6631 21.3433 51.4229 29.1031C52.0299 30.1398 51.8978 31.065 51.0264 31.8785C44.436 35.3732 37.8469 38.866 31.2588 42.357C25.7313 36.9429 20.2372 31.4865 14.7764 25.9879C18.2837 19.4077 21.7765 12.8185 25.2549 6.22028C25.5314 5.88569 25.8524 5.62137 26.2178 5.42731Z" fill="white"/>
<path opacity="0.954" fill-rule="evenodd" clip-rule="evenodd" d="M47.062 7.69357C49.2458 7.59272 49.9822 8.57449 49.271 10.6389C47.9305 11.9793 46.5899 13.3199 45.2495 14.6604C43.1689 15.3734 42.206 14.637 42.3608 12.4514C42.4364 12.3004 42.5118 12.1493 42.5874 11.9983C44.0327 10.4959 45.5242 9.06104 47.062 7.69357Z" fill="white"/>
<path opacity="0.971" fill-rule="evenodd" clip-rule="evenodd" d="M48.8745 18.5686C50.5363 18.5497 52.1978 18.5686 53.8588 18.6253C54.8763 19.132 55.2351 19.9439 54.935 21.0608C54.7274 21.5706 54.3686 21.9293 53.8588 22.137C52.1973 22.2125 50.5359 22.2125 48.8745 22.137C48.083 21.819 47.7054 21.2338 47.7416 20.3811C47.7192 19.5185 48.0968 18.9142 48.8745 18.5686Z" fill="white"/>
<path opacity="0.984" fill-rule="evenodd" clip-rule="evenodd" d="M13.9836 30.2363C18.3237 34.5009 22.6284 38.8056 26.8977 43.1504C25.1057 44.999 23.2932 46.8304 21.4602 48.6445C19.3096 50.1922 17.0817 50.3055 14.7766 48.9844C12.6464 46.9674 10.5507 44.9095 8.4895 42.8105C7.04045 40.6952 6.92717 38.5052 8.14966 36.2402C10.0762 34.2194 12.0208 32.2181 13.9836 30.2363Z" fill="white"/>
<path opacity="0.939" fill-rule="evenodd" clip-rule="evenodd" d="M4.58117 43.2639C4.68045 43.249 4.75598 43.2868 4.80774 43.3772C5.10985 43.9819 5.46857 44.5483 5.88391 45.0764C7.97961 47.1721 10.0753 49.2678 12.171 51.3635C12.7371 51.7978 13.3412 52.1754 13.9835 52.4963C10.3369 53.6219 7.41043 52.6213 5.20422 49.4944C4.17103 47.5018 3.96334 45.4251 4.58117 43.2639Z" fill="white"/>
<path opacity="0.973" fill-rule="evenodd" clip-rule="evenodd" d="M29.3896 45.6426C30.6695 46.8658 31.9345 48.1119 33.1846 49.3809C34.3174 51.1934 34.3174 53.0059 33.1846 54.8184C31.3389 56.8244 29.2053 57.1831 26.7842 55.8945C25.4077 54.6501 24.086 53.3474 22.8193 51.9863C25.118 49.9899 27.3081 47.8752 29.3896 45.6426Z" fill="white"/>
</g>
</svg>
