<svg width="88" height="88" viewBox="0 0 88 88" fill="none" xmlns="http://www.w3.org/2000/svg">
<path d="M72.5411 33.4775C68.2982 27.5775 62.4101 23.0591 55.613 20.4874C55.613 18.6847 55.4275 17.3861 55.025 16.5215C54.2374 14.8413 52.7007 13.5006 50.5654 12.6325C50.5177 12.1764 50.3642 11.7378 50.1174 11.3513C50.8897 10.2875 51.3084 9.00799 51.3145 7.69339C51.3145 3.72741 47.443 0.5 42.686 0.5C37.9289 0.5 34.0574 3.72741 34.0574 7.69339C34.0729 9.21659 34.63 10.6845 35.6291 11.8344C35.491 12.1673 35.4196 12.5241 35.4191 12.8845C35.4191 12.9615 35.4191 13.0385 35.4191 13.1156C33.2803 14.0397 31.8136 15.2543 31.1626 16.651C30.8125 17.3896 30.627 18.4397 30.5815 19.8469C23.3479 22.1912 16.9991 26.6817 12.3793 32.7214C8.17431 38.2413 5.6538 44.8586 5.12098 51.7772C4.58816 58.6958 6.06572 65.621 9.37591 71.7197C9.43788 71.827 9.52725 71.916 9.63488 71.9775C9.74251 72.039 9.86453 72.0708 9.98848 72.0697H15.5717C15.6773 72.1339 15.7981 72.1689 15.9217 72.1712L22.485 72.0732H42.679C42.7846 72.1666 42.916 72.2259 43.0559 72.2434C43.1958 72.2609 43.3377 72.2357 43.4631 72.1712L43.6556 72.0732H74.3648C74.4894 72.075 74.6121 72.0434 74.7204 71.9819C74.8287 71.9204 74.9186 71.8311 74.9809 71.7232C78.2117 65.7646 79.6957 59.0153 79.2623 52.251C78.8288 45.4867 76.4955 38.982 72.5306 33.4845L72.5411 33.4775Z" fill="white"/>
<path d="M10.0694 71.3625H74.3652C77.176 66.1961 78.6456 60.407 78.6392 54.5255C78.6392 34.7446 62.3202 18.7126 42.1893 18.7126C22.0583 18.7126 5.75686 34.7446 5.75686 54.5255C5.75051 60.4081 7.22004 66.1984 10.0309 71.3661L10.0694 71.3625Z" fill="#FF0079"/>
<path d="M42.6824 14.1656C47.0612 14.1656 50.6108 11.2585 50.6108 7.67236C50.6108 4.08622 47.0612 1.17908 42.6824 1.17908C38.3036 1.17908 34.7539 4.08622 34.7539 7.67236C34.7539 11.2585 38.3036 14.1656 42.6824 14.1656Z" fill="white"/>
<path d="M42.9975 16.546C46.7963 16.546 49.8758 14.8957 49.8758 12.86C49.8758 10.8243 46.7963 9.17407 42.9975 9.17407C39.1987 9.17407 36.1191 10.8243 36.1191 12.86C36.1191 14.8957 39.1987 16.546 42.9975 16.546Z" fill="#FF0079"/>
<path d="M33.4598 37.5442C35.0191 37.0354 35.6913 34.8095 34.9614 32.5725C34.2314 30.3356 32.3757 28.9347 30.8164 29.4435C29.2572 29.9523 28.5849 32.1781 29.3149 34.4151C30.0448 36.652 31.9006 38.053 33.4598 37.5442Z" fill="#070036"/>
<path d="M57.3361 34.6755C58.0653 32.4366 57.3913 30.2096 55.8307 29.7013C54.2701 29.193 52.4138 30.5959 51.6846 32.8349C50.9554 35.0738 51.6294 37.3008 53.19 37.8091C54.7506 38.3174 56.6069 36.9144 57.3361 34.6755Z" fill="#070036"/>
<path d="M63.1632 71.3662V60.7809C63.1632 60.7459 63.1632 60.7109 63.1632 60.6724C63.1632 54.2701 54.2792 49.079 43.3228 49.079C32.3665 49.079 23.4824 54.2701 23.4824 60.6724V71.3627L63.1632 71.3662Z" fill="#070036"/>
<path d="M22.5233 71.3661L22.4532 60.3502L15.96 71.4641L22.5233 71.3661Z" fill="#070036"/>
<path d="M64.1262 71.3276L64.0947 60.3502L70.5005 71.3556L64.1262 71.3276Z" fill="#070036"/>
<path d="M54.2619 31.2617C54.2619 38.0211 49.3298 47.4512 43.2426 47.4512C37.1553 47.4512 32.2197 38.0281 32.2197 31.2617C32.2197 24.4954 37.1553 19.0103 43.2426 19.0103C49.3298 19.0103 54.2619 24.5024 54.2619 31.2617Z" fill="#070036"/>
<path d="M31.9608 40.1142C32.8965 40.1142 33.655 39.3024 33.655 38.301C33.655 37.2996 32.8965 36.4878 31.9608 36.4878C31.0251 36.4878 30.2666 37.2996 30.2666 38.301C30.2666 39.3024 31.0251 40.1142 31.9608 40.1142Z" fill="white"/>
<path d="M54.6229 39.5332C55.5586 39.5332 56.3171 38.7214 56.3171 37.72C56.3171 36.7185 55.5586 35.9067 54.6229 35.9067C53.6872 35.9067 52.9287 36.7185 52.9287 37.72C52.9287 38.7214 53.6872 39.5332 54.6229 39.5332Z" fill="white"/>
<path d="M38.2336 49.4115C38.2336 49.4115 35.8288 53.3775 35.5033 56.4999C35.1777 59.6222 43.3722 71.3277 43.3722 71.3277C43.3722 71.3277 38.4296 68.7899 37.39 67.8798C36.3504 66.9696 33.487 62.4821 33.487 62.4821C33.487 62.4821 28.9365 65.1494 27.5713 67.0991C27.5713 67.0991 23.9274 50.8397 38.2336 49.4115Z" fill="#FF0079"/>
<path d="M48.3291 49.625C48.3291 49.625 50.7373 53.5945 51.0629 56.7169C51.3884 59.8392 43.1904 71.5447 43.1904 71.5447C43.1904 71.5447 48.133 69.0069 49.1761 68.0968C50.2193 67.1866 53.0756 62.6991 53.0756 62.6991C53.0756 62.6991 57.6262 65.3664 58.9949 67.3161C58.9949 67.3161 62.6388 51.0567 48.3291 49.625Z" fill="#FF0079"/>
<path d="M54.3877 16.8015C51.0763 9.7236 34.3128 11.5508 31.8065 16.924C30.3503 20.0499 32.3841 29.9316 32.3841 29.9316C32.8286 25.7311 40.05 20.2774 46.0007 21.0475C50.0437 21.569 53.5126 26.9597 53.8137 29.7985C53.8137 29.816 55.8439 19.9098 54.3877 16.8015Z" fill="white"/>
<path d="M36.4904 53.899C37.2714 53.899 37.9045 53.222 37.9045 52.3868C37.9045 51.5516 37.2714 50.8746 36.4904 50.8746C35.7093 50.8746 35.0762 51.5516 35.0762 52.3868C35.0762 53.222 35.7093 53.899 36.4904 53.899Z" fill="white"/>
<path d="M38.7618 55.7752C39.5428 55.7752 40.176 55.0982 40.176 54.263C40.176 53.4279 39.5428 52.7509 38.7618 52.7509C37.9808 52.7509 37.3477 53.4279 37.3477 54.263C37.3477 55.0982 37.9808 55.7752 38.7618 55.7752Z" fill="white"/>
<path d="M41.59 56.3563C42.371 56.3563 43.0041 55.6793 43.0041 54.8441C43.0041 54.0089 42.371 53.3319 41.59 53.3319C40.8089 53.3319 40.1758 54.0089 40.1758 54.8441C40.1758 55.6793 40.8089 56.3563 41.59 56.3563Z" fill="white"/>
<path d="M44.4113 56.3703C45.1923 56.3703 45.8254 55.6933 45.8254 54.8581C45.8254 54.023 45.1923 53.3459 44.4113 53.3459C43.6302 53.3459 42.9971 54.023 42.9971 54.8581C42.9971 55.6933 43.6302 56.3703 44.4113 56.3703Z" fill="white"/>
<path d="M47.1036 55.6142C47.8847 55.6142 48.5178 54.9372 48.5178 54.102C48.5178 53.2669 47.8847 52.5898 47.1036 52.5898C46.3226 52.5898 45.6895 53.2669 45.6895 54.102C45.6895 54.9372 46.3226 55.6142 47.1036 55.6142Z" fill="white"/>
<path d="M49.4835 54.123C50.2645 54.123 50.8977 53.446 50.8977 52.6108C50.8977 51.7757 50.2645 51.0986 49.4835 51.0986C48.7025 51.0986 48.0693 51.7757 48.0693 52.6108C48.0693 53.446 48.7025 54.123 49.4835 54.123Z" fill="white"/>
<path d="M30.127 28.3774L42.4799 31.6679C42.4799 31.6679 40.7963 35.1158 36.9108 34.5277C33.0253 33.9396 30.127 28.3774 30.127 28.3774Z" fill="white"/>
<path d="M56.7862 28.3214L44.4297 31.6083C44.4297 31.6083 46.1134 35.0597 50.0059 34.4576C53.8983 33.8556 56.7862 28.3214 56.7862 28.3214Z" fill="white"/>
<path d="M44.9192 32.1788C44.4957 31.9337 44.0178 31.7983 43.5288 31.7849C43.0397 31.7714 42.5551 31.8804 42.1188 32.1018L41.8213 31.6047C42.3464 31.329 42.9328 31.1905 43.5258 31.2021C44.1188 31.2137 44.6993 31.3751 45.2132 31.6712L44.9192 32.1788Z" fill="white"/>
<path d="M36.7214 80.8909C36.8041 80.7691 36.88 80.6429 36.9489 80.5128C37.2337 80.0197 37.3868 79.4615 37.3934 78.8921V76.7919C37.3943 76.2991 37.2982 75.811 37.1105 75.3553C36.9227 74.8997 36.6471 74.4855 36.2993 74.1364C35.9515 73.7873 35.5383 73.5102 35.0834 73.3207C34.6285 73.1313 34.1407 73.0333 33.648 73.0324L30.3226 73.0534C30.0774 73.0553 29.8429 73.1537 29.6699 73.3274C29.4969 73.501 29.3994 73.7359 29.3985 73.981V80.7754L28.2188 73.8795C28.1813 73.6655 28.0701 73.4714 27.9045 73.3308C27.7389 73.1902 27.5294 73.1119 27.3122 73.1094L25.2994 73.0884C25.0798 73.0876 24.867 73.1644 24.6985 73.3053C24.53 73.4463 24.4168 73.6422 24.3788 73.8585L23.1712 80.6668C23.0983 80.5028 22.9796 80.3633 22.8293 80.2652C22.679 80.1671 22.5036 80.1145 22.3241 80.1138H19.1492C19.1027 80.1086 19.0557 80.1086 19.0092 80.1138V77.0404C19.0092 76.5083 19.1212 76.4068 19.1212 76.4068C19.1526 76.4026 19.1844 76.4026 19.2157 76.4068C19.4642 76.4068 19.5167 76.9564 19.5167 77.4185V78.5386C19.5167 78.7855 19.6148 79.0224 19.7895 79.197C19.9641 79.3716 20.2009 79.4697 20.4479 79.4697H22.3241C22.571 79.4697 22.8079 79.3716 22.9825 79.197C23.1571 79.0224 23.2552 78.7855 23.2552 78.5386V76.6028C23.2533 75.6095 22.8577 74.6573 22.1549 73.9552C21.4521 73.2531 20.4996 72.8583 19.5062 72.8574H19.0197C18.5268 72.8507 18.0377 72.9444 17.5821 73.1328C17.1266 73.3211 16.7141 73.6002 16.3699 73.953C16.2389 74.0866 16.1161 74.2281 16.0023 74.3766V73.9075C16.0023 73.6612 15.9047 73.4249 15.7308 73.2504C15.557 73.0758 15.321 72.9773 15.0747 72.9764H13.195C12.9486 72.9773 12.7127 73.0758 12.5388 73.2504C12.365 73.4249 12.2674 73.6612 12.2674 73.9075V83.0751C12.2674 83.7227 12.1344 83.7227 12.0503 83.7227C11.8858 83.7227 11.7563 83.7227 11.7563 83.0751V73.9075C11.7563 73.6612 11.6587 73.4249 11.4848 73.2504C11.311 73.0758 11.075 72.9773 10.8287 72.9764H8.94896C8.70262 72.9773 8.46668 73.0758 8.29282 73.2504C8.11896 73.4249 8.02135 73.6612 8.02135 73.9075V74.2016C7.95134 74.1176 7.87783 74.0405 7.80082 73.9635C7.45608 73.6101 7.04312 73.3305 6.58702 73.1415C6.13091 72.9526 5.64116 72.8583 5.1475 72.8644H4.65743C3.66343 72.8635 2.70967 73.257 2.00549 73.9585C1.30132 74.6601 0.904265 75.6124 0.901484 76.6064V78.3321C0.897292 78.8417 1.00626 79.346 1.22055 79.8085C1.43483 80.2709 1.74909 80.6801 2.14064 81.0064C2.88864 81.6881 3.86595 82.063 4.87796 82.0565C5.00748 82.0565 5.1475 82.4066 5.1475 83.1872C5.16251 83.4378 5.13889 83.6893 5.07749 83.9327C5.02861 83.9377 4.97936 83.9377 4.93048 83.9327C4.89249 83.9417 4.85294 83.9417 4.81496 83.9327C4.81496 83.9327 4.62943 83.7367 4.63994 82.9526C4.64086 82.8298 4.61746 82.7079 4.57108 82.5941C4.5247 82.4804 4.45627 82.3769 4.36971 82.2897C4.28316 82.2025 4.1802 82.1333 4.06677 82.086C3.95334 82.0388 3.83169 82.0145 3.70882 82.0145H1.8326C1.58594 82.0154 1.34964 82.1138 1.17522 82.2882C1.0008 82.4627 0.902406 82.699 0.901484 82.9456V83.7542C0.905185 84.7483 1.30242 85.7004 2.00629 86.4023C2.71017 87.1042 3.66339 87.4988 4.65743 87.4997H5.1475C5.64094 87.5064 6.13059 87.4128 6.58672 87.2244C7.04284 87.0361 7.4559 86.757 7.80082 86.404C8.08331 86.1206 8.31955 85.7946 8.50091 85.4379C8.67134 85.7311 8.88096 85.9995 9.12398 86.236C9.46571 86.5873 9.87523 86.8656 10.3277 87.054C10.7802 87.2423 11.2662 87.3368 11.7563 87.3316H12.2464C12.739 87.3378 13.2277 87.2435 13.6827 87.0545C14.1377 86.8656 14.5494 86.5859 14.8927 86.2325C15.1907 85.9372 15.4389 85.5955 15.6278 85.2209C15.8141 85.5962 16.0613 85.938 16.3594 86.2325C16.7032 86.5861 17.1155 86.866 17.5711 87.055C18.0267 87.2439 18.516 87.3381 19.0092 87.3316H19.4957C19.9879 87.3384 20.4763 87.2443 20.9308 87.0553C21.3853 86.8663 21.7963 86.5863 22.1386 86.2325L22.2016 86.1625C22.1823 86.4036 22.2563 86.6429 22.4081 86.8311C22.4944 86.9329 22.6016 87.015 22.7224 87.0718C22.8431 87.1285 22.9747 87.1587 23.1082 87.1601H25.0544C25.2734 87.1614 25.4857 87.0846 25.6531 86.9434C25.8206 86.8023 25.9322 86.6061 25.968 86.39L26.2411 84.7938L26.5001 86.383C26.5358 86.6004 26.6477 86.7979 26.8157 86.9402C26.9838 87.0826 27.197 87.1606 27.4172 87.1601H29.3634C29.5059 87.0774 29.6678 87.0339 29.8325 87.0339C29.9972 87.0339 30.1591 87.0774 30.3016 87.1601H32.2548C32.5011 87.1601 32.7374 87.0625 32.912 86.8887C33.0865 86.7148 33.185 86.4789 33.1859 86.2325V82.6131C33.3296 82.6175 33.4716 82.6459 33.606 82.6971C33.7145 82.7601 33.767 82.9421 33.767 83.2431V86.229C33.767 86.3511 33.7911 86.472 33.8379 86.5848C33.8848 86.6976 33.9534 86.8 34.0399 86.8862C34.1264 86.9724 34.2291 87.0406 34.342 87.087C34.455 87.1334 34.576 87.1571 34.6981 87.1566H36.5778C36.8238 87.1566 37.0598 87.0589 37.2337 86.8849C37.4077 86.711 37.5054 86.475 37.5054 86.229V82.8056C37.4964 82.2139 37.2949 81.6413 36.9314 81.1744C36.8668 81.076 36.7966 80.9814 36.7214 80.8909ZM33.6585 77.2329V78.4021C33.6743 78.6211 33.6469 78.8411 33.578 79.0496C33.536 79.0531 33.4939 79.0531 33.4519 79.0496H33.2069V76.5328C33.341 76.5303 33.4749 76.5433 33.606 76.5713C33.6493 76.789 33.6669 77.0111 33.6585 77.2329ZM8.01785 78.36V79.9108C7.90892 79.7866 7.79199 79.6696 7.6678 79.5607C6.92839 78.8832 5.96134 78.5084 4.95848 78.5106C4.83946 78.5106 4.82546 78.5106 4.76596 78.3321C4.67602 77.9326 4.64068 77.5228 4.66094 77.1139C4.64963 76.8888 4.67325 76.6632 4.73095 76.4453C4.77975 76.439 4.82916 76.439 4.87796 76.4453C5.02848 76.4453 5.05299 76.4663 5.07049 76.5083C5.15381 76.8148 5.18691 77.1328 5.1685 77.4499C5.1685 77.6969 5.2666 77.9337 5.44122 78.1083C5.61583 78.283 5.85267 78.3811 6.09962 78.3811H8.02485L8.01785 78.36Z" fill="#070036"/>
<path d="M87.0677 74.2715C87.1036 74.1342 87.1075 73.9904 87.0791 73.8513C87.0507 73.7122 86.9907 73.5815 86.9038 73.4692C86.8168 73.3569 86.7053 73.2661 86.5778 73.2037C86.4503 73.1413 86.3101 73.109 86.1681 73.1094H84.2149C84.0037 73.1105 83.7992 73.1831 83.6346 73.3153C83.4699 73.4475 83.3549 73.6315 83.3083 73.8375L83.0352 75.0766L82.7762 73.848C82.7321 73.6392 82.6176 73.452 82.4519 73.3175C82.2863 73.1831 82.0794 73.1096 81.8661 73.1094H79.9128C79.7135 73.1078 79.5192 73.1718 79.3598 73.2914C79.1997 73.1729 79.0058 73.1091 78.8067 73.1094H76.6645C76.461 73.1096 76.2633 73.1765 76.1015 73.2998C75.9396 73.4231 75.8226 73.5959 75.7683 73.792L74.2702 79.2561L72.6915 73.7815C72.6344 73.5885 72.5169 73.4191 72.3561 73.298C72.1954 73.177 72 73.1109 71.7989 73.1094H69.6986C69.5651 73.1104 69.4333 73.1403 69.3125 73.1971C69.1916 73.2539 69.0845 73.3362 68.9985 73.4384C68.981 73.4384 68.9705 73.3999 68.953 73.3824C68.8671 73.2953 68.7646 73.2263 68.6516 73.1794C68.5386 73.1325 68.4173 73.1087 68.2949 73.1094H66.1562C65.9526 73.1091 65.7546 73.1757 65.5926 73.2991C65.4307 73.4224 65.3138 73.5956 65.2601 73.792L63.7584 79.2561L62.1797 73.7815C62.1226 73.5885 62.0051 73.4191 61.8443 73.298C61.6836 73.177 61.4883 73.1109 61.2871 73.1094H59.2043C58.958 73.1094 58.7217 73.207 58.5472 73.3809C58.3726 73.5547 58.2742 73.7907 58.2732 74.037V74.5201C58.1325 74.3177 57.9731 74.1291 57.7972 73.9565C57.4545 73.6066 57.0448 73.3295 56.5924 73.1418C56.1401 72.9542 55.6545 72.8598 55.1648 72.8644H54.6748C54.1824 72.8575 53.6938 72.9512 53.2388 73.1396C52.7838 73.3279 52.3719 73.6071 52.0285 73.96C51.8342 74.1551 51.6606 74.3698 51.5104 74.6006V74.037C51.5095 73.7907 51.411 73.5547 51.2364 73.3809C51.0619 73.207 50.8256 73.1094 50.5793 73.1094H48.4615C48.2581 73.1096 48.0604 73.1765 47.8985 73.2998C47.7367 73.4231 47.6197 73.5959 47.5654 73.792L46.0672 79.2561L44.485 73.7815C44.429 73.588 44.3117 73.4178 44.1507 73.2967C43.9898 73.1755 43.7939 73.1098 43.5924 73.1094H41.5097C41.2637 73.1094 41.0277 73.2071 40.8538 73.3811C40.6798 73.555 40.5821 73.791 40.5821 74.037V86.229C40.5811 86.3511 40.6045 86.4721 40.6508 86.5851C40.6971 86.698 40.7654 86.8007 40.8517 86.887C40.938 86.9733 41.0406 87.0416 41.1536 87.0879C41.2666 87.1342 41.3876 87.1575 41.5097 87.1566H43.4629C43.5488 87.0317 43.6638 86.9296 43.7979 86.859C43.9321 86.7884 44.0814 86.7516 44.233 86.7516C44.3846 86.7516 44.5339 86.7884 44.6681 86.859C44.8022 86.9296 44.9172 87.0317 45.0031 87.1566H46.9563C47.1346 87.1563 47.309 87.1051 47.4591 87.009C47.6092 86.9129 47.7287 86.7758 47.8034 86.614C47.8769 86.7761 47.9956 86.9135 48.1452 87.0097C48.2949 87.106 48.4691 87.157 48.6471 87.1566H50.6003C50.8466 87.1566 51.0829 87.059 51.2574 86.8851C51.432 86.7113 51.5305 86.4753 51.5314 86.229V85.5919C51.6807 85.8222 51.8544 86.0358 52.0495 86.229C52.3926 86.5825 52.8043 86.8623 53.2593 87.0513C53.7143 87.2403 54.2031 87.3345 54.6958 87.3281H55.1858C55.6759 87.3332 56.1619 87.2388 56.6144 87.0504C57.0669 86.8621 57.4764 86.5838 57.8182 86.2325C57.9949 86.0619 58.1543 85.8743 58.2942 85.6724V86.229C58.2942 86.475 58.3919 86.7109 58.5659 86.8849C58.7399 87.0589 58.9758 87.1566 59.2218 87.1566H61.1786C61.3298 87.1568 61.4788 87.1199 61.6125 87.0491C61.7461 86.9783 61.8604 86.8758 61.9452 86.7505C62.0313 86.8761 62.1468 86.9788 62.2816 87.0495C62.4164 87.1203 62.5665 87.157 62.7188 87.1566H64.672C64.8498 87.1565 65.0239 87.1054 65.1734 87.0092C65.323 86.913 65.4418 86.7758 65.5156 86.614C65.5613 86.7159 65.6254 86.8084 65.7046 86.8871C65.7911 86.9732 65.8937 87.0414 66.0067 87.0877C66.1197 87.1339 66.2406 87.1573 66.3627 87.1566H68.3159C68.4495 87.1556 68.5812 87.1257 68.7021 87.0689C68.8229 87.0121 68.93 86.9297 69.016 86.8275C69.0304 86.8489 69.0468 86.8688 69.065 86.8871C69.1508 86.9731 69.2529 87.0413 69.3653 87.0875C69.4776 87.1338 69.5981 87.1573 69.7196 87.1566H71.6728C71.7587 87.0317 71.8737 86.9296 72.0079 86.859C72.142 86.7884 72.2914 86.7516 72.4429 86.7516C72.5945 86.7516 72.7438 86.7884 72.878 86.859C73.0122 86.9296 73.1271 87.0317 73.213 87.1566H75.1698C75.3474 87.1557 75.5211 87.1041 75.6705 87.0081C75.8199 86.912 75.9389 86.7753 76.0134 86.614C76.0591 86.7159 76.1232 86.8084 76.2024 86.8871C76.2883 86.973 76.3904 87.041 76.5027 87.0873C76.6151 87.1335 76.7355 87.1571 76.857 87.1566H78.8137C79.0597 87.1566 79.2957 87.0589 79.4696 86.8849C79.6436 86.7109 79.7413 86.475 79.7413 86.229V77.2644L81.061 82.7426V83.4426V86.243C81.061 86.3651 81.0851 86.486 81.1319 86.5988C81.1788 86.7115 81.2474 86.814 81.3339 86.9001C81.4204 86.9863 81.5231 87.0546 81.636 87.101C81.749 87.1474 81.87 87.1711 81.9921 87.1706H83.9453C84.1914 87.1706 84.4273 87.0729 84.6013 86.8989C84.7752 86.7249 84.873 86.489 84.873 86.243C84.873 86.096 84.873 85.7074 84.845 85.0248C84.8169 84.3423 84.8169 83.8872 84.8169 83.5582C84.8169 83.3158 84.8333 83.0737 84.866 82.8336L87.0677 74.2715ZM55.1858 77.0719V83.0786C55.1858 83.7227 55.0528 83.7227 54.9688 83.7227C54.8043 83.7227 54.6748 83.7227 54.6748 83.0786V77.0544C54.6748 76.4138 54.8113 76.4138 55.0808 76.4138H55.1298C55.1757 76.6241 55.1945 76.8393 55.1858 77.0544V77.0719Z" fill="#070036"/>
<path d="M7.9687 77.4183H6.10647C6.12749 76.9775 6.0694 76.5365 5.93496 76.1162C5.84838 75.9138 5.70042 75.7438 5.51199 75.6301C5.32356 75.5165 5.10418 75.4648 4.88483 75.4826C4.69472 75.4631 4.50302 75.4989 4.33284 75.5859C4.16267 75.6728 4.02127 75.8072 3.9257 75.9727C3.77918 76.3282 3.71573 76.7125 3.74018 77.0963C3.71875 77.6015 3.76944 78.1071 3.89071 78.598C3.94409 78.8398 4.0812 79.055 4.27784 79.2055C4.47447 79.356 4.71797 79.4322 4.96533 79.4206C5.74396 79.4174 6.49471 79.7102 7.06559 80.2397C7.35707 80.4798 7.59129 80.782 7.75116 81.1241C7.91104 81.4663 7.99253 81.8398 7.9897 82.2174V83.7541C7.99537 84.1247 7.92463 84.4925 7.7819 84.8346C7.63917 85.1767 7.42751 85.4857 7.1601 85.7423C6.90118 86.0085 6.59068 86.219 6.24762 86.361C5.90456 86.5031 5.53613 86.5736 5.16486 86.5684H4.6748C3.92983 86.5685 3.215 86.2742 2.68594 85.7498C2.15688 85.2253 1.85641 84.513 1.84995 83.7681V82.9595H3.72619C3.72619 84.2477 4.12173 84.8952 4.94783 84.8952C5.14442 84.9151 5.34245 84.8757 5.51648 84.7821C5.69051 84.6886 5.8326 84.5451 5.92445 84.3702C6.06054 83.9987 6.11775 83.6029 6.09247 83.208C6.09247 81.8335 5.69343 81.1451 4.89533 81.1428C4.11051 81.1491 3.35249 80.8577 2.77407 80.3272C2.48296 80.0867 2.24901 79.7845 2.08918 79.4424C1.92934 79.1004 1.84762 78.727 1.84995 78.3494V76.6237C1.84405 76.2534 1.91433 75.8858 2.05644 75.5438C2.19855 75.2018 2.40946 74.8926 2.67606 74.6355C2.93552 74.3691 3.24659 74.1584 3.59026 74.0164C3.93393 73.8743 4.30297 73.8039 4.6748 73.8094H5.16486C5.91228 73.8112 6.62866 74.1085 7.15782 74.6363C7.68698 75.1642 7.98601 75.8798 7.9897 76.6272L7.9687 77.4183Z" fill="white"/>
<path d="M15.0711 83.5862C15.0711 83.9554 14.9981 84.321 14.8562 84.6619C14.7144 85.0028 14.5066 85.3122 14.2447 85.5725C13.9828 85.8328 13.672 86.0387 13.3302 86.1784C12.9885 86.3181 12.6224 86.3888 12.2532 86.3865H11.7632C11.02 86.3829 10.308 86.0872 9.78082 85.5633C9.25366 85.0394 8.95357 84.3293 8.94531 83.5862V73.9075H10.8251V83.0751C10.8251 84.1252 11.2323 84.6503 12.0467 84.6503C12.8098 84.6503 13.1913 84.1252 13.1913 83.0751V73.9075H15.0711V83.5862Z" fill="white"/>
<path d="M22.3205 81.0449V83.5897C22.3205 83.9596 22.2465 84.3258 22.1028 84.6666C21.9591 85.0075 21.7487 85.3162 21.4839 85.5745C21.2282 85.8407 20.9202 86.0513 20.5792 86.1928C20.2383 86.3344 19.8718 86.4039 19.5026 86.3971H19.0161C18.6469 86.3994 18.2808 86.3286 17.9391 86.1889C17.5973 86.0492 17.2865 85.8433 17.0246 85.5831C16.7627 85.3228 16.5549 85.0133 16.4131 84.6724C16.2713 84.3315 16.1982 83.9659 16.1982 83.5967V76.6064C16.2038 75.8624 16.503 75.1506 17.0307 74.6262C17.5585 74.1017 18.2721 73.8069 19.0161 73.806H19.5026C20.2494 73.8079 20.9651 74.1053 21.4931 74.6334C22.0212 75.1614 22.3186 75.8771 22.3205 76.6239V78.5596H20.4583V77.4395C20.4583 76.1443 20.0452 75.4967 19.2261 75.4967C18.47 75.4967 18.0885 76.0218 18.0885 77.0684V83.0787C18.0885 84.1288 18.498 84.6503 19.3101 84.6503C19.5039 84.6706 19.6994 84.6341 19.8728 84.5452C20.0462 84.4563 20.19 84.3189 20.2867 84.1498C20.4226 83.7806 20.481 83.3874 20.4583 82.9946V82.8336H19.1596V81.0484L22.3205 81.0449Z" fill="white"/>
<path d="M29.3842 86.229H27.4379L26.9829 83.4497H25.5477L25.0751 86.229H23.1289L25.2887 74.0195H27.2979L29.3842 86.229ZM26.6783 81.4964L26.2828 78.5281L25.8907 81.4964H26.6783Z" fill="white"/>
<path d="M36.5985 86.2289H34.7188V83.2431C34.7188 82.578 34.5088 82.1264 34.0852 81.8884C33.6136 81.6941 33.1019 81.6172 32.594 81.6644H32.2755V86.2149H30.3223V73.9634L33.6477 73.9459C34.3953 73.9469 35.112 74.2445 35.6404 74.7735C36.1687 75.3025 36.4655 76.0196 36.4655 76.7673V78.8675C36.4546 79.2869 36.3339 79.6961 36.1155 80.0542C35.9481 80.435 35.6484 80.7422 35.2719 80.9188C35.6405 81.096 35.9574 81.3647 36.1925 81.6994C36.4382 82.0075 36.577 82.3871 36.588 82.781L36.5985 86.2289ZM34.5858 78.388V77.2328C34.5858 76.6168 34.5053 76.2072 34.3443 76.0077C34.1599 75.7416 33.7503 75.6156 33.1156 75.6296H32.2755V79.9702L33.4516 79.9877C33.6361 80.0091 33.8228 79.9757 33.9884 79.8916C34.154 79.8076 34.2912 79.6766 34.3828 79.5151C34.5435 79.1623 34.6133 78.7747 34.5858 78.388Z" fill="white"/>
<path d="M50.5896 86.2289H48.6364V80.0121L46.9457 86.2289H44.9925L43.4523 79.8791V86.2289H41.499V74.0369H43.5818L46.0811 82.6864L48.4614 74.0369H50.6001L50.5896 86.2289Z" fill="white"/>
<path d="M57.993 83.5861C57.9847 84.3293 57.6847 85.0394 57.1575 85.5633C56.6303 86.0872 55.9184 86.3828 55.1752 86.3864H54.6851C53.9424 86.3864 53.2301 86.0914 52.705 85.5662C52.1798 85.0411 51.8848 84.3288 51.8848 83.5861V76.6063C51.8903 75.8653 52.1871 75.1562 52.711 74.6322C53.235 74.1082 53.9441 73.8114 54.6851 73.8059H55.1752C55.5441 73.8024 55.9099 73.8738 56.2505 74.0158C56.591 74.1578 56.8992 74.3674 57.1564 74.632C57.4251 74.8881 57.638 75.1968 57.782 75.5389C57.9259 75.881 57.9978 76.2491 57.993 76.6202V83.5861ZM56.1133 83.0785V77.0543C56.1339 76.6977 56.0827 76.3406 55.9627 76.0042C55.887 75.8382 55.7612 75.7 55.6031 75.609C55.4449 75.518 55.2622 75.4787 55.0806 75.4966C54.1915 75.4966 53.747 76.0205 53.747 77.0683V83.0785C53.747 84.1287 54.153 84.6502 54.9686 84.6502C55.7317 84.6502 56.1133 84.1287 56.1133 83.0785Z" fill="white"/>
<path d="M68.306 86.2289H66.3528V80.0121L64.6621 86.2289H62.7088L61.1686 79.8791V86.2289H59.2119V74.0369H61.2947L63.7905 82.6864L66.1638 74.0369H68.3025L68.306 86.2289Z" fill="white"/>
<path d="M78.8066 86.2289H76.8498V80.0121L75.1592 86.2289H73.2024L71.6622 79.8791V86.2289H69.709V74.0369H71.8092L74.305 82.6864L76.6748 74.0369H78.8171L78.8066 86.2289Z" fill="white"/>
<path d="M86.1683 74.0369L83.9526 82.5849C83.9004 82.9018 83.8817 83.2233 83.8966 83.544C83.8966 83.8941 83.8966 84.3771 83.9246 85.0352C83.9526 85.6933 83.9526 86.0853 83.9526 86.2289H81.9993V83.411L81.9783 82.6234L79.9131 74.0369H81.8663L83.0145 79.4835L84.2151 74.0369H86.1683Z" fill="white"/>
</svg>
