<svg width="105" height="103" viewBox="0 0 105 103" fill="none" xmlns="http://www.w3.org/2000/svg">
<path opacity="0.4" d="M7.992 99H6.312L2.508 93.252V99H0.828V90.612H2.508L6.312 96.372V90.612H7.992V99ZM12.6042 99.108C11.9642 99.108 11.3882 98.968 10.8762 98.688C10.3642 98.4 9.96022 97.996 9.66422 97.476C9.37622 96.956 9.23222 96.356 9.23222 95.676C9.23222 94.996 9.38022 94.396 9.67622 93.876C9.98022 93.356 10.3922 92.956 10.9122 92.676C11.4322 92.388 12.0122 92.244 12.6522 92.244C13.2922 92.244 13.8722 92.388 14.3922 92.676C14.9122 92.956 15.3202 93.356 15.6162 93.876C15.9202 94.396 16.0722 94.996 16.0722 95.676C16.0722 96.356 15.9162 96.956 15.6042 97.476C15.3002 97.996 14.8842 98.4 14.3562 98.688C13.8362 98.968 13.2522 99.108 12.6042 99.108ZM12.6042 97.644C12.9082 97.644 13.1922 97.572 13.4562 97.428C13.7282 97.276 13.9442 97.052 14.1042 96.756C14.2642 96.46 14.3442 96.1 14.3442 95.676C14.3442 95.044 14.1762 94.56 13.8402 94.224C13.5122 93.88 13.1082 93.708 12.6282 93.708C12.1482 93.708 11.7442 93.88 11.4162 94.224C11.0962 94.56 10.9362 95.044 10.9362 95.676C10.9362 96.308 11.0922 96.796 11.4042 97.14C11.7242 97.476 12.1242 97.644 12.6042 97.644ZM24.9159 94.704C25.3879 94.792 25.7759 95.028 26.0799 95.412C26.3839 95.796 26.5359 96.236 26.5359 96.732C26.5359 97.18 26.4239 97.576 26.1999 97.92C25.9839 98.256 25.6679 98.52 25.2519 98.712C24.8359 98.904 24.3439 99 23.7759 99H20.1639V90.624H23.6199C24.1879 90.624 24.6759 90.716 25.0839 90.9C25.4999 91.084 25.8119 91.34 26.0199 91.668C26.2359 91.996 26.3439 92.368 26.3439 92.784C26.3439 93.272 26.2119 93.68 25.9479 94.008C25.6919 94.336 25.3479 94.568 24.9159 94.704ZM21.8439 94.08H23.3799C23.7799 94.08 24.0879 93.992 24.3039 93.816C24.5199 93.632 24.6279 93.372 24.6279 93.036C24.6279 92.7 24.5199 92.44 24.3039 92.256C24.0879 92.072 23.7799 91.98 23.3799 91.98H21.8439V94.08ZM23.5359 97.632C23.9439 97.632 24.2599 97.536 24.4839 97.344C24.7159 97.152 24.8319 96.88 24.8319 96.528C24.8319 96.168 24.7119 95.888 24.4719 95.688C24.2319 95.48 23.9079 95.376 23.4999 95.376H21.8439V97.632H23.5359ZM29.5549 90.12V99H27.8749V90.12H29.5549ZM34.1667 99.108C33.5267 99.108 32.9507 98.968 32.4387 98.688C31.9267 98.4 31.5227 97.996 31.2267 97.476C30.9387 96.956 30.7947 96.356 30.7947 95.676C30.7947 94.996 30.9427 94.396 31.2387 93.876C31.5427 93.356 31.9547 92.956 32.4747 92.676C32.9947 92.388 33.5747 92.244 34.2147 92.244C34.8547 92.244 35.4347 92.388 35.9547 92.676C36.4747 92.956 36.8827 93.356 37.1787 93.876C37.4827 94.396 37.6347 94.996 37.6347 95.676C37.6347 96.356 37.4787 96.956 37.1667 97.476C36.8627 97.996 36.4467 98.4 35.9187 98.688C35.3987 98.968 34.8147 99.108 34.1667 99.108ZM34.1667 97.644C34.4707 97.644 34.7547 97.572 35.0187 97.428C35.2907 97.276 35.5067 97.052 35.6667 96.756C35.8267 96.46 35.9067 96.1 35.9067 95.676C35.9067 95.044 35.7387 94.56 35.4027 94.224C35.0747 93.88 34.6707 93.708 34.1907 93.708C33.7107 93.708 33.3067 93.88 32.9787 94.224C32.6587 94.56 32.4987 95.044 32.4987 95.676C32.4987 96.308 32.6547 96.796 32.9667 97.14C33.2867 97.476 33.6867 97.644 34.1667 97.644ZM38.4351 95.676C38.4351 94.988 38.5751 94.388 38.8551 93.876C39.1351 93.356 39.5231 92.956 40.0191 92.676C40.5151 92.388 41.0831 92.244 41.7231 92.244C42.5471 92.244 43.2271 92.452 43.7631 92.868C44.3071 93.276 44.6711 93.852 44.8551 94.596H43.0431C42.9471 94.308 42.7831 94.084 42.5511 93.924C42.3271 93.756 42.0471 93.672 41.7111 93.672C41.2311 93.672 40.8511 93.848 40.5711 94.2C40.2911 94.544 40.1511 95.036 40.1511 95.676C40.1511 96.308 40.2911 96.8 40.5711 97.152C40.8511 97.496 41.2311 97.668 41.7111 97.668C42.3911 97.668 42.8351 97.364 43.0431 96.756H44.8551C44.6711 97.476 44.3071 98.048 43.7631 98.472C43.2191 98.896 42.5391 99.108 41.7231 99.108C41.0831 99.108 40.5151 98.968 40.0191 98.688C39.5231 98.4 39.1351 98 38.8551 97.488C38.5751 96.968 38.4351 96.364 38.4351 95.676ZM50.0218 99L47.7658 96.168V99H46.0858V90.12H47.7658V95.172L49.9978 92.352H52.1818L49.2538 95.688L52.2058 99H50.0218ZM59.2736 95.532C59.2736 95.772 59.2576 95.988 59.2256 96.18H54.3656C54.4056 96.66 54.5736 97.036 54.8696 97.308C55.1656 97.58 55.5296 97.716 55.9616 97.716C56.5856 97.716 57.0296 97.448 57.2936 96.912H59.1056C58.9136 97.552 58.5456 98.08 58.0016 98.496C57.4576 98.904 56.7896 99.108 55.9976 99.108C55.3576 99.108 54.7816 98.968 54.2696 98.688C53.7656 98.4 53.3696 97.996 53.0816 97.476C52.8016 96.956 52.6616 96.356 52.6616 95.676C52.6616 94.988 52.8016 94.384 53.0816 93.864C53.3616 93.344 53.7536 92.944 54.2576 92.664C54.7616 92.384 55.3416 92.244 55.9976 92.244C56.6296 92.244 57.1936 92.38 57.6896 92.652C58.1936 92.924 58.5816 93.312 58.8536 93.816C59.1336 94.312 59.2736 94.884 59.2736 95.532ZM57.5336 95.052C57.5256 94.62 57.3696 94.276 57.0656 94.02C56.7616 93.756 56.3896 93.624 55.9496 93.624C55.5336 93.624 55.1816 93.752 54.8936 94.008C54.6136 94.256 54.4416 94.604 54.3776 95.052H57.5336ZM60.0679 95.652C60.0679 94.98 60.1999 94.384 60.4639 93.864C60.7359 93.344 61.1039 92.944 61.5679 92.664C62.0319 92.384 62.5479 92.244 63.1159 92.244C63.5479 92.244 63.9599 92.34 64.3519 92.532C64.7439 92.716 65.0559 92.964 65.2879 93.276V90.12H66.9919V99H65.2879V98.016C65.0799 98.344 64.7879 98.608 64.4119 98.808C64.0359 99.008 63.5999 99.108 63.1039 99.108C62.5439 99.108 62.0319 98.964 61.5679 98.676C61.1039 98.388 60.7359 97.984 60.4639 97.464C60.1999 96.936 60.0679 96.332 60.0679 95.652ZM65.2999 95.676C65.2999 95.268 65.2199 94.92 65.0599 94.632C64.8999 94.336 64.6839 94.112 64.4119 93.96C64.1399 93.8 63.8479 93.72 63.5359 93.72C63.2239 93.72 62.9359 93.796 62.6719 93.948C62.4079 94.1 62.1919 94.324 62.0239 94.62C61.8639 94.908 61.7839 95.252 61.7839 95.652C61.7839 96.052 61.8639 96.404 62.0239 96.708C62.1919 97.004 62.4079 97.232 62.6719 97.392C62.9439 97.552 63.2319 97.632 63.5359 97.632C63.8479 97.632 64.1399 97.556 64.4119 97.404C64.6839 97.244 64.8999 97.02 65.0599 96.732C65.2199 96.436 65.2999 96.084 65.2999 95.676ZM73.1481 90.624V95.808C73.1481 96.376 73.2961 96.812 73.5921 97.116C73.8881 97.412 74.3041 97.56 74.8401 97.56C75.3841 97.56 75.8041 97.412 76.1001 97.116C76.3961 96.812 76.5441 96.376 76.5441 95.808V90.624H78.2361V95.796C78.2361 96.508 78.0801 97.112 77.7681 97.608C77.4641 98.096 77.0521 98.464 76.5321 98.712C76.0201 98.96 75.4481 99.084 74.8161 99.084C74.1921 99.084 73.6241 98.96 73.1121 98.712C72.6081 98.464 72.2081 98.096 71.9121 97.608C71.6161 97.112 71.4681 96.508 71.4681 95.796V90.624H73.1481ZM82.4033 99.108C81.8593 99.108 81.3713 99.012 80.9393 98.82C80.5073 98.62 80.1633 98.352 79.9073 98.016C79.6593 97.68 79.5233 97.308 79.4993 96.9H81.1913C81.2233 97.156 81.3473 97.368 81.5633 97.536C81.7873 97.704 82.0633 97.788 82.3913 97.788C82.7113 97.788 82.9593 97.724 83.1353 97.596C83.3193 97.468 83.4113 97.304 83.4113 97.104C83.4113 96.888 83.2993 96.728 83.0753 96.624C82.8593 96.512 82.5113 96.392 82.0312 96.264C81.5353 96.144 81.1273 96.02 80.8073 95.892C80.4953 95.764 80.2233 95.568 79.9913 95.304C79.7673 95.04 79.6553 94.684 79.6553 94.236C79.6553 93.868 79.7593 93.532 79.9673 93.228C80.1833 92.924 80.4873 92.684 80.8793 92.508C81.2793 92.332 81.7473 92.244 82.2833 92.244C83.0753 92.244 83.7073 92.444 84.1793 92.844C84.6513 93.236 84.9113 93.768 84.9593 94.44H83.3513C83.3273 94.176 83.2153 93.968 83.0153 93.816C82.8233 93.656 82.5633 93.576 82.2353 93.576C81.9313 93.576 81.6953 93.632 81.5273 93.744C81.3673 93.856 81.2873 94.012 81.2873 94.212C81.2873 94.436 81.3993 94.608 81.6233 94.728C81.8473 94.84 82.1953 94.956 82.6673 95.076C83.1473 95.196 83.5433 95.32 83.8553 95.448C84.1673 95.576 84.4353 95.776 84.6593 96.048C84.8913 96.312 85.0113 96.664 85.0193 97.104C85.0193 97.488 84.9113 97.832 84.6953 98.136C84.4873 98.44 84.1833 98.68 83.7833 98.856C83.3913 99.024 82.9313 99.108 82.4033 99.108ZM92.5783 95.532C92.5783 95.772 92.5623 95.988 92.5303 96.18H87.6703C87.7103 96.66 87.8783 97.036 88.1743 97.308C88.4703 97.58 88.8343 97.716 89.2663 97.716C89.8903 97.716 90.3343 97.448 90.5983 96.912H92.4103C92.2183 97.552 91.8503 98.08 91.3063 98.496C90.7623 98.904 90.0943 99.108 89.3023 99.108C88.6623 99.108 88.0863 98.968 87.5743 98.688C87.0703 98.4 86.6743 97.996 86.3863 97.476C86.1063 96.956 85.9663 96.356 85.9663 95.676C85.9663 94.988 86.1063 94.384 86.3863 93.864C86.6663 93.344 87.0583 92.944 87.5623 92.664C88.0663 92.384 88.6463 92.244 89.3023 92.244C89.9343 92.244 90.4983 92.38 90.9943 92.652C91.4983 92.924 91.8863 93.312 92.1583 93.816C92.4383 94.312 92.5783 94.884 92.5783 95.532ZM90.8383 95.052C90.8303 94.62 90.6743 94.276 90.3703 94.02C90.0663 93.756 89.6943 93.624 89.2543 93.624C88.8383 93.624 88.4863 93.752 88.1983 94.008C87.9183 94.256 87.7463 94.604 87.6823 95.052H90.8383ZM95.4846 93.384C95.7006 93.032 95.9806 92.756 96.3246 92.556C96.6766 92.356 97.0766 92.256 97.5246 92.256V94.02H97.0806C96.5526 94.02 96.1526 94.144 95.8806 94.392C95.6166 94.64 95.4846 95.072 95.4846 95.688V99H93.8046V92.352H95.4846V93.384ZM101.2 99.108C100.656 99.108 100.168 99.012 99.7361 98.82C99.3041 98.62 98.9601 98.352 98.7041 98.016C98.4561 97.68 98.3201 97.308 98.2961 96.9H99.9881C100.02 97.156 100.144 97.368 100.36 97.536C100.584 97.704 100.86 97.788 101.188 97.788C101.508 97.788 101.756 97.724 101.932 97.596C102.116 97.468 102.208 97.304 102.208 97.104C102.208 96.888 102.096 96.728 101.872 96.624C101.656 96.512 101.308 96.392 100.828 96.264C100.332 96.144 99.9241 96.02 99.6041 95.892C99.2921 95.764 99.0201 95.568 98.7881 95.304C98.5641 95.04 98.4521 94.684 98.4521 94.236C98.4521 93.868 98.5561 93.532 98.7641 93.228C98.9801 92.924 99.2841 92.684 99.6761 92.508C100.076 92.332 100.544 92.244 101.08 92.244C101.872 92.244 102.504 92.444 102.976 92.844C103.448 93.236 103.708 93.768 103.756 94.44H102.148C102.124 94.176 102.012 93.968 101.812 93.816C101.62 93.656 101.36 93.576 101.032 93.576C100.728 93.576 100.492 93.632 100.324 93.744C100.164 93.856 100.084 94.012 100.084 94.212C100.084 94.436 100.196 94.608 100.42 94.728C100.644 94.84 100.992 94.956 101.464 95.076C101.944 95.196 102.34 95.32 102.652 95.448C102.964 95.576 103.232 95.776 103.456 96.048C103.688 96.312 103.808 96.664 103.816 97.104C103.816 97.488 103.708 97.832 103.492 98.136C103.284 98.44 102.98 98.68 102.58 98.856C102.188 99.024 101.728 99.108 101.2 99.108Z" fill="white"/>
<g opacity="0.4">
<path opacity="0.964" d="M47.1825 4.83553L47.1517 4.83776L47.1214 4.84376C42.361 5.78701 38.9636 8.49429 36.9708 12.9309L36.9619 12.9506L36.9548 12.971C35.9963 15.717 35.7739 18.3234 36.3146 20.7774C36.8554 23.2315 38.1514 25.4975 40.1732 27.575L40.194 27.5963L40.2171 27.615C42.6661 29.5961 45.2243 30.7303 47.888 30.98C50.5517 31.2297 53.2769 30.5909 56.0528 29.0997L56.082 29.084L56.1089 29.0646C58.9064 27.0449 60.7684 24.6838 61.6441 21.9732C62.5198 19.2627 62.3918 16.2567 61.3061 12.9786L61.2958 12.9473L61.2814 12.9176C59.8745 10.0161 57.9913 7.86666 55.6188 6.507C53.2467 5.14755 50.4259 4.6007 47.1825 4.83553ZM46.8063 0.576533C50.6739 0.274913 54.0537 0.865887 56.964 2.32745C59.8761 3.78993 62.3494 6.13979 64.3778 9.4041C67.3681 15.0859 67.368 20.739 64.3775 26.4208C62.3509 29.6973 59.8788 32.0459 56.9681 33.4948C54.0588 34.943 50.6788 35.5087 46.8093 35.1688C42.5863 34.3723 39.2562 32.727 36.7853 30.2561C34.3144 27.7852 32.6691 24.4551 31.8726 20.2321C31.5331 16.3617 32.099 12.9812 33.5472 10.072C34.9956 7.16248 37.3426 4.69176 40.6164 2.66649C42.6006 1.67178 44.6635 0.975495 46.8063 0.576533Z" fill="white" stroke="#01003C"/>
<path opacity="0.982" d="M34.1467 45.6731L34.1169 45.6741L34.0875 45.6786C28.2177 46.5848 23.7113 49.5611 20.6033 54.587L20.5971 54.5971L20.5913 54.6075C18.5607 58.2688 17.7705 62.1935 18.2228 66.3674L18.2713 66.8146L18.7211 66.8135C29.5596 66.787 40.398 66.8133 51.2363 66.8922C51.8169 67.2012 52.1697 67.5715 52.3524 67.9851C52.5432 68.4169 52.5781 68.9621 52.3968 69.6559C52.1663 70.204 51.7917 70.5892 51.2548 70.8297C39.2239 70.9347 27.1931 70.9347 15.1622 70.8297C14.6418 70.5966 14.2738 70.2275 14.0418 69.7058C13.9397 66.8394 13.9405 63.9729 14.0441 61.1065C15.4394 52.0325 20.3831 45.8505 28.9187 42.5043C30.5136 41.9897 32.1165 41.6014 33.7276 41.3389C39.5637 41.3128 45.3994 41.3389 51.2349 41.4171C51.8163 41.7262 52.1695 42.0968 52.3524 42.5107C52.5432 42.9424 52.5781 43.4877 52.3968 44.1815C52.1665 44.7292 51.7924 45.1142 51.2562 45.3546C45.5503 45.3714 39.8471 45.4776 34.1467 45.6731Z" fill="white" stroke="#01003C"/>
<path opacity="0.966" d="M73.0943 45.5977L73.075 45.6001L73.0559 45.604C68.7263 46.4909 65.6483 48.9877 63.8619 53.0576L63.8539 53.0759L63.8474 53.0947C62.586 56.7324 62.9182 60.2275 64.8427 63.5402L65.1691 64.1021L65.6286 63.6426L81.1521 48.1192L81.5966 47.6747L81.0635 47.3416C78.6301 45.821 75.967 45.2391 73.0943 45.5977ZM84.8467 51.1896L84.4939 50.7606L84.1042 51.1564C78.9895 56.3506 73.8428 61.5239 68.664 66.6762L68.206 67.1318L68.7619 67.4609C72.5349 69.6949 76.4268 69.8617 80.3786 67.9588L80.4025 67.9473L80.425 67.9333C83.0014 66.3373 84.8073 64.3793 85.7981 62.049C86.7889 59.7185 86.9442 57.0632 86.3024 54.1077L86.3006 54.0995L86.2986 54.0914C86.0235 53.0018 85.5398 52.0324 84.8467 51.1896ZM72.7436 41.3364C76.6434 41.0567 79.9802 41.7102 82.7779 43.2688C85.5763 44.8277 87.873 47.3131 89.6571 50.7595C92.044 56.7796 91.3267 62.3679 87.4971 67.5878C84.7884 70.5215 81.8427 72.3458 78.6615 73.0996C75.4816 73.8531 72.0222 73.5472 68.2675 72.1464C64.4929 70.1287 61.8828 67.5756 60.3902 64.5012C58.8971 61.4257 58.4984 57.7792 59.2347 53.5332C60.2698 50.1074 61.9126 47.3969 64.1496 45.3772C66.3868 43.3574 69.2438 42.0053 72.7436 41.3364Z" fill="white" stroke="#01003C"/>
</g>
</svg>
