<svg width="87" height="103" viewBox="0 0 87 103" fill="none" xmlns="http://www.w3.org/2000/svg">
<path opacity="0.4" d="M8.492 99H6.812L3.008 93.252V99H1.328V90.612H3.008L6.812 96.372V90.612H8.492V99ZM13.1042 99.108C12.4642 99.108 11.8882 98.968 11.3762 98.688C10.8642 98.4 10.4602 97.996 10.1642 97.476C9.87622 96.956 9.73222 96.356 9.73222 95.676C9.73222 94.996 9.88022 94.396 10.1762 93.876C10.4802 93.356 10.8922 92.956 11.4122 92.676C11.9322 92.388 12.5122 92.244 13.1522 92.244C13.7922 92.244 14.3722 92.388 14.8922 92.676C15.4122 92.956 15.8202 93.356 16.1162 93.876C16.4202 94.396 16.5722 94.996 16.5722 95.676C16.5722 96.356 16.4162 96.956 16.1042 97.476C15.8002 97.996 15.3842 98.4 14.8562 98.688C14.3362 98.968 13.7522 99.108 13.1042 99.108ZM13.1042 97.644C13.4082 97.644 13.6922 97.572 13.9562 97.428C14.2282 97.276 14.4442 97.052 14.6042 96.756C14.7642 96.46 14.8442 96.1 14.8442 95.676C14.8442 95.044 14.6762 94.56 14.3402 94.224C14.0122 93.88 13.6082 93.708 13.1282 93.708C12.6482 93.708 12.2442 93.88 11.9162 94.224C11.5962 94.56 11.4362 95.044 11.4362 95.676C11.4362 96.308 11.5922 96.796 11.9042 97.14C12.2242 97.476 12.6242 97.644 13.1042 97.644ZM22.3439 91.98V94.08H25.1639V95.412H22.3439V97.632H25.5239V99H20.6639V90.612H25.5239V91.98H22.3439ZM30.7227 99L29.3547 96.936L28.1427 99H26.3427L28.5147 95.664L26.3187 92.352H28.2147L29.5707 94.404L30.7947 92.352H32.5947L30.4107 95.664L32.6187 99H30.7227ZM35.2111 93.312C35.4271 93.008 35.7231 92.756 36.0991 92.556C36.4831 92.348 36.9191 92.244 37.4071 92.244C37.9751 92.244 38.4871 92.384 38.9431 92.664C39.4071 92.944 39.7711 93.344 40.0351 93.864C40.3071 94.376 40.4431 94.972 40.4431 95.652C40.4431 96.332 40.3071 96.936 40.0351 97.464C39.7711 97.984 39.4071 98.388 38.9431 98.676C38.4871 98.964 37.9751 99.108 37.4071 99.108C36.9191 99.108 36.4871 99.008 36.1111 98.808C35.7431 98.608 35.4431 98.356 35.2111 98.052V102.168H33.5311V92.352H35.2111V93.312ZM38.7271 95.652C38.7271 95.252 38.6431 94.908 38.4751 94.62C38.3151 94.324 38.0991 94.1 37.8271 93.948C37.5631 93.796 37.2751 93.72 36.9631 93.72C36.6591 93.72 36.3711 93.8 36.0991 93.96C35.8351 94.112 35.6191 94.336 35.4511 94.632C35.2911 94.928 35.2111 95.276 35.2111 95.676C35.2111 96.076 35.2911 96.424 35.4511 96.72C35.6191 97.016 35.8351 97.244 36.0991 97.404C36.3711 97.556 36.6591 97.632 36.9631 97.632C37.2751 97.632 37.5631 97.552 37.8271 97.392C38.0991 97.232 38.3151 97.004 38.4751 96.708C38.6431 96.412 38.7271 96.06 38.7271 95.652ZM47.8439 95.532C47.8439 95.772 47.8279 95.988 47.7959 96.18H42.9359C42.9759 96.66 43.1439 97.036 43.4399 97.308C43.7359 97.58 44.0999 97.716 44.5319 97.716C45.1559 97.716 45.5999 97.448 45.8639 96.912H47.6759C47.4839 97.552 47.1159 98.08 46.5719 98.496C46.0279 98.904 45.3599 99.108 44.5679 99.108C43.9279 99.108 43.3519 98.968 42.8399 98.688C42.3359 98.4 41.9399 97.996 41.6519 97.476C41.3719 96.956 41.2319 96.356 41.2319 95.676C41.2319 94.988 41.3719 94.384 41.6519 93.864C41.9319 93.344 42.3239 92.944 42.8279 92.664C43.3319 92.384 43.9119 92.244 44.5679 92.244C45.1999 92.244 45.7639 92.38 46.2599 92.652C46.7639 92.924 47.1519 93.312 47.4239 93.816C47.7039 94.312 47.8439 94.884 47.8439 95.532ZM46.1039 95.052C46.0959 94.62 45.9399 94.276 45.6359 94.02C45.3319 93.756 44.9599 93.624 44.5199 93.624C44.1039 93.624 43.7519 93.752 43.4639 94.008C43.1839 94.256 43.0119 94.604 42.9479 95.052H46.1039ZM50.7502 93.384C50.9662 93.032 51.2462 92.756 51.5902 92.556C51.9422 92.356 52.3422 92.256 52.7902 92.256V94.02H52.3462C51.8182 94.02 51.4182 94.144 51.1462 94.392C50.8822 94.64 50.7502 95.072 50.7502 95.688V99H49.0702V92.352H50.7502V93.384ZM54.7738 91.56C54.4778 91.56 54.2298 91.468 54.0298 91.284C53.8378 91.092 53.7418 90.856 53.7418 90.576C53.7418 90.296 53.8378 90.064 54.0298 89.88C54.2298 89.688 54.4778 89.592 54.7738 89.592C55.0698 89.592 55.3138 89.688 55.5058 89.88C55.7058 90.064 55.8058 90.296 55.8058 90.576C55.8058 90.856 55.7058 91.092 55.5058 91.284C55.3138 91.468 55.0698 91.56 54.7738 91.56ZM55.6018 92.352V99H53.9218V92.352H55.6018ZM63.4416 95.532C63.4416 95.772 63.4256 95.988 63.3936 96.18H58.5336C58.5736 96.66 58.7416 97.036 59.0376 97.308C59.3336 97.58 59.6976 97.716 60.1296 97.716C60.7536 97.716 61.1976 97.448 61.4616 96.912H63.2736C63.0816 97.552 62.7136 98.08 62.1696 98.496C61.6256 98.904 60.9576 99.108 60.1656 99.108C59.5256 99.108 58.9496 98.968 58.4376 98.688C57.9336 98.4 57.5376 97.996 57.2496 97.476C56.9696 96.956 56.8296 96.356 56.8296 95.676C56.8296 94.988 56.9696 94.384 57.2496 93.864C57.5296 93.344 57.9216 92.944 58.4256 92.664C58.9296 92.384 59.5096 92.244 60.1656 92.244C60.7976 92.244 61.3616 92.38 61.8576 92.652C62.3616 92.924 62.7496 93.312 63.0216 93.816C63.3016 94.312 63.4416 94.884 63.4416 95.532ZM61.7016 95.052C61.6936 94.62 61.5376 94.276 61.2336 94.02C60.9296 93.756 60.5576 93.624 60.1176 93.624C59.7016 93.624 59.3496 93.752 59.0616 94.008C58.7816 94.256 58.6096 94.604 58.5456 95.052H61.7016ZM68.3518 92.256C69.1438 92.256 69.7838 92.508 70.2718 93.012C70.7598 93.508 71.0038 94.204 71.0038 95.1V99H69.3238V95.328C69.3238 94.8 69.1918 94.396 68.9278 94.116C68.6638 93.828 68.3038 93.684 67.8478 93.684C67.3838 93.684 67.0158 93.828 66.7438 94.116C66.4798 94.396 66.3478 94.8 66.3478 95.328V99H64.6678V92.352H66.3478V93.18C66.5718 92.892 66.8558 92.668 67.1998 92.508C67.5518 92.34 67.9358 92.256 68.3518 92.256ZM72.1694 95.676C72.1694 94.988 72.3094 94.388 72.5894 93.876C72.8694 93.356 73.2574 92.956 73.7534 92.676C74.2494 92.388 74.8174 92.244 75.4574 92.244C76.2814 92.244 76.9614 92.452 77.4974 92.868C78.0414 93.276 78.4054 93.852 78.5894 94.596H76.7774C76.6814 94.308 76.5174 94.084 76.2854 93.924C76.0614 93.756 75.7814 93.672 75.4454 93.672C74.9654 93.672 74.5854 93.848 74.3054 94.2C74.0254 94.544 73.8854 95.036 73.8854 95.676C73.8854 96.308 74.0254 96.8 74.3054 97.152C74.5854 97.496 74.9654 97.668 75.4454 97.668C76.1254 97.668 76.5694 97.364 76.7774 96.756H78.5894C78.4054 97.476 78.0414 98.048 77.4974 98.472C76.9534 98.896 76.2734 99.108 75.4574 99.108C74.8174 99.108 74.2494 98.968 73.7534 98.688C73.2574 98.4 72.8694 98 72.5894 97.488C72.3094 96.968 72.1694 96.364 72.1694 95.676ZM86.0002 95.532C86.0002 95.772 85.9842 95.988 85.9522 96.18H81.0922C81.1322 96.66 81.3002 97.036 81.5962 97.308C81.8922 97.58 82.2562 97.716 82.6882 97.716C83.3122 97.716 83.7562 97.448 84.0202 96.912H85.8322C85.6402 97.552 85.2722 98.08 84.7282 98.496C84.1842 98.904 83.5162 99.108 82.7242 99.108C82.0842 99.108 81.5082 98.968 80.9962 98.688C80.4922 98.4 80.0962 97.996 79.8082 97.476C79.5282 96.956 79.3882 96.356 79.3882 95.676C79.3882 94.988 79.5282 94.384 79.8082 93.864C80.0882 93.344 80.4802 92.944 80.9842 92.664C81.4882 92.384 82.0682 92.244 82.7242 92.244C83.3562 92.244 83.9202 92.38 84.4162 92.652C84.9202 92.924 85.3082 93.312 85.5802 93.816C85.8602 94.312 86.0002 94.884 86.0002 95.532ZM84.2602 95.052C84.2522 94.62 84.0962 94.276 83.7922 94.02C83.4882 93.756 83.1162 93.624 82.6762 93.624C82.2602 93.624 81.9082 93.752 81.6202 94.008C81.3402 94.256 81.1682 94.604 81.1042 95.052H84.2602Z" fill="white"/>
<g opacity="0.4">
<path opacity="0.993" d="M65.3835 46.3082L65.154 46.5401L65.0415 46.8464C64.7339 47.6843 64.6604 48.556 64.8225 49.4331C65.9111 55.7914 66.9756 62.1528 68.0164 68.5174C67.8004 69.8426 67.3294 70.731 66.7063 71.3217C66.0718 71.9232 65.136 72.3522 63.7581 72.492C63.2158 72.4234 62.6894 72.294 62.1768 72.1034L46.006 63.5688L46.0007 63.566C45.3173 63.2088 44.5997 62.9397 43.8504 62.7597L43.5 62.6755L43.1495 62.7597C42.4002 62.9397 41.6826 63.2088 40.9993 63.566L40.9939 63.5688L24.8714 72.0779C23.3482 72.52 22.2312 72.4393 21.3958 72.0582C20.574 71.6831 19.7975 70.9135 19.149 69.5205C19.1018 69.1756 19.0477 68.8317 18.9868 68.489C19.9947 62.1295 21.058 55.7789 22.1767 49.4368C22.3397 48.5585 22.2664 47.6855 21.9584 46.8464L21.8459 46.5401L21.6164 46.3082C16.8339 41.4759 11.9982 36.6892 7.10902 31.9481C6.82553 31.516 6.61585 31.0681 6.47461 30.602V30.5996V30.5946V30.5896V30.5846V30.5796V30.5746V30.5696V30.5646V30.5596V30.5546V30.5496V30.5446V30.5396V30.5346V30.5296V30.5247V30.5197V30.5147V30.5097V30.5047V30.4997V30.4947V30.4897V30.4847V30.4797V30.4747V30.4697V30.4647V30.4597V30.4547V30.4497V30.4447V30.4397V30.4347V30.4297V30.4247V30.4197V30.4147V30.4097V30.4047V30.3997V30.3947V30.3897V30.3847V30.3797V30.3748V30.3698V30.3648V30.3598V30.3548V30.3498V30.3448V30.3398V30.3348V30.3298V30.3248V30.3198V30.3148V30.3098V30.3048V30.2998V30.2948V30.2898V30.2848V30.2798V30.2748V30.2698V30.2648V30.2598V30.2548V30.2498V30.2448V30.2398V30.2348V30.2298V30.2248V30.2199V30.2149V30.2099V30.2049V30.1999V30.1949V30.1899V30.1849V30.1799V30.1749V30.1699V30.1649V30.1599V30.1549V30.1499V30.1449V30.1399V30.1349V30.1299V30.1249V30.1199V30.1149V30.1099V30.1049V30.0999V30.0949V30.0899V30.0849V30.0799V30.0749V30.07V30.065V30.06V30.055V30.05V30.045V30.04V30.035V30.03V30.025V30.02V30.015V30.01V30.005V30V29.995V29.99V29.985V29.98V29.975V29.97V29.965V29.96V29.955V29.95V29.945V29.94V29.935V29.93V29.925V29.9201V29.9151V29.9101V29.9051V29.9001V29.8951V29.8901V29.8851V29.8801V29.8751V29.8701V29.8651V29.8601V29.8551V29.8501V29.8451V29.8401V29.8351V29.8301V29.8251V29.8201V29.8151V29.8101V29.8051V29.8001V29.7951V29.7901V29.7851V29.7801V29.7752V29.7702V29.7652V29.7602V29.7552V29.7502V29.7452V29.7402V29.7352V29.7302V29.7252V29.7202V29.7152V29.7102V29.7052V29.7002V29.6952V29.6902V29.6852V29.6802V29.6752V29.6702V29.6652V29.6602V29.6552V29.6502V29.6452V29.6402V29.6352V29.6302V29.6253V29.6203V29.6153V29.6103V29.6053V29.6003V29.5953V29.5903V29.5853V29.5803V29.5753V29.5703V29.5653V29.5603V29.5553V29.5503V29.5453V29.5403V29.5353V29.5303V29.5253V29.5203V29.5153V29.5103V29.5053V29.5003V29.4953V29.4903V29.4853V29.4804V29.4754V29.4704V29.4654V29.4604V29.4554V29.4504V29.4454V29.4404V29.4354V29.4304V29.4254V29.4204V29.4154V29.4104V29.4054V29.4004V29.3954V29.3904V29.3854V29.3804V29.3754V29.3704V29.3654V29.3604V29.3554V29.3504V29.3454V29.3404V29.3355V29.3305V29.3255V29.3205V29.3155V29.3105V29.3055V29.3005V29.2955V29.2905V29.2855V29.2805V29.2755V29.2705V29.2655V29.2605V29.2555V29.2505V29.2455V29.2405V29.2355V29.2305V29.2255V29.2205V29.2155V29.2105V29.2055V29.2005V29.1955V29.1905V29.1856V29.1806V29.1756V29.1706V29.1656V29.1606V29.1556V29.1506V29.1456V29.1406V29.1356V29.1306V29.1256V29.1206V29.1156V29.1106V29.1056V29.1006V29.0956V29.0906V29.0856V29.0806V29.0756V29.0706V29.0656V29.0606V29.0556V29.0506V29.0456V29.0407V29.0357V29.0307V29.0257V29.0207V29.0157V29.0107V29.0057V29.0007V28.9957V28.9907V28.9857V28.9807V28.9757V28.9707V28.9657V28.9607V28.9557V28.9507V28.9457V28.9407V28.9357V28.9307V28.9257V28.9207V28.9157V28.9107V28.9057V28.9007V28.8957V28.8908V28.8858V28.8808V28.8758V28.8708V28.8658V28.8608V28.8558V28.8508V28.8458V28.8408V28.8358V28.8308V28.8258V28.8208V28.8158V28.8108V28.8058V28.8008V28.7958V28.7908V28.7858V28.7808V28.7758V28.7708V28.7658V28.7608V28.7558V28.7508V28.7458V28.7408V28.7359V28.7309V28.7259V28.7209V28.7159V28.7109V28.7059V28.7009V28.6959V28.6909V28.6859V28.6809V28.6759V28.6709V28.6659V28.6609V28.6559V28.6509V28.6459V28.6409V28.6359V28.6309V28.6259V28.6209V28.6159V28.6109V28.6059V28.6009V28.5959V28.5909V28.5859V28.581V28.576V28.571V28.566V28.561V28.556V28.551V28.546V28.541V28.536V28.531V28.526V28.521V28.516V28.511V28.506V28.501V28.496V28.491V28.486V28.481V28.476V28.4759C6.96542 26.9692 7.93208 26.0398 9.50443 25.5822C15.608 24.675 21.7136 23.7815 27.8212 22.9017C29.0681 22.8638 30.1589 22.3628 30.9977 21.4267L31.1339 21.2748L31.2245 21.0921C34.2553 14.9808 37.3214 8.89693 40.4226 2.84032C41.4008 1.974 42.3091 1.58534 43.1541 1.51291C44.0296 1.43787 45.031 1.68567 46.1961 2.43214C46.4776 2.69035 46.7257 2.9719 46.9422 3.27768C49.8477 9.23718 52.7936 15.1783 55.7799 21.101L55.8937 21.3267L56.0751 21.5026C56.9217 22.3235 57.9603 22.7934 59.1329 22.8951C65.2558 23.777 71.3767 24.6727 77.4955 25.5822C79.0678 26.0398 80.0344 26.9692 80.5253 28.476V28.481V28.486V28.491V28.496V28.501V28.506V28.511V28.516V28.521V28.526V28.531V28.536V28.541V28.546V28.551V28.556V28.561V28.566V28.571V28.576V28.581V28.5859V28.5909V28.5959V28.6009V28.6059V28.6109V28.6159V28.6209V28.6259V28.6309V28.6359V28.6409V28.6459V28.6509V28.6559V28.6609V28.6659V28.6709V28.6759V28.6809V28.6859V28.6909V28.6959V28.7009V28.7059V28.7109V28.7159V28.7209V28.7259V28.7309V28.7359V28.7408V28.7458V28.7508V28.7558V28.7608V28.7658V28.7708V28.7758V28.7808V28.7858V28.7908V28.7958V28.8008V28.8058V28.8108V28.8158V28.8208V28.8258V28.8308V28.8358V28.8408V28.8458V28.8508V28.8558V28.8608V28.8658V28.8708V28.8758V28.8808V28.8858V28.8908V28.8957V28.9007V28.9057V28.9107V28.9157V28.9207V28.9257V28.9307V28.9357V28.9407V28.9457V28.9507V28.9557V28.9607V28.9657V28.9707V28.9757V28.9807V28.9857V28.9907V28.9957V29.0007V29.0057V29.0107V29.0157V29.0207V29.0257V29.0307V29.0357V29.0407V29.0456V29.0506V29.0556V29.0606V29.0656V29.0706V29.0756V29.0806V29.0856V29.0906V29.0956V29.1006V29.1056V29.1106V29.1156V29.1206V29.1256V29.1306V29.1356V29.1406V29.1456V29.1506V29.1556V29.1606V29.1656V29.1706V29.1756V29.1806V29.1856V29.1905V29.1955V29.2005V29.2055V29.2105V29.2155V29.2205V29.2255V29.2305V29.2355V29.2405V29.2455V29.2505V29.2555V29.2605V29.2655V29.2705V29.2755V29.2805V29.2855V29.2905V29.2955V29.3005V29.3055V29.3105V29.3155V29.3205V29.3255V29.3305V29.3355V29.3404V29.3454V29.3504V29.3554V29.3604V29.3654V29.3704V29.3754V29.3804V29.3854V29.3904V29.3954V29.4004V29.4054V29.4104V29.4154V29.4204V29.4254V29.4304V29.4354V29.4404V29.4454V29.4504V29.4554V29.4604V29.4654V29.4704V29.4754V29.4804V29.4853V29.4903V29.4953V29.5003V29.5053V29.5103V29.5153V29.5203V29.5253V29.5303V29.5353V29.5403V29.5453V29.5503V29.5553V29.5603V29.5653V29.5703V29.5753V29.5803V29.5853V29.5903V29.5953V29.6003V29.6053V29.6103V29.6153V29.6203V29.6253V29.6302V29.6352V29.6402V29.6452V29.6502V29.6552V29.6602V29.6652V29.6702V29.6752V29.6802V29.6852V29.6902V29.6952V29.7002V29.7052V29.7102V29.7152V29.7202V29.7252V29.7302V29.7352V29.7402V29.7452V29.7502V29.7552V29.7602V29.7652V29.7702V29.7752V29.7801V29.7851V29.7901V29.7951V29.8001V29.8051V29.8101V29.8151V29.8201V29.8251V29.8301V29.8351V29.8401V29.8451V29.8501V29.8551V29.8601V29.8651V29.8701V29.8751V29.8801V29.8851V29.8901V29.8951V29.9001V29.9051V29.9101V29.9151V29.9201V29.925V29.93V29.935V29.94V29.945V29.95V29.955V29.96V29.965V29.97V29.975V29.98V29.985V29.99V29.995V30V30.005V30.01V30.015V30.02V30.025V30.03V30.035V30.04V30.045V30.05V30.055V30.06V30.065V30.07V30.0749V30.0799V30.0849V30.0899V30.0949V30.0999V30.1049V30.1099V30.1149V30.1199V30.1249V30.1299V30.1349V30.1399V30.1449V30.1499V30.1549V30.1599V30.1649V30.1699V30.1749V30.1799V30.1849V30.1899V30.1949V30.1999V30.2049V30.2099V30.2149V30.2199V30.2248V30.2298V30.2348V30.2398V30.2448V30.2498V30.2548V30.2598V30.2648V30.2698V30.2748V30.2798V30.2848V30.2898V30.2948V30.2998V30.3048V30.3098V30.3148V30.3198V30.3248V30.3298V30.3348V30.3398V30.3448V30.3498V30.3548V30.3598V30.3648V30.3698V30.3748V30.3797V30.3847V30.3897V30.3947V30.3997V30.4047V30.4097V30.4147V30.4197V30.4247V30.4297V30.4347V30.4397V30.4447V30.4497V30.4547V30.4597V30.4647V30.4697V30.4747V30.4797V30.4847V30.4897V30.4947V30.4997V30.5047V30.5097V30.5147V30.5197V30.5247V30.5296V30.5346V30.5396V30.5446V30.5496V30.5546V30.5596V30.5646V30.5696V30.5746V30.5796V30.5846V30.5896V30.5946V30.5996V30.602C80.3841 31.0681 80.1744 31.5159 79.8909 31.9481C75.0017 36.6892 70.1659 41.4759 65.3835 46.3082Z" stroke="white" stroke-width="3"/>
</g>
</svg>
