<svg width="113" height="103" viewBox="0 0 113 103" fill="none" xmlns="http://www.w3.org/2000/svg">
<path opacity="0.4" d="M8.492 99H6.812L3.008 93.252V99H1.328V90.612H3.008L6.812 96.372V90.612H8.492V99ZM13.1042 99.108C12.4642 99.108 11.8882 98.968 11.3762 98.688C10.8642 98.4 10.4602 97.996 10.1642 97.476C9.87622 96.956 9.73222 96.356 9.73222 95.676C9.73222 94.996 9.88022 94.396 10.1762 93.876C10.4802 93.356 10.8922 92.956 11.4122 92.676C11.9322 92.388 12.5122 92.244 13.1522 92.244C13.7922 92.244 14.3722 92.388 14.8922 92.676C15.4122 92.956 15.8202 93.356 16.1162 93.876C16.4202 94.396 16.5722 94.996 16.5722 95.676C16.5722 96.356 16.4162 96.956 16.1042 97.476C15.8002 97.996 15.3842 98.4 14.8562 98.688C14.3362 98.968 13.7522 99.108 13.1042 99.108ZM13.1042 97.644C13.4082 97.644 13.6922 97.572 13.9562 97.428C14.2282 97.276 14.4442 97.052 14.6042 96.756C14.7642 96.46 14.8442 96.1 14.8442 95.676C14.8442 95.044 14.6762 94.56 14.3402 94.224C14.0122 93.88 13.6082 93.708 13.1282 93.708C12.6482 93.708 12.2442 93.88 11.9162 94.224C11.5962 94.56 11.4362 95.044 11.4362 95.676C11.4362 96.308 11.5922 96.796 11.9042 97.14C12.2242 97.476 12.6242 97.644 13.1042 97.644ZM28.1879 90.624L25.1159 99H23.0759L20.0039 90.624H21.8039L24.1079 97.284L26.3999 90.624H28.1879ZM35.3752 95.532C35.3752 95.772 35.3592 95.988 35.3272 96.18H30.4672C30.5072 96.66 30.6752 97.036 30.9712 97.308C31.2672 97.58 31.6312 97.716 32.0632 97.716C32.6872 97.716 33.1312 97.448 33.3952 96.912H35.2072C35.0152 97.552 34.6472 98.08 34.1032 98.496C33.5592 98.904 32.8912 99.108 32.0992 99.108C31.4592 99.108 30.8832 98.968 30.3712 98.688C29.8672 98.4 29.4712 97.996 29.1832 97.476C28.9032 96.956 28.7632 96.356 28.7632 95.676C28.7632 94.988 28.9032 94.384 29.1832 93.864C29.4632 93.344 29.8552 92.944 30.3592 92.664C30.8632 92.384 31.4432 92.244 32.0992 92.244C32.7312 92.244 33.2952 92.38 33.7912 92.652C34.2952 92.924 34.6832 93.312 34.9552 93.816C35.2352 94.312 35.3752 94.884 35.3752 95.532ZM33.6352 95.052C33.6272 94.62 33.4712 94.276 33.1672 94.02C32.8632 93.756 32.4912 93.624 32.0512 93.624C31.6352 93.624 31.2832 93.752 30.9952 94.008C30.7152 94.256 30.5432 94.604 30.4792 95.052H33.6352ZM38.2814 93.384C38.4974 93.032 38.7774 92.756 39.1214 92.556C39.4734 92.356 39.8734 92.256 40.3214 92.256V94.02H39.8774C39.3494 94.02 38.9494 94.144 38.6774 94.392C38.4134 94.64 38.2814 95.072 38.2814 95.688V99H36.6014V92.352H38.2814V93.384ZM42.305 91.56C42.009 91.56 41.761 91.468 41.561 91.284C41.369 91.092 41.273 90.856 41.273 90.576C41.273 90.296 41.369 90.064 41.561 89.88C41.761 89.688 42.009 89.592 42.305 89.592C42.601 89.592 42.845 89.688 43.037 89.88C43.237 90.064 43.337 90.296 43.337 90.576C43.337 90.856 43.237 91.092 43.037 91.284C42.845 91.468 42.601 91.56 42.305 91.56ZM43.133 92.352V99H41.453V92.352H43.133ZM47.8408 93.732H46.6768V99H44.9728V93.732H44.2168V92.352H44.9728V92.016C44.9728 91.2 45.2048 90.6 45.6688 90.216C46.1328 89.832 46.8328 89.652 47.7688 89.676V91.092C47.3608 91.084 47.0768 91.152 46.9168 91.296C46.7568 91.44 46.6768 91.7 46.6768 92.076V92.352H47.8408V93.732ZM49.7816 91.56C49.4856 91.56 49.2376 91.468 49.0376 91.284C48.8456 91.092 48.7496 90.856 48.7496 90.576C48.7496 90.296 48.8456 90.064 49.0376 89.88C49.2376 89.688 49.4856 89.592 49.7816 89.592C50.0776 89.592 50.3216 89.688 50.5136 89.88C50.7136 90.064 50.8136 90.296 50.8136 90.576C50.8136 90.856 50.7136 91.092 50.5136 91.284C50.3216 91.468 50.0776 91.56 49.7816 91.56ZM50.6096 92.352V99H48.9296V92.352H50.6096ZM58.4494 95.532C58.4494 95.772 58.4334 95.988 58.4014 96.18H53.5414C53.5814 96.66 53.7494 97.036 54.0454 97.308C54.3414 97.58 54.7054 97.716 55.1374 97.716C55.7614 97.716 56.2054 97.448 56.4694 96.912H58.2814C58.0894 97.552 57.7214 98.08 57.1774 98.496C56.6334 98.904 55.9654 99.108 55.1734 99.108C54.5334 99.108 53.9574 98.968 53.4454 98.688C52.9414 98.4 52.5454 97.996 52.2574 97.476C51.9774 96.956 51.8374 96.356 51.8374 95.676C51.8374 94.988 51.9774 94.384 52.2574 93.864C52.5374 93.344 52.9294 92.944 53.4334 92.664C53.9374 92.384 54.5174 92.244 55.1734 92.244C55.8054 92.244 56.3694 92.38 56.8654 92.652C57.3694 92.924 57.7574 93.312 58.0294 93.816C58.3094 94.312 58.4494 94.884 58.4494 95.532ZM56.7094 95.052C56.7014 94.62 56.5454 94.276 56.2414 94.02C55.9374 93.756 55.5654 93.624 55.1254 93.624C54.7094 93.624 54.3574 93.752 54.0694 94.008C53.7894 94.256 53.6174 94.604 53.5534 95.052H56.7094ZM59.2437 95.652C59.2437 94.98 59.3757 94.384 59.6397 93.864C59.9117 93.344 60.2797 92.944 60.7437 92.664C61.2077 92.384 61.7237 92.244 62.2917 92.244C62.7237 92.244 63.1357 92.34 63.5277 92.532C63.9197 92.716 64.2317 92.964 64.4637 93.276V90.12H66.1677V99H64.4637V98.016C64.2557 98.344 63.9637 98.608 63.5877 98.808C63.2117 99.008 62.7757 99.108 62.2797 99.108C61.7197 99.108 61.2077 98.964 60.7437 98.676C60.2797 98.388 59.9117 97.984 59.6397 97.464C59.3757 96.936 59.2437 96.332 59.2437 95.652ZM64.4757 95.676C64.4757 95.268 64.3957 94.92 64.2357 94.632C64.0757 94.336 63.8597 94.112 63.5877 93.96C63.3157 93.8 63.0237 93.72 62.7117 93.72C62.3997 93.72 62.1117 93.796 61.8477 93.948C61.5837 94.1 61.3677 94.324 61.1997 94.62C61.0397 94.908 60.9597 95.252 60.9597 95.652C60.9597 96.052 61.0397 96.404 61.1997 96.708C61.3677 97.004 61.5837 97.232 61.8477 97.392C62.1197 97.552 62.4077 97.632 62.7117 97.632C63.0237 97.632 63.3157 97.556 63.5877 97.404C63.8597 97.244 64.0757 97.02 64.2357 96.732C64.3957 96.436 64.4757 96.084 64.4757 95.676ZM76.7758 93.216C76.7758 93.664 76.6678 94.084 76.4518 94.476C76.2438 94.868 75.9118 95.184 75.4558 95.424C75.0078 95.664 74.4398 95.784 73.7518 95.784H72.3478V99H70.6678V90.624H73.7518C74.3998 90.624 74.9518 90.736 75.4078 90.96C75.8638 91.184 76.2038 91.492 76.4278 91.884C76.6598 92.276 76.7758 92.72 76.7758 93.216ZM73.6798 94.428C74.1438 94.428 74.4878 94.324 74.7118 94.116C74.9358 93.9 75.0478 93.6 75.0478 93.216C75.0478 92.4 74.5918 91.992 73.6798 91.992H72.3478V94.428H73.6798ZM81.7126 92.256C82.2166 92.256 82.6646 92.368 83.0566 92.592C83.4486 92.808 83.7526 93.132 83.9686 93.564C84.1926 93.988 84.3046 94.5 84.3046 95.1V99H82.6246V95.328C82.6246 94.8 82.4926 94.396 82.2286 94.116C81.9646 93.828 81.6046 93.684 81.1486 93.684C80.6846 93.684 80.3166 93.828 80.0446 94.116C79.7806 94.396 79.6486 94.8 79.6486 95.328V99H77.9686V90.12H79.6486V93.18C79.8646 92.892 80.1526 92.668 80.5126 92.508C80.8726 92.34 81.2726 92.256 81.7126 92.256ZM88.8542 99.108C88.2142 99.108 87.6382 98.968 87.1262 98.688C86.6142 98.4 86.2102 97.996 85.9142 97.476C85.6262 96.956 85.4822 96.356 85.4822 95.676C85.4822 94.996 85.6302 94.396 85.9262 93.876C86.2302 93.356 86.6422 92.956 87.1622 92.676C87.6822 92.388 88.2622 92.244 88.9022 92.244C89.5422 92.244 90.1222 92.388 90.6422 92.676C91.1622 92.956 91.5702 93.356 91.8662 93.876C92.1702 94.396 92.3222 94.996 92.3222 95.676C92.3222 96.356 92.1662 96.956 91.8542 97.476C91.5502 97.996 91.1342 98.4 90.6062 98.688C90.0862 98.968 89.5022 99.108 88.8542 99.108ZM88.8542 97.644C89.1582 97.644 89.4422 97.572 89.7062 97.428C89.9782 97.276 90.1942 97.052 90.3542 96.756C90.5142 96.46 90.5942 96.1 90.5942 95.676C90.5942 95.044 90.4262 94.56 90.0902 94.224C89.7622 93.88 89.3582 93.708 88.8782 93.708C88.3982 93.708 87.9942 93.88 87.6662 94.224C87.3462 94.56 87.1862 95.044 87.1862 95.676C87.1862 96.308 87.3422 96.796 87.6542 97.14C87.9742 97.476 88.3742 97.644 88.8542 97.644ZM95.5106 93.732V96.948C95.5106 97.172 95.5626 97.336 95.6666 97.44C95.7786 97.536 95.9626 97.584 96.2186 97.584H96.9986V99H95.9426C94.5266 99 93.8186 98.312 93.8186 96.936V93.732H93.0266V92.352H93.8186V90.708H95.5106V92.352H96.9986V93.732H95.5106ZM101.159 99.108C100.519 99.108 99.9429 98.968 99.4309 98.688C98.9189 98.4 98.5149 97.996 98.2189 97.476C97.9309 96.956 97.7869 96.356 97.7869 95.676C97.7869 94.996 97.9349 94.396 98.2309 93.876C98.5349 93.356 98.9469 92.956 99.4669 92.676C99.9869 92.388 100.567 92.244 101.207 92.244C101.847 92.244 102.427 92.388 102.947 92.676C103.467 92.956 103.875 93.356 104.171 93.876C104.475 94.396 104.627 94.996 104.627 95.676C104.627 96.356 104.471 96.956 104.159 97.476C103.855 97.996 103.439 98.4 102.911 98.688C102.391 98.968 101.807 99.108 101.159 99.108ZM101.159 97.644C101.463 97.644 101.747 97.572 102.011 97.428C102.283 97.276 102.499 97.052 102.659 96.756C102.819 96.46 102.899 96.1 102.899 95.676C102.899 95.044 102.731 94.56 102.395 94.224C102.067 93.88 101.663 93.708 101.183 93.708C100.703 93.708 100.299 93.88 99.9709 94.224C99.6509 94.56 99.4909 95.044 99.4909 95.676C99.4909 96.308 99.6469 96.796 99.9589 97.14C100.279 97.476 100.679 97.644 101.159 97.644ZM108.403 99.108C107.859 99.108 107.371 99.012 106.939 98.82C106.507 98.62 106.163 98.352 105.907 98.016C105.659 97.68 105.523 97.308 105.499 96.9H107.191C107.223 97.156 107.347 97.368 107.563 97.536C107.787 97.704 108.063 97.788 108.391 97.788C108.711 97.788 108.959 97.724 109.135 97.596C109.319 97.468 109.411 97.304 109.411 97.104C109.411 96.888 109.299 96.728 109.075 96.624C108.859 96.512 108.511 96.392 108.031 96.264C107.535 96.144 107.127 96.02 106.807 95.892C106.495 95.764 106.223 95.568 105.991 95.304C105.767 95.04 105.655 94.684 105.655 94.236C105.655 93.868 105.759 93.532 105.967 93.228C106.183 92.924 106.487 92.684 106.879 92.508C107.279 92.332 107.747 92.244 108.283 92.244C109.075 92.244 109.707 92.444 110.179 92.844C110.651 93.236 110.911 93.768 110.959 94.44H109.351C109.327 94.176 109.215 93.968 109.015 93.816C108.823 93.656 108.563 93.576 108.235 93.576C107.931 93.576 107.695 93.632 107.527 93.744C107.367 93.856 107.287 94.012 107.287 94.212C107.287 94.436 107.399 94.608 107.623 94.728C107.847 94.84 108.195 94.956 108.667 95.076C109.147 95.196 109.543 95.32 109.855 95.448C110.167 95.576 110.435 95.776 110.659 96.048C110.891 96.312 111.011 96.664 111.019 97.104C111.019 97.488 110.911 97.832 110.695 98.136C110.487 98.44 110.183 98.68 109.783 98.856C109.391 99.024 108.931 99.108 108.403 99.108Z" fill="white"/>
<g opacity="0.4">
<path opacity="0.94" fill-rule="evenodd" clip-rule="evenodd" d="M82.5721 0.035978C92.1576 -0.43325 98.9051 3.6873 102.815 12.3976C105.517 20.929 103.599 28.2086 97.0604 34.2366C96.992 45.6367 96.9234 57.0371 96.8549 68.4372C96.3116 71.3166 94.6332 73.1367 91.82 73.8969C65.9259 74.0344 40.0318 74.0344 14.1377 73.8969C11.5004 73.1758 9.82204 71.4932 9.10276 68.8493C8.96575 49.9633 8.96575 31.0776 9.10276 12.1916C10.0678 9.23223 12.0887 7.54981 15.1653 7.14394C33.4555 7.07533 51.7458 7.00652 70.0361 6.93791C73.3256 3.02247 77.5044 0.721844 82.5721 0.035978ZM82.7776 3.12639C90.9272 2.72697 96.6474 6.22938 99.9376 13.6338C101.904 19.4298 101.014 24.7179 97.2659 29.4979C89.6964 21.9093 82.1267 14.3205 74.5572 6.73188C77.039 4.90338 79.779 3.70154 82.7776 3.12639ZM72.2966 9.1012C79.8248 16.5454 87.3259 24.031 94.7998 31.5582C94.904 31.8664 94.8013 32.1069 94.4916 32.2793C88.748 36.1351 82.7883 36.4784 76.6123 33.3095C69.4956 28.3883 67.2007 21.761 69.7278 13.4278C70.3795 11.8436 71.2358 10.4014 72.2966 9.1012ZM15.3708 10.1313C32.8396 10.0627 50.3078 10.1313 67.7755 10.3374C64.3428 17.6223 64.9251 24.5586 69.5223 31.1462C75.6464 38.1585 83.1475 40.1844 92.0255 37.224C92.6741 37.0309 93.2563 36.7219 93.7723 36.2969C93.9094 43.5078 93.9094 50.7188 93.7723 57.9298C89.1547 52.9569 84.4623 48.0466 79.695 43.1988C77.6399 41.9626 75.5848 41.9626 73.5297 43.1988C69.5566 46.7699 65.5833 50.3412 61.6102 53.9122C61.4047 54.0497 61.1992 54.0497 60.9937 53.9122C54.4264 44.5559 47.8843 35.1816 41.3676 25.7894C38.6407 22.6685 35.5924 22.2909 32.2225 24.6563C25.3468 35.1796 18.5991 45.79 11.9799 56.4876C11.8429 42.3403 11.8429 28.1932 11.9799 14.0459C12.142 11.8595 13.2723 10.5547 15.3708 10.1313ZM36.1271 25.9955C37.0431 26.1628 37.8308 26.5748 38.4905 27.2316C45.6237 37.4482 52.7824 47.6465 59.9661 57.8268C60.8755 58.2765 61.6975 58.1391 62.4322 57.4147C66.8316 53.2781 71.3527 49.295 75.9958 45.4651C77.0244 45.2762 77.8807 45.5852 78.5647 46.3922C83.6339 51.7489 88.703 57.1057 93.7723 62.4624C93.9094 64.3166 93.9094 66.1709 93.7723 68.0251C93.2559 69.8479 92.0569 70.8438 90.1759 71.0125C65.3778 71.15 40.5799 71.15 15.7818 71.0125C13.4184 70.8409 12.1511 69.5704 11.9799 67.201C11.7873 65.4628 11.8558 63.7459 12.1854 62.0503C19.1727 50.9248 26.16 39.7993 33.1473 28.6738C33.8039 27.361 34.7971 26.4683 36.1271 25.9955Z" fill="white"/>
</g>
</svg>
