<svg width="20" height="20" viewBox="0 0 20 20" fill="none" xmlns="http://www.w3.org/2000/svg">
<g opacity="0.4">
<path fill-rule="evenodd" clip-rule="evenodd" d="M3.12654 1.52893C4.29378 0.361685 6.22423 0.498877 7.21466 1.81946L8.85875 4.01154C9.66864 5.09146 9.56131 6.60262 8.60676 7.55714L7.39462 8.76927C7.51209 9.07507 7.8988 9.74597 9.07639 10.9236C10.254 12.1012 10.925 12.4879 11.2308 12.6054L12.4429 11.3933C13.3974 10.4388 14.9086 10.3313 15.9885 11.1413L18.1806 12.7854C19.5011 13.7758 19.6384 15.7063 18.4711 16.8735C18.0916 17.253 18.0274 17.3172 17.3941 17.9505C16.7487 18.5959 15.3783 19.1992 13.9907 19.2595C11.8195 19.3539 8.87033 18.3898 5.24027 14.7598C1.61026 11.1297 0.646148 8.1805 0.740554 6.00925C0.793069 4.80143 1.17707 3.47487 2.05461 2.61096C2.68284 1.97263 2.76454 1.89093 3.12654 1.52893ZM2.54688 6.08786C2.48144 7.59292 3.11574 10.0782 6.51865 13.4811C9.92156 16.884 12.4068 17.5183 13.9119 17.4529C15.3168 17.3917 16.0706 16.7129 16.1151 16.6718L17.192 15.5949C17.5811 15.2058 17.5354 14.5623 17.0952 14.2322L14.9031 12.5881C14.5431 12.3181 14.0394 12.3539 13.7212 12.6721C13.2419 13.1515 12.9146 13.4835 12.2741 14.1217C10.9435 15.4473 8.66573 13.0707 7.79736 12.2024C6.99934 11.4044 4.56738 9.05433 5.87677 7.72941C5.87937 7.72681 6.23205 7.37413 7.32769 6.27849C7.64586 5.96032 7.68167 5.45659 7.41169 5.09662L5.76762 2.90454C5.43747 2.46435 4.79399 2.41862 4.40492 2.8077C4.04681 3.1658 3.64153 3.57107 3.32902 3.88576C2.68581 4.53342 2.5813 5.29616 2.54688 6.08786Z" fill="white"/>
<path d="M7.21466 1.81946L7.11466 1.89446L7.11466 1.89446L7.21466 1.81946ZM8.85875 4.01154L8.95876 3.93654L8.95875 3.93654L8.85875 4.01154ZM8.60676 7.55714L8.51837 7.46875L8.51837 7.46876L8.60676 7.55714ZM7.39462 8.76927L7.30623 8.68088L7.24882 8.7383L7.27794 8.8141L7.39462 8.76927ZM9.07639 10.9236L8.988 11.012L9.07639 10.9236ZM11.2308 12.6054L11.186 12.7221L11.2618 12.7512L11.3192 12.6938L11.2308 12.6054ZM12.4429 11.3933L12.5313 11.4817L12.4429 11.3933ZM15.9885 11.1413L15.9134 11.2413L15.9135 11.2413L15.9885 11.1413ZM18.1806 12.7854L18.2556 12.6854L18.2556 12.6854L18.1806 12.7854ZM18.4711 16.8735L18.3827 16.7851L18.3827 16.7851L18.4711 16.8735ZM13.9907 19.2595L13.9853 19.1346H13.9853L13.9907 19.2595ZM5.24027 14.7598L5.15188 14.8482H5.15188L5.24027 14.7598ZM0.740554 6.00925L0.865436 6.01468L0.740554 6.00925ZM2.05461 2.61096L2.14231 2.70005L2.1437 2.69864L2.05461 2.61096ZM2.54688 6.08786L2.422 6.08243L2.54688 6.08786ZM13.9119 17.4529L13.9173 17.5778L13.9173 17.5778L13.9119 17.4529ZM16.1151 16.6718L16.1999 16.7638L16.2034 16.7602L16.1151 16.6718ZM17.0952 14.2322L17.0202 14.3322L17.0202 14.3322L17.0952 14.2322ZM14.9031 12.5881L14.8281 12.6881L14.8281 12.6881L14.9031 12.5881ZM13.7212 12.6721L13.6328 12.5837L13.6328 12.5837L13.7212 12.6721ZM12.2741 14.1217L12.3623 14.2102L12.3623 14.2102L12.2741 14.1217ZM7.79736 12.2024L7.70897 12.2908L7.70897 12.2908L7.79736 12.2024ZM5.87677 7.72941L5.78823 7.64118L5.78787 7.64155L5.87677 7.72941ZM7.41169 5.09662L7.51169 5.02162V5.02162L7.41169 5.09662ZM5.76762 2.90454L5.66762 2.97954V2.97954L5.76762 2.90454ZM4.40492 2.8077L4.49331 2.89609L4.49331 2.89608L4.40492 2.8077ZM3.32902 3.88576L3.41771 3.97384L3.41771 3.97384L3.32902 3.88576ZM3.21493 1.61732C4.32838 0.503862 6.16987 0.634733 7.11466 1.89446L7.31466 1.74446C6.27859 0.363022 4.25918 0.219508 3.03815 1.44054L3.21493 1.61732ZM7.11466 1.89446L8.75875 4.08654L8.95875 3.93654L7.31466 1.74446L7.11466 1.89446ZM8.75875 4.08653C9.53132 5.1167 9.42893 6.55822 8.51837 7.46875L8.69514 7.64553C9.69369 6.64702 9.80595 5.06622 8.95876 3.93654L8.75875 4.08653ZM8.51837 7.46876L7.30623 8.68088L7.48301 8.85766L8.69515 7.64553L8.51837 7.46876ZM7.27794 8.8141C7.40465 9.14395 7.80565 9.8296 8.988 11.012L9.16478 10.8352C7.99195 9.66235 7.61954 9.00618 7.51131 8.72445L7.27794 8.8141ZM8.988 11.012C10.1704 12.1944 10.8561 12.5954 11.186 12.7221L11.2756 12.4887C10.9939 12.3805 10.3376 12.008 9.16478 10.8352L8.988 11.012ZM11.3192 12.6938L12.5313 11.4817L12.3545 11.3049L11.1424 12.517L11.3192 12.6938ZM12.5313 11.4817C13.4418 10.5711 14.8833 10.4687 15.9134 11.2413L16.0635 11.0413C14.9338 10.194 13.353 10.3064 12.3545 11.3049L12.5313 11.4817ZM15.9135 11.2413L18.1056 12.8854L18.2556 12.6854L16.0635 11.0413L15.9135 11.2413ZM18.1056 12.8854C19.3653 13.8302 19.4962 15.6717 18.3827 16.7851L18.5595 16.9619C19.7806 15.7409 19.637 13.7215 18.2556 12.6854L18.1056 12.8854ZM18.3827 16.7851C18.1929 16.9749 18.082 17.0858 17.9394 17.2284C17.7967 17.3711 17.6224 17.5454 17.3057 17.8621L17.4825 18.0389C17.7991 17.7222 17.9735 17.5478 18.1162 17.4052C18.2588 17.2626 18.3697 17.1516 18.5595 16.9619L18.3827 16.7851ZM17.3057 17.8621C16.6865 18.4813 15.3479 19.0754 13.9853 19.1346L13.9962 19.3844C15.4088 19.323 16.8109 18.7104 17.4825 18.0389L17.3057 17.8621ZM13.9853 19.1346C11.8602 19.227 8.94306 18.2858 5.32866 14.6714L5.15188 14.8482C8.7976 18.4939 11.7789 19.4808 13.9962 19.3844L13.9853 19.1346ZM5.32866 14.6714C1.7143 11.057 0.773034 8.13984 0.865436 6.01468L0.615672 6.00382C0.519262 8.22116 1.50621 11.2025 5.15188 14.8482L5.32866 14.6714ZM0.865436 6.01468C0.917201 4.82412 1.29577 3.53343 2.1423 2.70004L1.96692 2.52188C1.05837 3.41632 0.668937 4.77875 0.615672 6.00382L0.865436 6.01468ZM2.1437 2.69864C2.77174 2.0605 2.85321 1.97904 3.21493 1.61732L3.03815 1.44054C2.67588 1.80282 2.59394 1.88476 1.96552 2.52328L2.1437 2.69864ZM2.422 6.08243C2.35456 7.63349 3.0116 10.1509 6.43026 13.5695L6.60704 13.3927C3.21987 10.0056 2.60832 7.55235 2.67176 6.09329L2.422 6.08243ZM6.43026 13.5695C9.84891 16.9882 12.3662 17.6452 13.9173 17.5778L13.9065 17.328C12.4474 17.3915 9.9942 16.7799 6.60704 13.3927L6.43026 13.5695ZM13.9173 17.5778C15.3622 17.5149 16.1427 16.8164 16.1998 16.7637L16.0303 16.58C15.9984 16.6094 15.2715 17.2686 13.9065 17.328L13.9173 17.5778ZM16.2034 16.7602L17.2804 15.6832L17.1036 15.5065L16.0267 16.5834L16.2034 16.7602ZM17.2804 15.6832C17.7233 15.2404 17.6713 14.5079 17.1702 14.1321L17.0202 14.3322C17.3996 14.6166 17.4389 15.1712 17.1036 15.5065L17.2804 15.6832ZM17.1702 14.1322L14.9781 12.4881L14.8281 12.6881L17.0202 14.3322L17.1702 14.1322ZM14.9781 12.4881C14.5684 12.1808 13.995 12.2215 13.6328 12.5837L13.8096 12.7605C14.0838 12.4863 14.5179 12.4554 14.8281 12.6881L14.9781 12.4881ZM13.6328 12.5837C13.1527 13.0639 12.8265 13.3948 12.1858 14.0331L12.3623 14.2102C13.0027 13.5722 13.3311 13.2391 13.8096 12.7605L13.6328 12.5837ZM12.1858 14.0331C11.8838 14.3341 11.5316 14.425 11.1503 14.379C10.7628 14.3323 10.3447 14.1434 9.92946 13.8793C9.09916 13.3512 8.32292 12.5512 7.88574 12.114L7.70897 12.2908C8.14017 12.722 8.93699 13.5444 9.7953 14.0902C10.2244 14.3632 10.6795 14.5741 11.1204 14.6272C11.5675 14.6812 11.9991 14.5721 12.3623 14.2102L12.1858 14.0331ZM7.88575 12.114C7.48426 11.7126 6.68748 10.9354 6.15217 10.0963C5.8844 9.67651 5.68897 9.25155 5.63613 8.8584C5.58409 8.47119 5.66984 8.11663 5.96568 7.81728L5.78787 7.64155C5.42901 8.00465 5.32774 8.44069 5.38836 8.8917C5.44818 9.33676 5.66511 9.79761 5.9414 10.2307C6.49423 11.0974 7.31244 11.8943 7.70897 12.2908L7.88575 12.114ZM5.96532 7.81765C5.96531 7.81766 5.96562 7.81734 5.96646 7.8165C5.96723 7.81573 5.96836 7.8146 5.96985 7.81311C5.97285 7.81012 5.9773 7.80566 5.98332 7.79964C5.99535 7.78761 6.01361 7.76934 6.03889 7.74407C6.08944 7.69352 6.168 7.61495 6.28073 7.50223C6.50618 7.27678 6.86826 6.9147 7.41607 6.36688L7.2393 6.1901C6.14376 7.28564 5.79093 7.63847 5.78823 7.64118L5.96532 7.81765ZM7.41607 6.36688C7.77823 6.00472 7.81899 5.43136 7.51169 5.02162L7.31169 5.17162C7.54434 5.48183 7.51349 5.91591 7.2393 6.1901L7.41607 6.36688ZM7.51169 5.02162L5.86762 2.82954L5.66762 2.97954L7.31169 5.17162L7.51169 5.02162ZM5.86762 2.82954C5.49183 2.3285 4.75939 2.27644 4.31653 2.71931L4.49331 2.89608C4.82859 2.56079 5.38311 2.6002 5.66762 2.97954L5.86762 2.82954ZM4.31653 2.71931C3.95847 3.07736 3.55302 3.48281 3.24032 3.79768L3.41771 3.97384C3.73004 3.65934 4.13515 3.25424 4.49331 2.89609L4.31653 2.71931ZM3.24033 3.79768C2.56226 4.48043 2.45668 5.28481 2.422 6.08243L2.67176 6.09329C2.70593 5.3075 2.80935 4.58641 3.41771 3.97384L3.24033 3.79768Z" fill="#1E1E53"/>
</g>
</svg>
