<svg width="53" height="51" viewBox="0 0 53 51" fill="none" xmlns="http://www.w3.org/2000/svg">
<g opacity="0.4">
<path opacity="0.993" fill-rule="evenodd" clip-rule="evenodd" d="M52.7706 18.0612C52.7706 26.8622 52.7706 35.6633 52.7706 44.4643C51.9619 47.8383 49.8551 49.8942 46.4502 50.6318C32.1103 50.6998 17.7705 50.6998 3.43056 50.6318C1.94998 50.2214 0.998517 49.287 0.576172 47.8284C0.576172 32.9448 0.576172 18.0612 0.576172 3.17761C0.998517 1.71894 1.94998 0.784479 3.43056 0.374192C15.9398 0.273008 28.4448 0.30699 40.9453 0.476134C42.2882 1.00369 43.1208 1.97214 43.4429 3.38149C43.4939 7.32311 43.5109 11.2649 43.4939 15.2068C45.7081 15.1603 47.9169 15.2113 50.1201 15.3597C51.4951 15.7848 52.3786 16.6854 52.7706 18.0612ZM10.3626 10.6194C13.1492 10.6024 15.9357 10.6194 18.7219 10.6704C20.5398 10.9932 21.6102 12.0636 21.9331 13.8816C22.0011 16.634 22.0011 19.3864 21.9331 22.1389C21.5381 24.131 20.3318 25.2354 18.3141 25.452C15.7995 25.52 13.285 25.52 10.7704 25.452C8.56497 25.1835 7.35866 23.9432 7.15145 21.7311C7.05804 18.976 7.09202 16.2236 7.25339 13.4738C7.76018 11.9301 8.79659 10.9785 10.3626 10.6194ZM26.4695 11.5369C29.3921 11.5199 32.3144 11.5369 35.2366 11.5878C36.7834 12.049 37.2082 13.0175 36.5108 14.4932C36.2276 14.8303 35.8708 15.0512 35.4404 15.1558C32.3822 15.2238 29.3239 15.2238 26.2656 15.1558C24.9093 14.6084 24.5525 13.6739 25.1952 12.3524C25.5396 11.9351 25.9644 11.6632 26.4695 11.5369ZM43.4939 18.9787C45.3289 18.9787 47.1638 18.9787 48.9988 18.9787C49.0158 27.2361 48.9988 35.4934 48.9478 43.7507C48.5788 45.5129 47.5084 46.5494 45.7366 46.8599C44.9898 46.9109 44.2422 46.9278 43.4939 46.9109C43.4939 37.6002 43.4939 28.2894 43.4939 18.9787ZM26.2656 21.8331C29.3241 21.816 32.3824 21.8331 35.4404 21.884C36.7366 22.387 37.1274 23.2875 36.6128 24.5855C36.224 25.1281 35.6973 25.4169 35.0327 25.452C32.0388 25.549 29.0486 25.5149 26.0618 25.3501C24.8054 24.64 24.5506 23.6716 25.2972 22.4447C25.587 22.1732 25.9098 21.9693 26.2656 21.8331ZM8.93544 32.0273C17.6685 32.0103 26.4016 32.0273 35.1346 32.0783C36.7607 32.4932 37.2194 33.4616 36.5108 34.9836C36.2276 35.3207 35.8708 35.5416 35.4404 35.6462C26.4695 35.7142 17.4986 35.7142 8.52767 35.6462C7.14484 35.0111 6.82201 34.0427 7.55922 32.7409C7.9421 32.3371 8.40084 32.0993 8.93544 32.0273Z" fill="white"/>
<path opacity="0.975" fill-rule="evenodd" clip-rule="evenodd" d="M10.7695 14.2891C13.2841 14.2891 15.7987 14.2891 18.3133 14.2891C18.3133 16.8037 18.3133 19.3182 18.3133 21.8328C15.7987 21.8328 13.2841 21.8328 10.7695 21.8328C10.7695 19.3182 10.7695 16.8037 10.7695 14.2891Z" fill="white"/>
</g>
</svg>
