<svg width="51" height="15" viewBox="0 0 51 15" fill="none" xmlns="http://www.w3.org/2000/svg">
<path d="M37.073 0.614387C35.8884 0.200412 34.6364 -0.00756943 33.3757 0.000210452C29.2959 0.000210452 26.4161 1.97394 26.3943 4.80144C26.3686 6.8807 28.4427 8.05105 30.0094 8.7489C31.6177 9.4629 32.1558 9.9107 32.1518 10.5553C32.1409 11.5279 30.8636 11.9681 29.6824 11.9681C28.3415 12.0046 27.0099 11.7443 25.7908 11.2075L25.2825 10.9812L24.7067 14.2394C26.1909 14.7439 27.754 15.0011 29.3286 15C33.666 15 36.5012 13.0405 36.5349 10.0267C36.5686 8.3686 35.4508 7.11078 33.0903 6.07542C31.6583 5.4023 30.7655 4.95165 30.7655 4.26902C30.7655 3.6653 31.5285 3.02165 33.122 3.02165C34.1818 2.99718 35.2352 3.18667 36.2138 3.57784L36.5963 3.74326L37.1721 0.595372L37.073 0.615338V0.614387ZM47.6654 0.267368H44.4755C44.0261 0.211465 43.5699 0.29916 43.1777 0.516895C42.7854 0.734631 42.4788 1.07028 42.3053 1.47195L36.1702 14.7946H40.5077L41.3748 12.6127H46.6665C46.7963 13.1223 47.1769 14.7899 47.1769 14.7899H51L47.6654 0.267368ZM20.5318 0.144723H24.6611L22.0757 14.6805H17.9444L20.5288 0.140919L20.5318 0.144723ZM10.0325 8.15564L10.4616 10.1741L14.5018 0.267368H18.8779L12.3722 14.7737H8.01195L4.43754 2.48829C4.37995 2.28589 4.24285 2.11278 4.05503 2.00532C2.77092 1.3651 1.40878 0.880624 0 0.563047L0.0535121 0.25691H6.70685C7.12263 0.210048 7.54202 0.30949 7.88718 0.536784C8.23234 0.764077 8.47984 1.10379 8.58374 1.49287L10.0335 8.16609V8.16039L10.0325 8.15564ZM42.5649 9.63784L44.2119 5.57248C44.1911 5.61336 44.5518 4.73203 44.7599 4.18631L45.0423 5.44033L45.9966 9.63403H42.5649V9.63784Z" fill="white"/>
</svg>
