<svg width="27" height="26" viewBox="0 0 27 26" fill="none" xmlns="http://www.w3.org/2000/svg">
<g opacity="0.7">
<path opacity="0.98" d="M2.02637 0.3H1.99792L1.9706 0.307933C1.2245 0.524575 0.721344 1.01059 0.477092 1.74975L0.466992 1.78031V1.8125V1.82294V1.83337V1.84381V1.85425V1.86469V1.87512V1.88556V1.896V1.90643V1.91687V1.92731V1.93774V1.94818V1.95862V1.96906V1.97949V1.98993V2.00037V2.0108V2.02124V2.03168V2.04211V2.05255V2.06299V2.07343V2.08386V2.0943V2.10474V2.11517V2.12561V2.13605V2.14648V2.15692V2.16736V2.1778V2.18823V2.19867V2.20911V2.21954V2.22998V2.24042V2.25085V2.26129V2.27173V2.28217V2.2926V2.30304V2.31348V2.32391V2.33435V2.34479V2.35522V2.36566V2.3761V2.38654V2.39697V2.40741V2.41785V2.42828V2.43872V2.44916V2.45959V2.47003V2.48047V2.49091V2.50134V2.51178V2.52222V2.53265V2.54309V2.55353V2.56396V2.5744V2.58484V2.59528V2.60571V2.61615V2.62659V2.63702V2.64746V2.6579V2.66833V2.67877V2.68921V2.69965V2.71008V2.72052V2.73096V2.74139V2.75183V2.76227V2.77271V2.78314V2.79358V2.80402V2.81445V2.82489V2.83533V2.84576V2.8562V2.86664V2.87708V2.88751V2.89795V2.90839V2.91882V2.92926V2.9397V2.95013V2.96057V2.97101V2.98145V2.99188V3.00232V3.01276V3.02319V3.03363V3.04407V3.0545V3.06494V3.07538V3.08582V3.09625V3.10669V3.11713V3.12756V3.138V3.14844V3.15887V3.16931V3.17975V3.19019V3.20062V3.21106V3.2215V3.23193V3.24237V3.25281V3.26324V3.27368V3.28412V3.29456V3.30499V3.31543V3.32587V3.3363V3.34674V3.35718V3.36761V3.37805V3.38849V3.39893V3.40936V3.4198V3.43024V3.44067V3.45111V3.46155V3.47198V3.48242V3.49286V3.5033V3.51373V3.52417V3.53461V3.54504V3.55548V3.56592V3.57635V3.58679V3.59723V3.60767V3.6181V3.62854V3.63898V3.64941V3.65985V3.67029V3.68073V3.69116V3.7016V3.71204V3.72247V3.73291V3.74335V3.75378V3.76422V3.77466V3.7851V3.79553V3.80597V3.81641V3.82684V3.83728V3.84772V3.85815V3.86859V3.87903V3.88947V3.8999V3.91034V3.92078V3.93121V3.94165V3.95209V3.96252V3.97296V3.9834V3.99384V4.00427V4.01471V4.02515V4.03558V4.04602V4.05646V4.06689V4.07733V4.08777V4.09821V4.10864V4.11908V4.12952V4.13995V4.15039V4.16083V4.17126V4.1817V4.19214V4.20258V4.21301V4.22345V4.23389V4.24432V4.25476V4.2652V4.27563V4.28607V4.29651V4.30695V4.31738V4.32782V4.33826V4.34869V4.35913V4.36957V4.38V4.39044V4.40088V4.41132V4.42175V4.43219V4.44263V4.45306V4.4635V4.47394V4.48438V4.49481V4.50525V4.51569V4.52612V4.53656V4.547V4.55743V4.56787V4.57831V4.58875V4.59918V4.60962V4.62006V4.63049V4.64093V4.65137V4.6618V4.67224V4.68268V4.69312V4.70355V4.71399V4.72443V4.73486V4.7453V4.75574V4.76617V4.77661V4.78705V4.79749V4.80792V4.81836V4.8288V4.83923V4.84967V4.86011V4.87054V4.88098V4.89142V4.90186V4.91229V4.92273V4.93317V4.9436V4.95404V4.96448V4.97491V4.98535V4.99579V5.00623V5.01666V5.0271V5.03754V5.04797V5.05841V5.06885V5.07928V5.08972V5.10016V5.1106V5.12103V5.13147V5.14191V5.15234V5.16278V5.17322V5.18365V5.19409V5.20453V5.21497V5.2254V5.23584V5.24628V5.25671V5.26715V5.27759V5.28802V5.29846V5.3089V5.31934V5.32977V5.34021V5.35065V5.36108V5.37152V5.38196V5.3924V5.40283V5.41327V5.42371V5.43414V5.44458V5.45502V5.46545V5.47589V5.48633V5.49677V5.5072V5.51764V5.52808V5.53851V5.54895V5.55939V5.56982V5.58026V5.5907V5.60114V5.61157V5.62201V5.63245V5.64288V5.65332V5.66376V5.67419V5.68463V5.69507V5.70551V5.71594V5.72638V5.73682V5.74725V5.75769V5.76813V5.77856V5.789V5.79944V5.80988V5.82031V5.83075V5.84119V5.85162V5.86206V5.8725V5.88293V5.89337V5.90381V5.91425V5.92468V5.93512V5.94556V5.95599V5.96643V5.97687V5.9873V5.99774V6.00818V6.01862V6.02905V6.03949V6.04993V6.06036V6.0708V6.08124V6.09167V6.10211V6.11255V6.12299V6.13342V6.14386V6.1543V6.16473V6.17517V6.18561V6.19604V6.20648V6.21692V6.22736V6.23779V6.24823V6.25867V6.2691V6.27954V6.28998V6.30042V6.31085V6.32129V6.33173V6.34216V6.3526V6.36304V6.37347V6.38391V6.39435V6.40479V6.41522V6.42566V6.4361V6.44653V6.45697V6.46741V6.47784V6.48828V6.49872V6.50916V6.51959V6.53003V6.54047V6.5509V6.56134V6.57178V6.58221V6.59265V6.60309V6.61353V6.62396V6.6344V6.64484V6.65527V6.66571V6.67615V6.68658V6.69702V6.70746V6.7179V6.72833V6.73877V6.74921V6.75964V6.77008V6.78052V6.79095V6.80139V6.81183V6.82227V6.8327V6.84314V6.85358V6.86401V6.87445V6.88489V6.89532V6.90576V6.9162V6.92664V6.93707V6.94751V6.95795V6.96838V6.97882V6.98926V6.99969V7.01013V7.02057V7.03101V7.04144V7.05188V7.06232V7.07275V7.08319V7.09363V7.10406V7.1145V7.12494V7.13538V7.14581V7.15625V7.18598L0.475639 7.21442C0.711139 7.9891 1.2343 8.48532 2.02398 8.68602L2.04709 8.6919L2.07094 8.69217C4.79123 8.72346 7.51151 8.72346 10.2318 8.69217L10.2511 8.69195L10.2699 8.68806C10.6842 8.60252 11.0317 8.43264 11.3019 8.17132C11.5721 7.91 11.7537 7.56808 11.8535 7.15652L11.8587 7.13506L11.8591 7.11298C11.8905 5.3762 11.8905 3.63942 11.8591 1.90265L11.8587 1.87946L11.853 1.85698C11.6523 1.06731 11.1561 0.544147 10.3814 0.308647L10.353 0.3H10.3232H10.307H10.2908H10.2746H10.2584H10.2422H10.226H10.2098H10.1936H10.1774H10.1612H10.145H10.1288H10.1126H10.0964H10.0802H10.064H10.0478H10.0316H10.0154H9.99915H9.98294H9.96674H9.95053H9.93433H9.91812H9.90192H9.88571H9.86951H9.8533H9.8371H9.82089H9.80469H9.78848H9.77228H9.75607H9.73987H9.72366H9.70746H9.69125H9.67505H9.65884H9.64264H9.62643H9.61023H9.59402H9.57782H9.56161H9.54541H9.52921H9.513H9.4968H9.48059H9.46439H9.44818H9.43198H9.41577H9.39957H9.38336H9.36716H9.35095H9.33475H9.31854H9.30234H9.28613H9.26993H9.25372H9.23752H9.22131H9.20511H9.1889H9.1727H9.15649H9.14029H9.12408H9.10788H9.09167H9.07547H9.05927H9.04306H9.02686H9.01065H8.99445H8.97824H8.96204H8.94583H8.92963H8.91342H8.89722H8.88101H8.86481H8.8486H8.8324H8.81619H8.79999H8.78378H8.76758H8.75137H8.73517H8.71896H8.70276H8.68655H8.67035H8.65414H8.63794H8.62173H8.60553H8.58932H8.57312H8.55692H8.54071H8.52451H8.5083H8.4921H8.47589H8.45969H8.44348H8.42728H8.41107H8.39487H8.37866H8.36246H8.34625H8.33005H8.31384H8.29764H8.28143H8.26523H8.24902H8.23282H8.21661H8.20041H8.1842H8.168H8.15179H8.13559H8.11938H8.10318H8.08698H8.07077H8.05457H8.03836H8.02216H8.00595H7.98975H7.97354H7.95734H7.94113H7.92493H7.90872H7.89252H7.87631H7.86011H7.8439H7.8277H7.81149H7.79529H7.77908H7.76288H7.74667H7.73047H7.71426H7.69806H7.68185H7.66565H7.64944H7.63324H7.61703H7.60083H7.58463H7.56842H7.55222H7.53601H7.51981H7.5036H7.4874H7.47119H7.45499H7.43878H7.42258H7.40637H7.39017H7.37396H7.35776H7.34155H7.32535H7.30914H7.29294H7.27673H7.26053H7.24432H7.22812H7.21191H7.19571H7.1795H7.1633H7.14709H7.13089H7.11469H7.09848H7.08228H7.06607H7.04987H7.03366H7.01746H7.00125H6.98505H6.96884H6.95264H6.93643H6.92023H6.90402H6.88782H6.87161H6.85541H6.8392H6.823H6.80679H6.79059H6.77438H6.75818H6.74197H6.72577H6.70956H6.69336H6.67715H6.66095H6.64474H6.62854H6.61234H6.59613H6.57993H6.56372H6.54752H6.53131H6.51511H6.4989H6.4827H6.46649H6.45029H6.43408H6.41788H6.40167H6.38547H6.36926H6.35306H6.33685H6.32065H6.30444H6.28824H6.27203H6.25583H6.23962H6.22342H6.20721H6.19101H6.1748H6.1586H6.1424H6.12619H6.10999H6.09378H6.07758H6.06137H6.04517H6.02896H6.01276H5.99655H5.98035H5.96414H5.94794H5.93173H5.91553H5.89932H5.88312H5.86691H5.85071H5.8345H5.8183H5.80209H5.78589H5.76968H5.75348H5.73727H5.72107H5.70486H5.68866H5.67245H5.65625H5.64005H5.62384H5.60764H5.59143H5.57523H5.55902H5.54282H5.52661H5.51041H5.4942H5.478H5.46179H5.44559H5.42938H5.41318H5.39697H5.38077H5.36456H5.34836H5.33215H5.31595H5.29974H5.28354H5.26733H5.25113H5.23492H5.21872H5.20251H5.18631H5.1701H5.1539H5.1377H5.12149H5.10529H5.08908H5.07288H5.05667H5.04047H5.02426H5.00806H4.99185H4.97565H4.95944H4.94324H4.92703H4.91083H4.89462H4.87842H4.86221H4.84601H4.8298H4.8136H4.79739H4.78119H4.76498H4.74878H4.73257H4.71637H4.70016H4.68396H4.66776H4.65155H4.63535H4.61914H4.60294H4.58673H4.57053H4.55432H4.53812H4.52191H4.50571H4.4895H4.4733H4.45709H4.44089H4.42468H4.40848H4.39227H4.37607H4.35986H4.34366H4.32745H4.31125H4.29504H4.27884H4.26263H4.24643H4.23022H4.21402H4.19781H4.18161H4.16541H4.1492H4.133H4.11679H4.10059H4.08438H4.06818H4.05197H4.03577H4.01956H4.00336H3.98715H3.97095H3.95474H3.93854H3.92233H3.90613H3.88992H3.87372H3.85751H3.84131H3.8251H3.8089H3.79269H3.77649H3.76028H3.74408H3.72787H3.71167H3.69547H3.67926H3.66306H3.64685H3.63065H3.61444H3.59824H3.58203H3.56583H3.54962H3.53342H3.51721H3.50101H3.4848H3.4686H3.45239H3.43619H3.41998H3.40378H3.38757H3.37137H3.35516H3.33896H3.32275H3.30655H3.29034H3.27414H3.25793H3.24173H3.22552H3.20932H3.19312H3.17691H3.16071H3.1445H3.1283H3.11209H3.09589H3.07968H3.06348H3.04727H3.03107H3.01486H2.99866H2.98245H2.96625H2.95004H2.93384H2.91763H2.90143H2.88522H2.86902H2.85281H2.83661H2.8204H2.8042H2.78799H2.77179H2.75558H2.73938H2.72318H2.70697H2.69077H2.67456H2.65836H2.64215H2.62595H2.60974H2.59354H2.57733H2.56113H2.54492H2.52872H2.51251H2.49631H2.4801H2.4639H2.44769H2.43149H2.41528H2.39908H2.38287H2.36667H2.35046H2.33426H2.31805H2.30185H2.28564H2.26944H2.25323H2.23703H2.22083H2.20462H2.18842H2.17221H2.15601H2.1398H2.1236H2.10739H2.09119H2.07498H2.05878H2.04257H2.02637ZM2.38993 2.3071C2.40315 2.25879 2.42551 2.22497 2.45859 2.1995C4.94679 2.17787 7.43235 2.20035 9.91525 2.26695C9.94962 3.76191 9.94222 5.2551 9.89308 6.74653C7.39543 6.77621 4.89781 6.77617 2.40017 6.74641C2.39578 6.73696 2.39244 6.72664 2.39007 6.71517C2.35934 5.2458 2.3593 3.77646 2.38993 2.3071Z" fill="white" stroke="white" stroke-width="0.4"/>
<path opacity="0.982" d="M16.0108 0.3H15.981L15.9526 0.308647C15.1779 0.544147 14.6817 1.06731 14.481 1.85698L14.475 1.88041L14.4748 1.90458C14.4435 5.64008 14.4435 9.37554 14.4748 13.111L14.475 13.1341L14.4805 13.1565C14.5803 13.5681 14.7619 13.91 15.0321 14.1713C15.3023 14.4326 15.6498 14.6025 16.0641 14.6881L16.0829 14.692L16.1022 14.6922C18.8225 14.7235 21.5428 14.7235 24.2631 14.6922L24.2869 14.6919L24.31 14.686C25.0997 14.4853 25.6229 13.9891 25.8584 13.2144L25.867 13.186V13.1562V13.1342V13.1121V13.0901V13.068V13.0459V13.0239V13.0018V12.9797V12.9577V12.9356V12.9135V12.8915V12.8694V12.8474V12.8253V12.8032V12.7812V12.7591V12.737V12.715V12.6929V12.6708V12.6488V12.6267V12.6046V12.5826V12.5605V12.5385V12.5164V12.4943V12.4723V12.4502V12.4281V12.4061V12.384V12.3619V12.3399V12.3178V12.2957V12.2737V12.2516V12.2296V12.2075V12.1854V12.1634V12.1413V12.1192V12.0972V12.0751V12.053V12.031V12.0089V11.9869V11.9648V11.9427V11.9207V11.8986V11.8765V11.8545V11.8324V11.8103V11.7883V11.7662V11.7441V11.7221V11.7V11.678V11.6559V11.6338V11.6118V11.5897V11.5676V11.5456V11.5235V11.5014V11.4794V11.4573V11.4352V11.4132V11.3911V11.3691V11.347V11.3249V11.3029V11.2808V11.2587V11.2367V11.2146V11.1925V11.1705V11.1484V11.1263V11.1043V11.0822V11.0602V11.0381V11.016V10.994V10.9719V10.9498V10.9278V10.9057V10.8836V10.8616V10.8395V10.8174V10.7954V10.7733V10.7513V10.7292V10.7071V10.6851V10.663V10.6409V10.6189V10.5968V10.5747V10.5527V10.5306V10.5085V10.4865V10.4644V10.4424V10.4203V10.3982V10.3762V10.3541V10.332V10.31V10.2879V10.2658V10.2438V10.2217V10.1996V10.1776V10.1555V10.1335V10.1114V10.0893V10.0673V10.0452V10.0231V10.0011V9.97901V9.95694V9.93488V9.91282V9.89075V9.86869V9.84662V9.82456V9.80249V9.78043V9.75837V9.7363V9.71424V9.69217V9.67011V9.64804V9.62598V9.60392V9.58185V9.55979V9.53772V9.51566V9.4936V9.47153V9.44947V9.4274V9.40534V9.38327V9.36121V9.33914V9.31708V9.29502V9.27295V9.25089V9.22882V9.20676V9.1847V9.16263V9.14057V9.1185V9.09644V9.07437V9.05231V9.03025V9.00818V8.98612V8.96405V8.94199V8.91992V8.89786V8.8758V8.85373V8.83167V8.8096V8.78754V8.76547V8.74341V8.72135V8.69928V8.67722V8.65515V8.63309V8.61102V8.58896V8.5669V8.54483V8.52277V8.5007V8.47864V8.45658V8.43451V8.41245V8.39038V8.36832V8.34625V8.32419V8.30213V8.28006V8.258V8.23593V8.21387V8.1918V8.16974V8.14768V8.12561V8.10355V8.08148V8.05942V8.03735V8.01529V7.99323V7.97116V7.9491V7.92703V7.90497V7.8829V7.86084V7.83878V7.81671V7.79465V7.77258V7.75052V7.72846V7.70639V7.68433V7.66226V7.6402V7.61813V7.59607V7.57401V7.55194V7.52988V7.50781V7.48575V7.46368V7.44162V7.41956V7.39749V7.37543V7.35336V7.3313V7.30923V7.28717V7.26511V7.24304V7.22098V7.19891V7.17685V7.15478V7.13272V7.11066V7.08859V7.06653V7.04446V7.0224V7.00033V6.97827V6.95621V6.93414V6.91208V6.89001V6.86795V6.84588V6.82382V6.80176V6.77969V6.75763V6.73556V6.7135V6.69143V6.66937V6.64731V6.62524V6.60318V6.58111V6.55905V6.53699V6.51492V6.49286V6.47079V6.44873V6.42666V6.4046V6.38254V6.36047V6.33841V6.31634V6.29428V6.27221V6.25015V6.22809V6.20602V6.18396V6.16189V6.13983V6.11776V6.0957V6.07364V6.05157V6.02951V6.00744V5.98538V5.96331V5.94125V5.91919V5.89712V5.87506V5.85299V5.83093V5.80887V5.7868V5.76474V5.74267V5.72061V5.69854V5.67648V5.65442V5.63235V5.61029V5.58822V5.56616V5.54409V5.52203V5.49997V5.4779V5.45584V5.43377V5.41171V5.38964V5.36758V5.34552V5.32345V5.30139V5.27932V5.25726V5.23519V5.21313V5.19107V5.169V5.14694V5.12487V5.10281V5.08075V5.05868V5.03662V5.01455V4.99249V4.97042V4.94836V4.9263V4.90423V4.88217V4.8601V4.83804V4.81597V4.79391V4.77185V4.74978V4.72772V4.70565V4.68359V4.66153V4.63946V4.6174V4.59533V4.57327V4.5512V4.52914V4.50708V4.48501V4.46295V4.44088V4.41882V4.39675V4.37469V4.35263V4.33056V4.3085V4.28643V4.26437V4.24231V4.22024V4.19818V4.17611V4.15405V4.13198V4.10992V4.08786V4.06579V4.04373V4.02166V3.9996V3.97753V3.95547V3.93341V3.91134V3.88928V3.86721V3.84515V3.82309V3.80102V3.77896V3.75689V3.73483V3.71276V3.6907V3.66864V3.64657V3.62451V3.60244V3.58038V3.55831V3.53625V3.51419V3.49212V3.47006V3.44799V3.42593V3.40387V3.3818V3.35974V3.33767V3.31561V3.29354V3.27148V3.24942V3.22735V3.20529V3.18322V3.16116V3.1391V3.11703V3.09497V3.0729V3.05084V3.02877V3.00671V2.98465V2.96258V2.94052V2.91845V2.89639V2.87433V2.85226V2.8302V2.80813V2.78607V2.764V2.74194V2.71988V2.69781V2.67575V2.65368V2.63162V2.60956V2.58749V2.56543V2.54336V2.5213V2.49923V2.47717V2.45511V2.43304V2.41098V2.38891V2.36685V2.34479V2.32272V2.30066V2.27859V2.25653V2.23447V2.2124V2.19034V2.16827V2.14621V2.12414V2.10208V2.08002V2.05795V2.03589V2.01382V1.99176V1.9697V1.94763V1.92557V1.9035V1.88144V1.85938V1.83107L25.8591 1.80387C25.637 1.03476 25.1322 0.530043 24.3631 0.307857L24.3359 0.3H24.3076H24.2914H24.2752H24.259H24.2428H24.2266H24.2104H24.1942H24.178H24.1618H24.1456H24.1294H24.1132H24.097H24.0808H24.0646H24.0484H24.0321H24.0159H23.9997H23.9835H23.9673H23.9511H23.9349H23.9187H23.9025H23.8863H23.8701H23.8539H23.8377H23.8215H23.8053H23.7891H23.7729H23.7567H23.7405H23.7243H23.708H23.6918H23.6756H23.6594H23.6432H23.627H23.6108H23.5946H23.5784H23.5622H23.546H23.5298H23.5136H23.4974H23.4812H23.465H23.4488H23.4326H23.4164H23.4002H23.384H23.3677H23.3515H23.3353H23.3191H23.3029H23.2867H23.2705H23.2543H23.2381H23.2219H23.2057H23.1895H23.1733H23.1571H23.1409H23.1247H23.1085H23.0923H23.0761H23.0599H23.0437H23.0274H23.0112H22.995H22.9788H22.9626H22.9464H22.9302H22.914H22.8978H22.8816H22.8654H22.8492H22.833H22.8168H22.8006H22.7844H22.7682H22.752H22.7358H22.7196H22.7034H22.6871H22.6709H22.6547H22.6385H22.6223H22.6061H22.5899H22.5737H22.5575H22.5413H22.5251H22.5089H22.4927H22.4765H22.4603H22.4441H22.4279H22.4117H22.3955H22.3793H22.363H22.3468H22.3306H22.3144H22.2982H22.282H22.2658H22.2496H22.2334H22.2172H22.201H22.1848H22.1686H22.1524H22.1362H22.12H22.1038H22.0876H22.0714H22.0552H22.039H22.0227H22.0065H21.9903H21.9741H21.9579H21.9417H21.9255H21.9093H21.8931H21.8769H21.8607H21.8445H21.8283H21.8121H21.7959H21.7797H21.7635H21.7473H21.7311H21.7149H21.6987H21.6824H21.6662H21.65H21.6338H21.6176H21.6014H21.5852H21.569H21.5528H21.5366H21.5204H21.5042H21.488H21.4718H21.4556H21.4394H21.4232H21.407H21.3908H21.3746H21.3583H21.3421H21.3259H21.3097H21.2935H21.2773H21.2611H21.2449H21.2287H21.2125H21.1963H21.1801H21.1639H21.1477H21.1315H21.1153H21.0991H21.0829H21.0667H21.0505H21.0343H21.018H21.0018H20.9856H20.9694H20.9532H20.937H20.9208H20.9046H20.8884H20.8722H20.856H20.8398H20.8236H20.8074H20.7912H20.775H20.7588H20.7426H20.7264H20.7102H20.694H20.6777H20.6615H20.6453H20.6291H20.6129H20.5967H20.5805H20.5643H20.5481H20.5319H20.5157H20.4995H20.4833H20.4671H20.4509H20.4347H20.4185H20.4023H20.3861H20.3699H20.3536H20.3374H20.3212H20.305H20.2888H20.2726H20.2564H20.2402H20.224H20.2078H20.1916H20.1754H20.1592H20.143H20.1268H20.1106H20.0944H20.0782H20.062H20.0458H20.0296H20.0133H19.9971H19.9809H19.9647H19.9485H19.9323H19.9161H19.8999H19.8837H19.8675H19.8513H19.8351H19.8189H19.8027H19.7865H19.7703H19.7541H19.7379H19.7217H19.7055H19.6893H19.673H19.6568H19.6406H19.6244H19.6082H19.592H19.5758H19.5596H19.5434H19.5272H19.511H19.4948H19.4786H19.4624H19.4462H19.43H19.4138H19.3976H19.3814H19.3652H19.3489H19.3327H19.3165H19.3003H19.2841H19.2679H19.2517H19.2355H19.2193H19.2031H19.1869H19.1707H19.1545H19.1383H19.1221H19.1059H19.0897H19.0735H19.0573H19.0411H19.0249H19.0086H18.9924H18.9762H18.96H18.9438H18.9276H18.9114H18.8952H18.879H18.8628H18.8466H18.8304H18.8142H18.798H18.7818H18.7656H18.7494H18.7332H18.717H18.7008H18.6846H18.6683H18.6521H18.6359H18.6197H18.6035H18.5873H18.5711H18.5549H18.5387H18.5225H18.5063H18.4901H18.4739H18.4577H18.4415H18.4253H18.4091H18.3929H18.3767H18.3605H18.3442H18.328H18.3118H18.2956H18.2794H18.2632H18.247H18.2308H18.2146H18.1984H18.1822H18.166H18.1498H18.1336H18.1174H18.1012H18.085H18.0688H18.0526H18.0364H18.0202H18.0039H17.9877H17.9715H17.9553H17.9391H17.9229H17.9067H17.8905H17.8743H17.8581H17.8419H17.8257H17.8095H17.7933H17.7771H17.7609H17.7447H17.7285H17.7123H17.6961H17.6799H17.6636H17.6474H17.6312H17.615H17.5988H17.5826H17.5664H17.5502H17.534H17.5178H17.5016H17.4854H17.4692H17.453H17.4368H17.4206H17.4044H17.3882H17.372H17.3558H17.3396H17.3233H17.3071H17.2909H17.2747H17.2585H17.2423H17.2261H17.2099H17.1937H17.1775H17.1613H17.1451H17.1289H17.1127H17.0965H17.0803H17.0641H17.0479H17.0317H17.0155H16.9992H16.983H16.9668H16.9506H16.9344H16.9182H16.902H16.8858H16.8696H16.8534H16.8372H16.821H16.8048H16.7886H16.7724H16.7562H16.74H16.7238H16.7076H16.6914H16.6752H16.6589H16.6427H16.6265H16.6103H16.5941H16.5779H16.5617H16.5455H16.5293H16.5131H16.4969H16.4807H16.4645H16.4483H16.4321H16.4159H16.3997H16.3835H16.3673H16.3511H16.3349H16.3186H16.3024H16.2862H16.27H16.2538H16.2376H16.2214H16.2052H16.189H16.1728H16.1566H16.1404H16.1242H16.108H16.0918H16.0756H16.0594H16.0432H16.027H16.0108ZM16.4207 2.23662C16.4402 2.22281 16.4598 2.21059 16.4796 2.19986C18.9509 2.19232 21.4222 2.20007 23.8935 2.22308C23.8952 2.22398 23.8969 2.22492 23.8985 2.22589C23.9745 5.7199 23.9896 9.21657 23.9438 12.7158C23.9414 12.727 23.9381 12.7371 23.9338 12.7464C21.4369 12.7762 18.9401 12.7762 16.4432 12.7466C16.3909 9.24506 16.3834 5.74176 16.4207 2.23662Z" fill="white" stroke="white" stroke-width="0.4"/>
<path opacity="0.982" d="M10.3232 25.7H10.353L10.3814 25.6914C11.1561 25.4559 11.6523 24.9327 11.853 24.143L11.859 24.1196L11.8592 24.0954C11.8904 20.3599 11.8904 16.6245 11.8592 12.889L11.859 12.8659L11.8536 12.8436C11.7566 12.443 11.5808 12.1075 11.3201 11.8469C11.0595 11.5862 10.724 11.4104 10.3234 11.3134L10.3014 11.3081L10.2787 11.3078C7.54277 11.2766 4.80685 11.2766 2.07096 11.3078L2.0471 11.3081L2.02398 11.314C1.2343 11.5147 0.711139 12.0109 0.475639 12.7856L0.466992 12.814V12.8438V12.8658V12.8879V12.91V12.932V12.9541V12.9761V12.9982V13.0203V13.0423V13.0644V13.0865V13.1085V13.1306V13.1527V13.1747V13.1968V13.2189V13.2409V13.263V13.285V13.3071V13.3292V13.3512V13.3733V13.3954V13.4174V13.4395V13.4616V13.4836V13.5057V13.5277V13.5498V13.5719V13.5939V13.616V13.6381V13.6601V13.6822V13.7043V13.7263V13.7484V13.7705V13.7925V13.8146V13.8366V13.8587V13.8808V13.9028V13.9249V13.947V13.969V13.9911V14.0132V14.0352V14.0573V14.0794V14.1014V14.1235V14.1455V14.1676V14.1897V14.2117V14.2338V14.2559V14.2779V14.3V14.3221V14.3441V14.3662V14.3883V14.4103V14.4324V14.4544V14.4765V14.4986V14.5206V14.5427V14.5648V14.5868V14.6089V14.631V14.653V14.6751V14.6972V14.7192V14.7413V14.7633V14.7854V14.8075V14.8295V14.8516V14.8737V14.8957V14.9178V14.9399V14.9619V14.984V15.006V15.0281V15.0502V15.0722V15.0943V15.1164V15.1384V15.1605V15.1826V15.2046V15.2267V15.2488V15.2708V15.2929V15.3149V15.337V15.3591V15.3811V15.4032V15.4253V15.4473V15.4694V15.4915V15.5135V15.5356V15.5577V15.5797V15.6018V15.6238V15.6459V15.668V15.69V15.7121V15.7342V15.7562V15.7783V15.8004V15.8224V15.8445V15.8666V15.8886V15.9107V15.9327V15.9548V15.9769V15.9989V16.021V16.0431V16.0651V16.0872V16.1093V16.1313V16.1534V16.1755V16.1975V16.2196V16.2416V16.2637V16.2858V16.3078V16.3299V16.352V16.374V16.3961V16.4182V16.4402V16.4623V16.4844V16.5064V16.5285V16.5505V16.5726V16.5947V16.6167V16.6388V16.6609V16.6829V16.705V16.7271V16.7491V16.7712V16.7933V16.8153V16.8374V16.8594V16.8815V16.9036V16.9256V16.9477V16.9698V16.9918V17.0139V17.036V17.058V17.0801V17.1022V17.1242V17.1463V17.1683V17.1904V17.2125V17.2345V17.2566V17.2787V17.3007V17.3228V17.3449V17.3669V17.389V17.4111V17.4331V17.4552V17.4772V17.4993V17.5214V17.5434V17.5655V17.5876V17.6096V17.6317V17.6538V17.6758V17.6979V17.72V17.742V17.7641V17.7861V17.8082V17.8303V17.8523V17.8744V17.8965V17.9185V17.9406V17.9627V17.9847V18.0068V18.0288V18.0509V18.073V18.095V18.1171V18.1392V18.1612V18.1833V18.2054V18.2274V18.2495V18.2716V18.2936V18.3157V18.3377V18.3598V18.3819V18.4039V18.426V18.4481V18.4701V18.4922V18.5143V18.5363V18.5584V18.5805V18.6025V18.6246V18.6466V18.6687V18.6908V18.7128V18.7349V18.757V18.779V18.8011V18.8232V18.8452V18.8673V18.8894V18.9114V18.9335V18.9555V18.9776V18.9997V19.0217V19.0438V19.0659V19.0879V19.11V19.1321V19.1541V19.1762V19.1983V19.2203V19.2424V19.2644V19.2865V19.3086V19.3306V19.3527V19.3748V19.3968V19.4189V19.441V19.463V19.4851V19.5072V19.5292V19.5513V19.5733V19.5954V19.6175V19.6395V19.6616V19.6837V19.7057V19.7278V19.7499V19.7719V19.794V19.8161V19.8381V19.8602V19.8822V19.9043V19.9264V19.9484V19.9705V19.9926V20.0146V20.0367V20.0588V20.0808V20.1029V20.125V20.147V20.1691V20.1911V20.2132V20.2353V20.2573V20.2794V20.3015V20.3235V20.3456V20.3677V20.3897V20.4118V20.4339V20.4559V20.478V20.5V20.5221V20.5442V20.5662V20.5883V20.6104V20.6324V20.6545V20.6766V20.6986V20.7207V20.7428V20.7648V20.7869V20.8089V20.831V20.8531V20.8751V20.8972V20.9193V20.9413V20.9634V20.9855V21.0075V21.0296V21.0517V21.0737V21.0958V21.1178V21.1399V21.162V21.184V21.2061V21.2282V21.2502V21.2723V21.2944V21.3164V21.3385V21.3606V21.3826V21.4047V21.4267V21.4488V21.4709V21.4929V21.515V21.5371V21.5591V21.5812V21.6033V21.6253V21.6474V21.6694V21.6915V21.7136V21.7356V21.7577V21.7798V21.8018V21.8239V21.846V21.868V21.8901V21.9122V21.9342V21.9563V21.9783V22.0004V22.0225V22.0445V22.0666V22.0887V22.1107V22.1328V22.1549V22.1769V22.199V22.2211V22.2431V22.2652V22.2872V22.3093V22.3314V22.3534V22.3755V22.3976V22.4196V22.4417V22.4638V22.4858V22.5079V22.53V22.552V22.5741V22.5961V22.6182V22.6403V22.6623V22.6844V22.7065V22.7285V22.7506V22.7727V22.7947V22.8168V22.8389V22.8609V22.883V22.905V22.9271V22.9492V22.9712V22.9933V23.0154V23.0374V23.0595V23.0816V23.1036V23.1257V23.1477V23.1698V23.1919V23.2139V23.236V23.2581V23.2801V23.3022V23.3243V23.3463V23.3684V23.3905V23.4125V23.4346V23.4566V23.4787V23.5008V23.5228V23.5449V23.567V23.589V23.6111V23.6332V23.6552V23.6773V23.6994V23.7214V23.7435V23.7655V23.7876V23.8097V23.8317V23.8538V23.8759V23.8979V23.92V23.9421V23.9641V23.9862V24.0083V24.0303V24.0524V24.0744V24.0965V24.1186V24.1406V24.1689L0.474849 24.1961C0.697036 24.9653 1.20175 25.47 1.97086 25.6922L1.99806 25.7H2.02637H2.04257H2.05878H2.07498H2.09119H2.10739H2.1236H2.1398H2.15601H2.17221H2.18842H2.20462H2.22083H2.23703H2.25323H2.26944H2.28564H2.30185H2.31805H2.33426H2.35046H2.36667H2.38287H2.39908H2.41528H2.43149H2.44769H2.4639H2.4801H2.49631H2.51251H2.52872H2.54492H2.56113H2.57733H2.59354H2.60974H2.62595H2.64215H2.65836H2.67456H2.69077H2.70697H2.72318H2.73938H2.75558H2.77179H2.78799H2.8042H2.8204H2.83661H2.85281H2.86902H2.88522H2.90143H2.91763H2.93384H2.95004H2.96625H2.98245H2.99866H3.01486H3.03107H3.04727H3.06348H3.07968H3.09589H3.11209H3.1283H3.1445H3.16071H3.17691H3.19312H3.20932H3.22552H3.24173H3.25793H3.27414H3.29034H3.30655H3.32275H3.33896H3.35516H3.37137H3.38757H3.40378H3.41998H3.43619H3.45239H3.4686H3.4848H3.50101H3.51721H3.53342H3.54962H3.56583H3.58203H3.59824H3.61444H3.63065H3.64685H3.66306H3.67926H3.69547H3.71167H3.72787H3.74408H3.76028H3.77649H3.79269H3.8089H3.8251H3.84131H3.85751H3.87372H3.88992H3.90613H3.92233H3.93854H3.95474H3.97095H3.98715H4.00336H4.01956H4.03577H4.05197H4.06818H4.08438H4.10059H4.11679H4.133H4.1492H4.16541H4.18161H4.19781H4.21402H4.23022H4.24643H4.26263H4.27884H4.29504H4.31125H4.32745H4.34366H4.35986H4.37607H4.39227H4.40848H4.42468H4.44089H4.45709H4.4733H4.4895H4.50571H4.52191H4.53812H4.55432H4.57053H4.58673H4.60294H4.61914H4.63535H4.65155H4.66776H4.68396H4.70016H4.71637H4.73257H4.74878H4.76498H4.78119H4.79739H4.8136H4.8298H4.84601H4.86221H4.87842H4.89462H4.91083H4.92703H4.94324H4.95944H4.97565H4.99185H5.00806H5.02426H5.04047H5.05667H5.07288H5.08908H5.10529H5.12149H5.1377H5.1539H5.1701H5.18631H5.20251H5.21872H5.23492H5.25113H5.26733H5.28354H5.29974H5.31595H5.33215H5.34836H5.36456H5.38077H5.39697H5.41318H5.42938H5.44559H5.46179H5.478H5.4942H5.51041H5.52661H5.54282H5.55902H5.57523H5.59143H5.60764H5.62384H5.64005H5.65625H5.67245H5.68866H5.70486H5.72107H5.73727H5.75348H5.76968H5.78589H5.80209H5.8183H5.8345H5.85071H5.86691H5.88312H5.89932H5.91553H5.93173H5.94794H5.96414H5.98035H5.99655H6.01276H6.02896H6.04517H6.06137H6.07758H6.09378H6.10999H6.12619H6.1424H6.1586H6.1748H6.19101H6.20721H6.22342H6.23962H6.25583H6.27203H6.28824H6.30444H6.32065H6.33685H6.35306H6.36926H6.38547H6.40167H6.41788H6.43408H6.45029H6.46649H6.4827H6.4989H6.51511H6.53131H6.54752H6.56372H6.57993H6.59613H6.61234H6.62854H6.64474H6.66095H6.67715H6.69336H6.70956H6.72577H6.74197H6.75818H6.77438H6.79059H6.80679H6.823H6.8392H6.85541H6.87161H6.88782H6.90402H6.92023H6.93643H6.95264H6.96884H6.98505H7.00125H7.01746H7.03366H7.04987H7.06607H7.08228H7.09848H7.11469H7.13089H7.14709H7.1633H7.1795H7.19571H7.21191H7.22812H7.24432H7.26053H7.27673H7.29294H7.30914H7.32535H7.34155H7.35776H7.37396H7.39017H7.40637H7.42258H7.43878H7.45499H7.47119H7.4874H7.5036H7.51981H7.53601H7.55222H7.56842H7.58463H7.60083H7.61703H7.63324H7.64944H7.66565H7.68185H7.69806H7.71426H7.73047H7.74667H7.76288H7.77908H7.79529H7.81149H7.8277H7.8439H7.86011H7.87631H7.89252H7.90872H7.92493H7.94113H7.95734H7.97354H7.98975H8.00595H8.02216H8.03836H8.05457H8.07077H8.08698H8.10318H8.11938H8.13559H8.15179H8.168H8.1842H8.20041H8.21661H8.23282H8.24902H8.26523H8.28143H8.29764H8.31384H8.33005H8.34625H8.36246H8.37866H8.39487H8.41107H8.42728H8.44348H8.45969H8.47589H8.4921H8.5083H8.52451H8.54071H8.55692H8.57312H8.58932H8.60553H8.62173H8.63794H8.65414H8.67035H8.68655H8.70276H8.71896H8.73517H8.75137H8.76758H8.78378H8.79999H8.81619H8.8324H8.8486H8.86481H8.88101H8.89722H8.91342H8.92963H8.94583H8.96204H8.97824H8.99445H9.01065H9.02686H9.04306H9.05927H9.07547H9.09167H9.10788H9.12408H9.14029H9.15649H9.1727H9.1889H9.20511H9.22131H9.23752H9.25372H9.26993H9.28613H9.30234H9.31854H9.33475H9.35095H9.36716H9.38336H9.39957H9.41577H9.43198H9.44818H9.46439H9.48059H9.4968H9.513H9.52921H9.54541H9.56161H9.57782H9.59402H9.61023H9.62643H9.64264H9.65884H9.67505H9.69125H9.70746H9.72366H9.73987H9.75607H9.77228H9.78848H9.80469H9.82089H9.8371H9.8533H9.86951H9.88571H9.90192H9.91812H9.93433H9.95053H9.96674H9.98294H9.99915H10.0154H10.0316H10.0478H10.064H10.0802H10.0964H10.1126H10.1288H10.145H10.1612H10.1774H10.1936H10.2098H10.226H10.2422H10.2584H10.2746H10.2908H10.307H10.3232ZM2.39016 13.2876C2.39502 13.267 2.40163 13.2482 2.40997 13.231C4.90362 13.2237 7.39721 13.2314 9.89079 13.2538C9.94294 16.7452 9.95057 20.2384 9.91364 23.7335C7.42545 23.8073 4.93462 23.8219 2.44117 23.7773C2.43924 23.7763 2.43734 23.7752 2.43549 23.7741C2.35952 20.2812 2.34441 16.7857 2.39016 13.2876Z" fill="white" stroke="white" stroke-width="0.4"/>
<path opacity="0.98" d="M25.867 18.8438V18.814L25.8584 18.7856C25.6229 18.0109 25.0997 17.5147 24.31 17.314L24.2869 17.3081L24.263 17.3078C21.5272 17.2766 18.7912 17.2766 16.0553 17.3078L16.0326 17.3081L16.0106 17.3134C15.61 17.4104 15.2745 17.5862 15.0139 17.8469C14.7532 18.1075 14.5774 18.443 14.4804 18.8436L14.4752 18.865L14.4748 18.887C14.4435 20.6238 14.4435 22.3606 14.4748 24.0974L14.4753 24.1206L14.481 24.143C14.6817 24.9327 15.1779 25.4559 15.9526 25.6914L15.981 25.7H16.0108H16.027H16.0432H16.0594H16.0756H16.0918H16.108H16.1242H16.1404H16.1566H16.1728H16.189H16.2052H16.2214H16.2376H16.2538H16.27H16.2862H16.3024H16.3186H16.3349H16.3511H16.3673H16.3835H16.3997H16.4159H16.4321H16.4483H16.4645H16.4807H16.4969H16.5131H16.5293H16.5455H16.5617H16.5779H16.5941H16.6103H16.6265H16.6427H16.6589H16.6752H16.6914H16.7076H16.7238H16.74H16.7562H16.7724H16.7886H16.8048H16.821H16.8372H16.8534H16.8696H16.8858H16.902H16.9182H16.9344H16.9506H16.9668H16.983H16.9992H17.0155H17.0317H17.0479H17.0641H17.0803H17.0965H17.1127H17.1289H17.1451H17.1613H17.1775H17.1937H17.2099H17.2261H17.2423H17.2585H17.2747H17.2909H17.3071H17.3233H17.3396H17.3558H17.372H17.3882H17.4044H17.4206H17.4368H17.453H17.4692H17.4854H17.5016H17.5178H17.534H17.5502H17.5664H17.5826H17.5988H17.615H17.6312H17.6474H17.6636H17.6799H17.6961H17.7123H17.7285H17.7447H17.7609H17.7771H17.7933H17.8095H17.8257H17.8419H17.8581H17.8743H17.8905H17.9067H17.9229H17.9391H17.9553H17.9715H17.9877H18.0039H18.0202H18.0364H18.0526H18.0688H18.085H18.1012H18.1174H18.1336H18.1498H18.166H18.1822H18.1984H18.2146H18.2308H18.247H18.2632H18.2794H18.2956H18.3118H18.328H18.3442H18.3605H18.3767H18.3929H18.4091H18.4253H18.4415H18.4577H18.4739H18.4901H18.5063H18.5225H18.5387H18.5549H18.5711H18.5873H18.6035H18.6197H18.6359H18.6521H18.6683H18.6846H18.7008H18.717H18.7332H18.7494H18.7656H18.7818H18.798H18.8142H18.8304H18.8466H18.8628H18.879H18.8952H18.9114H18.9276H18.9438H18.96H18.9762H18.9924H19.0086H19.0249H19.0411H19.0573H19.0735H19.0897H19.1059H19.1221H19.1383H19.1545H19.1707H19.1869H19.2031H19.2193H19.2355H19.2517H19.2679H19.2841H19.3003H19.3165H19.3327H19.3489H19.3652H19.3814H19.3976H19.4138H19.43H19.4462H19.4624H19.4786H19.4948H19.511H19.5272H19.5434H19.5596H19.5758H19.592H19.6082H19.6244H19.6406H19.6568H19.673H19.6893H19.7055H19.7217H19.7379H19.7541H19.7703H19.7865H19.8027H19.8189H19.8351H19.8513H19.8675H19.8837H19.8999H19.9161H19.9323H19.9485H19.9647H19.9809H19.9971H20.0133H20.0296H20.0458H20.062H20.0782H20.0944H20.1106H20.1268H20.143H20.1592H20.1754H20.1916H20.2078H20.224H20.2402H20.2564H20.2726H20.2888H20.305H20.3212H20.3374H20.3536H20.3699H20.3861H20.4023H20.4185H20.4347H20.4509H20.4671H20.4833H20.4995H20.5157H20.5319H20.5481H20.5643H20.5805H20.5967H20.6129H20.6291H20.6453H20.6615H20.6777H20.694H20.7102H20.7264H20.7426H20.7588H20.775H20.7912H20.8074H20.8236H20.8398H20.856H20.8722H20.8884H20.9046H20.9208H20.937H20.9532H20.9694H20.9856H21.0018H21.018H21.0343H21.0505H21.0667H21.0829H21.0991H21.1153H21.1315H21.1477H21.1639H21.1801H21.1963H21.2125H21.2287H21.2449H21.2611H21.2773H21.2935H21.3097H21.3259H21.3421H21.3583H21.3746H21.3908H21.407H21.4232H21.4394H21.4556H21.4718H21.488H21.5042H21.5204H21.5366H21.5528H21.569H21.5852H21.6014H21.6176H21.6338H21.65H21.6662H21.6824H21.6987H21.7149H21.7311H21.7473H21.7635H21.7797H21.7959H21.8121H21.8283H21.8445H21.8607H21.8769H21.8931H21.9093H21.9255H21.9417H21.9579H21.9741H21.9903H22.0065H22.0227H22.039H22.0552H22.0714H22.0876H22.1038H22.12H22.1362H22.1524H22.1686H22.1848H22.201H22.2172H22.2334H22.2496H22.2658H22.282H22.2982H22.3144H22.3306H22.3468H22.363H22.3793H22.3955H22.4117H22.4279H22.4441H22.4603H22.4765H22.4927H22.5089H22.5251H22.5413H22.5575H22.5737H22.5899H22.6061H22.6223H22.6385H22.6547H22.6709H22.6871H22.7034H22.7196H22.7358H22.752H22.7682H22.7844H22.8006H22.8168H22.833H22.8492H22.8654H22.8816H22.8978H22.914H22.9302H22.9464H22.9626H22.9788H22.995H23.0112H23.0274H23.0437H23.0599H23.0761H23.0923H23.1085H23.1247H23.1409H23.1571H23.1733H23.1895H23.2057H23.2219H23.2381H23.2543H23.2705H23.2867H23.3029H23.3191H23.3353H23.3515H23.3677H23.384H23.4002H23.4164H23.4326H23.4488H23.465H23.4812H23.4974H23.5136H23.5298H23.546H23.5622H23.5784H23.5946H23.6108H23.627H23.6432H23.6594H23.6756H23.6918H23.708H23.7243H23.7405H23.7567H23.7729H23.7891H23.8053H23.8215H23.8377H23.8539H23.8701H23.8863H23.9025H23.9187H23.9349H23.9511H23.9673H23.9835H23.9997H24.0159H24.0321H24.0484H24.0646H24.0808H24.097H24.1132H24.1294H24.1456H24.1618H24.178H24.1942H24.2104H24.2266H24.2428H24.259H24.2752H24.2914H24.3076H24.3359L24.3631 25.6922C25.1322 25.47 25.637 24.9653 25.8591 24.1961L25.867 24.1689V24.1406V24.1303V24.1199V24.1096V24.0993V24.0889V24.0786V24.0682V24.0579V24.0475V24.0372V24.0268V24.0165V24.0061V23.9958V23.9855V23.9751V23.9648V23.9544V23.9441V23.9337V23.9234V23.913V23.9027V23.8923V23.882V23.8717V23.8613V23.851V23.8406V23.8303V23.8199V23.8096V23.7992V23.7889V23.7785V23.7682V23.7579V23.7475V23.7372V23.7268V23.7165V23.7061V23.6958V23.6854V23.6751V23.6647V23.6544V23.6441V23.6337V23.6234V23.613V23.6027V23.5923V23.582V23.5716V23.5613V23.5509V23.5406V23.5303V23.5199V23.5096V23.4992V23.4889V23.4785V23.4682V23.4578V23.4475V23.4371V23.4268V23.4165V23.4061V23.3958V23.3854V23.3751V23.3647V23.3544V23.344V23.3337V23.3233V23.313V23.3026V23.2923V23.282V23.2716V23.2613V23.2509V23.2406V23.2302V23.2199V23.2095V23.1992V23.1888V23.1785V23.1682V23.1578V23.1475V23.1371V23.1268V23.1164V23.1061V23.0957V23.0854V23.075V23.0647V23.0544V23.044V23.0337V23.0233V23.013V23.0026V22.9923V22.9819V22.9716V22.9612V22.9509V22.9406V22.9302V22.9199V22.9095V22.8992V22.8888V22.8785V22.8681V22.8578V22.8474V22.8371V22.8268V22.8164V22.8061V22.7957V22.7854V22.775V22.7647V22.7543V22.744V22.7336V22.7233V22.713V22.7026V22.6923V22.6819V22.6716V22.6612V22.6509V22.6405V22.6302V22.6198V22.6095V22.5992V22.5888V22.5785V22.5681V22.5578V22.5474V22.5371V22.5267V22.5164V22.5061V22.4957V22.4854V22.475V22.4647V22.4543V22.444V22.4336V22.4233V22.4129V22.4026V22.3923V22.3819V22.3716V22.3612V22.3509V22.3405V22.3302V22.3198V22.3095V22.2991V22.2888V22.2785V22.2681V22.2578V22.2474V22.2371V22.2267V22.2164V22.206V22.1957V22.1853V22.175V22.1647V22.1543V22.144V22.1336V22.1233V22.1129V22.1026V22.0922V22.0819V22.0715V22.0612V22.0509V22.0405V22.0302V22.0198V22.0095V21.9991V21.9888V21.9784V21.9681V21.9577V21.9474V21.9371V21.9267V21.9164V21.906V21.8957V21.8853V21.875V21.8646V21.8543V21.8439V21.8336V21.8233V21.8129V21.8026V21.7922V21.7819V21.7715V21.7612V21.7508V21.7405V21.7301V21.7198V21.7095V21.6991V21.6888V21.6784V21.6681V21.6577V21.6474V21.637V21.6267V21.6163V21.606V21.5957V21.5853V21.575V21.5646V21.5543V21.5439V21.5336V21.5232V21.5129V21.5025V21.4922V21.4819V21.4715V21.4612V21.4508V21.4405V21.4301V21.4198V21.4094V21.3991V21.3887V21.3784V21.3681V21.3577V21.3474V21.337V21.3267V21.3163V21.306V21.2956V21.2853V21.2749V21.2646V21.2543V21.2439V21.2336V21.2232V21.2129V21.2025V21.1922V21.1818V21.1715V21.1611V21.1508V21.1405V21.1301V21.1198V21.1094V21.0991V21.0887V21.0784V21.068V21.0577V21.0473V21.037V21.0267V21.0163V21.006V20.9956V20.9853V20.9749V20.9646V20.9542V20.9439V20.9335V20.9232V20.9129V20.9025V20.8922V20.8818V20.8715V20.8611V20.8508V20.8404V20.8301V20.8197V20.8094V20.7991V20.7887V20.7784V20.768V20.7577V20.7473V20.737V20.7266V20.7163V20.7059V20.6956V20.6853V20.6749V20.6646V20.6542V20.6439V20.6335V20.6232V20.6128V20.6025V20.5921V20.5818V20.5715V20.5611V20.5508V20.5404V20.5301V20.5197V20.5094V20.499V20.4887V20.4783V20.468V20.4577V20.4473V20.437V20.4266V20.4163V20.4059V20.3956V20.3852V20.3749V20.3645V20.3542V20.3439V20.3335V20.3232V20.3128V20.3025V20.2921V20.2818V20.2714V20.2611V20.2507V20.2404V20.2301V20.2197V20.2094V20.199V20.1887V20.1783V20.168V20.1576V20.1473V20.1369V20.1266V20.1163V20.1059V20.0956V20.0852V20.0749V20.0645V20.0542V20.0438V20.0335V20.0231V20.0128V20.0025V19.9921V19.9818V19.9714V19.9611V19.9507V19.9404V19.93V19.9197V19.9093V19.899V19.8887V19.8783V19.868V19.8576V19.8473V19.8369V19.8266V19.8162V19.8059V19.7955V19.7852V19.7749V19.7645V19.7542V19.7438V19.7335V19.7231V19.7128V19.7024V19.6921V19.6817V19.6714V19.6611V19.6507V19.6404V19.63V19.6197V19.6093V19.599V19.5886V19.5783V19.5679V19.5576V19.5473V19.5369V19.5266V19.5162V19.5059V19.4955V19.4852V19.4748V19.4645V19.4541V19.4438V19.4335V19.4231V19.4128V19.4024V19.3921V19.3817V19.3714V19.361V19.3507V19.3403V19.33V19.3197V19.3093V19.299V19.2886V19.2783V19.2679V19.2576V19.2472V19.2369V19.2265V19.2162V19.2059V19.1955V19.1852V19.1748V19.1645V19.1541V19.1438V19.1334V19.1231V19.1127V19.1024V19.0921V19.0817V19.0714V19.061V19.0507V19.0403V19.03V19.0196V19.0093V18.9989V18.9886V18.9783V18.9679V18.9576V18.9472V18.9369V18.9265V18.9162V18.9058V18.8955V18.8851V18.8748V18.8645V18.8541V18.8438ZM16.4205 19.2337C16.4212 19.2328 16.4219 19.2319 16.4226 19.231C18.9265 19.2237 21.4302 19.2313 23.934 19.2539C23.9384 19.2634 23.9417 19.2739 23.9441 19.2855C23.9885 20.784 23.9741 22.2798 23.9008 23.7728C23.8982 23.7744 23.8955 23.7758 23.8928 23.7773C21.399 23.8219 18.9078 23.8073 16.4193 23.7334C16.3908 22.2336 16.3912 20.7336 16.4205 19.2337Z" fill="white" stroke="white" stroke-width="0.4"/>
</g>
</svg>
