<svg width="22" height="22" viewBox="0 0 22 22" fill="none" xmlns="http://www.w3.org/2000/svg">
<path opacity="0.4" d="M10.9054 0.779893L10.9054 0.779057L10.8925 0.780537C10.2833 0.850558 9.79499 1.13896 9.43353 1.64137L9.42835 1.64857L9.42452 1.65656C8.6491 3.27505 7.84514 4.87618 7.01258 6.45997C5.3172 6.73193 3.61861 6.98727 1.91683 7.22609L1.91683 7.22609L1.91565 7.22627C1.44449 7.29812 1.05105 7.51489 0.739212 7.87453L0.734101 7.88042L0.729965 7.88704C0.49409 8.26444 0.373145 8.64695 0.373145 9.03323C0.373145 9.4195 0.49409 9.80201 0.729965 10.1794L0.736321 10.1896L0.744901 10.198L4.57997 13.9428C4.30626 15.7633 4.01284 17.5828 3.6997 19.4015L3.69683 19.4182L3.69961 19.4349C3.81257 20.1129 4.07027 20.6086 4.48753 20.899C4.90467 21.1894 5.46084 21.2604 6.1396 21.1338L6.15417 21.1311L6.16732 21.1243L10.9952 18.6201C12.5352 19.4128 14.0681 20.217 15.594 21.0326L15.5938 21.0329L15.601 21.036C16.0729 21.2424 16.5526 21.2747 17.036 21.1314L17.0361 21.1317L17.0439 21.1287C17.438 20.9752 17.7405 20.7517 17.9438 20.4548C18.1472 20.1578 18.2461 19.7953 18.2463 19.373L18.2463 19.3652L18.2451 19.3574C17.9617 17.5517 17.6834 15.7468 17.4102 13.9427L19.3094 12.0883L21.2452 10.198L21.2524 10.191L21.258 10.1827C21.407 9.96387 21.5178 9.72633 21.5904 9.47047L21.5912 9.47069L21.5931 9.45795C21.6719 8.93041 21.6092 8.47731 21.3935 8.10709C21.1778 7.73672 20.8165 7.46187 20.3222 7.27701L20.3125 7.27338L20.3022 7.27182L14.9598 6.45687L14.8812 6.37821C14.0865 4.72861 13.2686 3.09306 12.4275 1.47153L12.4213 1.45954L12.4121 1.44963C12.0075 1.01259 11.5032 0.788541 10.9054 0.779893ZM13.4331 7.30049L13.4327 7.30068L13.4375 7.30866C13.7086 7.75549 14.1037 8.03755 14.6173 8.15154L14.6173 8.15178L14.6242 8.15281C16.2787 8.40004 17.9339 8.64298 19.5896 8.88168L19.5896 8.88213L19.5991 8.88259C19.7097 8.88788 19.8117 8.915 19.9061 8.9639C19.9174 9.01486 19.9163 9.06525 19.9028 9.11633L16.0495 12.8789L16.0431 12.8852L16.0379 12.8925C15.7301 13.3249 15.6177 13.8069 15.7018 14.3327L15.7018 14.3332C15.9793 16.0206 16.2734 17.7031 16.5843 19.3808C16.5488 19.4454 16.5004 19.4958 16.438 19.5333C14.8787 18.7197 13.323 17.9005 11.7708 17.0755L11.7709 17.0752L11.7639 17.0722C11.2525 16.8484 10.7376 16.8484 10.2262 17.0722L10.2261 17.0719L10.2191 17.0756C8.69537 17.8906 7.16446 18.6939 5.62641 19.4857C5.58597 19.4991 5.554 19.5 5.52798 19.494C5.50672 19.4891 5.48451 19.4785 5.46138 19.4589C5.44029 19.3463 5.44227 19.234 5.46732 19.1213L5.46742 19.1214L5.46821 19.1168C5.74647 17.5233 6.0198 15.9288 6.28821 14.3335L6.28823 14.3336L6.28853 14.3315C6.36553 13.8076 6.25338 13.3265 5.95291 12.8935L5.94746 12.8856L5.94061 12.8789L2.08619 9.1152C2.07077 9.06417 2.07237 9.02803 2.08098 9.00219C2.08936 8.97704 2.10818 8.95029 2.1478 8.92418L7.36573 8.15284L7.36576 8.15306L7.37228 8.15165C7.88421 8.04072 8.27938 7.75832 8.55253 7.30872L8.5529 7.30895L8.55701 7.3005C9.3338 5.70192 10.1221 4.11 10.9219 2.52477C10.9777 2.52432 11.0309 2.53359 11.082 2.5524C11.8779 4.12957 12.6616 5.71227 13.4331 7.30049Z" fill="white" stroke="white" stroke-width="0.2"/>
</svg>
