<svg width="108" height="88" viewBox="0 0 108 88" fill="none" xmlns="http://www.w3.org/2000/svg">
<path d="M72.8677 6.48283C72.6519 6.43012 72.4395 6.36424 72.2317 6.28556C72.1522 6.25607 72.0681 6.24109 71.9834 6.24134C71.8646 6.24265 71.7483 6.27503 71.6459 6.33527C71.5435 6.39551 71.4587 6.4815 71.3999 6.58469C71.3411 6.68788 71.3103 6.80468 71.3106 6.92345C71.311 7.04223 71.3424 7.15885 71.4018 7.26171C72.0703 8.33661 73.0639 9.17056 74.2384 9.64255C74.1834 10.0347 74.155 10.4302 74.1534 10.8262V10.8534C73.8829 10.9986 73.6451 11.198 73.4549 11.4391C73.2648 11.6802 73.1262 11.9578 73.048 12.2547C72.8458 12.9847 72.8683 13.7587 73.1126 14.4757C73.5616 15.8532 74.6567 16.8157 75.7757 16.8157H75.8676C77.3369 19.3564 79.398 20.8563 81.4558 20.8563C83.5135 20.8563 85.5644 19.387 87.0474 16.8123C88.1153 16.7375 89.1391 15.7919 89.5711 14.4791C90.0404 13.037 89.6799 11.6221 88.7582 10.9894V10.8296C88.7552 9.70304 88.5237 8.5888 88.0779 7.55422C87.2174 5.00331 85.5304 3.54759 82.9285 3.11224C82.4405 3.00385 81.9421 2.94911 81.4422 2.94898C81.3673 2.94898 81.2891 2.94898 81.2143 2.94898H80.9354C79.9796 2.94898 79.0375 3.0306 78.1226 3.10543C77.3301 3.17345 76.5784 3.23808 75.9186 3.23808H75.8132C72.8677 3.20747 72.7521 1.38782 72.7351 1.18034C72.7356 1.00898 72.6715 0.843722 72.5554 0.717607C72.4394 0.591492 72.2801 0.51381 72.1092 0.500101H72.0548C71.8942 0.497333 71.7379 0.551475 71.6134 0.652942C71.4889 0.754409 71.4043 0.896658 71.3746 1.0545C71.0345 2.94217 71.2828 4.49992 72.1365 5.67674C72.3468 5.97399 72.5923 6.24466 72.8677 6.48283Z" fill="white"/>
<path d="M107.85 49.6578C107.85 49.4095 107.85 49.1068 101.874 35.6244C101.831 35.5274 101.765 35.4418 101.683 35.3744C101.601 35.3071 101.505 35.2599 101.401 35.2367C101.351 35.23 101.301 35.23 101.251 35.2367C101.123 35.2356 100.997 35.271 100.887 35.3387L101.122 35.1414C101.233 35.0459 101.31 34.9172 101.342 34.7745C101.374 34.6317 101.359 34.4825 101.299 34.349C98.9623 29.0771 96.8502 24.3664 96.8297 24.3188C96.7634 24.1723 96.6496 24.0524 96.5066 23.9787C96.3774 23.9175 93.3027 22.4311 88.3437 21.625C88.3075 21.6216 88.2711 21.6216 88.2349 21.625C88.0878 21.626 87.9451 21.6746 87.828 21.7635C87.7108 21.8524 87.6257 21.9768 87.5853 22.1182C87.5847 21.9748 87.5409 21.8349 87.4594 21.7169C87.4047 21.6405 87.3347 21.5763 87.2539 21.5283C87.1731 21.4803 87.0833 21.4495 86.99 21.438C85.5231 21.2539 84.0468 21.154 82.5685 21.1387C82.5685 21.1387 81.3576 21.1387 80.3781 21.1387H79.5074C79.3847 21.139 79.2621 21.1458 79.1401 21.1591C77.9326 21.1863 76.7082 21.2781 75.5008 21.421C75.3377 21.4398 75.1869 21.517 75.0763 21.6382C74.9656 21.7595 74.9026 21.9167 74.8988 22.0808C74.8715 23.4175 75.545 24.8324 76.8034 26.067C78.2319 27.4683 80.089 28.305 81.7726 28.305C81.8984 28.305 82.0243 28.305 82.1501 28.288C81.9971 28.288 81.8406 28.3118 81.6842 28.3118C81.156 28.3111 80.6306 28.2367 80.123 28.0907C77.6367 27.3833 74.9396 24.8766 74.8885 22.2747C74.8885 22.0943 74.8169 21.9212 74.6893 21.7937C74.5617 21.6661 74.3887 21.5944 74.2083 21.5944H74.1029C69.0487 22.3937 65.9093 23.9073 65.7801 23.9753C65.6368 24.0486 65.5229 24.1686 65.457 24.3154L61.1715 33.7231C61.1173 33.8436 61.0995 33.9772 61.12 34.1077C61.1405 34.2381 61.1986 34.3598 61.2871 34.4578C61.3857 34.5734 61.4912 34.6823 61.5932 34.7979C61.4676 34.6837 61.3038 34.6207 61.1341 34.6211H61.0524C60.9461 34.6334 60.8442 34.6706 60.7549 34.7297C60.6657 34.7888 60.5916 34.8681 60.5388 34.9612C59.43 37.0019 57.9131 39.8487 56.6411 42.42C54.9881 40.2909 52.131 37.9474 48.138 35.4305C48.6951 34.3522 49.1704 33.2334 49.5597 32.0838C49.5911 31.9842 49.5992 31.8788 49.5834 31.7757C49.5675 31.6726 49.5281 31.5744 49.4683 31.4889C49.4085 31.4035 49.3298 31.3329 49.2383 31.2827C49.1468 31.2325 49.045 31.204 48.9407 31.1994C48.6278 31.1994 41.22 30.7709 40.7778 24.5501C40.6282 22.4821 40.8867 19.6557 41.1383 16.9246C41.5975 11.9214 42.0295 7.20051 40.3493 5.36046C40.1142 5.09777 39.8249 4.88933 39.5013 4.74955C39.1777 4.60978 38.8276 4.54201 38.4752 4.55097C38.0848 4.5556 37.6973 4.61866 37.3256 4.73804C34.523 5.58834 33.1659 8.08143 32.5401 9.83985C32.387 9.81657 32.2324 9.8052 32.0775 9.80584C31.7231 9.80543 31.3711 9.86523 31.0367 9.9827C30.2619 9.62639 29.4309 9.40771 28.5811 9.33647C28.394 9.31947 28.2001 9.30927 28.0097 9.30927C27.0186 9.3118 26.0417 9.54468 25.1561 9.98951C24.9485 9.90843 24.7331 9.84915 24.5132 9.81264C24.3479 9.78554 24.1807 9.7719 24.0132 9.77183C23.9044 9.77183 23.7956 9.77182 23.6901 9.78883C23.1289 8.17325 21.7752 5.44209 18.8638 4.55778C18.4905 4.44 18.1022 4.37698 17.7108 4.3707C17.3585 4.36221 17.0085 4.43018 16.685 4.56992C16.3615 4.70967 16.0721 4.91787 15.8367 5.18019C14.1565 7.02365 14.5885 11.7479 15.0477 16.7443C15.2993 19.4653 15.5578 22.3019 15.4082 24.3732C14.9626 30.594 7.55479 31.0056 7.24528 31.0192C7.13731 31.0238 7.032 31.054 6.93805 31.1075C6.84411 31.1609 6.76424 31.2359 6.70507 31.3263C6.64589 31.4167 6.60911 31.52 6.59777 31.6274C6.58643 31.7349 6.60086 31.8435 6.63987 31.9443C7.17526 33.2805 7.83219 34.5648 8.60237 35.7809C3.48014 39.2331 0.643533 42.3214 0.174166 44.9641C-0.0129008 46.0185 0.762578 47.3994 7.65683 50.3551C11.4526 51.9774 15.9116 53.5624 19.1223 54.6508V54.6984C15.4082 58.052 8.08538 66.4292 11.9798 77.6872C12.0258 77.8211 12.1125 77.9373 12.2277 78.0196C12.3429 78.1019 12.481 78.1462 12.6226 78.1463L28.2682 77.9933L44.9341 78.1566C45.0757 78.1565 45.2138 78.1122 45.329 78.0298C45.4442 77.9475 45.5309 77.8313 45.5769 77.6974C49.2162 67.1366 42.924 59.069 39.2098 55.4467C43.492 54.0012 50.0699 51.6441 54.2194 49.515C54.8486 50.6272 57.6988 53.1679 70.6336 59.8274C70.4432 65.5891 70.2935 75.0751 70.2935 75.1737C70.2935 75.3541 70.3652 75.5271 70.4927 75.6547C70.6203 75.7822 70.7933 75.8539 70.9737 75.8539H91.8368C91.9278 75.854 92.018 75.8357 92.1019 75.8003C92.1858 75.7648 92.2617 75.7129 92.3251 75.6475C92.3886 75.5822 92.4382 75.5048 92.4712 75.4199C92.5042 75.335 92.5197 75.2443 92.517 75.1533L92.0646 59.4669C107.85 51.8924 107.85 50.3857 107.85 49.6578ZM94.8128 41.063L98.4215 46.5049C97.3163 47.1441 96.2673 47.8757 95.2856 48.6919C94.5849 49.2667 93.4387 50.2598 91.8844 51.6475V51.3958L93.5272 39.0801L94.0816 39.9201C94.1327 39.9978 94.1993 40.0641 94.2771 40.115C94.3549 40.1659 94.4423 40.2003 94.5339 40.216H94.6496C94.7683 40.217 94.8854 40.1877 94.9897 40.131C94.8447 40.2327 94.745 40.387 94.712 40.5611C94.679 40.7351 94.7152 40.9152 94.8128 41.063ZM66.9705 40.8487L66.7835 40.6446C66.9094 40.7608 67.0746 40.8252 67.246 40.8249H67.297C67.4006 40.8172 67.501 40.786 67.5907 40.7335C67.6803 40.681 67.7567 40.6087 67.814 40.5222L68.7596 39.0937L70.4874 52.1645C68.3378 50.3108 65.5828 47.8654 64.423 46.5491C64.3074 46.4164 64.1883 46.2906 64.0625 46.1716L67.0283 41.6888C67.1144 41.5626 67.1555 41.4111 67.1451 41.2587C67.1346 41.1063 67.0731 40.9619 66.9705 40.8487ZM41.2778 41.4745C41.8871 41.4335 42.4845 41.2861 43.043 41.0392C45.2334 42.5085 46.9204 43.7193 48.019 44.6036L47.7265 44.7125C45.1824 45.6614 40.5125 48.362 37.5229 50.1544C37.4606 49.8355 37.337 49.5317 37.1589 49.2599C37.6292 48.1245 38.2603 47.0626 39.033 46.1069C40.6316 44.6818 41.4138 43.5118 41.4138 42.5255C41.4035 42.1715 41.3579 41.8194 41.2778 41.4745ZM18.9761 47.1681C19.4335 47.714 19.8335 48.3055 20.1699 48.9333C17.272 47.2123 13.0614 44.8145 10.7111 43.937L10.422 43.8281C11.3982 43.0424 12.8471 41.9915 14.6973 40.7364C14.9985 40.7878 15.3034 40.8139 15.6089 40.8147H15.6735C15.497 41.3882 15.4009 41.9834 15.3878 42.5833C15.3878 44.1955 17.6054 46.1273 18.9761 47.1681ZM35.3325 29.0771C35.2453 28.9693 35.1262 28.892 34.9924 28.856C32.8311 28.3033 30.6078 28.0301 28.377 28.0431C26.3623 28.036 24.3532 28.255 22.3875 28.6962C22.2559 28.7298 22.1375 28.8021 22.0473 28.9036C21.9749 28.8796 21.8992 28.867 21.8229 28.8662C21.7619 28.8655 21.7012 28.8735 21.6426 28.89C21.2141 29.0057 20.7957 29.1349 20.3978 29.2778C20.3399 26.7677 20.1427 24.1249 19.9386 21.6591C20.3809 22.0764 20.9601 22.3182 21.5678 22.3393C21.6392 22.3393 21.714 22.3393 21.7855 22.3393C22.9317 24.9752 25.1356 27.7812 27.9723 27.7812C30.8089 27.7812 33.0299 24.9582 34.1829 22.2781C34.3429 22.3189 34.5075 22.3395 34.6726 22.3393C35.3135 22.3187 35.9221 22.0534 36.3732 21.5978C36.2236 24.0297 36.0773 26.6554 36.0501 29.1757L35.744 29.0771C35.679 29.0569 35.6114 29.0466 35.5433 29.0465C35.4718 29.0445 35.4005 29.0548 35.3325 29.0771ZM20.9181 15.1321C20.8419 15.4073 20.7817 15.6867 20.7379 15.9688C20.5426 15.9712 20.3487 16.0033 20.1631 16.0641C19.9276 16.1401 19.7092 16.2614 19.5202 16.4212C19.3978 14.5199 19.3638 12.9894 19.5713 12.5132C19.6439 12.3123 19.76 12.13 19.9114 11.9792C20.2038 12.2074 20.4371 12.5026 20.5916 12.8397C20.4542 13.6247 20.5685 14.433 20.9181 15.1491V15.1321ZM35.4549 15.9824C35.35 15.9831 35.2454 15.9922 35.142 16.0096C35.0903 15.6828 35.0199 15.3591 34.9311 15.0403C35.099 14.6968 35.2136 14.3298 35.2713 13.9519C35.2992 13.7821 35.3151 13.6104 35.3189 13.4383C35.7372 12.5642 36.0705 12.2411 36.1998 12.1697C36.3494 12.3218 36.4653 12.5038 36.5399 12.7037C36.7406 13.1628 36.7406 14.5981 36.6657 16.4042C36.4845 16.2618 36.2795 16.1524 36.0603 16.0811C35.8648 16.0174 35.6606 15.9841 35.4549 15.9824ZM82.3916 28.2268L82.242 28.2472L82.3916 28.2268Z" fill="white"/>
<path d="M23.377 11.3534C23.377 11.3534 22.5607 6.40127 18.6153 5.20744C12.6904 3.4048 16.5371 17.5028 16.0405 24.4209C15.544 31.3389 7.22461 31.6995 7.22461 31.6995C7.22461 31.6995 11.0374 41.5154 16.8262 39.978C22.6151 38.4407 17.7139 15.0607 18.935 12.2582C20.156 9.45556 21.69 13.7071 21.69 13.7071L23.377 11.3534Z" fill="white"/>
<path d="M32.7334 11.5302C32.7334 11.5302 33.5497 6.57465 37.4951 5.38082C43.4234 3.58158 39.5732 17.6796 40.0698 24.5943C40.5664 31.5089 48.8857 31.8729 48.8857 31.8729C48.8857 31.8729 45.5968 42.1853 39.8113 40.648C34.0259 39.1106 38.3998 15.2375 37.1788 12.4349C35.9577 9.63233 34.4204 13.8804 34.4204 13.8804L32.7334 11.5302Z" fill="white"/>
<path d="M26.551 13.8167C26.8122 12.2149 25.8351 10.7225 24.3686 10.4834C22.9021 10.2443 21.5016 11.349 21.2404 12.9508C20.9793 14.5527 21.9564 16.045 23.4229 16.2841C24.8894 16.5232 26.2899 15.4185 26.551 13.8167Z" fill="#FF0079"/>
<path d="M34.6204 13.8479C34.8815 12.2461 33.9044 10.7538 32.438 10.5147C30.9715 10.2756 29.5709 11.3803 29.3098 12.9821C29.0486 14.5839 30.0257 16.0763 31.4922 16.3154C32.9587 16.5545 34.3592 15.4498 34.6204 13.8479Z" fill="#FF0079"/>
<path d="M35.8561 16.734C35.6387 16.6724 35.4102 16.6606 35.1876 16.6995C34.965 16.7383 34.7541 16.8269 34.5704 16.9585C34.3697 13.1049 31.4923 10.0472 27.9687 10.0472C24.445 10.0472 21.6492 13.0233 21.3805 16.8088C21.062 16.6562 20.6976 16.6295 20.3602 16.734C19.4248 17.0367 19.0235 18.3734 19.4588 19.7169C19.8942 21.0604 21.0098 21.9039 21.9451 21.5977C22.03 21.5722 22.1121 21.5381 22.19 21.4957C23.3158 24.4616 25.4858 27.0975 27.9721 27.0975C30.4584 27.0975 32.7168 24.3765 33.8256 21.3325C33.9554 21.4517 34.1098 21.5411 34.2779 21.5944C35.2132 21.9005 36.3186 21.057 36.7642 19.7135C37.2098 18.37 36.7948 17.0299 35.8561 16.734Z" fill="#070036"/>
<path d="M21.333 16.8771C21.333 16.8771 29.768 18.3736 33.3257 13.2106C33.3257 13.2106 32.3291 10.3637 28.4858 10.0066C24.6424 9.6495 21.4384 13.3908 21.333 16.8771Z" fill="white"/>
<path d="M10.4727 44.573C9.95236 44.3792 9.4898 44.2329 9.07825 44.0867C10.17 43.0663 12.4386 41.4405 14.5202 40.0427C13.4624 38.3012 12.2788 36.6414 11.119 34.9714C6.3913 37.8999 1.46635 41.6922 0.864332 45.0764C0.320138 48.0253 22.53 55.0386 22.53 55.0386L22.6049 51.1952C22.6049 51.1952 14.1393 45.9403 10.4727 44.573Z" fill="#070036"/>
<path d="M57.5969 45.8484C57.0017 42.5254 52.2332 38.8045 47.5804 35.8965C46.0906 37.3454 44.6111 38.8011 43.1928 40.3181C45.4342 41.8146 48.1382 43.7023 49.3592 44.8587C48.9477 44.9913 48.4885 45.1512 47.9647 45.345C44.2982 46.7055 35.8496 51.9672 35.8496 51.9672L35.9244 55.8106C35.9244 55.8106 58.1207 48.7871 57.5969 45.8484Z" fill="#070036"/>
<path d="M22.53 29.3594C22.352 30.1485 22.263 30.9551 22.2647 31.764C22.2647 36.4067 25.1285 40.1888 28.6487 40.1888C32.169 40.1888 35.0362 36.4067 35.0362 31.764C35.0356 31.0074 34.9569 30.2529 34.8015 29.5124C32.6981 28.9748 30.5341 28.7107 28.363 28.7268C26.401 28.7159 24.4441 28.9282 22.53 29.3594Z" fill="#070036"/>
<path d="M36.1622 53.6984C35.05 50.2224 37.7335 46.6069 38.526 45.6409C39.5464 44.7498 40.713 43.4982 40.713 42.5322C40.713 40.8554 39.4715 38.7399 39.5464 37.9372C39.5578 37.8228 39.5759 37.7093 39.6008 37.5971L39.6892 38.0358C39.6892 38.0358 40.7538 38.7161 42.1993 39.6616C43.6006 38.1515 45.0665 36.7025 46.5461 35.2672C42.2095 32.6551 38.2573 30.8457 38.2573 30.8457V30.9001C37.3981 30.4063 36.4852 30.0126 35.5363 29.7267C35.6556 30.4004 35.7159 31.0832 35.7166 31.7674C35.7166 36.7808 32.5501 40.8622 28.6591 40.8622C24.7681 40.8622 21.6016 36.7808 21.6016 31.7674C21.601 31.023 21.6727 30.2803 21.8159 29.5498C21.2595 29.6973 20.7122 29.8767 20.1765 30.0872V30.0668L19.9112 30.1926C19.4675 30.3722 19.0357 30.5801 18.6187 30.8151C17.1154 31.5599 14.6869 32.815 12.0986 34.3659C13.255 36.0189 14.425 37.6651 15.4794 39.3895C16.1154 38.9644 16.7073 38.5766 17.2072 38.2501C17.0882 39.182 16.0678 41.0595 16.0678 42.5832C16.0678 44.0288 18.7242 46.1239 19.469 46.6647C20.5336 47.9299 22.4077 50.7019 21.4553 53.6814C21.4553 53.6814 7.74506 63.2048 12.6496 77.449L28.2952 77.296L44.9781 77.4592C49.8724 63.2354 36.1622 53.6984 36.1622 53.6984Z" fill="#FF0079"/>
<path d="M20.9214 50.7836C20.799 50.7836 21.0438 49.3313 21.6016 49.4231C22.1594 49.515 25.7137 51.8822 25.513 52.3652C25.3124 52.8482 24.7444 52.9298 24.2206 52.5658C23.6968 52.2019 21.9214 51.1543 21.9214 51.1543C21.9214 51.1543 25.2715 53.9774 25.1899 54.3005C25.1083 54.6236 24.5097 56.3582 23.7784 56.5997C23.0472 56.8412 20.9554 56.3174 20.0371 55.1066C19.1188 53.8957 20.9214 50.7836 20.9214 50.7836Z" fill="#070036"/>
<path d="M36.8664 50.7836C36.9855 50.7836 36.744 49.3313 36.1862 49.4231C35.6284 49.515 32.0741 51.8822 32.2748 52.3652C32.4754 52.8482 33.0401 52.9298 33.5672 52.5658C34.0944 52.2019 35.8631 51.1543 35.8631 51.1543C35.8631 51.1543 32.5163 53.9774 32.5979 54.3005C32.6795 54.6236 33.2781 56.3582 34.0094 56.5997C34.7407 56.8412 36.8324 56.3174 37.7507 55.1066C38.6691 53.8957 36.8664 50.7836 36.8664 50.7836Z" fill="#070036"/>
<path d="M81.4425 3.64624C77.7862 3.64624 74.8203 6.87059 74.8203 10.8466C74.8203 14.8226 77.7862 20.1931 81.4425 20.1931C85.0988 20.1931 88.0646 14.8226 88.0646 10.8466C88.0646 6.87059 85.1124 3.64624 81.4425 3.64624Z" fill="#070036"/>
<path d="M76.1448 16.0866C77.0468 15.7928 77.4361 14.5049 77.0144 13.21C76.5926 11.9151 75.5195 11.1035 74.6176 11.3973C73.7156 11.6911 73.3263 12.9789 73.748 14.2739C74.1698 15.5688 75.2428 16.3804 76.1448 16.0866Z" fill="#070036"/>
<path d="M88.9128 14.2894C89.3345 12.9944 88.9452 11.7066 88.0433 11.4128C87.1413 11.119 86.0682 11.9306 85.6464 13.2255C85.2247 14.5205 85.614 15.8083 86.516 16.1021C87.418 16.3959 88.4911 15.5843 88.9128 14.2894Z" fill="#070036"/>
<path d="M87.5685 8.20386C87.5685 8.20386 75.3241 12.503 71.9705 6.9216C71.9705 6.9216 74.314 7.84333 75.9772 7.08146C75.9772 7.08146 71.0318 6.75834 72.0556 1.21777C72.0556 1.21777 72.0556 3.90813 75.7969 3.93874C79.5382 3.96935 85.793 1.93883 87.5685 8.20386Z" fill="white"/>
<path d="M77.262 25.5569C79.1224 27.3799 82.1291 28.4887 84.3841 26.6759C85.7446 25.5807 86.5269 23.8563 86.8976 22.0944C85.4543 21.9138 84.0019 21.8161 82.5475 21.8019C82.5475 21.8019 79.1462 21.7713 79.1462 21.8019C77.8844 21.8325 76.6906 21.9244 75.5716 22.0604C75.5342 23.3971 76.3267 24.6351 77.262 25.5569Z" fill="#070036"/>
<path d="M107.169 49.6577C107.169 49.3176 104.129 42.3927 101.251 35.8998C99.3331 37.5426 97.3944 39.1616 95.3808 40.6853L99.3977 46.7633C98.0814 47.4466 96.8449 48.2736 95.7108 49.2292C94.7244 50.0387 92.966 51.5896 91.2348 53.1372L91.1838 51.372L93.0714 37.1991L94.636 39.5561C96.7107 37.9814 98.7174 36.3046 100.683 34.6074C98.3025 29.2777 96.2107 24.5806 96.2107 24.5806C96.2107 24.5806 93.1497 23.0841 88.2315 22.2882C88.0421 23.2011 87.7476 24.0891 87.354 24.9343C86.7678 26.2795 85.793 27.4189 84.5548 28.2063C83.8571 28.5997 83.0873 28.8483 82.2913 28.9371C81.4953 29.0259 80.6896 28.9532 79.9223 28.7233C77.2286 27.9546 74.2525 25.2438 74.1947 22.261C69.1847 23.0501 66.0624 24.5772 66.0624 24.5772L61.7769 33.985C62.3347 34.604 62.9163 35.206 63.4775 35.808C64.7938 37.1957 65.9536 38.7262 67.2392 40.1411L69.1847 37.1957L71.4023 53.8344C69.2562 52.008 65.3788 48.651 63.9197 46.9946C63.6939 46.7361 63.4445 46.4993 63.1748 46.2871L66.4672 41.3078C65.0795 39.8146 63.8482 38.1718 62.4435 36.6923C62.0014 36.2264 61.5524 35.757 61.1103 35.2774C58.6206 39.8724 54.75 47.2531 54.75 48.838C54.75 50.6917 66.4536 56.8921 71.3547 59.4056C71.154 65.1707 71.0146 75.1702 71.0146 75.1702H91.8776L91.415 59.0417C97.6358 56.0588 107.169 51.2325 107.169 49.6577Z" fill="#070036"/>
<path d="M53.1885 80.4863C53.2917 80.3416 53.3838 80.1892 53.464 80.0305C53.7656 79.5141 53.9273 78.928 53.9334 78.3299V76.0613C53.9316 75.0158 53.5159 74.0135 52.7772 73.2735C52.0386 72.5335 51.037 72.1161 49.9914 72.1125L46.4065 72.1329C46.1656 72.1347 45.9352 72.2315 45.7652 72.4021C45.5951 72.5728 45.4993 72.8036 45.4984 73.0445V81.374L44.0597 72.9526C44.0238 72.7417 43.9148 72.5502 43.7519 72.4115C43.589 72.2729 43.3825 72.1959 43.1686 72.1942L41.0054 72.1738C40.7892 72.172 40.5794 72.2469 40.4132 72.3851C40.247 72.5234 40.135 72.716 40.0973 72.9288L38.7164 80.7278V80.6462C38.7168 80.5262 38.6936 80.4073 38.648 80.2963C38.6024 80.1853 38.5353 80.0844 38.4506 79.9994C38.3659 79.9144 38.2653 79.847 38.1545 79.8009C38.0437 79.7549 37.9249 79.7312 37.8049 79.7312H34.4037C34.3233 79.7309 34.2433 79.7412 34.1656 79.7618V76.3606C34.1656 75.5818 34.3356 75.5818 34.4751 75.5818C34.7472 75.5818 34.8832 75.9797 34.8832 76.7586V77.9558C34.8841 78.1982 34.9808 78.4304 35.1522 78.6018C35.3236 78.7732 35.5558 78.8698 35.7982 78.8707H37.8185C37.9386 78.8711 38.0577 78.8475 38.1686 78.8014C38.2796 78.7553 38.3802 78.6875 38.4647 78.602C38.6351 78.4302 38.7305 78.1978 38.73 77.9558V75.8743C38.7291 75.3557 38.6261 74.8424 38.4268 74.3636C38.2275 73.8849 37.9359 73.4501 37.5686 73.084C37.2013 72.718 36.7655 72.4279 36.2861 72.2302C35.8066 72.0326 35.293 71.9314 34.7744 71.9323H34.2472C33.7289 71.925 33.2146 72.0235 32.7356 72.2217C32.2567 72.42 31.8232 72.7138 31.4616 73.0853C31.2559 73.2915 31.0735 73.5196 30.9174 73.7655V72.9798C30.9165 72.7375 30.8198 72.5053 30.6485 72.3339C30.4771 72.1625 30.2449 72.0658 30.0025 72.0649H27.972C27.7299 72.0658 27.4981 72.1626 27.3272 72.3341C27.1564 72.5056 27.0605 72.7378 27.0605 72.9798V82.8433C27.0605 83.6256 26.8836 83.6256 26.7407 83.6256C26.5333 83.6256 26.3394 83.6256 26.3394 82.8433V72.9798C26.3394 72.7378 26.2435 72.5056 26.0726 72.3341C25.9018 72.1626 25.6699 72.0658 25.4279 72.0649H23.3871C23.1451 72.0658 22.9132 72.1626 22.7424 72.3341C22.5715 72.5056 22.4756 72.7378 22.4756 72.9798V73.5342C22.356 73.3807 22.2277 73.2342 22.0913 73.0955C21.7282 72.7242 21.2935 72.4305 20.8135 72.2323C20.3335 72.0341 19.8182 71.9355 19.2989 71.9425H18.7887C17.742 71.9407 16.7374 72.3545 15.9957 73.093C15.254 73.8316 14.8358 74.8344 14.8331 75.8811V77.7381C14.8293 78.274 14.9441 78.8042 15.1693 79.2905C15.3946 79.7768 15.7246 80.2072 16.1358 80.5509C16.9267 81.2667 17.9567 81.661 19.0234 81.6563C19.2649 81.6563 19.4009 82.1325 19.4009 82.9624C19.4203 83.2463 19.3916 83.5315 19.3159 83.8059C19.3159 83.8229 19.2853 83.8637 19.0812 83.8637C18.9418 83.8637 18.9077 83.8297 18.8941 83.8161C18.8805 83.8025 18.6731 83.5508 18.6799 82.7039C18.6814 82.5837 18.659 82.4643 18.6141 82.3528C18.5691 82.2413 18.5025 82.1398 18.418 82.0543C18.246 81.8811 18.0124 81.7833 17.7683 81.7822H15.748C15.5056 81.7831 15.2735 81.8797 15.1021 82.0511C14.9307 82.2225 14.834 82.4547 14.8331 82.6971V83.5644C14.8385 84.61 15.2576 85.6108 15.9989 86.3482C16.7401 87.0857 17.7431 87.4996 18.7887 87.4996H19.3159C19.8352 87.5066 20.3505 87.408 20.8305 87.2098C21.3105 87.0116 21.7452 86.7179 22.1083 86.3466C22.4502 86.0102 22.7269 85.6135 22.9246 85.1766C23.1184 85.5424 23.3673 85.8762 23.6626 86.1663C24.0238 86.5353 24.4558 86.8273 24.9328 87.0249C25.4098 87.2225 25.9218 87.3215 26.438 87.3159H26.9618C27.4806 87.3229 27.9953 87.2242 28.4748 87.026C28.9542 86.8278 29.3884 86.5342 29.7508 86.1629C30.1117 85.8065 30.4004 85.3839 30.6011 84.9181C30.8005 85.3846 31.0894 85.8075 31.4514 86.1629C31.813 86.5344 32.2465 86.8282 32.7254 87.0265C33.2044 87.2247 33.7187 87.3232 34.237 87.3159H34.7744C35.2917 87.3235 35.8051 87.2251 36.283 87.0268C36.7609 86.8285 37.1931 86.5345 37.5532 86.1629C37.6416 86.0711 37.7266 85.9793 37.8049 85.884L37.7743 86.0643C37.7503 86.1956 37.7558 86.3305 37.7905 86.4594C37.8252 86.5882 37.8882 86.7077 37.9749 86.8092C38.0588 86.9138 38.1649 86.9986 38.2854 87.0574C38.406 87.1162 38.5381 87.1476 38.6722 87.1493H40.7673C40.9835 87.1498 41.1928 87.0735 41.3579 86.9339C41.523 86.7944 41.6332 86.6006 41.6686 86.3874L42.0462 84.163L42.4101 86.384C42.447 86.596 42.5578 86.7881 42.7227 86.9263C42.8877 87.0645 43.0962 87.1399 43.3114 87.1391H45.4032C45.5829 87.1389 45.7584 87.0843 45.9065 86.9826C46.056 87.0844 46.2325 87.1389 46.4133 87.1391H48.5153C48.7573 87.1382 48.9892 87.0414 49.16 86.8699C49.3309 86.6984 49.4268 86.4662 49.4268 86.2241V82.2379C49.6257 82.2382 49.8229 82.2751 50.0084 82.3468C50.1547 82.4318 50.2295 82.6529 50.2295 83.027V86.2377C50.2295 86.4798 50.3254 86.712 50.4963 86.8835C50.6671 87.055 50.8989 87.1518 51.141 87.1527H53.1613C53.404 87.1527 53.6367 87.0563 53.8083 86.8847C53.9799 86.7131 54.0763 86.4804 54.0763 86.2377V82.5372C54.0643 81.9203 53.8531 81.3237 53.4742 80.8366C53.3813 80.7119 53.286 80.5951 53.1885 80.4863ZM50.0798 76.5307V77.7892C50.1024 78.0406 50.0687 78.2938 49.9812 78.5306V78.5544C49.9178 78.5759 49.8506 78.5841 49.7839 78.5782H49.4438V75.7212H49.5254C49.6966 75.7118 49.8682 75.7325 50.0322 75.7824C50.0813 76.0286 50.0973 76.2803 50.0798 76.5307ZM34.805 83.476C34.7989 83.5096 34.7898 83.5426 34.7778 83.5746C34.7039 83.6063 34.6232 83.6191 34.5431 83.612C34.4071 83.612 34.3016 83.612 34.2336 83.4658C34.2834 83.4693 34.3334 83.4693 34.3833 83.4658L34.805 83.476ZM22.496 77.6463V79.6564C22.3364 79.4559 22.1601 79.2692 21.9688 79.0986C21.1889 78.3848 20.1691 77.9902 19.1118 77.9932C18.969 77.9932 18.9044 77.9932 18.8227 77.7415C18.7221 77.3035 18.682 76.8538 18.7037 76.4049C18.6809 76.1389 18.7146 75.8712 18.8023 75.6192C18.8023 75.6192 18.8431 75.5818 19.0234 75.5818C19.2581 75.5818 19.2853 75.643 19.3193 75.7144C19.4079 76.0527 19.4434 76.4026 19.4247 76.7518C19.4247 76.9935 19.5208 77.2254 19.6917 77.3963C19.8627 77.5673 20.0945 77.6633 20.3363 77.6633H22.377C22.4193 77.6606 22.4613 77.6549 22.5028 77.6463H22.496Z" fill="#070036"/>
<path d="M86.4493 83.3333C86.4409 83.0676 86.4512 82.8016 86.48 82.5374C86.48 82.5374 88.5207 74.5174 88.8846 72.9868C88.8645 72.8272 88.8022 72.6757 88.7043 72.548C88.6174 72.4408 88.5075 72.3546 88.3827 72.2957C88.2578 72.2368 88.1213 72.2068 87.9833 72.2079H85.8813C85.6738 72.2083 85.4726 72.2792 85.3107 72.409C85.1487 72.5387 85.0357 72.7197 84.9902 72.9222L84.6093 74.6466L84.2488 72.946C84.2046 72.7414 84.0918 72.558 83.9291 72.4262C83.7664 72.2945 83.5636 72.2222 83.3542 72.2215H81.2523C81.1142 72.2213 80.9779 72.2524 80.8536 72.3125C80.7293 72.3726 80.6203 72.4602 80.5348 72.5687C80.4493 72.6771 80.3895 72.8035 80.3601 72.9384C80.3306 73.0733 80.3321 73.2131 80.3646 73.3473L80.487 73.8575C80.3482 73.6584 80.1923 73.4718 80.0211 73.2997C79.6595 72.9269 79.2256 72.6318 78.7461 72.4324C78.2665 72.233 77.7514 72.1335 77.2321 72.1399H76.8035H73.6506C73.4094 72.1408 73.1785 72.2372 73.0082 72.4081C72.838 72.5789 72.7425 72.8103 72.7425 73.0514V81.6157L71.2595 72.9596C71.2236 72.7487 71.1147 72.5571 70.9518 72.4185C70.7888 72.2798 70.5824 72.2029 70.3684 72.2011L68.2053 72.1807C67.9893 72.1784 67.7796 72.2532 67.6138 72.3916C67.448 72.53 67.3369 72.7229 67.3005 72.9358L65.7734 81.5647C65.7344 81.0714 65.5869 80.5929 65.3414 80.1634C65.2671 80.0271 65.183 79.8964 65.0898 79.7722C65.1861 79.631 65.2724 79.4833 65.3482 79.3301C65.6133 78.8365 65.76 78.2881 65.7768 77.7281V76.0683C65.775 75.0222 65.3589 74.0193 64.6194 73.2793C63.88 72.5392 62.8775 72.1222 61.8314 72.1195H61.4028H58.2499C58.009 72.1213 57.7786 72.218 57.6086 72.3887C57.4385 72.5593 57.3427 72.7901 57.3418 73.031V86.2209C57.3418 86.4615 57.4362 86.6926 57.6047 86.8643C57.7733 87.0361 58.0025 87.1348 58.2431 87.1392H62.2021C62.6924 87.1595 63.1812 87.0723 63.6342 86.8837C64.0872 86.6951 64.4934 86.4097 64.8245 86.0474C64.8857 85.976 64.9469 85.9012 65.0047 85.8264L64.9605 86.0678C64.9377 86.1993 64.9439 86.3341 64.9787 86.4629C65.0134 86.5916 65.076 86.7112 65.1618 86.8133C65.2477 86.9154 65.3548 86.9974 65.4758 87.0537C65.5967 87.11 65.7284 87.1392 65.8618 87.1392H67.9536C68.1697 87.1398 68.3791 87.0634 68.5442 86.9239C68.7093 86.7843 68.8194 86.5906 68.8549 86.3774L69.2324 84.153L69.5964 86.374C69.6311 86.5878 69.7409 86.7823 69.9061 86.9226C70.0713 87.0628 70.281 87.1396 70.4977 87.1392H72.5894C72.7777 87.1402 72.9614 87.0806 73.1132 86.9692C73.2663 87.0806 73.451 87.1402 73.6404 87.1392H77.63C78.1198 87.1595 78.608 87.0722 79.0605 86.8836C79.5129 86.695 79.9186 86.4096 80.2489 86.0474C80.888 85.3132 81.2247 84.3639 81.1911 83.3911V81.7313C81.1801 81.1788 81.0292 80.6382 80.7523 80.16C80.6791 80.0237 80.5962 79.893 80.504 79.7688C80.5992 79.6275 80.6845 79.4798 80.7591 79.3267C81.0251 78.8333 81.173 78.2849 81.1911 77.7247V76.7043L82.5788 82.4864L82.5958 83.2313V86.2447C82.5967 86.4871 82.6934 86.7193 82.8647 86.8907C83.0361 87.0621 83.2683 87.1587 83.5107 87.1596H85.6126C85.8547 87.1587 86.0866 87.062 86.2574 86.8905C86.4283 86.719 86.5242 86.4868 86.5242 86.2447C86.5242 86.0883 86.5242 85.6597 86.4936 84.9353C86.463 84.2108 86.4493 83.687 86.4493 83.3333ZM61.1886 75.718H61.2532C61.4598 75.7085 61.6665 75.7326 61.8654 75.7894C61.917 76.033 61.9387 76.282 61.93 76.5309V77.1805C61.9457 77.4415 61.9135 77.7032 61.8348 77.9526C61.6591 78.0023 61.4764 78.023 61.294 78.0138H61.1886V75.718ZM61.8416 83.5952C61.7659 83.6289 61.6825 83.6418 61.6001 83.6326H61.1886V81.483H61.8688C61.9043 81.6748 61.9202 81.8697 61.9164 82.0646V82.8537C61.9418 83.1034 61.9164 83.3556 61.8416 83.5952ZM77.3273 82.8469C77.3462 83.0995 77.3173 83.3533 77.2423 83.5952C77.1663 83.6281 77.0832 83.641 77.0008 83.6326H76.5892V81.483H77.2695C77.3033 81.675 77.3182 81.8698 77.3137 82.0646L77.3273 82.8469ZM77.3273 77.1805C77.343 77.4415 77.3107 77.7032 77.2321 77.9526C77.0564 78.0027 76.8737 78.0233 76.6913 78.0138H76.5892V75.718H76.6539C76.8604 75.7088 77.0672 75.7329 77.2661 75.7894C77.314 76.0335 77.3345 76.2822 77.3273 76.5309V77.1805Z" fill="#070036"/>
<path d="M22.3668 76.7451H20.3261C20.3493 76.271 20.2882 75.7966 20.1458 75.3438C20.0524 75.1259 19.8927 74.9429 19.6894 74.8208C19.4861 74.6987 19.2495 74.6437 19.0132 74.6636C18.8109 74.6448 18.6075 74.6841 18.4267 74.7769C18.246 74.8696 18.0955 75.012 17.9928 75.1874C17.8346 75.5704 17.766 75.9846 17.7922 76.3982C17.7707 76.9404 17.8245 77.4829 17.952 78.0104C18.0101 78.2711 18.1583 78.503 18.3704 78.6653C18.5825 78.8277 18.845 78.9101 19.1118 78.8981C19.9467 78.8966 20.7512 79.2113 21.3634 79.779C21.6777 80.0364 21.9303 80.361 22.1028 80.7288C22.2752 81.0967 22.3631 81.4985 22.36 81.9047V83.5611C22.3653 83.9595 22.2887 84.3547 22.1348 84.7221C21.9809 85.0896 21.7531 85.4214 21.4655 85.6971C21.1871 85.9834 20.8531 86.2099 20.4841 86.3625C20.115 86.5152 19.7186 86.5908 19.3193 86.5848H18.7887C17.9838 86.5857 17.2114 86.267 16.6413 85.6988C16.0711 85.1306 15.7498 84.3593 15.748 83.5543V82.687H17.7684C17.7684 84.0679 18.2094 84.7584 19.0914 84.7584C19.3028 84.7786 19.5154 84.7358 19.7025 84.6353C19.8895 84.5348 20.0426 84.3812 20.1424 84.1938C20.2895 83.7938 20.351 83.3673 20.3227 82.9421C20.3227 81.4614 19.893 80.7211 19.0336 80.7211C18.1896 80.7263 17.3746 80.4129 16.7514 79.8436C16.4378 79.5858 16.1858 79.2611 16.0139 78.8933C15.8421 78.5255 15.7547 78.1238 15.7583 77.7179V75.8608C15.7663 75.0618 16.0889 74.2981 16.6562 73.7353C17.2234 73.1725 17.9896 72.8559 18.7887 72.8541H19.3159C20.1203 72.855 20.8917 73.1743 21.4614 73.7421C22.0312 74.3099 22.353 75.0802 22.3566 75.8846L22.3668 76.7451Z" fill="white"/>
<path d="M30.0129 83.3774C30.012 84.1805 29.6924 84.9505 29.1241 85.5181C28.5559 86.0857 27.7856 86.4045 26.9825 86.4045H26.4587C25.6574 86.3974 24.8909 86.0764 24.3236 85.5104C23.7564 84.9445 23.4337 84.1787 23.4248 83.3774V72.9663H25.4655V82.8298C25.4655 83.959 25.9009 84.5304 26.7784 84.5304C27.597 84.5304 28.0074 83.9636 28.0096 82.8298V72.9663H30.0129V83.3774Z" fill="white"/>
<path d="M37.8049 80.6462V83.3978C37.8048 83.7955 37.725 84.1891 37.5702 84.5554C37.4154 84.9216 37.1887 85.2532 36.9036 85.5304C36.6289 85.8169 36.298 86.0436 35.9317 86.1964C35.5653 86.3491 35.1713 86.4246 34.7745 86.4181H34.2473C33.4441 86.4181 32.6738 86.0993 32.1056 85.5317C31.5374 84.9641 31.2177 84.1942 31.2168 83.391V75.871C31.2177 75.0678 31.5374 74.2979 32.1056 73.7303C32.6738 73.1627 33.4441 72.8439 34.2473 72.8439H34.7745C35.5776 72.8457 36.3474 73.1655 36.9153 73.7335C37.4833 74.3014 37.8031 75.0712 37.8049 75.8744V77.9559H35.7948V76.7519C35.7948 75.3619 35.3538 74.6658 34.4718 74.6635C33.6555 74.6635 33.2473 75.2304 33.2473 76.3641V82.8434C33.2473 83.9726 33.6861 84.544 34.5602 84.544C34.7686 84.5663 34.9791 84.5274 35.1657 84.4319C35.3524 84.3365 35.5072 84.1887 35.6112 84.0066C35.7575 83.61 35.82 83.1873 35.7948 82.7652V82.5849H34.4003V80.6667L37.8049 80.6462Z" fill="white"/>
<path d="M45.4038 86.2209H43.3121L42.8223 83.2313H41.2748L40.768 86.2209H38.6729L40.9993 73.0854L43.159 73.1059L45.4038 86.2209ZM42.4924 81.1191L42.0707 77.9254L41.6455 81.1191H42.4924Z" fill="white"/>
<path d="M53.1611 86.2208H51.1408V83.0101C51.1408 82.2958 50.914 81.8106 50.4605 81.5544C49.9532 81.3439 49.402 81.261 48.8552 81.3129H48.515V86.2208H46.4131V73.0446H49.9912C50.7949 73.0464 51.5652 73.3667 52.1332 73.9354C52.7013 74.504 53.0207 75.2747 53.0216 76.0784V78.3471C53.0124 78.7965 52.887 79.2359 52.6577 79.6225C52.4779 80.0321 52.1551 80.3622 51.7496 80.551C52.1448 80.7436 52.4852 81.0325 52.7393 81.3911C53.0023 81.7229 53.1503 82.1311 53.1611 82.5543V86.2208ZM51.0013 77.7892V76.5308C51.0013 75.8676 50.9129 75.4254 50.7394 75.2111C50.5388 74.9254 50.0966 74.7894 49.4163 74.803H48.515V79.4729L49.7769 79.4933C49.9754 79.5163 50.1763 79.4806 50.3546 79.3905C50.533 79.3004 50.681 79.1599 50.7802 78.9865C50.9511 78.6116 51.027 78.2004 51.0013 77.7892Z" fill="white"/>
<path d="M64.8653 83.3978C64.8957 84.143 64.643 84.8721 64.1579 85.4386C63.9117 85.7043 63.6102 85.9127 63.2746 86.0491C62.939 86.1854 62.5775 86.2464 62.2158 86.2276H58.2432V73.0446H61.8178C62.6222 73.0455 63.3934 73.3654 63.9621 73.9342C64.5309 74.5029 64.8508 75.2741 64.8517 76.0784V77.7382C64.8309 78.1569 64.7145 78.5653 64.5116 78.932C64.3574 79.3017 64.083 79.6085 63.7327 79.8028C64.0736 79.9838 64.3495 80.2668 64.5218 80.6122C64.7294 80.9548 64.8465 81.3446 64.8619 81.7449L64.8653 83.3978ZM62.8246 77.1906V76.541C62.8246 75.8778 62.743 75.4356 62.5831 75.2213C62.3564 74.9492 61.9029 74.8132 61.2226 74.8132H60.2839V78.9389H61.1988C61.8791 78.9389 62.3076 78.8334 62.5253 78.5817C62.743 78.33 62.8416 77.8573 62.8416 77.1804L62.8246 77.1906ZM62.8246 82.857V82.068C62.8246 81.0714 62.5899 80.5748 62.1137 80.5748H60.2839V84.5339L61.607 84.5543C61.8102 84.5766 62.0156 84.5412 62.1997 84.4522C62.3838 84.3632 62.5391 84.2241 62.6477 84.0509C62.8056 83.6702 62.872 83.2578 62.8416 82.8468L62.8246 82.857Z" fill="white"/>
<path d="M72.6026 86.2209H70.5108L70.0211 83.2313H68.4769L67.9667 86.2209H65.875L68.198 73.0854L70.3612 73.1059L72.6026 86.2209ZM69.6946 81.1191L69.2694 77.9254L68.8443 81.1191H69.6946Z" fill="white"/>
<path d="M80.2619 83.3978C80.2936 84.1432 80.0407 84.8728 79.5544 85.4386C79.3088 85.7041 79.0078 85.9123 78.6728 86.0487C78.3378 86.185 77.9769 86.2461 77.6157 86.2276H73.6533V73.0446H77.2314C77.6296 73.0446 78.024 73.1231 78.3919 73.2756C78.7598 73.4281 79.094 73.6516 79.3755 73.9334C79.6569 74.2151 79.8801 74.5496 80.0322 74.9177C80.1843 75.2857 80.2623 75.6802 80.2619 76.0784V77.7382C80.241 78.1569 80.1247 78.5653 79.9217 78.932C79.7687 79.3024 79.494 79.6095 79.1429 79.8028C79.4845 79.9829 79.7606 80.2662 79.932 80.6122C80.1336 80.9564 80.2448 81.3461 80.2551 81.7449L80.2619 83.3978ZM78.2415 77.1906V76.541C78.2415 75.8778 78.1599 75.4356 77.9967 75.2213C77.779 74.9492 77.3164 74.8132 76.6532 74.8132H75.6736V78.9389H76.609C77.2892 78.9389 77.7144 78.8334 77.932 78.5817C78.1497 78.33 78.2415 77.8573 78.2415 77.1804V77.1906ZM78.2415 82.857V82.068C78.2415 81.0726 78.0035 80.5748 77.5273 80.5748H75.6736V84.5339L77.0001 84.5543C77.2028 84.5759 77.4075 84.5402 77.5909 84.4512C77.7743 84.3622 77.9291 84.2235 78.0375 84.0509C78.2008 83.6716 78.2708 83.2587 78.2415 82.8468V82.857Z" fill="white"/>
<path d="M87.9835 73.1057L85.6026 82.289C85.5468 82.6261 85.5263 82.968 85.5414 83.3093C85.5414 83.6733 85.5414 84.2073 85.572 84.9147C85.6026 85.6222 85.6026 86.0507 85.6026 86.197H83.5007V83.1665L83.4803 82.3196L81.2559 73.0819H83.3578L84.589 78.9762L85.8815 73.1159L87.9835 73.1057Z" fill="white"/>
</svg>
