<svg width="29" height="28" viewBox="0 0 29 28" fill="none" xmlns="http://www.w3.org/2000/svg">
<path d="M14.5 28C22.232 28 28.5 21.732 28.5 14C28.5 6.26803 22.232 0 14.5 0C6.76803 0 0.5 6.26803 0.5 14C0.5 21.732 6.76803 28 14.5 28Z" fill="url(#paint0_linear_208_10827)"/>
<path d="M5.71427 14.6849C7.35086 13.7834 9.17775 13.031 10.8847 12.2748C13.8213 11.0361 16.7696 9.81895 19.7476 8.68576C20.3271 8.49268 21.3681 8.30386 21.4702 9.16252C21.4143 10.378 21.1844 11.5863 21.0266 12.7946C20.6263 15.4518 20.1636 18.0999 19.7124 20.7483C19.5569 21.6305 18.4518 22.0872 17.7447 21.5227C16.0453 20.3748 14.3329 19.2381 12.6552 18.0636C12.1057 17.5052 12.6153 16.7033 13.1061 16.3045C14.5057 14.9252 15.9901 13.7532 17.3166 12.3026C17.6744 11.4385 16.6172 12.1667 16.2685 12.3899C14.3523 13.7103 12.4831 15.1114 10.4629 16.2718C9.43097 16.8399 8.22825 16.3544 7.1968 16.0375C6.27198 15.6546 4.91677 15.2688 5.71418 14.6849L5.71427 14.6849Z" fill="white"/>
<defs>
<linearGradient id="paint0_linear_208_10827" x1="11.0016" y1="1.1676" x2="4.00163" y2="17.5" gradientUnits="userSpaceOnUse">
<stop stop-color="#37AEE2"/>
<stop offset="1" stop-color="#1E96C8"/>
</linearGradient>
</defs>
</svg>
