<svg width="64" height="88" viewBox="0 0 64 88" fill="none" xmlns="http://www.w3.org/2000/svg">
<path d="M52.3476 53.0327C51.8599 50.2505 50.1022 47.356 49.1584 45.8018C48.9619 45.4755 48.8076 45.1913 48.7163 45.0475C47.9796 43.5985 47.7586 41.111 47.527 38.4797C47.2042 34.8274 46.8709 31.0523 45.1518 28.6561C44.1554 27.2527 43.0467 26.3475 41.8223 25.8493C40.861 20.5867 38.6647 9.02636 37.4823 5.79158C36.3175 2.63399 34.5844 2.17438 33.6511 2.17438C33.4792 2.1744 33.3077 2.19085 33.1389 2.22351C31.758 1.08442 30.0169 0.47379 28.2271 0.500863C26.594 0.488273 24.9922 0.948682 23.6151 1.82651C22.238 2.70433 21.1444 3.96204 20.4664 5.44776C18.7859 9.22986 17.3088 20.7621 16.7194 25.9616C15.1935 26.7514 13.8117 27.7928 12.6321 29.042C12.3348 29.3693 12.066 29.7215 11.8286 30.0945C11.5609 30.5469 11.2234 30.9543 10.8287 31.3014C6.46072 34.1749 2.96984 38.6692 2.33481 42.2232C1.90678 44.623 7.64306 46.935 19.0946 50.6435L20.312 51.0364L20.1156 51.3346C18.5508 52.6994 17.2351 58.9234 16.7264 64.5158C16.7264 64.6351 16.7264 64.7544 16.7018 64.8667C16.66 64.9557 16.6372 65.0525 16.6352 65.1509C16.6352 65.9157 16.6352 67.5225 16.7264 68.6909C16.7336 68.7765 16.7574 68.8599 16.7966 68.9364C16.9161 69.9064 17.1096 70.8659 17.3755 71.8064C17.4211 71.9818 17.5018 72.2905 17.5579 72.473C17.5564 72.487 17.5564 72.5011 17.5579 72.5151V72.5466C17.589 72.6329 17.6254 72.7173 17.6667 72.7992C17.9193 73.5009 18.1544 74.0518 18.2982 74.378L18.3999 74.6131C18.4397 74.7609 18.5267 74.8916 18.6477 74.9854C18.7687 75.0791 18.917 75.1307 19.07 75.1323H20.4734H20.6734H22.0592H22.4382H24.2274H24.8028L30.0059 75.1815C30.1772 75.1829 30.3431 75.1216 30.4724 75.0092C30.6016 74.8967 30.6853 74.7409 30.7075 74.571L30.9391 72.8168C30.9408 72.7852 30.9408 72.7536 30.9391 72.722C30.9391 72.6589 30.9391 72.6028 30.9637 72.5501C30.9882 72.4975 30.9637 72.4274 30.9882 72.3677C30.99 72.342 30.99 72.3162 30.9882 72.2905L31.318 69.7995C31.318 69.782 31.318 69.7644 31.318 69.7504C31.318 69.7364 31.318 69.6802 31.318 69.6381C31.318 69.596 31.3356 69.4978 31.3426 69.4382L31.4373 68.7365C31.4392 68.7213 31.4392 68.706 31.4373 68.6909L31.8513 65.6034H31.8969C31.9636 65.6841 33.1178 67.0559 34.0511 68.1576L39.7277 74.9043C39.7933 74.982 39.8749 75.0445 39.967 75.0875C40.0591 75.1305 40.1594 75.153 40.261 75.1534L52.3616 75.2131C52.4161 75.2129 52.4703 75.2059 52.523 75.192L52.9966 75.0832C53.1536 75.0462 53.2931 74.9562 53.3915 74.8284C53.4899 74.7006 53.5413 74.5428 53.5369 74.3816C53.6001 73.6729 52.9265 56.3376 52.3476 53.0327ZM46.9411 61.5231C44.4466 57.4884 41.6328 53.2116 39.8997 51.1873C39.8833 51.0316 39.8154 50.8859 39.7067 50.7733C39.2879 50.2998 38.9022 49.7981 38.5524 49.2717C38.0086 47.8051 37.9735 45.872 37.9489 44.3142C37.9489 43.6897 37.9279 43.1354 37.8858 42.6758C38.8787 41.09 39.5663 39.9883 40.054 39.1919C40.068 40.3007 40.1986 41.4049 40.4435 42.4863C41.4469 45.8123 42.6257 47.4297 43.0151 47.9595L43.0643 48.0262C43.359 49.2892 44.7834 54.1519 46.1622 58.8637C46.4289 59.7724 46.692 60.6671 46.9411 61.5231ZM20.9786 45.3843L20.2769 44.8931C18.0982 43.381 15.323 41.4514 12.9478 40.5006C13.5209 40.2784 14.0487 39.9539 14.5056 39.5427C15.1511 38.9218 15.9265 37.5359 16.4703 36.4623C16.5931 36.7325 16.7264 37.0061 16.8703 37.2868C16.8835 37.3758 16.9133 37.4614 16.958 37.5394L17.7404 38.8762L17.7719 38.9253C18.228 39.7042 18.7438 40.5392 19.3367 41.504C19.6419 41.9987 19.9682 42.5249 20.3156 43.1003C20.4033 43.4512 20.5085 43.7599 20.6103 44.0722C20.7597 44.5067 20.8838 44.9495 20.9821 45.3983L20.9786 45.3843Z" fill="white"/>
<path d="M17.1719 28.3438C17.1719 28.3438 18.9928 10.5174 21.1154 5.73895C23.238 0.960454 29.6128 -0.179788 32.9493 3.00938C32.9493 3.00938 35.3 1.95686 36.8086 6.04068C38.3172 10.1245 41.5099 28.1929 41.5099 28.1929C41.5099 28.1929 40.0118 37.5359 32.6546 38.6621C25.2974 39.7883 18.0139 31.3786 17.1719 28.3438Z" fill="white"/>
<path d="M37.0574 11.6858C36.8326 11.6222 36.5963 11.61 36.3661 11.6501C36.136 11.6902 35.9178 11.7815 35.7277 11.9174C35.5207 7.9423 32.5701 4.78821 28.9213 4.78821C25.2725 4.78821 22.3991 7.8616 22.122 11.763C21.7936 11.6048 21.4174 11.5772 21.0694 11.6858C20.1011 12.0016 19.6871 13.3769 20.1362 14.7627C20.5853 16.1485 21.736 17.0186 22.7009 16.7029C22.7805 16.6777 22.857 16.6435 22.9289 16.6011C24.0902 19.6605 26.3286 22.383 28.8932 22.383C31.4579 22.383 33.784 19.5587 34.9278 16.4362C35.0633 16.5563 35.2221 16.647 35.3944 16.7029C36.3592 17.0186 37.4994 16.1485 37.959 14.7627C38.4187 13.3769 38.0222 12.0016 37.0574 11.6858Z" fill="#070036"/>
<path d="M22.084 11.8401C22.084 11.8401 30.7849 13.3838 34.4547 8.05802C34.4547 8.05802 33.2969 4.45485 29.3324 4.08997C25.3679 3.7251 22.1822 8.24396 22.084 11.8401Z" fill="white"/>
<path d="M51.6557 53.1555C51.0803 49.8576 48.5226 46.2193 48.0911 45.3668C46.2667 41.7742 47.435 33.0522 44.5827 29.0561C42.2074 25.7301 40.0217 26.337 38.7236 25.9441C38.0288 25.6014 37.3072 25.3163 36.5659 25.0915C34.6398 24.5758 31.6155 23.2321 29.1771 23.2321C26.9948 23.2321 24.1986 24.4916 22.4128 24.9091C21.8399 25.0644 21.2754 25.2494 20.7218 25.4634V25.4424L20.4481 25.5722C19.964 25.7722 16.9397 25.6283 13.1471 29.5402C12.5471 30.1542 11.9542 31.4207 11.2279 31.8979C6.7231 34.8625 3.58654 39.2937 3.03923 42.3565C2.59015 44.8791 16.1292 48.8998 21.4235 50.6505C21.2129 50.9627 20.9533 51.3522 20.6551 51.8048C19.4692 52.6363 18.0203 58.1761 17.4379 64.572C17.101 67.9481 17.6803 71.3526 19.1149 74.4272L30.0507 74.5324L31.4541 63.8949L40.355 74.4728L52.4556 74.5324L52.9292 74.4202C52.9292 74.4202 52.231 56.4535 51.6557 53.1555ZM10.6946 40.6409C11.891 40.2304 13.4207 39.6305 14.0207 39.0516C14.8136 38.2903 15.9924 35.9361 16.5187 34.7538C17.4519 37.2939 18.743 39.1779 20.9744 42.8232C21.2621 44.016 21.8129 44.9844 21.8339 46.7877C19.7394 45.5247 13.8838 40.8584 10.6946 40.6409ZM38.6148 50.847C36.8816 48.6998 37.3939 44.3213 37.1623 42.5074C39.6708 38.5043 40.2392 37.557 40.6181 36.8729C40.762 38.0026 40.7234 40.9883 41.1128 42.2829C42.2952 46.1948 43.688 47.6017 43.7196 47.756C44.0704 49.4225 47.8701 62.088 49.0945 66.449C46.0948 61.3337 40.6778 52.6959 38.6148 50.847Z" fill="#070036"/>
<path d="M50.3089 68.6487C49.5125 67.0699 48.7336 65.9577 48.3827 65.1683H32.5176C32.5176 65.1683 34.5911 67.6242 35.4647 68.6768L50.3089 68.6487Z" fill="#FF0079"/>
<path d="M30.8056 68.3646H30.4793L30.2267 68.8523L29.7215 68.3646H29.304L30.0864 69.1225L29.0619 71.0977L27.5603 69.6417L28.2269 68.3646H27.9006L27.3463 69.4172L26.2446 68.3646H25.8306L27.206 69.7013L26.0868 71.852L24.5887 70.396L25.6412 68.3646H25.3149L24.3676 70.1855L22.8695 68.726L23.059 68.3752H22.7327L22.652 68.526L22.4941 68.3752H22.0836L22.5187 68.7962L21.2872 71.1644L19.7891 69.7084L20.4908 68.3752H20.1645L19.5786 69.4978L18.4208 68.3752H18.0068L19.4383 69.7785L18.3366 71.8836L18.0735 71.617C18.0735 71.617 18.1858 72.059 18.2489 72.273C18.2734 72.3484 18.3052 72.4213 18.3437 72.4906L18.4138 72.3643L19.9154 73.8202L19.5961 74.4377H19.9225L20.1294 74.0272L20.5505 74.4448H20.975L20.2733 73.7431L21.3749 71.617L22.8765 73.0765L22.1573 74.4448H22.5082L23.1046 73.287L24.315 74.4623H24.715L23.2449 73.0133L24.4764 70.6451L25.9745 72.1011L24.743 74.4658H25.0939L26.2061 72.3116L27.7042 73.7676L27.3217 74.4693H27.6726L27.9182 73.9571L28.4409 74.4728H28.869L28.055 73.6799L29.1742 71.5292L30.332 72.6379C30.332 72.5081 30.3671 72.3923 30.3811 72.2871L29.3286 71.2626L30.3565 69.2873L30.739 69.6628C30.739 69.568 30.7775 69.3926 30.7846 69.3119L30.4934 69.0277L30.8056 68.3646ZM20.0452 73.5466L18.5471 72.0871L19.6488 69.9645L21.1504 71.4205L20.0452 73.5466ZM23.0028 72.8203L21.5047 71.3643L22.7362 68.9961L24.2343 70.4521L23.0028 72.8203ZM27.8059 73.522L26.2938 72.0625L27.413 69.9119L28.9111 71.3678L27.8059 73.522Z" fill="#FF0079"/>
<path d="M37.7594 49.3595C32.5957 50.4212 27.276 50.4784 22.0907 49.5279C21.8521 50.0015 21.2381 51.0225 21.0732 51.2821C21.1785 51.3067 21.2838 51.3383 21.389 51.3593V51.3804C21.389 51.3804 24.4414 53.5381 26.0412 55.4607C27.641 57.3833 29.0128 65.986 32.3564 64.8247C34.9316 63.909 34.7 55.7028 35.9315 54.6046C37.1629 53.5065 39.1206 51.3348 39.2294 51.2506C38.6976 50.6539 38.2065 50.0221 37.7594 49.3595Z" fill="#FF0079"/>
<path d="M52.1999 72.5957C52.1333 72.3536 52.0596 72.0975 51.9719 71.8274L51.8947 71.7256L51.9263 71.6835C51.9263 71.6625 51.9263 71.6449 51.9263 71.6274L51.8315 71.3467L51.7263 71.487L50.5018 69.9223L50.8176 69.4943C50.772 69.396 50.7229 69.2978 50.6738 69.1995L50.3229 69.6872L49.3686 68.4522H49.0178L50.1615 69.9293L48.9897 71.5291L47.7758 69.9644L48.8845 68.4522H48.5336L47.6004 69.7258L46.6145 68.4522H46.2461L47.4214 69.9714L46.218 71.5677L45.0076 70.003L46.1444 68.4487H45.7935L44.8287 69.7644L43.8113 68.4487H43.4604L44.6673 70.01L43.485 71.6133L42.2746 70.0486L43.4429 68.4522H43.092L42.0816 69.8135L41.0291 68.4558H40.3554L39.331 69.8591L38.2504 68.4558H37.6399L36.626 69.8591L36.8154 70.0907L37.9416 68.5505L39.1555 70.1152L38.0679 71.5677L38.2574 71.7993L39.3345 70.3258L40.5484 71.8905L39.5169 73.2939L39.7099 73.5219L40.7309 72.1186L41.9412 73.6833L41.3974 74.4271H41.7483L42.1202 73.9219L42.5096 74.4271H42.8605L42.2816 73.6798L43.485 72.094L44.6954 73.6588L44.12 74.4447H44.4708L44.8743 73.8973L45.2953 74.4447H45.6637L45.0497 73.6728L46.2251 72.0694L47.4355 73.6377L46.8285 74.4622H47.1794L47.6074 73.8728L48.0635 74.4622H48.4143L47.7688 73.6307L48.9406 72.0309L50.1545 73.5956L49.516 74.4622H49.8668L50.3264 73.8342L50.8527 74.4447H51.2035L50.5264 73.5711L51.6982 71.9712L52.1999 72.5957ZM40.7238 71.6554L39.5134 70.0907L40.6852 68.4873L41.8956 70.0521L40.7238 71.6554ZM42.1272 73.4588L40.9168 71.894L42.0886 70.2907L43.299 71.8554L42.1272 73.4588ZM44.8743 73.4167L43.6639 71.8519L44.8357 70.2486L46.0461 71.8168L44.8743 73.4167ZM47.6214 73.3746L46.4075 71.8098L47.5828 70.21L48.7932 71.7747L47.6214 73.3746ZM50.365 73.3325L49.1546 71.7677L50.3264 70.1679L51.5403 71.7326L50.365 73.3325Z" fill="#FF0079"/>
<path d="M52.5299 74.0798L52.2598 74.4307H52.586C52.572 74.3395 52.5545 74.2167 52.5299 74.0798Z" fill="#FF0079"/>
<path d="M29.0266 39.8129L28.995 39.6831C28.3845 38.9217 26.1882 35.294 25.0164 34.5537C24.1463 34.0029 22.2413 33.8099 20.487 33.645C20.5712 30.319 21.0729 25.3546 21.0729 25.3546L20.066 25.6493C20.066 25.6493 19.0345 33.8766 19.038 33.8766C18.8732 37.5991 20.8589 42.5425 20.8589 42.5425C20.8589 42.5425 28.0512 40.1567 29.0336 39.855C29.033 39.8407 29.0306 39.8266 29.0266 39.8129Z" fill="#FF0079"/>
<path d="M19.6871 36.2308L17.582 37.1991L18.3644 38.5359C18.3644 38.5359 20.2976 37.7675 20.3712 37.7816C20.1705 37.253 19.9421 36.7354 19.6871 36.2308Z" fill="#FF0079"/>
<path d="M28.9953 39.7779L29.0269 39.648C29.6373 38.8867 31.8336 35.259 33.0054 34.5187C33.8755 33.9714 35.7806 33.7749 37.5348 33.6135C37.4506 30.284 36.9489 25.3196 36.9489 25.3196L37.9558 25.6143C37.9558 25.6143 38.9873 33.8416 38.9838 33.8451C39.1487 37.5675 37.1629 42.5074 37.1629 42.5074C37.1629 42.5074 29.9706 40.1252 28.9883 39.8235C28.9886 39.808 28.991 39.7927 28.9953 39.7779Z" fill="#FF0079"/>
<path d="M38.3345 36.1992L40.4396 37.164L39.6572 38.5043C39.6572 38.5043 37.7241 37.7359 37.6504 37.7499C37.8512 37.2214 38.0795 36.7038 38.3345 36.1992Z" fill="#FF0079"/>
<path d="M17.3506 65.1614C17.3506 65.9473 17.3506 67.5156 17.4383 68.6242H30.83L31.2966 65.1509L17.3506 65.1614Z" fill="#FF0079"/>
<path d="M21.7924 72.9396C21.7626 72.7815 21.6795 72.6384 21.5569 72.5343C21.4342 72.4302 21.2796 72.3714 21.1188 72.3677H18.9154C18.754 72.3706 18.5985 72.429 18.4752 72.5332C18.3518 72.6374 18.2682 72.7809 18.2383 72.9396L16.1192 84.8999V82.6931C16.1079 82.1151 15.9097 81.5562 15.5544 81.1002C15.4282 80.9291 15.2886 80.7684 15.1369 80.6196C15.2858 80.4347 15.4152 80.2348 15.5228 80.0231C15.8105 79.5307 15.9664 78.9725 15.9754 78.4022V76.0902C15.9754 75.0874 15.5775 74.1256 14.8691 73.4158C14.1607 72.7061 13.1996 72.3064 12.1968 72.3046L8.54801 72.3256C8.4581 72.3253 8.36903 72.3429 8.28593 72.3772C8.20283 72.4115 8.12734 72.4619 8.06385 72.5256C7.93946 72.4225 7.78334 72.3655 7.6218 72.3642H1.32766C1.14157 72.3642 0.963077 72.4381 0.831485 72.5697C0.699893 72.7013 0.625977 72.8798 0.625977 73.0659L0.647026 74.778C0.653394 74.9598 0.730106 75.1321 0.861014 75.2584C0.991923 75.3847 1.16679 75.4553 1.34871 75.4552H2.7205V86.4541C2.7205 86.6402 2.79444 86.8187 2.92603 86.9503C3.05763 87.0819 3.23609 87.1558 3.42219 87.1558H5.56584C5.75194 87.1558 5.93043 87.0819 6.06202 86.9503C6.19361 86.8187 6.26753 86.6402 6.26753 86.4541V75.4271H7.6709C7.74604 75.428 7.82078 75.4161 7.89194 75.392V86.426C7.89194 86.6121 7.96588 86.7906 8.09747 86.9222C8.22906 87.0538 8.40753 87.1277 8.59363 87.1277H10.7373C10.9234 87.1277 11.1019 87.0538 11.2335 86.9222C11.365 86.7906 11.439 86.6121 11.439 86.426V82.1142C11.7649 82.0944 12.0911 82.1484 12.3933 82.272C12.481 82.3212 12.7441 82.4685 12.7441 83.1562V86.4331C12.7441 86.6192 12.818 86.7976 12.9496 86.9292C13.0812 87.0608 13.2597 87.1347 13.4458 87.1347H15.4175C15.5265 87.1334 15.6336 87.1067 15.7304 87.0568C15.8272 87.0068 15.9111 86.935 15.9754 86.847C15.9839 86.8616 15.9933 86.8757 16.0034 86.8891C16.0675 86.9666 16.1479 87.0287 16.2389 87.0712C16.3299 87.1137 16.4293 87.1354 16.5297 87.1347H18.6664C18.8278 87.1319 18.9833 87.0734 19.1066 86.9693C19.23 86.8651 19.3136 86.7215 19.3435 86.5629L19.7645 84.0859H20.175L20.582 86.5594C20.6111 86.7187 20.6944 86.863 20.8178 86.9679C20.9413 87.0728 21.0972 87.1317 21.2591 87.1347H23.3922C23.4918 87.1328 23.5899 87.1097 23.6798 87.0669C23.7698 87.0242 23.8496 86.9627 23.914 86.8867C23.9784 86.8107 24.0258 86.7219 24.0532 86.6261C24.0806 86.5304 24.0873 86.4299 24.0729 86.3313L21.7924 72.9396ZM12.5301 76.5498V77.8304C12.5552 78.1303 12.5095 78.4319 12.3968 78.711V78.739C12.3722 78.7812 12.3231 78.8829 11.9863 78.8829H11.3863V75.4867H11.7126C12.1863 75.4867 12.3792 75.578 12.4143 75.613L12.4389 75.6446C12.5319 75.9367 12.563 76.245 12.5301 76.5498Z" fill="#070036"/>
<path d="M59.2028 75.3323C59.5537 75.3323 59.6624 75.4762 59.7221 75.6095C59.8291 75.9856 59.873 76.3768 59.8519 76.7673C59.8519 76.9534 59.9258 77.1319 60.0574 77.2635C60.189 77.395 60.3675 77.469 60.5536 77.469H62.6165C62.8026 77.469 62.9811 77.395 63.1127 77.2635C63.2443 77.1319 63.3182 76.9534 63.3182 76.7673V75.8796C63.3145 74.8768 62.9138 73.9163 62.2037 73.2082C61.4936 72.5 60.5319 72.102 59.5291 72.1011H58.9923C58.1405 72.1015 57.3136 72.3881 56.6442 72.9149C55.9749 73.4418 55.502 74.1782 55.3014 75.006V73.0589C55.3015 72.8764 55.2305 72.701 55.1034 72.57C54.9763 72.439 54.8032 72.3627 54.6208 72.3572H52.4771C52.296 72.3588 52.1225 72.4305 51.993 72.5572C51.962 72.5886 51.9338 72.6226 51.9088 72.6589C51.8453 72.5674 51.761 72.4923 51.6628 72.4398C51.5646 72.3874 51.4553 72.359 51.3439 72.3572H45.0217C44.8371 72.3589 44.6607 72.4333 44.5305 72.5642C44.4035 72.696 44.333 72.8723 44.334 73.0554V74.0447C44.1623 73.7423 43.9499 73.4648 43.7025 73.2203C43.3544 72.8632 42.9372 72.5807 42.4764 72.3901C42.0156 72.1995 41.5207 72.1048 41.0221 72.1116H40.4853C39.9875 72.1048 39.4935 72.1992 39.0333 72.3892C38.5731 72.5792 38.1564 72.8608 37.8084 73.2168C37.5567 73.4653 37.3406 73.7475 37.1663 74.0553V73.0483C37.1672 72.9575 37.1496 72.8674 37.1147 72.7836C37.0797 72.6998 37.028 72.6239 36.9628 72.5607C36.8339 72.4327 36.6603 72.3598 36.4787 72.3572L30.2301 72.3782C30.092 72.3791 29.9574 72.4219 29.8442 72.501C29.7284 72.4217 29.5916 72.379 29.4513 72.3782H27.3076C27.1456 72.3852 26.991 72.4481 26.8701 72.5562C26.7492 72.6643 26.6695 72.8109 26.6445 72.9712L26.02 77.2444L25.4236 72.9712C25.3987 72.8068 25.3162 72.6567 25.1909 72.5474C25.0656 72.4382 24.9056 72.377 24.7394 72.3747H22.5958C22.4956 72.3757 22.3968 72.3982 22.306 72.4405C22.2153 72.4829 22.1346 72.5442 22.0695 72.6203C22.0057 72.6977 21.9592 72.7878 21.9332 72.8846C21.9072 72.9815 21.9022 73.0827 21.9187 73.1817L24.2061 86.5558C24.2359 86.7139 24.319 86.857 24.4416 86.9611C24.5643 87.0652 24.7189 87.124 24.8798 87.1277L27.0831 87.1487C27.2482 87.1518 27.4091 87.0964 27.5375 86.9924C27.6658 86.8885 27.7534 86.7426 27.7848 86.5804L29.5565 76.4796V86.4401C29.5565 86.6262 29.6304 86.8046 29.762 86.9362C29.8936 87.0678 30.0721 87.1417 30.2582 87.1417H36.5032C36.6893 87.1417 36.8678 87.0678 36.9994 86.9362C37.131 86.8046 37.2049 86.6262 37.2049 86.4401V85.5524C37.3781 85.861 37.5942 86.1433 37.847 86.3909C38.1943 86.7481 38.6109 87.0306 39.0711 87.2212C39.5314 87.4118 40.0257 87.5066 40.5239 87.4996H41.0291C42.0319 87.4996 42.994 87.1024 43.7047 86.395C44.4155 85.6875 44.8171 84.7274 44.8217 83.7245V82.037C44.8251 81.5251 44.7148 81.0188 44.4988 80.5546C44.2828 80.0905 43.9665 79.6801 43.5727 79.353C42.8187 78.67 41.836 78.2944 40.8186 78.3005C40.5309 78.3005 40.3976 78.1952 40.2958 77.8759C40.1821 77.4054 40.1372 76.9209 40.1625 76.4375C40.1368 76.1278 40.1799 75.8163 40.2888 75.5253C40.3169 75.4762 40.3801 75.3569 40.7309 75.3569C41.0817 75.3569 41.1905 75.5008 41.2537 75.6341C41.3607 76.0102 41.4046 76.4014 41.3835 76.7919C41.3835 76.978 41.4574 77.1564 41.589 77.288C41.7206 77.4196 41.8991 77.4935 42.0851 77.4935H44.1446C44.3307 77.4935 44.5092 77.4196 44.6408 77.288C44.7724 77.1564 44.8463 76.978 44.8463 76.7919V75.9042C44.8453 75.7387 44.8336 75.5735 44.8112 75.4095C44.8914 75.4422 44.9772 75.4589 45.0638 75.4587H46.4356V86.4576C46.4356 86.6437 46.5095 86.8222 46.6411 86.9538C46.7727 87.0853 46.9512 87.1593 47.1373 87.1593H49.281C49.4671 87.1593 49.6455 87.0853 49.7771 86.9538C49.9087 86.8222 49.9826 86.6437 49.9826 86.4576V75.4271H51.386C51.5407 75.427 51.6905 75.3737 51.8105 75.2762V86.426C51.8105 86.6121 51.8845 86.7906 52.0161 86.9222C52.1477 87.0538 52.3261 87.1277 52.5122 87.1277H54.6559C54.842 87.1277 55.0205 87.0538 55.1521 86.9222C55.2836 86.7906 55.3576 86.6121 55.3576 86.426V84.5841C55.5586 85.412 56.0315 86.1485 56.7007 86.6758C57.3698 87.2031 58.1965 87.4907 59.0484 87.4926H59.5852C60.588 87.4935 61.5502 87.0965 62.2606 86.3888C62.971 85.681 63.3716 84.7203 63.3744 83.7175V82.03C63.3777 81.5184 63.2677 81.0124 63.0524 80.5484C62.837 80.0844 62.5217 79.6737 62.1289 79.346C61.3748 78.6629 60.3921 78.2874 59.3747 78.2935C59.0835 78.2935 58.9502 78.1882 58.8485 77.8689C58.7367 77.3981 58.6918 76.9138 58.7151 76.4305C58.689 76.1205 58.7334 75.8086 58.845 75.5183C58.7853 75.4516 58.8485 75.3323 59.2028 75.3323ZM36.7102 77.9075C36.6387 77.8851 36.5642 77.8733 36.4892 77.8724H33.0755V75.6411H36.4892C36.5668 75.6405 36.6438 75.6275 36.7172 75.6025C36.7172 75.6937 36.7172 75.7849 36.7172 75.8762V77.7707C36.7067 77.8163 36.7067 77.8619 36.7102 77.9075ZM36.7102 83.8719C36.6391 83.8477 36.5643 83.8359 36.4892 83.8368H33.0755V81.1739H36.4892C36.6753 81.1739 36.8538 81.1 36.9854 80.9684C37.117 80.8368 37.1909 80.6583 37.1909 80.4722V79.5214C37.3989 79.8711 37.6619 80.1851 37.9698 80.4512C38.732 81.139 39.7253 81.5147 40.7519 81.5037C41.1695 81.5037 41.38 82.037 41.38 83.079C41.4068 83.406 41.3686 83.7351 41.2677 84.0473C41.2291 84.121 41.1694 84.2438 40.8116 84.2438C40.748 84.2498 40.6839 84.2422 40.6234 84.2217C40.5629 84.2011 40.5075 84.168 40.4607 84.1245C40.3485 84.0122 40.166 83.6929 40.173 82.8158C40.1732 82.6323 40.1014 82.4559 39.9731 82.3246C39.8432 82.1959 39.6682 82.1229 39.4854 82.1212H37.4224C37.2363 82.1212 37.0579 82.1951 36.9263 82.3267C36.7947 82.4583 36.7207 82.6368 36.7207 82.8229V83.7105C36.7067 83.7631 36.7067 83.8122 36.7102 83.8649V83.8719ZM55.2734 78.6092C55.4502 79.3316 55.8519 79.979 56.4206 80.4582C57.1845 81.1456 58.1787 81.5213 59.2063 81.5107C59.6203 81.5107 59.8308 82.044 59.8308 83.086C59.8601 83.4131 59.8218 83.7426 59.7186 84.0543C59.6835 84.128 59.6203 84.2508 59.2625 84.2508C59.1988 84.257 59.1347 84.2496 59.0742 84.229C59.0137 84.2084 58.9582 84.1752 58.9116 84.1315C58.7993 84.0192 58.6134 83.7 58.6239 82.8229C58.6241 82.6393 58.5523 82.4629 58.424 82.3317C58.2933 82.202 58.1168 82.129 57.9328 82.1282H55.8733C55.7533 82.1313 55.636 82.1652 55.5328 82.2267C55.4296 82.2881 55.3439 82.375 55.2839 82.479L55.2734 78.6092Z" fill="#070036"/>
<path d="M7.63278 74.7464H5.55228V86.4331H3.40863V74.7464H1.34917L1.32812 73.0378H7.61173L7.63278 74.7464Z" fill="white"/>
<path d="M15.4175 86.4331H13.3546V83.1457C13.3546 82.4207 13.1207 81.926 12.6529 81.6617C12.1361 81.4476 11.5748 81.3633 11.018 81.4161H10.6671V86.4226H8.54102V72.9853L12.1898 72.9642C13.0099 72.967 13.7955 73.2945 14.3748 73.8751C14.9541 74.4557 15.2798 75.2421 15.2807 76.0622V78.3743C15.2724 78.832 15.1442 79.2796 14.9088 79.6724C14.7259 80.0913 14.3966 80.4294 13.9826 80.6232C14.386 80.819 14.7336 81.1134 14.993 81.4792C15.2611 81.8176 15.4125 82.2336 15.4246 82.6651L15.4175 86.4331ZM13.2107 77.8304V76.5499C13.2107 75.8716 13.123 75.4225 12.9476 75.2026C12.7406 74.9114 12.2915 74.7746 11.5969 74.7886H10.6776V79.5496L11.9652 79.5706C12.1677 79.5947 12.3727 79.5582 12.5544 79.4657C12.7361 79.3733 12.8864 79.2291 12.9862 79.0514C13.164 78.6701 13.2436 78.2504 13.2177 77.8304H13.2107Z" fill="white"/>
<path d="M23.3996 86.4331H21.2665L20.7683 83.3842H19.193L18.6738 86.4331H16.5371L18.9264 73.0378L21.1297 73.0589L23.3996 86.4331ZM20.435 81.2406L19.9999 77.9847L19.5684 81.2406H20.435Z" fill="white"/>
<path d="M29.451 73.059L27.0793 86.4542L24.8725 86.4331L22.585 73.059H24.7286L25.9882 82.1248L27.3073 73.059H29.451Z" fill="white"/>
<path d="M36.4892 84.5174V86.4331H30.2441V73.0589L36.4892 73.0378V74.9535H32.3878V78.5601H36.4892V80.4757H32.3878V84.5174H36.4892Z" fill="white"/>
<path d="M44.134 76.7673H42.0816C42.1035 76.2841 42.0406 75.8008 41.8956 75.3394C41.8022 75.1153 41.6402 74.9267 41.4327 74.8006C41.2253 74.6745 40.9833 74.6175 40.7414 74.6377C40.5333 74.6163 40.3234 74.6552 40.1368 74.7498C39.9502 74.8443 39.7947 74.9905 39.6888 75.171C39.5289 75.5621 39.4594 75.9842 39.4854 76.4059C39.4613 76.9595 39.5169 77.5136 39.6503 78.0514C39.7087 78.3169 39.8589 78.5534 40.0746 78.719C40.2903 78.8846 40.5575 78.9687 40.8291 78.9566C41.6808 78.9562 42.5013 79.2769 43.1271 79.8547C43.4466 80.1181 43.7034 80.4493 43.8788 80.8244C44.0542 81.1994 44.1438 81.6089 44.1411 82.0229V83.7105C44.1476 84.1171 44.0703 84.5208 43.9139 84.8962C43.7576 85.2717 43.5256 85.6109 43.2324 85.8928C42.9478 86.1849 42.6064 86.4159 42.2294 86.5716C41.8523 86.7272 41.4475 86.8042 41.0396 86.7979H40.5028C39.6821 86.7979 38.8948 86.4726 38.3135 85.8932C37.7321 85.3139 37.4041 84.5277 37.4013 83.707V82.8194H39.4643C39.4643 84.2227 39.8958 84.9244 40.8045 84.9244C41.0171 84.9427 41.2304 84.8979 41.4176 84.7956C41.6049 84.6932 41.7577 84.5379 41.8571 84.349C42.0074 83.941 42.0707 83.506 42.043 83.072C42.043 81.5633 41.6045 80.809 40.7274 80.809C39.8659 80.8148 39.0339 80.4953 38.3977 79.9144C38.0794 79.65 37.8234 79.3186 37.6481 78.9438C37.4728 78.5689 37.3825 78.1599 37.3838 77.7461V75.8516C37.3875 75.0315 37.7159 74.2462 38.2971 73.6676C38.8784 73.089 39.6651 72.7642 40.4853 72.7642H41.0291C41.8498 72.7642 42.6371 73.0895 43.2184 73.6689C43.7998 74.2482 44.1278 75.0344 44.1305 75.8551L44.134 76.7673Z" fill="white"/>
<path d="M51.3296 74.7464H49.2456V86.4331H47.102V74.7464H45.0425L45.0215 73.0378H51.3086L51.3296 74.7464Z" fill="white"/>
<path d="M54.586 86.4331H52.4424V73.0378L54.586 73.0589V86.4331Z" fill="white"/>
<path d="M62.6022 76.7673H60.5392C60.5619 76.2843 60.5002 75.8011 60.3568 75.3393C60.2629 75.1156 60.1007 74.9273 59.8934 74.8013C59.6861 74.6753 59.4443 74.618 59.2025 74.6376C58.9944 74.6163 58.7846 74.6552 58.5979 74.7497C58.4113 74.8443 58.2558 74.9905 58.15 75.1709C57.9888 75.5618 57.9181 75.9839 57.943 76.4059C57.9208 76.9594 57.9763 77.5133 58.1079 78.0513C58.167 78.3172 58.318 78.5537 58.5342 78.7192C58.7505 78.8848 59.0181 78.9688 59.2902 78.9565C60.1419 78.9562 60.9625 79.2769 61.5882 79.8547C61.9078 80.118 62.1646 80.4493 62.34 80.8244C62.5154 81.1994 62.6049 81.6089 62.6022 82.0229V83.7105C62.5994 84.5309 62.2713 85.3167 61.6899 85.8955C61.1084 86.4743 60.3211 86.7988 59.5007 86.7979H58.9639C58.1429 86.7988 57.3551 86.4738 56.7736 85.8942C56.192 85.3147 55.8643 84.528 55.8625 83.7069V82.8193H57.9219C57.9219 84.2227 58.357 84.9244 59.2621 84.9244C59.4738 84.9467 59.6873 84.9063 59.8763 84.8084C60.0652 84.7105 60.2213 84.5593 60.3252 84.3736C60.4755 83.9655 60.5389 83.5305 60.5112 83.0965C60.5112 81.5879 60.0726 80.8335 59.1955 80.8335C58.334 80.8393 57.5021 80.5198 56.8659 79.9389C56.5464 79.6756 56.2896 79.3443 56.1142 78.9692C55.9388 78.5942 55.8492 78.1847 55.8519 77.7707V75.8761C55.8454 75.4695 55.9227 75.0658 56.0791 74.6904C56.2354 74.3149 56.4674 73.9757 56.7606 73.6939C57.0453 73.4017 57.3866 73.1707 57.7636 73.015C58.1407 72.8594 58.5455 72.7824 58.9534 72.7887H59.4902C60.3109 72.7887 61.0982 73.114 61.6795 73.6934C62.2609 74.2727 62.5889 75.0589 62.5917 75.8796L62.6022 76.7673Z" fill="white"/>
</svg>
