<svg width="29" height="28" viewBox="0 0 29 28" fill="none" xmlns="http://www.w3.org/2000/svg">
<path d="M0.5 14C0.5 6.26801 6.76801 0 14.5 0C22.232 0 28.5 6.26801 28.5 14C28.5 21.732 22.232 28 14.5 28C6.76801 28 0.5 21.732 0.5 14Z" fill="#55ACEE"/>
<path d="M14.0807 11.3793L14.1101 11.8637L13.6204 11.8044C11.8382 11.577 10.2811 10.8059 8.95911 9.51076L8.31279 8.86814L8.14632 9.34269C7.79378 10.4005 8.01901 11.5177 8.75347 12.2691C9.14518 12.6843 9.05704 12.7436 8.38134 12.4964C8.14632 12.4173 7.94067 12.358 7.92109 12.3877C7.85254 12.4569 8.08756 13.3565 8.27362 13.7125C8.52823 14.2068 9.04725 14.6912 9.61523 14.9779L10.0951 15.2053L9.52709 15.2152C8.9787 15.2152 8.95911 15.2251 9.01787 15.4327C9.21372 16.0753 9.98735 16.7575 10.8491 17.054L11.4563 17.2617L10.9274 17.578C10.144 18.0328 9.22352 18.2898 8.303 18.3096C7.86233 18.3195 7.5 18.359 7.5 18.3887C7.5 18.4876 8.69471 19.0412 9.38999 19.2587C11.4758 19.9013 13.9534 19.6245 15.814 18.5271C17.136 17.7461 18.458 16.1939 19.075 14.6912C19.4079 13.8904 19.7409 12.4272 19.7409 11.7253C19.7409 11.2705 19.7703 11.2112 20.3187 10.6675C20.6418 10.3511 20.9454 10.0051 21.0041 9.90621C21.1021 9.71837 21.0923 9.71837 20.5929 9.88644C19.7605 10.183 19.643 10.1435 20.0543 9.6986C20.3578 9.38223 20.7202 8.80882 20.7202 8.64076C20.7202 8.6111 20.5733 8.66053 20.4068 8.74951C20.2305 8.84837 19.8388 8.99667 19.545 9.08564L19.0162 9.25371L18.5364 8.92746C18.272 8.74951 17.8999 8.55178 17.704 8.49246C17.2046 8.35405 16.4407 8.37382 15.9903 8.53201C14.7662 8.97689 13.9926 10.1237 14.0807 11.3793Z" fill="white"/>
</svg>
