<svg width="34" height="47" viewBox="0 0 34 47" fill="none" xmlns="http://www.w3.org/2000/svg">
<g opacity="0.4">
<path d="M7.76984 37.388V44H6.40184V43.22C6.18584 43.492 5.90184 43.708 5.54984 43.868C5.20584 44.02 4.83784 44.096 4.44584 44.096C3.92584 44.096 3.45784 43.988 3.04184 43.772C2.63384 43.556 2.30984 43.236 2.06984 42.812C1.83784 42.388 1.72184 41.876 1.72184 41.276V37.388H3.07784V41.072C3.07784 41.664 3.22584 42.12 3.52184 42.44C3.81784 42.752 4.22184 42.908 4.73384 42.908C5.24584 42.908 5.64984 42.752 5.94584 42.44C6.24984 42.12 6.40184 41.664 6.40184 41.072V37.388H7.76984ZM11.9748 44.108C11.4548 44.108 10.9868 44.016 10.5708 43.832C10.1628 43.64 9.8388 43.384 9.5988 43.064C9.3588 42.736 9.2308 42.372 9.2148 41.972H10.6308C10.6548 42.252 10.7868 42.488 11.0268 42.68C11.2748 42.864 11.5828 42.956 11.9508 42.956C12.3348 42.956 12.6308 42.884 12.8388 42.74C13.0548 42.588 13.1628 42.396 13.1628 42.164C13.1628 41.916 13.0428 41.732 12.8028 41.612C12.5708 41.492 12.1988 41.36 11.6868 41.216C11.1908 41.08 10.7868 40.948 10.4748 40.82C10.1628 40.692 9.8908 40.496 9.6588 40.232C9.4348 39.968 9.3228 39.62 9.3228 39.188C9.3228 38.836 9.4268 38.516 9.6348 38.228C9.8428 37.932 10.1388 37.7 10.5228 37.532C10.9148 37.364 11.3628 37.28 11.8668 37.28C12.6188 37.28 13.2228 37.472 13.6788 37.856C14.1428 38.232 14.3908 38.748 14.4228 39.404H13.0548C13.0308 39.108 12.9108 38.872 12.6948 38.696C12.4788 38.52 12.1868 38.432 11.8188 38.432C11.4588 38.432 11.1828 38.5 10.9908 38.636C10.7988 38.772 10.7028 38.952 10.7028 39.176C10.7028 39.352 10.7668 39.5 10.8948 39.62C11.0228 39.74 11.1788 39.836 11.3628 39.908C11.5468 39.972 11.8188 40.056 12.1788 40.16C12.6588 40.288 13.0508 40.42 13.3548 40.556C13.6668 40.684 13.9348 40.876 14.1588 41.132C14.3828 41.388 14.4988 41.728 14.5068 42.152C14.5068 42.528 14.4028 42.864 14.1948 43.16C13.9868 43.456 13.6908 43.688 13.3068 43.856C12.9308 44.024 12.4868 44.108 11.9748 44.108ZM22.045 40.532C22.045 40.78 22.029 41.004 21.997 41.204H16.945C16.985 41.732 17.181 42.156 17.533 42.476C17.885 42.796 18.317 42.956 18.829 42.956C19.565 42.956 20.085 42.648 20.389 42.032H21.865C21.665 42.64 21.301 43.14 20.773 43.532C20.253 43.916 19.605 44.108 18.829 44.108C18.197 44.108 17.629 43.968 17.125 43.688C16.629 43.4 16.237 43 15.949 42.488C15.669 41.968 15.529 41.368 15.529 40.688C15.529 40.008 15.665 39.412 15.937 38.9C16.217 38.38 16.605 37.98 17.101 37.7C17.605 37.42 18.181 37.28 18.829 37.28C19.453 37.28 20.009 37.416 20.497 37.688C20.985 37.96 21.365 38.344 21.637 38.84C21.909 39.328 22.045 39.892 22.045 40.532ZM20.617 40.1C20.609 39.596 20.429 39.192 20.077 38.888C19.725 38.584 19.289 38.432 18.769 38.432C18.297 38.432 17.893 38.584 17.557 38.888C17.221 39.184 17.021 39.588 16.957 40.1H20.617ZM24.7592 38.348C24.9592 38.012 25.2232 37.752 25.5512 37.568C25.8872 37.376 26.2832 37.28 26.7392 37.28V38.696H26.3912C25.8552 38.696 25.4472 38.832 25.1672 39.104C24.8952 39.376 24.7592 39.848 24.7592 40.52V44H23.3912V37.388H24.7592V38.348ZM30.3967 44.108C29.8767 44.108 29.4087 44.016 28.9927 43.832C28.5847 43.64 28.2607 43.384 28.0207 43.064C27.7807 42.736 27.6527 42.372 27.6367 41.972H29.0527C29.0767 42.252 29.2087 42.488 29.4487 42.68C29.6967 42.864 30.0047 42.956 30.3727 42.956C30.7567 42.956 31.0527 42.884 31.2607 42.74C31.4767 42.588 31.5847 42.396 31.5847 42.164C31.5847 41.916 31.4647 41.732 31.2247 41.612C30.9927 41.492 30.6207 41.36 30.1087 41.216C29.6127 41.08 29.2087 40.948 28.8967 40.82C28.5847 40.692 28.3127 40.496 28.0807 40.232C27.8567 39.968 27.7447 39.62 27.7447 39.188C27.7447 38.836 27.8487 38.516 28.0567 38.228C28.2647 37.932 28.5607 37.7 28.9447 37.532C29.3367 37.364 29.7847 37.28 30.2887 37.28C31.0407 37.28 31.6447 37.472 32.1007 37.856C32.5647 38.232 32.8127 38.748 32.8447 39.404H31.4767C31.4527 39.108 31.3327 38.872 31.1167 38.696C30.9007 38.52 30.6087 38.432 30.2407 38.432C29.8807 38.432 29.6047 38.5 29.4127 38.636C29.2207 38.772 29.1247 38.952 29.1247 39.176C29.1247 39.352 29.1887 39.5 29.3167 39.62C29.4447 39.74 29.6007 39.836 29.7847 39.908C29.9687 39.972 30.2407 40.056 30.6007 40.16C31.0807 40.288 31.4727 40.42 31.7767 40.556C32.0887 40.684 32.3567 40.876 32.5807 41.132C32.8047 41.388 32.9207 41.728 32.9287 42.152C32.9287 42.528 32.8247 42.864 32.6167 43.16C32.4087 43.456 32.1127 43.688 31.7287 43.856C31.3527 44.024 30.9087 44.108 30.3967 44.108Z" fill="white"/>
<rect x="4.69434" y="1" width="24" height="24" fill="#1E1E53"/>
<path d="M9.2222 21.5894C9.2222 17.4275 12.596 14.0537 16.7578 14.0537C20.9196 14.0537 24.2934 17.4275 24.2934 21.5894V23.7567C24.2934 23.908 24.3231 24.0129 24.4012 24.0641C24.4398 24.0894 24.4845 24.0973 24.5297 24.0962C24.5747 24.0951 24.6236 24.0851 24.6741 24.0712C24.7248 24.0572 24.7799 24.0386 24.8373 24.019L24.8459 24.0161C24.9012 23.9973 24.959 23.9775 25.0197 23.9593C25.1472 23.921 25.2844 23.8903 25.4271 23.8903C26.0532 23.8903 26.5608 23.3828 26.5608 22.7567V21.5894C26.5608 16.1753 22.1719 11.7864 16.7578 11.7864C11.3438 11.7864 6.95488 16.1753 6.95488 21.5894V23.7567C6.95488 24.3828 7.46245 24.8903 8.08854 24.8903C8.71464 24.8903 9.2222 24.3828 9.2222 23.7567V21.5894Z" fill="white" stroke="white" stroke-width="0.1"/>
<mask id="path-4-outside-1_433_4562" maskUnits="userSpaceOnUse" x="9.25586" y="0" width="15" height="15" fill="black">
<rect fill="white" x="9.25586" width="15" height="15"/>
<path fill-rule="evenodd" clip-rule="evenodd" d="M16.7575 11.8368C19.1514 11.8368 21.0921 9.89607 21.0921 7.50212C21.0921 5.10816 19.1514 3.16748 16.7575 3.16748C14.3635 3.16748 12.4229 5.10816 12.4229 7.50212C12.4229 9.89607 14.3635 11.8368 16.7575 11.8368ZM16.7578 14.0039C20.3487 14.0039 23.2598 11.0929 23.2598 7.50196C23.2598 3.91102 20.3487 1 16.7578 1C13.1669 1 10.2559 3.91102 10.2559 7.50196C10.2559 11.0929 13.1669 14.0039 16.7578 14.0039Z"/>
</mask>
<path fill-rule="evenodd" clip-rule="evenodd" d="M16.7575 11.8368C19.1514 11.8368 21.0921 9.89607 21.0921 7.50212C21.0921 5.10816 19.1514 3.16748 16.7575 3.16748C14.3635 3.16748 12.4229 5.10816 12.4229 7.50212C12.4229 9.89607 14.3635 11.8368 16.7575 11.8368ZM16.7578 14.0039C20.3487 14.0039 23.2598 11.0929 23.2598 7.50196C23.2598 3.91102 20.3487 1 16.7578 1C13.1669 1 10.2559 3.91102 10.2559 7.50196C10.2559 11.0929 13.1669 14.0039 16.7578 14.0039Z" fill="white"/>
<path d="M16.7575 11.9368C19.2066 11.9368 21.1921 9.9513 21.1921 7.50212H20.9921C20.9921 9.84085 19.0962 11.7368 16.7575 11.7368V11.9368ZM21.1921 7.50212C21.1921 5.05293 19.2066 3.06748 16.7575 3.06748V3.26748C19.0962 3.26748 20.9921 5.16339 20.9921 7.50212H21.1921ZM16.7575 3.06748C14.3083 3.06748 12.3229 5.05293 12.3229 7.50212H12.5229C12.5229 5.16339 14.4188 3.26748 16.7575 3.26748V3.06748ZM12.3229 7.50212C12.3229 9.9513 14.3083 11.9368 16.7575 11.9368V11.7368C14.4188 11.7368 12.5229 9.84085 12.5229 7.50212H12.3229ZM16.7578 14.1039C20.404 14.1039 23.3598 11.1481 23.3598 7.50196H23.1598C23.1598 11.0377 20.2935 13.9039 16.7578 13.9039V14.1039ZM23.3598 7.50196C23.3598 3.8558 20.404 0.9 16.7578 0.9V1.1C20.2935 1.1 23.1598 3.96625 23.1598 7.50196H23.3598ZM16.7578 0.9C13.1117 0.9 10.1559 3.8558 10.1559 7.50196H10.3559C10.3559 3.96625 13.2221 1.1 16.7578 1.1V0.9ZM10.1559 7.50196C10.1559 11.1481 13.1117 14.1039 16.7578 14.1039V13.9039C13.2221 13.9039 10.3559 11.0377 10.3559 7.50196H10.1559Z" fill="white" mask="url(#path-4-outside-1_433_4562)"/>
<rect x="17.6787" y="13.9844" width="11.0158" height="11.0158" rx="5.50792" fill="#1E1E53"/>
<circle cx="23.1863" cy="19.492" r="4.14473" stroke="white" stroke-width="1.3"/>
<path opacity="0.973" d="M21.0477 19.5601V19.596L21.0618 19.629C21.0821 19.6764 21.1062 19.7225 21.1338 19.7672L21.1422 19.7808L21.1529 19.7927C21.5335 20.2138 21.918 20.6313 22.3066 21.0454L22.3218 21.0616L22.3405 21.0735C22.4179 21.1225 22.5045 21.1525 22.5979 21.1525C22.6913 21.1525 22.7779 21.1225 22.8553 21.0735L22.8735 21.0619L22.8884 21.0463C23.6542 20.2416 24.4233 19.4411 25.1957 18.6448L25.2027 18.6376L25.2088 18.6297C25.2753 18.5432 25.3186 18.4444 25.3245 18.3351C25.3304 18.226 25.2982 18.1229 25.2419 18.0294L25.2318 18.0125L25.2182 17.9984C25.1341 17.9108 25.0303 17.8461 24.9066 17.8342C24.7826 17.8223 24.6686 17.8663 24.5699 17.9369L24.5566 17.9464L24.5453 17.9582L22.6055 19.9847L21.7877 19.1012L21.7645 19.0762L21.7336 19.0617C21.609 19.0033 21.4712 18.9776 21.3384 19.0285C21.2065 19.0789 21.1197 19.1895 21.0631 19.3154L21.0477 19.3496V19.3872V19.3876V19.3879V19.3882V19.3886V19.3889V19.3892V19.3896V19.3899V19.3903V19.3906V19.3909V19.3913V19.3916V19.3919V19.3923V19.3926V19.393V19.3933V19.3936V19.394V19.3943V19.3946V19.395V19.3953V19.3957V19.396V19.3963V19.3967V19.397V19.3973V19.3977V19.398V19.3984V19.3987V19.399V19.3994V19.3997V19.4V19.4004V19.4007V19.4011V19.4014V19.4017V19.4021V19.4024V19.4027V19.4031V19.4034V19.4038V19.4041V19.4044V19.4048V19.4051V19.4054V19.4058V19.4061V19.4065V19.4068V19.4071V19.4075V19.4078V19.4081V19.4085V19.4088V19.4092V19.4095V19.4098V19.4102V19.4105V19.4108V19.4112V19.4115V19.4119V19.4122V19.4125V19.4129V19.4132V19.4135V19.4139V19.4142V19.4146V19.4149V19.4152V19.4156V19.4159V19.4162V19.4166V19.4169V19.4173V19.4176V19.4179V19.4183V19.4186V19.4189V19.4193V19.4196V19.42V19.4203V19.4206V19.421V19.4213V19.4217V19.422V19.4223V19.4227V19.423V19.4233V19.4237V19.424V19.4244V19.4247V19.425V19.4254V19.4257V19.426V19.4264V19.4267V19.4271V19.4274V19.4277V19.4281V19.4284V19.4287V19.4291V19.4294V19.4298V19.4301V19.4304V19.4308V19.4311V19.4314V19.4318V19.4321V19.4325V19.4328V19.4331V19.4335V19.4338V19.4341V19.4345V19.4348V19.4352V19.4355V19.4358V19.4362V19.4365V19.4368V19.4372V19.4375V19.4379V19.4382V19.4385V19.4389V19.4392V19.4395V19.4399V19.4402V19.4406V19.4409V19.4412V19.4416V19.4419V19.4422V19.4426V19.4429V19.4433V19.4436V19.4439V19.4443V19.4446V19.4449V19.4453V19.4456V19.446V19.4463V19.4466V19.447V19.4473V19.4476V19.448V19.4483V19.4487V19.449V19.4493V19.4497V19.45V19.4503V19.4507V19.451V19.4514V19.4517V19.452V19.4524V19.4527V19.453V19.4534V19.4537V19.4541V19.4544V19.4547V19.4551V19.4554V19.4557V19.4561V19.4564V19.4568V19.4571V19.4574V19.4578V19.4581V19.4585V19.4588V19.4591V19.4595V19.4598V19.4601V19.4605V19.4608V19.4612V19.4615V19.4618V19.4622V19.4625V19.4628V19.4632V19.4635V19.4639V19.4642V19.4645V19.4649V19.4652V19.4655V19.4659V19.4662V19.4666V19.4669V19.4672V19.4676V19.4679V19.4682V19.4686V19.4689V19.4693V19.4696V19.4699V19.4703V19.4706V19.4709V19.4713V19.4716V19.472V19.4723V19.4726V19.473V19.4733V19.4736V19.474V19.4743V19.4747V19.475V19.4753V19.4757V19.476V19.4763V19.4767V19.477V19.4774V19.4777V19.478V19.4784V19.4787V19.479V19.4794V19.4797V19.4801V19.4804V19.4807V19.4811V19.4814V19.4817V19.4821V19.4824V19.4828V19.4831V19.4834V19.4838V19.4841V19.4844V19.4848V19.4851V19.4855V19.4858V19.4861V19.4865V19.4868V19.4871V19.4875V19.4878V19.4882V19.4885V19.4888V19.4892V19.4895V19.4898V19.4902V19.4905V19.4909V19.4912V19.4915V19.4919V19.4922V19.4925V19.4929V19.4932V19.4936V19.4939V19.4942V19.4946V19.4949V19.4953V19.4956V19.4959V19.4963V19.4966V19.4969V19.4973V19.4976V19.498V19.4983V19.4986V19.499V19.4993V19.4996V19.5V19.5003V19.5007V19.501V19.5013V19.5017V19.502V19.5023V19.5027V19.503V19.5034V19.5037V19.504V19.5044V19.5047V19.505V19.5054V19.5057V19.5061V19.5064V19.5067V19.5071V19.5074V19.5077V19.5081V19.5084V19.5088V19.5091V19.5094V19.5098V19.5101V19.5104V19.5108V19.5111V19.5115V19.5118V19.5121V19.5125V19.5128V19.5131V19.5135V19.5138V19.5142V19.5145V19.5148V19.5152V19.5155V19.5158V19.5162V19.5165V19.5169V19.5172V19.5175V19.5179V19.5182V19.5185V19.5189V19.5192V19.5196V19.5199V19.5202V19.5206V19.5209V19.5212V19.5216V19.5219V19.5223V19.5226V19.5229V19.5233V19.5236V19.5239V19.5243V19.5246V19.525V19.5253V19.5256V19.526V19.5263V19.5266V19.527V19.5273V19.5277V19.528V19.5283V19.5287V19.529V19.5293V19.5297V19.53V19.5304V19.5307V19.531V19.5314V19.5317V19.5321V19.5324V19.5327V19.5331V19.5334V19.5337V19.5341V19.5344V19.5348V19.5351V19.5354V19.5358V19.5361V19.5364V19.5368V19.5371V19.5375V19.5378V19.5381V19.5385V19.5388V19.5391V19.5395V19.5398V19.5402V19.5405V19.5408V19.5412V19.5415V19.5418V19.5422V19.5425V19.5429V19.5432V19.5435V19.5439V19.5442V19.5445V19.5449V19.5452V19.5456V19.5459V19.5462V19.5466V19.5469V19.5472V19.5476V19.5479V19.5483V19.5486V19.5489V19.5493V19.5496V19.5499V19.5503V19.5506V19.551V19.5513V19.5516V19.552V19.5523V19.5526V19.553V19.5533V19.5537V19.554V19.5543V19.5547V19.555V19.5553V19.5557V19.556V19.5564V19.5567V19.557V19.5574V19.5577V19.558V19.5584V19.5587V19.5591V19.5594V19.5597V19.5601Z" fill="white" stroke="white" stroke-width="0.35"/>
</g>
</svg>
