<svg width="101" height="91" viewBox="0 0 101 91" fill="none" xmlns="http://www.w3.org/2000/svg">
<path opacity="0.4" d="M8.31647 56.27V57.572H5.72647V66H4.13047V57.572H1.52647V56.27H8.31647ZM9.40081 62.108C9.40081 61.3333 9.55948 60.6473 9.87681 60.05C10.2035 59.4527 10.6421 58.9907 11.1928 58.664C11.7528 58.328 12.3688 58.16 13.0408 58.16C13.6475 58.16 14.1748 58.2813 14.6228 58.524C15.0801 58.7573 15.4441 59.0513 15.7148 59.406V58.286H17.3248V66H15.7148V64.852C15.4441 65.216 15.0755 65.5193 14.6088 65.762C14.1421 66.0047 13.6101 66.126 13.0128 66.126C12.3501 66.126 11.7435 65.958 11.1928 65.622C10.6421 65.2767 10.2035 64.8007 9.87681 64.194C9.55948 63.578 9.40081 62.8827 9.40081 62.108ZM15.7148 62.136C15.7148 61.604 15.6028 61.142 15.3788 60.75C15.1641 60.358 14.8795 60.0593 14.5248 59.854C14.1701 59.6487 13.7875 59.546 13.3768 59.546C12.9661 59.546 12.5835 59.6487 12.2288 59.854C11.8741 60.05 11.5848 60.344 11.3608 60.736C11.1461 61.1187 11.0388 61.576 11.0388 62.108C11.0388 62.64 11.1461 63.1067 11.3608 63.508C11.5848 63.9093 11.8741 64.2173 12.2288 64.432C12.5928 64.6373 12.9755 64.74 13.3768 64.74C13.7875 64.74 14.1701 64.6373 14.5248 64.432C14.8795 64.2267 15.1641 63.928 15.3788 63.536C15.6028 63.1347 15.7148 62.668 15.7148 62.136ZM21.0171 59.42C21.2878 59.0653 21.6564 58.7667 22.1231 58.524C22.5898 58.2813 23.1171 58.16 23.7051 58.16C24.3771 58.16 24.9884 58.328 25.5391 58.664C26.0991 58.9907 26.5378 59.4527 26.8551 60.05C27.1724 60.6473 27.3311 61.3333 27.3311 62.108C27.3311 62.8827 27.1724 63.578 26.8551 64.194C26.5378 64.8007 26.0991 65.2767 25.5391 65.622C24.9884 65.958 24.3771 66.126 23.7051 66.126C23.1171 66.126 22.5944 66.0093 22.1371 65.776C21.6798 65.5333 21.3064 65.2347 21.0171 64.88V69.668H19.4211V58.286H21.0171V59.42ZM25.7071 62.108C25.7071 61.576 25.5951 61.1187 25.3711 60.736C25.1564 60.344 24.8671 60.05 24.5031 59.854C24.1484 59.6487 23.7658 59.546 23.3551 59.546C22.9538 59.546 22.5711 59.6487 22.2071 59.854C21.8524 60.0593 21.5631 60.358 21.3391 60.75C21.1244 61.142 21.0171 61.604 21.0171 62.136C21.0171 62.668 21.1244 63.1347 21.3391 63.536C21.5631 63.928 21.8524 64.2267 22.2071 64.432C22.5711 64.6373 22.9538 64.74 23.3551 64.74C23.7658 64.74 24.1484 64.6373 24.5031 64.432C24.8671 64.2173 25.1564 63.9093 25.3711 63.508C25.5951 63.1067 25.7071 62.64 25.7071 62.108ZM34.4081 59.588V63.858C34.4081 64.1473 34.4734 64.3573 34.6041 64.488C34.7441 64.6093 34.9774 64.67 35.3041 64.67H36.2841V66H35.0241C34.3054 66 33.7548 65.832 33.3721 65.496C32.9894 65.16 32.7981 64.614 32.7981 63.858V59.588H31.8881V58.286H32.7981V56.368H34.4081V58.286H36.2841V59.588H34.4081ZM41.1011 66.126C40.3731 66.126 39.7151 65.9627 39.1271 65.636C38.5391 65.3 38.0771 64.8333 37.7411 64.236C37.4051 63.6293 37.2371 62.9293 37.2371 62.136C37.2371 61.352 37.4097 60.6567 37.7551 60.05C38.1004 59.4433 38.5717 58.9767 39.1691 58.65C39.7664 58.3233 40.4337 58.16 41.1711 58.16C41.9084 58.16 42.5757 58.3233 43.1731 58.65C43.7704 58.9767 44.2417 59.4433 44.5871 60.05C44.9324 60.6567 45.1051 61.352 45.1051 62.136C45.1051 62.92 44.9277 63.6153 44.5731 64.222C44.2184 64.8287 43.7331 65.3 43.1171 65.636C42.5104 65.9627 41.8384 66.126 41.1011 66.126ZM41.1011 64.74C41.5117 64.74 41.8944 64.642 42.2491 64.446C42.6131 64.25 42.9071 63.956 43.1311 63.564C43.3551 63.172 43.4671 62.696 43.4671 62.136C43.4671 61.576 43.3597 61.1047 43.1451 60.722C42.9304 60.33 42.6457 60.036 42.2911 59.84C41.9364 59.644 41.5537 59.546 41.1431 59.546C40.7324 59.546 40.3497 59.644 39.9951 59.84C39.6497 60.036 39.3744 60.33 39.1691 60.722C38.9637 61.1047 38.8611 61.576 38.8611 62.136C38.8611 62.9667 39.0711 63.6107 39.4911 64.068C39.9204 64.516 40.4571 64.74 41.1011 64.74ZM51.9015 56.27V62.472C51.9015 63.2093 52.0929 63.7647 52.4755 64.138C52.8675 64.5113 53.4089 64.698 54.0995 64.698C54.7995 64.698 55.3409 64.5113 55.7235 64.138C56.1155 63.7647 56.3115 63.2093 56.3115 62.472V56.27H57.9075V62.444C57.9075 63.2373 57.7349 63.9093 57.3895 64.46C57.0442 65.0107 56.5822 65.4213 56.0035 65.692C55.4249 65.9627 54.7855 66.098 54.0855 66.098C53.3855 66.098 52.7462 65.9627 52.1675 65.692C51.5982 65.4213 51.1455 65.0107 50.8095 64.46C50.4735 63.9093 50.3055 63.2373 50.3055 62.444V56.27H51.9015ZM61.5815 59.42C61.8522 59.0653 62.2209 58.7667 62.6875 58.524C63.1542 58.2813 63.6815 58.16 64.2695 58.16C64.9415 58.16 65.5529 58.328 66.1035 58.664C66.6635 58.9907 67.1022 59.4527 67.4195 60.05C67.7369 60.6473 67.8955 61.3333 67.8955 62.108C67.8955 62.8827 67.7369 63.578 67.4195 64.194C67.1022 64.8007 66.6635 65.2767 66.1035 65.622C65.5529 65.958 64.9415 66.126 64.2695 66.126C63.6815 66.126 63.1589 66.0093 62.7015 65.776C62.2442 65.5333 61.8709 65.2347 61.5815 64.88V69.668H59.9855V58.286H61.5815V59.42ZM66.2715 62.108C66.2715 61.576 66.1595 61.1187 65.9355 60.736C65.7209 60.344 65.4315 60.05 65.0675 59.854C64.7129 59.6487 64.3302 59.546 63.9195 59.546C63.5182 59.546 63.1355 59.6487 62.7715 59.854C62.4169 60.0593 62.1275 60.358 61.9035 60.75C61.6889 61.142 61.5815 61.604 61.5815 62.136C61.5815 62.668 61.6889 63.1347 61.9035 63.536C62.1275 63.928 62.4169 64.2267 62.7715 64.432C63.1355 64.6373 63.5182 64.74 63.9195 64.74C64.3302 64.74 64.7129 64.6373 65.0675 64.432C65.4315 64.2173 65.7209 63.9093 65.9355 63.508C66.1595 63.1067 66.2715 62.64 66.2715 62.108ZM71.0698 55.64V66H69.4738V55.64H71.0698ZM76.5112 66.126C75.7832 66.126 75.1252 65.9627 74.5372 65.636C73.9492 65.3 73.4872 64.8333 73.1512 64.236C72.8152 63.6293 72.6472 62.9293 72.6472 62.136C72.6472 61.352 72.8199 60.6567 73.1652 60.05C73.5106 59.4433 73.9819 58.9767 74.5792 58.65C75.1766 58.3233 75.8439 58.16 76.5812 58.16C77.3186 58.16 77.9859 58.3233 78.5832 58.65C79.1806 58.9767 79.6519 59.4433 79.9972 60.05C80.3426 60.6567 80.5152 61.352 80.5152 62.136C80.5152 62.92 80.3379 63.6153 79.9832 64.222C79.6286 64.8287 79.1432 65.3 78.5272 65.636C77.9206 65.9627 77.2486 66.126 76.5112 66.126ZM76.5112 64.74C76.9219 64.74 77.3046 64.642 77.6592 64.446C78.0232 64.25 78.3172 63.956 78.5412 63.564C78.7652 63.172 78.8772 62.696 78.8772 62.136C78.8772 61.576 78.7699 61.1047 78.5552 60.722C78.3406 60.33 78.0559 60.036 77.7012 59.84C77.3466 59.644 76.9639 59.546 76.5532 59.546C76.1426 59.546 75.7599 59.644 75.4052 59.84C75.0599 60.036 74.7846 60.33 74.5792 60.722C74.3739 61.1047 74.2712 61.576 74.2712 62.136C74.2712 62.9667 74.4812 63.6107 74.9012 64.068C75.3306 64.516 75.8672 64.74 76.5112 64.74ZM81.561 62.108C81.561 61.3333 81.7196 60.6473 82.037 60.05C82.3636 59.4527 82.8023 58.9907 83.353 58.664C83.913 58.328 84.529 58.16 85.201 58.16C85.8076 58.16 86.335 58.2813 86.783 58.524C87.2403 58.7573 87.6043 59.0513 87.875 59.406V58.286H89.485V66H87.875V64.852C87.6043 65.216 87.2356 65.5193 86.769 65.762C86.3023 66.0047 85.7703 66.126 85.173 66.126C84.5103 66.126 83.9036 65.958 83.353 65.622C82.8023 65.2767 82.3636 64.8007 82.037 64.194C81.7196 63.578 81.561 62.8827 81.561 62.108ZM87.875 62.136C87.875 61.604 87.763 61.142 87.539 60.75C87.3243 60.358 87.0396 60.0593 86.685 59.854C86.3303 59.6487 85.9476 59.546 85.537 59.546C85.1263 59.546 84.7436 59.6487 84.389 59.854C84.0343 60.05 83.745 60.344 83.521 60.736C83.3063 61.1187 83.199 61.576 83.199 62.108C83.199 62.64 83.3063 63.1067 83.521 63.508C83.745 63.9093 84.0343 64.2173 84.389 64.432C84.753 64.6373 85.1356 64.74 85.537 64.74C85.9476 64.74 86.3303 64.6373 86.685 64.432C87.0396 64.2267 87.3243 63.928 87.539 63.536C87.763 63.1347 87.875 62.668 87.875 62.136ZM91.0493 62.108C91.0493 61.3333 91.2079 60.6473 91.5253 60.05C91.8519 59.4527 92.2906 58.9907 92.8413 58.664C93.4013 58.328 94.0219 58.16 94.7033 58.16C95.2073 58.16 95.7019 58.272 96.1873 58.496C96.6819 58.7107 97.0739 59 97.3633 59.364V55.64H98.9733V66H97.3633V64.838C97.1019 65.2113 96.7379 65.5193 96.2713 65.762C95.8139 66.0047 95.2866 66.126 94.6893 66.126C94.0173 66.126 93.4013 65.958 92.8413 65.622C92.2906 65.2767 91.8519 64.8007 91.5253 64.194C91.2079 63.578 91.0493 62.8827 91.0493 62.108ZM97.3633 62.136C97.3633 61.604 97.2513 61.142 97.0273 60.75C96.8126 60.358 96.5279 60.0593 96.1733 59.854C95.8186 59.6487 95.4359 59.546 95.0253 59.546C94.6146 59.546 94.2319 59.6487 93.8773 59.854C93.5226 60.05 93.2333 60.344 93.0093 60.736C92.7946 61.1187 92.6873 61.576 92.6873 62.108C92.6873 62.64 92.7946 63.1067 93.0093 63.508C93.2333 63.9093 93.5226 64.2173 93.8773 64.432C94.2413 64.6373 94.6239 64.74 95.0253 64.74C95.4359 64.74 95.8186 64.6373 96.1733 64.432C96.5279 64.2267 96.8126 63.928 97.0273 63.536C97.2513 63.1347 97.3633 62.668 97.3633 62.136ZM30.4824 83.012H26.4084L25.7084 85H24.0424L27.5284 75.256H29.3764L32.8624 85H31.1824L30.4824 83.012ZM30.0344 81.71L28.4524 77.188L26.8564 81.71H30.0344ZM46.4008 75.27L42.7468 85H40.8988L37.2308 75.27H38.9388L41.8228 83.362L44.7208 75.27H46.4008ZM48.5475 76.264C48.2582 76.264 48.0155 76.166 47.8195 75.97C47.6235 75.774 47.5255 75.5313 47.5255 75.242C47.5255 74.9527 47.6235 74.71 47.8195 74.514C48.0155 74.318 48.2582 74.22 48.5475 74.22C48.8275 74.22 49.0655 74.318 49.2615 74.514C49.4575 74.71 49.5555 74.9527 49.5555 75.242C49.5555 75.5313 49.4575 75.774 49.2615 75.97C49.0655 76.166 48.8275 76.264 48.5475 76.264ZM49.3315 77.286V85H47.7355V77.286H49.3315ZM50.895 81.108C50.895 80.3333 51.0536 79.6473 51.371 79.05C51.6976 78.4527 52.1363 77.9907 52.687 77.664C53.247 77.328 53.8676 77.16 54.549 77.16C55.053 77.16 55.5476 77.272 56.033 77.496C56.5276 77.7107 56.9196 78 57.209 78.364V74.64H58.819V85H57.209V83.838C56.9476 84.2113 56.5836 84.5193 56.117 84.762C55.6596 85.0047 55.1323 85.126 54.535 85.126C53.863 85.126 53.247 84.958 52.687 84.622C52.1363 84.2767 51.6976 83.8007 51.371 83.194C51.0536 82.578 50.895 81.8827 50.895 81.108ZM57.209 81.136C57.209 80.604 57.097 80.142 56.873 79.75C56.6583 79.358 56.3736 79.0593 56.019 78.854C55.6643 78.6487 55.2816 78.546 54.871 78.546C54.4603 78.546 54.0776 78.6487 53.723 78.854C53.3683 79.05 53.079 79.344 52.855 79.736C52.6403 80.1187 52.533 80.576 52.533 81.108C52.533 81.64 52.6403 82.1067 52.855 82.508C53.079 82.9093 53.3683 83.2173 53.723 83.432C54.087 83.6373 54.4696 83.74 54.871 83.74C55.2816 83.74 55.6643 83.6373 56.019 83.432C56.3736 83.2267 56.6583 82.928 56.873 82.536C57.097 82.1347 57.209 81.668 57.209 81.136ZM67.9852 80.954C67.9852 81.2433 67.9666 81.5047 67.9292 81.738H62.0352C62.0819 82.354 62.3106 82.8487 62.7212 83.222C63.1319 83.5953 63.6359 83.782 64.2332 83.782C65.0919 83.782 65.6986 83.4227 66.0532 82.704H67.7752C67.5419 83.4133 67.1172 83.9967 66.5012 84.454C65.8946 84.902 65.1386 85.126 64.2332 85.126C63.4959 85.126 62.8332 84.9627 62.2452 84.636C61.6666 84.3 61.2092 83.8333 60.8732 83.236C60.5466 82.6293 60.3832 81.9293 60.3832 81.136C60.3832 80.3427 60.5419 79.6473 60.8592 79.05C61.1859 78.4433 61.6386 77.9767 62.2172 77.65C62.8052 77.3233 63.4772 77.16 64.2332 77.16C64.9612 77.16 65.6099 77.3187 66.1792 77.636C66.7486 77.9533 67.1919 78.4013 67.5092 78.98C67.8266 79.5493 67.9852 80.2073 67.9852 80.954ZM66.3192 80.45C66.3099 79.862 66.0999 79.3907 65.6892 79.036C65.2786 78.6813 64.7699 78.504 64.1632 78.504C63.6126 78.504 63.1412 78.6813 62.7492 79.036C62.3572 79.3813 62.1239 79.8527 62.0492 80.45H66.3192ZM72.9019 85.126C72.1739 85.126 71.5159 84.9627 70.9279 84.636C70.3399 84.3 69.8779 83.8333 69.5419 83.236C69.2059 82.6293 69.0379 81.9293 69.0379 81.136C69.0379 80.352 69.2105 79.6567 69.5559 79.05C69.9012 78.4433 70.3725 77.9767 70.9699 77.65C71.5672 77.3233 72.2345 77.16 72.9719 77.16C73.7092 77.16 74.3765 77.3233 74.9739 77.65C75.5712 77.9767 76.0425 78.4433 76.3879 79.05C76.7332 79.6567 76.9059 80.352 76.9059 81.136C76.9059 81.92 76.7285 82.6153 76.3739 83.222C76.0192 83.8287 75.5339 84.3 74.9179 84.636C74.3112 84.9627 73.6392 85.126 72.9019 85.126ZM72.9019 83.74C73.3125 83.74 73.6952 83.642 74.0499 83.446C74.4139 83.25 74.7079 82.956 74.9319 82.564C75.1559 82.172 75.2679 81.696 75.2679 81.136C75.2679 80.576 75.1605 80.1047 74.9459 79.722C74.7312 79.33 74.4465 79.036 74.0919 78.84C73.7372 78.644 73.3545 78.546 72.9439 78.546C72.5332 78.546 72.1505 78.644 71.7959 78.84C71.4505 79.036 71.1752 79.33 70.9699 79.722C70.7645 80.1047 70.6619 80.576 70.6619 81.136C70.6619 81.9667 70.8719 82.6107 71.2919 83.068C71.7212 83.516 72.2579 83.74 72.9019 83.74Z" fill="white"/>
<g opacity="0.2">
<path opacity="0.995" d="M24.2148 36.4613C23.3043 35.6143 22.6412 34.4626 22.25 32.965V32.9537V32.9007V32.8477V32.7948V32.7418V32.6888V32.6359V32.5829V32.5299V32.477V32.424V32.371V32.3181V32.2651V32.2121V32.1592V32.1062V32.0532V32.0003V31.9473V31.8943V31.8414V31.7884V31.7354V31.6825V31.6295V31.5765V31.5236V31.4706V31.4176V31.3646V31.3117V31.2587V31.2057V31.1528V31.0998V31.0468V30.9939V30.9409V30.8879V30.835V30.782V30.729V30.6761V30.6231V30.5701V30.5172V30.4642V30.4112V30.3583V30.3053V30.2523V30.1994V30.1464V30.0934V30.0405V29.9875V29.9345V29.8816V29.8286V29.7756V29.7227V29.6697V29.6167V29.5638V29.5108V29.4578V29.4049V29.3519V29.2989V29.246V29.193V29.14V29.0871V29.0341V28.9811V28.9282V28.8752V28.8222V28.7693V28.7163V28.6633V28.6104V28.5574V28.5044V28.4515V28.3985V28.3455V28.2926V28.2396V28.1866V28.1337V28.0807V28.0277V27.9748V27.9218V27.8688V27.8159V27.7629V27.7099V27.6569V27.604V27.551V27.498V27.4451V27.3921V27.3391V27.2862V27.2332V27.1802V27.1273V27.0743V27.0213V26.9684V26.9154V26.8624V26.8095V26.7565V26.7035V26.6506V26.5976V26.5446V26.4917V26.4387V26.3857V26.3328V26.2798V26.2268V26.1739V26.1209V26.0679V26.015V25.962V25.909V25.8561V25.8031V25.7501V25.6972V25.6442V25.5912V25.5383V25.4853V25.4323V25.3794V25.3264V25.2734V25.2205V25.1675V25.1145V25.0616V25.0086V24.9556V24.9027V24.8497V24.7967V24.7438V24.6908V24.6378V24.5849V24.5319V24.4789V24.426V24.373V24.32V24.2671V24.2141V24.1611V24.1082V24.0552V24.0022V23.9492V23.8963V23.8433V23.7903V23.7374V23.6844V23.6314V23.5785V23.5255V23.4725V23.4196V23.3666V23.3136V23.2607V23.2077V23.1547V23.1018V23.0488V22.9958V22.9429V22.8899V22.8369V22.784V22.731V22.678V22.6251V22.5721V22.5191V22.4662V22.4132V22.3602V22.3073V22.2543V22.2013V22.1484V22.0954V22.0424V21.9895V21.9365V21.8835V21.8306V21.7776V21.7246V21.6717V21.6187V21.5657V21.5128V21.4598V21.4068V21.3539V21.3009V21.2479V21.195V21.142V21.089V21.0361V20.9831V20.9301V20.8772V20.8242V20.7712V20.7183V20.6653V20.6123V20.5594V20.5064V20.4534V20.4005V20.3475V20.2945V20.2416V20.1886V20.1356V20.0826V20.0297V19.9767V19.9237V19.8708V19.8178V19.7648V19.7119V19.6589V19.6059V19.553V19.5V19.447V19.3941V19.3411V19.2881V19.2352V19.1822V19.1292V19.0763V19.0233V18.9703V18.9174V18.8644V18.8114V18.7585V18.7055V18.6525V18.5996V18.5466V18.4936V18.4407V18.3877V18.3347V18.2818V18.2288V18.1758V18.1229V18.0699V18.0169V17.964V17.911V17.858V17.8051V17.7521V17.6991V17.6462V17.5932V17.5402V17.4873V17.4343V17.3813V17.3284V17.2754V17.2224V17.1695V17.1165V17.0635V17.0106V16.9576V16.9046V16.8517V16.7987V16.7457V16.6928V16.6398V16.5868V16.5339V16.4809V16.4279V16.3749V16.322V16.269V16.216V16.1631V16.1101V16.0571V16.0042V15.9512V15.8982V15.8453V15.7923V15.7393V15.6864V15.6334V15.5804V15.5275V15.4745V15.4215V15.3686V15.3156V15.2626V15.2097V15.1567V15.1037V15.0508V14.9978V14.9448V14.8919V14.8389V14.7859V14.733V14.68V14.627V14.5741V14.5211V14.4681V14.4152V14.3622V14.3092V14.2563V14.2033V14.1503V14.0974V14.0444V13.9914V13.9385V13.8855V13.8325V13.7796V13.7266V13.6736V13.6207V13.5677V13.5147V13.4618V13.4088V13.3558V13.3029V13.2499V13.1969V13.144V13.091V13.038V12.9851V12.9321V12.8791V12.8262V12.7732V12.7202V12.6672V12.6143V12.5613V12.5083V12.4554V12.4024V12.3494V12.2965V12.2435V12.1905V12.1376V12.0846V12.0316V11.9787V11.9257V11.8727V11.8198V11.7668V11.7138V11.6609V11.6079V11.5549V11.502V11.449V11.396V11.3431V11.2901V11.2371V11.1842V11.1312V11.0782V11.0253V10.9723V10.9193V10.8664V10.8134V10.7604V10.7075V10.6545V10.6015V10.5486V10.4956V10.4426V10.3897V10.3367V10.2837V10.2308V10.1778V10.1248V10.0719V10.0189V9.96593V9.91296V9.85999V9.80702V9.75406V9.70109V9.64812V9.59516V9.54219V9.48922V9.43625V9.38329V9.33032V9.27735V9.22439V9.17142V9.11845V9.06549V9.01252V8.95955V8.90658V8.85362V8.80065V8.74768V8.69471V8.64175V8.58878V8.53581V8.48285V8.42988V8.37691V8.32395V8.27098V8.21801V8.16504V8.11208V8.05911V8.00614V7.95317V7.90021V7.84724V7.79427V7.74131V7.68834V7.63537V7.5824V7.52944V7.47647V7.4235V7.37054V7.31757V7.2646V7.21163V7.15867V7.1057V7.05273V6.99977V6.9468V6.89383V6.84086V6.7879V6.73493V6.68196V6.629V6.57603V6.52306V6.47009V6.41713V6.36416V6.31119V6.25823V6.20526V6.15229V6.09932V6.04636V6.03503C22.6412 4.53739 23.3043 3.38568 24.2148 2.5387C25.1313 1.68622 26.342 1.10174 27.8876 0.814051C38.4568 0.728625 49.0261 0.72865 59.5953 0.814127C61.2299 1.07565 62.481 1.66773 63.4009 2.55202C64.3182 3.43384 64.9595 4.65755 65.2887 6.27653C65.3737 15.09 65.3737 23.9034 65.2888 32.7169C64.936 34.3079 64.2835 35.5222 63.3625 36.4076C62.4389 37.2954 61.1966 37.8993 59.5887 38.1859C49.0217 38.2714 38.4546 38.2714 27.8876 38.186C26.342 37.8983 25.1312 37.3138 24.2148 36.4613Z" fill="white" stroke="white" stroke-width="1.5"/>
<path opacity="0.99" d="M84.971 5.12412C85.6943 5.52757 86.3009 6.24528 86.7501 7.37264V7.37529V7.42296V7.47063V7.5183V7.56597V7.61364V7.66131V7.70898V7.75665V7.80432V7.85199V7.89966V7.94733V7.995V8.04267V8.09034V8.13801V8.18568V8.23335V8.28102V8.3287V8.37637V8.42404V8.47171V8.51938V8.56705V8.61472V8.66239V8.71006V8.75773V8.8054V8.85307V8.90074V8.94841V8.99608V9.04375V9.09142V9.13909V9.18676V9.23443V9.2821V9.32978V9.37745V9.42512V9.47279V9.52046V9.56813V9.6158V9.66347V9.71114V9.75881V9.80648V9.85415V9.90182V9.94949V9.99716V10.0448V10.0925V10.1402V10.1878V10.2355V10.2832V10.3309V10.3785V10.4262V10.4739V10.5215V10.5692V10.6169V10.6645V10.7122V10.7599V10.8076V10.8552V10.9029V10.9506V10.9982V11.0459V11.0936V11.1413V11.1889V11.2366V11.2843V11.3319V11.3796V11.4273V11.4749V11.5226V11.5703V11.618V11.6656V11.7133V11.761V11.8086V11.8563V11.904V11.9517V11.9993V12.047V12.0947V12.1423V12.19V12.2377V12.2853V12.333V12.3807V12.4284V12.476V12.5237V12.5714V12.619V12.6667V12.7144V12.762V12.8097V12.8574V12.9051V12.9527V13.0004V13.0481V13.0957V13.1434V13.1911V13.2388V13.2864V13.3341V13.3818V13.4294V13.4771V13.5248V13.5724V13.6201V13.6678V13.7155V13.7631V13.8108V13.8585V13.9061V13.9538V14.0015V14.0492V14.0968V14.1445V14.1922V14.2398V14.2875V14.3352V14.3828V14.4305V14.4782V14.5259V14.5735V14.6212V14.6689V14.7165V14.7642V14.8119V14.8596V14.9072V14.9549V15.0026V15.0502V15.0979V15.1456V15.1932V15.2409V15.2886V15.3363V15.3839V15.4316V15.4793V15.5269V15.5746V15.6223V15.6699V15.7176V15.7653V15.813V15.8606V15.9083V15.956V16.0036V16.0513V16.099V16.1467V16.1943V16.242V16.2897V16.3373V16.385V16.4327V16.4803V16.528V16.5757V16.6234V16.671V16.7187V16.7664V16.814V16.8617V16.9094V16.9571V17.0047V17.0524V17.1001V17.1477V17.1954V17.2431V17.2907V17.3384V17.3861V17.4338V17.4814V17.5291V17.5768V17.6244V17.6721V17.7198V17.7675V17.8151V17.8628V17.9105V17.9581V18.0058V18.0535V18.1011V18.1488V18.1965V18.2442V18.2918V18.3395V18.3872V18.4348V18.4825V18.5302V18.5778V18.6255V18.6732V18.7209V18.7685V18.8162V18.8639V18.9115V18.9592V19.0069V19.0546V19.1022V19.1499V19.1976V19.2452V19.2929V19.3406V19.3882V19.4359V19.4836V19.5313V19.5789V19.6266V19.6743V19.7219V19.7696V19.8173V19.865V19.9126V19.9603V20.008V20.0556V20.1033V20.151V20.1986V20.2463V20.294V20.3417V20.3893V20.437V20.4847V20.5323V20.58V20.6277V20.6753V20.723V20.7707V20.8184V20.866V20.9137V20.9614V21.009V21.0567V21.1044V21.1521V21.1997V21.2474V21.2951V21.3427V21.3904V21.4381V21.4857V21.5334V21.5811V21.6288V21.6764V21.7241V21.7718V21.8194V21.8671V21.9148V21.9625V22.0101V22.0578V22.1055V22.1531V22.2008V22.2485V22.2961V22.3438V22.3915V22.4392V22.4868V22.5345V22.5822V22.6298V22.6775V22.7252V22.7729V22.8205V22.8682V22.9159V22.9635V23.0112V23.0589V23.1065V23.1542V23.2019V23.2496V23.2972V23.3449V23.3926V23.4402V23.4879V23.5356V23.5832V23.6309V23.6786V23.7263V23.7739V23.8216V23.8693V23.9169V23.9646V24.0123V24.06V24.1076V24.1553V24.203V24.2506V24.2983V24.346V24.3936V24.4413V24.489V24.5367V24.5843V24.632V24.6797V24.7273V24.775V24.8227V24.8704V24.918V24.9657V25.0134V25.061V25.1087V25.1564V25.204V25.2517V25.2994V25.3471V25.3947V25.4424V25.4901V25.5377V25.5854V25.6331V25.6807V25.7284V25.7761V25.8238V25.8714V25.9191V25.9668V26.0144V26.0621V26.1098V26.1575V26.2051V26.2528V26.3005V26.3481V26.3958V26.4435V26.4911V26.5388V26.5865V26.6342V26.6818V26.7295V26.7772V26.8248V26.8725V26.9202V26.9679V27.0155V27.0632V27.1109V27.1585V27.2062V27.2539V27.3015V27.3492V27.3969V27.4446V27.4922V27.5399V27.5876V27.6352V27.6829V27.7306V27.7782V27.8259V27.8736V27.9213V27.9689V28.0166V28.0643V28.1119V28.1596V28.2073V28.255V28.3026V28.3503V28.398V28.4456V28.4933V28.541V28.5886V28.6363V28.684V28.7317V28.7793V28.827V28.8747V28.9223V28.97V29.0177V29.0654V29.113V29.1607V29.2084V29.256V29.3037V29.3514V29.399V29.4467V29.4944V29.5421V29.5897V29.6374V29.6851V29.7327V29.7804V29.8281V29.8758V29.9234V29.9711V30.0188V30.0664V30.1141V30.1618V30.2094V30.2571V30.3048V30.3525V30.4001V30.4478V30.4955V30.5431V30.5908V30.6385V30.6861V30.7338V30.7815V30.8292V30.8768V30.9245V30.9722V31.0198V31.0675V31.1152V31.1629V31.2105V31.2582V31.3059V31.3535V31.4012V31.4489V31.4868C86.1329 32.9074 85.3661 33.6913 84.5144 34.0213C83.6404 34.36 82.4998 34.2895 81.0109 33.6189L70.448 27.5188C70.2934 22.1573 70.2935 16.7879 70.4482 11.4106C74.282 9.12676 78.1591 6.91831 82.0798 4.78519C83.2997 4.57608 84.243 4.71805 84.971 5.12412Z" fill="white" stroke="white" stroke-width="1.5"/>
</g>
</svg>
