<svg width="53" height="53" viewBox="0 0 53 53" fill="none" xmlns="http://www.w3.org/2000/svg">
<g opacity="0.4" clip-path="url(#clip0_217_2109)">
<path opacity="0.983" fill-rule="evenodd" clip-rule="evenodd" d="M0.723633 25.7383C0.723633 26.2123 0.723633 26.6862 0.723633 27.1602C0.810471 27.4318 0.928993 27.7027 1.0791 27.9727C4.59367 32.4361 8.74077 36.1771 13.5205 39.1953C22.3226 44.5443 31.1246 44.5443 39.9268 39.1953C44.5674 36.2826 48.613 32.6771 52.0635 28.3789C52.3582 28.0031 52.5782 27.5969 52.7236 27.1602C52.7236 26.6862 52.7236 26.2123 52.7236 25.7383C52.6368 25.4666 52.5183 25.1957 52.3682 24.9258C48.8536 20.4623 44.7065 16.7214 39.9268 13.7031C31.1246 8.35417 22.3226 8.35417 13.5205 13.7031C8.87991 16.6158 4.83427 20.2213 1.38379 24.5195C1.08905 24.8953 0.869072 25.3016 0.723633 25.7383ZM27.4346 14.3633C21.9304 14.3799 17.9863 16.8514 15.6025 21.7773C13.9222 26.2519 14.5316 30.3821 17.4307 34.168C21.1542 38.184 25.64 39.3857 30.8877 37.7734C35.8881 35.6649 38.5288 31.8901 38.8096 26.4492C38.6311 21.9091 36.6337 18.439 32.8174 16.0391C31.132 15.0853 29.3377 14.5267 27.4346 14.3633ZM28.0439 21.2695C27.8408 21.2695 27.6377 21.2695 27.4346 21.2695C27.4346 22.1498 27.4346 23.0299 27.4346 23.9102C28.6014 24.0275 29.2108 24.6707 29.2627 25.8398C30.1793 25.8736 31.0934 25.8396 32.0049 25.7383C31.6788 23.3481 30.3585 21.8585 28.0439 21.2695Z" fill="white"/>
<path opacity="0.98" fill-rule="evenodd" clip-rule="evenodd" d="M27.5366 18.0195C24.1425 17.8969 21.485 19.2173 19.564 21.9805C17.6582 25.5136 17.9291 28.8652 20.3765 32.0351C22.816 34.5622 25.7444 35.3917 29.1616 34.5234C33.2565 32.9886 35.237 30.0263 35.103 25.6367C34.3909 21.2853 31.8687 18.7462 27.5366 18.0195ZM28.0444 21.2695C30.3589 21.8585 31.6792 23.3481 32.0054 25.7383C31.0938 25.8396 30.1798 25.8736 29.2632 25.8398C29.2113 24.6707 28.6019 24.0275 27.435 23.9102C27.435 23.0299 27.435 22.1498 27.435 21.2695C27.6382 21.2695 27.8413 21.2695 28.0444 21.2695Z" fill="white"/>
</g>
<defs>
<clipPath id="clip0_217_2109">
<rect width="52" height="52" fill="white" transform="matrix(-1 0 0 1 52.6729 0.5)"/>
</clipPath>
</defs>
</svg>
