<svg width="57" height="57" viewBox="0 0 57 57" fill="none" xmlns="http://www.w3.org/2000/svg">
<g opacity="0.4" clip-path="url(#clip0_217_2171)">
<path opacity="0.991" fill-rule="evenodd" clip-rule="evenodd" d="M26.2119 0.445312C27.8161 0.445312 29.4202 0.445312 31.0244 0.445312C41.991 1.81696 49.8113 7.50446 54.4854 17.5078C55.6115 20.2623 56.3224 23.1061 56.6182 26.0391C56.6182 27.6433 56.6182 29.2474 56.6182 30.8516C55.2465 41.8182 49.559 49.6385 39.5557 54.3125C36.8012 55.4386 33.9574 56.1496 31.0244 56.4453C29.4202 56.4453 27.8161 56.4453 26.2119 56.4453C21.6804 56.003 17.4876 54.5629 13.6338 52.125C13.466 52.024 13.2837 51.9694 13.0869 51.9609C9.54378 53.069 6.00732 54.1993 2.47754 55.3516C3.54337 51.8799 4.67357 48.3982 5.86816 44.9062C2.89753 40.6795 1.14753 35.9946 0.618164 30.8516C0.618164 29.2474 0.618164 27.6433 0.618164 26.0391C1.98981 15.0725 7.67731 7.25216 17.6807 2.57812C20.4352 1.45199 23.2789 0.741055 26.2119 0.445312ZM17.1338 13.3516C17.9367 13.3334 18.7388 13.3516 19.54 13.4062C19.8172 13.4627 20.0541 13.5903 20.251 13.7891C21.4644 16.3429 22.5399 18.9496 23.4775 21.6094C23.3382 22.2347 23.0648 22.7997 22.6572 23.3047C22.1214 23.8307 21.6111 24.3775 21.126 24.9453C20.7775 25.3607 20.6681 25.8347 20.7979 26.3672C23.458 31.1415 27.3408 34.514 32.4463 36.4844C32.9464 36.5814 33.4203 36.5084 33.8682 36.2656C34.6992 35.362 35.4467 34.3959 36.1104 33.3672C36.4737 32.8387 36.9659 32.5106 37.5869 32.3828C40.2641 33.4024 42.8344 34.642 45.2979 36.1016C45.7265 39.6377 44.2864 42.0622 40.9775 43.375C39.464 44.0287 37.8963 44.2111 36.2744 43.9219C30.1022 42.6688 24.8339 39.8068 20.4697 35.3359C18.3629 33.0886 16.4671 30.6824 14.7822 28.1172C13.6092 26.3123 12.8436 24.3435 12.4854 22.2109C12.1533 19.0501 13.1194 16.3704 15.3838 14.1719C15.9353 13.8047 16.5187 13.5313 17.1338 13.3516Z" fill="white"/>
</g>
<defs>
<clipPath id="clip0_217_2171">
<rect width="56" height="56" fill="white" transform="translate(0.672852 0.5)"/>
</clipPath>
</defs>
</svg>
