<svg width="50" height="51" viewBox="0 0 50 51" fill="none" xmlns="http://www.w3.org/2000/svg">
<path opacity="0.974" d="M13.1076 47.4144L13.1848 47.4476C14.1248 47.8525 15.0668 48.2586 16.0108 48.6657C22.4892 51.0566 28.897 50.8955 35.248 48.1821C43.7185 44.086 48.5467 37.3778 49.75 28.0324V28.0308V28.022V28.0132V28.0045V27.9957V27.9869V27.9782V27.9694V27.9606V27.9518V27.9431V27.9343V27.9255V27.9167V27.908V27.8992V27.8904V27.8816V27.8729V27.8641V27.8553V27.8465V27.8378V27.829V27.8202V27.8115V27.8027V27.7939V27.7851V27.7764V27.7676V27.7588V27.75V27.7413V27.7325V27.7237V27.7149V27.7062V27.6974V27.6886V27.6798V27.6711V27.6623V27.6535V27.6448V27.636V27.6272V27.6184V27.6097V27.6009V27.5921V27.5833V27.5746V27.5658V27.557V27.5482V27.5395V27.5307V27.5219V27.5131V27.5044V27.4956V27.4868V27.4781V27.4693V27.4605V27.4517V27.443V27.4342V27.4254V27.4166V27.4079V27.3991V27.3903V27.3815V27.3728V27.364V27.3552V27.3464V27.3377V27.3289V27.3201V27.3113V27.3026V27.2938V27.285V27.2763V27.2675V27.2587V27.2499V27.2412V27.2324V27.2236V27.2148V27.2061V27.1973V27.1885V27.1797V27.171V27.1622V27.1534V27.1446V27.1359V27.1271V27.1183V27.1096V27.1008V27.092V27.0832V27.0745V27.0657V27.0569V27.0481V27.0394V27.0306V27.0218V27.013V27.0043V26.9955V26.9867V26.9779V26.9692V26.9604V26.9516V26.9429V26.9341V26.9253V26.9165V26.9078V26.899V26.8902V26.8814V26.8727V26.8639V26.8551V26.8463V26.8376V26.8288V26.82V26.8112V26.8025V26.7937V26.7849V26.7761V26.7674V26.7586V26.7498V26.7411V26.7323V26.7235V26.7147V26.706V26.6972V26.6884V26.6796V26.6709V26.6621V26.6533V26.6445V26.6358V26.627V26.6182V26.6094V26.6007V26.5919V26.5831V26.5743V26.5656V26.5568V26.548V26.5393V26.5305V26.5217V26.5129V26.5042V26.4954V26.4866V26.4778V26.4691V26.4603V26.4515V26.4427V26.434V26.4252V26.4164V26.4076V26.3989V26.3901V26.3813V26.3725V26.3638V26.355V26.3462V26.3375V26.3287V26.3199V26.3111V26.3024V26.2936V26.2848V26.276V26.2673V26.2585V26.2497V26.2409V26.2322V26.2234V26.2146V26.2058V26.1971V26.1883V26.1795V26.1707V26.162V26.1532V26.1444V26.1357V26.1269V26.1181V26.1093V26.1006V26.0918V26.083V26.0742V26.0655V26.0567V26.0479V26.0391V26.0304V26.0216V26.0128V26.004V25.9953V25.9865V25.9777V25.969V25.9602V25.9514V25.9426V25.9339V25.9251V25.9163V25.9075V25.8988V25.89V25.8812V25.8724V25.8637V25.8549V25.8461V25.8373V25.8286V25.8198V25.811V25.8022V25.7935V25.7847V25.7759V25.7672V25.7584V25.7496V25.7408V25.7321V25.7233V25.7145V25.7057V25.697V25.6882V25.6794V25.6706V25.6619V25.6531V25.6443V25.6355V25.6268V25.618V25.6092V25.6004V25.5917V25.5829V25.5741V25.5654V25.5566V25.5478V25.539V25.5303V25.5215V25.5127V25.5039V25.4952V25.4864V25.4776V25.4688V25.4601V25.4513V25.4425V25.4337V25.425V25.4162V25.4074V25.3986V25.3899V25.3811V25.3723V25.3636V25.3548V25.346V25.3372V25.3285V25.3197V25.3109V25.3021V25.2934V25.2846V25.2758V25.267V25.2583V25.2495V25.2407V25.2319V25.2232V25.2144V25.2056V25.1968V25.1881V25.1793V25.1705V25.1618V25.153V25.1442V25.1354V25.1267V25.1179V25.1091V25.1003V25.0916V25.0828V25.074V25.0652V25.0565V25.0477V25.0389V25.0301V25.0214V25.0126V25.0038V24.995V24.9863V24.9775V24.9687V24.96V24.9512V24.9424V24.9336V24.9249V24.9161V24.9073V24.8985V24.8898V24.881V24.8722V24.8634V24.8547V24.8459V24.8371V24.8283V24.8196V24.8108V24.802V24.7933V24.7845V24.7757V24.7669V24.7582V24.7494V24.7406V24.7318V24.7231V24.7143V24.7055V24.6967V24.688V24.6792V24.6704V24.6616V24.6529V24.6441V24.6353V24.6265V24.6178V24.609V24.6002V24.5915V24.5827V24.5739V24.5651V24.5564V24.5476V24.5388V24.53V24.5213V24.5125V24.5037V24.4949V24.4862V24.4774V24.4686V24.4598V24.4511V24.4423V24.4335V24.4247V24.416V24.4072V24.3984V24.3897V24.3809V24.3721V24.3633V24.3546V24.3458V24.337V24.3282V24.3195V24.3107V24.3019V24.2931V24.2844V24.2756V24.2668V24.258V24.2493V24.2405V24.2317V24.223V24.2142V24.2054V24.1966V24.1879V24.1791V24.1703V24.1615V24.1528V24.144V24.1352V24.1264V24.1177V24.1089V24.1001V24.0913V24.0826V24.0738V24.065V24.0563V24.0475V24.0387V24.0299V24.0212V24.0124V24.0036V23.9948V23.9861V23.9773V23.9685V23.9597V23.951V23.9422V23.9334V23.9246V23.9159V23.9071V23.8983V23.8896V23.8808V23.872V23.8632V23.8545V23.8457V23.8369V23.8281V23.8194V23.8106V23.8018V23.793V23.7843V23.7755V23.7667V23.7579V23.7492V23.7404V23.7316V23.7229V23.7141V23.7053V23.6965V23.6878V23.679V23.6702V23.6614V23.6527V23.6439V23.6351V23.6263V23.6176V23.6088V23.6V23.5912V23.5825V23.5737V23.569C49.444 20.6146 48.6554 17.7831 47.3833 15.0733C43.186 7.01757 36.5737 2.41395 27.5231 1.24756H27.5215H27.5127H27.504H27.4952H27.4864H27.4776H27.4689H27.4601H27.4513H27.4426H27.4338H27.425H27.4162H27.4075H27.3987H27.3899H27.3811H27.3724H27.3636H27.3548H27.346H27.3373H27.3285H27.3197H27.3109H27.3022H27.2934H27.2846H27.2759H27.2671H27.2583H27.2495H27.2408H27.232H27.2232H27.2144H27.2057H27.1969H27.1881H27.1793H27.1706H27.1618H27.153H27.1442H27.1355H27.1267H27.1179H27.1092H27.1004H27.0916H27.0828H27.0741H27.0653H27.0565H27.0477H27.039H27.0302H27.0214H27.0126H27.0039H26.9951H26.9863H26.9775H26.9688H26.96H26.9512H26.9425H26.9337H26.9249H26.9161H26.9074H26.8986H26.8898H26.881H26.8723H26.8635H26.8547H26.8459H26.8372H26.8284H26.8196H26.8108H26.8021H26.7933H26.7845H26.7758H26.767H26.7582H26.7494H26.7407H26.7319H26.7231H26.7143H26.7056H26.6968H26.688H26.6792H26.6705H26.6617H26.6529H26.6441H26.6354H26.6266H26.6178H26.609H26.6003H26.5915H26.5827H26.574H26.5652H26.5564H26.5476H26.5389H26.5301H26.5213H26.5125H26.5038H26.495H26.4862H26.4774H26.4687H26.4599H26.4511H26.4423H26.4336H26.4248H26.416H26.4073H26.3985H26.3897H26.3809H26.3722H26.3634H26.3546H26.3458H26.3371H26.3283H26.3195H26.3107H26.302H26.2932H26.2844H26.2756H26.2669H26.2581H26.2493H26.2405H26.2318H26.223H26.2142H26.2055H26.1967H26.1879H26.1791H26.1704H26.1616H26.1528H26.144H26.1353H26.1265H26.1177H26.1089H26.1002H26.0914H26.0826H26.0738H26.0651H26.0563H26.0475H26.0387H26.03H26.0212H26.0124H26.0037H25.9949H25.9861H25.9773H25.9686H25.9598H25.951H25.9422H25.9335H25.9247H25.9159H25.9071H25.8984H25.8896H25.8808H25.872H25.8633H25.8545H25.8457H25.837H25.8282H25.8194H25.8106H25.8019H25.7931H25.7843H25.7755H25.7668H25.758H25.7492H25.7404H25.7317H25.7229H25.7141H25.7053H25.6966H25.6878H25.679H25.6702H25.6615H25.6527H25.6439H25.6352H25.6264H25.6176H25.6088H25.6001H25.5913H25.5825H25.5737H25.565H25.5562H25.5474H25.5386H25.5299H25.5211H25.5123H25.5035H25.4948H25.486H25.4772H25.4684H25.4597H25.4509H25.4421H25.4334H25.4246H25.4158H25.407H25.3983H25.3895H25.3807H25.3719H25.3632H25.3544H25.3456H25.3368H25.3281H25.3193H25.3105H25.3017H25.293H25.2842H25.2754H25.2666H25.2579H25.2491H25.2403H25.2316H25.2228H25.214H25.2052H25.1965H25.1877H25.1789H25.1701H25.1614H25.1526H25.1438H25.135H25.1263H25.1175H25.1087H25.0999H25.0912H25.0824H25.0736H25.0648H25.0561H25.0473H25.0385H25.0298H25.021H25.0122H25.0034H24.9947H24.9859H24.9771H24.9683H24.9596H24.9508H24.942H24.9332H24.9245H24.9157H24.9069H24.8981H24.8894H24.8806H24.8718H24.863H24.8543H24.8455H24.8367H24.828H24.8192H24.8104H24.8016H24.7929H24.7841H24.7753H24.7665H24.7578H24.749H24.7402H24.7314H24.7227H24.7139H24.7051H24.6963H24.6876H24.6788H24.67H24.6612H24.6525H24.6437H24.6349H24.6262H24.6174H24.6086H24.5998H24.5911H24.5823H24.5735H24.5647H24.556H24.5472H24.5384H24.5296H24.5209H24.5121H24.5033H24.4945H24.4858H24.477H24.4682H24.4594H24.4507H24.4419H24.4331H24.4244H24.4156H24.4068H24.398H24.3893H24.3805H24.3717H24.3629H24.3542H24.3454H24.3366H24.3278H24.3191H24.3103H24.3015H24.2927H24.284H24.2752H24.2664H24.2577H24.2489H24.2401H24.2313H24.2226H24.2138H24.205H24.1962H24.1875H24.1787H24.1699H24.1611H24.1524H24.1436H24.1348H24.126H24.1173H24.1085H24.0997H24.0909H24.0822H24.0734H24.0646H24.0559H24.0471H24.0383H24.0295H24.0208H24.012H24.0032H23.9944H23.9857H23.9769H23.9681H23.9593H23.9506H23.9418H23.933H23.9242H23.9155H23.9067H23.8979H23.8892H23.8804H23.8716H23.8628H23.8541H23.8453H23.8365H23.8277H23.819H23.8102H23.8014H23.7926H23.7839H23.7751H23.7663H23.7575H23.7488H23.74H23.7312H23.7225H23.7137H23.7049H23.6961H23.6874H23.6786H23.6698H23.661H23.6523H23.6435H23.6347H23.6259H23.6172H23.6084H23.5996H23.5908H23.5821H23.5733H23.5645H23.5557H23.547H23.5382H23.5294H23.5207H23.5119H23.5031H23.4943H23.4856H23.4768H23.468H23.4592H23.4505H23.4417H23.4329H23.4241H23.4154H23.4066H23.3978H23.389H23.3803H23.3715H23.3627H23.354H23.3452H23.3364H23.3276H23.3189H23.3101H23.3013H23.2925H23.2838H23.275H23.2662H23.2574H23.2487H23.2399H23.2311H23.2223H23.2136H23.2048H23.196H23.1873H23.1785H23.1697H23.1609H23.1522H23.1434H23.1346H23.1258H23.1171H23.1083H23.0995H23.0907H23.082H23.0732H23.0644H23.0556H23.0469V0.997559L13.1076 47.4144ZM13.1076 47.4144L13.026 47.4345C8.77625 48.4838 4.55315 49.5881 0.35672 50.7476H0.356293H0.35553H0.354767H0.354004H0.353241H0.352478H0.351715H0.350952H0.350189H0.349426H0.348663H0.3479H0.347138H0.346375H0.345612H0.344849H0.344086H0.343323H0.34256H0.341797H0.341034H0.340271H0.339508H0.338745H0.337982H0.337219H0.336456H0.335693H0.334931H0.334168H0.333405H0.332642H0.331879H0.331116H0.330353H0.32959H0.328827H0.328064H0.327301H0.326538H0.325775H0.325012H0.324249H0.323486H0.322724H0.321961H0.321198H0.320435H0.319672H0.318909H0.318146H0.317383H0.31662H0.315857H0.315094H0.314331H0.313568H0.312805H0.312042H0.311279H0.310516H0.309754H0.308991H0.308228H0.307465H0.306702H0.305939H0.305176H0.304413H0.30365H0.302887H0.302124H0.301361H0.300598H0.299835H0.299072H0.298309H0.297547H0.296784H0.296021H0.295258H0.294495H0.293732H0.292969H0.292206H0.291443H0.29068H0.289917H0.289154H0.288391H0.287628H0.286865H0.286102H0.285339H0.284577H0.283814H0.283051H0.282288H0.281525H0.280762H0.279999H0.279236H0.278473H0.27771H0.276947H0.276184H0.275421H0.274658H0.273895H0.273132H0.27237H0.271607H0.270844H0.270081H0.269318H0.268555H0.267792H0.267029H0.266266H0.265503H0.26474H0.263977H0.263214H0.262451H0.261688H0.260925H0.260162H0.2594H0.258637H0.257874H0.257111H0.256348H0.255585H0.254822H0.254059H0.253296H0.252533H0.25177H0.251007H0.250244H0.25M13.1076 47.4144L0.25 50.7476M0.25 50.7476V50.7473V50.7465V50.7458V50.745V50.7443V50.7435V50.7427V50.742V50.7412V50.7404V50.7397V50.7389V50.7382V50.7374V50.7366V50.7359V50.7351V50.7343V50.7336V50.7328V50.732V50.7313V50.7305V50.7298V50.729V50.7282V50.7275V50.7267V50.7259V50.7252V50.7244V50.7237V50.7229V50.7221V50.7214V50.7206V50.7198V50.7191V50.7183V50.7176V50.7168V50.716V50.7153V50.7145V50.7137V50.713V50.7122V50.7114V50.7107V50.7099V50.7092V50.7084V50.7076V50.7069V50.7061V50.7053V50.7046V50.7038V50.7031V50.7023V50.7015V50.7008V50.7V50.6992V50.6985V50.6977V50.697V50.6962V50.6954V50.6947V50.6939V50.6931V50.6924V50.6916V50.6908V50.6901V50.6893V50.6886V50.6878V50.687V50.6863V50.6855V50.6847V50.684V50.6832V50.6825V50.6817V50.6809V50.6802V50.6794V50.6786V50.6779V50.6771V50.6764V50.6756V50.6748V50.6741V50.6733V50.6725V50.6718V50.671V50.6702V50.6695V50.6687V50.668V50.6672V50.6664V50.6657V50.6649V50.6641V50.6634V50.6626V50.6619V50.6611V50.6603V50.6596V50.6588V50.658V50.6573V50.6565V50.6558V50.655V50.6542V50.6535V50.6527V50.6519V50.6512V50.6504V50.6497V50.6489V50.6481V50.6474V50.6466V50.6458V50.6451V50.6443V50.6435V50.6428V50.6424V50.7476ZM24.6135 4.84915L24.6063 4.84904L24.5991 4.84933L24.6094 5.09912L24.6135 4.84915Z" fill="#FF0079" stroke="#1D1D50" stroke-width="0.5"/>
<path opacity="0.975" d="M18.9207 23.2793L18.8975 23.3019L18.8809 23.3297C18.7638 23.5248 18.6987 23.7315 18.6987 23.9466C18.6987 24.1612 18.7635 24.3674 18.88 24.5621C20.9488 28.115 23.9061 30.6425 27.7447 32.1385L27.7573 32.1435L27.7704 32.147C28.1073 32.2377 28.4351 32.1968 28.7392 32.0259L28.7752 32.0057L28.8028 31.9749C29.6391 31.0427 30.4401 30.0831 31.2057 29.096C31.6832 28.9688 32.1413 29.0316 32.5942 29.2906L32.6043 29.2964L32.6149 29.3012C33.8503 29.8622 35.0662 30.462 36.2626 31.1008L36.42 31.1848L36.5507 31.0633C36.5585 31.0559 36.5669 31.0497 36.576 31.0445C36.9526 31.1681 37.261 31.3744 37.5069 31.6645C37.6254 32.8245 37.4555 33.8058 37.0139 34.6216C36.5639 35.453 35.8196 36.1347 34.7603 36.6598C32.981 37.4516 31.155 37.5771 29.2716 37.0364L29.269 37.0357C25.1419 35.8993 21.618 33.7916 18.6926 30.7103C17.1579 29.0141 15.7339 27.2341 14.4203 25.3701C13.6702 24.1866 13.1294 22.9147 12.7975 21.5533C12.3682 18.8893 13.1313 16.6548 15.0954 14.8218C15.4075 14.6383 15.7269 14.5081 16.0537 14.4297C16.7569 14.399 17.4537 14.4425 18.1443 14.5602L18.3979 14.8138C19.1654 16.511 19.9065 18.2193 20.6212 19.9387C20.7362 20.2322 20.7661 20.5305 20.7115 20.8386C20.2508 21.7512 19.6541 22.5645 18.9207 23.2793Z" fill="#FF0079" stroke="#1D1D50" stroke-width="0.5"/>
</svg>
