<svg width="29" height="26" viewBox="0 0 29 26" fill="none" xmlns="http://www.w3.org/2000/svg">
<path fill-rule="evenodd" clip-rule="evenodd" d="M14.3433 2.85352L14.3326 2.85908L8.65704 6.29074L6.70703 7.47468V21.6211C6.70703 22.3817 6.70902 22.798 6.73326 23.0969L6.73618 23.1308L6.76974 23.1337C7.0665 23.1581 7.4795 23.1602 8.23428 23.1602H10.5254V18.0296C10.5254 15.9044 12.2348 14.1816 14.3435 14.1816C16.4523 14.1816 18.1616 15.9044 18.1616 18.0296V23.1602H20.4523C21.2071 23.1602 21.6201 23.1581 21.9168 23.1337L21.9504 23.1308L21.9533 23.0969C21.9775 22.798 21.9795 22.3817 21.9795 21.6211V7.47465L20.0224 6.28635L14.3544 2.85933L14.3433 2.85352ZM18.1616 25.7254H20.4527H20.4528C21.8783 25.7254 22.5911 25.7254 23.1356 25.4458C23.6145 25.1999 24.004 24.8075 24.2479 24.3249C24.5254 23.7761 24.5254 23.0579 24.5254 21.6213V9.00894L26.416 10.1521C27.0188 10.5166 27.8006 10.3196 28.1622 9.71218C28.5239 9.1048 28.3284 8.31699 27.7256 7.95256L21.3342 4.08808L16.4455 1.11992L16.4438 1.11893C16.0892 0.903617 15.8169 0.738332 15.5861 0.614C15.5322 0.583592 15.4774 0.555312 15.4219 0.529148C15.2295 0.434548 15.0628 0.371588 14.8915 0.333536C14.5307 0.253403 14.1567 0.253403 13.7959 0.333548C13.6241 0.371691 13.457 0.434882 13.2639 0.529892C13.2095 0.555619 13.1558 0.583399 13.1027 0.613231C12.8718 0.737578 12.5993 0.902972 12.2442 1.11855L12.242 1.11992L7.34596 4.09252L0.961844 7.95256C0.359114 8.31699 0.163674 9.1048 0.525317 9.71218C0.886945 10.3196 1.66872 10.5166 2.27145 10.1521L4.16203 9.00898V21.6213C4.16203 23.0579 4.16203 23.7761 4.43947 24.3249C4.6835 24.8075 5.0729 25.1999 5.55186 25.4458C6.09634 25.7254 6.80912 25.7254 8.23464 25.7254H8.2347H10.5254V25.7256H18.1616V25.7254ZM15.6157 18.0288V23.1594H13.0703V18.0288C13.0703 17.3203 13.6401 16.7461 14.343 16.7461C15.0459 16.7461 15.6157 17.3203 15.6157 18.0288Z" fill="white"/>
</svg>
