<svg width="24" height="30" viewBox="0 0 24 30" fill="none" xmlns="http://www.w3.org/2000/svg">
<path d="M3.11697 25.1725C3.11697 20.2381 7.11704 16.2381 12.0514 16.2381C16.9857 16.2381 20.9858 20.2381 20.9858 25.1725V27.7394C20.9858 27.9184 21.021 28.0381 21.1092 28.0958C21.1529 28.1244 21.2037 28.1336 21.2562 28.1323C21.3083 28.131 21.3654 28.1194 21.4249 28.103C21.4847 28.0866 21.5497 28.0646 21.6178 28.0414L21.6281 28.0379C21.6935 28.0156 21.7621 27.9922 21.834 27.9706C21.9855 27.9252 22.149 27.8885 22.3193 27.8885C23.0557 27.8885 23.6527 27.2915 23.6527 26.555V25.1725C23.6527 18.7652 18.4587 13.5711 12.0514 13.5711C5.64412 13.5711 0.45 18.7652 0.45 25.1725V27.7394C0.45 28.4759 1.04703 29.0729 1.78349 29.0729C2.51994 29.0729 3.11697 28.4759 3.11697 27.7394V25.1725Z" fill="white" stroke="white" stroke-width="0.1"/>
<mask id="path-2-outside-1_278_5218" maskUnits="userSpaceOnUse" x="3.35156" y="-0.212891" width="17" height="17" fill="black">
<rect fill="white" x="3.35156" y="-0.212891" width="17" height="17"/>
<path fill-rule="evenodd" clip-rule="evenodd" d="M12.0532 13.6227C14.8886 13.6227 17.1872 11.3242 17.1872 8.48879C17.1872 5.65339 14.8886 3.35485 12.0532 3.35485C9.21785 3.35485 6.9193 5.65339 6.9193 8.48879C6.9193 11.3242 9.21785 13.6227 12.0532 13.6227ZM12.0525 16.1889C16.3056 16.1889 19.7534 12.7411 19.7534 8.48803C19.7534 4.23493 16.3056 0.787109 12.0525 0.787109C7.79938 0.787109 4.35156 4.23493 4.35156 8.48803C4.35156 12.7411 7.79938 16.1889 12.0525 16.1889Z"/>
</mask>
<path fill-rule="evenodd" clip-rule="evenodd" d="M12.0532 13.6227C14.8886 13.6227 17.1872 11.3242 17.1872 8.48879C17.1872 5.65339 14.8886 3.35485 12.0532 3.35485C9.21785 3.35485 6.9193 5.65339 6.9193 8.48879C6.9193 11.3242 9.21785 13.6227 12.0532 13.6227ZM12.0525 16.1889C16.3056 16.1889 19.7534 12.7411 19.7534 8.48803C19.7534 4.23493 16.3056 0.787109 12.0525 0.787109C7.79938 0.787109 4.35156 4.23493 4.35156 8.48803C4.35156 12.7411 7.79938 16.1889 12.0525 16.1889Z" fill="white"/>
<path d="M12.0532 13.7227C14.9438 13.7227 17.2872 11.3794 17.2872 8.48879H17.0872C17.0872 11.269 14.8334 13.5227 12.0532 13.5227V13.7227ZM17.2872 8.48879C17.2872 5.59817 14.9438 3.25485 12.0532 3.25485V3.45485C14.8334 3.45485 17.0872 5.70862 17.0872 8.48879H17.2872ZM12.0532 3.25485C9.16262 3.25485 6.8193 5.59817 6.8193 8.48879H7.0193C7.0193 5.70862 9.27308 3.45485 12.0532 3.45485V3.25485ZM6.8193 8.48879C6.8193 11.3794 9.16262 13.7227 12.0532 13.7227V13.5227C9.27308 13.5227 7.0193 11.269 7.0193 8.48879H6.8193ZM12.0525 16.2889C16.3608 16.2889 19.8534 12.7963 19.8534 8.48803H19.6534C19.6534 12.6859 16.2503 16.0889 12.0525 16.0889V16.2889ZM19.8534 8.48803C19.8534 4.1797 16.3608 0.687109 12.0525 0.687109V0.887109C16.2503 0.887109 19.6534 4.29015 19.6534 8.48803H19.8534ZM12.0525 0.687109C7.74415 0.687109 4.25156 4.1797 4.25156 8.48803H4.45156C4.45156 4.29015 7.85461 0.887109 12.0525 0.887109V0.687109ZM4.25156 8.48803C4.25156 12.7963 7.74415 16.2889 12.0525 16.2889V16.0889C7.85461 16.0889 4.45156 12.6859 4.45156 8.48803H4.25156Z" fill="white" mask="url(#path-2-outside-1_278_5218)"/>
</svg>
