<svg width="29" height="28" viewBox="0 0 29 28" fill="none" xmlns="http://www.w3.org/2000/svg">
<circle cx="14.3431" cy="13.9993" r="12.6556" stroke="white" stroke-width="2.5"/>
<path opacity="0.973" d="M8.39844 14.1947V14.2459L8.41862 14.2931C8.47233 14.4185 8.53615 14.5409 8.60982 14.6602L8.62179 14.6796L8.63707 14.6965C9.73981 15.9166 10.854 17.1265 11.9798 18.3262L12.0015 18.3493L12.0283 18.3663C12.2191 18.4872 12.4232 18.5555 12.6369 18.5555C12.8507 18.5555 13.0547 18.4872 13.2455 18.3663L13.2716 18.3498L13.2928 18.3274C15.5143 15.9931 17.7454 13.6709 19.9861 11.3608L19.9961 11.3505L20.0048 11.3392C20.1727 11.1211 20.2736 10.8832 20.2874 10.6281C20.3012 10.3733 20.2268 10.125 20.0842 9.88808L20.0698 9.86406L20.0503 9.84384C19.8351 9.61961 19.5876 9.47265 19.3079 9.44579C19.0278 9.4189 18.7578 9.51647 18.5059 9.69665L18.4868 9.71024L18.4707 9.72712L12.6558 15.8018L10.0981 13.0389L10.065 13.0031L10.0208 12.9824C9.69653 12.8303 9.37288 12.7799 9.07607 12.8935C8.78063 13.0065 8.56924 13.2603 8.42047 13.5907L8.39844 13.6397V13.6933V13.6943V13.6953V13.6963V13.6973V13.6982V13.6992V13.7002V13.7012V13.7021V13.7031V13.7041V13.7051V13.7061V13.707V13.708V13.709V13.71V13.711V13.7119V13.7129V13.7139V13.7149V13.7159V13.7168V13.7178V13.7188V13.7198V13.7207V13.7217V13.7227V13.7237V13.7247V13.7256V13.7266V13.7276V13.7286V13.7296V13.7305V13.7315V13.7325V13.7335V13.7345V13.7354V13.7364V13.7374V13.7384V13.7394V13.7403V13.7413V13.7423V13.7433V13.7442V13.7452V13.7462V13.7472V13.7482V13.7491V13.7501V13.7511V13.7521V13.7531V13.754V13.755V13.756V13.757V13.758V13.7589V13.7599V13.7609V13.7619V13.7629V13.7638V13.7648V13.7658V13.7668V13.7677V13.7687V13.7697V13.7707V13.7717V13.7726V13.7736V13.7746V13.7756V13.7766V13.7775V13.7785V13.7795V13.7805V13.7815V13.7824V13.7834V13.7844V13.7854V13.7864V13.7873V13.7883V13.7893V13.7903V13.7912V13.7922V13.7932V13.7942V13.7952V13.7961V13.7971V13.7981V13.7991V13.8001V13.801V13.802V13.803V13.804V13.805V13.8059V13.8069V13.8079V13.8089V13.8099V13.8108V13.8118V13.8128V13.8138V13.8147V13.8157V13.8167V13.8177V13.8187V13.8196V13.8206V13.8216V13.8226V13.8236V13.8245V13.8255V13.8265V13.8275V13.8285V13.8294V13.8304V13.8314V13.8324V13.8334V13.8343V13.8353V13.8363V13.8373V13.8382V13.8392V13.8402V13.8412V13.8422V13.8431V13.8441V13.8451V13.8461V13.8471V13.848V13.849V13.85V13.851V13.852V13.8529V13.8539V13.8549V13.8559V13.8569V13.8578V13.8588V13.8598V13.8608V13.8617V13.8627V13.8637V13.8647V13.8657V13.8666V13.8676V13.8686V13.8696V13.8706V13.8715V13.8725V13.8735V13.8745V13.8755V13.8764V13.8774V13.8784V13.8794V13.8804V13.8813V13.8823V13.8833V13.8843V13.8852V13.8862V13.8872V13.8882V13.8892V13.8901V13.8911V13.8921V13.8931V13.8941V13.895V13.896V13.897V13.898V13.899V13.8999V13.9009V13.9019V13.9029V13.9038V13.9048V13.9058V13.9068V13.9078V13.9087V13.9097V13.9107V13.9117V13.9127V13.9136V13.9146V13.9156V13.9166V13.9176V13.9185V13.9195V13.9205V13.9215V13.9225V13.9234V13.9244V13.9254V13.9264V13.9273V13.9283V13.9293V13.9303V13.9313V13.9322V13.9332V13.9342V13.9352V13.9362V13.9371V13.9381V13.9391V13.9401V13.9411V13.942V13.943V13.944V13.945V13.946V13.9469V13.9479V13.9489V13.9499V13.9508V13.9518V13.9528V13.9538V13.9548V13.9557V13.9567V13.9577V13.9587V13.9597V13.9606V13.9616V13.9626V13.9636V13.9646V13.9655V13.9665V13.9675V13.9685V13.9695V13.9704V13.9714V13.9724V13.9734V13.9743V13.9753V13.9763V13.9773V13.9783V13.9792V13.9802V13.9812V13.9822V13.9832V13.9841V13.9851V13.9861V13.9871V13.9881V13.989V13.99V13.991V13.992V13.993V13.9939V13.9949V13.9959V13.9969V13.9978V13.9988V13.9998V14.0008V14.0018V14.0027V14.0037V14.0047V14.0057V14.0067V14.0076V14.0086V14.0096V14.0106V14.0116V14.0125V14.0135V14.0145V14.0155V14.0165V14.0174V14.0184V14.0194V14.0204V14.0213V14.0223V14.0233V14.0243V14.0253V14.0262V14.0272V14.0282V14.0292V14.0302V14.0311V14.0321V14.0331V14.0341V14.0351V14.036V14.037V14.038V14.039V14.04V14.0409V14.0419V14.0429V14.0439V14.0448V14.0458V14.0468V14.0478V14.0488V14.0497V14.0507V14.0517V14.0527V14.0537V14.0546V14.0556V14.0566V14.0576V14.0586V14.0595V14.0605V14.0615V14.0625V14.0635V14.0644V14.0654V14.0664V14.0674V14.0683V14.0693V14.0703V14.0713V14.0723V14.0732V14.0742V14.0752V14.0762V14.0772V14.0781V14.0791V14.0801V14.0811V14.0821V14.083V14.084V14.085V14.086V14.0869V14.0879V14.0889V14.0899V14.0909V14.0918V14.0928V14.0938V14.0948V14.0958V14.0967V14.0977V14.0987V14.0997V14.1007V14.1016V14.1026V14.1036V14.1046V14.1056V14.1065V14.1075V14.1085V14.1095V14.1104V14.1114V14.1124V14.1134V14.1144V14.1153V14.1163V14.1173V14.1183V14.1193V14.1202V14.1212V14.1222V14.1232V14.1242V14.1251V14.1261V14.1271V14.1281V14.1291V14.13V14.131V14.132V14.133V14.1339V14.1349V14.1359V14.1369V14.1379V14.1388V14.1398V14.1408V14.1418V14.1428V14.1437V14.1447V14.1457V14.1467V14.1477V14.1486V14.1496V14.1506V14.1516V14.1526V14.1535V14.1545V14.1555V14.1565V14.1574V14.1584V14.1594V14.1604V14.1614V14.1623V14.1633V14.1643V14.1653V14.1663V14.1672V14.1682V14.1692V14.1702V14.1712V14.1721V14.1731V14.1741V14.1751V14.1761V14.177V14.178V14.179V14.18V14.1809V14.1819V14.1829V14.1839V14.1849V14.1858V14.1868V14.1878V14.1888V14.1898V14.1907V14.1917V14.1927V14.1937V14.1947Z" fill="white" stroke="white" stroke-width="0.5"/>
</svg>
