<svg width="27" height="26" viewBox="0 0 27 26" fill="none" xmlns="http://www.w3.org/2000/svg">
<path opacity="0.98" d="M2.20312 0.3H2.17468L2.14736 0.307933C1.40126 0.524575 0.898101 1.01059 0.65385 1.74975L0.64375 1.78031V1.8125V1.82294V1.83337V1.84381V1.85425V1.86469V1.87512V1.88556V1.896V1.90643V1.91687V1.92731V1.93774V1.94818V1.95862V1.96906V1.97949V1.98993V2.00037V2.0108V2.02124V2.03168V2.04211V2.05255V2.06299V2.07343V2.08386V2.0943V2.10474V2.11517V2.12561V2.13605V2.14648V2.15692V2.16736V2.1778V2.18823V2.19867V2.20911V2.21954V2.22998V2.24042V2.25085V2.26129V2.27173V2.28217V2.2926V2.30304V2.31348V2.32391V2.33435V2.34479V2.35522V2.36566V2.3761V2.38654V2.39697V2.40741V2.41785V2.42828V2.43872V2.44916V2.45959V2.47003V2.48047V2.49091V2.50134V2.51178V2.52222V2.53265V2.54309V2.55353V2.56396V2.5744V2.58484V2.59528V2.60571V2.61615V2.62659V2.63702V2.64746V2.6579V2.66833V2.67877V2.68921V2.69965V2.71008V2.72052V2.73096V2.74139V2.75183V2.76227V2.77271V2.78314V2.79358V2.80402V2.81445V2.82489V2.83533V2.84576V2.8562V2.86664V2.87708V2.88751V2.89795V2.90839V2.91882V2.92926V2.9397V2.95013V2.96057V2.97101V2.98145V2.99188V3.00232V3.01276V3.02319V3.03363V3.04407V3.0545V3.06494V3.07538V3.08582V3.09625V3.10669V3.11713V3.12756V3.138V3.14844V3.15887V3.16931V3.17975V3.19019V3.20062V3.21106V3.2215V3.23193V3.24237V3.25281V3.26324V3.27368V3.28412V3.29456V3.30499V3.31543V3.32587V3.3363V3.34674V3.35718V3.36761V3.37805V3.38849V3.39893V3.40936V3.4198V3.43024V3.44067V3.45111V3.46155V3.47198V3.48242V3.49286V3.5033V3.51373V3.52417V3.53461V3.54504V3.55548V3.56592V3.57635V3.58679V3.59723V3.60767V3.6181V3.62854V3.63898V3.64941V3.65985V3.67029V3.68073V3.69116V3.7016V3.71204V3.72247V3.73291V3.74335V3.75378V3.76422V3.77466V3.7851V3.79553V3.80597V3.81641V3.82684V3.83728V3.84772V3.85815V3.86859V3.87903V3.88947V3.8999V3.91034V3.92078V3.93121V3.94165V3.95209V3.96252V3.97296V3.9834V3.99384V4.00427V4.01471V4.02515V4.03558V4.04602V4.05646V4.06689V4.07733V4.08777V4.09821V4.10864V4.11908V4.12952V4.13995V4.15039V4.16083V4.17126V4.1817V4.19214V4.20258V4.21301V4.22345V4.23389V4.24432V4.25476V4.2652V4.27563V4.28607V4.29651V4.30695V4.31738V4.32782V4.33826V4.34869V4.35913V4.36957V4.38V4.39044V4.40088V4.41132V4.42175V4.43219V4.44263V4.45306V4.4635V4.47394V4.48438V4.49481V4.50525V4.51569V4.52612V4.53656V4.547V4.55743V4.56787V4.57831V4.58875V4.59918V4.60962V4.62006V4.63049V4.64093V4.65137V4.6618V4.67224V4.68268V4.69312V4.70355V4.71399V4.72443V4.73486V4.7453V4.75574V4.76617V4.77661V4.78705V4.79749V4.80792V4.81836V4.8288V4.83923V4.84967V4.86011V4.87054V4.88098V4.89142V4.90186V4.91229V4.92273V4.93317V4.9436V4.95404V4.96448V4.97491V4.98535V4.99579V5.00623V5.01666V5.0271V5.03754V5.04797V5.05841V5.06885V5.07928V5.08972V5.10016V5.1106V5.12103V5.13147V5.14191V5.15234V5.16278V5.17322V5.18365V5.19409V5.20453V5.21497V5.2254V5.23584V5.24628V5.25671V5.26715V5.27759V5.28802V5.29846V5.3089V5.31934V5.32977V5.34021V5.35065V5.36108V5.37152V5.38196V5.3924V5.40283V5.41327V5.42371V5.43414V5.44458V5.45502V5.46545V5.47589V5.48633V5.49677V5.5072V5.51764V5.52808V5.53851V5.54895V5.55939V5.56982V5.58026V5.5907V5.60114V5.61157V5.62201V5.63245V5.64288V5.65332V5.66376V5.67419V5.68463V5.69507V5.70551V5.71594V5.72638V5.73682V5.74725V5.75769V5.76813V5.77856V5.789V5.79944V5.80988V5.82031V5.83075V5.84119V5.85162V5.86206V5.8725V5.88293V5.89337V5.90381V5.91425V5.92468V5.93512V5.94556V5.95599V5.96643V5.97687V5.9873V5.99774V6.00818V6.01862V6.02905V6.03949V6.04993V6.06036V6.0708V6.08124V6.09167V6.10211V6.11255V6.12299V6.13342V6.14386V6.1543V6.16473V6.17517V6.18561V6.19604V6.20648V6.21692V6.22736V6.23779V6.24823V6.25867V6.2691V6.27954V6.28998V6.30042V6.31085V6.32129V6.33173V6.34216V6.3526V6.36304V6.37347V6.38391V6.39435V6.40479V6.41522V6.42566V6.4361V6.44653V6.45697V6.46741V6.47784V6.48828V6.49872V6.50916V6.51959V6.53003V6.54047V6.5509V6.56134V6.57178V6.58221V6.59265V6.60309V6.61353V6.62396V6.6344V6.64484V6.65527V6.66571V6.67615V6.68658V6.69702V6.70746V6.7179V6.72833V6.73877V6.74921V6.75964V6.77008V6.78052V6.79095V6.80139V6.81183V6.82227V6.8327V6.84314V6.85358V6.86401V6.87445V6.88489V6.89532V6.90576V6.9162V6.92664V6.93707V6.94751V6.95795V6.96838V6.97882V6.98926V6.99969V7.01013V7.02057V7.03101V7.04144V7.05188V7.06232V7.07275V7.08319V7.09363V7.10406V7.1145V7.12494V7.13538V7.14581V7.15625V7.18598L0.652397 7.21442C0.887897 7.9891 1.41106 8.48532 2.20073 8.68602L2.22385 8.6919L2.2477 8.69217C4.96798 8.72346 7.68827 8.72346 10.4086 8.69217L10.4278 8.69195L10.4467 8.68806C10.8609 8.60252 11.2085 8.43264 11.4787 8.17132C11.7489 7.91 11.9305 7.56808 12.0303 7.15652L12.0355 7.13506L12.0359 7.11298C12.0672 5.3762 12.0672 3.63942 12.0359 1.90265L12.0355 1.87946L12.0298 1.85698C11.8291 1.06731 11.3328 0.544147 10.5582 0.308647L10.5297 0.3H10.5H10.4838H10.4676H10.4514H10.4352H10.419H10.4028H10.3866H10.3704H10.3542H10.338H10.3217H10.3055H10.2893H10.2731H10.2569H10.2407H10.2245H10.2083H10.1921H10.1759H10.1597H10.1435H10.1273H10.1111H10.0949H10.0787H10.0625H10.0463H10.0301H10.0139H9.99765H9.98145H9.96524H9.94904H9.93283H9.91663H9.90042H9.88422H9.86801H9.85181H9.8356H9.8194H9.80319H9.78699H9.77078H9.75458H9.73837H9.72217H9.70596H9.68976H9.67355H9.65735H9.64114H9.62494H9.60873H9.59253H9.57632H9.56012H9.54391H9.52771H9.51151H9.4953H9.4791H9.46289H9.44669H9.43048H9.41428H9.39807H9.38187H9.36566H9.34946H9.33325H9.31705H9.30084H9.28464H9.26843H9.25223H9.23602H9.21982H9.20361H9.18741H9.1712H9.155H9.13879H9.12259H9.10638H9.09018H9.07397H9.05777H9.04156H9.02536H9.00916H8.99295H8.97675H8.96054H8.94434H8.92813H8.91193H8.89572H8.87952H8.86331H8.84711H8.8309H8.8147H8.79849H8.78229H8.76608H8.74988H8.73367H8.71747H8.70126H8.68506H8.66885H8.65265H8.63644H8.62024H8.60403H8.58783H8.57162H8.55542H8.53922H8.52301H8.50681H8.4906H8.4744H8.45819H8.44199H8.42578H8.40958H8.39337H8.37717H8.36096H8.34476H8.32855H8.31235H8.29614H8.27994H8.26373H8.24753H8.23132H8.21512H8.19891H8.18271H8.1665H8.1503H8.13409H8.11789H8.10168H8.08548H8.06927H8.05307H8.03687H8.02066H8.00446H7.98825H7.97205H7.95584H7.93964H7.92343H7.90723H7.89102H7.87482H7.85861H7.84241H7.8262H7.81H7.79379H7.77759H7.76138H7.74518H7.72897H7.71277H7.69656H7.68036H7.66415H7.64795H7.63174H7.61554H7.59933H7.58313H7.56693H7.55072H7.53452H7.51831H7.50211H7.4859H7.4697H7.45349H7.43729H7.42108H7.40488H7.38867H7.37247H7.35626H7.34006H7.32385H7.30765H7.29144H7.27524H7.25903H7.24283H7.22662H7.21042H7.19421H7.17801H7.1618H7.1456H7.12939H7.11319H7.09698H7.08078H7.06458H7.04837H7.03217H7.01596H6.99976H6.98355H6.96735H6.95114H6.93494H6.91873H6.90253H6.88632H6.87012H6.85391H6.83771H6.8215H6.8053H6.78909H6.77289H6.75668H6.74048H6.72427H6.70807H6.69186H6.67566H6.65945H6.64325H6.62704H6.61084H6.59464H6.57843H6.56223H6.54602H6.52982H6.51361H6.49741H6.4812H6.465H6.44879H6.43259H6.41638H6.40018H6.38397H6.36777H6.35156H6.33536H6.31915H6.30295H6.28674H6.27054H6.25433H6.23813H6.22192H6.20572H6.18951H6.17331H6.1571H6.1409H6.12469H6.10849H6.09229H6.07608H6.05988H6.04367H6.02747H6.01126H5.99506H5.97885H5.96265H5.94644H5.93024H5.91403H5.89783H5.88162H5.86542H5.84921H5.83301H5.8168H5.8006H5.78439H5.76819H5.75198H5.73578H5.71957H5.70337H5.68716H5.67096H5.65475H5.63855H5.62234H5.60614H5.58994H5.57373H5.55753H5.54132H5.52512H5.50891H5.49271H5.4765H5.4603H5.44409H5.42789H5.41168H5.39548H5.37927H5.36307H5.34686H5.33066H5.31445H5.29825H5.28204H5.26584H5.24963H5.23343H5.21722H5.20102H5.18481H5.16861H5.1524H5.1362H5.12H5.10379H5.08759H5.07138H5.05518H5.03897H5.02277H5.00656H4.99036H4.97415H4.95795H4.94174H4.92554H4.90933H4.89313H4.87692H4.86072H4.84451H4.82831H4.8121H4.7959H4.77969H4.76349H4.74728H4.73108H4.71487H4.69867H4.68246H4.66626H4.65005H4.63385H4.61765H4.60144H4.58524H4.56903H4.55283H4.53662H4.52042H4.50421H4.48801H4.4718H4.4556H4.43939H4.42319H4.40698H4.39078H4.37457H4.35837H4.34216H4.32596H4.30975H4.29355H4.27734H4.26114H4.24493H4.22873H4.21252H4.19632H4.18011H4.16391H4.14771H4.1315H4.1153H4.09909H4.08289H4.06668H4.05048H4.03427H4.01807H4.00186H3.98566H3.96945H3.95325H3.93704H3.92084H3.90463H3.88843H3.87222H3.85602H3.83981H3.82361H3.8074H3.7912H3.77499H3.75879H3.74258H3.72638H3.71017H3.69397H3.67776H3.66156H3.64536H3.62915H3.61295H3.59674H3.58054H3.56433H3.54813H3.53192H3.51572H3.49951H3.48331H3.4671H3.4509H3.43469H3.41849H3.40228H3.38608H3.36987H3.35367H3.33746H3.32126H3.30505H3.28885H3.27264H3.25644H3.24023H3.22403H3.20782H3.19162H3.17542H3.15921H3.14301H3.1268H3.1106H3.09439H3.07819H3.06198H3.04578H3.02957H3.01337H2.99716H2.98096H2.96475H2.94855H2.93234H2.91614H2.89993H2.88373H2.86752H2.85132H2.83511H2.81891H2.8027H2.7865H2.77029H2.75409H2.73788H2.72168H2.70547H2.68927H2.67307H2.65686H2.64066H2.62445H2.60825H2.59204H2.57584H2.55963H2.54343H2.52722H2.51102H2.49481H2.47861H2.4624H2.4462H2.42999H2.41379H2.39758H2.38138H2.36517H2.34897H2.33276H2.31656H2.30035H2.28415H2.26794H2.25174H2.23553H2.21933H2.20312ZM2.56669 2.3071C2.57991 2.25879 2.60227 2.22497 2.63535 2.1995C5.12355 2.17787 7.60911 2.20035 10.092 2.26695C10.1264 3.76191 10.119 5.2551 10.0698 6.74653C7.57219 6.77621 5.07457 6.77617 2.57693 6.74641C2.57254 6.73696 2.5692 6.72664 2.56683 6.71517C2.5361 5.2458 2.53606 3.77646 2.56669 2.3071Z" fill="white" stroke="white" stroke-width="0.4"/>
<path opacity="0.982" d="M16.1875 0.3H16.1578L16.1293 0.308647C15.3547 0.544147 14.8584 1.06731 14.6577 1.85698L14.6518 1.88041L14.6516 1.90458C14.6203 5.64008 14.6203 9.37554 14.6516 13.111L14.6518 13.1341L14.6572 13.1565C14.757 13.5681 14.9387 13.91 15.2088 14.1713C15.479 14.4326 15.8266 14.6025 16.2408 14.6881L16.2597 14.692L16.279 14.6922C18.9992 14.7235 21.7195 14.7235 24.4398 14.6922L24.4637 14.6919L24.4868 14.686C25.2764 14.4853 25.7996 13.9891 26.0351 13.2144L26.0438 13.186V13.1562V13.1342V13.1121V13.0901V13.068V13.0459V13.0239V13.0018V12.9797V12.9577V12.9356V12.9135V12.8915V12.8694V12.8474V12.8253V12.8032V12.7812V12.7591V12.737V12.715V12.6929V12.6708V12.6488V12.6267V12.6046V12.5826V12.5605V12.5385V12.5164V12.4943V12.4723V12.4502V12.4281V12.4061V12.384V12.3619V12.3399V12.3178V12.2957V12.2737V12.2516V12.2296V12.2075V12.1854V12.1634V12.1413V12.1192V12.0972V12.0751V12.053V12.031V12.0089V11.9869V11.9648V11.9427V11.9207V11.8986V11.8765V11.8545V11.8324V11.8103V11.7883V11.7662V11.7441V11.7221V11.7V11.678V11.6559V11.6338V11.6118V11.5897V11.5676V11.5456V11.5235V11.5014V11.4794V11.4573V11.4352V11.4132V11.3911V11.3691V11.347V11.3249V11.3029V11.2808V11.2587V11.2367V11.2146V11.1925V11.1705V11.1484V11.1263V11.1043V11.0822V11.0602V11.0381V11.016V10.994V10.9719V10.9498V10.9278V10.9057V10.8836V10.8616V10.8395V10.8174V10.7954V10.7733V10.7513V10.7292V10.7071V10.6851V10.663V10.6409V10.6189V10.5968V10.5747V10.5527V10.5306V10.5085V10.4865V10.4644V10.4424V10.4203V10.3982V10.3762V10.3541V10.332V10.31V10.2879V10.2658V10.2438V10.2217V10.1997V10.1776V10.1555V10.1335V10.1114V10.0893V10.0673V10.0452V10.0231V10.0011V9.97901V9.95694V9.93488V9.91282V9.89075V9.86869V9.84662V9.82456V9.80249V9.78043V9.75837V9.7363V9.71424V9.69217V9.67011V9.64804V9.62598V9.60392V9.58185V9.55979V9.53772V9.51566V9.4936V9.47153V9.44947V9.4274V9.40534V9.38327V9.36121V9.33915V9.31708V9.29502V9.27295V9.25089V9.22882V9.20676V9.1847V9.16263V9.14057V9.1185V9.09644V9.07437V9.05231V9.03025V9.00818V8.98612V8.96405V8.94199V8.91992V8.89786V8.8758V8.85373V8.83167V8.8096V8.78754V8.76548V8.74341V8.72135V8.69928V8.67722V8.65515V8.63309V8.61102V8.58896V8.5669V8.54483V8.52277V8.5007V8.47864V8.45658V8.43451V8.41245V8.39038V8.36832V8.34625V8.32419V8.30213V8.28006V8.258V8.23593V8.21387V8.1918V8.16974V8.14768V8.12561V8.10355V8.08148V8.05942V8.03735V8.01529V7.99323V7.97116V7.9491V7.92703V7.90497V7.88291V7.86084V7.83878V7.81671V7.79465V7.77258V7.75052V7.72846V7.70639V7.68433V7.66226V7.6402V7.61813V7.59607V7.57401V7.55194V7.52988V7.50781V7.48575V7.46368V7.44162V7.41956V7.39749V7.37543V7.35336V7.3313V7.30923V7.28717V7.26511V7.24304V7.22098V7.19891V7.17685V7.15478V7.13272V7.11066V7.08859V7.06653V7.04446V7.0224V7.00033V6.97827V6.95621V6.93414V6.91208V6.89001V6.86795V6.84588V6.82382V6.80176V6.77969V6.75763V6.73556V6.7135V6.69144V6.66937V6.64731V6.62524V6.60318V6.58111V6.55905V6.53699V6.51492V6.49286V6.47079V6.44873V6.42666V6.4046V6.38254V6.36047V6.33841V6.31634V6.29428V6.27221V6.25015V6.22809V6.20602V6.18396V6.16189V6.13983V6.11776V6.0957V6.07364V6.05157V6.02951V6.00744V5.98538V5.96332V5.94125V5.91919V5.89712V5.87506V5.85299V5.83093V5.80887V5.7868V5.76474V5.74267V5.72061V5.69854V5.67648V5.65442V5.63235V5.61029V5.58822V5.56616V5.54409V5.52203V5.49997V5.4779V5.45584V5.43377V5.41171V5.38964V5.36758V5.34552V5.32345V5.30139V5.27932V5.25726V5.2352V5.21313V5.19107V5.169V5.14694V5.12487V5.10281V5.08075V5.05868V5.03662V5.01455V4.99249V4.97042V4.94836V4.9263V4.90423V4.88217V4.8601V4.83804V4.81597V4.79391V4.77185V4.74978V4.72772V4.70565V4.68359V4.66153V4.63946V4.6174V4.59533V4.57327V4.5512V4.52914V4.50708V4.48501V4.46295V4.44088V4.41882V4.39675V4.37469V4.35263V4.33056V4.3085V4.28643V4.26437V4.24231V4.22024V4.19818V4.17611V4.15405V4.13198V4.10992V4.08786V4.06579V4.04373V4.02166V3.9996V3.97753V3.95547V3.93341V3.91134V3.88928V3.86721V3.84515V3.82309V3.80102V3.77896V3.75689V3.73483V3.71276V3.6907V3.66864V3.64657V3.62451V3.60244V3.58038V3.55831V3.53625V3.51419V3.49212V3.47006V3.44799V3.42593V3.40387V3.3818V3.35974V3.33767V3.31561V3.29354V3.27148V3.24942V3.22735V3.20529V3.18322V3.16116V3.1391V3.11703V3.09497V3.0729V3.05084V3.02877V3.00671V2.98465V2.96258V2.94052V2.91845V2.89639V2.87433V2.85226V2.8302V2.80813V2.78607V2.764V2.74194V2.71988V2.69781V2.67575V2.65368V2.63162V2.60956V2.58749V2.56543V2.54336V2.5213V2.49923V2.47717V2.45511V2.43304V2.41098V2.38891V2.36685V2.34479V2.32272V2.30066V2.27859V2.25653V2.23447V2.2124V2.19034V2.16827V2.14621V2.12414V2.10208V2.08002V2.05795V2.03589V2.01382V1.99176V1.9697V1.94763V1.92557V1.9035V1.88144V1.85938V1.83107L26.0359 1.80387C25.8137 1.03476 25.309 0.530043 24.5399 0.307857L24.5127 0.3H24.4844H24.4682H24.452H24.4358H24.4196H24.4034H24.3872H24.371H24.3547H24.3385H24.3223H24.3061H24.2899H24.2737H24.2575H24.2413H24.2251H24.2089H24.1927H24.1765H24.1603H24.1441H24.1279H24.1117H24.0955H24.0793H24.0631H24.0469H24.0307H24.0144H23.9982H23.982H23.9658H23.9496H23.9334H23.9172H23.901H23.8848H23.8686H23.8524H23.8362H23.82H23.8038H23.7876H23.7714H23.7552H23.739H23.7228H23.7066H23.6903H23.6741H23.6579H23.6417H23.6255H23.6093H23.5931H23.5769H23.5607H23.5445H23.5283H23.5121H23.4959H23.4797H23.4635H23.4473H23.4311H23.4149H23.3987H23.3825H23.3663H23.35H23.3338H23.3176H23.3014H23.2852H23.269H23.2528H23.2366H23.2204H23.2042H23.188H23.1718H23.1556H23.1394H23.1232H23.107H23.0908H23.0746H23.0584H23.0422H23.026H23.0097H22.9935H22.9773H22.9611H22.9449H22.9287H22.9125H22.8963H22.8801H22.8639H22.8477H22.8315H22.8153H22.7991H22.7829H22.7667H22.7505H22.7343H22.7181H22.7019H22.6856H22.6694H22.6532H22.637H22.6208H22.6046H22.5884H22.5722H22.556H22.5398H22.5236H22.5074H22.4912H22.475H22.4588H22.4426H22.4264H22.4102H22.394H22.3778H22.3616H22.3453H22.3291H22.3129H22.2967H22.2805H22.2643H22.2481H22.2319H22.2157H22.1995H22.1833H22.1671H22.1509H22.1347H22.1185H22.1023H22.0861H22.0699H22.0537H22.0375H22.0213H22.005H21.9888H21.9726H21.9564H21.9402H21.924H21.9078H21.8916H21.8754H21.8592H21.843H21.8268H21.8106H21.7944H21.7782H21.762H21.7458H21.7296H21.7134H21.6972H21.681H21.6647H21.6485H21.6323H21.6161H21.5999H21.5837H21.5675H21.5513H21.5351H21.5189H21.5027H21.4865H21.4703H21.4541H21.4379H21.4217H21.4055H21.3893H21.3731H21.3569H21.3406H21.3244H21.3082H21.292H21.2758H21.2596H21.2434H21.2272H21.211H21.1948H21.1786H21.1624H21.1462H21.13H21.1138H21.0976H21.0814H21.0652H21.049H21.0328H21.0166H21.0003H20.9841H20.9679H20.9517H20.9355H20.9193H20.9031H20.8869H20.8707H20.8545H20.8383H20.8221H20.8059H20.7897H20.7735H20.7573H20.7411H20.7249H20.7087H20.6925H20.6763H20.66H20.6438H20.6276H20.6114H20.5952H20.579H20.5628H20.5466H20.5304H20.5142H20.498H20.4818H20.4656H20.4494H20.4332H20.417H20.4008H20.3846H20.3684H20.3522H20.3359H20.3197H20.3035H20.2873H20.2711H20.2549H20.2387H20.2225H20.2063H20.1901H20.1739H20.1577H20.1415H20.1253H20.1091H20.0929H20.0767H20.0605H20.0443H20.0281H20.0119H19.9956H19.9794H19.9632H19.947H19.9308H19.9146H19.8984H19.8822H19.866H19.8498H19.8336H19.8174H19.8012H19.785H19.7688H19.7526H19.7364H19.7202H19.704H19.6878H19.6716H19.6553H19.6391H19.6229H19.6067H19.5905H19.5743H19.5581H19.5419H19.5257H19.5095H19.4933H19.4771H19.4609H19.4447H19.4285H19.4123H19.3961H19.3799H19.3637H19.3475H19.3312H19.315H19.2988H19.2826H19.2664H19.2502H19.234H19.2178H19.2016H19.1854H19.1692H19.153H19.1368H19.1206H19.1044H19.0882H19.072H19.0558H19.0396H19.0234H19.0072H18.9909H18.9747H18.9585H18.9423H18.9261H18.9099H18.8937H18.8775H18.8613H18.8451H18.8289H18.8127H18.7965H18.7803H18.7641H18.7479H18.7317H18.7155H18.6993H18.6831H18.6669H18.6506H18.6344H18.6182H18.602H18.5858H18.5696H18.5534H18.5372H18.521H18.5048H18.4886H18.4724H18.4562H18.44H18.4238H18.4076H18.3914H18.3752H18.359H18.3428H18.3265H18.3103H18.2941H18.2779H18.2617H18.2455H18.2293H18.2131H18.1969H18.1807H18.1645H18.1483H18.1321H18.1159H18.0997H18.0835H18.0673H18.0511H18.0349H18.0187H18.0025H17.9862H17.97H17.9538H17.9376H17.9214H17.9052H17.889H17.8728H17.8566H17.8404H17.8242H17.808H17.7918H17.7756H17.7594H17.7432H17.727H17.7108H17.6946H17.6784H17.6622H17.6459H17.6297H17.6135H17.5973H17.5811H17.5649H17.5487H17.5325H17.5163H17.5001H17.4839H17.4677H17.4515H17.4353H17.4191H17.4029H17.3867H17.3705H17.3543H17.3381H17.3219H17.3056H17.2894H17.2732H17.257H17.2408H17.2246H17.2084H17.1922H17.176H17.1598H17.1436H17.1274H17.1112H17.095H17.0788H17.0626H17.0464H17.0302H17.014H16.9978H16.9815H16.9653H16.9491H16.9329H16.9167H16.9005H16.8843H16.8681H16.8519H16.8357H16.8195H16.8033H16.7871H16.7709H16.7547H16.7385H16.7223H16.7061H16.6899H16.6737H16.6575H16.6412H16.625H16.6088H16.5926H16.5764H16.5602H16.544H16.5278H16.5116H16.4954H16.4792H16.463H16.4468H16.4306H16.4144H16.3982H16.382H16.3658H16.3496H16.3334H16.3172H16.3009H16.2847H16.2685H16.2523H16.2361H16.2199H16.2037H16.1875ZM16.5974 2.23662C16.6169 2.22281 16.6366 2.21059 16.6563 2.19986C19.1277 2.19232 21.599 2.20007 24.0702 2.22308C24.0719 2.22398 24.0736 2.22492 24.0753 2.22589C24.1512 5.7199 24.1664 9.21657 24.1206 12.7158C24.1182 12.727 24.1149 12.7371 24.1106 12.7464C21.6137 12.7762 19.1169 12.7762 16.62 12.7466C16.5677 9.24506 16.5601 5.74176 16.5974 2.23662Z" fill="white" stroke="white" stroke-width="0.4"/>
<path opacity="0.982" d="M10.5 25.7H10.5297L10.5582 25.6914C11.3328 25.4559 11.8291 24.9327 12.0298 24.143L12.0357 24.1196L12.0359 24.0954C12.0672 20.3599 12.0672 16.6245 12.0359 12.889L12.0357 12.8659L12.0303 12.8436C11.9333 12.443 11.7575 12.1075 11.4969 11.8469C11.2363 11.5862 10.9008 11.4104 10.5002 11.3134L10.4781 11.3081L10.4554 11.3078C7.71953 11.2766 4.98361 11.2766 2.24771 11.3078L2.22386 11.3081L2.20073 11.314C1.41106 11.5147 0.887897 12.0109 0.652397 12.7856L0.64375 12.814V12.8438V12.8658V12.8879V12.91V12.932V12.9541V12.9761V12.9982V13.0203V13.0423V13.0644V13.0865V13.1085V13.1306V13.1527V13.1747V13.1968V13.2189V13.2409V13.263V13.285V13.3071V13.3292V13.3512V13.3733V13.3954V13.4174V13.4395V13.4616V13.4836V13.5057V13.5277V13.5498V13.5719V13.5939V13.616V13.6381V13.6601V13.6822V13.7043V13.7263V13.7484V13.7705V13.7925V13.8146V13.8366V13.8587V13.8808V13.9028V13.9249V13.947V13.969V13.9911V14.0132V14.0352V14.0573V14.0794V14.1014V14.1235V14.1455V14.1676V14.1897V14.2117V14.2338V14.2559V14.2779V14.3V14.3221V14.3441V14.3662V14.3883V14.4103V14.4324V14.4544V14.4765V14.4986V14.5206V14.5427V14.5648V14.5868V14.6089V14.631V14.653V14.6751V14.6972V14.7192V14.7413V14.7633V14.7854V14.8075V14.8295V14.8516V14.8737V14.8957V14.9178V14.9399V14.9619V14.984V15.006V15.0281V15.0502V15.0722V15.0943V15.1164V15.1384V15.1605V15.1826V15.2046V15.2267V15.2488V15.2708V15.2929V15.3149V15.337V15.3591V15.3811V15.4032V15.4253V15.4473V15.4694V15.4915V15.5135V15.5356V15.5577V15.5797V15.6018V15.6238V15.6459V15.668V15.69V15.7121V15.7342V15.7562V15.7783V15.8004V15.8224V15.8445V15.8666V15.8886V15.9107V15.9327V15.9548V15.9769V15.9989V16.021V16.0431V16.0651V16.0872V16.1093V16.1313V16.1534V16.1755V16.1975V16.2196V16.2416V16.2637V16.2858V16.3078V16.3299V16.352V16.374V16.3961V16.4182V16.4402V16.4623V16.4844V16.5064V16.5285V16.5505V16.5726V16.5947V16.6167V16.6388V16.6609V16.6829V16.705V16.7271V16.7491V16.7712V16.7933V16.8153V16.8374V16.8594V16.8815V16.9036V16.9256V16.9477V16.9698V16.9918V17.0139V17.036V17.058V17.0801V17.1022V17.1242V17.1463V17.1683V17.1904V17.2125V17.2345V17.2566V17.2787V17.3007V17.3228V17.3449V17.3669V17.389V17.4111V17.4331V17.4552V17.4772V17.4993V17.5214V17.5434V17.5655V17.5876V17.6096V17.6317V17.6538V17.6758V17.6979V17.72V17.742V17.7641V17.7861V17.8082V17.8303V17.8523V17.8744V17.8965V17.9185V17.9406V17.9627V17.9847V18.0068V18.0288V18.0509V18.073V18.095V18.1171V18.1392V18.1612V18.1833V18.2054V18.2274V18.2495V18.2716V18.2936V18.3157V18.3377V18.3598V18.3819V18.4039V18.426V18.4481V18.4701V18.4922V18.5143V18.5363V18.5584V18.5805V18.6025V18.6246V18.6466V18.6687V18.6908V18.7128V18.7349V18.757V18.779V18.8011V18.8232V18.8452V18.8673V18.8894V18.9114V18.9335V18.9555V18.9776V18.9997V19.0217V19.0438V19.0659V19.0879V19.11V19.1321V19.1541V19.1762V19.1983V19.2203V19.2424V19.2644V19.2865V19.3086V19.3306V19.3527V19.3748V19.3968V19.4189V19.441V19.463V19.4851V19.5072V19.5292V19.5513V19.5733V19.5954V19.6175V19.6395V19.6616V19.6837V19.7057V19.7278V19.7499V19.7719V19.794V19.8161V19.8381V19.8602V19.8822V19.9043V19.9264V19.9484V19.9705V19.9926V20.0146V20.0367V20.0588V20.0808V20.1029V20.125V20.147V20.1691V20.1911V20.2132V20.2353V20.2573V20.2794V20.3015V20.3235V20.3456V20.3677V20.3897V20.4118V20.4339V20.4559V20.478V20.5V20.5221V20.5442V20.5662V20.5883V20.6104V20.6324V20.6545V20.6766V20.6986V20.7207V20.7428V20.7648V20.7869V20.8089V20.831V20.8531V20.8751V20.8972V20.9193V20.9413V20.9634V20.9855V21.0075V21.0296V21.0517V21.0737V21.0958V21.1178V21.1399V21.162V21.184V21.2061V21.2282V21.2502V21.2723V21.2944V21.3164V21.3385V21.3606V21.3826V21.4047V21.4267V21.4488V21.4709V21.4929V21.515V21.5371V21.5591V21.5812V21.6033V21.6253V21.6474V21.6694V21.6915V21.7136V21.7356V21.7577V21.7798V21.8018V21.8239V21.846V21.868V21.8901V21.9122V21.9342V21.9563V21.9783V22.0004V22.0225V22.0445V22.0666V22.0887V22.1107V22.1328V22.1549V22.1769V22.199V22.2211V22.2431V22.2652V22.2872V22.3093V22.3314V22.3534V22.3755V22.3976V22.4196V22.4417V22.4638V22.4858V22.5079V22.53V22.552V22.5741V22.5961V22.6182V22.6403V22.6623V22.6844V22.7065V22.7285V22.7506V22.7727V22.7947V22.8168V22.8389V22.8609V22.883V22.905V22.9271V22.9492V22.9712V22.9933V23.0154V23.0374V23.0595V23.0816V23.1036V23.1257V23.1477V23.1698V23.1919V23.2139V23.236V23.2581V23.2801V23.3022V23.3243V23.3463V23.3684V23.3905V23.4125V23.4346V23.4566V23.4787V23.5008V23.5228V23.5449V23.567V23.589V23.6111V23.6332V23.6552V23.6773V23.6994V23.7214V23.7435V23.7655V23.7876V23.8097V23.8317V23.8538V23.8759V23.8979V23.92V23.9421V23.9641V23.9862V24.0083V24.0303V24.0524V24.0744V24.0965V24.1186V24.1406V24.1689L0.651607 24.1961C0.873793 24.9653 1.37851 25.47 2.14762 25.6922L2.17482 25.7H2.20312H2.21933H2.23553H2.25174H2.26794H2.28415H2.30035H2.31656H2.33276H2.34897H2.36517H2.38138H2.39758H2.41379H2.42999H2.4462H2.4624H2.47861H2.49481H2.51102H2.52722H2.54343H2.55963H2.57584H2.59204H2.60825H2.62445H2.64066H2.65686H2.67307H2.68927H2.70547H2.72168H2.73788H2.75409H2.77029H2.7865H2.8027H2.81891H2.83511H2.85132H2.86752H2.88373H2.89993H2.91614H2.93234H2.94855H2.96475H2.98096H2.99716H3.01337H3.02957H3.04578H3.06198H3.07819H3.09439H3.1106H3.1268H3.14301H3.15921H3.17542H3.19162H3.20782H3.22403H3.24023H3.25644H3.27264H3.28885H3.30505H3.32126H3.33746H3.35367H3.36987H3.38608H3.40228H3.41849H3.43469H3.4509H3.4671H3.48331H3.49951H3.51572H3.53192H3.54813H3.56433H3.58054H3.59674H3.61295H3.62915H3.64536H3.66156H3.67776H3.69397H3.71017H3.72638H3.74258H3.75879H3.77499H3.7912H3.8074H3.82361H3.83981H3.85602H3.87222H3.88843H3.90463H3.92084H3.93704H3.95325H3.96945H3.98566H4.00186H4.01807H4.03427H4.05048H4.06668H4.08289H4.09909H4.1153H4.1315H4.14771H4.16391H4.18011H4.19632H4.21252H4.22873H4.24493H4.26114H4.27734H4.29355H4.30975H4.32596H4.34216H4.35837H4.37457H4.39078H4.40698H4.42319H4.43939H4.4556H4.4718H4.48801H4.50421H4.52042H4.53662H4.55283H4.56903H4.58524H4.60144H4.61765H4.63385H4.65005H4.66626H4.68246H4.69867H4.71487H4.73108H4.74728H4.76349H4.77969H4.7959H4.8121H4.82831H4.84451H4.86072H4.87692H4.89313H4.90933H4.92554H4.94174H4.95795H4.97415H4.99036H5.00656H5.02277H5.03897H5.05518H5.07138H5.08759H5.10379H5.12H5.1362H5.1524H5.16861H5.18481H5.20102H5.21722H5.23343H5.24963H5.26584H5.28204H5.29825H5.31445H5.33066H5.34686H5.36307H5.37927H5.39548H5.41168H5.42789H5.44409H5.4603H5.4765H5.49271H5.50891H5.52512H5.54132H5.55753H5.57373H5.58994H5.60614H5.62234H5.63855H5.65475H5.67096H5.68716H5.70337H5.71957H5.73578H5.75198H5.76819H5.78439H5.8006H5.8168H5.83301H5.84921H5.86542H5.88162H5.89783H5.91403H5.93024H5.94644H5.96265H5.97885H5.99506H6.01126H6.02747H6.04367H6.05988H6.07608H6.09229H6.10849H6.12469H6.1409H6.1571H6.17331H6.18951H6.20572H6.22192H6.23813H6.25433H6.27054H6.28674H6.30295H6.31915H6.33536H6.35156H6.36777H6.38397H6.40018H6.41638H6.43259H6.44879H6.465H6.4812H6.49741H6.51361H6.52982H6.54602H6.56223H6.57843H6.59464H6.61084H6.62704H6.64325H6.65945H6.67566H6.69186H6.70807H6.72427H6.74048H6.75668H6.77289H6.78909H6.8053H6.8215H6.83771H6.85391H6.87012H6.88632H6.90253H6.91873H6.93494H6.95114H6.96735H6.98355H6.99976H7.01596H7.03217H7.04837H7.06458H7.08078H7.09698H7.11319H7.12939H7.1456H7.1618H7.17801H7.19421H7.21042H7.22662H7.24283H7.25903H7.27524H7.29144H7.30765H7.32385H7.34006H7.35626H7.37247H7.38867H7.40488H7.42108H7.43729H7.45349H7.4697H7.4859H7.50211H7.51831H7.53452H7.55072H7.56693H7.58313H7.59933H7.61554H7.63174H7.64795H7.66415H7.68036H7.69656H7.71277H7.72897H7.74518H7.76138H7.77759H7.79379H7.81H7.8262H7.84241H7.85861H7.87482H7.89102H7.90723H7.92343H7.93964H7.95584H7.97205H7.98825H8.00446H8.02066H8.03687H8.05307H8.06927H8.08548H8.10168H8.11789H8.13409H8.1503H8.1665H8.18271H8.19891H8.21512H8.23132H8.24753H8.26373H8.27994H8.29614H8.31235H8.32855H8.34476H8.36096H8.37717H8.39337H8.40958H8.42578H8.44199H8.45819H8.4744H8.4906H8.50681H8.52301H8.53922H8.55542H8.57162H8.58783H8.60403H8.62024H8.63644H8.65265H8.66885H8.68506H8.70126H8.71747H8.73367H8.74988H8.76608H8.78229H8.79849H8.8147H8.8309H8.84711H8.86331H8.87952H8.89572H8.91193H8.92813H8.94434H8.96054H8.97675H8.99295H9.00916H9.02536H9.04156H9.05777H9.07397H9.09018H9.10638H9.12259H9.13879H9.155H9.1712H9.18741H9.20361H9.21982H9.23602H9.25223H9.26843H9.28464H9.30084H9.31705H9.33325H9.34946H9.36566H9.38187H9.39807H9.41428H9.43048H9.44669H9.46289H9.4791H9.4953H9.51151H9.52771H9.54391H9.56012H9.57632H9.59253H9.60873H9.62494H9.64114H9.65735H9.67355H9.68976H9.70596H9.72217H9.73837H9.75458H9.77078H9.78699H9.80319H9.8194H9.8356H9.85181H9.86801H9.88422H9.90042H9.91663H9.93283H9.94904H9.96524H9.98145H9.99765H10.0139H10.0301H10.0463H10.0625H10.0787H10.0949H10.1111H10.1273H10.1435H10.1597H10.1759H10.1921H10.2083H10.2245H10.2407H10.2569H10.2731H10.2893H10.3055H10.3217H10.338H10.3542H10.3704H10.3866H10.4028H10.419H10.4352H10.4514H10.4676H10.4838H10.5ZM2.56692 13.2876C2.57178 13.267 2.57839 13.2482 2.58672 13.231C5.08038 13.2237 7.57397 13.2314 10.0675 13.2538C10.1197 16.7452 10.1273 20.2384 10.0904 23.7335C7.60221 23.8074 5.11138 23.8219 2.61793 23.7773C2.616 23.7763 2.6141 23.7752 2.61224 23.7741C2.53628 20.2812 2.52117 16.7857 2.56692 13.2876Z" fill="white" stroke="white" stroke-width="0.4"/>
<path opacity="0.98" d="M26.0438 18.8438V18.814L26.0351 18.7856C25.7996 18.0109 25.2764 17.5147 24.4868 17.314L24.4637 17.3081L24.4398 17.3078C21.7039 17.2766 18.968 17.2766 16.2321 17.3078L16.2094 17.3081L16.1873 17.3134C15.7867 17.4104 15.4513 17.5862 15.1906 17.8469C14.93 18.1075 14.7542 18.443 14.6572 18.8436L14.652 18.865L14.6516 18.887C14.6203 20.6238 14.6203 22.3606 14.6516 24.0974L14.652 24.1206L14.6577 24.143C14.8584 24.9327 15.3547 25.4559 16.1293 25.6914L16.1578 25.7H16.1875H16.2037H16.2199H16.2361H16.2523H16.2685H16.2847H16.3009H16.3172H16.3334H16.3496H16.3658H16.382H16.3982H16.4144H16.4306H16.4468H16.463H16.4792H16.4954H16.5116H16.5278H16.544H16.5602H16.5764H16.5926H16.6088H16.625H16.6412H16.6575H16.6737H16.6899H16.7061H16.7223H16.7385H16.7547H16.7709H16.7871H16.8033H16.8195H16.8357H16.8519H16.8681H16.8843H16.9005H16.9167H16.9329H16.9491H16.9653H16.9815H16.9978H17.014H17.0302H17.0464H17.0626H17.0788H17.095H17.1112H17.1274H17.1436H17.1598H17.176H17.1922H17.2084H17.2246H17.2408H17.257H17.2732H17.2894H17.3056H17.3219H17.3381H17.3543H17.3705H17.3867H17.4029H17.4191H17.4353H17.4515H17.4677H17.4839H17.5001H17.5163H17.5325H17.5487H17.5649H17.5811H17.5973H17.6135H17.6297H17.6459H17.6622H17.6784H17.6946H17.7108H17.727H17.7432H17.7594H17.7756H17.7918H17.808H17.8242H17.8404H17.8566H17.8728H17.889H17.9052H17.9214H17.9376H17.9538H17.97H17.9862H18.0025H18.0187H18.0349H18.0511H18.0673H18.0835H18.0997H18.1159H18.1321H18.1483H18.1645H18.1807H18.1969H18.2131H18.2293H18.2455H18.2617H18.2779H18.2941H18.3103H18.3265H18.3428H18.359H18.3752H18.3914H18.4076H18.4238H18.44H18.4562H18.4724H18.4886H18.5048H18.521H18.5372H18.5534H18.5696H18.5858H18.602H18.6182H18.6344H18.6506H18.6669H18.6831H18.6993H18.7155H18.7317H18.7479H18.7641H18.7803H18.7965H18.8127H18.8289H18.8451H18.8613H18.8775H18.8937H18.9099H18.9261H18.9423H18.9585H18.9747H18.9909H19.0072H19.0234H19.0396H19.0558H19.072H19.0882H19.1044H19.1206H19.1368H19.153H19.1692H19.1854H19.2016H19.2178H19.234H19.2502H19.2664H19.2826H19.2988H19.315H19.3312H19.3475H19.3637H19.3799H19.3961H19.4123H19.4285H19.4447H19.4609H19.4771H19.4933H19.5095H19.5257H19.5419H19.5581H19.5743H19.5905H19.6067H19.6229H19.6391H19.6553H19.6716H19.6878H19.704H19.7202H19.7364H19.7526H19.7688H19.785H19.8012H19.8174H19.8336H19.8498H19.866H19.8822H19.8984H19.9146H19.9308H19.947H19.9632H19.9794H19.9956H20.0119H20.0281H20.0443H20.0605H20.0767H20.0929H20.1091H20.1253H20.1415H20.1577H20.1739H20.1901H20.2063H20.2225H20.2387H20.2549H20.2711H20.2873H20.3035H20.3197H20.3359H20.3522H20.3684H20.3846H20.4008H20.417H20.4332H20.4494H20.4656H20.4818H20.498H20.5142H20.5304H20.5466H20.5628H20.579H20.5952H20.6114H20.6276H20.6438H20.66H20.6763H20.6925H20.7087H20.7249H20.7411H20.7573H20.7735H20.7897H20.8059H20.8221H20.8383H20.8545H20.8707H20.8869H20.9031H20.9193H20.9355H20.9517H20.9679H20.9841H21.0003H21.0166H21.0328H21.049H21.0652H21.0814H21.0976H21.1138H21.13H21.1462H21.1624H21.1786H21.1948H21.211H21.2272H21.2434H21.2596H21.2758H21.292H21.3082H21.3244H21.3406H21.3569H21.3731H21.3893H21.4055H21.4217H21.4379H21.4541H21.4703H21.4865H21.5027H21.5189H21.5351H21.5513H21.5675H21.5837H21.5999H21.6161H21.6323H21.6485H21.6647H21.681H21.6972H21.7134H21.7296H21.7458H21.762H21.7782H21.7944H21.8106H21.8268H21.843H21.8592H21.8754H21.8916H21.9078H21.924H21.9402H21.9564H21.9726H21.9888H22.005H22.0213H22.0375H22.0537H22.0699H22.0861H22.1023H22.1185H22.1347H22.1509H22.1671H22.1833H22.1995H22.2157H22.2319H22.2481H22.2643H22.2805H22.2967H22.3129H22.3291H22.3453H22.3616H22.3778H22.394H22.4102H22.4264H22.4426H22.4588H22.475H22.4912H22.5074H22.5236H22.5398H22.556H22.5722H22.5884H22.6046H22.6208H22.637H22.6532H22.6694H22.6856H22.7019H22.7181H22.7343H22.7505H22.7667H22.7829H22.7991H22.8153H22.8315H22.8477H22.8639H22.8801H22.8963H22.9125H22.9287H22.9449H22.9611H22.9773H22.9935H23.0097H23.026H23.0422H23.0584H23.0746H23.0908H23.107H23.1232H23.1394H23.1556H23.1718H23.188H23.2042H23.2204H23.2366H23.2528H23.269H23.2852H23.3014H23.3176H23.3338H23.35H23.3663H23.3825H23.3987H23.4149H23.4311H23.4473H23.4635H23.4797H23.4959H23.5121H23.5283H23.5445H23.5607H23.5769H23.5931H23.6093H23.6255H23.6417H23.6579H23.6741H23.6903H23.7066H23.7228H23.739H23.7552H23.7714H23.7876H23.8038H23.82H23.8362H23.8524H23.8686H23.8848H23.901H23.9172H23.9334H23.9496H23.9658H23.982H23.9982H24.0144H24.0307H24.0469H24.0631H24.0793H24.0955H24.1117H24.1279H24.1441H24.1603H24.1765H24.1927H24.2089H24.2251H24.2413H24.2575H24.2737H24.2899H24.3061H24.3223H24.3385H24.3547H24.371H24.3872H24.4034H24.4196H24.4358H24.452H24.4682H24.4844H24.5127L24.5399 25.6922C25.309 25.47 25.8137 24.9653 26.0359 24.1961L26.0438 24.1689V24.1406V24.1303V24.1199V24.1096V24.0993V24.0889V24.0786V24.0682V24.0579V24.0475V24.0372V24.0268V24.0165V24.0061V23.9958V23.9855V23.9751V23.9648V23.9544V23.9441V23.9337V23.9234V23.913V23.9027V23.8923V23.882V23.8717V23.8613V23.851V23.8406V23.8303V23.8199V23.8096V23.7992V23.7889V23.7785V23.7682V23.7579V23.7475V23.7372V23.7268V23.7165V23.7061V23.6958V23.6854V23.6751V23.6647V23.6544V23.6441V23.6337V23.6234V23.613V23.6027V23.5923V23.582V23.5716V23.5613V23.5509V23.5406V23.5303V23.5199V23.5096V23.4992V23.4889V23.4785V23.4682V23.4578V23.4475V23.4371V23.4268V23.4165V23.4061V23.3958V23.3854V23.3751V23.3647V23.3544V23.344V23.3337V23.3233V23.313V23.3026V23.2923V23.282V23.2716V23.2613V23.2509V23.2406V23.2302V23.2199V23.2095V23.1992V23.1888V23.1785V23.1682V23.1578V23.1475V23.1371V23.1268V23.1164V23.1061V23.0957V23.0854V23.075V23.0647V23.0544V23.044V23.0337V23.0233V23.013V23.0026V22.9923V22.9819V22.9716V22.9612V22.9509V22.9406V22.9302V22.9199V22.9095V22.8992V22.8888V22.8785V22.8681V22.8578V22.8474V22.8371V22.8268V22.8164V22.8061V22.7957V22.7854V22.775V22.7647V22.7543V22.744V22.7336V22.7233V22.713V22.7026V22.6923V22.6819V22.6716V22.6612V22.6509V22.6405V22.6302V22.6199V22.6095V22.5992V22.5888V22.5785V22.5681V22.5578V22.5474V22.5371V22.5267V22.5164V22.5061V22.4957V22.4854V22.475V22.4647V22.4543V22.444V22.4336V22.4233V22.4129V22.4026V22.3923V22.3819V22.3716V22.3612V22.3509V22.3405V22.3302V22.3198V22.3095V22.2991V22.2888V22.2785V22.2681V22.2578V22.2474V22.2371V22.2267V22.2164V22.206V22.1957V22.1853V22.175V22.1647V22.1543V22.144V22.1336V22.1233V22.1129V22.1026V22.0922V22.0819V22.0715V22.0612V22.0509V22.0405V22.0302V22.0198V22.0095V21.9991V21.9888V21.9784V21.9681V21.9577V21.9474V21.9371V21.9267V21.9164V21.906V21.8957V21.8853V21.875V21.8646V21.8543V21.8439V21.8336V21.8233V21.8129V21.8026V21.7922V21.7819V21.7715V21.7612V21.7508V21.7405V21.7301V21.7198V21.7095V21.6991V21.6888V21.6784V21.6681V21.6577V21.6474V21.637V21.6267V21.6163V21.606V21.5957V21.5853V21.575V21.5646V21.5543V21.5439V21.5336V21.5232V21.5129V21.5025V21.4922V21.4819V21.4715V21.4612V21.4508V21.4405V21.4301V21.4198V21.4094V21.3991V21.3887V21.3784V21.3681V21.3577V21.3474V21.337V21.3267V21.3163V21.306V21.2956V21.2853V21.2749V21.2646V21.2543V21.2439V21.2336V21.2232V21.2129V21.2025V21.1922V21.1818V21.1715V21.1611V21.1508V21.1405V21.1301V21.1198V21.1094V21.0991V21.0887V21.0784V21.068V21.0577V21.0473V21.037V21.0267V21.0163V21.006V20.9956V20.9853V20.9749V20.9646V20.9542V20.9439V20.9335V20.9232V20.9129V20.9025V20.8922V20.8818V20.8715V20.8611V20.8508V20.8404V20.8301V20.8197V20.8094V20.7991V20.7887V20.7784V20.768V20.7577V20.7473V20.737V20.7266V20.7163V20.7059V20.6956V20.6853V20.6749V20.6646V20.6542V20.6439V20.6335V20.6232V20.6128V20.6025V20.5921V20.5818V20.5715V20.5611V20.5508V20.5404V20.5301V20.5197V20.5094V20.499V20.4887V20.4783V20.468V20.4577V20.4473V20.437V20.4266V20.4163V20.4059V20.3956V20.3852V20.3749V20.3645V20.3542V20.3439V20.3335V20.3232V20.3128V20.3025V20.2921V20.2818V20.2714V20.2611V20.2507V20.2404V20.2301V20.2197V20.2094V20.199V20.1887V20.1783V20.168V20.1576V20.1473V20.1369V20.1266V20.1163V20.1059V20.0956V20.0852V20.0749V20.0645V20.0542V20.0438V20.0335V20.0231V20.0128V20.0025V19.9921V19.9818V19.9714V19.9611V19.9507V19.9404V19.93V19.9197V19.9093V19.899V19.8887V19.8783V19.868V19.8576V19.8473V19.8369V19.8266V19.8162V19.8059V19.7955V19.7852V19.7749V19.7645V19.7542V19.7438V19.7335V19.7231V19.7128V19.7024V19.6921V19.6817V19.6714V19.6611V19.6507V19.6404V19.63V19.6197V19.6093V19.599V19.5886V19.5783V19.5679V19.5576V19.5473V19.5369V19.5266V19.5162V19.5059V19.4955V19.4852V19.4748V19.4645V19.4541V19.4438V19.4335V19.4231V19.4128V19.4024V19.3921V19.3817V19.3714V19.361V19.3507V19.3403V19.33V19.3197V19.3093V19.299V19.2886V19.2783V19.2679V19.2576V19.2472V19.2369V19.2265V19.2162V19.2059V19.1955V19.1852V19.1748V19.1645V19.1541V19.1438V19.1334V19.1231V19.1127V19.1024V19.0921V19.0817V19.0714V19.061V19.0507V19.0403V19.03V19.0196V19.0093V18.9989V18.9886V18.9783V18.9679V18.9576V18.9472V18.9369V18.9265V18.9162V18.9058V18.8955V18.8851V18.8748V18.8645V18.8541V18.8438ZM16.5973 19.2337C16.598 19.2328 16.5987 19.2319 16.5994 19.231C19.1032 19.2237 21.607 19.2313 24.1107 19.2539C24.1151 19.2634 24.1185 19.2739 24.1208 19.2855C24.1652 20.784 24.1508 22.2798 24.0775 23.7728C24.0749 23.7743 24.0723 23.7758 24.0696 23.7773C21.5758 23.8219 19.0846 23.8073 16.596 23.7334C16.5676 22.2336 16.568 20.7336 16.5973 19.2337Z" fill="white" stroke="white" stroke-width="0.4"/>
</svg>
