<svg width="173" height="52" viewBox="0 0 173 52" fill="none" xmlns="http://www.w3.org/2000/svg">
<path d="M77.2153 7.34056C77.7793 7.76822 78.4735 7.94486 79.146 8.01613C79.4807 8.06882 79.8278 8.04713 80.1656 8.05023C80.5065 8.01304 80.8443 7.99444 81.1789 7.92936C82.5177 7.68764 83.8162 7.22899 85.0403 6.61229C85.6663 6.34268 86.2582 5.9832 86.8625 5.664C87.4606 5.32621 88.0339 4.93884 88.6196 4.58246L90.3241 3.40794C90.9036 3.01437 91.5141 2.57431 92.1463 2.20553C93.4076 1.44628 94.7711 0.801691 96.2524 0.40812C97.7306 0.026944 99.3235 -0.143502 100.92 0.144704C102.509 0.408118 104.049 1.17976 105.236 2.30779C106.436 3.42963 107.291 4.89236 107.706 6.46045C107.914 7.24759 108.013 8.05952 108.004 8.87455C108.004 9.28052 107.964 9.68959 107.911 10.0925L107.802 10.6937L107.678 11.2267C107.598 11.58 107.508 11.9333 107.399 12.2958C107.307 12.6553 107.186 13.0148 107.055 13.3774C106.941 13.74 106.767 14.0932 106.622 14.4527C106.457 14.7998 106.278 15.1438 106.089 15.4723C105.32 16.7739 104.474 17.9174 103.644 19.0578C102.816 20.2014 101.973 21.3232 101.13 22.445C97.7833 26.951 94.4767 31.4972 91.0244 35.9721C93.6028 30.9456 96.4724 26.0801 99.5373 21.3387L100.687 19.563L101.859 17.8089C102.636 16.6437 103.414 15.4847 104.028 14.3319C104.644 13.1945 104.998 12.0107 105.289 10.6689L105.401 10.173L105.475 9.73607C105.509 9.44167 105.537 9.14727 105.537 8.85287C105.54 8.26096 105.46 7.66595 105.308 7.09263C105.019 5.93981 104.412 4.87066 103.566 4.05873C103.145 3.64966 102.667 3.30568 102.147 3.03296C101.623 2.76335 101.056 2.57741 100.473 2.44415C99.2987 2.17764 98.025 2.24581 96.7731 2.51233C95.5211 2.80053 94.2815 3.28398 93.0853 3.88828C92.4779 4.18888 91.92 4.53597 91.3095 4.88926C90.6897 5.25184 90.0761 5.62682 89.444 5.96771C88.7963 6.2869 88.1641 6.62779 87.5071 6.92219C86.8377 7.198 86.1931 7.51719 85.4958 7.73102C84.1354 8.21137 82.7005 8.55846 81.2409 8.60804C80.8783 8.62354 80.5096 8.59255 80.147 8.57705C79.7844 8.51817 79.4218 8.49028 79.0716 8.37872C78.895 8.33224 78.7214 8.28265 78.5541 8.20827C78.3837 8.14319 78.2163 8.07502 78.0614 7.98205C77.7453 7.8271 77.4447 7.61017 77.2153 7.34056Z" fill="#FF0079"/>
<path d="M117.536 52C117.71 51.2314 117.623 50.4226 117.27 49.7718C116.932 49.1117 116.34 48.6345 115.68 48.3184C115.017 47.9992 114.291 47.8008 113.548 47.6831C113.179 47.6149 112.798 47.5901 112.423 47.5498C112.042 47.5374 111.667 47.5033 111.282 47.5095C109.758 47.4847 108.217 47.618 106.69 47.8256C105.924 47.9217 105.159 48.0426 104.396 48.1634L102.094 48.5849C101.316 48.7274 100.541 48.8824 99.7634 49.0125L97.4206 49.3813C95.8556 49.6138 94.2844 49.8369 92.7039 50.0104C91.1203 50.1623 89.5305 50.2986 87.9129 50.3358C87.104 50.3606 86.2859 50.3544 85.4553 50.3141C85.0308 50.28 84.6124 50.2552 84.1662 50.1809C83.9523 50.1561 83.7075 50.0941 83.4751 50.0414C83.3418 50.0011 83.2241 49.9732 83.0815 49.9205L82.8491 49.8276C82.8119 49.8121 82.7406 49.7749 82.691 49.747L82.6105 49.7005C82.5764 49.6819 82.4772 49.6107 82.4183 49.558L83.097 49.8586C82.7623 49.8121 82.5795 49.7532 82.3378 49.6819C82.1146 49.6044 81.8915 49.527 81.6839 49.4185C81.2562 49.2233 80.8564 48.9537 80.4908 48.6345C79.7532 47.9961 79.2636 47.1098 79.0095 46.2297C78.5508 44.4384 78.8731 42.7805 79.3194 41.2992C79.4433 40.9304 79.5487 40.5523 79.6912 40.1959L80.1375 39.1423C80.2831 38.7828 80.4412 38.4543 80.5961 38.1289L81.0672 37.1434C81.6901 35.8294 82.3657 34.5434 83.0257 33.2511C84.3428 30.6665 85.7342 28.1223 87.104 25.5749C87.8044 24.3074 88.48 23.0306 89.1648 21.7569C89.5057 21.1185 89.8373 20.477 90.1534 19.8294C90.3115 19.504 90.4695 19.1817 90.6059 18.847C90.7329 18.5154 90.8972 18.1807 90.891 17.8181C90.9654 18.1807 90.86 18.5526 90.7825 18.9059C90.6988 19.2622 90.5935 19.6124 90.4881 19.9626C90.2681 20.6599 90.0202 21.3448 89.7691 22.0265C89.2702 23.3932 88.7093 24.7351 88.1639 26.08C87.042 28.7576 85.8985 31.4165 84.7302 34.0599L83.0102 38.0328L82.5826 39.0245C82.44 39.3561 82.2975 39.6877 82.1828 40.0038L81.8171 40.9645C81.7025 41.2837 81.6281 41.609 81.532 41.9313C81.1942 43.2081 81.0424 44.5221 81.3337 45.551C81.4948 46.0499 81.7428 46.4652 82.1053 46.7813C82.2882 46.9362 82.4896 47.0788 82.722 47.181C82.8336 47.2399 82.9545 47.2771 83.0722 47.3205C83.1776 47.3515 83.3449 47.3918 83.3666 47.3949L84.0453 47.6955C84.0081 47.6583 83.9275 47.6025 83.9151 47.5963L83.8997 47.5839C83.8935 47.5777 83.8656 47.5684 83.8718 47.5715C83.8873 47.5746 83.8997 47.5808 83.9151 47.587L84.0856 47.6366C84.2343 47.6645 84.3738 47.7048 84.5504 47.7234C84.8789 47.776 85.2446 47.8101 85.6041 47.8411C86.3417 47.8845 87.0947 47.9031 87.8571 47.8876C89.3818 47.8721 90.9282 47.7605 92.4746 47.6304C95.5735 47.3949 98.6756 47.0106 101.781 46.6201L104.142 46.3412C104.939 46.2699 105.732 46.1832 106.535 46.1522C108.134 46.0778 109.745 46.0809 111.36 46.2513C112.166 46.3443 112.968 46.4838 113.758 46.71C114.546 46.9331 115.333 47.2244 116.03 47.6955C116.727 48.151 117.341 48.808 117.62 49.6075C117.899 50.4133 117.849 51.2748 117.536 52Z" fill="#FF0079"/>
<path d="M9.19866 14.3937L7.81032 16.0609C7.15953 15.7944 6.53973 15.6581 5.94782 15.6581C4.88487 15.6581 4.04504 16.1074 3.43454 17.0092C2.82094 17.911 2.51414 19.1444 2.51414 20.7125C2.51414 21.8157 2.73417 22.7052 3.17732 23.3776C3.62048 24.0501 4.19689 24.3879 4.91276 24.3879C6.12137 24.3879 7.07276 23.5977 7.76073 22.0141C7.94047 22.2093 8.02724 22.3922 8.02724 22.5626C8.02724 23.2351 7.50041 23.985 6.44986 24.8094C5.3993 25.6337 4.43551 26.0459 3.5585 26.0459C2.71247 26.0459 2.0214 25.7081 1.48218 25.0294C0.942952 24.3507 0.67334 23.4737 0.67334 22.3922C0.67334 20.291 1.38611 18.379 2.81784 16.6559C4.24647 14.936 5.83316 14.0745 7.57789 14.0745C8.21319 14.0776 8.75241 14.1829 9.19866 14.3937Z" fill="white"/>
<path d="M15.2046 22.1506C15.4401 22.2652 15.5548 22.4109 15.5548 22.5906C15.5548 23.1763 15.1178 23.8984 14.247 24.7568C13.3731 25.6183 12.6417 26.0491 12.0498 26.0491C11.3773 26.0491 11.0396 25.5625 11.0396 24.5895C11.0396 23.9976 11.0767 23.3933 11.148 22.7766L11.2813 21.6919L12.2203 13.2162C12.5116 10.6347 13.3979 8.47781 14.8792 6.74858C16.3605 5.01934 18.0681 4.15472 19.9987 4.15472C20.4698 4.15472 20.8665 4.19501 21.1918 4.27558L19.4657 6.04201C19.0845 5.91185 18.6383 5.84677 18.1269 5.84677C16.9121 5.84677 16.001 6.27443 15.3967 7.12976C14.7924 7.98508 14.3772 9.4354 14.1509 11.4807L13.0198 21.6795C12.9299 22.4667 12.8865 23.0307 12.8865 23.3716C12.8865 24.1029 13.0105 24.4655 13.2615 24.4655C13.559 24.4655 13.9123 24.2269 14.3152 23.7434C14.7181 23.26 15.0187 22.7332 15.2046 22.1506Z" fill="white"/>
<path d="M24.4736 20.8954C23.5563 22.4047 22.5492 23.6411 21.4521 24.6018C20.3551 25.5625 19.3975 26.046 18.5886 26.046C17.4792 26.046 16.9214 25.1504 16.9214 23.356C16.9214 20.8892 17.7302 18.7509 19.351 16.9442C20.9718 15.1375 22.8869 14.2357 25.1058 14.2357C25.9487 14.2357 26.6677 14.3411 27.2627 14.5518C27.2224 14.6975 27.1976 14.7873 27.1883 14.8183L27.0427 15.4629C26.9466 15.9092 26.8908 16.1695 26.8846 16.2408L26.1068 21.6175L25.9983 22.3954C25.893 23.167 25.8403 23.6814 25.8403 23.9387C25.8403 24.2888 25.9425 24.4624 26.144 24.4624C26.8227 24.4624 27.5168 23.7031 28.2296 22.1846C28.4465 22.3148 28.5581 22.4449 28.5581 22.5751C28.5581 22.8602 28.2079 23.4304 27.5106 24.2919C26.5623 25.4603 25.6791 26.046 24.8672 26.046C24.2753 26.046 23.9778 25.6493 23.9778 24.8529C23.9778 24.608 24.0057 24.2733 24.0646 23.8426L24.1885 22.8695L24.3466 21.7973L24.4736 20.8954ZM25.1678 16.0734C24.4271 15.6613 23.6803 15.4536 22.9272 15.4536C21.7899 15.4536 20.8354 16.1478 20.0638 17.533C19.2921 18.9183 18.9078 20.6382 18.9078 22.6898C18.9078 23.7434 19.2208 24.2702 19.8468 24.2702C20.5689 24.2702 21.4428 23.7186 22.4655 22.6154C23.8476 21.131 24.6844 19.3893 24.9757 17.3874L25.1678 16.0734Z" fill="white"/>
<path d="M28.9395 25.3891L30.6222 24.0131C31.2575 24.6856 32.0539 25.0234 33.0146 25.0234C34.186 25.0234 34.7718 24.4594 34.7718 23.3313C34.7718 22.7054 34.2356 21.8345 33.1603 20.7127L32.463 19.9937C31.4465 18.9308 30.9352 18.0693 30.9352 17.4123C30.9352 16.4702 31.3443 15.6799 32.1593 15.0384C32.9743 14.397 33.9784 14.0778 35.1746 14.0778C35.8254 14.0778 36.5351 14.1986 37.3067 14.4434L35.844 15.7946C35.2273 15.3329 34.5424 15.1004 33.7863 15.1004C32.9 15.1004 32.4599 15.4692 32.4599 16.2099C32.4599 16.7367 32.9495 17.5114 33.9319 18.5341L34.6881 19.3367C35.8068 20.5051 36.3677 21.4472 36.3677 22.163C36.3677 23.1857 35.875 24.0875 34.8957 24.8715C33.9133 25.6556 32.7822 26.0461 31.4992 26.0461C30.5881 26.0461 29.7328 25.8291 28.9395 25.3891Z" fill="white"/>
<path d="M44.4773 22.1877C44.6942 22.3178 44.8058 22.4449 44.8058 22.5658C44.8058 22.8571 44.4525 23.4335 43.746 24.295C42.7977 25.4633 41.9145 26.049 41.1025 26.049C40.5106 26.049 40.2131 25.6554 40.2131 24.8683C40.2131 24.5367 40.334 23.514 40.5788 21.8034L41.0529 18.4968L41.1738 17.657L41.2699 16.9876C41.3101 16.7025 41.3318 16.4638 41.3318 16.2686C41.3318 15.8626 41.2172 15.6612 40.9909 15.6612C40.3619 15.6612 39.6832 16.3554 38.9549 17.7437C38.8 17.6043 38.7256 17.4679 38.7256 17.3285C38.7256 16.8326 39.1811 16.1663 40.0953 15.3327C41.0095 14.496 41.7378 14.0776 42.2801 14.0776C42.8875 14.0776 43.1943 14.4991 43.1943 15.342C43.1943 15.5032 43.1633 15.8378 43.0983 16.3399L42.9898 17.1549C42.9805 17.22 42.9371 17.5485 42.8565 18.1404L42.3576 21.6175L42.2367 22.3953C42.1314 23.167 42.0787 23.6814 42.0787 23.9386C42.0787 24.2888 42.181 24.4623 42.3824 24.4623C43.058 24.4654 43.7583 23.7062 44.4773 22.1877ZM42.0415 12.5064L43.0642 9.98695C43.9722 9.61508 44.719 9.09754 45.3047 8.44055C45.3853 8.55521 45.4256 8.67298 45.4256 8.79384C45.4256 9.88159 44.2976 11.1181 42.0415 12.5064Z" fill="white"/>
<path d="M49.8048 15.807L48.8194 25.6525C48.5993 27.8838 48.2615 29.582 47.8029 30.7503C47.3442 31.9187 46.6036 32.9692 45.5809 33.902C44.081 35.2718 42.3952 35.9597 40.5296 35.9597C40.1577 35.9597 39.6773 35.8575 39.0947 35.6591L40.7155 34.184C41.4066 34.4102 42.0295 34.5249 42.5904 34.5249C44.9859 34.5249 46.3681 32.7089 46.743 29.0831L47.0591 26.0616L48.0725 15.8101H45.8753L47.2606 14.397H48.2213L48.2925 13.6904C48.5838 10.6875 49.4485 8.34774 50.8864 6.67118C52.3243 4.99463 54.1806 4.1579 56.4553 4.1579C56.886 4.1579 57.3695 4.19819 57.9056 4.27876L56.2012 5.94911C55.5938 5.71359 54.9956 5.59583 54.413 5.59583C53.0154 5.59583 52.0237 6.07927 51.4318 7.04616C50.8399 8.01304 50.4091 9.86624 50.1426 12.6057L49.9598 14.397H54.8872L53.4369 15.8101H49.8048V15.807Z" fill="white"/>
<path d="M59.6377 22.1877C59.8546 22.3178 59.9662 22.4449 59.9662 22.5658C59.9662 22.8571 59.6129 23.4335 58.9063 24.295C57.9581 25.4633 57.0748 26.049 56.2629 26.049C55.671 26.049 55.3735 25.6554 55.3735 24.8683C55.3735 24.5367 55.4944 23.514 55.7392 21.8034L56.2133 18.4968L56.3342 17.657L56.4303 16.9876C56.4705 16.7025 56.4922 16.4638 56.4922 16.2686C56.4922 15.8626 56.3776 15.6612 56.1513 15.6612C55.5223 15.6612 54.8436 16.3554 54.1153 17.7437C53.9604 17.6043 53.886 17.4679 53.886 17.3285C53.886 16.8326 54.3415 16.1663 55.2557 15.3327C56.1699 14.496 56.8982 14.0776 57.4405 14.0776C58.0479 14.0776 58.3547 14.4991 58.3547 15.342C58.3547 15.5032 58.3237 15.8378 58.2587 16.3399L58.1502 17.1549C58.1409 17.22 58.0975 17.5485 58.0169 18.1404L57.518 21.6175L57.3971 22.3953C57.2918 23.167 57.2391 23.6814 57.2391 23.9386C57.2391 24.2888 57.3414 24.4623 57.5428 24.4623C58.2184 24.4654 58.9187 23.7062 59.6377 22.1877ZM57.2019 12.5064L58.2246 9.98695C59.1326 9.61508 59.8794 9.09754 60.4651 8.44055C60.5457 8.55521 60.586 8.67298 60.586 8.79384C60.586 9.88159 59.458 11.1181 57.2019 12.5064Z" fill="white"/>
<path d="M69.5978 14.3937L68.2095 16.0609C67.5587 15.7944 66.9389 15.6581 66.347 15.6581C65.284 15.6581 64.4442 16.1074 63.8337 17.0092C63.2201 17.911 62.9133 19.1444 62.9133 20.7125C62.9133 21.8157 63.1333 22.7052 63.5765 23.3776C64.0196 24.0501 64.5961 24.3879 65.3119 24.3879C66.5205 24.3879 67.4719 23.5977 68.1599 22.0141C68.3396 22.2093 68.4264 22.3922 68.4264 22.5626C68.4264 23.2351 67.8996 23.985 66.849 24.8094C65.7985 25.6337 64.8347 26.0459 63.9577 26.0459C63.1116 26.0459 62.4206 25.7081 61.8813 25.0294C61.3421 24.3507 61.0725 23.4737 61.0725 22.3922C61.0725 20.291 61.7853 18.379 63.217 16.6559C64.6456 14.936 66.2323 14.0745 67.9771 14.0745C68.6093 14.0776 69.1516 14.1829 69.5978 14.3937Z" fill="white"/>
<path d="M78.2224 20.8954C77.3051 22.4047 76.2979 23.6411 75.2009 24.6018C74.1038 25.5625 73.1463 26.046 72.3374 26.046C71.228 26.046 70.6702 25.1504 70.6702 23.356C70.6702 20.8892 71.479 18.7509 73.0998 16.9442C74.7205 15.1375 76.6357 14.2357 78.8546 14.2357C79.6975 14.2357 80.4165 14.3411 81.0115 14.5518C80.9712 14.6975 80.9464 14.7873 80.9371 14.8183L80.7915 15.4629C80.6954 15.9092 80.6396 16.1695 80.6334 16.2408L79.8556 21.6175L79.7471 22.3954C79.6417 23.167 79.5891 23.6814 79.5891 23.9387C79.5891 24.2888 79.6913 24.4624 79.8928 24.4624C80.5714 24.4624 81.2656 23.7031 81.9784 22.1846C82.1953 22.3148 82.3069 22.4449 82.3069 22.5751C82.3069 22.8602 81.9567 23.4304 81.2594 24.2919C80.3111 25.4603 79.4279 26.046 78.616 26.046C78.0241 26.046 77.7266 25.6493 77.7266 24.8529C77.7266 24.608 77.7545 24.2733 77.8133 23.8426L77.9373 22.8695L78.0953 21.7973L78.2224 20.8954ZM78.9166 16.0734C78.1759 15.6613 77.4291 15.4536 76.676 15.4536C75.5387 15.4536 74.5842 16.1478 73.8125 17.533C73.0409 18.9183 72.6566 20.6382 72.6566 22.6898C72.6566 23.7434 72.9696 24.2702 73.5956 24.2702C74.3177 24.2702 75.1916 23.7186 76.2143 22.6154C77.5964 21.131 78.4331 19.3893 78.7244 17.3874L78.9166 16.0734Z" fill="white"/>
<path d="M105.649 38.3956C105.85 38.5351 105.952 38.6962 105.952 38.8821C105.952 39.1332 105.692 39.5639 105.174 40.1744C103.786 41.7828 102.413 42.5854 101.059 42.5854C100.231 42.5854 99.5497 42.257 99.0136 41.6C98.4774 40.943 98.2109 40.1031 98.2109 39.0805C98.2109 37.2304 98.9113 35.3555 100.312 33.462C101.713 31.5654 103.098 30.6202 104.471 30.6202C105.463 30.6202 105.955 31.1533 105.955 32.2162C105.955 33.4093 105.376 34.5745 104.22 35.7119C103.064 36.8492 101.654 37.6394 99.9898 38.0857C100.151 40.035 100.923 41.008 102.305 41.008C103.662 40.9988 104.778 40.131 105.649 38.3956ZM100.033 36.592C100.269 36.6726 100.483 36.7129 100.678 36.7129C101.685 36.7129 102.565 36.403 103.321 35.7863C104.077 35.1696 104.452 34.4475 104.452 33.6201C104.452 32.6718 103.969 32.1945 103.002 32.1945C102.305 32.1945 101.673 32.6098 101.108 33.4434C100.544 34.277 100.188 35.3245 100.033 36.592Z" fill="white"/>
<path d="M111.496 35.7396C113.297 32.3214 115.069 30.6138 116.814 30.6138C117.27 30.6138 117.722 30.7192 118.178 30.9299L116.461 32.8048C116.201 32.6592 115.869 32.5848 115.463 32.5848C114.62 32.5848 113.728 33.2697 112.792 34.6363C111.856 36.003 111.304 37.4254 111.143 38.9036L110.814 41.8755L109.005 42.483L109.042 42.1173L109.129 41.327L109.225 40.5368L109.863 34.7417L109.937 34.1095C109.993 33.6291 110.021 33.2418 110.021 32.9412C110.021 32.4453 109.882 32.1974 109.606 32.1974C108.955 32.1974 108.311 32.8916 107.666 34.2799C107.464 34.125 107.365 33.9669 107.375 33.8058C107.399 33.3099 107.852 32.6561 108.735 31.8379C109.618 31.0229 110.316 30.6138 110.827 30.6138C111.518 30.6138 111.865 31.0694 111.865 31.9774C111.865 32.1974 111.843 32.4918 111.803 32.8668L111.719 33.719L111.608 34.7417L111.496 35.7396Z" fill="white"/>
<path d="M120.297 42.5822C118.472 42.5822 117.558 41.3736 117.558 38.9533C117.558 37.004 118.271 35.1292 119.702 33.3225C121.131 31.5157 122.612 30.6139 124.146 30.6139C125.996 30.6139 126.923 31.8225 126.923 34.2429C126.923 36.1983 126.207 38.0794 124.779 39.8799C123.35 41.6835 121.856 42.5822 120.297 42.5822ZM121.769 41.2187C122.702 41.2187 123.483 40.6981 124.112 39.6599C124.741 38.6217 125.057 37.3263 125.057 35.7768C125.057 33.245 124.27 31.9775 122.696 31.9775C121.769 31.9775 120.995 32.4981 120.366 33.5425C119.736 34.5868 119.42 35.8791 119.42 37.4193C119.42 39.9512 120.204 41.2187 121.769 41.2187ZM123.427 29.0428L124.803 26.5233C126.167 25.9469 127.217 25.3178 127.958 24.636C128.119 24.8963 128.203 25.1101 128.203 25.2806C128.2 26.1142 126.607 27.3693 123.427 29.0428Z" fill="white"/>
<path d="M132.098 32.3432L131.509 37.7262C131.404 38.6931 131.351 39.4058 131.351 39.8707C131.351 40.788 131.664 41.2466 132.287 41.2466C132.96 41.2466 133.654 40.695 134.373 39.5918C134.494 39.7467 134.556 39.8831 134.556 40.0071C134.556 40.4626 134.156 41.0049 133.356 41.6402C132.557 42.2724 131.869 42.5885 131.293 42.5885C130.14 42.5885 129.563 41.8509 129.563 40.3727C129.563 39.8304 129.631 38.9472 129.771 37.7293L130.354 32.3464H127.797L129.213 30.9332H130.508L130.766 28.7174L132.56 28.1193L132.266 30.9332H137.429L136.003 32.3464H132.098V32.3432Z" fill="white"/>
<path d="M143.019 38.724C143.236 38.8541 143.348 38.9812 143.348 39.1021C143.348 39.3934 142.995 39.9698 142.288 40.8313C141.337 41.9996 140.456 42.5853 139.645 42.5853C139.053 42.5853 138.755 42.1918 138.755 41.4046C138.755 41.073 138.876 40.0504 139.121 38.3397L139.595 35.0331L139.716 34.1933L139.812 33.5239C139.852 33.2388 139.874 33.0001 139.874 32.8049C139.874 32.3989 139.759 32.1975 139.533 32.1975C138.904 32.1975 138.225 32.8917 137.497 34.28C137.342 34.1406 137.268 34.0042 137.268 33.8648C137.268 33.3689 137.723 32.7026 138.637 31.869C139.552 31.0323 140.28 30.6139 140.822 30.6139C141.43 30.6139 141.736 31.0354 141.736 31.8783C141.736 32.0395 141.702 32.3742 141.64 32.8762L141.532 33.6912C141.522 33.7563 141.479 34.0848 141.399 34.6767L140.9 38.1538L140.779 38.9316C140.673 39.7033 140.621 40.2177 140.621 40.4749C140.621 40.8251 140.723 40.9986 140.924 40.9986C141.603 40.9986 142.3 40.2425 143.019 38.724ZM140.584 29.0427L141.606 26.5233C142.514 26.1514 143.261 25.6339 143.847 24.9769C143.927 25.0915 143.968 25.2093 143.968 25.3301C143.968 26.4148 142.84 27.6544 140.584 29.0427Z" fill="white"/>
<path d="M152.979 30.9299L151.591 32.5972C150.94 32.3307 150.32 32.1943 149.728 32.1943C148.665 32.1943 147.826 32.6437 147.215 33.5455C146.601 34.4473 146.295 35.6807 146.295 37.2487C146.295 38.352 146.515 39.2414 146.958 39.9139C147.401 40.5864 147.977 40.9241 148.693 40.9241C149.902 40.9241 150.853 40.1339 151.541 38.5503C151.721 38.7456 151.808 38.9284 151.808 39.0988C151.808 39.7713 151.281 40.5213 150.23 41.3456C149.18 42.17 148.216 42.5821 147.339 42.5821C146.496 42.5821 145.802 42.2443 145.263 41.5656C144.723 40.887 144.454 40.01 144.454 38.9284C144.454 36.8273 145.167 34.9152 146.598 33.1922C148.027 31.4722 149.614 30.6107 151.358 30.6107C151.994 30.6138 152.533 30.7192 152.979 30.9299Z" fill="white"/>
<path d="M156.741 42.5821C154.916 42.5821 154.002 41.3735 154.002 38.9532C154.002 37.0039 154.715 35.1291 156.146 33.3223C157.575 31.5156 159.056 30.6138 160.59 30.6138C162.441 30.6138 163.367 31.8224 163.367 34.2427C163.367 36.1982 162.651 38.0793 161.223 39.8798C159.794 41.6834 158.3 42.5821 156.741 42.5821ZM158.217 41.2186C159.149 41.2186 159.93 40.6979 160.559 39.6598C161.189 38.6216 161.502 37.3262 161.502 35.7767C161.502 33.2449 160.714 31.9774 159.14 31.9774C158.213 31.9774 157.436 32.498 156.81 33.5424C156.181 34.5867 155.868 35.879 155.868 37.4192C155.864 39.9511 156.649 41.2186 158.217 41.2186Z" fill="white"/>
<path d="M163.962 41.9251L165.645 40.5492C166.28 41.2217 167.077 41.5595 168.037 41.5595C169.209 41.5595 169.794 40.9954 169.794 39.8674C169.794 39.2414 169.258 38.3706 168.183 37.2488L167.486 36.5298C166.469 35.4668 165.958 34.6053 165.958 33.9483C165.958 33.0062 166.367 32.216 167.182 31.5745C167.997 30.933 169.001 30.6138 170.194 30.6138C170.845 30.6138 171.555 30.7347 172.326 30.9795L170.864 32.3307C170.247 31.8689 169.562 31.6365 168.806 31.6365C167.92 31.6365 167.48 32.0053 167.48 32.7459C167.48 33.2728 167.969 34.0475 168.952 35.0702L169.708 35.8728C170.83 37.0411 171.387 37.9832 171.387 38.6991C171.387 39.7218 170.898 40.6236 169.915 41.4076C168.933 42.1917 167.802 42.5821 166.519 42.5821C165.611 42.5821 164.759 42.3652 163.962 41.9251Z" fill="white"/>
</svg>
