<svg width="193" height="209" viewBox="0 0 193 209" fill="none" xmlns="http://www.w3.org/2000/svg">
<path opacity="0.2" d="M62.2738 196.308C74.1228 186.053 75.3112 169.166 73.271 154.313C72.9292 151.834 72.9343 149.183 71.5265 147.118C70.1187 145.059 67.2062 143.848 65.0945 145.131C63.3399 146.194 62.7584 148.426 61.9066 150.307C60.7793 152.815 58.9329 154.982 56.6529 156.484C55.1532 157.47 53.2507 158.175 51.598 157.475C49.3333 156.515 48.7774 153.572 48.5376 151.094C48.0939 146.48 47.645 141.861 47.2012 137.247C46.9615 134.769 46.7065 132.244 45.6965 129.971C44.6866 127.702 42.7636 125.694 40.3459 125.275C37.9282 124.861 35.1585 126.517 34.9136 128.99C34.8116 130.017 35.1228 131.044 35.1585 132.081C35.1942 133.118 34.8371 134.304 33.8884 134.687C32.9346 135.08 31.8736 134.477 31.0575 133.834C28.2521 131.596 26.1863 128.555 24.243 125.525C22.2945 122.49 20.3868 119.374 17.7957 116.89C15.1994 114.402 11.7768 112.573 8.21652 112.741C4.65623 112.905 1.11124 115.485 0.575662 119.057C0.0400872 122.639 2.43742 125.97 4.93677 128.566C8.65008 132.418 12.9143 135.724 17.5508 138.345C18.3873 138.82 19.2902 139.331 19.6829 140.215C20.3919 141.81 18.9994 143.608 17.4284 144.318C15.6483 145.126 13.6335 145.136 11.7309 145.565C9.82835 145.989 7.82887 147.057 7.28819 148.958C6.53839 151.594 8.92042 154.026 11.18 155.549C15.6993 158.6 20.7337 160.853 25.9976 162.192C27.8849 162.672 29.8588 163.055 31.4554 164.184C33.0519 165.313 34.1689 167.444 33.4599 169.278C32.7509 171.118 30.5372 171.91 28.599 171.751C26.6607 171.593 24.8499 170.735 22.9627 170.239C19.433 169.304 15.0719 169.994 13.1999 173.157C11.9706 175.236 12.1186 177.939 13.0826 180.167C14.0415 182.395 15.7146 184.229 17.459 185.895C23.5595 191.73 31.0575 196.16 39.2135 198.081C47.3645 199.997 54.7401 199.982 62.2738 196.308Z" fill="#F5F5F5"/>
<path d="M63.605 207.339C62.4574 201.489 60.4477 194.647 57.4689 187.356C54.5054 180.06 50.5931 172.329 46.2218 164.389C45.1201 162.406 44.0336 160.449 42.9625 158.518C41.8913 156.597 40.8253 154.686 39.6674 152.882C37.3721 149.269 34.888 145.969 32.4295 142.908C29.9761 139.847 27.5328 137.032 25.2324 134.421C22.9269 131.81 20.7285 129.419 18.6321 127.324C14.4546 123.114 10.6903 120.13 8.02261 118.183C6.69132 117.207 5.63038 116.482 4.90608 116.001C4.55923 115.771 4.28379 115.592 4.07976 115.46C3.89103 115.342 3.79412 115.281 3.78902 115.291C3.78392 115.296 3.87573 115.368 4.05426 115.501C4.25318 115.644 4.51842 115.838 4.85507 116.078C5.55897 116.584 6.60461 117.33 7.91549 118.331C10.5475 120.319 14.2659 123.333 18.4025 127.559C20.4785 129.664 22.6565 132.061 24.9468 134.682C27.2319 137.308 29.6598 140.123 32.1031 143.184C34.5412 146.24 37.0099 149.535 39.29 153.132C40.4376 154.926 41.4884 156.816 42.5646 158.748C43.6358 160.674 44.7171 162.636 45.8189 164.613C50.1851 172.549 54.0973 180.254 57.0761 187.519C60.0651 194.78 62.1003 201.581 63.2837 207.401" fill="white" fill-opacity="0.2"/>
<path d="M39.54 152.882C39.5706 152.882 39.6165 152.499 39.6726 151.799C39.7338 151.104 39.7848 150.092 39.8307 148.84C39.9276 146.342 39.9429 142.883 39.9429 139.071C39.9429 135.254 40.0093 131.81 40.1419 129.317C40.2031 128.07 40.2643 127.063 40.3153 126.369C40.3612 125.674 40.3765 125.285 40.3408 125.28C40.3102 125.275 40.2388 125.658 40.1368 126.348C40.0297 127.038 39.9225 128.05 39.8154 129.296C39.5961 131.79 39.4839 135.254 39.4839 139.071C39.4941 142.831 39.4992 146.234 39.5043 148.835C39.4992 150.01 39.4941 151.002 39.489 151.794C39.4941 152.494 39.5094 152.882 39.54 152.882Z" fill="white" fill-opacity="0.2"/>
<path d="M7.16069 150.215C7.16069 150.245 7.61975 150.25 8.44096 150.235C9.26218 150.225 10.4557 150.199 11.9247 150.22C14.8679 150.235 18.928 150.394 23.4064 150.772C27.8849 151.155 31.9195 151.676 34.8269 152.136C36.2857 152.356 37.4589 152.565 38.2699 152.703C39.0809 152.846 39.5349 152.913 39.54 152.882C39.5451 152.851 39.1064 152.729 38.3056 152.529C37.5048 152.335 36.3367 152.075 34.883 151.814C31.9807 151.272 27.9359 150.695 23.4472 150.312C18.9586 149.939 14.8781 149.826 11.9298 149.898C10.4557 149.923 9.26218 149.995 8.44096 150.061C7.60955 150.128 7.15559 150.184 7.16069 150.215Z" fill="white" fill-opacity="0.2"/>
<path d="M57.0202 186.814C57.0355 186.819 57.0967 186.676 57.1987 186.406C57.3161 186.079 57.4538 185.68 57.6221 185.2C57.9842 184.152 58.4739 182.614 59.0503 180.714C60.2082 176.912 61.6415 171.603 63.1411 165.732C64.6458 159.856 66.0281 154.543 67.1043 150.721C67.6348 148.861 68.0684 147.333 68.3897 146.199C68.5274 145.708 68.6396 145.299 68.7314 144.967C68.8029 144.686 68.8386 144.533 68.8233 144.528C68.808 144.523 68.7467 144.666 68.6447 144.942C68.5274 145.269 68.3897 145.667 68.2214 146.148C67.8592 147.2 67.3696 148.733 66.7932 150.634C65.6353 154.435 64.202 159.744 62.6973 165.62C61.1926 171.496 59.8103 176.805 58.734 180.627C58.2036 182.487 57.77 184.014 57.4487 185.149C57.3109 185.644 57.1987 186.048 57.1069 186.38C57.0355 186.656 57.0049 186.809 57.0202 186.814Z" fill="white" fill-opacity="0.2"/>
<path d="M13.4038 177.546C13.4038 177.561 13.5517 177.607 13.8425 177.673C14.1842 177.75 14.6025 177.842 15.1125 177.96C16.2806 178.21 17.8618 178.547 19.7848 178.961C23.7276 179.809 29.165 181.036 35.1685 182.405C41.1721 183.774 46.6247 184.955 50.588 185.721C52.567 186.104 54.1738 186.395 55.2908 186.574C55.806 186.656 56.2294 186.717 56.5762 186.774C56.872 186.814 57.0251 186.83 57.0302 186.809C57.0302 186.794 56.8822 186.748 56.5915 186.676C56.2498 186.6 55.8315 186.508 55.3214 186.39C54.1534 186.14 52.5721 185.803 50.6492 185.389C46.7063 184.546 41.269 183.314 35.2654 181.945C29.2619 180.576 23.8093 179.395 19.8511 178.634C17.872 178.251 16.2653 177.96 15.1483 177.781C14.6331 177.699 14.2097 177.633 13.8629 177.581C13.5619 177.546 13.4038 177.53 13.4038 177.546Z" fill="white" fill-opacity="0.2"/>
<path d="M50.1494 83.3871C49.7668 83.3871 49.3996 83.1725 49.2261 82.8046L47.0124 78.1907C46.8747 77.8994 46.8798 77.5622 47.0226 77.2761C47.1705 76.9899 47.4409 76.7907 47.7571 76.7345C48.5885 76.5914 49.3485 76.0702 49.8433 75.3038C50.3024 74.5987 50.4605 73.7863 50.282 73.0658C50.1035 72.3505 49.5832 71.6965 48.8436 71.2775C48.0581 70.8278 47.1195 70.695 46.3391 70.93C44.7426 71.4052 43.6001 73.2804 43.8449 75.0176C43.9214 75.5797 43.5337 76.1009 42.9727 76.1775C42.4014 76.2542 41.8913 75.8658 41.8148 75.3038C41.4323 72.5702 43.1971 69.7242 45.7577 68.9577C47.0838 68.5592 48.5834 68.7534 49.8637 69.4891C51.0828 70.1891 51.9601 71.3081 52.2764 72.5702C52.5926 73.8373 52.3325 75.2425 51.5623 76.4228C51.0063 77.2761 50.2412 77.9454 49.3639 78.3542L51.0675 81.9104C51.3123 82.4214 51.0981 83.0345 50.588 83.2798C50.4452 83.3513 50.2973 83.3871 50.1494 83.3871Z" fill="white" fill-opacity="0.2"/>
<path d="M52.3528 84.7105C52.5619 85.1243 52.3987 85.6302 51.9906 85.8397C51.5775 86.0492 51.0725 85.8857 50.8634 85.4769C50.6542 85.063 50.8175 84.5572 51.2255 84.3477C51.6336 84.1382 52.1385 84.2966 52.3528 84.7105Z" fill="white" fill-opacity="0.2"/>
<path d="M22.116 67.9307C21.8508 67.9307 21.5958 67.7825 21.4682 67.5219L19.9227 64.3029C19.8258 64.0985 19.8309 63.8635 19.9329 63.6642C20.0349 63.4649 20.2237 63.3219 20.4481 63.2861C21.0296 63.1839 21.5601 62.8211 21.9069 62.2846C22.2282 61.7941 22.3405 61.227 22.2129 60.7211C22.0905 60.2204 21.7233 59.7656 21.2081 59.4693C20.6572 59.1525 20.0043 59.0656 19.4586 59.2291C18.3415 59.5613 17.5458 60.8693 17.7141 62.0854C17.7702 62.4788 17.4948 62.8416 17.1071 62.8978C16.7093 62.954 16.3522 62.6781 16.2961 62.2846C16.0309 60.3737 17.2653 58.3861 19.0505 57.8547C19.9737 57.5788 21.0245 57.7116 21.9171 58.2277C22.7689 58.7131 23.381 59.4999 23.6003 60.3788C23.8197 61.2678 23.6411 62.2438 23.1056 63.0715C22.7179 63.6642 22.1823 64.1343 21.5703 64.4204L22.7638 66.9037C22.9372 67.2613 22.7842 67.6905 22.4272 67.8592C22.3252 67.9102 22.218 67.9307 22.116 67.9307Z" fill="#F5F5F5"/>
<path d="M23.6513 68.8606C23.7992 69.1467 23.687 69.5044 23.3962 69.6526C23.1106 69.8008 22.7535 69.6884 22.6056 69.3971C22.4577 69.1059 22.5699 68.7533 22.8607 68.6051C23.1514 68.4569 23.5033 68.5694 23.6513 68.8606Z" fill="#F5F5F5"/>
<path d="M149.389 69.668C149.501 69.9081 149.476 70.2045 149.297 70.4293L147.053 73.2038C146.91 73.3775 146.696 73.4746 146.471 73.4695C146.247 73.4643 146.038 73.3519 145.91 73.168C145.568 72.6877 145.012 72.3607 144.385 72.2738C143.804 72.1921 143.242 72.3351 142.845 72.6621C142.447 72.9892 142.192 73.5154 142.146 74.103C142.095 74.7366 142.294 75.3651 142.676 75.7892C143.457 76.6578 144.977 76.8213 145.997 76.1469C146.328 75.9272 146.772 76.0191 146.986 76.3512C147.206 76.6885 147.114 77.1279 146.782 77.3476C145.176 78.4053 142.855 78.1396 141.605 76.7498C140.957 76.0293 140.631 75.0228 140.713 73.9957C140.789 73.0147 141.233 72.1256 141.932 71.5534C142.635 70.976 143.6 70.7205 144.574 70.8534C145.278 70.9505 145.925 71.2366 146.451 71.6658L148.18 69.5249C148.43 69.2183 148.879 69.1672 149.19 69.4176C149.277 69.4891 149.343 69.576 149.389 69.668Z" fill="#F5F5F5"/>
<path d="M149.567 67.8796C149.766 67.6241 150.134 67.573 150.389 67.7723C150.644 67.9716 150.695 68.3395 150.496 68.5949C150.297 68.8504 149.93 68.9015 149.675 68.7022C149.414 68.503 149.369 68.1351 149.567 67.8796Z" fill="#F5F5F5"/>
<path d="M141.911 3.01909C142.023 3.25924 141.998 3.55559 141.819 3.78041L139.575 6.55489C139.432 6.72862 139.218 6.8257 138.993 6.82059C138.769 6.81548 138.56 6.70307 138.432 6.51913C138.091 6.03883 137.535 5.71182 136.907 5.62496C136.326 5.5432 135.765 5.68627 135.367 6.01328C134.969 6.34029 134.714 6.86657 134.668 7.45417C134.617 8.08775 134.816 8.71623 135.199 9.14032C135.979 10.0089 137.499 10.1724 138.519 9.49799C138.851 9.27828 139.294 9.37025 139.509 9.70237C139.728 10.0396 139.636 10.479 139.305 10.6987C137.698 11.7564 135.377 11.4907 134.127 10.1009C133.48 9.38047 133.153 8.37389 133.235 7.34687C133.311 6.36584 133.755 5.47678 134.454 4.90451C135.158 4.32713 136.122 4.07166 137.096 4.2045C137.8 4.30159 138.448 4.58772 138.973 5.01692L140.702 2.87602C140.952 2.56945 141.401 2.51836 141.712 2.76872C141.799 2.84026 141.865 2.92201 141.911 3.01909Z" fill="#F5F5F5"/>
<path d="M142.09 1.22566C142.289 0.970184 142.656 0.919089 142.911 1.11836C143.166 1.31763 143.217 1.68552 143.018 1.941C142.819 2.19647 142.452 2.24757 142.197 2.0483C141.937 1.85413 141.891 1.48625 142.09 1.22566Z" fill="#F5F5F5"/>
<path d="M85.2832 13.2638C85.6301 13.2638 85.9616 13.458 86.1248 13.7952L88.1345 17.9799C88.262 18.2456 88.2569 18.5522 88.1243 18.8076C87.9917 19.0682 87.7417 19.2471 87.4561 19.2982C86.7012 19.431 86.0126 19.9011 85.5586 20.596C85.1455 21.2347 84.9976 21.9756 85.1608 22.6245C85.3189 23.2734 85.7984 23.8661 86.4666 24.2493C87.1807 24.6581 88.0325 24.7756 88.7415 24.5661C90.1901 24.1318 91.2255 22.4354 91.0062 20.8566C90.9348 20.3456 91.2867 19.8755 91.7968 19.804C92.3171 19.7325 92.7762 20.0901 92.8476 20.596C93.1944 23.0792 91.5928 25.6595 89.272 26.3544C88.0682 26.7121 86.7063 26.5384 85.5433 25.8741C84.4365 25.2406 83.6408 24.2238 83.3551 23.0792C83.0695 21.9245 83.3041 20.6522 84.0029 19.5843C84.5079 18.8128 85.2016 18.2047 85.9973 17.8317L84.4518 14.6076C84.2274 14.1426 84.4263 13.5857 84.8904 13.3609C85.0078 13.2945 85.1455 13.2638 85.2832 13.2638Z" fill="white" fill-opacity="0.2"/>
<path d="M83.2837 12.0579C83.0899 11.6849 83.2378 11.2251 83.6152 11.0309C83.9876 10.8367 84.4466 10.9849 84.6405 11.363C84.8343 11.736 84.6864 12.1959 84.3089 12.39C83.9315 12.5842 83.4724 12.436 83.2837 12.0579Z" fill="white" fill-opacity="0.2"/>
<path d="M154.479 95.9362C154.826 95.9362 155.158 96.1303 155.321 96.4676L157.326 100.652C157.453 100.918 157.448 101.225 157.315 101.48C157.183 101.741 156.933 101.919 156.647 101.971C155.892 102.103 155.204 102.573 154.75 103.268C154.337 103.907 154.189 104.648 154.352 105.297C154.51 105.946 154.99 106.538 155.658 106.922C156.372 107.33 157.224 107.448 157.933 107.238C159.381 106.804 160.417 105.108 160.197 103.529C160.126 103.018 160.478 102.548 160.988 102.476C161.508 102.405 161.967 102.763 162.039 103.268C162.386 105.752 160.784 108.332 158.463 109.027C157.259 109.384 155.897 109.211 154.735 108.547C153.628 107.913 152.832 106.896 152.546 105.752C152.261 104.602 152.495 103.325 153.194 102.257C153.699 101.485 154.393 100.877 155.188 100.504L153.643 97.28C153.419 96.815 153.617 96.2581 154.082 96.0332C154.204 95.9668 154.342 95.9362 154.479 95.9362Z" fill="white" fill-opacity="0.2"/>
<path d="M152.48 94.7303C152.286 94.3573 152.434 93.8974 152.812 93.7033C153.189 93.5091 153.643 93.6573 153.837 94.0354C154.031 94.4084 153.883 94.8682 153.505 95.0624C153.128 95.2566 152.669 95.1084 152.48 94.7303Z" fill="white" fill-opacity="0.2"/>
<path opacity="0.2" d="M168.399 122.986C168.399 122.986 164.477 119.966 158.759 129.47C153.041 138.974 150.735 144.523 150.735 144.523C150.735 144.523 149.261 146.495 147.94 145.044C146.619 143.593 144.951 139.623 142.493 140.139C139.942 140.675 138.922 143.409 139.106 147.548C139.289 151.686 139.361 160.761 139.366 161.583C139.371 162.391 138.825 163.535 137.769 162.692C136.714 161.849 130.822 154.251 127.389 157.266C123.957 160.28 126.359 171.721 126.599 172.978C126.839 174.235 126.558 174.74 125.951 175.006C125.344 175.272 123.605 172.528 121.84 170.438C120.075 168.348 117.667 166.233 115.831 168.139C113.995 170.045 112.857 178.419 119.876 192.655L123.559 199.036L130.95 199.154C146.782 198.439 153.556 193.395 154.336 190.866C155.117 188.337 152.102 187.244 149.424 186.707C146.747 186.171 143.508 185.966 143.446 185.307C143.385 184.648 143.696 184.157 144.91 183.764C146.124 183.365 157.285 179.952 158.264 175.486C159.243 171.021 149.761 169.519 148.511 169.002C147.262 168.481 148.006 167.454 148.71 167.066C149.43 166.673 157.402 162.35 161.105 160.516C164.808 158.681 166.706 156.464 165.946 153.97C165.211 151.564 160.937 152.018 159.029 151.559C157.121 151.099 158.136 148.856 158.136 148.856C158.136 148.856 161.875 144.155 167.425 134.549C172.969 124.943 168.312 122.935 168.312 122.935" fill="#EBEBEB"/>
<path d="M163.263 131.483C163.263 131.483 163.232 131.555 163.156 131.693C163.074 131.836 162.967 132.035 162.824 132.29C162.523 132.822 162.09 133.588 161.528 134.574C160.401 136.557 158.754 139.408 156.703 142.929C152.602 149.964 146.854 159.642 140.473 170.305C134.092 180.974 128.323 190.636 124.186 197.652C122.126 201.157 120.458 203.993 119.295 205.965C118.718 206.941 118.274 207.697 117.963 208.223C117.81 208.474 117.698 208.668 117.611 208.806C117.53 208.939 117.484 209 117.484 209C117.484 209 117.514 208.928 117.591 208.79C117.668 208.647 117.78 208.448 117.923 208.193C118.223 207.661 118.657 206.895 119.218 205.914C120.345 203.936 121.993 201.08 124.043 197.565C128.144 190.529 133.893 180.852 140.274 170.183C146.655 159.519 152.424 149.857 156.56 142.842C158.621 139.337 160.289 136.501 161.452 134.528C162.028 133.553 162.472 132.791 162.783 132.27C162.936 132.02 163.049 131.825 163.135 131.688C163.217 131.55 163.263 131.483 163.263 131.483Z" fill="white" fill-opacity="0.2"/>
<path d="M144.604 145.785C144.62 145.78 144.671 145.963 144.752 146.296C144.834 146.628 144.941 147.113 145.068 147.711C145.318 148.912 145.619 150.577 145.92 152.422C146.211 154.241 146.471 155.886 146.67 157.143C146.762 157.71 146.843 158.186 146.905 158.574C146.961 158.911 146.986 159.1 146.971 159.105C146.956 159.11 146.9 158.926 146.818 158.594C146.736 158.262 146.629 157.777 146.512 157.174C146.277 155.973 145.997 154.302 145.696 152.458C145.395 150.644 145.119 148.999 144.915 147.742C144.818 147.174 144.737 146.699 144.671 146.311C144.614 145.974 144.589 145.785 144.604 145.785Z" fill="white" fill-opacity="0.2"/>
<path d="M147.634 159.279C147.619 159.218 151.021 158.441 155.229 157.552C159.437 156.658 162.86 155.988 162.87 156.05C162.885 156.111 159.483 156.888 155.275 157.777C151.072 158.666 147.649 159.34 147.634 159.279Z" fill="white" fill-opacity="0.2"/>
<path d="M137.096 175.216C137.096 175.2 137.29 175.205 137.642 175.231C138.034 175.262 138.529 175.297 139.116 175.343C140.36 175.435 142.079 175.553 143.977 175.614C145.879 175.681 147.598 175.681 148.848 175.67C149.435 175.665 149.929 175.66 150.327 175.66C150.674 175.66 150.868 175.665 150.868 175.681C150.868 175.696 150.674 175.721 150.327 175.747C149.98 175.773 149.475 175.808 148.853 175.829C147.603 175.88 145.879 175.905 143.972 175.839C142.064 175.778 140.345 175.635 139.106 175.502C138.483 175.43 137.983 175.369 137.637 175.318C137.285 175.267 137.096 175.231 137.096 175.216Z" fill="white" fill-opacity="0.2"/>
<path d="M131.674 163.612C131.689 163.607 131.781 163.76 131.934 164.046C132.102 164.378 132.317 164.782 132.562 165.262C133.082 166.294 133.786 167.725 134.556 169.309C135.321 170.893 136.005 172.339 136.489 173.387C136.708 173.877 136.897 174.296 137.05 174.633C137.178 174.93 137.244 175.098 137.229 175.103C137.213 175.108 137.122 174.955 136.969 174.669C136.8 174.337 136.586 173.933 136.341 173.453C135.821 172.421 135.117 170.99 134.347 169.406C133.582 167.822 132.898 166.376 132.414 165.329C132.194 164.838 132.006 164.419 131.853 164.082C131.725 163.786 131.659 163.617 131.674 163.612Z" fill="white" fill-opacity="0.2"/>
<path d="M120.59 176.498C120.605 176.493 120.718 176.687 120.917 177.055C121.126 177.459 121.401 177.98 121.728 178.608C122.401 179.927 123.319 181.751 124.324 183.774C125.324 185.797 126.221 187.637 126.859 188.971C127.16 189.609 127.41 190.146 127.604 190.56C127.777 190.938 127.864 191.147 127.848 191.157C127.833 191.163 127.721 190.968 127.522 190.6C127.313 190.197 127.037 189.676 126.711 189.047C126.038 187.729 125.12 185.905 124.115 183.881C123.115 181.858 122.217 180.019 121.58 178.685C121.279 178.046 121.029 177.51 120.835 177.096C120.662 176.718 120.575 176.503 120.59 176.498Z" fill="white" fill-opacity="0.2"/>
<path d="M127.767 190.754C127.767 190.738 128.012 190.738 128.455 190.754C128.94 190.774 129.567 190.795 130.327 190.825C131.909 190.887 134.092 190.958 136.504 190.974C138.917 190.989 141.105 190.948 142.686 190.907C143.446 190.887 144.079 190.871 144.558 190.861C145.002 190.851 145.247 190.856 145.247 190.871C145.247 190.887 145.002 190.917 144.563 190.953C144.12 190.989 143.482 191.035 142.692 191.076C141.11 191.157 138.922 191.229 136.504 191.209C134.087 191.193 131.898 191.096 130.322 190.994C129.532 190.943 128.894 190.892 128.45 190.851C128.007 190.8 127.767 190.769 127.767 190.754Z" fill="white" fill-opacity="0.2"/>
<path d="M192.5 207.314C192.5 207.385 151.143 207.447 100.141 207.447C49.119 207.447 7.77271 207.385 7.77271 207.314C7.77271 207.242 49.119 207.181 100.141 207.181C151.143 207.181 192.5 207.237 192.5 207.314Z" fill="#263238"/>
<path d="M147.726 175.727L139.958 138.611C139.958 138.611 135.403 120.722 119.728 114.56L118.647 114.228C118.621 114.218 117.158 113.773 117.137 113.763C116.505 113.518 113.934 112.7 113.256 112.491C92.1182 105.149 86.5074 107.06 64.4826 114.591C64.4826 114.591 54.6943 117.228 49.9557 130.017C45.2121 142.806 36.1328 162.805 36.1328 162.805L58.1067 170.576L62.3198 164.307V187.448V207.186H88.3998H122.763L121.095 187.448L120.805 163.132" fill="#FF0079"/>
<path d="M86.2065 116.865C86.2167 116.88 86.0381 117.044 85.7015 117.335C85.5332 117.483 85.324 117.657 85.069 117.836C84.814 118.02 84.5283 118.239 84.1866 118.444C83.5184 118.878 82.6819 119.317 81.7127 119.731C80.7385 120.125 79.6316 120.482 78.4432 120.722C77.2496 120.947 76.0918 121.039 75.041 121.039C73.9903 121.024 73.0466 120.932 72.2662 120.779C71.8735 120.722 71.5266 120.62 71.2206 120.549C70.9145 120.482 70.6544 120.395 70.4453 120.324C70.027 120.181 69.7975 120.099 69.8026 120.079C69.8179 120.028 70.7462 120.349 72.2968 120.59C73.0721 120.717 74.0056 120.784 75.041 120.789C76.0764 120.774 77.2139 120.676 78.3922 120.457C79.5653 120.222 80.6569 119.879 81.6209 119.501C82.5799 119.108 83.4164 118.689 84.0897 118.28C85.4363 117.473 86.1708 116.819 86.2065 116.865Z" fill="#FAFAFA" fill-opacity="0.2"/>
<g opacity="0.3">
<path opacity="0.3" d="M62.3198 180.622L67.2726 186.354H72.1438V192.598L122.513 204.263L122.105 199.404L74.7145 183.105H66.7727L62.9421 180.039L62.3198 180.622Z" fill="black"/>
</g>
<path d="M77.1527 175.517L72.9497 174.735C72.9497 174.735 62.9932 163.827 61.1212 163.668C59.5859 163.54 51.1136 163.622 48.1603 163.658C47.5992 163.663 47.1453 164.123 47.1453 164.685C47.1453 165.237 47.5788 165.692 48.1297 165.712L58.1373 166.1L58.1832 166.908L48.1603 167.041C47.1402 167.117 46.4873 168.737 49.7517 169.028L58.1373 169.324V169.846L49.6344 171.036C49.206 171.097 48.0736 171.317 48.0634 171.752C48.0634 171.752 47.5482 172.819 49.9711 173.121C50.8025 173.223 58.1832 172.978 58.1832 172.978L57.8976 173.642L50.2567 175.292C49.7007 175.415 49.3335 175.941 49.41 176.508C49.4916 177.086 50.0068 177.495 50.5882 177.438L58.7494 176.682L66.7575 183.09H77.469L77.1527 175.517Z" fill="#FFBE9D"/>
<path d="M147.726 175.727L123.283 180.545L120.799 163.132" fill="#FF0079"/>
<path d="M120.024 176.391L74.7146 174.925L74.7197 190.611L104.783 196.594L125.89 199.972C139.009 199.972 149.501 187.908 147.471 174.925L147.415 174.94L120.024 176.391Z" fill="#FF0079"/>
<path d="M132.501 176.105C132.501 176.115 132.297 176.13 131.914 176.146C131.496 176.156 130.935 176.171 130.231 176.192C128.731 176.217 126.625 176.258 124.033 176.304C118.8 176.381 111.572 176.468 103.59 176.391C95.602 176.314 88.3743 176.023 83.1512 175.671C80.5396 175.497 78.4279 175.328 76.9742 175.18C76.2703 175.108 75.7143 175.052 75.2961 175.006C74.9135 174.965 74.7146 174.935 74.7146 174.925C74.7146 174.914 74.9186 174.919 75.3012 174.935C75.7194 174.96 76.2754 174.996 76.9844 175.042C78.4432 175.144 80.5549 175.277 83.1665 175.42C88.3896 175.711 95.6122 175.957 103.595 176.038C111.572 176.115 118.8 176.064 124.033 176.054C126.625 176.054 128.731 176.054 130.231 176.054C130.94 176.064 131.501 176.069 131.914 176.074C132.297 176.079 132.501 176.089 132.501 176.105Z" fill="#263238"/>
<path d="M74.7145 175.067C74.7196 175.067 74.7247 175.164 74.7298 175.348C74.7349 175.548 74.74 175.818 74.7451 176.161C74.7502 176.891 74.7655 177.934 74.7757 179.252C74.7859 181.935 74.8063 185.751 74.8267 190.34L74.74 190.233C79.856 191.331 85.9922 192.69 92.5925 194.08C101.646 195.996 109.884 197.514 115.877 198.438C118.871 198.898 121.304 199.236 122.983 199.46C123.809 199.568 124.457 199.655 124.916 199.716C125.125 199.746 125.293 199.772 125.421 199.787C125.533 199.808 125.589 199.818 125.589 199.823C125.589 199.828 125.528 199.823 125.416 199.818C125.288 199.808 125.12 199.792 124.911 199.772C124.452 199.721 123.799 199.655 122.967 199.568C121.284 199.379 118.846 199.067 115.847 198.627C109.843 197.749 101.59 196.262 92.5364 194.341C85.931 192.951 79.7999 191.576 74.689 190.452L74.6023 190.432V190.34C74.6176 185.751 74.6329 181.935 74.6431 179.252C74.6533 177.934 74.6635 176.891 74.6737 176.161C74.6788 175.818 74.6839 175.548 74.689 175.348C74.7043 175.164 74.7094 175.067 74.7145 175.067Z" fill="#263238"/>
<path d="M70.8482 132.158C70.8278 132.158 70.8431 131.882 70.8788 131.391C70.9094 130.901 70.9604 130.19 70.9757 129.312C71.0267 127.559 70.9451 125.122 70.5013 122.48C70.0371 119.849 69.4506 117.452 68.5375 115.965C68.0938 115.219 67.5735 114.724 67.1858 114.438C66.788 114.157 66.533 114.049 66.5483 114.024C66.5534 114.014 66.6146 114.039 66.737 114.085C66.8594 114.131 67.0328 114.218 67.2471 114.351C67.6653 114.616 68.2213 115.107 68.7008 115.863C69.1853 116.614 69.5985 117.6 69.9249 118.725C70.2514 119.849 70.5472 121.1 70.7665 122.434C71.2154 125.096 71.2664 127.554 71.1644 129.317C71.1236 130.201 71.042 130.911 70.9808 131.401C70.9145 131.892 70.8635 132.163 70.8482 132.158Z" fill="#263238"/>
<path d="M120.677 118.372C120.749 118.372 120.81 128.801 120.81 141.661C120.81 154.527 120.749 164.956 120.677 164.956C120.606 164.956 120.544 154.527 120.544 141.661C120.544 128.801 120.606 118.372 120.677 118.372Z" fill="#263238"/>
<path d="M136.316 170.76C136.316 170.811 135.546 170.786 134.322 170.939C133.709 171.011 132.985 171.149 132.2 171.353C131.414 171.568 130.567 171.859 129.705 172.242C128.848 172.635 128.073 173.085 127.395 173.53C126.721 173.989 126.14 174.439 125.681 174.853C124.758 175.676 124.268 176.268 124.232 176.238C124.217 176.227 124.329 176.069 124.549 175.798C124.763 175.522 125.105 175.149 125.553 174.715C126.002 174.281 126.579 173.806 127.257 173.325C127.941 172.86 128.726 172.395 129.598 171.997C130.47 171.608 131.338 171.317 132.138 171.113C132.944 170.919 133.679 170.796 134.301 170.75C134.923 170.699 135.428 170.684 135.78 170.709C136.122 170.724 136.316 170.74 136.316 170.76Z" fill="#263238"/>
<g opacity="0.3">
<g opacity="0.3">
<path opacity="0.3" d="M71.2717 172.932C78.9074 168.364 83.6766 160.797 88.3335 153.209C92.9905 145.621 97.3312 137.65 103.789 131.524C106.757 128.709 110.226 126.338 111.317 122.398L99.7081 131.642L67.3696 168.895L71.2717 172.932Z" fill="black"/>
</g>
</g>
<path d="M50.3075 152.943C50.3177 153.045 48.4815 152.974 46.3953 153.684C45.3547 154.042 44.4621 154.497 43.8143 154.824C43.1716 155.156 42.7687 155.365 42.7483 155.335C42.733 155.304 43.0951 155.038 43.7225 154.66C44.3499 154.287 45.2425 153.797 46.3086 153.434C47.3746 153.071 48.3897 152.933 49.1242 152.897C49.8536 152.867 50.3075 152.913 50.3075 152.943Z" fill="#263238"/>
<path d="M50.3075 152.943C50.3177 153.045 48.4815 152.974 46.3953 153.684C45.3547 154.042 44.4621 154.497 43.8143 154.824C43.1716 155.156 42.7687 155.365 42.7483 155.335C42.733 155.304 43.0951 155.038 43.7225 154.66C44.3499 154.287 45.2425 153.797 46.3086 153.434C47.3746 153.071 48.3897 152.933 49.1242 152.897C49.8536 152.867 50.3075 152.913 50.3075 152.943Z" fill="#263238"/>
<path d="M120.483 169.641C120.458 169.687 119.932 169.176 118.718 168.829C117.52 168.456 115.637 168.461 113.505 169.156C111.343 169.795 109.098 171.327 106.329 172.482C104.946 173.039 103.375 173.479 101.718 173.366C100.06 173.284 98.443 172.651 96.9026 171.884C95.3571 171.113 93.9136 170.239 92.4497 169.56C90.9909 168.87 89.481 168.446 88.012 168.303C85.0587 168.022 82.3758 168.706 80.3712 169.687C78.336 170.643 76.969 171.91 76.1172 172.819C75.9132 173.054 75.7244 173.264 75.5612 173.448C75.4184 173.637 75.296 173.8 75.194 173.938C75.1021 174.061 75.0256 174.158 74.9644 174.24C74.9134 174.306 74.8828 174.342 74.8777 174.337C74.8726 174.337 74.893 174.296 74.9389 174.225C74.995 174.143 75.0613 174.035 75.1481 173.908C75.245 173.765 75.3623 173.596 75.4949 173.397C75.653 173.208 75.8315 172.993 76.0356 172.753C76.8721 171.813 78.234 170.515 80.2845 169.524C81.2944 169.008 82.4778 168.589 83.7836 168.313C85.0893 168.037 86.5277 167.919 88.0273 168.062C89.527 168.195 91.0725 168.63 92.5517 169.324C94.036 170.009 95.4795 170.883 97.0097 171.649C98.5348 172.411 100.121 173.024 101.723 173.111C103.324 173.223 104.855 172.809 106.227 172.262C108.966 171.138 111.236 169.611 113.439 168.982C115.607 168.303 117.53 168.323 118.739 168.737C119.346 168.926 119.784 169.166 120.065 169.345C120.192 169.432 120.289 169.508 120.376 169.565C120.453 169.611 120.483 169.636 120.483 169.641Z" fill="#FAFAFA" fill-opacity="0.2"/>
<path d="M142.641 150.746C142.63 150.782 142.324 150.593 141.722 150.572C141.126 150.537 140.248 150.751 139.325 151.308C138.382 151.835 137.474 152.795 136.188 153.521C135.551 153.873 134.775 154.139 133.954 154.083C133.138 154.037 132.347 153.71 131.603 153.337C130.853 152.959 130.159 152.535 129.44 152.248C128.726 151.952 127.996 151.758 127.293 151.645C126.589 151.528 125.91 151.502 125.273 151.533C124.64 151.559 124.049 151.645 123.523 151.763C122.467 151.998 121.656 152.351 121.116 152.627C120.575 152.897 120.294 153.091 120.279 153.066C120.274 153.061 120.34 153.005 120.473 152.913C120.606 152.821 120.799 152.678 121.07 152.535C121.6 152.228 122.411 151.845 123.482 151.579C124.018 151.446 124.615 151.344 125.262 151.313C125.91 151.272 126.609 151.288 127.328 151.4C128.053 151.508 128.797 151.702 129.537 152.003C130.282 152.294 130.98 152.724 131.72 153.091C132.454 153.464 133.204 153.771 133.964 153.817C134.724 153.873 135.443 153.633 136.066 153.301C137.31 152.621 138.244 151.671 139.223 151.145C140.182 150.593 141.1 150.399 141.722 150.47C142.034 150.496 142.263 150.572 142.416 150.634C142.569 150.695 142.641 150.736 142.641 150.746Z" fill="#FAFAFA" fill-opacity="0.2"/>
<path d="M120.208 143.751C120.203 143.761 120.085 143.741 119.861 143.69C119.749 143.669 119.611 143.629 119.448 143.603C119.279 143.583 119.085 143.557 118.876 143.526C118.014 143.429 116.739 143.48 115.24 143.899C113.74 144.318 112.052 145.105 110.271 146.142C108.491 147.175 106.579 148.447 104.35 149.367C103.238 149.821 102.1 150.169 100.968 150.296C99.8354 150.429 98.7184 150.348 97.7033 150.072C96.6883 149.801 95.7855 149.382 94.9591 148.973C94.1328 148.564 93.3779 148.161 92.674 147.829C91.2713 147.149 90.0421 146.817 89.1749 146.771C88.7414 146.766 88.4047 146.761 88.1752 146.802C87.9457 146.827 87.8232 146.832 87.8232 146.822C87.8232 146.812 87.9406 146.786 88.165 146.745C88.3894 146.689 88.7312 146.674 89.1749 146.664C90.0574 146.679 91.3223 146.991 92.7454 147.655C93.4595 147.977 94.2246 148.37 95.0509 148.769C95.8773 149.162 96.7699 149.571 97.7594 149.826C98.7439 150.087 99.8252 150.164 100.932 150.031C102.039 149.908 103.151 149.566 104.248 149.116C106.446 148.212 108.348 146.955 110.149 145.928C111.95 144.896 113.669 144.119 115.194 143.715C116.719 143.312 118.019 143.291 118.892 143.424C119.106 143.46 119.295 143.496 119.468 143.526C119.631 143.562 119.769 143.608 119.881 143.639C120.095 143.705 120.208 143.741 120.208 143.751Z" fill="#FAFAFA" fill-opacity="0.2"/>
<path d="M136 128.034C136.01 128.049 135.816 128.162 135.454 128.351C135.092 128.54 134.571 128.801 133.903 129.092C133.24 129.383 132.429 129.7 131.485 129.93C130.552 130.165 129.466 130.272 128.354 130.144C127.242 130.027 126.216 129.792 125.273 129.664C124.334 129.526 123.477 129.516 122.768 129.618C121.335 129.812 120.636 130.466 120.616 130.415C120.611 130.41 120.652 130.369 120.728 130.298C120.81 130.226 120.937 130.129 121.111 130.022C121.458 129.807 122.013 129.557 122.738 129.434C123.462 129.306 124.345 129.296 125.303 129.424C126.262 129.541 127.293 129.771 128.379 129.884C130.567 130.144 132.506 129.444 133.832 128.923C134.5 128.657 135.036 128.417 135.408 128.259C135.785 128.095 135.995 128.014 136 128.034Z" fill="#FAFAFA" fill-opacity="0.2"/>
<path d="M70.0474 136.542C70.0372 136.577 69.7465 136.347 69.1446 136.322C68.5478 136.291 67.6756 136.536 66.8085 137.19C66.3647 137.502 65.9107 137.89 65.3599 138.248C64.8141 138.611 64.151 138.882 63.4267 139.025C61.9679 139.306 60.3255 139.035 58.7493 138.468C57.1681 137.896 55.7552 137.17 54.3984 136.69C53.7251 136.444 53.0672 136.26 52.4449 136.153C51.8175 136.051 51.2258 136.02 50.6902 136.046C49.6089 136.102 48.7673 136.404 48.247 136.7C47.7216 136.996 47.4768 137.236 47.4564 137.216C47.4513 137.211 47.5074 137.15 47.6247 137.037C47.742 136.925 47.9307 136.771 48.1909 136.613C48.7111 136.281 49.5681 135.939 50.6749 135.862C51.2258 135.821 51.8379 135.842 52.4806 135.939C53.1233 136.041 53.7966 136.22 54.4801 136.46C55.8572 136.93 57.2803 137.655 58.8361 138.217C60.3816 138.774 61.9832 139.04 63.3808 138.785C64.0745 138.657 64.707 138.407 65.2374 138.064C65.773 137.727 66.2372 137.349 66.6962 137.037C67.594 136.388 68.5274 136.153 69.1446 136.22C69.4557 136.245 69.6904 136.332 69.8332 136.404C69.9862 136.48 70.0525 136.536 70.0474 136.542Z" fill="#FAFAFA" fill-opacity="0.2"/>
<path d="M98.7848 175.675C98.7899 175.67 98.846 175.716 98.948 175.818C99.0551 175.916 99.1877 176.074 99.351 176.289C99.6621 176.723 100.045 177.438 100.182 178.404C100.32 179.354 100.213 180.591 99.504 181.694C98.8256 182.793 97.6728 183.667 97.0199 184.929C96.7088 185.562 96.6323 186.262 96.7649 186.916C96.8924 187.57 97.1577 188.178 97.428 188.741C97.984 189.854 98.4991 190.938 98.4787 191.939C98.4634 192.941 97.9636 193.661 97.5249 193.978C97.3056 194.141 97.0965 194.213 96.9638 194.249C96.821 194.274 96.7496 194.279 96.7496 194.274C96.7394 194.244 97.0557 194.228 97.4637 193.896C97.8565 193.574 98.3053 192.874 98.2951 191.939C98.29 190.999 97.7851 189.967 97.2087 188.848C96.9281 188.281 96.6476 187.662 96.5099 186.962C96.362 186.268 96.4436 185.486 96.7802 184.806C97.1169 184.132 97.6014 183.58 98.0554 183.069C98.5145 182.558 98.9582 182.073 99.2949 181.551C99.9784 180.514 100.106 179.339 99.9937 178.419C99.8814 177.484 99.5397 176.779 99.2592 176.335C98.9786 175.905 98.7644 175.696 98.7848 175.675Z" fill="#FAFAFA" fill-opacity="0.2"/>
<path d="M120.167 198.106C120.162 198.112 120.096 198.055 119.973 197.938C119.861 197.815 119.703 197.616 119.58 197.325C119.31 196.742 119.274 195.746 119.708 194.688C119.917 194.162 120.254 193.615 120.698 193.12C121.131 192.614 121.646 192.128 122.161 191.607C122.677 191.086 123.197 190.514 123.579 189.824C123.962 189.139 124.176 188.337 124.263 187.499C124.431 185.818 124.13 184.198 124.044 182.717C123.936 181.235 124.064 179.845 124.538 178.803C124.992 177.755 125.671 177.071 126.216 176.744C126.487 176.575 126.716 176.483 126.874 176.432C127.033 176.386 127.119 176.365 127.119 176.376C127.13 176.406 126.783 176.483 126.273 176.83C125.763 177.173 125.13 177.847 124.712 178.874C124.278 179.891 124.171 181.235 124.288 182.701C124.385 184.168 124.702 185.793 124.528 187.53C124.441 188.393 124.217 189.231 123.809 189.952C123.406 190.672 122.86 191.26 122.34 191.781C121.284 192.818 120.289 193.723 119.887 194.765C119.448 195.777 119.453 196.722 119.682 197.294C119.892 197.866 120.198 198.086 120.167 198.106Z" fill="#FAFAFA" fill-opacity="0.2"/>
<path d="M122.784 204.887C122.784 204.887 122.605 205.04 122.217 205.244C121.83 205.454 121.207 205.694 120.366 205.776C119.529 205.863 118.484 205.771 117.336 205.434C116.183 205.112 114.959 204.488 113.669 203.737C112.373 203.001 110.981 202.117 109.328 201.56C107.68 201.004 105.768 200.958 103.855 201.371C101.932 201.77 100.014 202.562 98.0299 203.39C96.0508 204.207 93.9901 205.112 91.7305 205.566C90.6032 205.801 89.4556 205.873 88.3334 205.755C87.2113 205.648 86.135 205.301 85.1659 204.815C83.2123 203.839 81.6566 202.424 80.0652 201.269C79.2695 200.692 78.4737 200.15 77.6423 199.752C77.4332 199.65 77.2241 199.552 77.02 199.455C76.8109 199.363 76.5967 199.297 76.3825 199.215C75.9642 199.047 75.5306 198.95 75.1124 198.837C73.4189 198.423 71.7663 198.433 70.3024 198.643C68.8334 198.858 67.5429 199.277 66.482 199.787C66.2116 199.905 65.9668 200.058 65.7271 200.181C65.4822 200.304 65.2578 200.442 65.0487 200.585C64.8396 200.723 64.6304 200.85 64.4417 200.983C64.2581 201.126 64.0897 201.259 63.9265 201.392C63.5899 201.637 63.3348 201.908 63.1002 202.123C62.8605 202.337 62.6819 202.542 62.5391 202.705C62.4014 202.858 62.2892 202.981 62.2025 203.078C62.126 203.16 62.0852 203.201 62.0801 203.201C62.075 203.196 62.1107 203.15 62.1821 203.063C62.2637 202.966 62.3657 202.833 62.4983 202.674C62.636 202.501 62.8095 202.291 63.0441 202.071C63.2787 201.847 63.5287 201.571 63.8602 201.315C64.0234 201.182 64.1969 201.044 64.3754 200.896C64.5641 200.758 64.7681 200.625 64.9824 200.482C65.1915 200.334 65.4159 200.191 65.6608 200.063C65.9056 199.936 66.1504 199.777 66.4208 199.655C67.4919 199.123 68.7926 198.694 70.282 198.459C71.7663 198.234 73.4444 198.214 75.1736 198.628C75.602 198.74 76.0458 198.837 76.4692 199.006C76.6834 199.087 76.9027 199.154 77.117 199.246C77.3261 199.343 77.5403 199.445 77.7546 199.547C78.6064 199.956 79.4174 200.498 80.2182 201.08C81.8249 202.235 83.3806 203.64 85.2883 204.59C86.237 205.061 87.2776 205.398 88.3691 205.5C89.4556 205.607 90.5777 205.541 91.6846 205.311C93.9034 204.861 95.9539 203.972 97.9381 203.155C99.9222 202.332 101.855 201.54 103.809 201.136C105.752 200.717 107.716 200.774 109.404 201.356C111.088 201.933 112.48 202.833 113.771 203.579C115.051 204.34 116.25 204.963 117.387 205.296C118.514 205.643 119.54 205.745 120.366 205.674C121.192 205.612 121.809 205.388 122.202 205.198C122.59 205.009 122.779 204.871 122.784 204.887Z" fill="#FAFAFA" fill-opacity="0.2"/>
<path d="M94.4084 119.655C100.101 119.936 104.997 115.659 105.497 109.972C105.793 106.6 106.028 103.718 106.028 103.718C106.028 103.718 114.719 103.498 115.928 94.9806C117.137 86.463 118.198 66.6788 118.198 66.6788C108.889 61.1554 97.3209 61.1094 87.9662 66.5613L86.5788 67.3686L84.3396 108.465C84.0234 114.346 88.5375 119.363 94.4084 119.655Z" fill="#FFBE9D"/>
<path d="M107.227 89.0944C107.232 89.0024 107.976 88.9513 109.175 88.936C109.486 88.9411 109.736 88.9053 109.782 88.7418C109.864 88.563 109.787 88.2206 109.675 87.8323C109.476 87.0148 109.272 86.1922 109.058 85.3235C108.216 81.7571 107.681 78.8293 107.864 78.7833C108.043 78.7425 108.874 81.5987 109.716 85.1651C109.91 86.0338 110.098 86.8666 110.282 87.6841C110.348 88.052 110.506 88.4966 110.282 88.982C110.165 89.2272 109.899 89.3754 109.69 89.406C109.481 89.4418 109.308 89.4163 109.16 89.406C107.961 89.3039 107.227 89.1863 107.227 89.0944Z" fill="#263238"/>
<path d="M106.053 103.6C106.053 103.6 100.616 103.34 95.3572 98.9966C95.3572 98.9966 97.1883 105.481 105.788 105.813L106.053 103.6Z" fill="#EB996E"/>
<path d="M118.096 68.8504C118.096 68.8504 112.74 71.0935 106.135 67.3226C101.799 64.8496 96.6681 63.47 95.4746 64.308C94.281 65.1409 93.7862 69.7292 89.2976 70.8278C89.2976 70.8278 89.1191 79.6213 85.6404 79.1155C82.1668 78.6096 85.0946 65.1357 85.0946 65.1357L93.8729 61.4262L103.294 60.1744L112.011 61.9014L118.708 64.1394L118.096 68.8504Z" fill="#263238"/>
<path d="M86.4819 76.341C86.3442 76.2592 80.8558 73.8475 80.2845 79.7031C79.7132 85.5586 85.7015 84.925 85.7321 84.7564C85.7576 84.5929 86.4819 76.341 86.4819 76.341Z" fill="#FFBE9D"/>
<path d="M84.1612 82.3651C84.1357 82.3447 84.0541 82.4264 83.8704 82.4877C83.697 82.5491 83.4012 82.5746 83.1053 82.4315C82.5085 82.1454 82.0852 81.1133 82.1617 80.0505C82.1974 79.514 82.3606 79.0184 82.5902 78.6147C82.8095 78.206 83.1155 77.93 83.4318 77.9045C83.748 77.8636 83.9521 78.0731 84.0082 78.2417C84.0694 78.4154 84.0235 78.5278 84.0541 78.5381C84.0694 78.5534 84.1867 78.4512 84.1663 78.2059C84.151 78.0884 84.1 77.9403 83.9725 77.8176C83.8449 77.6899 83.6409 77.6132 83.4216 77.6132C82.9676 77.603 82.5238 77.976 82.2688 78.4154C81.9934 78.8549 81.7995 79.4118 81.7587 80.0147C81.6822 81.2001 82.177 82.36 82.9982 82.687C83.4012 82.8352 83.7531 82.7432 83.947 82.6206C84.1357 82.5082 84.1816 82.3804 84.1612 82.3651Z" fill="#EB996E"/>
<path d="M93.174 65.243C91.9804 66.5204 90.7664 67.808 89.2821 68.7329C87.7978 69.6577 85.9871 70.184 84.2885 69.7905C82.5849 69.3971 81.0802 67.9204 81.0139 66.173C80.9425 64.4255 82.6512 62.7189 84.3548 63.0919C83.197 63.1124 82.2278 61.7992 82.59 60.6955C82.9521 59.5919 84.5079 59.1116 85.426 59.8167C83.9468 59.5408 83.7785 57.1853 84.9567 56.2451C86.135 55.305 87.8692 55.5094 89.2617 56.0765C90.6593 56.6437 91.9396 57.5225 93.4137 57.8393C95.7243 58.3349 98.0962 57.3743 100.142 56.1838C102.187 54.9933 104.13 53.5371 106.405 52.9086C109.2 52.132 112.225 52.6991 114.898 53.8232C117.117 54.7583 119.223 56.1072 120.667 58.0386C122.11 59.97 122.824 62.535 122.182 64.8598C121.539 67.1847 119.381 69.1161 116.969 69.1263C116.969 69.1263 111.557 69.673 107.15 66.3978C102.743 63.1226 93.4545 63.5569 93.4545 63.5569L93.174 65.243Z" fill="#263238"/>
<path d="M85.0282 58.4218C85.018 58.4423 85.1353 58.5342 85.3648 58.6926C85.5944 58.8561 85.9514 59.0707 86.4156 59.3364C87.349 59.8576 88.7721 60.5116 90.6339 61.0175C92.4854 61.5182 94.791 61.8401 97.3413 61.6562C99.9019 61.4875 102.59 60.6598 105.39 59.9751C108.18 59.2853 110.955 58.943 113.347 59.5357C115.74 60.0875 117.627 61.5386 118.453 63.1788C119.295 64.8343 119.193 66.454 118.897 67.4299C118.591 68.4314 118.168 68.8759 118.224 68.9117C118.239 68.927 118.346 68.8197 118.53 68.6051C118.693 68.3752 118.943 68.0226 119.126 67.5066C119.514 66.5051 119.703 64.7883 118.851 62.9795C118.004 61.1759 116.005 59.5868 113.485 58.9685C110.955 58.3145 108.068 58.662 105.242 59.362C102.406 60.0569 99.7744 60.8846 97.2954 61.0788C94.8216 61.2883 92.567 61.0226 90.741 60.5831C87.0634 59.6941 85.0843 58.2992 85.0282 58.4218Z" fill="#455A64"/>
<path d="M82.4015 67.4759C82.3351 67.5117 82.5239 68.084 83.1564 68.8095C83.7735 69.53 84.8957 70.3628 86.3545 70.6847C87.8133 71.0015 89.1803 70.7052 90.0423 70.3015C90.9145 69.903 91.3277 69.4584 91.2818 69.4022C91.2257 69.3205 90.736 69.6219 89.8842 69.8876C89.0426 70.1584 87.798 70.3526 86.4871 70.0716C85.1762 69.7854 84.1255 69.0957 83.4726 68.4978C82.8095 67.9 82.4882 67.4248 82.4015 67.4759Z" fill="#455A64"/>
<path d="M84.2273 64.5839C84.0794 64.6554 84.5282 65.7182 85.6606 66.4949C86.7879 67.2818 87.9406 67.3277 87.9508 67.1642C87.9865 66.9854 87.0123 66.6839 86.0125 65.9788C85.0077 65.2941 84.3803 64.4868 84.2273 64.5839Z" fill="#455A64"/>
<path d="M120.968 72.754C121.044 72.7745 121.213 72.4832 121.254 71.9569C121.299 71.4409 121.187 70.6796 120.738 69.9898C120.289 69.3 119.642 68.8861 119.152 68.7175C118.657 68.5438 118.326 68.5795 118.31 68.6562C118.259 68.8248 119.463 69.162 120.213 70.327C120.973 71.492 120.794 72.7285 120.968 72.754Z" fill="#263238"/>
<path d="M123.998 64.3539C123.824 64.2824 123.182 65.8357 121.651 67.1131C120.147 68.4211 118.514 68.8095 118.56 68.9883C118.555 69.1518 120.402 69.0138 122.059 67.5883C123.727 66.1781 124.161 64.3744 123.998 64.3539Z" fill="#455A64"/>
<path d="M115.133 79.6621C115.066 80.357 114.429 80.8731 113.704 80.8169C112.98 80.7607 112.45 80.1577 112.511 79.4628C112.577 78.7679 113.215 78.2519 113.939 78.3081C114.663 78.3592 115.199 78.9672 115.133 79.6621Z" fill="#263238"/>
<path d="M116.168 79.5446C115.984 79.6928 115.092 78.8344 113.684 78.6504C112.281 78.4512 111.159 79.0388 111.027 78.8497C110.96 78.7628 111.164 78.4767 111.659 78.211C112.144 77.9453 112.939 77.7256 113.812 77.8431C114.684 77.9606 115.377 78.3796 115.76 78.768C116.153 79.1512 116.26 79.4782 116.168 79.5446Z" fill="#263238"/>
<path d="M102.356 77.8841C102.289 78.579 101.652 79.0951 100.927 79.0389C100.203 78.9827 99.6726 78.3797 99.7338 77.6848C99.8001 76.9899 100.438 76.4739 101.162 76.5301C101.886 76.5812 102.422 77.1892 102.356 77.8841Z" fill="#263238"/>
<path d="M103.268 77.8432C103.085 77.9914 102.192 77.133 100.784 76.949C99.3817 76.7497 98.2595 77.3374 98.1269 77.1483C98.0606 77.0614 98.2646 76.7753 98.7594 76.5096C99.244 76.2439 100.04 76.0242 100.912 76.1417C101.784 76.2592 102.478 76.6782 102.86 77.0665C103.253 77.4498 103.36 77.7819 103.268 77.8432Z" fill="#263238"/>
<path d="M102.728 73.9752C102.452 74.2205 101.396 73.4541 99.9784 73.3212C98.5604 73.1526 97.3719 73.684 97.1526 73.3825C97.0506 73.2395 97.2393 72.8767 97.7596 72.5292C98.2697 72.1818 99.1419 71.8957 100.116 71.9979C101.09 72.1 101.881 72.565 102.309 73.0146C102.748 73.4643 102.86 73.8577 102.728 73.9752Z" fill="#263238"/>
<path d="M116.076 76.3103C116.138 76.4789 115.898 76.7548 115.383 76.9797C114.878 77.2045 114.097 77.3322 113.256 77.2045C112.414 77.0716 111.715 76.7089 111.302 76.341C110.884 75.9731 110.741 75.6307 110.848 75.4928C111.093 75.2067 112.139 75.7023 113.465 75.8913C114.786 76.111 115.934 75.9577 116.076 76.3103Z" fill="#263238"/>
<path d="M106.151 91.4345C106.299 91.4447 106.401 91.7104 106.381 92.0272C106.36 92.344 106.227 92.5944 106.079 92.5841C105.931 92.5739 105.829 92.3082 105.849 91.9914C105.87 91.6747 106.008 91.4243 106.151 91.4345Z" fill="#263238"/>
<path d="M85.4415 86.9892C85.4568 86.9943 85.4364 87.1272 85.3139 87.3316C85.1966 87.536 84.962 87.8119 84.5743 88.006C84.1969 88.2053 83.6358 88.3024 83.0849 88.0929C82.5443 87.8987 82.0291 87.4287 81.8047 86.79C81.5904 86.1462 81.7077 85.4717 81.9832 84.971C82.2586 84.46 82.6973 84.1381 83.0849 83.9695C83.4777 83.7958 83.8296 83.76 84.0592 83.7651C84.2938 83.7702 84.4213 83.806 84.4213 83.8213C84.4264 83.8724 83.8858 83.7855 83.1666 84.1381C82.8146 84.3169 82.432 84.6235 82.1974 85.0834C81.9628 85.5381 81.8659 86.141 82.0546 86.7031C82.2433 87.26 82.6973 87.679 83.1666 87.863C83.646 88.0571 84.1306 87.9907 84.4876 87.8323C85.2323 87.5053 85.4058 86.9535 85.4415 86.9892Z" fill="#455A64"/>
<path d="M91.0879 121.984C91.0879 121.984 93.9341 117.958 95.7193 115.695C97.8871 112.956 99.1776 110.59 99.1776 109.313C99.1776 108.03 99.1776 102.527 99.1776 102.527C99.1776 102.527 101.876 101.889 102.258 104.959C102.646 108.03 102.258 108.802 102.258 108.802C102.258 108.802 113.582 101.163 114.352 101.715C115.704 102.691 113.143 104.73 113.143 104.73L106.242 110.979L110.175 109.732C111.129 109.43 112.154 109.946 112.475 110.892C112.74 111.668 112.455 112.527 111.771 112.992L109.445 115.01L110.618 114.54C111.486 114.192 112.475 114.565 112.893 115.398C113.23 116.068 113.113 116.875 112.603 117.422L110.481 119.685L111.475 119.154C112.118 118.811 112.914 119.067 113.235 119.711C113.505 120.252 113.358 120.911 112.883 121.29L100.203 131.33L91.0879 121.984Z" fill="#FFBE9D"/>
<path d="M100.208 131.325C100.208 131.325 100.157 131.279 100.05 131.177C99.9375 131.064 99.7845 130.911 99.5856 130.712C99.1673 130.293 98.5654 129.685 97.785 128.898C96.2038 127.293 93.9085 124.963 91.0266 122.041L90.9756 121.99L91.0164 121.933C91.8478 120.758 92.7455 119.496 93.7249 118.163C94.2145 117.498 94.7246 116.814 95.2551 116.119C95.7958 115.424 96.3466 114.724 96.8669 113.968C97.3923 113.211 97.8972 112.419 98.3308 111.566C98.7542 110.708 99.152 109.803 99.0551 108.792C99.0551 106.778 99.05 104.684 99.05 102.527V102.425L99.1469 102.405C99.8355 102.277 100.575 102.354 101.192 102.742C101.498 102.941 101.738 103.222 101.937 103.524C102.105 103.84 102.238 104.183 102.309 104.535C102.447 105.241 102.493 105.935 102.539 106.656C102.559 107.014 102.564 107.376 102.549 107.739C102.524 108.107 102.518 108.454 102.376 108.853L102.187 108.689C103.936 107.514 105.747 106.324 107.619 105.138C108.558 104.546 109.506 103.953 110.481 103.376C111.46 102.803 112.434 102.221 113.505 101.751C113.648 101.694 113.791 101.638 113.944 101.592C114.021 101.572 114.097 101.551 114.189 101.546C114.235 101.541 114.286 101.546 114.342 101.557C114.424 101.587 114.454 101.618 114.48 101.643C114.755 101.827 114.913 102.216 114.862 102.543C114.765 103.207 114.347 103.692 113.954 104.132C113.541 104.576 113.072 104.939 112.654 105.338C112.22 105.731 111.792 106.119 111.363 106.508C109.649 108.061 107.966 109.579 106.329 111.065L106.201 110.846C106.977 110.6 107.742 110.36 108.502 110.115C108.879 109.992 109.262 109.875 109.634 109.757C109.823 109.701 110.006 109.635 110.2 109.584C110.399 109.527 110.613 109.502 110.817 109.512C111.659 109.538 112.414 110.166 112.618 110.958C112.842 111.75 112.495 112.639 111.832 113.079L111.843 113.068C111.052 113.753 110.277 114.427 109.512 115.087L109.389 114.887C109.772 114.734 110.154 114.581 110.527 114.433C110.919 114.269 111.373 114.238 111.781 114.351C112.608 114.571 113.204 115.378 113.179 116.206C113.174 116.614 113.036 117.013 112.791 117.33C112.536 117.636 112.281 117.887 112.026 118.163C111.521 118.699 111.026 119.225 110.542 119.741L110.419 119.578C110.777 119.389 111.134 119.2 111.486 119.016C111.873 118.832 112.332 118.852 112.699 119.041C113.072 119.225 113.337 119.588 113.419 119.987C113.5 120.385 113.398 120.804 113.159 121.116C113.036 121.274 112.878 121.387 112.74 121.499C112.597 121.611 112.455 121.724 112.317 121.831C112.036 122.051 111.761 122.271 111.491 122.485C110.945 122.914 110.419 123.328 109.909 123.727C107.874 125.326 106.114 126.706 104.671 127.84C103.238 128.959 102.121 129.833 101.35 130.436C100.978 130.727 100.687 130.947 100.488 131.105C100.305 131.258 100.208 131.325 100.208 131.325C100.208 131.325 100.31 131.233 100.504 131.074C100.708 130.911 100.993 130.676 101.366 130.374C102.131 129.761 103.243 128.867 104.666 127.728C106.094 126.583 107.833 125.193 109.848 123.584C110.353 123.18 110.873 122.766 111.409 122.337C111.679 122.122 111.95 121.908 112.225 121.683C112.363 121.571 112.501 121.463 112.643 121.351C112.786 121.233 112.924 121.136 113.026 120.998C113.235 120.733 113.322 120.365 113.245 120.028C113.174 119.69 112.944 119.379 112.623 119.22C112.307 119.057 111.909 119.041 111.582 119.2C111.236 119.384 110.884 119.573 110.527 119.762L109.981 120.053L110.404 119.603C110.889 119.087 111.378 118.556 111.883 118.019C112.128 117.749 112.404 117.478 112.633 117.202C112.847 116.921 112.97 116.568 112.975 116.206C112.995 115.48 112.47 114.765 111.741 114.576C111.378 114.479 110.986 114.504 110.634 114.652C110.256 114.806 109.879 114.959 109.496 115.112L108.843 115.373L109.374 114.913C110.134 114.254 110.909 113.579 111.7 112.889L111.705 112.884L111.71 112.879C112.291 112.491 112.592 111.714 112.393 111.024C112.215 110.33 111.552 109.783 110.817 109.762C110.455 109.727 110.103 109.88 109.721 109.997C109.343 110.115 108.966 110.238 108.588 110.355C107.828 110.595 107.063 110.841 106.288 111.086L105.722 111.265L106.16 110.866C107.798 109.379 109.481 107.857 111.2 106.303C111.628 105.915 112.062 105.527 112.495 105.133C112.924 104.73 113.383 104.372 113.776 103.948C114.158 103.529 114.541 103.043 114.612 102.512C114.643 102.251 114.551 102.001 114.327 101.848C114.296 101.771 114.163 101.812 114.026 101.848C113.893 101.884 113.755 101.94 113.618 101.996C112.582 102.451 111.598 103.033 110.629 103.6C109.659 104.178 108.711 104.765 107.772 105.358C105.9 106.543 104.09 107.729 102.34 108.899L102.014 109.119L102.151 108.735C102.253 108.449 102.284 108.066 102.299 107.724C102.314 107.371 102.309 107.019 102.289 106.666C102.248 105.966 102.197 105.251 102.07 104.586C102.003 104.254 101.881 103.943 101.728 103.651C101.549 103.376 101.335 103.125 101.065 102.951C100.524 102.604 99.8253 102.527 99.2081 102.645L99.305 102.527C99.305 104.689 99.2999 106.778 99.2999 108.792C99.2948 109.047 99.305 109.287 99.2846 109.553C99.2489 109.808 99.1979 110.059 99.1214 110.299C98.9684 110.779 98.7644 111.229 98.545 111.663C98.1013 112.532 97.5861 113.329 97.0556 114.085C96.5303 114.846 95.9641 115.552 95.4285 116.241C94.8929 116.931 94.3829 117.611 93.8932 118.275C92.9088 119.603 92.0008 120.86 91.1694 122.03L91.1592 121.923C93.9952 124.861 96.2599 127.196 97.8156 128.811C98.5858 129.613 99.1877 130.236 99.6009 130.671C99.7998 130.88 99.9528 131.039 100.06 131.156C100.157 131.263 100.208 131.325 100.208 131.325Z" fill="#EB996E"/>
<path d="M100.208 131.325L65.4517 177.29C60.1776 184.27 50.6698 186.819 42.7739 183.033C36.9999 180.264 32.7663 174.449 36.3062 162.483L69.5986 139.663L89.8331 120.099L100.208 131.325Z" fill="#FF0079"/>
<path d="M42.774 183.033C42.774 183.033 42.9015 183.095 43.1514 183.222C43.4014 183.355 43.7635 183.549 44.2379 183.8C45.2325 184.214 46.727 184.832 48.7826 185.021C49.8028 185.097 50.9504 185.138 52.1848 184.96C52.8071 184.908 53.4396 184.75 54.1027 184.622C54.4342 184.546 54.7607 184.438 55.0973 184.346C55.439 184.26 55.7757 184.142 56.1174 184.009C57.4895 183.524 58.9075 182.854 60.2949 181.955C61.6823 181.066 63.0493 179.952 64.2123 178.527C66.5841 175.716 69.0375 172.508 71.6848 169.079C74.327 165.651 77.1222 161.956 80.0602 158.073C85.926 150.296 92.3376 141.717 99.0348 132.689C99.3918 132.209 99.7489 131.728 100.101 131.248L100.111 131.417C96.5559 127.564 93.0823 123.809 89.7413 120.186L89.9198 120.196C82.8349 126.052 76.2805 131.647 70.3331 136.628C64.3959 141.615 59.0707 145.994 54.5668 149.561C50.068 153.132 46.4108 155.912 43.8604 157.777C42.5955 158.722 41.5906 159.417 40.9224 159.902C40.5909 160.137 40.3358 160.316 40.1573 160.444C39.9839 160.567 39.8921 160.623 39.8921 160.623C39.8921 160.623 39.9737 160.551 40.142 160.424C40.3154 160.291 40.5654 160.107 40.8918 159.861C41.5498 159.366 42.5445 158.656 43.7992 157.705C46.3292 155.82 49.9711 153.02 54.4546 149.433C58.9381 145.846 64.248 141.457 70.1801 136.46C76.1122 131.468 82.6615 125.868 89.7464 120.002L89.8433 119.925L89.9249 120.017C93.271 123.635 96.7446 127.395 100.3 131.243L100.376 131.325L100.31 131.412C99.9529 131.892 99.601 132.372 99.2439 132.852C92.5416 141.881 86.1249 150.455 80.2489 158.226C77.3058 162.11 74.5055 165.794 71.8531 169.222C69.1957 172.646 66.7371 175.844 64.35 178.654C63.1717 180.09 61.7843 181.209 60.3816 182.103C58.9789 183.003 57.5456 183.672 56.1633 184.157C55.8216 184.285 55.4799 184.403 55.133 184.489C54.7913 184.581 54.4597 184.689 54.1282 184.76C53.46 184.888 52.8173 185.041 52.1899 185.092C50.9453 185.261 49.7875 185.22 48.7622 185.133C46.6964 184.924 45.1968 184.29 44.2073 183.861C43.7278 183.606 43.3708 183.396 43.131 183.258C42.8913 183.11 42.774 183.033 42.774 183.033Z" fill="#263238"/>
<path d="M69.1242 171.062C69.1037 171.092 68.7314 170.735 67.9102 170.362C67.0941 169.983 65.7781 169.723 64.1714 169.891C63.3706 169.968 62.5034 170.152 61.5955 170.428C60.6876 170.704 59.744 171.092 58.7442 171.486C57.7445 171.879 56.6886 172.298 55.5512 172.605C54.4137 172.906 53.1793 173.09 51.9246 172.957C50.6698 172.824 49.4966 172.431 48.4153 171.981C47.3288 171.532 46.324 171.016 45.3498 170.576C43.4166 169.672 41.5344 169.089 39.9226 169.181C38.3108 169.253 37.0866 169.876 36.4133 170.459C35.7247 171.046 35.5156 171.527 35.485 171.506C35.4748 171.501 35.536 171.389 35.6584 171.179C35.7961 170.98 36.0002 170.683 36.347 170.377C37.0152 169.759 38.2598 169.089 39.9124 168.992C41.5701 168.875 43.4982 169.457 45.4467 170.351C46.4311 170.791 47.4359 171.297 48.5122 171.741C49.5833 172.186 50.7361 172.564 51.9501 172.692C53.164 172.819 54.3678 172.646 55.4849 172.349C56.607 172.053 57.6527 171.644 58.6524 171.256C59.6521 170.867 60.6009 170.484 61.5292 170.213C62.4524 169.943 63.3349 169.769 64.151 169.697C65.7883 169.549 67.1298 169.845 67.9459 170.264C68.7773 170.673 69.1242 171.062 69.1242 171.062Z" fill="#FAFAFA" fill-opacity="0.2"/>
<path d="M81.4069 155.646C81.3661 155.636 81.6109 155.34 81.5395 154.737C81.463 154.159 80.9937 153.306 80.0042 152.867C79.5196 152.642 78.9433 152.494 78.3159 152.351C77.6936 152.207 77.005 152.039 76.3419 151.717C75.0004 151.094 73.766 150.015 72.6235 148.799C71.4758 147.578 70.4557 146.357 69.3641 145.422C68.2879 144.477 67.1402 143.838 66.0946 143.552C65.054 143.256 64.1563 143.266 63.5646 143.378C62.9678 143.485 62.6567 143.634 62.6465 143.608C62.6414 143.598 62.7179 143.562 62.8658 143.496C63.0137 143.429 63.2382 143.342 63.5442 143.281C64.141 143.133 65.0693 143.092 66.1405 143.373C67.2167 143.639 68.4154 144.283 69.5171 145.238C70.6342 146.183 71.6696 147.41 72.8071 148.621C73.9446 149.832 75.1483 150.884 76.4388 151.502C77.714 152.136 79.0708 152.182 80.0756 152.703C81.1111 153.194 81.5803 154.113 81.6313 154.732C81.6568 155.048 81.5956 155.294 81.5242 155.442C81.463 155.585 81.412 155.651 81.4069 155.646Z" fill="#FAFAFA" fill-opacity="0.2"/>
<path d="M68.16 37.0231C68.1651 37.0538 67.8539 37.0947 67.3694 37.3399C66.8848 37.5801 66.2268 38.0859 65.7677 38.9494C65.5433 39.3786 65.375 39.8947 65.3546 40.4567C65.3393 41.0188 65.4668 41.6268 65.7983 42.1735C66.4257 43.2568 67.8029 44.1305 69.2668 43.9414C70.7256 43.7268 71.8172 42.5108 72.1283 41.2998C72.3017 40.6867 72.2609 40.0633 72.0926 39.5268C71.9192 38.9903 71.6132 38.5406 71.2867 38.1881C70.6134 37.483 69.8432 37.1764 69.3127 37.0742C68.7772 36.9669 68.466 37.0129 68.466 36.9822C68.466 36.972 68.5425 36.9618 68.6904 36.9465C68.7619 36.9363 68.8537 36.9311 68.9608 36.9414C69.0679 36.9414 69.1954 36.9465 69.3331 36.972C69.884 37.0436 70.7001 37.3348 71.4244 38.0552C71.7815 38.418 72.113 38.883 72.3069 39.4553C72.4956 40.0275 72.5466 40.702 72.3681 41.3611C72.2048 42.0202 71.8427 42.6641 71.3122 43.1801C70.7919 43.7013 70.088 44.0896 69.3025 44.2071C68.517 44.3042 67.7315 44.1254 67.0939 43.7626C66.4461 43.41 65.9259 42.8889 65.5892 42.2962C65.2424 41.7086 65.1046 41.0494 65.1352 40.4465C65.1659 39.8436 65.3597 39.302 65.6045 38.8574C66.1044 37.9633 66.8134 37.4676 67.3235 37.2479C67.451 37.1866 67.5683 37.1457 67.6754 37.1151C67.7774 37.0793 67.8641 37.0589 67.9406 37.0487C68.0835 37.0231 68.16 37.0129 68.16 37.0231Z" fill="#263238"/>
<path d="M77.8461 45.2699C77.8512 45.2955 77.6573 45.3261 77.3564 45.4896C77.0555 45.648 76.6525 45.9648 76.372 46.5013C76.0914 47.0225 75.9792 47.8145 76.3975 48.494C76.7851 49.1634 77.6369 49.6999 78.5347 49.5824C79.4273 49.4495 80.1057 48.7035 80.2995 47.9575C80.5188 47.1911 80.1975 46.4604 79.7894 46.0312C79.3763 45.5918 78.8968 45.3926 78.5704 45.3261C78.2388 45.2546 78.0399 45.275 78.0399 45.2495C78.0348 45.2393 78.2337 45.1831 78.5908 45.2239C78.9427 45.2648 79.463 45.4436 79.9272 45.9035C80.1567 46.1334 80.3709 46.4298 80.4984 46.7977C80.6208 47.1656 80.6566 47.5999 80.5443 48.0189C80.3403 48.8568 79.6058 49.6948 78.5806 49.8481C77.5502 49.9758 76.6219 49.3678 76.1934 48.6218C75.969 48.2437 75.8874 47.8196 75.9078 47.4313C75.9333 47.0429 76.0557 46.7006 76.2139 46.4145C76.5352 45.8473 76.9943 45.5356 77.3207 45.3977C77.642 45.2546 77.8461 45.2597 77.8461 45.2699Z" fill="#263238"/>
<path d="M111.037 28.7558C111.032 28.7558 111.021 28.7558 111.016 28.7558C110.593 28.7456 110.261 28.393 110.271 27.9689L110.445 21.1477C110.45 20.9075 110.567 20.6827 110.766 20.5448C110.96 20.4068 111.21 20.3659 111.44 20.4375C112.674 20.8207 114.066 20.6469 115.265 19.9572C116.377 19.3185 117.168 18.3068 117.433 17.1827C117.693 16.0637 117.438 14.8016 116.729 13.7133C115.969 12.5483 114.816 11.7461 113.572 11.5162C111.067 11.0512 108.318 12.7221 107.446 15.2462C107.308 15.6447 106.869 15.8593 106.471 15.7214C106.074 15.5834 105.859 15.144 105.997 14.7454C107.109 11.5366 110.629 9.41618 113.847 10.0089C115.5 10.3155 117.015 11.3629 118.004 12.8753C118.938 14.3111 119.274 16.0075 118.917 17.5301C118.56 19.0681 117.504 20.4323 116.02 21.2856C114.755 22.0112 113.317 22.2922 111.95 22.1134L111.797 28.0098C111.786 28.4288 111.45 28.7558 111.037 28.7558Z" fill="#263238"/>
<path d="M112.22 32.1281C112.22 32.7463 111.72 33.2471 111.103 33.2471C110.486 33.2471 109.986 32.7463 109.986 32.1281C109.986 31.5098 110.486 31.0091 111.103 31.0091C111.72 31.004 112.22 31.5098 112.22 32.1281Z" fill="#263238"/>
<path d="M27.3136 107.402C26.1659 107.402 25.0336 107.07 24.1205 106.385C23.0494 105.578 22.3353 104.3 22.167 102.87C22.0037 101.516 22.371 100.187 23.1616 99.2266C23.9624 98.2558 25.2019 97.6529 26.5536 97.5711C27.6349 97.5047 28.6959 97.7704 29.5783 98.3171L31.5931 94.4901C31.792 94.1171 32.2511 93.974 32.6285 94.1682C33.0009 94.3675 33.1437 94.8273 32.9499 95.2054L30.5117 99.8347C30.3995 100.049 30.1955 100.192 29.9609 100.233C29.7262 100.274 29.4814 100.197 29.308 100.034C28.6245 99.385 27.6604 99.0478 26.6505 99.1091C25.7171 99.1653 24.8754 99.569 24.345 100.213C23.8145 100.857 23.5748 101.761 23.687 102.701C23.8094 103.713 24.2991 104.612 25.0387 105.169C26.5077 106.273 28.9101 106.063 30.2822 104.709C30.5831 104.413 31.0677 104.418 31.3636 104.719C31.6594 105.021 31.6543 105.506 31.3534 105.803C30.2822 106.85 28.7877 107.402 27.3136 107.402Z" fill="#263238"/>
<path d="M32.8683 91.593C33.0774 91.1689 33.5926 90.9952 34.0211 91.2047C34.4444 91.4142 34.6178 91.9302 34.4087 92.3543C34.1996 92.7784 33.6844 92.9521 33.2611 92.7426C32.8275 92.5383 32.6541 92.0222 32.8683 91.593Z" fill="#263238"/>
<path d="M181.727 94.5054C181.493 94.5054 181.258 94.393 181.105 94.1886L178.044 89.9477C177.902 89.7535 177.861 89.5032 177.932 89.2732C178.004 89.0433 178.177 88.8594 178.402 88.7776C179.284 88.4557 180.018 87.7353 180.411 86.8002C180.773 85.9367 180.789 85.0068 180.447 84.2403C180.105 83.479 179.401 82.8659 178.514 82.5491C177.555 82.2067 176.53 82.2527 175.708 82.6666C174.071 83.4994 173.194 85.7477 173.79 87.582C173.923 87.9856 173.704 88.4148 173.301 88.5477C172.898 88.6805 172.469 88.4608 172.337 88.0572C171.5 85.5024 172.699 82.4673 175.015 81.2972C176.208 80.6943 177.672 80.6228 179.024 81.1031C180.304 81.5578 181.334 82.4724 181.845 83.6119C182.36 84.7615 182.349 86.1411 181.824 87.3929C181.401 88.3944 180.697 89.2272 179.82 89.7791L182.349 93.2893C182.599 93.6317 182.518 94.112 182.176 94.3572C182.043 94.4543 181.885 94.5054 181.727 94.5054Z" fill="#263238"/>
<path d="M184.374 95.7062C184.66 96.0843 184.589 96.6208 184.211 96.912C183.834 97.1981 183.298 97.1266 183.007 96.7485C182.722 96.3704 182.793 95.8288 183.171 95.5427C183.548 95.2565 184.084 95.328 184.374 95.7062Z" fill="#263238"/>
</svg>
