<svg width="110" height="88" viewBox="0 0 110 88" fill="none" xmlns="http://www.w3.org/2000/svg">
<path d="M101.009 29.9811C101.071 29.8216 101.073 29.6451 101.015 29.4841C100.957 29.3232 100.843 29.1886 100.694 29.1052C100.545 29.0211 100.371 28.9934 100.203 29.0272C100.036 29.0611 99.8864 29.1543 99.7822 29.2896C98.8685 30.4561 97.7349 31.4319 96.4455 32.1618C97.8638 31.0484 99.4772 29.3499 99.9559 27.1018C100.85 22.8927 97.1192 16.9461 96.9703 16.6944C96.9063 16.5933 96.8178 16.5101 96.713 16.4525C96.6082 16.3948 96.4906 16.3646 96.371 16.3646C96.3038 16.3653 96.2371 16.3749 96.1724 16.393C96.0251 16.4359 95.8957 16.5255 95.8036 16.6483C95.7116 16.771 95.6618 16.9203 95.6618 17.0738C95.6618 17.1412 95.5944 23.8111 90.9705 25.3146C90.8425 25.3576 90.7084 25.3791 90.5734 25.3784C87.9458 25.3784 83.7687 18.8751 80.0844 13.1378C77.0384 8.40039 74.1627 3.9183 71.7302 2.1666C70.2054 1.06026 68.7409 0.5 67.3828 0.5C64.9928 0.5 63.1277 2.31198 62.6773 5.04591C62.2333 5.34584 61.9054 5.78886 61.7483 6.30118C60.4256 6.79052 59.2661 7.81531 58.1846 9.49254C57.0464 11.2336 56.8123 13.5917 57.6279 15.1022C57.8162 15.497 58.1121 15.8305 58.4816 16.0645C58.8511 16.2985 59.2791 16.4234 59.7165 16.4249C59.9425 16.4237 60.1675 16.3951 60.3867 16.3398C60.5143 16.5171 60.6491 16.6944 60.7873 16.8646C60.7006 17.1116 60.6744 17.3758 60.7108 17.635C60.7472 17.8943 60.8453 18.141 60.9967 18.3546C61.1481 18.5681 61.3485 18.7423 61.581 18.8625C61.8136 18.9827 62.0716 19.0454 62.3334 19.0453C62.5687 19.045 62.8012 18.993 63.0142 18.8929C63.7456 19.3993 64.582 19.7338 65.4609 19.8716C64.812 20.1091 64.234 20.329 63.7482 20.5134C60.2483 21.2899 48.9084 23.8678 47.724 24.8714C46.6603 25.7614 39.7776 32.988 38.1925 34.6546C35.7883 35.8853 33.7589 37.7395 32.3169 40.0232C32.2978 39.9857 32.2752 39.9501 32.2495 39.9168C32.1527 39.8041 32.0229 39.7246 31.8785 39.6896C31.734 39.6546 31.5823 39.6659 31.4446 39.7218C28.778 40.8104 24.2143 43.0125 23.5796 45.5549C23.4832 45.9239 23.4791 46.311 23.5675 46.682C23.6559 47.053 23.8342 47.3966 24.0867 47.6825C24.2167 47.8312 24.3578 47.9699 24.5087 48.0974C22.2322 48.2924 21.2677 50.537 21.0833 51.0334C20.4237 52.0972 20.2429 53.8702 21.1187 55.7212C19.4133 56.0331 17.8859 56.9708 16.836 58.3505C15.7861 59.7302 15.2895 61.4523 15.4435 63.1792C15.5976 64.9061 16.3912 66.5131 17.6687 67.6852C18.9462 68.8573 20.6155 69.5098 22.3492 69.5149H53.2912C53.9961 69.8016 54.744 69.9682 55.5039 70.0078C55.596 70.0133 55.6883 70.0133 55.7805 70.0078C56.4097 69.9532 57.0249 69.7913 57.5995 69.5291H64.3687C65.76 69.5296 67.1194 69.1128 68.2712 68.3325C69.4231 67.5522 70.3144 66.4443 70.8299 65.1521C71.3454 63.8599 71.4615 62.4427 71.163 61.0838C70.8646 59.725 70.1654 58.4869 69.1558 57.5296C70.4962 56.3346 71.099 54.9552 70.8614 53.5759C70.5529 51.8029 68.8756 50.3065 66.3758 49.5867C66.0608 49.4981 65.7348 49.4551 65.4077 49.459C65.2739 49.4591 65.1401 49.4662 65.007 49.4803C66.0708 48.6186 66.6665 47.7818 66.7339 46.9768C66.8013 46.1719 66.3226 45.1755 65.3155 44.1117L65.6169 43.8422C65.7269 43.7394 65.8616 43.6188 66.0141 43.4876C68.6221 42.9355 71.1839 42.1839 73.6769 41.2395C73.7319 41.352 73.8149 41.4485 73.918 41.5196C76.191 43.0727 79.2157 44.75 80.4142 45.3989C79.283 48.0052 75.7725 56.1999 74.8577 59.7316C74.0776 62.7528 74.0066 66.0647 74.0882 68.3093C74.0946 68.4931 74.1722 68.6671 74.3045 68.7948C74.4368 68.9225 74.6135 68.9938 74.7974 68.9937H80.8007C80.9014 68.9935 81.0009 68.972 81.0926 68.9304C81.1843 68.8888 81.2662 68.8282 81.3326 68.7526C88.8926 60.1217 93.9881 53.6787 96.4809 49.6044C96.4809 49.5867 96.4809 49.5689 96.5093 49.5547L96.5518 49.4661C97.261 48.0725 98.7326 45.1684 96.9915 41.2253C96.5147 40.1129 95.8313 39.101 94.9774 38.2431C98.8993 35.3426 100.917 30.2116 101.009 29.9811ZM62.5248 39.9098H62.4894C60.9363 39.7502 58.9044 38.9204 58.3194 38.6687C58.0474 38.5445 57.753 38.477 57.4541 38.4701C57.1582 38.466 56.8686 38.5567 56.6279 38.7289C56.5969 38.7506 56.5672 38.7743 56.5393 38.7999C56.4607 38.6997 56.3566 38.6225 56.2379 38.5765C53.8018 37.6262 50.075 36.495 46.1745 36.495C44.9526 36.5025 43.7325 36.5902 42.5221 36.7574C46.6886 33.683 51.0998 30.5803 51.8019 30.3321C52.5572 30.1974 58.33 29.2861 61.8547 28.7293C61.5958 30.0414 61.4717 31.4172 61.7128 32.52C61.5249 32.7239 61.4009 32.9785 61.3561 33.2523C61.3114 33.526 61.3479 33.8068 61.4611 34.06C61.5743 34.3132 61.7592 34.5277 61.9931 34.6768C62.2269 34.826 62.4993 34.9034 62.7766 34.8993C62.972 34.8986 63.1652 34.8576 63.344 34.7788C64.0747 35.1778 64.8981 35.376 65.7304 35.3532C66.4987 35.3423 67.2624 35.2339 68.0034 35.0305C68.2303 35.3851 68.4643 35.7149 68.7125 36.0482C66.607 37.1813 64.5917 38.4747 62.6844 39.9168L62.5248 39.9098ZM70.0955 15.2405C70.3821 15.2038 70.6537 15.0913 70.8825 14.9149C71.1113 14.7384 71.2889 14.5041 71.3972 14.2363C71.5056 13.9684 71.5406 13.6765 71.4988 13.3906C71.4569 13.1047 71.3398 12.8351 71.1593 12.6094C71.3387 12.0613 71.3717 11.4758 71.255 10.9109C71.0032 9.6202 70.1309 8.68407 69.1735 8.68407C69.1098 8.67879 69.0458 8.67879 68.982 8.68407C68.8133 8.35816 68.5983 8.05837 68.3438 7.79403C68.3945 7.47541 68.3797 7.1498 68.3005 6.83705C68.2212 6.5243 68.0791 6.23098 67.8828 5.97496C70.482 7.27278 71.7585 11.6485 73.2301 16.7121C73.2762 16.8752 73.3223 17.0383 73.3719 17.1979C71.7869 17.6589 70.1026 18.2156 68.5352 18.7581C69.3901 17.7647 69.9329 16.5411 70.0955 15.2405ZM48.7311 58.0154C48.6426 58.0774 48.5694 58.1589 48.5171 58.2535C48.4649 58.3482 48.435 58.4535 48.4297 58.5615C48.4243 58.6098 48.4243 58.6585 48.4297 58.7069C48.1109 58.6522 47.7885 58.6214 47.4652 58.6147C47.3561 58.614 47.247 58.6211 47.1389 58.6359C43.9476 58.2211 39.2066 55.7992 35.0827 53.4269C36.6445 53.9757 38.2342 54.4421 39.8449 54.824C39.8974 54.8352 39.9508 54.8411 40.0045 54.8418C40.1137 54.8416 40.2214 54.8163 40.3192 54.7677C40.417 54.7191 40.5022 54.6486 40.5683 54.5616C40.6021 54.5153 40.6306 54.4654 40.6534 54.4127C41.1569 55.1293 41.7216 55.8008 42.3413 56.4197C43.1411 57.2344 44.2314 57.6985 45.3731 57.7104C47.5716 57.7104 49.5928 55.9091 50.1495 55.09L50.1991 55.0262C50.2796 55.0885 50.3725 55.1329 50.4717 55.1561C50.5708 55.1794 50.6737 55.181 50.7736 55.1609C51.9579 54.9127 53.1954 54.5935 54.4365 54.2283C52.4685 55.4517 50.5041 56.7708 48.7311 58.0154Z" fill="white"/>
<path d="M67.8432 57.3736C64.5066 58.568 61.0906 59.5278 57.6202 60.2458C55.9252 60.6004 54.209 60.955 52.4892 61.1961C52.2014 61.2378 51.9112 61.2603 51.6204 61.2635L51.2374 61.3131C51.1639 61.3256 51.0885 61.3222 51.0164 61.3033C50.9442 61.2843 50.8769 61.2502 50.819 61.2032C50.4581 61.1459 50.1063 61.041 49.773 60.8912C48.6769 60.7834 47.6021 60.5182 46.5816 60.104H46.5568C44.7856 59.6725 43.0529 59.0961 41.3761 58.3806C40.3443 57.9764 39.3018 57.6147 38.2557 57.2388C37.7309 57.0509 37.2238 56.8098 36.6955 56.6254C36.4721 56.5438 36.2487 56.48 36.0289 56.402C35.9151 56.411 35.8012 56.385 35.7026 56.3275H22.3486C20.6915 56.3275 19.1023 56.9858 17.9306 58.1575C16.7588 59.3292 16.1006 60.9184 16.1006 62.5755C16.1043 64.2298 16.7644 65.815 17.9358 66.9831C19.1072 68.1511 20.6943 68.8067 22.3486 68.8057H64.3681C65.1885 68.8062 66.0008 68.645 66.7589 68.3314C67.5169 68.0178 68.2057 67.5579 68.7859 66.978C69.3661 66.3981 69.8264 65.7096 70.1404 64.9518C70.4545 64.1939 70.6161 63.3816 70.6161 62.5613C70.6163 61.5352 70.3633 60.5249 69.8796 59.62C69.3959 58.7151 68.6964 57.9435 67.8432 57.3736Z" fill="#FF0079"/>
<path d="M62.3255 18.3361C62.8386 18.3361 63.2546 17.9202 63.2546 17.4071C63.2546 16.894 62.8386 16.478 62.3255 16.478C61.8124 16.478 61.3965 16.894 61.3965 17.4071C61.3965 17.9202 61.8124 18.3361 62.3255 18.3361Z" fill="white"/>
<path d="M93.6014 33.0979C93.6014 33.0979 98.4168 30.9278 99.275 26.9528C100.133 22.9778 96.385 17.0738 96.385 17.0738C96.385 17.0738 96.385 24.304 91.2044 25.9883C86.0237 27.6726 76.9886 6.84013 71.347 2.741C65.7054 -1.35812 62.4183 3.58494 63.4821 8.03866L66.5316 8.7904C66.5316 8.7904 66.6522 4.63809 68.0599 5.26927C71.652 6.88622 72.8363 13.1732 74.9284 19.9034C74.9852 19.7155 75.0419 19.5276 75.0915 19.3361C75.3007 18.5666 76.5099 18.868 76.2936 19.6375C76.0773 20.4069 75.8256 21.1197 75.5561 21.8502C76.6588 25.1053 78.0382 28.3712 80.0807 31.1725C80.0346 30.6512 79.992 30.13 79.9637 29.6123C79.8467 27.5166 79.8679 25.4599 79.1907 23.4423C78.9354 22.6835 80.1303 22.3537 80.3821 23.109C81.0913 25.2365 81.0913 27.3996 81.2012 29.5981C81.2615 30.6619 81.375 31.7576 81.4175 32.8391C82.2437 33.7646 82.2118 36.3177 83.2437 37.0942C94.3319 45.2712 100.36 29.7222 100.36 29.7222C100.36 29.7222 96.7325 34.4206 93.6014 33.0979Z" fill="white"/>
<path d="M67.6292 7.7339C67.8586 6.66548 66.8696 5.54705 65.4202 5.23578C63.9707 4.92452 62.6097 5.5383 62.3803 6.60671C62.1508 7.67513 63.1399 8.79359 64.5893 9.10485C66.0387 9.41612 67.3998 8.80232 67.6292 7.7339Z" fill="#FF0079"/>
<path d="M33.8448 40.1473C33.102 41.0257 32.5491 42.0483 32.2207 43.1508C32.1108 43.5053 31.9335 44.0514 32.0824 44.4273C32.2314 44.8032 32.8342 44.6294 33.1462 44.5337C34.3306 44.1791 35.1178 43.289 35.9404 42.4061C36.6993 41.5976 37.2879 40.6686 37.99 39.8176C37.8125 39.3616 37.6934 38.885 37.6354 38.3992C36.3801 38.7219 35.1319 39.1084 33.9334 39.5091C33.981 39.6128 33.9979 39.728 33.9822 39.8411C33.9665 39.9542 33.9188 40.0604 33.8448 40.1473Z" fill="#333333"/>
<path d="M38.7449 51.3278C38.6737 51.342 38.6012 51.3492 38.5286 51.349C38.1907 51.3455 37.8569 51.2743 37.5469 51.1397C37.2369 51.0051 36.957 50.8098 36.7237 50.5654C36.0016 49.659 35.6112 48.5329 35.6174 47.374C35.5642 46.1755 36.1422 45.0514 37.3903 44.7855C37.7254 44.7171 38.0697 44.7075 38.408 44.7571C38.5109 44.4557 38.6279 44.1578 38.7626 43.8635C38.9965 43.2629 39.2824 42.6839 39.6172 42.1331C39.3784 41.9161 39.1589 41.6788 38.9612 41.4239C38.1699 42.6483 37.1925 43.7418 36.0642 44.6649C35.0677 45.4663 33.777 46.3776 32.4296 46.218C31.0821 46.0585 30.4296 44.7287 30.5928 43.4593C30.7561 42.3565 31.1447 41.2991 31.7345 40.353C26.5858 42.4558 22.9725 45.1826 24.6426 47.2003C25.8234 48.6186 32.653 52.3845 40.0144 54.1078C39.5204 53.2151 39.096 52.2857 38.7449 51.3278Z" fill="#070036"/>
<path d="M51.7342 45.6471C51.6491 45.1747 51.5391 44.7072 51.4044 44.2465C51.2677 43.6283 51.047 43.0318 50.7484 42.4735C50.1977 41.4585 49.3349 40.6479 48.2875 40.1615C47.142 39.6888 45.8737 39.6017 44.6742 39.9133C44.043 40.0516 42.9615 40.3105 42.3197 40.8033C42.7799 41.1237 43.2855 41.3735 43.8196 41.5444C44.5784 41.782 44.2841 42.9841 43.5218 42.7465C43.4178 42.7158 43.3149 42.6803 43.2133 42.6402C43.1267 42.7489 43.0044 42.8235 42.8682 42.8508C42.7319 42.878 42.5903 42.8562 42.4686 42.7891L42.3729 42.7394C42.3756 42.8311 42.3566 42.922 42.3173 43.0048C42.278 43.0876 42.2196 43.1599 42.1468 43.2157C42.0741 43.2714 41.9891 43.3091 41.8989 43.3256C41.8088 43.342 41.716 43.3368 41.6282 43.3103C41.2656 43.204 40.916 43.0577 40.5857 42.8742C40.3216 43.3293 40.0917 43.8034 39.8978 44.2926C39.7879 44.5727 39.6638 44.867 39.5432 45.1684C39.7633 45.2888 39.9622 45.4445 40.1318 45.6294C40.6637 46.218 39.8091 47.1187 39.2772 46.5265C39.0468 47.0726 38.0787 47.0052 38.0894 46.296C38.09 46.1977 38.0959 46.0994 38.1071 46.0017C38.001 45.9911 37.8941 45.9911 37.7879 46.0017C36.9653 46.0868 36.7773 46.8634 36.8625 47.569C36.9633 48.284 37.2521 48.9595 37.6993 49.5264C37.9156 49.8065 38.1993 50.1718 38.5858 50.1221C38.6231 50.1172 38.6599 50.1089 38.6957 50.0973C38.5692 49.7787 38.5008 49.44 38.4936 49.0973C38.5054 48.9413 38.5757 48.7955 38.6905 48.6892C38.8052 48.5828 38.9559 48.5237 39.1124 48.5237C39.2688 48.5237 39.4195 48.5828 39.5343 48.6892C39.649 48.7955 39.7193 48.9413 39.7311 49.0973C39.7327 49.2337 39.7505 49.3694 39.7843 49.5016C39.9164 49.4956 40.047 49.5308 40.1583 49.6022C40.2695 49.6737 40.3558 49.7779 40.4052 49.9005C40.4546 50.0231 40.4648 50.1581 40.4342 50.2867C40.4037 50.4153 40.3339 50.5313 40.2347 50.6186C40.4332 51.1079 40.5893 51.6079 40.7985 52.0972C41.1333 52.9809 41.5725 53.8213 42.1069 54.6007C43.4484 54.841 44.8051 54.9867 46.167 55.0368C47.016 55.0472 47.8643 54.9844 48.7024 54.8489V54.8276C49.704 53.7872 50.4642 52.539 50.9293 51.1717C51.0073 50.959 51.0746 50.7427 51.142 50.5228C51.0393 50.4478 50.9608 50.3442 50.9165 50.225C50.8721 50.1058 50.8638 49.9762 50.8925 49.8522C50.9212 49.7283 50.9857 49.6155 51.078 49.528C51.1703 49.4404 51.2863 49.3819 51.4115 49.3597C51.5117 48.7612 51.5521 48.1543 51.5321 47.5478C51.4247 47.5514 51.3182 47.5266 51.2234 47.4759C51.1287 47.4252 51.049 47.3503 50.9925 47.2589C50.936 47.1675 50.9046 47.0627 50.9016 46.9553C50.8986 46.8479 50.924 46.7415 50.9754 46.6471C51.1806 46.2801 51.436 45.9436 51.7342 45.6471Z" fill="#333333"/>
<path d="M56.5819 40.3034C56.2789 40.0762 56.0675 39.7478 55.9861 39.3779C55.9809 39.3261 55.9809 39.2738 55.9861 39.2219C52.8905 38.0163 49.4403 37.1865 46.178 37.1865C44.2483 37.2123 42.3252 37.4177 40.4336 37.8C40.4895 38.6164 40.831 39.3872 41.3981 39.9772C42.1711 39.307 43.3625 38.9418 44.2348 38.7361C45.6653 38.3554 47.1784 38.4247 48.568 38.9347C49.8817 39.4714 50.9829 40.4244 51.7027 41.6473C52.1145 42.3542 52.417 43.1193 52.5998 43.9167C52.6742 44.2146 52.7558 44.5125 52.8303 44.8068C53.1554 44.6256 53.5218 44.5316 53.894 44.5337C53.7905 44.0857 53.8417 43.6157 54.0394 43.2005C54.4366 42.3672 55.2167 41.8034 55.9613 41.3069C56.3159 41.0729 56.6457 40.8424 56.9897 40.6296C56.8443 40.5162 56.7024 40.4169 56.5819 40.3034Z" fill="#070036"/>
<path d="M57.6241 45.8705C58.8997 45.7574 60.1544 45.4736 61.3544 45.0265C62.2541 44.729 63.0944 44.2753 63.8366 43.6862C62.4152 42.5204 60.8692 41.5155 59.2269 40.6898C59.2042 40.7941 59.1531 40.89 59.0792 40.9669C59.0054 41.0439 58.9117 41.099 58.8085 41.126C58.0757 41.4027 57.3884 41.7876 56.7695 42.2678C56.1951 42.6472 55.4682 43.0692 55.1774 43.7252C54.8866 44.3812 55.4788 45.1081 55.993 45.4804C56.4739 45.7982 57.0514 45.9364 57.6241 45.8705Z" fill="#333333"/>
<path d="M64.7515 44.5302C63.671 45.4074 62.4182 46.0477 61.0743 46.4095C59.6559 46.8386 57.8191 47.3988 56.3369 46.9875C56.1841 46.9429 56.0348 46.8872 55.8901 46.8208C55.9003 46.8771 55.9074 46.934 55.9114 46.991C56.0284 48.1683 55.5958 49.9271 54.6491 50.693C53.4328 51.6752 52.5888 51.3419 52.3548 51.2852C51.8521 52.3868 51.2751 53.4531 50.6279 54.4766C56.9468 53.1468 65.8153 49.6186 66.0316 46.9308C66.0848 46.2641 65.6096 45.4308 64.7515 44.5302Z" fill="#070036"/>
<path d="M53.9076 46.6152C53.6027 46.2039 53.2906 46.1294 53.0069 46.2393V46.3741C52.9977 46.4605 52.9714 46.5443 52.9293 46.6204C52.8873 46.6965 52.8305 46.7635 52.7623 46.8173C52.8641 47.7632 52.8271 48.7189 52.6523 49.6541C53.4892 49.8917 54.0388 48.8669 54.1665 48.0619C54.2725 47.5644 54.1796 47.0451 53.9076 46.6152Z" fill="#333333"/>
<path d="M39.1099 50.717C40.0764 50.4023 40.4931 49.021 40.0406 47.6319C39.5882 46.2427 38.438 45.3718 37.4716 45.6865C36.5051 46.0013 36.0884 47.3826 36.5409 48.7717C36.9933 50.1608 38.1435 51.0318 39.1099 50.717Z" fill="#070036"/>
<path d="M54.9967 48.6842C55.4491 47.2951 55.0324 45.9138 54.066 45.599C53.0996 45.2843 51.9494 46.1552 51.4969 47.5443C51.0445 48.9335 51.4612 50.3147 52.4276 50.6295C53.394 50.9443 54.5443 50.0733 54.9967 48.6842Z" fill="#070036"/>
<path d="M69.0529 10.6308C70.0706 13.4392 69.4465 18.1021 66.9254 19.0205C64.4042 19.9389 60.9256 16.7653 59.9044 13.9605C58.8831 11.1556 60.1065 8.13091 62.6348 7.22314C65.163 6.31538 68.0317 7.84014 69.0529 10.6308Z" fill="#070036"/>
<path d="M69.7677 13.111C70.4118 12.986 70.7716 12.0493 70.5715 11.0188C70.3714 9.98838 69.6871 9.25443 69.0431 9.3795C68.3991 9.50457 68.0392 10.4413 68.2393 11.4717C68.4394 12.5022 69.1237 13.2361 69.7677 13.111Z" fill="#070036"/>
<path d="M62.7908 34.1689C63.1903 34.1689 63.5141 33.845 63.5141 33.4455C63.5141 33.046 63.1903 32.7222 62.7908 32.7222C62.3913 32.7222 62.0674 33.046 62.0674 33.4455C62.0674 33.845 62.3913 34.1689 62.7908 34.1689Z" fill="#070036"/>
<path d="M21.7214 51.342C21.7214 51.342 23.0582 47.2606 26.9162 49.413C30.7742 51.5654 41.327 58.6679 47.1707 59.3416L46.2063 62.3096C46.2063 62.3096 36.93 62.7564 29.0651 60.5366C21.2002 58.3169 20.4591 53.271 21.7214 51.342Z" fill="#070036"/>
<path d="M66.1876 50.2675C62.9431 49.3314 53.7307 55.3737 49.1387 58.597C49.6067 59.0048 51.2911 58.7495 51.7875 58.636C52.4374 58.4842 53.0724 58.2741 53.6846 58.0084C54.1668 57.8062 54.6633 57.597 55.0817 57.8311C55.0817 57.8311 57.3688 58.8239 54.7767 60.7423L55.0781 60.9125C59.4219 60.3558 65.17 59.3665 67.5918 57.824C71.9427 55.0581 70.4499 51.498 66.1876 50.2675Z" fill="#070036"/>
<path d="M45.8545 61.8769C45.8545 62.0436 47.9466 66.6285 49.4182 67.1391C50.8898 67.6498 54.1627 69.4511 55.7016 69.288C59.9568 68.8412 58.7653 65.0718 58.4675 64.4584C57.8292 63.1464 54.2868 61.4798 53.7194 61.0259C53.1521 60.572 48.1452 59.0969 47.17 59.3522C46.1949 59.6075 45.8545 61.8769 45.8545 61.8769Z" fill="#070036"/>
<path d="M49.1172 59.8238L53.234 58.8558C53.7978 58.7246 54.8581 57.8948 55.124 58.7884C55.39 59.682 53.9964 60.6465 52.6667 60.8805C51.337 61.1145 49.1172 59.8238 49.1172 59.8238Z" fill="#070036"/>
<path d="M63.482 40.6189C63.1395 40.6524 62.7944 40.6453 62.4536 40.5976C61.0352 40.4558 59.2268 39.8033 58.0567 39.3033C57.9057 39.2162 57.735 39.1688 57.5607 39.1657C57.3864 39.1626 57.2142 39.2038 57.0602 39.2856C56.6454 39.587 57.1205 40.0515 57.4148 40.2891C57.674 40.4915 57.959 40.6585 58.2623 40.7855C56.7801 41.3742 54.3192 43.1578 54.2731 44.0407C54.2199 45.0407 54.7164 47.1115 58.5495 46.3527C62.2622 45.6222 64.2692 44.1648 65.1627 43.3244C66.0563 42.484 67.8896 41.1047 67.8896 41.1047L63.482 40.6189Z" fill="#070036"/>
<path d="M52.5138 46.7995C52.5138 50.9908 49.4571 56.8381 45.6807 56.8381C41.9043 56.8381 38.8477 50.9802 38.8477 46.7995C38.8477 42.6188 41.9078 39.2147 45.6807 39.2147C49.4536 39.2147 52.5138 42.6011 52.5138 46.7995Z" fill="white"/>
<path d="M42.8302 55.9091C41.8115 54.8985 40.9647 53.7283 40.3232 52.4447L43.5855 54.6077L42.5217 51.0618C42.5217 51.0618 43.5855 54.1716 46.6811 54.9623C46.6811 54.9623 45.245 53.629 44.8833 51.9341C44.8833 51.9341 46.3478 54.8595 48.3761 54.8347L46.6811 52.3525C46.6811 52.3525 49.5179 54.2389 49.6243 54.629C49.6526 54.7815 45.9897 58.9125 42.8302 55.9091Z" fill="#070036"/>
<path d="M68.5911 9.64852C68.5911 9.64852 67.5592 11.1485 64.8962 8.8365C64.8962 8.8365 63.8324 13.8008 60.8893 15.3823C57.9461 16.9638 56.932 12.6945 58.7617 9.88256C60.5914 7.07061 62.5949 6.14866 65.499 6.96778C68.4032 7.7869 68.5911 9.64852 68.5911 9.64852Z" fill="white"/>
<path d="M69.8824 14.5313C70.3994 14.5313 70.8186 14.1169 70.8186 13.6058C70.8186 13.0947 70.3994 12.6803 69.8824 12.6803C69.3654 12.6803 68.9463 13.0947 68.9463 13.6058C68.9463 14.1169 69.3654 14.5313 69.8824 14.5313Z" fill="white"/>
<path d="M96.357 41.509C94.4564 37.1971 90.3927 35.5979 85.2014 36.8141L84.588 36.839L84.6163 36.8177C82.5136 35.527 82.1767 32.9987 82.1093 31.7434C82.042 30.4882 81.9639 29.1442 81.8788 27.8429C81.6696 24.8111 81.4959 21.8147 80.6661 18.8893C80.5292 18.284 80.2128 17.7341 79.7584 17.3114C79.1963 16.8997 78.5009 16.7126 77.8081 16.7866C76.3897 16.8752 75.0458 17.4568 73.6841 17.8504C70.0708 18.9142 65.8334 20.4744 63.9328 21.1978C63.9328 21.1978 49.3305 24.4423 48.1816 25.4103C47.1178 26.3039 39.7848 34.0128 38.6288 35.2256C32.5191 38.4169 31.4554 43.6046 31.505 44.0692C31.5546 44.5337 31.0369 45.8138 34.051 45.0798C35.3063 44.7713 38.2529 41.009 38.4622 40.7502C38.5012 40.7005 38.6359 40.509 38.8168 40.2395C38.955 40.4807 38.8451 40.7892 39.338 41.2785C39.7174 41.6579 41.3911 42.3423 41.6039 41.6792C41.7776 41.1296 40.806 40.2324 40.5401 39.9275C40.2168 39.5539 40.0261 39.0839 39.9976 38.5907C40.5295 37.8425 41.0614 37.1085 41.2847 36.768C41.2847 36.768 50.678 29.7967 51.6496 29.6229C52.3091 29.5024 58.2131 28.5592 61.9328 27.9812C62.4825 26.9174 63.8477 24.5593 63.8477 24.5593C63.8477 24.5593 61.2236 31.0555 62.8193 33.3143C64.0923 35.1192 66.7199 34.6901 68.3404 34.1866C68.6879 34.7256 69.0567 35.2693 69.4467 35.8177C71.092 35.144 74.1806 33.832 74.5281 33.3568C74.9997 32.7079 74.9394 24.6302 75.0139 23.0736C75.0419 22.1547 75.2068 21.2452 75.5032 20.3751C75.5032 20.3751 75.5032 21.7935 75.4748 23.0381C75.4465 24.2827 75.5919 33.3994 74.9997 33.871C74.482 34.2894 69.7623 36.2361 69.7765 36.2539C64.7625 38.9027 62.2165 41.1792 62.2165 41.1792L63.2803 43.2323C66.853 42.7095 70.3542 41.7804 73.716 40.4629C73.716 40.4629 79.3896 38.5304 80.0988 37.1758C80.808 35.8213 80.2725 24.0203 80.2725 24.0203C80.2725 24.0203 81.5242 34.5022 80.8966 36.8638C80.4073 38.7148 76.1628 40.3104 74.3508 40.9133C76.5918 42.4416 79.5633 44.1046 80.7938 44.7571C81.2973 43.9982 83.1944 41.7856 83.1944 41.7856C83.1944 41.7856 81.1661 45.4734 81.1661 45.5585H81.1448C80.2122 47.7073 76.5067 56.3134 75.5812 59.8877C74.7976 62.9124 74.7621 66.2704 74.833 68.2632H80.8363C83.6731 65.0293 92.2614 55.1751 95.9102 49.2108C96.5875 47.8633 97.9952 45.2216 96.357 41.509ZM67.4645 28.5804C67.4645 28.5804 68.8616 32.7363 73.053 32.52C73.0565 32.52 68.3226 34.4915 67.4645 28.5804Z" fill="#070036"/>
<path d="M32.4513 73.0893C32.4227 72.9203 32.3364 72.7664 32.2071 72.6539C32.0778 72.5414 31.9135 72.4772 31.7421 72.4723L29.5685 72.451C29.3935 72.4508 29.2241 72.5121 29.0899 72.6243C28.9557 72.7364 28.8653 72.8923 28.8344 73.0644L27.104 82.8619V82.0534C27.1073 81.5397 26.9968 81.0316 26.7804 80.5656C26.564 80.0996 26.247 79.6874 25.8523 79.3585C25.0996 78.6712 24.1163 78.2916 23.0971 78.2947C22.9021 78.2947 22.7425 78.2664 22.6432 77.9189C22.5338 77.4629 22.4908 76.9935 22.5156 76.5253C22.4927 76.231 22.5313 75.9351 22.629 75.6565C22.6538 75.6104 22.7106 75.5253 23.0084 75.5253C23.3063 75.5253 23.4021 75.6246 23.4623 75.7523C23.5654 76.1164 23.6073 76.495 23.5864 76.8728C23.5864 76.9704 23.6057 77.0671 23.6432 77.1572C23.6806 77.2474 23.7356 77.3292 23.8047 77.3981C23.8739 77.467 23.9561 77.5215 24.0464 77.5585C24.1367 77.5955 24.2335 77.6144 24.3311 77.6139H26.3594C26.457 77.6144 26.5537 77.5955 26.6441 77.5585C26.7344 77.5215 26.8165 77.467 26.8857 77.3981C26.9549 77.3292 27.0098 77.2474 27.0473 77.1572C27.0847 77.0671 27.104 76.9704 27.104 76.8728V76.0005C27.0993 74.9954 26.6975 74.0328 25.9861 73.3228C25.2747 72.6127 24.3114 72.2127 23.3063 72.2099H22.7744C22.2757 72.2038 21.781 72.299 21.3202 72.4898C20.8594 72.6806 20.4421 72.9629 20.0937 73.3198C19.7348 73.6655 19.4505 74.0811 19.2584 74.5409C19.0663 75.0008 18.9704 75.4951 18.9767 75.9934V77.8586C18.9731 78.3724 19.0835 78.8806 19.3 79.3466C19.5164 79.8126 19.8335 80.2248 20.2284 80.5535C20.9909 81.2456 21.9859 81.6253 23.0155 81.6173C23.0829 81.6094 23.151 81.6234 23.2097 81.6573C23.2685 81.6911 23.3148 81.743 23.3418 81.8052C23.5241 82.2134 23.601 82.6609 23.5652 83.1066C23.5909 83.4177 23.556 83.7308 23.4623 84.0285C23.434 84.0888 23.3843 84.1881 23.0723 84.1881C23.0161 84.1957 22.9591 84.1907 22.9051 84.1735C22.8511 84.1563 22.8017 84.1274 22.7602 84.0888C22.6751 84.0037 22.4836 83.7165 22.4943 82.8442C22.4947 82.7461 22.4758 82.6489 22.4386 82.5581C22.4014 82.4674 22.3466 82.3849 22.2774 82.3153C22.2082 82.2458 22.126 82.1907 22.0354 82.153C21.9448 82.1154 21.8477 82.096 21.7496 82.096H19.7214C19.5245 82.096 19.3356 82.174 19.196 82.3128C19.0565 82.4517 18.9776 82.6402 18.9767 82.8371V83.4576L17.2037 73.0893C17.1751 72.9203 17.0888 72.7664 16.9595 72.6539C16.8302 72.5414 16.6658 72.4772 16.4945 72.4723L14.3209 72.451C14.1462 72.4502 13.9769 72.5114 13.8431 72.6237C13.7093 72.7361 13.6198 72.8923 13.5904 73.0644L11.5125 84.8122V73.2134C11.5115 73.0165 11.4327 72.828 11.2931 72.6891C11.1536 72.5502 10.9647 72.4723 10.7678 72.4723H8.4133C8.25187 72.4741 8.09542 72.5284 7.9675 72.6269C7.83959 72.7254 7.74715 72.8627 7.70411 73.0183L5.83893 79.8195L3.87093 73.0077C3.82648 72.8538 3.73334 72.7184 3.60548 72.6219C3.47763 72.5254 3.32194 72.4729 3.16174 72.4723H0.910057C0.713504 72.4723 0.524993 72.5503 0.386009 72.6893C0.247025 72.8283 0.168954 73.0168 0.168954 73.2134V86.3901C0.168487 86.4878 0.187303 86.5845 0.224338 86.6748C0.261373 86.7652 0.31589 86.8473 0.384754 86.9165C0.453619 86.9857 0.535481 87.0406 0.625628 87.078C0.715774 87.1155 0.812435 87.1348 0.910057 87.1348H3.01989C3.21739 87.1348 3.40679 87.0563 3.54644 86.9167C3.68609 86.777 3.76455 86.5876 3.76455 86.3901V85.7412L3.96312 86.5674C4.0022 86.727 4.09294 86.8691 4.22121 86.9717C4.34948 87.0744 4.50808 87.1317 4.67231 87.1348H6.78216C6.9439 87.1322 7.10042 87.0772 7.22828 86.9781C7.35614 86.879 7.44844 86.7411 7.49135 86.5852L7.84595 85.2342V86.3901C7.84595 86.5876 7.9244 86.777 8.06405 86.9167C8.2037 87.0563 8.3931 87.1348 8.5906 87.1348H10.7182C10.838 87.1343 10.9559 87.1051 11.062 87.0495C11.1681 86.994 11.2594 86.9138 11.3281 86.8157L11.3671 86.8688C11.4373 86.9518 11.5248 87.0186 11.6233 87.0645C11.7219 87.1104 11.8292 87.1344 11.938 87.1348H14.0407C14.2163 87.1346 14.386 87.0721 14.5198 86.9585C14.6536 86.8449 14.7426 86.6874 14.7712 86.5143L15.179 84.1278H15.4733L15.8633 86.5107C15.8919 86.6848 15.9814 86.8432 16.1158 86.9575C16.2502 87.0718 16.4209 87.1346 16.5974 87.1348H18.6966C18.8049 87.1353 18.9121 87.1117 19.0102 87.0657C19.1083 87.0197 19.195 86.9525 19.2639 86.8688C19.334 86.7866 19.3852 86.69 19.414 86.5859C19.4428 86.4817 19.4484 86.3726 19.4306 86.266L19.2497 85.2022C19.4427 85.6459 19.7196 86.0481 20.0653 86.3866C20.4138 86.7434 20.831 87.0258 21.2918 87.2165C21.7526 87.4073 22.2474 87.5026 22.746 87.4965H23.2779C23.7767 87.5034 24.2717 87.4085 24.7326 87.2177C25.1936 87.0269 25.6107 86.7441 25.9587 86.3866C26.2065 86.1415 26.4211 85.8649 26.5969 85.5639L26.4728 86.2731C26.4543 86.3799 26.4592 86.4893 26.4873 86.594C26.5154 86.6986 26.566 86.7958 26.6356 86.8789C26.7051 86.9619 26.7919 87.0288 26.89 87.0748C26.9881 87.1209 27.095 87.145 27.2033 87.1454H29.3061C29.482 87.1454 29.6522 87.083 29.7866 86.9694C29.921 86.8559 30.0108 86.6984 30.0401 86.5249L30.4443 84.1385H30.7386L31.1287 86.5213C31.1579 86.6952 31.2476 86.8531 31.3819 86.9673C31.5162 87.0814 31.6864 87.1445 31.8627 87.1454H33.9655C34.0734 87.1449 34.18 87.1209 34.2778 87.075C34.3755 87.0292 34.4621 86.9627 34.5316 86.88C34.6011 86.7974 34.6518 86.7006 34.6802 86.5964C34.7086 86.4922 34.7139 86.3831 34.6959 86.2767L32.4513 73.0893Z" fill="#070036"/>
<path d="M48.997 72.4509L42.8447 72.4722C42.7254 72.4724 42.6079 72.5015 42.5023 72.5571C42.3966 72.6127 42.3061 72.6931 42.2384 72.7914C42.1689 72.7223 42.0864 72.6677 41.9957 72.6306C41.9051 72.5934 41.808 72.5746 41.71 72.5751H39.6817C39.5841 72.5746 39.4874 72.5934 39.3971 72.6305C39.3067 72.6675 39.2246 72.722 39.1554 72.7909C39.0862 72.8597 39.0313 72.9416 38.9938 73.0317C38.9564 73.1219 38.9371 73.2185 38.9371 73.3162V82.9683C38.9371 83.9292 38.6179 83.9292 38.3626 83.9292C38.1641 83.9292 37.8662 83.9292 37.8662 82.9647V81.1917C37.8653 80.9948 37.7864 80.8064 37.6469 80.6675C37.5073 80.5286 37.3184 80.4506 37.1216 80.4506H35.0933C34.8964 80.4506 34.7075 80.5286 34.568 80.6675C34.4284 80.8064 34.3496 80.9948 34.3486 81.1917V83.5072C34.3505 84.5117 34.7506 85.4744 35.4612 86.1843C36.1717 86.8942 37.1348 87.2934 38.1393 87.2943H38.6605C39.1584 87.301 39.6525 87.2064 40.1128 87.0162C40.573 86.826 40.9897 86.5442 41.3377 86.188C41.6517 85.8804 41.9097 85.5204 42.1001 85.1242V86.3759C42.1001 86.5734 42.1785 86.7628 42.3182 86.9025C42.4578 87.0421 42.6472 87.1206 42.8447 87.1206H48.997C49.1939 87.1196 49.3823 87.0408 49.5212 86.9012C49.6601 86.7617 49.7381 86.5728 49.7381 86.3759V84.4895C49.7381 84.2926 49.6601 84.1037 49.5212 83.9642C49.3823 83.8246 49.1939 83.7458 48.997 83.7448H45.6992V81.2626H48.997C49.1932 81.2617 49.3812 81.1833 49.52 81.0446C49.6588 80.9058 49.7371 80.7178 49.7381 80.5215V78.6315C49.7381 78.435 49.66 78.2465 49.521 78.1075C49.382 77.9685 49.1935 77.8904 48.997 77.8904H45.6992V75.8232H48.997C49.1939 75.8222 49.3823 75.7434 49.5212 75.6038C49.6601 75.4643 49.7381 75.2754 49.7381 75.0785V73.192C49.739 73.0943 49.7205 72.9973 49.6836 72.9068C49.6468 72.8163 49.5923 72.734 49.5233 72.6647C49.4544 72.5954 49.3723 72.5405 49.282 72.5032C49.1916 72.4659 49.0947 72.4469 48.997 72.4474V72.4509Z" fill="#070036"/>
<path d="M105.739 75.5218C106.051 75.5218 106.132 75.6211 106.189 75.7487C106.294 76.1124 106.337 76.4912 106.317 76.8692C106.316 76.9667 106.335 77.0633 106.372 77.1534C106.409 77.2435 106.464 77.3254 106.533 77.3943C106.602 77.4632 106.683 77.5178 106.774 77.5549C106.864 77.592 106.96 77.6108 107.058 77.6103H109.09C109.286 77.6103 109.475 77.5323 109.614 77.3933C109.753 77.2543 109.831 77.0658 109.831 76.8692V75.9969C109.828 74.9912 109.427 74.0276 108.715 73.3171C108.003 72.6067 107.039 72.2072 106.033 72.2063H105.505C104.718 72.2088 103.951 72.4535 103.309 72.9071C102.666 73.3608 102.178 74.0013 101.913 74.7417C101.718 74.2055 101.404 73.7205 100.994 73.3233C100.647 72.9688 100.232 72.6882 99.7738 72.498C99.3156 72.3079 98.8237 72.2123 98.3277 72.2169H97.7993C97.3012 72.2109 96.807 72.3062 96.3468 72.497C95.8865 72.6878 95.4699 72.9701 95.1221 73.3268C94.7317 73.7127 94.4293 74.1784 94.2356 74.692C94.0454 74.1785 93.7439 73.7135 93.3527 73.3304C93.0056 72.9725 92.5891 72.6892 92.1288 72.4978C91.6685 72.3063 91.174 72.2108 90.6755 72.2169H90.1471C89.649 72.2109 89.1548 72.3062 88.6946 72.497C88.2344 72.6878 87.8177 72.9701 87.4699 73.3268C87.0939 73.6983 86.7993 74.1439 86.6047 74.6353V73.2169C86.6052 73.12 86.5866 73.024 86.5499 72.9344C86.5133 72.8447 86.4594 72.7631 86.3912 72.6943C86.323 72.6255 86.242 72.5708 86.1527 72.5333C86.0634 72.4958 85.9676 72.4763 85.8707 72.4758L83.7431 72.4545C83.5476 72.4547 83.3601 72.5325 83.2219 72.6708C83.2082 72.6821 83.1963 72.6952 83.1864 72.7098C83.1173 72.6299 83.0319 72.5657 82.9358 72.5217C82.8398 72.4776 82.7354 72.4547 82.6297 72.4545H76.442C76.2439 72.456 76.0543 72.5349 75.9137 72.6744C75.8448 72.7446 75.7906 72.8277 75.7541 72.919C75.7176 73.0103 75.6995 73.1079 75.7009 73.2063V74.1849C75.5215 73.8659 75.2983 73.5734 75.0378 73.3162C74.6907 72.9617 74.2756 72.6811 73.8174 72.491C73.3592 72.3008 72.8673 72.2052 72.3713 72.2098H71.8429C70.9222 72.2127 70.0339 72.5503 69.3437 73.1596C68.6534 73.769 68.2083 74.6085 68.0913 75.5218C67.9315 74.648 67.4711 73.8577 66.7897 73.2877C66.1084 72.7178 65.2492 72.4042 64.3609 72.4013L60.7689 72.4226C60.6439 72.5301 60.4864 72.5924 60.3218 72.5995C60.1571 72.6065 59.9948 72.558 59.8611 72.4616L53.7089 72.4829C53.5126 72.4838 53.3247 72.5622 53.1859 72.701C53.0471 72.8398 52.9687 73.0277 52.9678 73.224V86.4008C52.9678 86.4985 52.987 86.5954 53.0245 86.6857C53.0619 86.7761 53.1167 86.8582 53.1859 86.9273C53.255 86.9965 53.3371 87.0513 53.4275 87.0887C53.5178 87.1261 53.6146 87.1454 53.7124 87.1454H59.8647C60.0297 87.1453 60.1898 87.089 60.3186 86.9858C60.449 87.0885 60.61 87.1447 60.776 87.1454H62.9035C63.1004 87.1445 63.2889 87.0656 63.4278 86.9261C63.5667 86.7865 63.6447 86.5976 63.6447 86.4008V82.2023C63.9332 82.1882 64.2214 82.2378 64.4886 82.3477C64.5666 82.3903 64.8006 82.5215 64.8006 83.1633V86.3901C64.8002 86.4877 64.819 86.5845 64.856 86.6748C64.8931 86.7651 64.9476 86.8473 65.0164 86.9165C65.0853 86.9856 65.1672 87.0406 65.2573 87.078C65.3475 87.1155 65.4441 87.1348 65.5417 87.1348H67.5736C67.7704 87.1338 67.959 87.055 68.0978 86.9154C68.2367 86.7759 68.3147 86.587 68.3147 86.3901V84.8476C68.5063 85.3602 68.809 85.824 69.2012 86.2057C69.5475 86.5633 69.9634 86.8463 70.4232 87.0372C70.883 87.228 71.377 87.3228 71.8748 87.3156H72.4032C72.8987 87.3206 73.3902 87.2251 73.8479 87.035C74.3056 86.8448 74.72 86.5639 75.0662 86.2093C75.4281 85.8646 75.7151 85.4489 75.9091 84.9882C76.1031 84.5276 76.2 84.0319 76.1938 83.5321V75.9934C76.1938 75.8409 76.1938 75.6955 76.169 75.5501C76.2673 75.5978 76.3753 75.622 76.4846 75.6211H77.7717V86.3901C77.7717 86.5876 77.8502 86.777 77.9899 86.9167C78.1295 87.0563 78.3189 87.1348 78.5164 87.1348H80.6262C80.8237 87.1348 81.0131 87.0563 81.1528 86.9167C81.2924 86.777 81.3709 86.5876 81.3709 86.3901V75.6211H82.6758C82.7997 75.623 82.922 75.5924 83.0304 75.5324V86.3901C83.0304 86.587 83.1084 86.7759 83.2472 86.9154C83.3861 87.055 83.5746 87.1338 83.7715 87.1348H85.8991C85.9967 87.1348 86.0933 87.1155 86.1835 87.078C86.2736 87.0406 86.3555 86.9856 86.4244 86.9165C86.4932 86.8473 86.5478 86.7651 86.5848 86.6748C86.6218 86.5845 86.6406 86.4877 86.6402 86.3901V84.9008C86.8348 85.3912 87.1295 85.8356 87.5054 86.2057C87.8527 86.5631 88.2692 86.8459 88.7295 87.0367C89.1899 87.2275 89.6843 87.3225 90.1826 87.3156H90.7109C91.2092 87.3225 91.7036 87.2275 92.164 87.0367C92.6243 86.8459 93.0409 86.5631 93.3881 86.2057C93.7786 85.822 94.08 85.3572 94.2711 84.8441C94.464 85.3571 94.7665 85.8218 95.1576 86.2057C95.5048 86.5631 95.9214 86.8459 96.3817 87.0367C96.8421 87.2275 97.3365 87.3225 97.8348 87.3156H98.3631C98.8587 87.3206 99.3501 87.2251 99.8078 87.035C100.266 86.8448 100.68 86.5639 101.026 86.2093C101.417 85.8326 101.721 85.3752 101.916 84.8689C102.167 85.6326 102.652 86.2978 103.303 86.7701C103.953 87.2424 104.736 87.4978 105.54 87.5H106.033C107.038 87.5009 108.002 87.1031 108.714 86.3937C109.426 85.6844 109.828 84.7215 109.831 83.7165V82.0534C109.835 81.5399 109.725 81.0319 109.509 80.5659C109.293 80.0999 108.977 79.6876 108.583 79.3585C107.83 78.6712 106.847 78.2915 105.827 78.2947C105.629 78.2947 105.473 78.2663 105.37 77.9188C105.263 77.4625 105.22 76.9935 105.242 76.5253C105.219 76.2307 105.259 75.9345 105.359 75.6565C105.384 75.6069 105.441 75.5218 105.739 75.5218ZM72.6549 76.4756V82.986C72.6549 83.9434 72.3571 83.9434 72.1585 83.9434C71.9032 83.9434 71.584 83.9434 71.584 82.986V76.4756C71.584 75.5218 71.9386 75.5218 72.2932 75.5218C72.5202 75.5218 72.545 75.5785 72.5663 75.6281C72.6513 75.9021 72.6814 76.1901 72.6549 76.4756ZM64.634 76.6529V77.9188C64.6583 78.2022 64.6171 78.4873 64.5134 78.7521V78.7805C64.5134 78.8089 64.4602 78.8869 64.1588 78.8869H63.6305V75.6636H63.8858C64.1038 75.6429 64.3236 75.6783 64.5241 75.7664V75.7842C64.6194 76.0633 64.6568 76.3589 64.634 76.6529ZM67.3466 80.6421C67.4819 80.4705 67.6006 80.2865 67.7012 80.0925C67.8622 79.7996 67.9815 79.4858 68.0558 79.1599V81.6634C67.9587 81.4574 67.8398 81.2625 67.7012 81.0818C67.5951 80.9259 67.4765 80.7789 67.3466 80.6421ZM60.0278 77.9117C59.9717 77.9006 59.9147 77.8947 59.8576 77.894H56.5598V75.8267H59.8576C59.915 75.8265 59.9721 75.8194 60.0278 75.8054V77.9117ZM59.8576 83.759H56.5598V81.2769H59.8576C59.915 81.2767 59.9721 81.2695 60.0278 81.2556V83.7909C59.9726 83.7734 59.9154 83.7627 59.8576 83.759ZM98.5865 76.4756V82.986C98.5865 83.9434 98.2886 83.9434 98.0901 83.9434C97.8347 83.9434 97.5156 83.9434 97.5156 82.986V76.4756C97.5156 75.5218 97.8702 75.5218 98.2248 75.5218C98.4517 75.5218 98.4766 75.5785 98.4978 75.6281C98.5828 75.9021 98.613 76.1901 98.5865 76.4756ZM93.7215 80.4861H91.6896C91.4931 80.4861 91.3046 80.5642 91.1656 80.7032C91.0266 80.8422 90.9485 81.0307 90.9485 81.2272V83.0002C90.9485 83.9647 90.6471 83.9647 90.4521 83.9647C90.1932 83.9647 89.8741 83.9647 89.8741 83.0073V76.4756C89.8741 75.5218 90.1613 75.5218 90.3493 75.5218C90.5372 75.5218 90.9485 75.5218 90.9485 76.8763V78.0855C90.9481 78.1831 90.9669 78.2799 91.0039 78.3702C91.0409 78.4605 91.0955 78.5426 91.1643 78.6118C91.2332 78.681 91.315 78.7359 91.4052 78.7734C91.4953 78.8109 91.592 78.8301 91.6896 78.8301H93.7215C93.8215 78.8308 93.9206 78.8103 94.0122 78.7699V80.5428C93.9204 80.5037 93.8213 80.4843 93.7215 80.4861ZM102.118 79.5287C102.333 79.9219 102.618 80.2727 102.959 80.5641C103.72 81.256 104.714 81.6358 105.742 81.6279C105.81 81.6204 105.878 81.6345 105.938 81.6683C105.997 81.702 106.044 81.7537 106.072 81.8158C106.254 82.224 106.331 82.6716 106.295 83.1172C106.321 83.4283 106.286 83.7414 106.193 84.0391C106.161 84.0994 106.111 84.1987 105.799 84.1987C105.743 84.2055 105.686 84.2002 105.632 84.1831C105.578 84.1659 105.529 84.1374 105.487 84.0994C105.405 84.0143 105.214 83.7271 105.225 82.8548C105.224 82.6572 105.147 82.4675 105.008 82.3265C104.939 82.2565 104.857 82.201 104.766 82.1632C104.676 82.1255 104.578 82.1062 104.48 82.1066H102.448C102.334 82.1068 102.221 82.1335 102.118 82.1846V79.5287Z" fill="#070036"/>
<path d="M10.7254 86.3902H8.59784V79.6706L6.76812 86.3902H4.65828L2.99168 79.5287V86.3902H0.881836V73.2134H3.13352L5.832 82.5641L8.39572 73.2134H10.7077L10.7254 86.3902Z" fill="white"/>
<path d="M18.7038 86.3902H16.6046L16.1117 83.3868H14.5479L14.0373 86.3902H11.9346L14.2678 73.1957L16.4415 73.2134L18.7038 86.3902ZM15.7819 81.2734L15.3564 78.082L14.9274 81.2734H15.7819Z" fill="white"/>
<path d="M26.3382 76.8693H24.3099C24.3324 76.3893 24.2699 75.9092 24.1255 75.4509C24.0318 75.2317 23.8713 75.0476 23.667 74.9248C23.4627 74.8019 23.2249 74.7466 22.9873 74.7665C22.782 74.7446 22.5749 74.783 22.391 74.8768C22.2072 74.9706 22.0546 75.1158 21.9519 75.2949C21.7932 75.6797 21.7241 76.0956 21.7497 76.5111C21.7268 77.0563 21.7817 77.602 21.9129 78.1316C21.9703 78.3938 22.1185 78.6272 22.3313 78.7907C22.5441 78.9542 22.8078 79.0373 23.0759 79.0252C23.914 79.0222 24.7222 79.3364 25.3383 79.9046C25.6517 80.1634 25.904 80.4884 26.0769 80.8562C26.2498 81.2241 26.339 81.6257 26.3382 82.0322V83.6952C26.3442 84.0958 26.2676 84.4933 26.1133 84.863C25.9589 85.2327 25.7301 85.5667 25.4411 85.8441C25.1611 86.1312 24.8255 86.3582 24.4548 86.5112C24.0841 86.6642 23.6861 86.7401 23.2852 86.7341H22.7533C22.3528 86.7346 21.9561 86.6562 21.586 86.5033C21.2158 86.3505 20.8794 86.1263 20.5959 85.8434C20.3124 85.5606 20.0874 85.2247 19.9337 84.8549C19.78 84.4851 19.7007 84.0886 19.7002 83.6881V82.8158H21.7285C21.7285 84.2082 22.1693 84.9056 23.0511 84.908C23.265 84.9321 23.4812 84.8908 23.6711 84.7895C23.8611 84.6882 24.0158 84.5317 24.1149 84.3406C24.2646 83.94 24.3275 83.5121 24.2993 83.0853C24.2993 81.596 23.8667 80.8549 23.005 80.8549C22.1561 80.8615 21.3362 80.546 20.7108 79.972C20.3973 79.7132 20.1451 79.3882 19.9722 79.0204C19.7993 78.6525 19.71 78.2509 19.7108 77.8444V75.9792C19.705 75.579 19.7813 75.1818 19.935 74.8122C20.0887 74.4427 20.3165 74.1085 20.6044 73.8304C20.8853 73.5435 21.2216 73.3167 21.5928 73.1637C21.964 73.0107 22.3624 72.9347 22.7639 72.9404H23.2958C24.104 72.9413 24.8789 73.2623 25.4511 73.8331C26.0233 74.4039 26.346 75.1781 26.3489 75.9863L26.3382 76.8693Z" fill="white"/>
<path d="M33.9721 86.3902H31.8693L31.3765 83.3868H29.8233L29.3127 86.3902H27.21L29.5467 73.1957L31.7169 73.2134L33.9721 86.3902ZM31.0467 81.2734L30.6212 78.082L30.1956 81.2734H31.0467Z" fill="white"/>
<path d="M41.7066 83.5321C41.7047 84.339 41.3831 85.1123 40.8122 85.6826C40.2413 86.2528 39.4676 86.5736 38.6606 86.5745H38.1358C37.3283 86.5736 36.554 86.2523 35.983 85.6813C35.412 85.1103 35.0908 84.3361 35.0898 83.5285V81.213H37.1181V82.986C37.1181 84.1254 37.5318 84.6939 38.3592 84.6916C39.2386 84.6916 39.6783 84.1242 39.6783 82.9895V73.3162H41.7066V83.5321Z" fill="white"/>
<path d="M48.997 84.5037V86.3902H42.8447V73.2134L48.997 73.1957V75.0821H44.9546V78.6281H48.997V80.5181H44.9546V84.4966L48.997 84.5037Z" fill="white"/>
<path d="M59.8583 84.5037V86.3902H53.7061V73.2134L59.8583 73.1957V75.0821H55.8159V78.6281H59.8583V80.5181H55.8159V84.4966L59.8583 84.5037Z" fill="white"/>
<path d="M67.553 86.3902H65.5212V83.1633C65.5212 82.4541 65.2942 81.9577 64.8368 81.7024C64.3272 81.4897 63.7731 81.4057 63.2234 81.4577H62.8688V86.3902H60.7412V73.1531L64.3368 73.1318C65.145 73.1346 65.9192 73.4574 66.49 74.0296C67.0609 74.6017 67.3818 75.3767 67.3828 76.1849V78.4614C67.3776 78.9116 67.2554 79.3528 67.0282 79.7415C66.8488 80.1543 66.5247 80.4873 66.1169 80.6776C66.5142 80.8699 66.8559 81.1604 67.1097 81.5216C67.3771 81.8541 67.5279 82.2652 67.5388 82.6917L67.553 86.3902ZM65.3793 77.9189V76.653C65.3793 75.9863 65.2907 75.5466 65.1169 75.3268C64.9148 75.0431 64.4715 74.9084 63.7872 74.919H62.883V79.6103L64.1489 79.6316C64.3488 79.6547 64.5511 79.6186 64.7308 79.5279C64.9104 79.4371 65.0595 79.2956 65.1595 79.1209C65.3294 78.7441 65.4048 78.3315 65.3793 77.9189Z" fill="white"/>
<path d="M75.4278 83.5321C75.4339 83.9333 75.3567 84.3315 75.2011 84.7014C75.0454 85.0712 74.8147 85.4048 74.5235 85.6809C74.2474 85.9655 73.9166 86.1914 73.551 86.3449C73.1854 86.4985 72.7925 86.5766 72.396 86.5745H71.8676C71.061 86.5736 70.2877 86.2527 69.7173 85.6824C69.147 85.112 68.8261 84.3387 68.8252 83.5321V75.9934C68.8261 75.1868 69.147 74.4135 69.7173 73.8431C70.2877 73.2728 71.061 72.9519 71.8676 72.951H72.396C72.7925 72.9489 73.1854 73.027 73.551 73.1805C73.9166 73.3341 74.2474 73.56 74.5235 73.8445C74.8147 74.1207 75.0454 74.4543 75.2011 74.8241C75.3567 75.194 75.4339 75.5921 75.4278 75.9934V83.5321ZM73.4101 82.986V76.4756C73.4324 76.0845 73.377 75.6928 73.247 75.3232C73.1646 75.1443 73.0284 74.9955 72.8574 74.8976C72.6864 74.7997 72.4892 74.7576 72.2931 74.7771C71.331 74.7771 70.8499 75.3433 70.8499 76.4756V82.986C70.8499 84.1207 71.2896 84.6845 72.169 84.6845C72.9846 84.6845 73.4101 84.1207 73.4101 82.986Z" fill="white"/>
<path d="M82.6549 74.88H80.6053V86.3902H78.4955V74.88H76.4637L76.4424 73.1957H82.6301L82.6549 74.88Z" fill="white"/>
<path d="M85.8639 86.3902H83.7363V73.1957L85.8639 73.2134V86.3902Z" fill="white"/>
<path d="M93.7219 83.5285C93.7209 84.3361 93.3997 85.1103 92.8287 85.6813C92.2577 86.2523 91.4834 86.5736 90.6759 86.5745H90.1475C89.3406 86.5736 88.5669 86.2528 87.996 85.6826C87.4251 85.1123 87.1034 84.339 87.1016 83.5321V75.9934C87.1034 75.1864 87.4251 74.4131 87.996 73.8429C88.5669 73.2726 89.3406 72.9519 90.1475 72.9509H90.6759C91.4834 72.9519 92.2577 73.2731 92.8287 73.8441C93.3997 74.4151 93.7209 75.1893 93.7219 75.9969V78.0855H91.69V76.8763C91.69 75.4792 91.2433 74.7771 90.3497 74.7771C89.5388 74.7771 89.1334 75.3433 89.1334 76.4756V82.986C89.1334 84.1207 89.5731 84.6845 90.4525 84.6845C91.3319 84.6845 91.69 84.1171 91.69 82.9789V81.2059H93.7219V83.5285Z" fill="white"/>
<path d="M101.374 83.5321C101.38 83.9333 101.303 84.3315 101.147 84.7014C100.992 85.0712 100.761 85.4048 100.47 85.6809C100.194 85.9655 99.8629 86.1914 99.4973 86.3449C99.1317 86.4985 98.7388 86.5766 98.3423 86.5745H97.8139C97.0073 86.5736 96.234 86.2527 95.6636 85.6824C95.0933 85.112 94.7724 84.3387 94.7715 83.5321V75.9934C94.7724 75.1868 95.0933 74.4135 95.6636 73.8431C96.234 73.2728 97.0073 72.9519 97.8139 72.951H98.3423C98.7388 72.9489 99.1317 73.027 99.4973 73.1805C99.8629 73.3341 100.194 73.56 100.47 73.8445C100.761 74.1207 100.992 74.4543 101.147 74.8241C101.303 75.194 101.38 75.5921 101.374 75.9934V83.5321ZM99.3458 82.986V76.4756C99.3681 76.0845 99.3126 75.6928 99.1827 75.3232C99.1004 75.1449 98.9648 74.9965 98.7946 74.8987C98.6243 74.8008 98.4278 74.7584 98.2323 74.7771C97.2702 74.7771 96.7891 75.3433 96.7891 76.4756V82.986C96.7891 84.1207 97.2288 84.6845 98.1082 84.6845C98.9876 84.6845 99.3458 84.1207 99.3458 82.986Z" fill="white"/>
<path d="M109.09 76.8692H107.058C107.081 76.3895 107.02 75.9094 106.877 75.4508C106.782 75.2323 106.622 75.0489 106.418 74.9261C106.214 74.8034 105.976 74.7476 105.739 74.7665C105.534 74.7446 105.326 74.7829 105.143 74.8767C104.959 74.9705 104.806 75.1158 104.703 75.2948C104.545 75.6797 104.476 76.0956 104.501 76.5111C104.478 77.0563 104.533 77.6019 104.664 78.1316C104.722 78.3937 104.87 78.6272 105.083 78.7907C105.296 78.9542 105.559 79.0372 105.828 79.0252C106.665 79.0229 107.473 79.3369 108.09 79.9046C108.403 80.1633 108.656 80.4883 108.828 80.8562C109.001 81.2241 109.091 81.6257 109.09 82.0321V83.6952C109.087 84.5034 108.763 85.2774 108.19 85.8472C107.617 86.417 106.841 86.736 106.033 86.7341H105.505C104.696 86.7341 103.92 86.4135 103.347 85.8426C102.774 85.2717 102.451 84.4969 102.448 83.6881V82.8158H104.48C104.466 84.2082 104.906 84.9056 105.799 84.9079C106.013 84.9321 106.229 84.8908 106.419 84.7895C106.609 84.6882 106.764 84.5317 106.863 84.3406C107.009 83.9392 107.071 83.5117 107.044 83.0853C107.044 81.596 106.615 80.8549 105.75 80.8549C104.901 80.8601 104.082 80.5447 103.455 79.9719C103.142 79.7132 102.89 79.3882 102.717 79.0203C102.544 78.6524 102.455 78.2508 102.455 77.8444V75.9792C102.458 75.171 102.782 74.397 103.355 73.8272C103.928 73.2574 104.704 72.9384 105.512 72.9403H106.033C106.842 72.9403 107.618 73.2609 108.191 73.8318C108.764 74.4027 109.087 75.1775 109.09 75.9863V76.8692Z" fill="white"/>
</svg>
