<svg width="167" height="168" viewBox="0 0 167 168" fill="none" xmlns="http://www.w3.org/2000/svg">
<g clip-path="url(#clip0_934_2663)">
<path d="M58.3295 0L60.0976 3.23077L63.3323 4.99677L60.0976 6.76277L58.3295 9.99354L56.5613 6.76277L53.3267 4.99677L56.5613 3.23077L58.3295 0Z" fill="#F5F5F5" fill-opacity="0.1"/>
<path d="M132.09 87.5056L133.417 89.9268L135.841 91.2523L133.417 92.5777L132.09 94.9989L130.763 92.5777L128.339 91.2523L130.763 89.9268L132.09 87.5056Z" fill="#EBEBEB" fill-opacity="0.1"/>
<path d="M135.841 75.5427L136.44 76.6347L137.534 77.2334L136.44 77.8321L135.841 78.9241L135.242 77.8321L134.148 77.2334L135.242 76.6347L135.841 75.5427Z" fill="#E0E0E0" fill-opacity="0.1"/>
<path d="M45.6961 1.21631L46.2956 2.30829L47.3889 2.907L46.2956 3.50195L45.6961 4.5977L45.0967 3.50195L44.0034 2.907L45.0967 2.30829L45.6961 1.21631Z" fill="#E0E0E0" fill-opacity="0.1"/>
<path d="M15.6946 102.748C17.0442 102.161 17.9905 100.752 17.9792 99.107C17.9603 96.9494 16.3015 95.2135 14.277 95.2323C12.2526 95.2474 10.6277 97.0134 10.6465 99.1672C10.6616 100.828 11.6531 102.232 13.0292 102.782C7.39679 103.705 7.73232 109.827 7.73232 109.827L21.0744 109.718C21.0744 109.718 21.3006 103.52 15.6946 102.748Z" fill="#E0E0E0" fill-opacity="0.1"/>
<path d="M143.686 143.107C143.498 142.146 142.551 141.397 141.571 141.435C140.602 141.469 139.72 142.271 139.588 143.231C139.449 142.274 138.559 141.48 137.59 141.454C136.614 141.427 135.671 142.184 135.49 143.144C135.358 143.845 135.6 144.571 135.992 145.166C136.387 145.757 136.923 146.239 137.454 146.714C138.201 147.377 138.891 148.002 139.633 148.664C140.372 147.994 141.002 147.365 141.741 146.695C142.269 146.217 142.804 145.731 143.192 145.136C143.592 144.537 143.826 143.807 143.686 143.107Z" fill="#EBEBEB" fill-opacity="0.1"/>
<path d="M152.376 63.7343L153.805 63.4519L156.063 58.489L155.498 55.6385C155.498 55.6385 157.681 55.0662 158.163 58.8505C158.646 62.6348 158.736 61.6294 158.736 61.6294C158.736 61.6294 163.434 60.7181 163.905 61.0495C164.248 61.2905 165.3 65.9183 165.85 68.4336C166.125 69.6988 165.583 71.0355 164.459 71.5702C164.301 71.6455 164.135 71.7058 163.969 71.7397C162.8 71.9731 156.629 72.2066 156.629 72.2066L154.159 72.6961L152.376 63.7343Z" fill="#E0E0E0" fill-opacity="0.1"/>
<path d="M148.127 63.7644L150.947 73.3588L153.398 72.8731L151.498 63.3013L148.127 63.7644Z" fill="#E0E0E0" fill-opacity="0.1"/>
<path d="M167 167.729C167 167.781 129.613 167.827 83.5057 167.827C37.3796 167.827 0 167.781 0 167.729C0 167.676 37.3796 167.631 83.5019 167.631C129.613 167.631 167 167.672 167 167.729Z" fill="#263238"/>
<path d="M113.391 168L61.4059 167.97C55.1553 167.966 50.0884 162.902 50.0884 156.658L50.1148 26.4901C50.1148 20.2432 55.1892 15.1786 61.4436 15.1824L113.428 15.2125C119.679 15.2163 124.746 20.2808 124.746 26.524L124.719 156.692C124.719 162.939 119.645 168.004 113.391 168Z" fill="#01003D"/>
<path d="M113.372 19.8177L103.294 19.8102C101.945 19.8102 100.848 20.9549 100.848 22.3632V24.1894C100.848 25.6015 99.7507 26.7424 98.401 26.7424L78.7518 26.7349C77.4021 26.7349 76.305 25.5902 76.305 24.1781V22.3519C76.305 20.9398 75.2079 19.7951 73.8583 19.7951L70.3145 19.7914L61.4927 19.7876C57.1119 19.7838 53.5568 23.3309 53.5568 27.7064L53.5342 154.757C53.5342 159.132 57.0818 162.676 61.4587 162.679L113.338 162.71C117.719 162.713 121.27 159.166 121.274 154.791L121.3 27.7365C121.3 23.3648 117.752 19.8215 113.372 19.8177Z" fill="white" fill-opacity="0.1"/>
<path d="M114.133 30.1388C114.133 30.1727 112.821 30.2103 111.208 30.2254C109.59 30.2404 108.278 30.2216 108.278 30.1877C108.278 30.1538 109.587 30.1162 111.204 30.1011C112.821 30.0898 114.133 30.1049 114.133 30.1388Z" fill="#263238"/>
<path d="M114.144 31.6336C114.144 31.6675 112.832 31.7052 111.219 31.7203C109.602 31.7353 108.29 31.7165 108.29 31.6826C108.29 31.6487 109.598 31.6111 111.215 31.596C112.832 31.5847 114.144 31.5998 114.144 31.6336Z" fill="#263238"/>
<path d="M114.156 33.1323C114.156 33.1661 112.844 33.2038 111.23 33.2189C109.613 33.2339 108.301 33.2151 108.301 33.1812C108.301 33.1473 109.613 33.1097 111.227 33.0946C112.844 33.0795 114.156 33.0984 114.156 33.1323Z" fill="#263238"/>
<path d="M59.0082 34.5896C59.012 34.5858 59.0648 34.5821 59.1628 34.5783C59.2834 34.5745 59.4229 34.5708 59.5888 34.5632C59.9922 34.5519 60.5162 34.5406 61.1647 34.5256L61.1194 34.5708C61.1157 34.2206 61.1081 33.8403 61.1006 33.4298C61.1044 33.219 61.0817 33.0194 61.1044 32.7746C61.1458 32.5299 61.3645 32.3153 61.6322 32.2889C61.8847 32.2851 62.1109 32.2738 62.3862 32.2851C62.6689 32.319 62.9102 32.5939 62.9027 32.8914C62.9102 33.4223 62.914 33.9796 62.9215 34.5557L62.8499 34.4842C63.487 34.4766 64.1543 34.4691 64.8367 34.4653L64.7613 34.5406C64.7537 33.7424 64.7462 32.914 64.7386 32.0667C64.7386 31.8559 64.7349 31.645 64.7349 31.4379C64.7349 31.2421 64.6142 31.1141 64.4559 30.9672C64.1618 30.6773 63.8715 30.3911 63.5888 30.1125C63.306 29.8338 63.0233 29.5552 62.7518 29.2878C62.6161 29.1523 62.4804 29.0205 62.3447 28.8887C62.2052 28.7531 62.0959 28.6138 61.9338 28.5837C61.7754 28.5423 61.6058 28.5762 61.4776 28.6703C61.357 28.772 61.2288 28.915 61.1081 29.0318C60.8631 29.2765 60.6256 29.5175 60.3956 29.751C59.947 30.2179 59.4795 30.6434 59.1402 31.0425C58.9969 31.2647 59.0497 31.5358 59.0384 31.7843C59.0384 32.0291 59.0384 32.2625 59.0384 32.4847C59.0346 32.914 59.0346 33.2905 59.0309 33.6106C59.0271 33.8968 59.0233 34.1377 59.0233 34.3298C59.012 34.4992 59.012 34.5858 59.0082 34.5896C59.0045 34.5934 59.0007 34.5105 58.9932 34.3524C58.9894 34.1603 58.9818 33.9269 58.9743 33.6445C58.9668 33.3206 58.9592 32.9403 58.9479 32.5073C58.9441 32.2814 58.9404 32.0441 58.9328 31.7956C58.9291 31.6676 58.9291 31.5396 58.9253 31.404C58.9253 31.2647 58.9592 31.1178 59.0346 30.9898C59.4041 30.5417 59.8414 30.1426 60.2938 29.6606C60.5238 29.4271 60.7575 29.1862 61.0026 28.9376C61.1307 28.8134 61.2363 28.6891 61.3871 28.5573C61.5454 28.4368 61.7641 28.3916 61.9639 28.4444C62.175 28.4895 62.3145 28.6628 62.4427 28.787C62.5784 28.9188 62.7142 29.0506 62.8499 29.1862C63.1251 29.4535 63.4041 29.7284 63.6906 30.0108C63.9771 30.2894 64.2674 30.5756 64.5615 30.8656C64.6331 30.9409 64.716 31.0011 64.7839 31.1065C64.848 31.2044 64.8857 31.3212 64.8894 31.4417C64.8932 31.6525 64.8932 31.8634 64.897 32.0743C64.9045 32.9215 64.9083 33.7499 64.9158 34.5482V34.6235H64.8404C64.1543 34.6273 63.4908 34.631 62.8536 34.6348H62.782V34.5632C62.7782 33.9871 62.7745 33.4298 62.7745 32.8989C62.782 32.6579 62.5973 32.447 62.3711 32.4169C62.1411 32.4056 61.8734 32.4132 61.651 32.4132C61.4361 32.432 61.2589 32.6014 61.2212 32.7972C61.2024 32.9968 61.2175 33.2303 61.2137 33.4298C61.2137 33.8403 61.2137 34.2206 61.2137 34.5708V34.616H61.1684C60.5125 34.6122 59.9771 34.6084 59.5662 34.6047C59.4041 34.6009 59.2684 34.6009 59.1477 34.5971C59.0497 34.5971 59.0045 34.5934 59.0082 34.5896Z" fill="#263238"/>
<path d="M93.3004 133.87C93.3004 133.885 93.1082 133.896 92.7576 133.908C92.3693 133.915 91.8716 133.926 91.2722 133.938C90.0168 133.956 88.2863 133.968 86.3712 133.968C84.456 133.968 82.7256 133.956 81.4702 133.938C80.8707 133.926 80.3731 133.915 79.9848 133.908C79.6342 133.896 79.4419 133.881 79.4419 133.87C79.4419 133.855 79.6342 133.844 79.9848 133.832C80.3731 133.825 80.8707 133.813 81.4702 133.802C82.7256 133.783 84.456 133.772 86.3712 133.772C88.2863 133.772 90.0168 133.783 91.2722 133.802C91.8716 133.813 92.3693 133.825 92.7576 133.832C93.1044 133.844 93.3004 133.855 93.3004 133.87Z" fill="#455A64"/>
<path d="M115.087 137.278C115.087 137.33 107.106 137.376 97.2626 137.376C87.4153 137.376 79.438 137.33 79.438 137.278C79.438 137.225 87.4191 137.18 97.2626 137.18C107.106 137.18 115.087 137.221 115.087 137.278Z" fill="#455A64"/>
<path d="M103.947 140.482C103.947 140.535 98.4614 140.58 91.6943 140.58C84.9233 140.58 79.438 140.535 79.438 140.482C79.438 140.429 84.9233 140.384 91.6943 140.384C98.4577 140.384 103.947 140.425 103.947 140.482Z" fill="#455A64"/>
<path d="M115.792 146.718L114.684 145.607L113.628 146.657L113.632 143.483L115.796 143.487L115.792 146.718ZM114.684 145.471L114.718 145.505L115.694 146.484L115.698 143.585L113.73 143.581L113.726 146.424L114.684 145.471Z" fill="#263238"/>
<path d="M86.2994 146.303L85.9073 146.13C85.7188 146.232 85.553 146.285 85.4022 146.285C84.8027 146.288 84.3126 145.806 84.3089 145.208C84.3051 144.609 84.7877 144.12 85.3871 144.116C85.9865 144.112 86.4766 144.594 86.4804 145.193C86.4842 145.46 86.3861 145.716 86.2089 145.916L86.2994 146.303ZM85.3833 144.191C84.8253 144.195 84.3767 144.65 84.3805 145.208C84.3843 145.765 84.8404 146.213 85.3984 146.209C85.5417 146.209 85.7 146.157 85.8847 146.055L85.8998 146.047L86.1863 146.175L86.1222 145.893L86.1335 145.878C86.307 145.69 86.4012 145.445 86.3974 145.193C86.3974 144.635 85.9413 144.187 85.3833 144.191Z" fill="#263238"/>
<path d="M88.8101 146.138L88.3615 145.046L87.5208 144.281L89.5566 144.266L88.8101 146.138ZM87.713 144.353L88.4293 145.008L88.8101 145.938L89.451 144.338L87.713 144.353Z" fill="#263238"/>
<path d="M89.5196 144.274L88.4072 144.997L88.4483 145.06L89.5607 144.338L89.5196 144.274Z" fill="#263238"/>
<path d="M83.0912 144.507C83.0346 144.217 82.7444 143.992 82.4465 144.003C82.1525 144.014 81.8848 144.259 81.8471 144.549C81.8019 144.259 81.5342 144.018 81.2401 144.01C80.9423 144.003 80.6595 144.236 80.6068 144.526C80.5691 144.737 80.6407 144.959 80.7613 145.14C80.882 145.321 81.0441 145.464 81.2062 145.607C81.4324 145.806 81.6435 145.995 81.8697 146.194C82.0921 145.991 82.2844 145.799 82.5068 145.596C82.6652 145.449 82.8273 145.302 82.9442 145.121C83.0648 144.94 83.1327 144.722 83.0912 144.507Z" fill="#FF0079"/>
<path d="M118.062 149.527C118.062 149.527 118.058 149.406 118.054 149.173C118.054 148.936 118.05 148.593 118.047 148.141C118.043 147.234 118.039 145.897 118.031 144.165C118.024 140.704 118.013 135.67 117.998 129.355L118.062 129.419C103.555 129.427 81.9035 129.438 57.7717 129.453H57.7679L57.866 129.355C57.866 136.366 57.8622 143.167 57.8622 149.527L57.7679 149.433C75.1251 149.451 90.1825 149.466 100.908 149.478C106.277 149.489 110.556 149.497 113.504 149.504C114.974 149.508 116.109 149.515 116.882 149.515C117.266 149.519 117.556 149.519 117.756 149.523C117.956 149.523 118.062 149.527 118.062 149.527C118.062 149.527 117.967 149.53 117.771 149.534C117.572 149.534 117.285 149.538 116.908 149.542C116.139 149.546 115.012 149.549 113.549 149.553C110.608 149.561 106.333 149.568 100.976 149.579C90.2352 149.591 75.1514 149.606 57.7679 149.625H57.6737V149.53C57.6737 143.171 57.6699 136.37 57.6699 129.359V129.261H57.7679H57.7717C81.9035 129.276 103.555 129.287 118.062 129.295H118.126V129.359C118.111 135.692 118.099 140.738 118.092 144.21C118.084 145.934 118.081 147.267 118.077 148.171C118.073 148.615 118.073 148.958 118.069 149.192C118.065 149.414 118.062 149.527 118.062 149.527Z" fill="#263238"/>
<path d="M60.2795 132.725L60.2036 146.062L76.9047 146.157L76.9806 132.82L60.2795 132.725Z" fill="#EBEBEB" fill-opacity="0.1"/>
<path d="M76.9761 132.819C76.9761 132.819 76.946 132.823 76.8932 132.823C76.8329 132.823 76.7537 132.827 76.6557 132.827C76.437 132.827 76.1354 132.831 75.7433 132.831C74.9403 132.831 73.7829 132.834 72.3202 132.834C69.3833 132.827 65.2212 132.819 60.275 132.812L60.3617 132.725C60.3428 136.694 60.3202 141.246 60.2976 146.059C60.3165 146.081 60.1129 145.874 60.2034 145.961H60.2071H60.2147H60.2335H60.2712H60.3428H60.4861H60.7764L61.3532 145.964C61.7377 145.968 62.1185 145.968 62.4955 145.972C63.2533 145.976 64.0035 145.98 64.7462 145.987C66.2278 145.998 67.6755 146.006 69.078 146.013C71.8828 146.032 74.5143 146.051 76.9007 146.07L76.8178 146.153C76.8592 142.15 76.8932 138.825 76.9158 136.494C76.9309 135.335 76.9422 134.42 76.9535 133.787C76.961 133.482 76.9648 133.241 76.9686 133.072C76.9686 132.91 76.9761 132.819 76.9761 132.819C76.9761 132.819 76.9799 132.895 76.9837 133.053C76.9837 133.222 76.9874 133.456 76.9874 133.753C76.9874 134.382 76.9912 135.289 76.995 136.442C76.9912 138.788 76.9874 142.127 76.9837 146.153V146.236H76.9007C74.5143 146.224 71.8828 146.217 69.078 146.202C67.6755 146.194 66.2278 146.187 64.7462 146.179C64.0035 146.175 63.2533 146.172 62.4955 146.168C62.1147 146.164 61.734 146.164 61.3532 146.16L60.7764 146.157H60.4861H60.3428H60.2712H60.2335H60.2147H60.2071H60.2034C60.2901 146.243 60.0789 146.036 60.1016 146.055C60.1317 141.239 60.1619 136.69 60.1883 132.721V132.635H60.275C65.2439 132.68 69.4248 132.721 72.3767 132.748C73.8319 132.767 74.9818 132.782 75.781 132.789C76.1656 132.797 76.4634 132.8 76.6745 132.804C76.7688 132.808 76.8442 132.808 76.9007 132.812C76.9535 132.819 76.9799 132.819 76.9761 132.819Z" fill="#263238"/>
<path d="M60.8481 133.568L60.7817 145.226L76.3104 145.314L76.3767 133.657L60.8481 133.568Z" fill="#E0E0E0" fill-opacity="0.1"/>
<path d="M60.7803 145.227L66.2468 138.012L69.5795 142.564L71.8716 140.155L76.3089 145.313L60.7803 145.227Z" fill="#F5F5F5" fill-opacity="0.1"/>
<path d="M71.0345 137.149C71.0308 137.823 70.4803 138.366 69.8055 138.362C69.1307 138.358 68.5878 137.808 68.5916 137.134C68.5953 136.46 69.1458 135.918 69.8206 135.922C70.4954 135.926 71.0383 136.475 71.0345 137.149Z" fill="#F5F5F5" fill-opacity="0.1"/>
<path d="M88.4367 46.3115C88.4367 46.3191 88.3764 46.3266 88.2595 46.3303C88.12 46.3341 87.9504 46.3416 87.7468 46.3492C87.2718 46.3567 86.6346 46.368 85.8655 46.3793C84.2784 46.3981 82.0842 46.4094 79.6601 46.4094C77.236 46.4094 75.0419 46.3981 73.4547 46.3793C72.6856 46.368 72.0485 46.3567 71.5735 46.3492C71.3699 46.3416 71.2002 46.3341 71.0607 46.3303C70.9439 46.3228 70.8835 46.3191 70.8835 46.3115C70.8835 46.304 70.9439 46.2965 71.0607 46.2927C71.2002 46.2889 71.3699 46.2814 71.5735 46.2739C72.0485 46.2663 72.6856 46.255 73.4547 46.2437C75.0419 46.2249 77.236 46.2136 79.6601 46.2136C82.0842 46.2136 84.2784 46.2249 85.8655 46.2437C86.6346 46.255 87.2718 46.2663 87.7468 46.2739C87.9504 46.2814 88.12 46.2889 88.2595 46.2927C88.3764 46.2965 88.4367 46.304 88.4367 46.3115Z" fill="#263238"/>
<path d="M113.112 120.032L111.464 118.382L109.896 119.945L109.903 115.223L113.115 115.227L113.112 120.032ZM111.464 118.175L111.517 118.228L112.965 119.681L112.972 115.374L110.05 115.37L110.043 119.595L111.464 118.175Z" fill="#263238"/>
<path d="M71.3173 119.535L70.5482 119.192C70.175 119.392 69.8508 119.493 69.5529 119.493C68.3729 119.501 67.4078 118.552 67.4002 117.377C67.3889 116.198 68.3427 115.234 69.519 115.227C70.6952 115.216 71.6641 116.168 71.6717 117.343C71.6754 117.866 71.4869 118.371 71.1401 118.766L71.3173 119.535ZM69.519 115.37C68.4219 115.378 67.536 116.277 67.5435 117.373C67.551 118.469 68.4521 119.354 69.5491 119.346C69.8319 119.343 70.1448 119.245 70.5067 119.045L70.5369 119.026L71.1024 119.279L70.9742 118.721L71.0006 118.695C71.3399 118.322 71.5246 117.844 71.5209 117.343C71.5171 116.247 70.6161 115.362 69.519 115.37Z" fill="#263238"/>
<path d="M76.2635 119.203L75.3813 117.053L73.7263 115.547L77.7376 115.513L76.2635 119.203ZM74.1033 115.694L75.5133 116.985L76.2635 118.815L77.5227 115.668L74.1033 115.694Z" fill="#263238"/>
<path d="M77.6545 115.519L75.4678 116.94L75.5479 117.063L77.7347 115.642L77.6545 115.519Z" fill="#263238"/>
<path d="M65.0062 115.999C64.8931 115.426 64.3238 114.982 63.7395 115.005C63.1627 115.027 62.6349 115.509 62.5595 116.082C62.4727 115.509 61.9412 115.039 61.3606 115.024C60.7762 115.008 60.2183 115.464 60.1127 116.04C60.0373 116.458 60.1806 116.891 60.4181 117.245C60.6556 117.599 60.9761 117.885 61.2965 118.164C61.7451 118.559 62.1561 118.928 62.6047 119.324C63.0458 118.921 63.419 118.544 63.8601 118.145C64.173 117.859 64.4935 117.569 64.7234 117.211C64.9534 116.854 65.0891 116.417 65.0062 115.999Z" fill="#FF0079"/>
<path d="M64.6404 49.0301C66.1437 49.0301 67.3623 47.8129 67.3623 46.3114C67.3623 44.81 66.1437 43.5928 64.6404 43.5928C63.1371 43.5928 61.9185 44.81 61.9185 46.3114C61.9185 47.8129 63.1371 49.0301 64.6404 49.0301Z" fill="#EBEBEB" fill-opacity="0.1"/>
<path d="M112.082 104.443C112.082 104.496 100.674 104.541 86.6045 104.541C72.5311 104.541 61.123 104.496 61.123 104.443C61.123 104.39 72.5273 104.345 86.6045 104.345C100.674 104.345 112.082 104.386 112.082 104.443Z" fill="#455A64"/>
<path d="M112.082 100.203C112.082 100.256 100.674 100.301 86.6045 100.301C72.5311 100.301 61.123 100.256 61.123 100.203C61.123 100.15 72.5273 100.105 86.6045 100.105C100.674 100.105 112.082 100.15 112.082 100.203Z" fill="#455A64"/>
<path d="M88.8627 108.735C88.8627 108.788 82.6535 108.833 74.9966 108.833C67.3359 108.833 61.1267 108.788 61.1267 108.735C61.1267 108.683 67.3359 108.637 74.9966 108.637C82.6535 108.637 88.8627 108.683 88.8627 108.735Z" fill="#455A64"/>
<path d="M85.4396 154.911C85.4359 155.517 84.9495 156.007 84.3539 156.003C83.7544 155.999 83.2719 155.506 83.2757 154.9C83.2794 154.294 83.7658 153.804 84.3614 153.808C84.9608 153.812 85.4434 154.305 85.4396 154.911Z" fill="#263238"/>
<path d="M88.7949 154.926C88.7911 155.533 88.3048 156.022 87.7091 156.018C87.1097 156.015 86.6271 155.521 86.6309 154.915C86.6347 154.309 87.121 153.819 87.7166 153.823C88.3161 153.827 88.7986 154.32 88.7949 154.926Z" fill="#263238"/>
<path d="M92.1503 154.945C92.1466 155.551 91.6602 156.041 91.0646 156.037C90.4651 156.033 89.9826 155.54 89.9864 154.934C89.9901 154.328 90.4765 153.838 91.0721 153.842C91.6678 153.846 92.1541 154.339 92.1503 154.945Z" fill="#263238"/>
<path d="M118.424 51.6885H58.1299V88.5147H118.424V51.6885Z" fill="#E0E0E0" fill-opacity="0.1"/>
<path d="M63.6943 88.5222L80.9723 65.4248L91.6829 79.8691L98.9439 72.1424L113.179 88.5071L63.6943 88.5222Z" fill="#F5F5F5" fill-opacity="0.1"/>
<path d="M96.222 62.5933C96.222 64.7434 94.4803 66.4868 92.3276 66.4868C90.175 66.4868 88.4294 64.7472 88.4294 62.5971C88.4294 60.447 90.1712 58.7036 92.3239 58.7036C94.4765 58.6999 96.222 60.4433 96.222 62.5933Z" fill="#F5F5F5" fill-opacity="0.1"/>
<path d="M118.261 122.743C118.261 121.956 118.224 88.6843 118.171 39.4358L118.261 39.5262C100.079 39.5299 79.5849 39.5337 57.9752 39.5337H57.9676L58.0657 39.4358C58.0581 70.5912 58.0506 99.4234 58.0468 122.743L57.9676 122.664C94.5292 122.709 117.602 122.739 118.261 122.743C117.605 122.743 94.5329 122.773 57.9676 122.822H57.8885V122.743C57.8847 99.4234 57.8772 70.5912 57.8696 39.4358V39.3379H57.9676H57.9752C79.5849 39.3417 100.079 39.3454 118.261 39.3454H118.352V39.4358C118.333 64.0845 118.318 84.9226 118.307 99.5966C118.295 106.924 118.288 112.715 118.284 116.673C118.28 118.646 118.276 120.167 118.273 121.192C118.269 121.7 118.269 122.088 118.269 122.351C118.265 122.611 118.261 122.743 118.261 122.743Z" fill="#263238"/>
<path d="M89.9295 133.075L91.2641 128.598C91.4979 127.627 91.807 126.482 92.2217 125.175C92.5949 124.001 93.5563 122.766 94.4309 121.877C95.7919 120.495 96.4404 120.484 97.3565 119.749C97.4394 119.697 97.5337 119.621 97.6128 119.576C97.8013 119.475 97.9408 119.339 98.0577 119.192C98.8456 118.341 98.0878 117.023 96.4856 117.147C95.2792 117.242 93.315 117.588 90.1143 120.883C90.0728 120.932 90.0313 120.973 89.9936 121.026C88.316 123.206 86.7401 116.986 86.4536 114.67C86.2689 113.167 84.644 112.245 83.1699 112.787L75.3811 116.424C74.7364 116.199 73.9749 116.236 73.1078 116.5C71.9617 116.922 71.3246 118.1 71.6224 119.245L74.7817 131.84L65.5037 162.676H85.5036L89.9295 133.075Z" fill="#FFBE9D"/>
<path d="M105.292 104.755L99.1097 116.854L96.0183 115.995L80.4783 128.621C79.155 129.694 77.2172 129.525 76.1051 128.233L70.1899 121.369C70.1899 121.369 82.1182 116.236 84.3237 111.989C86.5292 107.741 83.9806 106.777 83.9806 106.777L89.5942 100.406L105.292 104.755Z" fill="#FF0079"/>
<path d="M97.2736 80.0388C97.2736 80.0388 88.2256 78.0393 75.4905 65.8091C62.7554 53.5788 56.7724 37.3346 55.2117 37.4137C53.6546 37.4928 46.846 34.3373 33.9036 62.4616C20.9574 90.5858 26.0582 97.1189 28.6331 97.0662C31.208 97.0135 48.7009 92.1447 59.6226 93.3836C70.548 94.6224 84.5913 100.312 84.5913 100.312L97.2736 80.0388Z" fill="#FF0079"/>
<path d="M116.501 95.368L113.413 101.231L112.029 103.855C110.133 107.459 105.745 108.946 102.043 107.244L82.646 100.493L93.9409 74.7371L113.319 85.0507C117.04 87.0313 118.461 91.6402 116.501 95.368Z" fill="#FF0079"/>
<g opacity="0.4">
<path opacity="0.4" d="M116.501 95.368L113.413 101.231L112.029 103.855C110.133 107.459 105.745 108.946 102.043 107.244L82.646 100.493L93.9409 74.7371L113.319 85.0507C117.04 87.0313 118.461 91.6402 116.501 95.368Z" fill="black"/>
</g>
<path d="M34.9515 62.9737C28.0637 78.2088 25.1948 91.787 28.5463 93.297C31.8978 94.8107 40.1994 83.6838 47.0872 68.4487C53.975 53.2136 56.844 39.6391 53.4924 38.1254C50.1409 36.6117 41.8393 47.7386 34.9515 62.9737Z" fill="#FF0079"/>
<g opacity="0.5">
<path opacity="0.5" d="M34.9515 62.9737C28.0637 78.2088 25.1948 91.787 28.5463 93.297C31.8978 94.8107 40.1994 83.6838 47.0872 68.4487C53.975 53.2136 56.844 39.6391 53.4924 38.1254C50.1409 36.6117 41.8393 47.7386 34.9515 62.9737Z" fill="black"/>
</g>
<path d="M118.163 103.84L112.908 102.191L116.161 96.012L120.105 98.4595L118.163 103.84Z" fill="#FF0079"/>
<g opacity="0.6">
<path opacity="0.6" d="M116.161 96.012L112.908 102.191L113.986 102.53L116.632 96.3057L116.161 96.012Z" fill="black"/>
</g>
<path d="M112.538 97.4352C112.463 97.6046 109.839 96.5879 106.68 95.1608C103.517 93.7337 101.021 92.4421 101.096 92.2689C101.172 92.0995 103.796 93.1162 106.955 94.5433C110.114 95.9742 112.614 97.2657 112.538 97.4352Z" fill="#FF0079"/>
<path d="M114.156 93.7563C114.073 93.9257 111.698 92.9241 108.851 91.5234C106.005 90.1226 103.762 88.8537 103.845 88.6842C103.928 88.5186 106.299 89.5164 109.149 90.9171C111.996 92.3217 114.235 93.5906 114.156 93.7563Z" fill="#FF0079"/>
<path d="M110.499 101.295C110.472 101.385 109.847 101.242 108.851 100.933C108.354 100.779 107.765 100.587 107.11 100.361C106.461 100.128 105.79 99.785 105.066 99.4611C102.19 98.1282 99.9955 96.8215 100.067 96.6672C100.154 96.4826 102.499 97.5294 105.349 98.8474C106.065 99.1712 106.725 99.5289 107.351 99.7887C107.977 100.041 108.542 100.278 109.01 100.485C109.952 100.903 110.525 101.208 110.499 101.295Z" fill="#FF0079"/>
<path d="M48.9948 59.5848C48.9948 59.5848 41.1306 54.7123 36.8252 65.3271C32.5237 75.9419 40.7988 77.6854 40.7988 77.6854C44.1843 72.4401 46.9364 66.4304 48.9948 59.5848Z" fill="#FF0079"/>
<g opacity="0.5">
<path opacity="0.5" d="M57.3604 46.9366C57.4057 46.9441 57.2963 47.6633 57.0513 48.9624C56.8025 50.2577 56.4519 52.1405 55.9467 54.4524C55.6149 55.5896 55.2492 56.8322 54.8609 58.1652C54.6649 58.8317 54.4613 59.5245 54.2502 60.2324C54.1446 60.5864 54.0391 60.9479 53.9297 61.3131C53.8129 61.6746 53.6583 62.0323 53.5226 62.3976C52.9571 63.8586 52.3614 65.3911 51.7469 66.9764C51.5923 67.3718 51.4378 67.7747 51.2794 68.1776C51.1248 68.5842 50.91 68.9646 50.7252 69.3637C50.3407 70.1544 49.9524 70.9602 49.5565 71.7698C49.1607 72.5832 48.7686 73.3852 48.3841 74.176C48.1842 74.5676 48.0146 74.9742 47.7922 75.3432C47.5697 75.716 47.3548 76.085 47.1362 76.4541C46.2691 77.9188 45.4284 79.3346 44.6291 80.6827C44.4255 81.0178 44.2408 81.3567 44.0259 81.673C43.8035 81.9855 43.5886 82.2943 43.3737 82.5955C42.9439 83.2018 42.5255 83.7892 42.1221 84.3578C41.3115 85.4874 40.5575 86.5455 39.8676 87.5095C38.3634 89.3282 37.1042 90.7666 36.2371 91.7607C35.3662 92.7548 34.8648 93.2857 34.8309 93.2593C34.7932 93.2292 35.2267 92.638 36.0335 91.595C36.8742 90.5331 38.0505 89.0382 39.4981 87.2082C40.1617 86.233 40.8893 85.1711 41.6697 84.0302C42.0618 83.4616 42.4651 82.8704 42.8836 82.2642C43.091 81.9629 43.3059 81.6542 43.5207 81.3416C43.7281 81.0253 43.9091 80.6827 44.1051 80.3513C44.8893 79.007 45.7111 77.595 46.5594 76.134C46.7743 75.7687 46.9892 75.3997 47.204 75.0269C47.4265 74.6579 47.5886 74.255 47.7884 73.8634C48.1692 73.0764 48.5575 72.2782 48.9496 71.4723C49.3416 70.6665 49.7299 69.8683 50.1145 69.085C50.2992 68.6897 50.5141 68.3094 50.6687 67.9102C50.827 67.5111 50.9854 67.1119 51.1399 66.7203C51.7657 65.1501 52.3652 63.6326 52.942 62.1867C53.0815 61.8252 53.2398 61.4713 53.3605 61.1136C53.4736 60.7521 53.5829 60.3944 53.6922 60.0442C53.9109 59.34 54.1258 58.6585 54.3331 57.9995C54.7478 56.6816 55.1361 55.4541 55.4905 54.3282C56.0372 52.0651 56.482 50.2201 56.7987 48.9059C57.1154 47.6332 57.3152 46.9291 57.3604 46.9366Z" fill="black"/>
</g>
<g opacity="0.4">
<path opacity="0.4" d="M72.0786 120.521C72.7949 121.82 73.5301 123.142 74.5894 124.181C75.6526 125.22 77.1078 125.959 78.5894 125.808C80.0673 125.657 81.4697 124.434 81.4848 122.946C82.1935 123.481 83.2831 123.191 83.8712 122.524C84.4593 121.858 84.6516 120.935 84.7194 120.051C85.6846 120.619 87.0267 120.167 87.6676 119.252C88.3123 118.337 88.35 117.106 88.0408 116.029C87.7279 114.956 87.1059 114.003 86.4913 113.066C87.234 113.126 88.022 113.179 88.6855 112.84C89.349 112.505 89.7976 111.627 89.4093 110.991C89.1831 110.618 88.7458 110.434 88.3273 110.302C87.1624 109.936 86.3481 109.647 85.1341 109.786C84.8514 109.79 85.6205 112.979 78.0164 117.339C73.5338 119.926 72.0786 120.521 72.0786 120.521Z" fill="black"/>
</g>
<path d="M89.2019 125.13C89.1982 125.164 88.6892 125.07 87.8711 125.089C87.0568 125.108 85.9145 125.285 84.7872 125.827C83.66 126.365 82.808 127.141 82.2802 127.766C81.7486 128.391 81.5073 128.847 81.4772 128.828C81.4659 128.82 81.5149 128.704 81.6242 128.497C81.7335 128.293 81.9145 128.007 82.1709 127.676C82.676 127.017 83.5394 126.203 84.7005 125.646C85.8579 125.093 87.0342 124.931 87.8674 124.946C88.2858 124.953 88.6214 124.991 88.8513 125.032C89.0813 125.081 89.2057 125.119 89.2019 125.13Z" fill="#EB996E"/>
<path d="M72.5725 118.499C73.7978 119.674 74.6347 120.973 75.9203 122.155C76.5046 122.694 77.4094 123.711 78.1936 123.846C78.9777 123.982 79.4792 123.876 79.7883 123.146C80.0409 122.555 79.5885 121.745 79.2793 121.259C78.4613 119.975 77.6771 118.974 77.0664 117.976C76.7798 117.509 77.1493 117.411 77.285 117.629C77.8731 118.239 78.7553 118.77 79.2831 119.433C80.007 120.344 80.1389 121.549 82.0277 121.165C82.2765 121.116 82.5291 121.03 82.7289 120.875C83.4414 120.329 83.4716 119.384 83.17 118.627C82.9363 118.032 82.5216 117.528 82.1182 117.034C82.9249 117.942 83.8033 118.898 85.0814 119.004C85.8241 119.064 86.5743 118.718 86.8759 118.036C87.2529 117.178 86.71 116.345 86.1671 115.675C85.202 114.485 84.1238 113.386 82.9513 112.395C82.514 112.026 81.9598 111.819 81.3868 111.816C80.7233 111.812 79.8939 111.936 79.4867 112.512C78.744 113.555 78.974 114.481 78.974 114.481C78.974 114.481 77.3114 113.642 75.9768 114.519C74.6422 115.4 74.3105 116.91 74.3105 116.91L72.5725 118.499Z" fill="#FFBE9D"/>
<path d="M81.4132 111.45C80.9005 110.935 80.7798 109.989 81.1795 109.206C81.4622 108.653 81.8166 108.114 82.1785 107.994C83.7581 107.463 90.661 108.653 90.6007 110.185C90.5366 111.755 90.0352 112.448 86.2878 111.906C85.6281 111.812 84.5951 111.68 84.5951 111.68L83.6903 113.036L81.4132 111.45Z" fill="#FFBE9D"/>
<path d="M82.6499 117.859C82.5933 117.893 82.0693 116.824 80.9986 115.863C79.9355 114.892 78.8195 114.474 78.8459 114.417C78.8535 114.395 79.1437 114.47 79.5773 114.673C80.0109 114.877 80.5839 115.227 81.1305 115.72C81.6734 116.214 82.0806 116.748 82.3219 117.162C82.5669 117.569 82.6687 117.848 82.6499 117.859Z" fill="#EB996E"/>
<path d="M83.811 113.156C83.7771 113.19 83.3209 112.817 82.6989 112.437C82.3897 112.249 82.1032 112.087 81.8883 111.993C81.6734 111.891 81.5339 111.865 81.5339 111.834C81.5339 111.808 81.696 111.789 81.9373 111.861C82.1786 111.929 82.484 112.075 82.8044 112.271C83.4416 112.659 83.8563 113.115 83.811 113.156Z" fill="#EB996E"/>
<path d="M84.9683 111.733C84.9645 111.774 84.3613 111.793 83.6375 111.582C83.2793 111.473 82.974 111.3 82.7855 111.138C82.597 110.976 82.5178 110.84 82.5366 110.825C82.5743 110.791 83.0004 111.198 83.694 111.394C84.3839 111.597 84.9796 111.669 84.9683 111.733Z" fill="#EB996E"/>
<path d="M78.2614 119.753C78.2388 119.768 77.9938 119.459 77.6318 118.936C77.2624 118.428 76.7911 117.667 76.022 117.106C75.253 116.545 74.3482 116.413 73.7412 116.503C73.1229 116.59 72.7987 116.846 72.7798 116.808C72.7723 116.801 72.8439 116.729 72.9985 116.635C73.1531 116.537 73.3981 116.432 73.7186 116.368C74.3519 116.236 75.3208 116.357 76.1389 116.948C76.9532 117.543 77.4094 118.333 77.7525 118.861C78.0805 119.403 78.284 119.738 78.2614 119.753Z" fill="#EB996E"/>
<path d="M83.5432 135.003C83.5507 135.056 82.284 135.237 80.7232 135.41C79.1587 135.579 77.8844 135.673 77.8806 135.621C77.8731 135.568 79.1361 135.387 80.7006 135.214C82.2614 135.045 83.5356 134.95 83.5432 135.003Z" fill="#EB996E"/>
<path d="M142.932 9.77515L143.358 10.5508L144.135 10.9763L143.358 11.4018L142.932 12.1775L142.506 11.4018L141.729 10.9763L142.506 10.5508L142.932 9.77515Z" fill="#FF0079"/>
<path d="M151.829 29.043L152.255 29.8187L153.036 30.2442L152.255 30.6696L151.829 31.4453L151.403 30.6696L150.627 30.2442L151.403 29.8187L151.829 29.043Z" fill="#FF0079"/>
<path d="M9.19873 80.4492L9.62474 81.2249L10.4014 81.6504L9.62474 82.0759L9.19873 82.8516L8.77272 82.0759L7.99609 81.6504L8.77272 81.2249L9.19873 80.4492Z" fill="#FF0079"/>
<path d="M131.257 14.5649L132.24 16.3573L134.035 17.3401L132.24 18.3229L131.257 20.1152L130.273 18.3229L128.478 17.3401L130.273 16.3573L131.257 14.5649Z" fill="#FF0079"/>
<path d="M17.1761 68.2339L18.1563 70.0262L19.9508 71.0053L18.1563 71.9843L17.1761 73.7767L16.1959 71.9843L14.4014 71.0053L16.1959 70.0262L17.1761 68.2339Z" fill="#FF0079"/>
<path d="M154.25 110.961L155.234 112.753L157.024 113.732L155.234 114.711L154.25 116.5L153.27 114.711L151.479 113.732L153.27 112.753L154.25 110.961Z" fill="#FF0079"/>
</g>
<defs>
<clipPath id="clip0_934_2663">
<rect width="167" height="168" fill="white"/>
</clipPath>
</defs>
</svg>
