<svg width="75" height="61" viewBox="0 0 75 61" fill="none" xmlns="http://www.w3.org/2000/svg">
<path opacity="0.991" fill-rule="evenodd" clip-rule="evenodd" d="M75 18.3537C75 29.9634 75 41.5732 75 53.1829C73.9841 57.1 71.4939 59.5146 67.5293 60.4268C47.5097 60.5244 27.4903 60.5244 7.4707 60.4268C3.50606 59.5146 1.01583 57.1 0 53.1829C0 41.5732 0 29.9634 0 18.3537C0.983395 14.2252 3.57129 11.7618 7.76367 10.9634C10.7922 10.939 13.8195 10.8658 16.8457 10.7439C18.4039 8.3338 19.9907 5.94355 21.6064 3.57317C23.1116 1.97982 24.9426 0.979828 27.0996 0.573174C34.0332 0.475609 40.9668 0.475609 47.9004 0.573174C50.0574 0.979828 51.8884 1.97982 53.3936 3.57317C55.0093 5.94355 56.5961 8.3338 58.1543 10.7439C61.1805 10.8658 64.2078 10.939 67.2363 10.9634C71.4287 11.7618 74.0166 14.2252 75 18.3537ZM35.4492 12.939C44.1215 12.5018 50.6889 15.9652 55.1514 23.3293C59.0043 31.1991 58.3207 38.6625 53.1006 45.7195C47.3134 52.1341 40.2089 54.3047 31.7871 52.2317C23.6336 49.4525 18.8729 43.8184 17.5049 35.3293C16.8998 26.5624 20.3421 19.9038 27.832 15.3537C30.2527 14.1163 32.7917 13.3115 35.4492 12.939ZM60.9375 18.3537C62.3543 18.3294 63.7704 18.3537 65.1855 18.4268C67.3208 19.3145 67.7848 20.7535 66.5771 22.7439C66.2474 23.0186 65.8812 23.2381 65.4785 23.4024C63.916 23.5 62.3536 23.5 60.791 23.4024C59.2934 22.8737 58.683 21.825 58.96 20.2561C59.314 19.2924 59.9732 18.6583 60.9375 18.3537Z" fill="white"/>
</svg>
