<svg width="17" height="18" viewBox="0 0 17 18" fill="none" xmlns="http://www.w3.org/2000/svg">
<path opacity="0.988" fill-rule="evenodd" clip-rule="evenodd" d="M8.06338 0.500416C11.4719 0.472093 14.075 1.88872 15.8726 4.75031C17.4146 7.67225 17.3748 10.5717 15.7533 13.4487C14.0466 16.0565 11.6224 17.4069 8.48066 17.5C5.35505 17.3951 2.94406 16.0447 1.24774 13.4487C-0.375174 10.5718 -0.414915 7.67233 1.12852 4.75031C2.71555 2.16674 5.02718 0.750104 8.06338 0.500416ZM8.26209 3.95594C8.65088 3.88449 8.96217 4.00364 9.19601 4.31341C9.59604 5.13936 9.97359 5.97345 10.3286 6.81568C11.2472 6.94223 12.1613 7.09447 13.0708 7.27245C13.56 7.59337 13.6594 8.01042 13.3688 8.52358C12.7101 9.15531 12.0809 9.81067 11.4811 10.4897C11.644 11.4003 11.7898 12.3139 11.9183 13.2302C11.8427 13.8379 11.4982 14.1027 10.885 14.0246C10.0836 13.6043 9.2888 13.174 8.50053 12.7338C7.69267 13.164 6.88461 13.5942 6.07631 14.0246C5.48285 14.0853 5.13846 13.8205 5.04304 13.2302C5.1894 12.2996 5.34837 11.3728 5.51993 10.4499C4.86305 9.80669 4.22055 9.15134 3.59248 8.48387C3.31914 7.92649 3.45823 7.50945 4.00976 7.23273C4.88598 7.09562 5.76029 6.94997 6.63269 6.79582C7.03098 5.95331 7.43503 5.11259 7.8448 4.27369C7.96164 4.1332 8.10074 4.02731 8.26209 3.95594Z" fill="#FF0079"/>
</svg>
