<svg width="103" height="61" viewBox="0 0 103 61" fill="none" xmlns="http://www.w3.org/2000/svg">
<g opacity="0.2">
<path opacity="0.995" fill-rule="evenodd" clip-rule="evenodd" d="M0.5 51.3609C0.5 37.4536 0.5 23.5464 0.5 9.63911C1.78758 4.54806 5.04149 1.53475 10.2617 0.599387C26.664 0.466871 43.0665 0.466871 59.4688 0.599387C64.9672 1.44694 68.2543 4.59276 69.3301 10.0365C69.463 23.6789 69.463 37.3211 69.3301 50.9635C68.1752 56.3244 64.8881 59.47 59.4688 60.4006C43.0665 60.5331 26.664 60.5331 10.2617 60.4006C5.04149 59.4652 1.78758 56.4519 0.5 51.3609Z" fill="white"/>
<path opacity="0.99" fill-rule="evenodd" clip-rule="evenodd" d="M102.5 11.6259C102.5 24.1425 102.5 36.659 102.5 49.1755C100.426 54.138 96.9061 55.4958 91.9414 53.2484C86.2969 50.0034 80.6523 46.7583 75.0078 43.5133C74.7428 34.8181 74.7428 26.1093 75.0078 17.3875C81.1772 13.7188 87.4193 10.1758 93.7344 6.75839C98.0415 5.95792 100.963 7.5805 102.5 11.6259Z" fill="white"/>
</g>
</svg>
